<svg width="80" height="80" viewBox="0 0 80 80" fill="none" xmlns="http://www.w3.org/2000/svg">
<g clip-path="url(#clip0_495_3290)">
<path opacity="0.5" d="M22.405 23.3447L46.1588 18.0341C46.6312 17.9285 47.1248 18.0719 47.4671 18.4142L60.623 31.57C60.9652 31.9123 61.1086 32.4059 61.003 32.8783L55.6924 56.6321C55.5691 57.1836 55.1293 57.6087 54.5739 57.7132L31.9122 61.9756C31.4532 62.0619 30.9812 61.9161 30.651 61.5859L17.4513 48.3861C17.121 48.0559 16.9752 47.5839 17.0615 47.125L21.3239 24.4632C21.4284 23.9078 21.8535 23.468 22.405 23.3447Z" stroke="url(#paint0_linear_495_3290)" stroke-width="0.5"/>
<path opacity="0.5" d="M57.6692 23.3447L33.9154 18.0341C33.443 17.9285 32.9494 18.0719 32.6071 18.4142L19.4513 31.57C19.109 31.9123 18.9656 32.4059 19.0712 32.8783L24.3818 56.6321C24.5051 57.1836 24.945 57.6087 25.5003 57.7132L48.1621 61.9756C48.621 62.0619 49.093 61.9161 49.4232 61.5859L62.623 48.3861C62.9532 48.0559 63.099 47.5839 63.0127 47.125L58.7503 24.4632C58.6458 23.9078 58.2207 23.468 57.6692 23.3447Z" stroke="url(#paint1_linear_495_3290)" stroke-width="0.5"/>
<path fill-rule="evenodd" clip-rule="evenodd" d="M18.019 40.9219C18.0064 40.6162 18 40.3088 18 40H62C62 40.3088 61.9936 40.6162 61.981 40.9219H18.019ZM18.3085 43.6926C18.3609 44.0024 18.4197 44.31 18.4849 44.6152H61.5151C61.5803 44.31 61.6391 44.0024 61.6915 43.6926H18.3085ZM18.964 46.4609C18.8705 46.1562 18.7834 45.8486 18.703 45.5383H61.297C61.2166 45.8486 61.1295 46.1562 61.036 46.4609H18.964ZM19.2698 47.384C19.3808 47.6955 19.4986 48.0038 19.623 48.3086H60.377C60.5014 48.0038 60.6192 47.6955 60.7302 47.384H19.2698ZM20.4785 50.1543C20.3203 49.8508 20.169 49.5432 20.0248 49.2317H59.9752C59.831 49.5432 59.6797 49.8508 59.5215 50.1543H20.4785ZM20.9882 51.0774C21.1707 51.3899 21.3606 51.6975 21.5579 52H58.4421C58.6394 51.6975 58.8293 51.3899 59.0118 51.0774H20.9882ZM22.9024 53.8457C22.6583 53.5446 22.422 53.237 22.1937 52.9231H57.8063C57.578 53.237 57.3417 53.5446 57.0976 53.8457H22.9024ZM23.6939 54.7688C23.9803 55.0848 24.2758 55.3925 24.5799 55.6914H55.4201C55.7242 55.3925 56.0197 55.0848 56.3061 54.7688H23.6939ZM26.7171 57.5391C26.3273 57.2434 25.9476 56.935 25.5787 56.6145H54.4213C54.0524 56.935 53.6727 57.2434 53.2829 57.5391H26.7171ZM28.0307 58.4621C31.4756 60.7001 35.586 62 40 62C44.414 62 48.5244 60.7001 51.9693 58.4621H28.0307ZM18.1727 42.7695C18.1342 42.4633 18.102 42.155 18.0763 41.845H61.9237C61.898 42.155 61.8658 42.4633 61.8273 42.7695H18.1727Z" fill="#ECF7FF"/>
<path fill-rule="evenodd" clip-rule="evenodd" d="M61.5 40H61C61 39.8373 60.9981 39.675 60.9945 39.5131L61.2444 39.5075L61.4943 39.5018C61.4981 39.6674 61.5 39.8335 61.5 40ZM19 40C19 39.8373 19.0019 39.675 19.0055 39.5131L18.7556 39.5075L18.5057 39.5018C18.5019 39.6674 18.5 39.8335 18.5 40H19ZM61.1997 38.5268L61.4492 38.5097C61.4264 38.178 61.3962 37.8483 61.3586 37.5208L61.1102 37.5493L60.8619 37.5779C60.8986 37.8977 60.9281 38.2198 60.9503 38.5439L61.1997 38.5268ZM60.9758 36.5771L61.2226 36.5371C61.1695 36.2092 61.109 35.8836 61.0412 35.5608L60.7965 35.6122L60.5518 35.6635C60.618 35.9788 60.6772 36.2967 60.729 36.6171L60.9758 36.5771ZM60.5726 34.6566L60.8146 34.5939C60.7314 34.2724 60.6408 33.9538 60.5433 33.6383L60.3044 33.7122L60.0656 33.7861C60.1609 34.0942 60.2493 34.4053 60.3306 34.7192L60.5726 34.6566ZM59.9925 32.7812L60.2276 32.6963C60.1149 32.3841 59.9952 32.0753 59.8686 31.7701L59.6376 31.8658L59.4067 31.9616C59.5303 32.2597 59.6473 32.5613 59.7574 32.8661L59.9925 32.7812ZM59.0234 29.9727C59.1778 30.2651 59.3257 30.5614 59.4668 30.8616L59.2406 30.9679L59.0144 31.0743C58.8765 30.7812 58.7321 30.4918 58.5813 30.2062L58.8023 30.0895L59.0234 29.9727ZM58.3238 29.2322L58.5392 29.1053C58.371 28.8197 58.1964 28.5383 58.0155 28.2613L57.8062 28.398L57.5969 28.5347C57.7735 28.8052 57.9441 29.0801 58.1084 29.3591L58.3238 29.2322ZM57.2507 27.5885L57.4535 27.4423C57.2597 27.1735 57.0599 26.9094 56.8543 26.6501L56.6584 26.8055L56.4626 26.9608C56.6634 27.2141 56.8586 27.4721 57.0479 27.7347L57.2507 27.5885ZM56.0308 26.0505L56.2193 25.8863C56.0018 25.6365 55.7786 25.3918 55.5499 25.1524L55.3692 25.3251L55.1884 25.4978C55.4118 25.7316 55.6298 25.9707 55.8423 26.2147L56.0308 26.0505ZM54.6749 24.6308L54.8476 24.4501C54.6082 24.2214 54.3635 23.9982 54.1137 23.7807L53.9495 23.9692L53.7853 24.1577C54.0293 24.3702 54.2684 24.5883 54.5022 24.8116L54.6749 24.6308ZM53.1945 23.3416L53.3499 23.1457C53.0906 22.9401 52.8265 22.7403 52.5577 22.5465L52.4115 22.7493L52.2653 22.9521C52.5279 23.1414 52.7859 23.3366 53.0392 23.5374L53.1945 23.3416ZM51.602 22.1938L51.7387 21.9845C51.4617 21.8036 51.1803 21.629 50.8947 21.4608L50.7678 21.6762L50.6409 21.8916C50.9199 22.0559 51.1948 22.2265 51.4653 22.4031L51.602 22.1938ZM49.9105 21.1977L50.0273 20.9766C49.7349 20.8222 49.4386 20.6743 49.1384 20.5332L49.0321 20.7594L48.9257 20.9856C49.2188 21.1235 49.5082 21.2679 49.7938 21.4187L49.9105 21.1977ZM48.1342 20.3624L48.2299 20.1314C47.9247 20.0048 47.6159 19.8851 47.3037 19.7723L47.2188 20.0075L47.1339 20.2426C47.4387 20.3527 47.7403 20.4697 48.0384 20.5933L48.1342 20.3624ZM46.2878 19.6956L46.3617 19.4567C46.0462 19.3592 45.7276 19.2686 45.4061 19.1854L45.3434 19.4274L45.2808 19.6694C45.5947 19.7507 45.9058 19.8391 46.2139 19.9344L46.2878 19.6956ZM44.3878 19.2035L44.4392 18.9588C44.1164 18.891 43.7908 18.8305 43.4628 18.7774L43.4229 19.0242L43.3829 19.271C43.7033 19.3228 44.0212 19.382 44.3365 19.4482L44.3878 19.2035ZM42.4507 18.8898L42.4792 18.6414C42.1517 18.6038 41.822 18.5736 41.4903 18.5508L41.4732 18.8003L41.4561 19.0497C41.7802 19.0719 42.1023 19.1014 42.4221 19.1381L42.4507 18.8898ZM40.4925 18.7556L40.4982 18.5057C40.3326 18.5019 40.1665 18.5 40 18.5C39.8335 18.5 39.6674 18.5019 39.5018 18.5057L39.5075 18.7556L39.5131 19.0055C39.675 19.0019 39.8373 19 40 19C40.1627 19 40.325 19.0019 40.4869 19.0055L40.4925 18.7556ZM38.5268 18.8003L38.5097 18.5508C38.178 18.5736 37.8483 18.6038 37.5208 18.6414L37.5493 18.8898L37.5779 19.1381C37.8977 19.1014 38.2198 19.0719 38.5439 19.0497L38.5268 18.8003ZM36.5771 19.0242L36.5371 18.7774C36.2092 18.8305 35.8836 18.891 35.5608 18.9588L35.6122 19.2035L35.6635 19.4482C35.9788 19.382 36.2967 19.3228 36.6171 19.271L36.5771 19.0242ZM34.6566 19.4274L34.5939 19.1854C34.2724 19.2686 33.9538 19.3592 33.6383 19.4567L33.7122 19.6956L33.7861 19.9344C34.0942 19.8391 34.4053 19.7507 34.7192 19.6694L34.6566 19.4274ZM32.7812 20.0075L32.6963 19.7724C32.3841 19.8851 32.0753 20.0048 31.7701 20.1314L31.8658 20.3624L31.9616 20.5933C32.2597 20.4697 32.5613 20.3527 32.8661 20.2426L32.7812 20.0075ZM30.9679 20.7594L30.8616 20.5332C30.5614 20.6743 30.2651 20.8222 29.9727 20.9766L30.0895 21.1977L30.2062 21.4187C30.4918 21.2679 30.7812 21.1235 31.0743 20.9856L30.9679 20.7594ZM29.2322 21.6762L29.1053 21.4607C28.8197 21.629 28.5383 21.8036 28.2613 21.9845L28.398 22.1938L28.5347 22.4031C28.8052 22.2265 29.0801 22.0559 29.3591 21.8916L29.2322 21.6762ZM27.5885 22.7493L27.4423 22.5465C27.1735 22.7403 26.9094 22.9401 26.6501 23.1457L26.8055 23.3416L26.9608 23.5374C27.2141 23.3366 27.4721 23.1414 27.7347 22.9521L27.5885 22.7493ZM26.0505 23.9692L25.8863 23.7807C25.6365 23.9982 25.3918 24.2214 25.1524 24.4501L25.3251 24.6308L25.4978 24.8116C25.7316 24.5882 25.9707 24.3702 26.2147 24.1577L26.0505 23.9692ZM24.6308 25.3251L24.4501 25.1524C24.2214 25.3918 23.9982 25.6365 23.7807 25.8863L23.9692 26.0505L24.1577 26.2147C24.3702 25.9707 24.5883 25.7316 24.8116 25.4978L24.6308 25.3251ZM23.3416 26.8055L23.1457 26.6501C22.9401 26.9094 22.7403 27.1735 22.5465 27.4423L22.7493 27.5885L22.9521 27.7347C23.1414 27.4721 23.3366 27.2141 23.5374 26.9608L23.3416 26.8055ZM22.1938 28.398L21.9845 28.2613C21.8036 28.5383 21.629 28.8197 21.4608 29.1053L21.6762 29.2322L21.8916 29.3591C22.0559 29.0801 22.2265 28.8052 22.4031 28.5347L22.1938 28.398ZM21.1977 30.0895L20.9766 29.9727C20.8222 30.2651 20.6743 30.5614 20.5332 30.8616L20.7594 30.9679L20.9856 31.0743C21.1235 30.7812 21.2679 30.4918 21.4187 30.2062L21.1977 30.0895ZM20.3624 31.8658L20.1314 31.7701C20.0048 32.0753 19.8851 32.3841 19.7723 32.6963L20.0075 32.7812L20.2426 32.8661C20.3527 32.5613 20.4697 32.2597 20.5933 31.9616L20.3624 31.8658ZM19.6956 33.7122L19.4567 33.6383C19.3592 33.9538 19.2686 34.2724 19.1854 34.5939L19.4274 34.6566L19.6694 34.7192C19.7507 34.4053 19.8391 34.0942 19.9344 33.7861L19.6956 33.7122ZM19.2035 35.6122L18.9588 35.5608C18.891 35.8836 18.8305 36.2092 18.7774 36.5372L19.0242 36.5771L19.271 36.6171C19.3228 36.2967 19.382 35.9788 19.4482 35.6635L19.2035 35.6122ZM18.8898 37.5493L18.6414 37.5208C18.6038 37.8483 18.5736 38.178 18.5508 38.5097L18.8003 38.5268L19.0497 38.5439C19.0719 38.2198 19.1014 37.8977 19.1381 37.5779L18.8898 37.5493Z" fill="#ECF7FF"/>
<g filter="url(#filter0_d_495_3290)">
<circle cx="40" cy="40" r="20" fill="url(#paint2_linear_495_3290)"/>
<circle cx="40" cy="40" r="19.75" stroke="url(#paint3_linear_495_3290)" stroke-width="0.5"/>
</g>
<mask id="mask0_495_3290" style="mask-type:alpha" maskUnits="userSpaceOnUse" x="20" y="20" width="40" height="40">
<circle cx="40" cy="40" r="20" fill="#292E37"/>
<circle cx="40" cy="40" r="19.75" stroke="url(#paint4_linear_495_3290)" stroke-opacity="0.66" stroke-width="0.5"/>
</mask>
<g mask="url(#mask0_495_3290)">
<path d="M44.8892 -5.60938L45.2427 -5.25582L-4.25476 44.2417L-4.60831 43.8881L44.8892 -5.60938Z" fill="url(#paint5_linear_495_3290)" fill-opacity="0.33"/>
<path d="M45.9498 -4.54871L46.3034 -4.19516L-3.1941 45.3023L-3.54765 44.9488L45.9498 -4.54871Z" fill="url(#paint6_linear_495_3290)" fill-opacity="0.33"/>
<path d="M47.0105 -3.48805L47.364 -3.1345L-2.13344 46.363L-2.48699 46.0094L47.0105 -3.48805Z" fill="url(#paint7_linear_495_3290)" fill-opacity="0.33"/>
<path d="M48.0711 -2.42739L48.4247 -2.07384L-1.07278 47.4236L-1.42633 47.0701L48.0711 -2.42739Z" fill="url(#paint8_linear_495_3290)" fill-opacity="0.33"/>
<path d="M49.1318 -1.36673L49.4854 -1.01318L-0.0121197 48.4843L-0.365673 48.1307L49.1318 -1.36673Z" fill="url(#paint9_linear_495_3290)" fill-opacity="0.33"/>
<path d="M50.1925 -0.306074L50.546 0.0474792L1.04854 49.545L0.694987 49.1914L50.1925 -0.306074Z" fill="url(#paint10_linear_495_3290)" fill-opacity="0.33"/>
<path d="M51.2531 0.754586L51.6067 1.10814L2.1092 50.6056L1.75565 50.2521L51.2531 0.754586Z" fill="url(#paint11_linear_495_3290)" fill-opacity="0.33"/>
<path d="M52.3138 1.81525L52.6673 2.1688L3.16986 51.6663L2.81631 51.3127L52.3138 1.81525Z" fill="url(#paint12_linear_495_3290)" fill-opacity="0.33"/>
<path d="M53.3744 2.87591L53.728 3.22946L4.23052 52.7269L3.87697 52.3734L53.3744 2.87591Z" fill="url(#paint13_linear_495_3290)" fill-opacity="0.33"/>
<path d="M54.4351 3.93657L54.7887 4.29012L5.29118 53.7876L4.93763 53.434L54.4351 3.93657Z" fill="url(#paint14_linear_495_3290)" fill-opacity="0.33"/>
<path d="M55.4958 4.99723L55.8493 5.35078L6.35184 54.8483L5.99829 54.4947L55.4958 4.99723Z" fill="url(#paint15_linear_495_3290)" fill-opacity="0.33"/>
<path d="M56.5564 6.05789L56.91 6.41144L7.4125 55.9089L7.05895 55.5554L56.5564 6.05789Z" fill="url(#paint16_linear_495_3290)" fill-opacity="0.33"/>
<path d="M57.6171 7.11855L57.9706 7.4721L8.47316 56.9696L8.11961 56.616L57.6171 7.11855Z" fill="url(#paint17_linear_495_3290)" fill-opacity="0.33"/>
<path d="M58.6777 8.17921L59.0313 8.53276L9.53382 58.0302L9.18027 57.6767L58.6777 8.17921Z" fill="url(#paint18_linear_495_3290)" fill-opacity="0.33"/>
<path d="M59.7384 9.23987L60.092 9.59342L10.5945 59.0909L10.2409 58.7373L59.7384 9.23987Z" fill="url(#paint19_linear_495_3290)" fill-opacity="0.33"/>
<path d="M60.7991 10.3005L61.1526 10.6541L11.6551 60.1516L11.3016 59.798L60.7991 10.3005Z" fill="url(#paint20_linear_495_3290)" fill-opacity="0.33"/>
<path d="M61.8597 11.3612L62.2133 11.7147L12.7158 61.2122L12.3622 60.8587L61.8597 11.3612Z" fill="url(#paint21_linear_495_3290)" fill-opacity="0.33"/>
<path d="M62.9204 12.4218L63.2739 12.7754L13.7765 62.2729L13.4229 61.9193L62.9204 12.4218Z" fill="url(#paint22_linear_495_3290)" fill-opacity="0.33"/>
<path d="M63.981 13.4825L64.3346 13.8361L14.8371 63.3335L14.4836 62.98L63.981 13.4825Z" fill="url(#paint23_linear_495_3290)" fill-opacity="0.33"/>
<path d="M65.0417 14.5432L65.3953 14.8967L15.8978 64.3942L15.5442 64.0406L65.0417 14.5432Z" fill="url(#paint24_linear_495_3290)" fill-opacity="0.33"/>
<path d="M66.1024 15.6038L66.4559 15.9574L16.9584 65.4549L16.6049 65.1013L66.1024 15.6038Z" fill="url(#paint25_linear_495_3290)" fill-opacity="0.33"/>
<path d="M67.163 16.6645L67.5166 17.018L18.0191 66.5155L17.6655 66.162L67.163 16.6645Z" fill="url(#paint26_linear_495_3290)" fill-opacity="0.33"/>
<path d="M68.2237 17.7251L68.5772 18.0787L19.0798 67.5762L18.7262 67.2226L68.2237 17.7251Z" fill="url(#paint27_linear_495_3290)" fill-opacity="0.33"/>
<path d="M69.2843 18.7858L69.6379 19.1394L20.1404 68.6368L19.7869 68.2833L69.2843 18.7858Z" fill="url(#paint28_linear_495_3290)" fill-opacity="0.33"/>
<path d="M70.345 19.8465L70.6986 20.2L21.2011 69.6975L20.8475 69.3439L70.345 19.8465Z" fill="url(#paint29_linear_495_3290)" fill-opacity="0.33"/>
<path d="M71.4057 20.9071L71.7592 21.2607L22.2617 70.7582L21.9082 70.4046L71.4057 20.9071Z" fill="url(#paint30_linear_495_3290)" fill-opacity="0.33"/>
<path d="M72.4663 21.9678L72.8199 22.3213L23.3224 71.8188L22.9689 71.4653L72.4663 21.9678Z" fill="url(#paint31_linear_495_3290)" fill-opacity="0.33"/>
<path d="M73.527 23.0284L73.8805 23.382L24.3831 72.8795L24.0295 72.5259L73.527 23.0284Z" fill="url(#paint32_linear_495_3290)" fill-opacity="0.33"/>
<path d="M74.5876 24.0891L74.9412 24.4427L25.4437 73.9401L25.0902 73.5866L74.5876 24.0891Z" fill="url(#paint33_linear_495_3290)" fill-opacity="0.33"/>
<path d="M75.6483 25.1498L76.0019 25.5033L26.5044 75.0008L26.1508 74.6472L75.6483 25.1498Z" fill="url(#paint34_linear_495_3290)" fill-opacity="0.33"/>
<path d="M76.709 26.2104L77.0625 26.564L27.565 76.0615L27.2115 75.7079L76.709 26.2104Z" fill="url(#paint35_linear_495_3290)" fill-opacity="0.33"/>
<path d="M77.7696 27.2711L78.1232 27.6246L28.6257 77.1221L28.2722 76.7686L77.7696 27.2711Z" fill="url(#paint36_linear_495_3290)" fill-opacity="0.33"/>
<path d="M78.8303 28.3317L79.1838 28.6853L29.6864 78.1828L29.3328 77.8292L78.8303 28.3317Z" fill="url(#paint37_linear_495_3290)" fill-opacity="0.33"/>
<path d="M79.8909 29.3924L80.2445 29.746L30.747 79.2434L30.3935 78.8899L79.8909 29.3924Z" fill="url(#paint38_linear_495_3290)" fill-opacity="0.33"/>
<path d="M80.9516 30.4531L81.3052 30.8066L31.8077 80.3041L31.4541 79.9505L80.9516 30.4531Z" fill="url(#paint39_linear_495_3290)" fill-opacity="0.33"/>
<path d="M82.0123 31.5137L82.3658 31.8673L32.8683 81.3648L32.5148 81.0112L82.0123 31.5137Z" fill="url(#paint40_linear_495_3290)" fill-opacity="0.33"/>
<path d="M83.0729 32.5744L83.4265 32.9279L33.929 82.4254L33.5755 82.0719L83.0729 32.5744Z" fill="url(#paint41_linear_495_3290)" fill-opacity="0.33"/>
<path d="M84.1336 33.6351L84.4871 33.9886L34.9897 83.4861L34.6361 83.1325L84.1336 33.6351Z" fill="url(#paint42_linear_495_3290)" fill-opacity="0.33"/>
<path d="M85.1942 34.6957L85.5478 35.0493L36.0503 84.5467L35.6968 84.1932L85.1942 34.6957Z" fill="url(#paint43_linear_495_3290)" fill-opacity="0.33"/>
<path d="M86.2549 35.7564L86.6085 36.1099L37.111 85.6074L36.7574 85.2538L86.2549 35.7564Z" fill="url(#paint44_linear_495_3290)" fill-opacity="0.33"/>
</g>
<circle cx="40" cy="40" r="17.75" stroke="#ECF7FF" stroke-width="0.5" stroke-dasharray="0.5 1"/>
<path opacity="0.33" d="M28 46.9013L38.8682 51.2224L34.784 39.5914L43.684 44.3996L37.4053 33.7431L49.3531 41.7358L41.1237 29L52.0742 33.0967" stroke="url(#paint45_linear_495_3290)" stroke-width="0.3"/>
<path d="M34 49.4L38.6975 46.6989L38.2801 46.2909L34 48.752V49.4Z" fill="white"/>
<path d="M50 40.2L39.2064 46.4063L38.7889 45.9983L48.873 40.2L43.2087 36.943L43.6261 36.535L50 40.2Z" fill="white"/>
<path d="M43.1173 36.2424L34 31V31.648L42.6999 36.6505L43.1173 36.2424Z" fill="white"/>
<path d="M42.2539 37.0864L34 32.38V41.3171L35.9629 43.2358L42.2539 37.0864Z" fill="white"/>
<path d="M42.7643 37.3775L47.7143 40.2L38.3308 45.5505L36.367 43.6308L42.7643 37.3775Z" fill="white"/>
<path d="M35.5588 43.6308L34 42.1071V45.1546L35.5588 43.6308Z" fill="white"/>
<path d="M34 45.9445V48.02L37.8204 45.8415L35.9629 44.0258L34 45.9445Z" fill="white"/>
</g>
<defs>
<filter id="filter0_d_495_3290" x="0" y="0" width="80" height="80" filterUnits="userSpaceOnUse" color-interpolation-filters="sRGB">
<feFlood flood-opacity="0" result="BackgroundImageFix"/>
<feColorMatrix in="SourceAlpha" type="matrix" values="0 0 0 0 0 0 0 0 0 0 0 0 0 0 0 0 0 0 127 0" result="hardAlpha"/>
<feOffset/>
<feGaussianBlur stdDeviation="10"/>
<feComposite in2="hardAlpha" operator="out"/>
<feColorMatrix type="matrix" values="0 0 0 0 0.0840327 0 0 0 0 0.737666 0 0 0 0 0.0706933 0 0 0 1 0"/>
<feBlend mode="normal" in2="BackgroundImageFix" result="effect1_dropShadow_495_3290"/>
<feBlend mode="normal" in="SourceGraphic" in2="effect1_dropShadow_495_3290" result="shape"/>
</filter>
<linearGradient id="paint0_linear_495_3290" x1="61.0698" y1="30.0034" x2="49.3667" y2="71.187" gradientUnits="userSpaceOnUse">
<stop stop-color="#B3FB91"/>
<stop offset="1" stop-color="#1AC217" stop-opacity="0"/>
</linearGradient>
<linearGradient id="paint1_linear_495_3290" x1="19.0044" y1="30.0034" x2="30.7075" y2="71.187" gradientUnits="userSpaceOnUse">
<stop stop-color="#B3FB91"/>
<stop offset="1" stop-color="#1AC217" stop-opacity="0"/>
</linearGradient>
<linearGradient id="paint2_linear_495_3290" x1="40" y1="20" x2="40" y2="60" gradientUnits="userSpaceOnUse">
<stop stop-color="#75BE36"/>
<stop offset="1" stop-color="#14650E"/>
</linearGradient>
<linearGradient id="paint3_linear_495_3290" x1="40" y1="20" x2="40" y2="60.8417" gradientUnits="userSpaceOnUse">
<stop stop-color="white"/>
<stop offset="0.270829" stop-color="#ECF3F7"/>
<stop offset="0.619793" stop-color="#E0E7ED"/>
<stop offset="1" stop-color="#99AAC2"/>
</linearGradient>
<linearGradient id="paint4_linear_495_3290" x1="40" y1="20" x2="35.7823" y2="68.8858" gradientUnits="userSpaceOnUse">
<stop stop-color="#D7E1E9"/>
<stop offset="1" stop-color="#232631"/>
</linearGradient>
<linearGradient id="paint5_linear_495_3290" x1="48.8375" y1="28.2661" x2="13.3369" y2="62.8741" gradientUnits="userSpaceOnUse">
<stop stop-color="white" stop-opacity="0"/>
<stop offset="1" stop-color="white"/>
</linearGradient>
<linearGradient id="paint6_linear_495_3290" x1="48.8375" y1="28.2661" x2="13.3369" y2="62.8741" gradientUnits="userSpaceOnUse">
<stop stop-color="white" stop-opacity="0"/>
<stop offset="1" stop-color="white"/>
</linearGradient>
<linearGradient id="paint7_linear_495_3290" x1="48.8375" y1="28.2661" x2="13.3369" y2="62.8741" gradientUnits="userSpaceOnUse">
<stop stop-color="white" stop-opacity="0"/>
<stop offset="1" stop-color="white"/>
</linearGradient>
<linearGradient id="paint8_linear_495_3290" x1="48.8375" y1="28.2661" x2="13.3369" y2="62.8741" gradientUnits="userSpaceOnUse">
<stop stop-color="white" stop-opacity="0"/>
<stop offset="1" stop-color="white"/>
</linearGradient>
<linearGradient id="paint9_linear_495_3290" x1="48.8375" y1="28.2661" x2="13.3369" y2="62.8741" gradientUnits="userSpaceOnUse">
<stop stop-color="white" stop-opacity="0"/>
<stop offset="1" stop-color="white"/>
</linearGradient>
<linearGradient id="paint10_linear_495_3290" x1="48.8375" y1="28.2661" x2="13.3369" y2="62.8741" gradientUnits="userSpaceOnUse">
<stop stop-color="white" stop-opacity="0"/>
<stop offset="1" stop-color="white"/>
</linearGradient>
<linearGradient id="paint11_linear_495_3290" x1="48.8375" y1="28.2661" x2="13.3369" y2="62.8741" gradientUnits="userSpaceOnUse">
<stop stop-color="white" stop-opacity="0"/>
<stop offset="1" stop-color="white"/>
</linearGradient>
<linearGradient id="paint12_linear_495_3290" x1="48.8375" y1="28.2661" x2="13.3369" y2="62.8741" gradientUnits="userSpaceOnUse">
<stop stop-color="white" stop-opacity="0"/>
<stop offset="1" stop-color="white"/>
</linearGradient>
<linearGradient id="paint13_linear_495_3290" x1="48.8375" y1="28.2661" x2="13.3369" y2="62.8741" gradientUnits="userSpaceOnUse">
<stop stop-color="white" stop-opacity="0"/>
<stop offset="1" stop-color="white"/>
</linearGradient>
<linearGradient id="paint14_linear_495_3290" x1="48.8375" y1="28.2661" x2="13.3369" y2="62.8741" gradientUnits="userSpaceOnUse">
<stop stop-color="white" stop-opacity="0"/>
<stop offset="1" stop-color="white"/>
</linearGradient>
<linearGradient id="paint15_linear_495_3290" x1="48.8375" y1="28.2661" x2="13.3369" y2="62.8741" gradientUnits="userSpaceOnUse">
<stop stop-color="white" stop-opacity="0"/>
<stop offset="1" stop-color="white"/>
</linearGradient>
<linearGradient id="paint16_linear_495_3290" x1="48.8375" y1="28.2661" x2="13.3369" y2="62.8741" gradientUnits="userSpaceOnUse">
<stop stop-color="white" stop-opacity="0"/>
<stop offset="1" stop-color="white"/>
</linearGradient>
<linearGradient id="paint17_linear_495_3290" x1="48.8375" y1="28.2661" x2="13.3369" y2="62.8741" gradientUnits="userSpaceOnUse">
<stop stop-color="white" stop-opacity="0"/>
<stop offset="1" stop-color="white"/>
</linearGradient>
<linearGradient id="paint18_linear_495_3290" x1="48.8375" y1="28.2661" x2="13.3369" y2="62.8741" gradientUnits="userSpaceOnUse">
<stop stop-color="white" stop-opacity="0"/>
<stop offset="1" stop-color="white"/>
</linearGradient>
<linearGradient id="paint19_linear_495_3290" x1="48.8375" y1="28.2661" x2="13.3369" y2="62.8741" gradientUnits="userSpaceOnUse">
<stop stop-color="white" stop-opacity="0"/>
<stop offset="1" stop-color="white"/>
</linearGradient>
<linearGradient id="paint20_linear_495_3290" x1="48.8375" y1="28.2661" x2="13.3369" y2="62.8741" gradientUnits="userSpaceOnUse">
<stop stop-color="white" stop-opacity="0"/>
<stop offset="1" stop-color="white"/>
</linearGradient>
<linearGradient id="paint21_linear_495_3290" x1="48.8375" y1="28.2661" x2="13.3369" y2="62.8741" gradientUnits="userSpaceOnUse">
<stop stop-color="white" stop-opacity="0"/>
<stop offset="1" stop-color="white"/>
</linearGradient>
<linearGradient id="paint22_linear_495_3290" x1="48.8375" y1="28.2661" x2="13.3369" y2="62.8741" gradientUnits="userSpaceOnUse">
<stop stop-color="white" stop-opacity="0"/>
<stop offset="1" stop-color="white"/>
</linearGradient>
<linearGradient id="paint23_linear_495_3290" x1="48.8375" y1="28.2661" x2="13.3369" y2="62.8741" gradientUnits="userSpaceOnUse">
<stop stop-color="white" stop-opacity="0"/>
<stop offset="1" stop-color="white"/>
</linearGradient>
<linearGradient id="paint24_linear_495_3290" x1="48.8375" y1="28.2661" x2="13.3369" y2="62.8741" gradientUnits="userSpaceOnUse">
<stop stop-color="white" stop-opacity="0"/>
<stop offset="1" stop-color="white"/>
</linearGradient>
<linearGradient id="paint25_linear_495_3290" x1="48.8375" y1="28.2661" x2="13.3369" y2="62.8741" gradientUnits="userSpaceOnUse">
<stop stop-color="white" stop-opacity="0"/>
<stop offset="1" stop-color="white"/>
</linearGradient>
<linearGradient id="paint26_linear_495_3290" x1="48.8375" y1="28.2661" x2="13.3369" y2="62.8741" gradientUnits="userSpaceOnUse">
<stop stop-color="white" stop-opacity="0"/>
<stop offset="1" stop-color="white"/>
</linearGradient>
<linearGradient id="paint27_linear_495_3290" x1="48.8375" y1="28.2661" x2="13.3369" y2="62.8741" gradientUnits="userSpaceOnUse">
<stop stop-color="white" stop-opacity="0"/>
<stop offset="1" stop-color="white"/>
</linearGradient>
<linearGradient id="paint28_linear_495_3290" x1="48.8375" y1="28.2661" x2="13.3369" y2="62.8741" gradientUnits="userSpaceOnUse">
<stop stop-color="white" stop-opacity="0"/>
<stop offset="1" stop-color="white"/>
</linearGradient>
<linearGradient id="paint29_linear_495_3290" x1="48.8375" y1="28.2661" x2="13.3369" y2="62.8741" gradientUnits="userSpaceOnUse">
<stop stop-color="white" stop-opacity="0"/>
<stop offset="1" stop-color="white"/>
</linearGradient>
<linearGradient id="paint30_linear_495_3290" x1="48.8375" y1="28.2661" x2="13.3369" y2="62.8741" gradientUnits="userSpaceOnUse">
<stop stop-color="white" stop-opacity="0"/>
<stop offset="1" stop-color="white"/>
</linearGradient>
<linearGradient id="paint31_linear_495_3290" x1="48.8375" y1="28.2661" x2="13.3369" y2="62.8741" gradientUnits="userSpaceOnUse">
<stop stop-color="white" stop-opacity="0"/>
<stop offset="1" stop-color="white"/>
</linearGradient>
<linearGradient id="paint32_linear_495_3290" x1="48.8375" y1="28.2661" x2="13.3369" y2="62.8741" gradientUnits="userSpaceOnUse">
<stop stop-color="white" stop-opacity="0"/>
<stop offset="1" stop-color="white"/>
</linearGradient>
<linearGradient id="paint33_linear_495_3290" x1="48.8375" y1="28.2661" x2="13.3369" y2="62.8741" gradientUnits="userSpaceOnUse">
<stop stop-color="white" stop-opacity="0"/>
<stop offset="1" stop-color="white"/>
</linearGradient>
<linearGradient id="paint34_linear_495_3290" x1="48.8375" y1="28.2661" x2="13.3369" y2="62.8741" gradientUnits="userSpaceOnUse">
<stop stop-color="white" stop-opacity="0"/>
<stop offset="1" stop-color="white"/>
</linearGradient>
<linearGradient id="paint35_linear_495_3290" x1="48.8375" y1="28.2661" x2="13.3369" y2="62.8741" gradientUnits="userSpaceOnUse">
<stop stop-color="white" stop-opacity="0"/>
<stop offset="1" stop-color="white"/>
</linearGradient>
<linearGradient id="paint36_linear_495_3290" x1="48.8375" y1="28.2661" x2="13.3369" y2="62.8741" gradientUnits="userSpaceOnUse">
<stop stop-color="white" stop-opacity="0"/>
<stop offset="1" stop-color="white"/>
</linearGradient>
<linearGradient id="paint37_linear_495_3290" x1="48.8375" y1="28.2661" x2="13.3369" y2="62.8741" gradientUnits="userSpaceOnUse">
<stop stop-color="white" stop-opacity="0"/>
<stop offset="1" stop-color="white"/>
</linearGradient>
<linearGradient id="paint38_linear_495_3290" x1="48.8375" y1="28.2661" x2="13.3369" y2="62.8741" gradientUnits="userSpaceOnUse">
<stop stop-color="white" stop-opacity="0"/>
<stop offset="1" stop-color="white"/>
</linearGradient>
<linearGradient id="paint39_linear_495_3290" x1="48.8375" y1="28.2661" x2="13.3369" y2="62.8741" gradientUnits="userSpaceOnUse">
<stop stop-color="white" stop-opacity="0"/>
<stop offset="1" stop-color="white"/>
</linearGradient>
<linearGradient id="paint40_linear_495_3290" x1="48.8375" y1="28.2661" x2="13.3369" y2="62.8741" gradientUnits="userSpaceOnUse">
<stop stop-color="white" stop-opacity="0"/>
<stop offset="1" stop-color="white"/>
</linearGradient>
<linearGradient id="paint41_linear_495_3290" x1="48.8375" y1="28.2661" x2="13.3369" y2="62.8741" gradientUnits="userSpaceOnUse">
<stop stop-color="white" stop-opacity="0"/>
<stop offset="1" stop-color="white"/>
</linearGradient>
<linearGradient id="paint42_linear_495_3290" x1="48.8375" y1="28.2661" x2="13.3369" y2="62.8741" gradientUnits="userSpaceOnUse">
<stop stop-color="white" stop-opacity="0"/>
<stop offset="1" stop-color="white"/>
</linearGradient>
<linearGradient id="paint43_linear_495_3290" x1="48.8375" y1="28.2661" x2="13.3369" y2="62.8741" gradientUnits="userSpaceOnUse">
<stop stop-color="white" stop-opacity="0"/>
<stop offset="1" stop-color="white"/>
</linearGradient>
<linearGradient id="paint44_linear_495_3290" x1="48.8375" y1="28.2661" x2="13.3369" y2="62.8741" gradientUnits="userSpaceOnUse">
<stop stop-color="white" stop-opacity="0"/>
<stop offset="1" stop-color="white"/>
</linearGradient>
<linearGradient id="paint45_linear_495_3290" x1="40.0371" y1="29" x2="40.0371" y2="51.69" gradientUnits="userSpaceOnUse">
<stop stop-color="white"/>
<stop offset="0.270829" stop-color="#ECF3F7"/>
<stop offset="0.619793" stop-color="#E0E7ED"/>
<stop offset="1" stop-color="#99AAC2"/>
</linearGradient>
<clipPath id="clip0_495_3290">
<rect width="80" height="80" fill="white"/>
</clipPath>
</defs>
</svg>
