<svg width="540" height="22" viewBox="0 0 540 22" fill="none" xmlns="http://www.w3.org/2000/svg">
<mask id="path-1-inside-1_7_321" fill="white">
<path d="M199.258 1C200.695 1 201.918 1.50401 202.926 2.51172C203.934 3.51972 204.438 4.73368 204.438 6.15234V7.07617H200.91V6.15234C200.91 5.70437 200.752 5.32123 200.435 5.00391C200.117 4.68657 199.724 4.52832 199.258 4.52832C198.81 4.52842 198.428 4.68679 198.11 5.00391C197.793 5.32124 197.634 5.70434 197.634 6.15234V16.792C197.634 17.24 197.793 17.6231 198.11 17.9404C198.428 18.2575 198.81 18.4159 199.258 18.416C199.724 18.416 200.117 18.2578 200.435 17.9404C200.752 17.6231 200.91 17.24 200.91 16.792V12.8721H198.866V9.34375H204.438V16.792C204.438 18.2107 203.934 19.4246 202.926 20.4326C201.918 21.4403 200.695 21.9443 199.258 21.9443C197.839 21.9442 196.626 21.4404 195.618 20.4326C194.61 19.4246 194.106 18.2107 194.106 16.792V6.15234C194.106 4.73368 194.61 3.51972 195.618 2.51172C196.626 1.50394 197.839 1.0001 199.258 1ZM235.019 1C236.456 1.00004 237.679 1.50386 238.687 2.51172C239.695 3.51972 240.198 4.73368 240.198 6.15234V7.07617H236.67V6.15234C236.67 5.70434 236.512 5.32124 236.194 5.00391C235.877 4.68671 235.485 4.52836 235.019 4.52832C234.571 4.52832 234.187 4.68657 233.87 5.00391C233.553 5.32124 233.395 5.70435 233.395 6.15234V16.792C233.395 17.24 233.553 17.6231 233.87 17.9404C234.187 18.2578 234.571 18.416 235.019 18.416C235.485 18.416 235.877 18.2576 236.194 17.9404C236.512 17.6231 236.67 17.24 236.67 16.792V15.8682H240.198V16.792C240.198 18.2107 239.695 19.4246 238.687 20.4326C237.679 21.4405 236.456 21.9443 235.019 21.9443C233.6 21.9443 232.386 21.4406 231.378 20.4326C230.37 19.4246 229.866 18.2107 229.866 16.792V6.15234C229.866 4.73368 230.37 3.51972 231.378 2.51172C232.386 1.50372 233.6 1 235.019 1ZM161.901 1.28027C163.339 1.28027 164.561 1.78414 165.569 2.79199C166.577 3.79999 167.082 5.01395 167.082 6.43262V7.71973C167.082 8.87706 166.737 9.89513 166.046 10.7725C167.11 11.7991 167.642 13.0402 167.642 14.4961V16.5117C167.642 17.9304 167.138 19.1443 166.13 20.1523C165.122 21.1603 163.899 21.664 162.462 21.6641H157.31V1.28027H161.901ZM182.532 21.6641H179.004V1.28027H182.532V21.6641ZM254.982 21.6641H251.454V1.28027H254.982V21.6641ZM272.576 21.6641H269.048V13.6641H272.576V21.6641ZM290.188 9.00781L292.177 1.28027H295.984L291.952 12.9004V21.6641H288.425V12.9004L284.393 1.28027H288.2L290.188 9.00781ZM323.796 18.1357H328.583V21.6641H320.268V1.28027H323.796V18.1357ZM342.646 21.6641H339.118V9.95215H342.646V21.6641ZM363.601 4.80859H357.86V9.34375H362.929V12.8721H357.86V21.6641H354.332V1.28027H363.601V4.80859ZM383.49 4.80859H377.75V9.34375H382.818V12.8721H377.75V18.1357H383.49V21.6641H374.222V1.28027H383.49V4.80859ZM160.838 18.1357H162.462C162.928 18.1357 163.32 17.9774 163.638 17.6602C163.955 17.3428 164.113 16.9597 164.113 16.5117V14.4961C164.113 14.0482 163.955 13.6659 163.638 13.3486C163.32 13.0314 162.928 12.8721 162.462 12.8721H160.838V18.1357ZM272.576 12.6641H269.048V11.6641H272.576V12.6641ZM272.576 10.6641H269.048V9.66406H272.576V10.6641ZM160.838 9.34375H161.901C162.368 9.34375 162.761 9.1855 163.078 8.86816C163.395 8.55088 163.554 8.16762 163.554 7.71973V6.43262C163.554 5.98474 163.395 5.60146 163.078 5.28418C162.761 4.96685 162.368 4.80859 161.901 4.80859H160.838V9.34375ZM342.646 8.95215H339.118V7.95215H342.646V8.95215ZM276.076 4.80859H272.576V8.66406H269.048V4.80859H265.548V1.28027H276.076V4.80859ZM342.646 6.95215H339.118V5.95215H342.646V6.95215ZM342.646 4.95215H339.118V1.28027H342.646V4.95215Z"/>
</mask>
<path d="M199.258 1C200.695 1 201.918 1.50401 202.926 2.51172C203.934 3.51972 204.438 4.73368 204.438 6.15234V7.07617H200.91V6.15234C200.91 5.70437 200.752 5.32123 200.435 5.00391C200.117 4.68657 199.724 4.52832 199.258 4.52832C198.81 4.52842 198.428 4.68679 198.11 5.00391C197.793 5.32124 197.634 5.70434 197.634 6.15234V16.792C197.634 17.24 197.793 17.6231 198.11 17.9404C198.428 18.2575 198.81 18.4159 199.258 18.416C199.724 18.416 200.117 18.2578 200.435 17.9404C200.752 17.6231 200.91 17.24 200.91 16.792V12.8721H198.866V9.34375H204.438V16.792C204.438 18.2107 203.934 19.4246 202.926 20.4326C201.918 21.4403 200.695 21.9443 199.258 21.9443C197.839 21.9442 196.626 21.4404 195.618 20.4326C194.61 19.4246 194.106 18.2107 194.106 16.792V6.15234C194.106 4.73368 194.61 3.51972 195.618 2.51172C196.626 1.50394 197.839 1.0001 199.258 1ZM235.019 1C236.456 1.00004 237.679 1.50386 238.687 2.51172C239.695 3.51972 240.198 4.73368 240.198 6.15234V7.07617H236.67V6.15234C236.67 5.70434 236.512 5.32124 236.194 5.00391C235.877 4.68671 235.485 4.52836 235.019 4.52832C234.571 4.52832 234.187 4.68657 233.87 5.00391C233.553 5.32124 233.395 5.70435 233.395 6.15234V16.792C233.395 17.24 233.553 17.6231 233.87 17.9404C234.187 18.2578 234.571 18.416 235.019 18.416C235.485 18.416 235.877 18.2576 236.194 17.9404C236.512 17.6231 236.67 17.24 236.67 16.792V15.8682H240.198V16.792C240.198 18.2107 239.695 19.4246 238.687 20.4326C237.679 21.4405 236.456 21.9443 235.019 21.9443C233.6 21.9443 232.386 21.4406 231.378 20.4326C230.37 19.4246 229.866 18.2107 229.866 16.792V6.15234C229.866 4.73368 230.37 3.51972 231.378 2.51172C232.386 1.50372 233.6 1 235.019 1ZM161.901 1.28027C163.339 1.28027 164.561 1.78414 165.569 2.79199C166.577 3.79999 167.082 5.01395 167.082 6.43262V7.71973C167.082 8.87706 166.737 9.89513 166.046 10.7725C167.11 11.7991 167.642 13.0402 167.642 14.4961V16.5117C167.642 17.9304 167.138 19.1443 166.13 20.1523C165.122 21.1603 163.899 21.664 162.462 21.6641H157.31V1.28027H161.901ZM182.532 21.6641H179.004V1.28027H182.532V21.6641ZM254.982 21.6641H251.454V1.28027H254.982V21.6641ZM272.576 21.6641H269.048V13.6641H272.576V21.6641ZM290.188 9.00781L292.177 1.28027H295.984L291.952 12.9004V21.6641H288.425V12.9004L284.393 1.28027H288.2L290.188 9.00781ZM323.796 18.1357H328.583V21.6641H320.268V1.28027H323.796V18.1357ZM342.646 21.6641H339.118V9.95215H342.646V21.6641ZM363.601 4.80859H357.86V9.34375H362.929V12.8721H357.86V21.6641H354.332V1.28027H363.601V4.80859ZM383.49 4.80859H377.75V9.34375H382.818V12.8721H377.75V18.1357H383.49V21.6641H374.222V1.28027H383.49V4.80859ZM160.838 18.1357H162.462C162.928 18.1357 163.32 17.9774 163.638 17.6602C163.955 17.3428 164.113 16.9597 164.113 16.5117V14.4961C164.113 14.0482 163.955 13.6659 163.638 13.3486C163.32 13.0314 162.928 12.8721 162.462 12.8721H160.838V18.1357ZM272.576 12.6641H269.048V11.6641H272.576V12.6641ZM272.576 10.6641H269.048V9.66406H272.576V10.6641ZM160.838 9.34375H161.901C162.368 9.34375 162.761 9.1855 163.078 8.86816C163.395 8.55088 163.554 8.16762 163.554 7.71973V6.43262C163.554 5.98474 163.395 5.60146 163.078 5.28418C162.761 4.96685 162.368 4.80859 161.901 4.80859H160.838V9.34375ZM342.646 8.95215H339.118V7.95215H342.646V8.95215ZM276.076 4.80859H272.576V8.66406H269.048V4.80859H265.548V1.28027H276.076V4.80859ZM342.646 6.95215H339.118V5.95215H342.646V6.95215ZM342.646 4.95215H339.118V1.28027H342.646V4.95215Z" fill="url(#paint0_radial_7_321)"/>
<path d="M199.258 1V0.4H199.258L199.258 1ZM202.926 2.51172L203.35 2.08745L203.35 2.08741L202.926 2.51172ZM204.438 7.07617V7.67617H205.038V7.07617H204.438ZM200.91 7.07617H200.31V7.67617H200.91V7.07617ZM200.435 5.00391L200.859 4.57966L200.859 4.57964L200.435 5.00391ZM199.258 4.52832V3.92832L199.258 3.92832L199.258 4.52832ZM198.11 5.00391L197.686 4.57959L197.686 4.57964L198.11 5.00391ZM198.11 17.9404L197.686 18.3647L197.686 18.3648L198.11 17.9404ZM199.258 18.416L199.258 19.016H199.258V18.416ZM200.435 17.9404L200.859 18.3647L200.859 18.3647L200.435 17.9404ZM200.91 12.8721H201.51V12.2721H200.91V12.8721ZM198.866 12.8721H198.266V13.4721H198.866V12.8721ZM198.866 9.34375V8.74375H198.266V9.34375H198.866ZM204.438 9.34375H205.038V8.74375H204.438V9.34375ZM202.926 20.4326L203.35 20.8569L203.35 20.8569L202.926 20.4326ZM199.258 21.9443L199.258 22.5443H199.258V21.9443ZM195.618 20.4326L195.194 20.8569L195.194 20.8569L195.618 20.4326ZM195.618 2.51172L195.194 2.08744L195.194 2.08745L195.618 2.51172ZM235.019 1L235.019 0.4H235.019V1ZM238.687 2.51172L239.111 2.08745L239.111 2.08744L238.687 2.51172ZM240.198 7.07617V7.67617H240.798V7.07617H240.198ZM236.67 7.07617H236.07V7.67617H236.67V7.07617ZM236.194 5.00391L236.619 4.57964L236.619 4.57959L236.194 5.00391ZM235.019 4.52832L235.019 3.92832H235.019V4.52832ZM233.87 5.00391L233.446 4.57964L233.446 4.57965L233.87 5.00391ZM233.87 17.9404L233.446 18.3647V18.3647L233.87 17.9404ZM235.019 18.416V19.016H235.019L235.019 18.416ZM236.194 17.9404L236.619 18.3647L236.619 18.3647L236.194 17.9404ZM236.67 15.8682V15.2682H236.07V15.8682H236.67ZM240.198 15.8682H240.798V15.2682H240.198V15.8682ZM238.687 20.4326L239.111 20.8569L239.111 20.8569L238.687 20.4326ZM235.019 21.9443V22.5443H235.019L235.019 21.9443ZM231.378 20.4326L230.954 20.8569L231.378 20.4326ZM231.378 2.51172L230.954 2.08745V2.08746L231.378 2.51172ZM165.569 2.79199L165.994 2.36773L165.994 2.36771L165.569 2.79199ZM166.046 10.7725L165.574 10.4013L165.239 10.8275L165.629 11.2042L166.046 10.7725ZM167.642 14.4961H168.242V14.4961L167.642 14.4961ZM166.13 20.1523L166.554 20.5766L166.554 20.5766L166.13 20.1523ZM162.462 21.6641V22.2641H162.462L162.462 21.6641ZM157.31 21.6641H156.71V22.2641H157.31V21.6641ZM157.31 1.28027V0.680273H156.71V1.28027H157.31ZM182.532 21.6641V22.2641H183.132V21.6641H182.532ZM179.004 21.6641H178.404V22.2641H179.004V21.6641ZM179.004 1.28027V0.680273H178.404V1.28027H179.004ZM182.532 1.28027H183.132V0.680273H182.532V1.28027ZM254.982 21.6641V22.2641H255.582V21.6641H254.982ZM251.454 21.6641H250.854V22.2641H251.454V21.6641ZM251.454 1.28027V0.680273H250.854V1.28027H251.454ZM254.982 1.28027H255.582V0.680273H254.982V1.28027ZM272.576 21.6641V22.2641H273.176V21.6641H272.576ZM269.048 21.6641H268.448V22.2641H269.048V21.6641ZM269.048 13.6641V13.0641H268.448V13.6641H269.048ZM272.576 13.6641H273.176V13.0641H272.576V13.6641ZM290.188 9.00781L289.607 9.15732H290.77L290.188 9.00781ZM292.177 1.28027V0.680273H291.712L291.596 1.13076L292.177 1.28027ZM295.984 1.28027L296.551 1.47697L296.828 0.680273H295.984V1.28027ZM291.952 12.9004L291.385 12.7037L291.352 12.7992V12.9004H291.952ZM291.952 21.6641V22.2641H292.552V21.6641H291.952ZM288.425 21.6641H287.825V22.2641H288.425V21.6641ZM288.425 12.9004H289.025V12.7992L288.992 12.7037L288.425 12.9004ZM284.393 1.28027V0.680273H283.549L283.826 1.47697L284.393 1.28027ZM288.2 1.28027L288.781 1.13076L288.665 0.680273H288.2V1.28027ZM323.796 18.1357H323.196V18.7357H323.796V18.1357ZM328.583 18.1357H329.183V17.5357H328.583V18.1357ZM328.583 21.6641V22.2641H329.183V21.6641H328.583ZM320.268 21.6641H319.668V22.2641H320.268V21.6641ZM320.268 1.28027V0.680273H319.668V1.28027H320.268ZM323.796 1.28027H324.396V0.680273H323.796V1.28027ZM342.646 21.6641V22.2641H343.246V21.6641H342.646ZM339.118 21.6641H338.518V22.2641H339.118V21.6641ZM339.118 9.95215V9.35215H338.518V9.95215H339.118ZM342.646 9.95215H343.246V9.35215H342.646V9.95215ZM363.601 4.80859V5.40859H364.201V4.80859H363.601ZM357.86 4.80859V4.20859H357.26V4.80859H357.86ZM357.86 9.34375H357.26V9.94375H357.86V9.34375ZM362.929 9.34375H363.529V8.74375H362.929V9.34375ZM362.929 12.8721V13.4721H363.529V12.8721H362.929ZM357.86 12.8721V12.2721H357.26V12.8721H357.86ZM357.86 21.6641V22.2641H358.46V21.6641H357.86ZM354.332 21.6641H353.732V22.2641H354.332V21.6641ZM354.332 1.28027V0.680273H353.732V1.28027H354.332ZM363.601 1.28027H364.201V0.680273H363.601V1.28027ZM383.49 4.80859V5.40859H384.09V4.80859H383.49ZM377.75 4.80859V4.20859H377.15V4.80859H377.75ZM377.75 9.34375H377.15V9.94375H377.75V9.34375ZM382.818 9.34375H383.418V8.74375H382.818V9.34375ZM382.818 12.8721V13.4721H383.418V12.8721H382.818ZM377.75 12.8721V12.2721H377.15V12.8721H377.75ZM377.75 18.1357H377.15V18.7357H377.75V18.1357ZM383.49 18.1357H384.09V17.5357H383.49V18.1357ZM383.49 21.6641V22.2641H384.09V21.6641H383.49ZM374.222 21.6641H373.622V22.2641H374.222V21.6641ZM374.222 1.28027V0.680273H373.622V1.28027H374.222ZM383.49 1.28027H384.09V0.680273H383.49V1.28027ZM160.838 18.1357H160.238V18.7357H160.838V18.1357ZM162.462 18.1357V18.7357H162.462L162.462 18.1357ZM163.638 17.6602L164.062 18.0844L164.062 18.0844L163.638 17.6602ZM164.113 14.4961H164.713V14.4961L164.113 14.4961ZM163.638 13.3486L164.062 12.9245L164.062 12.9244L163.638 13.3486ZM162.462 12.8721L162.462 12.2721H162.462V12.8721ZM160.838 12.8721V12.2721H160.238V12.8721H160.838ZM272.576 12.6641V13.2641H273.176V12.6641H272.576ZM269.048 12.6641H268.448V13.2641H269.048V12.6641ZM269.048 11.6641V11.0641H268.448V11.6641H269.048ZM272.576 11.6641H273.176V11.0641H272.576V11.6641ZM272.576 10.6641V11.2641H273.176V10.6641H272.576ZM269.048 10.6641H268.448V11.2641H269.048V10.6641ZM269.048 9.66406V9.06406H268.448V9.66406H269.048ZM272.576 9.66406H273.176V9.06406H272.576V9.66406ZM160.838 9.34375H160.238V9.94375H160.838V9.34375ZM163.078 8.86816L163.502 9.29243L163.502 9.29235L163.078 8.86816ZM163.078 5.28418L163.502 4.86L163.502 4.85992L163.078 5.28418ZM160.838 4.80859V4.20859H160.238V4.80859H160.838ZM342.646 8.95215V9.55215H343.246V8.95215H342.646ZM339.118 8.95215H338.518V9.55215H339.118V8.95215ZM339.118 7.95215V7.35215H338.518V7.95215H339.118ZM342.646 7.95215H343.246V7.35215H342.646V7.95215ZM276.076 4.80859V5.40859H276.676V4.80859H276.076ZM272.576 4.80859V4.20859H271.976V4.80859H272.576ZM272.576 8.66406V9.26406H273.176V8.66406H272.576ZM269.048 8.66406H268.448V9.26406H269.048V8.66406ZM269.048 4.80859H269.648V4.20859H269.048V4.80859ZM265.548 4.80859H264.948V5.40859H265.548V4.80859ZM265.548 1.28027V0.680273H264.948V1.28027H265.548ZM276.076 1.28027H276.676V0.680273H276.076V1.28027ZM342.646 6.95215V7.55215H343.246V6.95215H342.646ZM339.118 6.95215H338.518V7.55215H339.118V6.95215ZM339.118 5.95215V5.35215H338.518V5.95215H339.118ZM342.646 5.95215H343.246V5.35215H342.646V5.95215ZM342.646 4.95215V5.55215H343.246V4.95215H342.646ZM339.118 4.95215H338.518V5.55215H339.118V4.95215ZM339.118 1.28027V0.680273H338.518V1.28027H339.118ZM342.646 1.28027H343.246V0.680273H342.646V1.28027ZM199.258 1V1.6C200.537 1.6 201.607 2.04187 202.502 2.93603L202.926 2.51172L203.35 2.08741C202.229 0.966158 200.853 0.4 199.258 0.4V1ZM202.926 2.51172L202.502 2.93598C203.398 3.83217 203.838 4.8938 203.838 6.15234H204.438H205.038C205.038 4.57355 204.47 3.20727 203.35 2.08745L202.926 2.51172ZM204.438 6.15234H203.838V7.07617H204.438H205.038V6.15234H204.438ZM204.438 7.07617V6.47617H200.91V7.07617V7.67617H204.438V7.07617ZM200.91 7.07617H201.51V6.15234H200.91H200.31V7.07617H200.91ZM200.91 6.15234H201.51C201.51 5.54548 201.289 5.00967 200.859 4.57966L200.435 5.00391L200.01 5.42815C200.215 5.63279 200.31 5.86325 200.31 6.15234H200.91ZM200.435 5.00391L200.859 4.57964C200.424 4.14441 199.876 3.92832 199.258 3.92832V4.52832V5.12832C199.573 5.12832 199.811 5.22874 200.01 5.42817L200.435 5.00391ZM199.258 4.52832L199.258 3.92832C198.651 3.92845 198.116 4.15006 197.686 4.57959L198.11 5.00391L198.535 5.42823C198.739 5.22352 198.969 5.12838 199.258 5.12832L199.258 4.52832ZM198.11 5.00391L197.686 4.57964C197.257 5.00902 197.034 5.54454 197.034 6.15234H197.634H198.234C198.234 5.86415 198.329 5.63346 198.535 5.42817L198.11 5.00391ZM197.634 6.15234H197.034V16.792H197.634H198.234V6.15234H197.634ZM197.634 16.792H197.034C197.034 17.3998 197.257 17.9353 197.686 18.3647L198.11 17.9404L198.535 17.5162C198.329 17.3109 198.234 17.0802 198.234 16.792H197.634ZM198.11 17.9404L197.686 18.3648C198.116 18.7943 198.651 19.0159 199.258 19.016L199.258 18.416L199.258 17.816C198.969 17.816 198.739 17.7208 198.535 17.5161L198.11 17.9404ZM199.258 18.416V19.016C199.876 19.016 200.424 18.7999 200.859 18.3647L200.435 17.9404L200.01 17.5162C199.811 17.7156 199.573 17.816 199.258 17.816V18.416ZM200.435 17.9404L200.859 18.3647C201.289 17.9347 201.51 17.3989 201.51 16.792H200.91H200.31C200.31 17.0811 200.215 17.3115 200.01 17.5162L200.435 17.9404ZM200.91 16.792H201.51V12.8721H200.91H200.31V16.792H200.91ZM200.91 12.8721V12.2721H198.866V12.8721V13.4721H200.91V12.8721ZM198.866 12.8721H199.466V9.34375H198.866H198.266V12.8721H198.866ZM198.866 9.34375V9.94375H204.438V9.34375V8.74375H198.866V9.34375ZM204.438 9.34375H203.838V16.792H204.438H205.038V9.34375H204.438ZM204.438 16.792H203.838C203.838 18.0505 203.398 19.1122 202.502 20.0084L202.926 20.4326L203.35 20.8569C204.47 19.7371 205.038 18.3708 205.038 16.792H204.438ZM202.926 20.4326L202.502 20.0083C201.607 20.9025 200.537 21.3443 199.258 21.3443V21.9443V22.5443C200.853 22.5443 202.229 21.9782 203.35 20.8569L202.926 20.4326ZM199.258 21.9443L199.258 21.3443C197.999 21.3442 196.938 20.9042 196.042 20.0083L195.618 20.4326L195.194 20.8569C196.314 21.9766 197.679 22.5442 199.258 22.5443L199.258 21.9443ZM195.618 20.4326L196.042 20.0084C195.146 19.1124 194.706 18.0508 194.706 16.792H194.106H193.506C193.506 18.3705 194.074 19.7369 195.194 20.8569L195.618 20.4326ZM194.106 16.792H194.706V6.15234H194.106H193.506V16.792H194.106ZM194.106 6.15234H194.706C194.706 4.89351 195.146 3.83196 196.042 2.93598L195.618 2.51172L195.194 2.08745C194.074 3.20748 193.506 4.57385 193.506 6.15234H194.106ZM195.618 2.51172L196.042 2.936C196.938 2.04015 197.999 1.60009 199.258 1.6L199.258 1L199.258 0.4C197.679 0.40011 196.314 0.967726 195.194 2.08744L195.618 2.51172ZM235.019 1L235.019 1.6C236.298 1.60004 237.368 2.04174 238.262 2.936L238.687 2.51172L239.111 2.08744C237.989 0.96597 236.613 0.400044 235.019 0.4L235.019 1ZM238.687 2.51172L238.262 2.93598C239.158 3.83196 239.598 4.89351 239.598 6.15234H240.198H240.798C240.798 4.57385 240.231 3.20748 239.111 2.08745L238.687 2.51172ZM240.198 6.15234H239.598V7.07617H240.198H240.798V6.15234H240.198ZM240.198 7.07617V6.47617H236.67V7.07617V7.67617H240.198V7.07617ZM236.67 7.07617H237.27V6.15234H236.67H236.07V7.07617H236.67ZM236.67 6.15234H237.27C237.27 5.54548 237.049 5.00968 236.619 4.57964L236.194 5.00391L235.77 5.42817C235.975 5.6328 236.07 5.86321 236.07 6.15234H236.67ZM236.194 5.00391L236.619 4.57959C236.184 4.14481 235.637 3.92837 235.019 3.92832L235.019 4.52832L235.019 5.12832C235.333 5.12835 235.57 5.22861 235.77 5.42822L236.194 5.00391ZM235.019 4.52832V3.92832C234.412 3.92832 233.876 4.1496 233.446 4.57964L233.87 5.00391L234.294 5.42817C234.499 5.22355 234.729 5.12832 235.019 5.12832V4.52832ZM233.87 5.00391L233.446 4.57965C233.016 5.00968 232.795 5.54548 232.795 6.15234H233.395H233.995C233.995 5.86322 234.09 5.63279 234.294 5.42817L233.87 5.00391ZM233.395 6.15234H232.795V16.792H233.395H233.995V6.15234H233.395ZM233.395 16.792H232.795C232.795 17.3989 233.016 17.9347 233.446 18.3647L233.87 17.9404L234.294 17.5162C234.09 17.3115 233.995 17.0811 233.995 16.792H233.395ZM233.87 17.9404L233.446 18.3647C233.876 18.7947 234.412 19.016 235.019 19.016V18.416V17.816C234.729 17.816 234.499 17.7208 234.294 17.5162L233.87 17.9404ZM235.019 18.416L235.019 19.016C235.637 19.016 236.184 18.7995 236.619 18.3647L236.194 17.9404L235.77 17.5161C235.57 17.7157 235.333 17.816 235.019 17.816L235.019 18.416ZM236.194 17.9404L236.619 18.3647C237.049 17.9347 237.27 17.3989 237.27 16.792H236.67H236.07C236.07 17.0811 235.975 17.3115 235.77 17.5162L236.194 17.9404ZM236.67 16.792H237.27V15.8682H236.67H236.07V16.792H236.67ZM236.67 15.8682V16.4682H240.198V15.8682V15.2682H236.67V15.8682ZM240.198 15.8682H239.598V16.792H240.198H240.798V15.8682H240.198ZM240.198 16.792H239.598C239.598 18.0508 239.158 19.1124 238.262 20.0084L238.687 20.4326L239.111 20.8569C240.231 19.7369 240.798 18.3705 240.798 16.792H240.198ZM238.687 20.4326L238.262 20.0083C237.368 20.9026 236.298 21.3443 235.019 21.3443L235.019 21.9443L235.019 22.5443C236.613 22.5443 237.989 21.9784 239.111 20.8569L238.687 20.4326ZM235.019 21.9443V21.3443C233.76 21.3443 232.698 20.9043 231.802 20.0084L231.378 20.4326L230.954 20.8569C232.074 21.9769 233.44 22.5443 235.019 22.5443V21.9443ZM231.378 20.4326L231.802 20.0084C230.906 19.1124 230.466 18.0508 230.466 16.792H229.866H229.266C229.266 18.3705 229.834 19.7369 230.954 20.8569L231.378 20.4326ZM229.866 16.792H230.466V6.15234H229.866H229.266V16.792H229.866ZM229.866 6.15234H230.466C230.466 4.89351 230.906 3.83195 231.802 2.93598L231.378 2.51172L230.954 2.08746C229.834 3.20748 229.266 4.57385 229.266 6.15234H229.866ZM231.378 2.51172L231.802 2.93598C232.698 2.04001 233.76 1.6 235.019 1.6V1V0.4C233.44 0.4 232.074 0.967428 230.954 2.08745L231.378 2.51172ZM161.901 1.28027V1.88027C163.181 1.88027 164.251 2.32201 165.145 3.21628L165.569 2.79199L165.994 2.36771C164.872 1.24628 163.496 0.680273 161.901 0.680273V1.28027ZM165.569 2.79199L165.145 3.21626C166.041 4.11244 166.482 5.17408 166.482 6.43262H167.082H167.682C167.682 4.85382 167.113 3.48754 165.994 2.36773L165.569 2.79199ZM167.082 6.43262H166.482V7.71973H167.082H167.682V6.43262H167.082ZM167.082 7.71973H166.482C166.482 8.74778 166.179 9.6339 165.574 10.4013L166.046 10.7725L166.517 11.1436C167.295 10.1564 167.682 9.00634 167.682 7.71973H167.082ZM166.046 10.7725L165.629 11.2042C166.578 12.1197 167.042 13.2059 167.042 14.4961L167.642 14.4961L168.242 14.4961C168.242 12.8746 167.641 11.4784 166.463 10.3407L166.046 10.7725ZM167.642 14.4961H167.042V16.5117H167.642H168.242V14.4961H167.642ZM167.642 16.5117H167.042C167.042 17.7705 166.602 18.8321 165.706 19.7281L166.13 20.1523L166.554 20.5766C167.674 19.4566 168.242 18.0902 168.242 16.5117H167.642ZM166.13 20.1523L165.706 19.7281C164.811 20.6224 163.742 21.064 162.462 21.0641L162.462 21.6641L162.462 22.2641C164.057 22.264 165.433 21.6982 166.554 20.5766L166.13 20.1523ZM162.462 21.6641V21.0641H157.31V21.6641V22.2641H162.462V21.6641ZM157.31 21.6641H157.91V1.28027H157.31H156.71V21.6641H157.31ZM157.31 1.28027V1.88027H161.901V1.28027V0.680273H157.31V1.28027ZM182.532 21.6641V21.0641H179.004V21.6641V22.2641H182.532V21.6641ZM179.004 21.6641H179.604V1.28027H179.004H178.404V21.6641H179.004ZM179.004 1.28027V1.88027H182.532V1.28027V0.680273H179.004V1.28027ZM182.532 1.28027H181.932V21.6641H182.532H183.132V1.28027H182.532ZM254.982 21.6641V21.0641H251.454V21.6641V22.2641H254.982V21.6641ZM251.454 21.6641H252.054V1.28027H251.454H250.854V21.6641H251.454ZM251.454 1.28027V1.88027H254.982V1.28027V0.680273H251.454V1.28027ZM254.982 1.28027H254.382V21.6641H254.982H255.582V1.28027H254.982ZM272.576 21.6641V21.0641H269.048V21.6641V22.2641H272.576V21.6641ZM269.048 21.6641H269.648V13.6641H269.048H268.448V21.6641H269.048ZM269.048 13.6641V14.2641H272.576V13.6641V13.0641H269.048V13.6641ZM272.576 13.6641H271.976V21.6641H272.576H273.176V13.6641H272.576ZM290.188 9.00781L290.77 9.15732L292.758 1.42978L292.177 1.28027L291.596 1.13076L289.607 8.8583L290.188 9.00781ZM292.177 1.28027V1.88027H295.984V1.28027V0.680273H292.177V1.28027ZM295.984 1.28027L295.418 1.08358L291.385 12.7037L291.952 12.9004L292.519 13.0971L296.551 1.47697L295.984 1.28027ZM291.952 12.9004H291.352V21.6641H291.952H292.552V12.9004H291.952ZM291.952 21.6641V21.0641H288.425V21.6641V22.2641H291.952V21.6641ZM288.425 21.6641H289.025V12.9004H288.425H287.825V21.6641H288.425ZM288.425 12.9004L288.992 12.7037L284.959 1.08358L284.393 1.28027L283.826 1.47697L287.858 13.0971L288.425 12.9004ZM284.393 1.28027V1.88027H288.2V1.28027V0.680273H284.393V1.28027ZM288.2 1.28027L287.619 1.42978L289.607 9.15732L290.188 9.00781L290.77 8.8583L288.781 1.13076L288.2 1.28027ZM323.796 18.1357V18.7357H328.583V18.1357V17.5357H323.796V18.1357ZM328.583 18.1357H327.983V21.6641H328.583H329.183V18.1357H328.583ZM328.583 21.6641V21.0641H320.268V21.6641V22.2641H328.583V21.6641ZM320.268 21.6641H320.868V1.28027H320.268H319.668V21.6641H320.268ZM320.268 1.28027V1.88027H323.796V1.28027V0.680273H320.268V1.28027ZM323.796 1.28027H323.196V18.1357H323.796H324.396V1.28027H323.796ZM342.646 21.6641V21.0641H339.118V21.6641V22.2641H342.646V21.6641ZM339.118 21.6641H339.718V9.95215H339.118H338.518V21.6641H339.118ZM339.118 9.95215V10.5521H342.646V9.95215V9.35215H339.118V9.95215ZM342.646 9.95215H342.046V21.6641H342.646H343.246V9.95215H342.646ZM363.601 4.80859V4.20859H357.86V4.80859V5.40859H363.601V4.80859ZM357.86 4.80859H357.26V9.34375H357.86H358.46V4.80859H357.86ZM357.86 9.34375V9.94375H362.929V9.34375V8.74375H357.86V9.34375ZM362.929 9.34375H362.329V12.8721H362.929H363.529V9.34375H362.929ZM362.929 12.8721V12.2721H357.86V12.8721V13.4721H362.929V12.8721ZM357.86 12.8721H357.26V21.6641H357.86H358.46V12.8721H357.86ZM357.86 21.6641V21.0641H354.332V21.6641V22.2641H357.86V21.6641ZM354.332 21.6641H354.932V1.28027H354.332H353.732V21.6641H354.332ZM354.332 1.28027V1.88027H363.601V1.28027V0.680273H354.332V1.28027ZM363.601 1.28027H363.001V4.80859H363.601H364.201V1.28027H363.601ZM383.49 4.80859V4.20859H377.75V4.80859V5.40859H383.49V4.80859ZM377.75 4.80859H377.15V9.34375H377.75H378.35V4.80859H377.75ZM377.75 9.34375V9.94375H382.818V9.34375V8.74375H377.75V9.34375ZM382.818 9.34375H382.218V12.8721H382.818H383.418V9.34375H382.818ZM382.818 12.8721V12.2721H377.75V12.8721V13.4721H382.818V12.8721ZM377.75 12.8721H377.15V18.1357H377.75H378.35V12.8721H377.75ZM377.75 18.1357V18.7357H383.49V18.1357V17.5357H377.75V18.1357ZM383.49 18.1357H382.89V21.6641H383.49H384.09V18.1357H383.49ZM383.49 21.6641V21.0641H374.222V21.6641V22.2641H383.49V21.6641ZM374.222 21.6641H374.822V1.28027H374.222H373.622V21.6641H374.222ZM374.222 1.28027V1.88027H383.49V1.28027V0.680273H374.222V1.28027ZM383.49 1.28027H382.89V4.80859H383.49H384.09V1.28027H383.49ZM160.838 18.1357V18.7357H162.462V18.1357V17.5357H160.838V18.1357ZM162.462 18.1357L162.462 18.7357C163.08 18.7357 163.627 18.5194 164.062 18.0844L163.638 17.6602L163.213 17.2359C163.014 17.4355 162.777 17.5357 162.462 17.5357L162.462 18.1357ZM163.638 17.6602L164.062 18.0844C164.492 17.6544 164.713 17.1186 164.713 16.5117H164.113H163.513C163.513 16.8008 163.418 17.0313 163.213 17.2359L163.638 17.6602ZM164.113 16.5117H164.713V14.4961H164.113H163.513V16.5117H164.113ZM164.113 14.4961L164.713 14.4961C164.713 13.8889 164.491 13.3541 164.062 12.9245L163.638 13.3486L163.213 13.7728C163.418 13.9777 163.513 14.2076 163.513 14.4961L164.113 14.4961ZM163.638 13.3486L164.062 12.9244C163.628 12.4901 163.081 12.2722 162.462 12.2721L162.462 12.8721L162.462 13.4721C162.776 13.4721 163.013 13.5727 163.213 13.7729L163.638 13.3486ZM162.462 12.8721V12.2721H160.838V12.8721V13.4721H162.462V12.8721ZM160.838 12.8721H160.238V18.1357H160.838H161.438V12.8721H160.838ZM272.576 12.6641V12.0641H269.048V12.6641V13.2641H272.576V12.6641ZM269.048 12.6641H269.648V11.6641H269.048H268.448V12.6641H269.048ZM269.048 11.6641V12.2641H272.576V11.6641V11.0641H269.048V11.6641ZM272.576 11.6641H271.976V12.6641H272.576H273.176V11.6641H272.576ZM272.576 10.6641V10.0641H269.048V10.6641V11.2641H272.576V10.6641ZM269.048 10.6641H269.648V9.66406H269.048H268.448V10.6641H269.048ZM269.048 9.66406V10.2641H272.576V9.66406V9.06406H269.048V9.66406ZM272.576 9.66406H271.976V10.6641H272.576H273.176V9.66406H272.576ZM160.838 9.34375V9.94375H161.901V9.34375V8.74375H160.838V9.34375ZM161.901 9.34375V9.94375C162.519 9.94375 163.067 9.72766 163.502 9.29243L163.078 8.86816L162.654 8.4439C162.454 8.64333 162.217 8.74375 161.901 8.74375V9.34375ZM163.078 8.86816L163.502 9.29235C163.932 8.86245 164.154 8.32657 164.154 7.71973H163.554H162.954C162.954 8.00867 162.858 8.2393 162.654 8.44397L163.078 8.86816ZM163.554 7.71973H164.154V6.43262H163.554H162.954V7.71973H163.554ZM163.554 6.43262H164.154C164.154 5.82578 163.932 5.28989 163.502 4.86L163.078 5.28418L162.654 5.70836C162.858 5.91304 162.954 6.1437 162.954 6.43262H163.554ZM163.078 5.28418L163.502 4.85992C163.067 4.42468 162.519 4.20859 161.901 4.20859V4.80859V5.40859C162.217 5.40859 162.454 5.50901 162.654 5.70844L163.078 5.28418ZM161.901 4.80859V4.20859H160.838V4.80859V5.40859H161.901V4.80859ZM160.838 4.80859H160.238V9.34375H160.838H161.438V4.80859H160.838ZM342.646 8.95215V8.35215H339.118V8.95215V9.55215H342.646V8.95215ZM339.118 8.95215H339.718V7.95215H339.118H338.518V8.95215H339.118ZM339.118 7.95215V8.55215H342.646V7.95215V7.35215H339.118V7.95215ZM342.646 7.95215H342.046V8.95215H342.646H343.246V7.95215H342.646ZM276.076 4.80859V4.20859H272.576V4.80859V5.40859H276.076V4.80859ZM272.576 4.80859H271.976V8.66406H272.576H273.176V4.80859H272.576ZM272.576 8.66406V8.06406H269.048V8.66406V9.26406H272.576V8.66406ZM269.048 8.66406H269.648V4.80859H269.048H268.448V8.66406H269.048ZM269.048 4.80859V4.20859H265.548V4.80859V5.40859H269.048V4.80859ZM265.548 4.80859H266.148V1.28027H265.548H264.948V4.80859H265.548ZM265.548 1.28027V1.88027H276.076V1.28027V0.680273H265.548V1.28027ZM276.076 1.28027H275.476V4.80859H276.076H276.676V1.28027H276.076ZM342.646 6.95215V6.35215H339.118V6.95215V7.55215H342.646V6.95215ZM339.118 6.95215H339.718V5.95215H339.118H338.518V6.95215H339.118ZM339.118 5.95215V6.55215H342.646V5.95215V5.35215H339.118V5.95215ZM342.646 5.95215H342.046V6.95215H342.646H343.246V5.95215H342.646ZM342.646 4.95215V4.35215H339.118V4.95215V5.55215H342.646V4.95215ZM339.118 4.95215H339.718V1.28027H339.118H338.518V4.95215H339.118ZM339.118 1.28027V1.88027H342.646V1.28027V0.680273H339.118V1.28027ZM342.646 1.28027H342.046V4.95215H342.646H343.246V1.28027H342.646Z" fill="url(#paint1_linear_7_321)" mask="url(#path-1-inside-1_7_321)"/>
<defs>
<radialGradient id="paint0_radial_7_321" cx="0" cy="0" r="1" gradientUnits="userSpaceOnUse" gradientTransform="translate(270.01 11.7474) rotate(90) scale(54.3276 147.213)">
<stop stop-color="#ECF7FF"/>
<stop offset="1" stop-color="#ECF7FF" stop-opacity="0"/>
</radialGradient>
<linearGradient id="paint1_linear_7_321" x1="270.01" y1="-8.03681" x2="270.01" y2="63.9319" gradientUnits="userSpaceOnUse">
<stop stop-color="#253596" stop-opacity="0"/>
<stop offset="0.456017" stop-color="#4A76D4"/>
<stop offset="1" stop-color="#76EAF1"/>
</linearGradient>
</defs>
</svg>
