<svg width="370" height="22" viewBox="0 0 370 22" fill="none" xmlns="http://www.w3.org/2000/svg">
<mask id="path-1-inside-1_36_3371" fill="white">
<path d="M9.28564 0C10.3121 0.000105686 11.1849 0.360244 11.9048 1.08008C12.6247 1.80004 12.9848 2.66642 12.9849 3.67969V4.33984H10.4653V3.67969C10.4653 3.35976 10.3521 3.086 10.1255 2.85938C9.89894 2.63287 9.61873 2.51963 9.28564 2.51953C8.96579 2.51953 8.69194 2.63291 8.46533 2.85938C8.2387 3.086 8.12553 3.35976 8.12549 3.67969V11.2803C8.12559 11.6001 8.2388 11.8731 8.46533 12.0996C8.692 12.3263 8.96564 12.4395 9.28564 12.4395C9.61878 12.4394 9.89892 12.3262 10.1255 12.0996C10.3519 11.8731 10.4652 11.6 10.4653 11.2803V10.6201H12.9849V11.2803C12.9848 12.2934 12.6247 13.16 11.9048 13.8799C11.1849 14.5996 10.312 14.9599 9.28564 14.96C8.27231 14.96 7.40506 14.5999 6.68506 13.8799C5.96519 13.16 5.60508 12.2934 5.60498 11.2803V3.67969C5.60502 2.66651 5.96522 1.8 6.68506 1.08008C7.40506 0.360078 8.27231 0 9.28564 0ZM139.825 0C140.851 0.000105686 141.724 0.360244 142.444 1.08008C143.164 1.80004 143.524 2.66642 143.524 3.67969V11.2803C143.524 12.2934 143.164 13.16 142.444 13.8799C141.724 14.5996 140.851 14.9599 139.825 14.96C138.811 14.96 137.944 14.5999 137.224 13.8799C136.504 13.16 136.144 12.2934 136.144 11.2803V3.67969C136.144 2.66651 136.504 1.8 137.224 1.08008C137.944 0.360078 138.811 0 139.825 0ZM169.913 11.2998C169.913 11.6065 170.026 11.8729 170.252 12.0996C170.479 12.3262 170.752 12.4393 171.072 12.4395C171.405 12.4395 171.686 12.3335 171.913 12.1201C172.139 11.8935 172.252 11.6198 172.252 11.2998V0.200195H174.772V11.2998C174.772 12.3131 174.412 13.1794 173.692 13.8994C172.972 14.6061 172.098 14.96 171.072 14.96C170.059 14.9599 169.192 14.606 168.472 13.8994C167.752 13.1795 167.392 12.313 167.392 11.2998V0.200195H169.913V11.2998ZM185.543 11.2803C185.544 11.6001 185.657 11.8731 185.883 12.0996C186.11 12.3263 186.384 12.4395 186.704 12.4395C187.037 12.4394 187.317 12.3262 187.543 12.0996C187.77 11.8731 187.883 11.6 187.883 11.2803V10.6201H190.403V11.2803C190.403 12.2934 190.043 13.16 189.323 13.8799C188.603 14.5996 187.73 14.9599 186.704 14.96C185.69 14.96 184.823 14.5999 184.103 13.8799C183.383 13.16 183.023 12.2934 183.023 11.2803V9.75977H185.543V11.2803ZM241.299 0C242.326 5.0884e-05 243.199 0.360129 243.919 1.08008C244.639 1.79998 244.999 2.66656 245 3.67969V4.33984H242.479V3.67969C242.479 3.35976 242.366 3.086 242.139 2.85938C241.913 2.6329 241.632 2.51958 241.299 2.51953C240.979 2.51953 240.706 2.63284 240.479 2.85938C240.252 3.086 240.139 3.35976 240.139 3.67969V3.91992C240.139 4.51989 240.359 5.00656 240.799 5.37988L243.459 7.66016C244.486 8.56677 245 9.69353 245 11.04V11.2803C244.999 12.2934 244.639 13.16 243.919 13.8799C243.199 14.5998 242.326 14.9599 241.299 14.96C240.286 14.96 239.419 14.5999 238.699 13.8799C237.979 13.16 237.619 12.2933 237.619 11.2803V10.6201H240.139V11.2803C240.139 11.6 240.253 11.8731 240.479 12.0996C240.706 12.3263 240.979 12.4395 241.299 12.4395C241.633 12.4394 241.913 12.3262 242.139 12.0996C242.366 11.8731 242.479 11.6 242.479 11.2803V11.04C242.479 10.44 242.259 9.95341 241.819 9.58008L239.159 7.2998C238.132 6.39319 237.619 5.26645 237.619 3.91992V3.67969C237.619 2.66656 237.979 1.79998 238.699 1.08008C239.419 0.360078 240.286 0 241.299 0ZM285.092 11.2998C285.092 11.6065 285.205 11.8729 285.432 12.0996C285.659 12.3262 285.932 12.4393 286.251 12.4395C286.585 12.4395 286.866 12.3335 287.092 12.1201C287.319 11.8935 287.432 11.6198 287.432 11.2998V0.200195H289.952V11.2998C289.952 12.3131 289.592 13.1794 288.872 13.8994C288.152 14.6061 287.278 14.96 286.251 14.96C285.238 14.9599 284.372 14.606 283.652 13.8994C282.932 13.1795 282.572 12.313 282.572 11.2998V0.200195H285.092V11.2998ZM344.661 0C345.687 0.000105686 346.56 0.360244 347.28 1.08008C348 1.80004 348.36 2.66642 348.36 3.67969V11.2803C348.36 12.2934 348 13.16 347.28 13.8799C346.56 14.5996 345.687 14.9599 344.661 14.96C343.647 14.96 342.78 14.5999 342.06 13.8799C341.34 13.16 340.98 12.2934 340.98 11.2803V3.67969C340.98 2.66651 341.34 1.8 342.06 1.08008C342.78 0.360078 343.647 0 344.661 0ZM23.5454 14.7598H21.0249V8.04785H23.5454V14.7598ZM37.6323 8.16016V0.200195H40.1519V14.7598H37.6323L34.4126 6.7998V14.7598H31.8921V0.200195H34.4126L37.6323 8.16016ZM55.1021 2.71973H51.0024V5.95996H54.6216V8.47949H51.0024V12.2402H55.1021V14.7598H48.4819V0.200195H55.1021V2.71973ZM68.104 8.13965L70.7437 0.200195H73.2837V14.7598H70.7642V6.82031L69.0044 12.5H67.1841L65.4243 6.82031V14.7598H62.9038V0.200195H65.4438L68.104 8.13965ZM89.3032 14.7598H86.7231L86.1831 11.8799H83.7427L83.2036 14.7598H80.6235L83.7036 0.200195H86.2231L89.3032 14.7598ZM109.938 0.200195C110.965 0.200228 111.838 0.560306 112.558 1.28027C113.278 2.00021 113.638 2.86671 113.638 3.87988V4.7998C113.638 5.81298 113.278 6.67948 112.558 7.39941C111.838 8.11938 110.965 8.47946 109.938 8.47949H109.178V14.7598H106.658V0.200195H109.938ZM124.438 0.200195C125.465 0.200228 126.338 0.560306 127.058 1.28027C127.778 2.00021 128.138 2.86671 128.138 3.87988V4.7998C128.138 5.43981 127.985 6.03341 127.678 6.58008C127.385 7.1134 126.978 7.54655 126.458 7.87988L128.958 14.7598H126.278L124.038 8.47949H123.678V14.7598H121.158V0.200195H124.438ZM155.439 0.200195C156.452 0.200195 157.32 0.560273 158.04 1.28027C158.773 2.00022 159.139 2.86668 159.139 3.87988V11.0801C159.139 12.0932 158.773 12.9598 158.04 13.6797C157.32 14.3997 156.452 14.7598 155.439 14.7598H151.759V0.200195H155.439ZM205.063 2.71973H200.963V5.95996H204.583V8.47949H200.963V12.2402H205.063V14.7598H198.443V0.200195H205.063V2.71973ZM216.145 0.200195C217.172 0.200228 218.045 0.560306 218.765 1.28027C219.485 2.00021 219.845 2.86671 219.845 3.87988V4.7998C219.845 5.43981 219.692 6.03341 219.385 6.58008C219.092 7.1134 218.685 7.54655 218.165 7.87988L220.665 14.7598H217.985L215.745 8.47949H215.385V14.7598H212.865V0.200195H216.145ZM255.526 14.7598H253.005V8.04785H255.526V14.7598ZM269.073 8.13965L271.712 0.200195H274.252V14.7598H271.733V6.82031L269.973 12.5H268.153L266.393 6.82031V14.7598H263.873V0.200195H266.413L269.073 8.13965ZM300.803 12.2402H304.223V14.7598H298.283V0.200195H300.803V12.2402ZM319.448 14.7598H316.868L316.328 11.8799H313.887L313.348 14.7598H310.768L313.848 0.200195H316.368L319.448 14.7598ZM333.514 2.71973H331.014V14.7598H328.495V2.71973H325.995V0.200195H333.514V2.71973ZM359.875 0.200195C360.902 0.200228 361.776 0.560306 362.496 1.28027C363.215 2.00021 363.576 2.86671 363.576 3.87988V4.7998C363.576 5.43981 363.422 6.03341 363.116 6.58008C362.822 7.1134 362.415 7.54655 361.895 7.87988L364.395 14.7598H361.715L359.475 8.47949H359.116V14.7598H356.595V0.200195H359.875ZM139.825 2.51953C139.505 2.51953 139.231 2.63291 139.004 2.85938C138.778 3.086 138.665 3.35976 138.665 3.67969V11.2803C138.665 11.6001 138.778 11.8731 139.004 12.0996C139.231 12.3263 139.505 12.4395 139.825 12.4395C140.158 12.4394 140.438 12.3262 140.665 12.0996C140.891 11.8731 141.004 11.6 141.004 11.2803V3.67969C141.004 3.35976 140.891 3.086 140.665 2.85938C140.438 2.63287 140.158 2.51963 139.825 2.51953ZM344.661 2.51953C344.341 2.51953 344.067 2.63291 343.84 2.85938C343.614 3.086 343.501 3.35976 343.5 3.67969V11.2803C343.501 11.6001 343.614 11.8731 343.84 12.0996C344.067 12.3263 344.341 12.4395 344.661 12.4395C344.994 12.4394 345.274 12.3262 345.5 12.0996C345.727 11.8731 345.84 11.6 345.84 11.2803V3.67969C345.84 3.35976 345.727 3.086 345.5 2.85938C345.274 2.63287 344.994 2.51963 344.661 2.51953ZM154.28 12.2402H155.439C155.772 12.2402 156.053 12.1261 156.28 11.8994C156.506 11.6729 156.62 11.3998 156.62 11.0801V3.87988C156.62 3.5599 156.506 3.28623 156.28 3.05957C156.053 2.8329 155.772 2.71973 155.439 2.71973H154.28V12.2402ZM84.2036 9.35938H85.7231L84.9634 5.25977L84.2036 9.35938ZM314.348 9.35938H315.868L315.108 5.25977L314.348 9.35938ZM185.543 8.75977H183.023V7.75977H185.543V8.75977ZM23.5454 7.04785H21.0249V6.04785H23.5454V7.04785ZM255.526 7.04785H253.005V6.04785H255.526V7.04785ZM185.543 6.75977H183.023V5.75977H185.543V6.75977ZM109.178 5.95996H109.938C110.271 5.95993 110.551 5.84666 110.778 5.62012C111.005 5.39345 111.118 5.1198 111.118 4.7998V3.87988C111.118 3.55988 111.005 3.28624 110.778 3.05957C110.551 2.83303 110.271 2.71976 109.938 2.71973H109.178V5.95996ZM123.678 5.95996H124.438C124.771 5.95993 125.051 5.84666 125.278 5.62012C125.505 5.39345 125.618 5.1198 125.618 4.7998V3.87988C125.618 3.55988 125.505 3.28624 125.278 3.05957C125.051 2.83303 124.771 2.71976 124.438 2.71973H123.678V5.95996ZM215.385 5.95996H216.145C216.478 5.95993 216.758 5.84666 216.985 5.62012C217.212 5.39345 217.325 5.1198 217.325 4.7998V3.87988C217.325 3.55988 217.212 3.28624 216.985 3.05957C216.758 2.83303 216.478 2.71976 216.145 2.71973H215.385V5.95996ZM359.116 5.95996H359.875C360.209 5.95993 360.489 5.84666 360.715 5.62012C360.942 5.39345 361.055 5.1198 361.055 4.7998V3.87988C361.055 3.55988 360.942 3.28624 360.715 3.05957C360.489 2.83303 360.209 2.71976 359.875 2.71973H359.116V5.95996ZM23.5454 5.04785H21.0249V4.04785H23.5454V5.04785ZM255.526 5.04785H253.005V4.04785H255.526V5.04785ZM186.704 0C187.73 0.000105686 188.603 0.360244 189.323 1.08008C190.043 1.80004 190.403 2.66642 190.403 3.67969V4.33984H187.883V3.67969C187.883 3.35976 187.77 3.086 187.543 2.85938C187.317 2.63287 187.037 2.51963 186.704 2.51953C186.384 2.51953 186.11 2.63291 185.883 2.85938C185.657 3.086 185.544 3.35976 185.543 3.67969V4.75977H183.023V3.67969C183.023 2.66651 183.383 1.8 184.103 1.08008C184.823 0.360078 185.69 0 186.704 0ZM23.5454 3.04785H21.0249V0.200195H23.5454V3.04785ZM255.526 3.04785H253.005V0.200195H255.526V3.04785Z"/>
</mask>
<path d="M9.28564 0C10.3121 0.000105686 11.1849 0.360244 11.9048 1.08008C12.6247 1.80004 12.9848 2.66642 12.9849 3.67969V4.33984H10.4653V3.67969C10.4653 3.35976 10.3521 3.086 10.1255 2.85938C9.89894 2.63287 9.61873 2.51963 9.28564 2.51953C8.96579 2.51953 8.69194 2.63291 8.46533 2.85938C8.2387 3.086 8.12553 3.35976 8.12549 3.67969V11.2803C8.12559 11.6001 8.2388 11.8731 8.46533 12.0996C8.692 12.3263 8.96564 12.4395 9.28564 12.4395C9.61878 12.4394 9.89892 12.3262 10.1255 12.0996C10.3519 11.8731 10.4652 11.6 10.4653 11.2803V10.6201H12.9849V11.2803C12.9848 12.2934 12.6247 13.16 11.9048 13.8799C11.1849 14.5996 10.312 14.9599 9.28564 14.96C8.27231 14.96 7.40506 14.5999 6.68506 13.8799C5.96519 13.16 5.60508 12.2934 5.60498 11.2803V3.67969C5.60502 2.66651 5.96522 1.8 6.68506 1.08008C7.40506 0.360078 8.27231 0 9.28564 0ZM139.825 0C140.851 0.000105686 141.724 0.360244 142.444 1.08008C143.164 1.80004 143.524 2.66642 143.524 3.67969V11.2803C143.524 12.2934 143.164 13.16 142.444 13.8799C141.724 14.5996 140.851 14.9599 139.825 14.96C138.811 14.96 137.944 14.5999 137.224 13.8799C136.504 13.16 136.144 12.2934 136.144 11.2803V3.67969C136.144 2.66651 136.504 1.8 137.224 1.08008C137.944 0.360078 138.811 0 139.825 0ZM169.913 11.2998C169.913 11.6065 170.026 11.8729 170.252 12.0996C170.479 12.3262 170.752 12.4393 171.072 12.4395C171.405 12.4395 171.686 12.3335 171.913 12.1201C172.139 11.8935 172.252 11.6198 172.252 11.2998V0.200195H174.772V11.2998C174.772 12.3131 174.412 13.1794 173.692 13.8994C172.972 14.6061 172.098 14.96 171.072 14.96C170.059 14.9599 169.192 14.606 168.472 13.8994C167.752 13.1795 167.392 12.313 167.392 11.2998V0.200195H169.913V11.2998ZM185.543 11.2803C185.544 11.6001 185.657 11.8731 185.883 12.0996C186.11 12.3263 186.384 12.4395 186.704 12.4395C187.037 12.4394 187.317 12.3262 187.543 12.0996C187.77 11.8731 187.883 11.6 187.883 11.2803V10.6201H190.403V11.2803C190.403 12.2934 190.043 13.16 189.323 13.8799C188.603 14.5996 187.73 14.9599 186.704 14.96C185.69 14.96 184.823 14.5999 184.103 13.8799C183.383 13.16 183.023 12.2934 183.023 11.2803V9.75977H185.543V11.2803ZM241.299 0C242.326 5.0884e-05 243.199 0.360129 243.919 1.08008C244.639 1.79998 244.999 2.66656 245 3.67969V4.33984H242.479V3.67969C242.479 3.35976 242.366 3.086 242.139 2.85938C241.913 2.6329 241.632 2.51958 241.299 2.51953C240.979 2.51953 240.706 2.63284 240.479 2.85938C240.252 3.086 240.139 3.35976 240.139 3.67969V3.91992C240.139 4.51989 240.359 5.00656 240.799 5.37988L243.459 7.66016C244.486 8.56677 245 9.69353 245 11.04V11.2803C244.999 12.2934 244.639 13.16 243.919 13.8799C243.199 14.5998 242.326 14.9599 241.299 14.96C240.286 14.96 239.419 14.5999 238.699 13.8799C237.979 13.16 237.619 12.2933 237.619 11.2803V10.6201H240.139V11.2803C240.139 11.6 240.253 11.8731 240.479 12.0996C240.706 12.3263 240.979 12.4395 241.299 12.4395C241.633 12.4394 241.913 12.3262 242.139 12.0996C242.366 11.8731 242.479 11.6 242.479 11.2803V11.04C242.479 10.44 242.259 9.95341 241.819 9.58008L239.159 7.2998C238.132 6.39319 237.619 5.26645 237.619 3.91992V3.67969C237.619 2.66656 237.979 1.79998 238.699 1.08008C239.419 0.360078 240.286 0 241.299 0ZM285.092 11.2998C285.092 11.6065 285.205 11.8729 285.432 12.0996C285.659 12.3262 285.932 12.4393 286.251 12.4395C286.585 12.4395 286.866 12.3335 287.092 12.1201C287.319 11.8935 287.432 11.6198 287.432 11.2998V0.200195H289.952V11.2998C289.952 12.3131 289.592 13.1794 288.872 13.8994C288.152 14.6061 287.278 14.96 286.251 14.96C285.238 14.9599 284.372 14.606 283.652 13.8994C282.932 13.1795 282.572 12.313 282.572 11.2998V0.200195H285.092V11.2998ZM344.661 0C345.687 0.000105686 346.56 0.360244 347.28 1.08008C348 1.80004 348.36 2.66642 348.36 3.67969V11.2803C348.36 12.2934 348 13.16 347.28 13.8799C346.56 14.5996 345.687 14.9599 344.661 14.96C343.647 14.96 342.78 14.5999 342.06 13.8799C341.34 13.16 340.98 12.2934 340.98 11.2803V3.67969C340.98 2.66651 341.34 1.8 342.06 1.08008C342.78 0.360078 343.647 0 344.661 0ZM23.5454 14.7598H21.0249V8.04785H23.5454V14.7598ZM37.6323 8.16016V0.200195H40.1519V14.7598H37.6323L34.4126 6.7998V14.7598H31.8921V0.200195H34.4126L37.6323 8.16016ZM55.1021 2.71973H51.0024V5.95996H54.6216V8.47949H51.0024V12.2402H55.1021V14.7598H48.4819V0.200195H55.1021V2.71973ZM68.104 8.13965L70.7437 0.200195H73.2837V14.7598H70.7642V6.82031L69.0044 12.5H67.1841L65.4243 6.82031V14.7598H62.9038V0.200195H65.4438L68.104 8.13965ZM89.3032 14.7598H86.7231L86.1831 11.8799H83.7427L83.2036 14.7598H80.6235L83.7036 0.200195H86.2231L89.3032 14.7598ZM109.938 0.200195C110.965 0.200228 111.838 0.560306 112.558 1.28027C113.278 2.00021 113.638 2.86671 113.638 3.87988V4.7998C113.638 5.81298 113.278 6.67948 112.558 7.39941C111.838 8.11938 110.965 8.47946 109.938 8.47949H109.178V14.7598H106.658V0.200195H109.938ZM124.438 0.200195C125.465 0.200228 126.338 0.560306 127.058 1.28027C127.778 2.00021 128.138 2.86671 128.138 3.87988V4.7998C128.138 5.43981 127.985 6.03341 127.678 6.58008C127.385 7.1134 126.978 7.54655 126.458 7.87988L128.958 14.7598H126.278L124.038 8.47949H123.678V14.7598H121.158V0.200195H124.438ZM155.439 0.200195C156.452 0.200195 157.32 0.560273 158.04 1.28027C158.773 2.00022 159.139 2.86668 159.139 3.87988V11.0801C159.139 12.0932 158.773 12.9598 158.04 13.6797C157.32 14.3997 156.452 14.7598 155.439 14.7598H151.759V0.200195H155.439ZM205.063 2.71973H200.963V5.95996H204.583V8.47949H200.963V12.2402H205.063V14.7598H198.443V0.200195H205.063V2.71973ZM216.145 0.200195C217.172 0.200228 218.045 0.560306 218.765 1.28027C219.485 2.00021 219.845 2.86671 219.845 3.87988V4.7998C219.845 5.43981 219.692 6.03341 219.385 6.58008C219.092 7.1134 218.685 7.54655 218.165 7.87988L220.665 14.7598H217.985L215.745 8.47949H215.385V14.7598H212.865V0.200195H216.145ZM255.526 14.7598H253.005V8.04785H255.526V14.7598ZM269.073 8.13965L271.712 0.200195H274.252V14.7598H271.733V6.82031L269.973 12.5H268.153L266.393 6.82031V14.7598H263.873V0.200195H266.413L269.073 8.13965ZM300.803 12.2402H304.223V14.7598H298.283V0.200195H300.803V12.2402ZM319.448 14.7598H316.868L316.328 11.8799H313.887L313.348 14.7598H310.768L313.848 0.200195H316.368L319.448 14.7598ZM333.514 2.71973H331.014V14.7598H328.495V2.71973H325.995V0.200195H333.514V2.71973ZM359.875 0.200195C360.902 0.200228 361.776 0.560306 362.496 1.28027C363.215 2.00021 363.576 2.86671 363.576 3.87988V4.7998C363.576 5.43981 363.422 6.03341 363.116 6.58008C362.822 7.1134 362.415 7.54655 361.895 7.87988L364.395 14.7598H361.715L359.475 8.47949H359.116V14.7598H356.595V0.200195H359.875ZM139.825 2.51953C139.505 2.51953 139.231 2.63291 139.004 2.85938C138.778 3.086 138.665 3.35976 138.665 3.67969V11.2803C138.665 11.6001 138.778 11.8731 139.004 12.0996C139.231 12.3263 139.505 12.4395 139.825 12.4395C140.158 12.4394 140.438 12.3262 140.665 12.0996C140.891 11.8731 141.004 11.6 141.004 11.2803V3.67969C141.004 3.35976 140.891 3.086 140.665 2.85938C140.438 2.63287 140.158 2.51963 139.825 2.51953ZM344.661 2.51953C344.341 2.51953 344.067 2.63291 343.84 2.85938C343.614 3.086 343.501 3.35976 343.5 3.67969V11.2803C343.501 11.6001 343.614 11.8731 343.84 12.0996C344.067 12.3263 344.341 12.4395 344.661 12.4395C344.994 12.4394 345.274 12.3262 345.5 12.0996C345.727 11.8731 345.84 11.6 345.84 11.2803V3.67969C345.84 3.35976 345.727 3.086 345.5 2.85938C345.274 2.63287 344.994 2.51963 344.661 2.51953ZM154.28 12.2402H155.439C155.772 12.2402 156.053 12.1261 156.28 11.8994C156.506 11.6729 156.62 11.3998 156.62 11.0801V3.87988C156.62 3.5599 156.506 3.28623 156.28 3.05957C156.053 2.8329 155.772 2.71973 155.439 2.71973H154.28V12.2402ZM84.2036 9.35938H85.7231L84.9634 5.25977L84.2036 9.35938ZM314.348 9.35938H315.868L315.108 5.25977L314.348 9.35938ZM185.543 8.75977H183.023V7.75977H185.543V8.75977ZM23.5454 7.04785H21.0249V6.04785H23.5454V7.04785ZM255.526 7.04785H253.005V6.04785H255.526V7.04785ZM185.543 6.75977H183.023V5.75977H185.543V6.75977ZM109.178 5.95996H109.938C110.271 5.95993 110.551 5.84666 110.778 5.62012C111.005 5.39345 111.118 5.1198 111.118 4.7998V3.87988C111.118 3.55988 111.005 3.28624 110.778 3.05957C110.551 2.83303 110.271 2.71976 109.938 2.71973H109.178V5.95996ZM123.678 5.95996H124.438C124.771 5.95993 125.051 5.84666 125.278 5.62012C125.505 5.39345 125.618 5.1198 125.618 4.7998V3.87988C125.618 3.55988 125.505 3.28624 125.278 3.05957C125.051 2.83303 124.771 2.71976 124.438 2.71973H123.678V5.95996ZM215.385 5.95996H216.145C216.478 5.95993 216.758 5.84666 216.985 5.62012C217.212 5.39345 217.325 5.1198 217.325 4.7998V3.87988C217.325 3.55988 217.212 3.28624 216.985 3.05957C216.758 2.83303 216.478 2.71976 216.145 2.71973H215.385V5.95996ZM359.116 5.95996H359.875C360.209 5.95993 360.489 5.84666 360.715 5.62012C360.942 5.39345 361.055 5.1198 361.055 4.7998V3.87988C361.055 3.55988 360.942 3.28624 360.715 3.05957C360.489 2.83303 360.209 2.71976 359.875 2.71973H359.116V5.95996ZM23.5454 5.04785H21.0249V4.04785H23.5454V5.04785ZM255.526 5.04785H253.005V4.04785H255.526V5.04785ZM186.704 0C187.73 0.000105686 188.603 0.360244 189.323 1.08008C190.043 1.80004 190.403 2.66642 190.403 3.67969V4.33984H187.883V3.67969C187.883 3.35976 187.77 3.086 187.543 2.85938C187.317 2.63287 187.037 2.51963 186.704 2.51953C186.384 2.51953 186.11 2.63291 185.883 2.85938C185.657 3.086 185.544 3.35976 185.543 3.67969V4.75977H183.023V3.67969C183.023 2.66651 183.383 1.8 184.103 1.08008C184.823 0.360078 185.69 0 186.704 0ZM23.5454 3.04785H21.0249V0.200195H23.5454V3.04785ZM255.526 3.04785H253.005V0.200195H255.526V3.04785Z" fill="url(#paint0_radial_36_3371)"/>
<path d="M9.28564 0L9.28571 -0.6H9.28564V0ZM11.9048 1.08008L12.329 0.655814L12.329 0.655801L11.9048 1.08008ZM12.9849 3.67969H13.5849V3.67966L12.9849 3.67969ZM12.9849 4.33984V4.93984H13.5849V4.33984H12.9849ZM10.4653 4.33984H9.86533V4.93984H10.4653V4.33984ZM10.4653 3.67969H11.0653V3.67961L10.4653 3.67969ZM10.1255 2.85938L10.5498 2.43511L10.5497 2.43507L10.1255 2.85938ZM9.28564 2.51953L9.28583 1.91953H9.28564V2.51953ZM8.46533 2.85938L8.0412 2.43498L8.04107 2.43511L8.46533 2.85938ZM8.12549 3.67969L7.52549 3.67961V3.67969H8.12549ZM8.12549 11.2803H7.52549V11.2805L8.12549 11.2803ZM8.46533 12.0996L8.04105 12.5239L8.04107 12.5239L8.46533 12.0996ZM9.28564 12.4395V13.0395H9.28583L9.28564 12.4395ZM10.1255 12.0996L10.5498 12.5239L10.5499 12.5238L10.1255 12.0996ZM10.4653 11.2803L11.0653 11.2805V11.2803H10.4653ZM10.4653 10.6201V10.0201H9.86533V10.6201H10.4653ZM12.9849 10.6201H13.5849V10.0201H12.9849V10.6201ZM12.9849 11.2803L13.5849 11.2803V11.2803H12.9849ZM11.9048 13.8799L12.329 14.3042L12.329 14.3041L11.9048 13.8799ZM9.28564 14.96V15.56H9.28571L9.28564 14.96ZM6.68506 13.8799L6.26079 14.3041L6.26079 14.3041L6.68506 13.8799ZM5.60498 11.2803H5.00498V11.2803L5.60498 11.2803ZM5.60498 3.67969L5.00498 3.67966V3.67969H5.60498ZM6.68506 1.08008L6.26079 0.655814L6.26077 0.655839L6.68506 1.08008ZM139.825 0L139.825 -0.6H139.825V0ZM142.444 1.08008L142.868 0.655814L142.868 0.655801L142.444 1.08008ZM143.524 3.67969H144.124V3.67966L143.524 3.67969ZM143.524 11.2803L144.124 11.2803V11.2803H143.524ZM142.444 13.8799L142.868 14.3042L142.868 14.3041L142.444 13.8799ZM139.825 14.96V15.56H139.825L139.825 14.96ZM137.224 13.8799L136.8 14.3041V14.3041L137.224 13.8799ZM136.144 11.2803H135.544V11.2803L136.144 11.2803ZM136.144 3.67969L135.544 3.67966V3.67969H136.144ZM137.224 1.08008L136.8 0.655814L136.8 0.655839L137.224 1.08008ZM170.252 12.0996L169.828 12.5239V12.5239L170.252 12.0996ZM171.072 12.4395L171.072 13.0395H171.072V12.4395ZM171.913 12.1201L172.324 12.557L172.33 12.5508L172.337 12.5444L171.913 12.1201ZM172.252 0.200195V-0.399805H171.652V0.200195H172.252ZM174.772 0.200195H175.372V-0.399805H174.772V0.200195ZM173.692 13.8994L174.112 14.3276L174.116 14.3237L173.692 13.8994ZM171.072 14.96L171.072 15.56H171.072V14.96ZM168.472 13.8994L168.048 14.3237L168.052 14.3276L168.472 13.8994ZM167.392 0.200195V-0.399805H166.792V0.200195H167.392ZM169.913 0.200195H170.513V-0.399805H169.913V0.200195ZM185.543 11.2803H184.943V11.2805L185.543 11.2803ZM185.883 12.0996L185.459 12.5239L185.459 12.5239L185.883 12.0996ZM186.704 12.4395V13.0395H186.704L186.704 12.4395ZM187.543 12.0996L187.968 12.5239L187.968 12.5238L187.543 12.0996ZM187.883 11.2803L188.483 11.2805V11.2803H187.883ZM187.883 10.6201V10.0201H187.283V10.6201H187.883ZM190.403 10.6201H191.003V10.0201H190.403V10.6201ZM190.403 11.2803L191.003 11.2803V11.2803H190.403ZM189.323 13.8799L189.747 14.3042L189.747 14.3041L189.323 13.8799ZM186.704 14.96V15.56H186.704L186.704 14.96ZM184.103 13.8799L183.679 14.3041V14.3041L184.103 13.8799ZM183.023 11.2803H182.423V11.2803L183.023 11.2803ZM183.023 9.75977V9.15977H182.423V9.75977H183.023ZM185.543 9.75977H186.143V9.15977H185.543V9.75977ZM241.299 0L241.299 -0.6H241.299V0ZM243.919 1.08008L244.344 0.655853L244.344 0.655814L243.919 1.08008ZM245 3.67969H245.6V3.67966L245 3.67969ZM245 4.33984V4.93984H245.6V4.33984H245ZM242.479 4.33984H241.879V4.93984H242.479V4.33984ZM242.479 3.67969H243.079V3.67961L242.479 3.67969ZM242.139 2.85938L242.563 2.43511L242.563 2.43502L242.139 2.85938ZM241.299 2.51953L241.299 1.91953H241.299V2.51953ZM240.479 2.85938L240.055 2.43503L240.055 2.43511L240.479 2.85938ZM240.139 3.67969L239.539 3.67961V3.67969H240.139ZM240.139 3.91992H239.539V3.91994L240.139 3.91992ZM240.799 5.37988L241.19 4.92434L241.188 4.92238L240.799 5.37988ZM243.459 7.66016L243.857 7.21041L243.85 7.20461L243.459 7.66016ZM245 11.2803L245.6 11.2803V11.2803H245ZM243.919 13.8799L244.344 14.3041L244.344 14.3041L243.919 13.8799ZM241.299 14.96V15.56H241.299L241.299 14.96ZM238.699 13.8799L238.274 14.3041L238.274 14.3041L238.699 13.8799ZM237.619 11.2803H237.019V11.2803L237.619 11.2803ZM237.619 10.6201V10.0201H237.019V10.6201H237.619ZM240.139 10.6201H240.739V10.0201H240.139V10.6201ZM240.139 11.2803H239.539V11.2805L240.139 11.2803ZM240.479 12.0996L240.055 12.5238L240.055 12.5239L240.479 12.0996ZM241.299 12.4395V13.0395H241.299L241.299 12.4395ZM242.139 12.0996L242.563 12.5239L242.563 12.5238L242.139 12.0996ZM242.479 11.2803L243.079 11.2805V11.2803H242.479ZM241.819 9.58008L241.428 10.0356L241.431 10.0376L241.819 9.58008ZM239.159 7.2998L238.761 7.74956L238.768 7.75535L239.159 7.2998ZM237.619 3.91992H237.019V3.91993L237.619 3.91992ZM237.619 3.67969L237.019 3.67966V3.67969H237.619ZM238.699 1.08008L238.274 0.655814L238.274 0.655855L238.699 1.08008ZM285.432 12.0996L285.008 12.5239V12.5239L285.432 12.0996ZM286.251 12.4395L286.251 13.0395H286.251V12.4395ZM287.092 12.1201L287.504 12.557L287.51 12.5508L287.517 12.5444L287.092 12.1201ZM287.432 0.200195V-0.399805H286.832V0.200195H287.432ZM289.952 0.200195H290.552V-0.399805H289.952V0.200195ZM288.872 13.8994L289.292 14.3276L289.296 14.3237L288.872 13.8994ZM286.251 14.96L286.251 15.56H286.251V14.96ZM283.652 13.8994L283.228 14.3237L283.232 14.3276L283.652 13.8994ZM282.572 0.200195V-0.399805H281.972V0.200195H282.572ZM285.092 0.200195H285.692V-0.399805H285.092V0.200195ZM344.661 0L344.661 -0.6H344.661V0ZM347.28 1.08008L347.704 0.655814V0.655801L347.28 1.08008ZM348.36 3.67969H348.96V3.67966L348.36 3.67969ZM348.36 11.2803L348.96 11.2803V11.2803H348.36ZM347.28 13.8799L347.704 14.3042L347.704 14.3041L347.28 13.8799ZM344.661 14.96V15.56H344.661L344.661 14.96ZM342.06 13.8799L341.636 14.3041L341.636 14.3041L342.06 13.8799ZM340.98 11.2803H340.38V11.2803L340.98 11.2803ZM340.98 3.67969L340.38 3.67966V3.67969H340.98ZM342.06 1.08008L341.636 0.655814L341.636 0.655839L342.06 1.08008ZM23.5454 14.7598V15.3598H24.1454V14.7598H23.5454ZM21.0249 14.7598H20.4249V15.3598H21.0249V14.7598ZM21.0249 8.04785V7.44785H20.4249V8.04785H21.0249ZM23.5454 8.04785H24.1454V7.44785H23.5454V8.04785ZM37.6323 8.16016L37.0761 8.38514L38.2323 8.16016H37.6323ZM37.6323 0.200195V-0.399805H37.0323V0.200195H37.6323ZM40.1519 0.200195H40.7519V-0.399805H40.1519V0.200195ZM40.1519 14.7598V15.3598H40.7519V14.7598H40.1519ZM37.6323 14.7598L37.0761 14.9848L37.2278 15.3598H37.6323V14.7598ZM34.4126 6.7998L34.9688 6.57482L33.8126 6.7998H34.4126ZM34.4126 14.7598V15.3598H35.0126V14.7598H34.4126ZM31.8921 14.7598H31.2921V15.3598H31.8921V14.7598ZM31.8921 0.200195V-0.399805H31.2921V0.200195H31.8921ZM34.4126 0.200195L34.9688 -0.0247905L34.8171 -0.399805H34.4126V0.200195ZM55.1021 2.71973V3.31973H55.702V2.71973H55.1021ZM51.0024 2.71973V2.11973H50.4024V2.71973H51.0024ZM51.0024 5.95996H50.4024V6.55996H51.0024V5.95996ZM54.6216 5.95996H55.2216V5.35996H54.6216V5.95996ZM54.6216 8.47949V9.07949H55.2216V8.47949H54.6216ZM51.0024 8.47949V7.87949H50.4024V8.47949H51.0024ZM51.0024 12.2402H50.4024V12.8402H51.0024V12.2402ZM55.1021 12.2402H55.702V11.6402H55.1021V12.2402ZM55.1021 14.7598V15.3598H55.702V14.7598H55.1021ZM48.4819 14.7598H47.8819V15.3598H48.4819V14.7598ZM48.4819 0.200195V-0.399805H47.8819V0.200195H48.4819ZM55.1021 0.200195H55.702V-0.399805H55.1021V0.200195ZM68.104 8.13965L67.5351 8.33027L68.1062 10.0348L68.6734 8.32894L68.104 8.13965ZM70.7437 0.200195V-0.399805H70.3108L70.1743 0.0108999L70.7437 0.200195ZM73.2837 0.200195H73.8837V-0.399805H73.2837V0.200195ZM73.2837 14.7598V15.3598H73.8837V14.7598H73.2837ZM70.7642 14.7598H70.1642V15.3598H70.7642V14.7598ZM70.7642 6.82031H71.3642L70.191 6.64274L70.7642 6.82031ZM69.0044 12.5V13.1H69.4466L69.5775 12.6776L69.0044 12.5ZM67.1841 12.5L66.611 12.6776L66.7418 13.1H67.1841V12.5ZM65.4243 6.82031L65.9974 6.64274L64.8243 6.82031H65.4243ZM65.4243 14.7598V15.3598H66.0243V14.7598H65.4243ZM62.9038 14.7598H62.3038V15.3598H62.9038V14.7598ZM62.9038 0.200195V-0.399805H62.3038V0.200195H62.9038ZM65.4438 0.200195L66.0128 0.00957716L65.8756 -0.399805H65.4438V0.200195ZM89.3032 14.7598V15.3598H90.0434L89.8902 14.6356L89.3032 14.7598ZM86.7231 14.7598L86.1334 14.8704L86.2252 15.3598H86.7231V14.7598ZM86.1831 11.8799L86.7728 11.7693L86.6811 11.2799H86.1831V11.8799ZM83.7427 11.8799V11.2799H83.2446L83.1529 11.7695L83.7427 11.8799ZM83.2036 14.7598V15.3598H83.7017L83.7934 14.8702L83.2036 14.7598ZM80.6235 14.7598L80.0365 14.6356L79.8833 15.3598H80.6235V14.7598ZM83.7036 0.200195V-0.399805H83.2173L83.1166 0.0760136L83.7036 0.200195ZM86.2231 0.200195L86.8102 0.0760136L86.7095 -0.399805H86.2231V0.200195ZM109.938 0.200195L109.938 -0.399805H109.938V0.200195ZM112.558 1.28027L112.982 0.856056L112.982 0.856009L112.558 1.28027ZM112.558 7.39941L112.982 7.82368L112.982 7.82363L112.558 7.39941ZM109.938 8.47949V9.07949H109.938L109.938 8.47949ZM109.178 8.47949V7.87949H108.578V8.47949H109.178ZM109.178 14.7598V15.3598H109.778V14.7598H109.178ZM106.658 14.7598H106.058V15.3598H106.658V14.7598ZM106.658 0.200195V-0.399805H106.058V0.200195H106.658ZM124.438 0.200195L124.438 -0.399805H124.438V0.200195ZM127.058 1.28027L127.482 0.856056L127.482 0.856009L127.058 1.28027ZM127.678 6.58008L127.155 6.28652L127.152 6.29092L127.678 6.58008ZM126.458 7.87988L126.134 7.37476L125.73 7.63375L125.894 8.0848L126.458 7.87988ZM128.958 14.7598V15.3598H129.814L129.521 14.5548L128.958 14.7598ZM126.278 14.7598L125.713 14.9614L125.855 15.3598H126.278V14.7598ZM124.038 8.47949L124.603 8.27791L124.461 7.87949H124.038V8.47949ZM123.678 8.47949V7.87949H123.078V8.47949H123.678ZM123.678 14.7598V15.3598H124.278V14.7598H123.678ZM121.158 14.7598H120.558V15.3598H121.158V14.7598ZM121.158 0.200195V-0.399805H120.558V0.200195H121.158ZM158.04 1.28027L157.615 1.70455L157.619 1.70837L158.04 1.28027ZM159.139 11.0801L159.739 11.0801V11.0801H159.139ZM158.04 13.6797L157.619 13.2516L157.615 13.2554L158.04 13.6797ZM151.759 14.7598H151.159V15.3598H151.759V14.7598ZM151.759 0.200195V-0.399805H151.159V0.200195H151.759ZM205.063 2.71973V3.31973H205.663V2.71973H205.063ZM200.963 2.71973V2.11973H200.363V2.71973H200.963ZM200.963 5.95996H200.363V6.55996H200.963V5.95996ZM204.583 5.95996H205.183V5.35996H204.583V5.95996ZM204.583 8.47949V9.07949H205.183V8.47949H204.583ZM200.963 8.47949V7.87949H200.363V8.47949H200.963ZM200.963 12.2402H200.363V12.8402H200.963V12.2402ZM205.063 12.2402H205.663V11.6402H205.063V12.2402ZM205.063 14.7598V15.3598H205.663V14.7598H205.063ZM198.443 14.7598H197.843V15.3598H198.443V14.7598ZM198.443 0.200195V-0.399805H197.843V0.200195H198.443ZM205.063 0.200195H205.663V-0.399805H205.063V0.200195ZM216.145 0.200195L216.145 -0.399805H216.145V0.200195ZM218.765 1.28027L219.189 0.856056L219.189 0.856009L218.765 1.28027ZM219.385 6.58008L218.862 6.28652L218.86 6.29092L219.385 6.58008ZM218.165 7.87988L217.841 7.37476L217.437 7.63375L217.601 8.0848L218.165 7.87988ZM220.665 14.7598V15.3598H221.521L221.228 14.5548L220.665 14.7598ZM217.985 14.7598L217.42 14.9614L217.562 15.3598H217.985V14.7598ZM215.745 8.47949L216.31 8.27791L216.168 7.87949H215.745V8.47949ZM215.385 8.47949V7.87949H214.785V8.47949H215.385ZM215.385 14.7598V15.3598H215.985V14.7598H215.385ZM212.865 14.7598H212.265V15.3598H212.865V14.7598ZM212.865 0.200195V-0.399805H212.265V0.200195H212.865ZM255.526 14.7598V15.3598H256.126V14.7598H255.526ZM253.005 14.7598H252.405V15.3598H253.005V14.7598ZM253.005 8.04785V7.44785H252.405V8.04785H253.005ZM255.526 8.04785H256.126V7.44785H255.526V8.04785ZM269.073 8.13965L268.504 8.33027L269.075 10.0348L269.642 8.32894L269.073 8.13965ZM271.712 0.200195V-0.399805H271.28L271.143 0.0108999L271.712 0.200195ZM274.252 0.200195H274.852V-0.399805H274.252V0.200195ZM274.252 14.7598V15.3598H274.852V14.7598H274.252ZM271.733 14.7598H271.133V15.3598H271.733V14.7598ZM271.733 6.82031H272.333L271.16 6.64274L271.733 6.82031ZM269.973 12.5V13.1H270.415L270.546 12.6776L269.973 12.5ZM268.153 12.5L267.58 12.6776L267.711 13.1H268.153V12.5ZM266.393 6.82031L266.966 6.64274L265.793 6.82031H266.393ZM266.393 14.7598V15.3598H266.993V14.7598H266.393ZM263.873 14.7598H263.273V15.3598H263.873V14.7598ZM263.873 0.200195V-0.399805H263.273V0.200195H263.873ZM266.413 0.200195L266.982 0.00957716L266.844 -0.399805H266.413V0.200195ZM300.803 12.2402H300.203V12.8402H300.803V12.2402ZM304.223 12.2402H304.823V11.6402H304.223V12.2402ZM304.223 14.7598V15.3598H304.823V14.7598H304.223ZM298.283 14.7598H297.683V15.3598H298.283V14.7598ZM298.283 0.200195V-0.399805H297.683V0.200195H298.283ZM300.803 0.200195H301.403V-0.399805H300.803V0.200195ZM319.448 14.7598V15.3598H320.188L320.035 14.6356L319.448 14.7598ZM316.868 14.7598L316.278 14.8704L316.37 15.3598H316.868V14.7598ZM316.328 11.8799L316.917 11.7693L316.826 11.2799H316.328V11.8799ZM313.887 11.8799V11.2799H313.389L313.297 11.7695L313.887 11.8799ZM313.348 14.7598V15.3598H313.846L313.938 14.8702L313.348 14.7598ZM310.768 14.7598L310.181 14.6356L310.028 15.3598H310.768V14.7598ZM313.848 0.200195V-0.399805H313.362L313.261 0.0760136L313.848 0.200195ZM316.368 0.200195L316.955 0.0760136L316.854 -0.399805H316.368V0.200195ZM333.514 2.71973V3.31973H334.114V2.71973H333.514ZM331.014 2.71973V2.11973H330.414V2.71973H331.014ZM331.014 14.7598V15.3598H331.614V14.7598H331.014ZM328.495 14.7598H327.895V15.3598H328.495V14.7598ZM328.495 2.71973H329.095V2.11973H328.495V2.71973ZM325.995 2.71973H325.395V3.31973H325.995V2.71973ZM325.995 0.200195V-0.399805H325.395V0.200195H325.995ZM333.514 0.200195H334.114V-0.399805H333.514V0.200195ZM359.875 0.200195L359.876 -0.399805H359.875V0.200195ZM362.496 1.28027L362.92 0.856056L362.92 0.856009L362.496 1.28027ZM363.116 6.58008L362.592 6.28652L362.59 6.29092L363.116 6.58008ZM361.895 7.87988L361.571 7.37476L361.167 7.63375L361.331 8.0848L361.895 7.87988ZM364.395 14.7598V15.3598H365.251L364.959 14.5548L364.395 14.7598ZM361.715 14.7598L361.15 14.9614L361.292 15.3598H361.715V14.7598ZM359.475 8.47949L360.04 8.27791L359.898 7.87949H359.475V8.47949ZM359.116 8.47949V7.87949H358.516V8.47949H359.116ZM359.116 14.7598V15.3598H359.716V14.7598H359.116ZM356.595 14.7598H355.995V15.3598H356.595V14.7598ZM356.595 0.200195V-0.399805H355.995V0.200195H356.595ZM139.825 2.51953L139.825 1.91953H139.825V2.51953ZM139.004 2.85938L138.58 2.43498L138.58 2.43511L139.004 2.85938ZM138.665 3.67969L138.065 3.67961V3.67969H138.665ZM138.665 11.2803H138.065V11.2805L138.665 11.2803ZM139.004 12.0996L138.58 12.5239L138.58 12.5239L139.004 12.0996ZM139.825 12.4395V13.0395H139.825L139.825 12.4395ZM140.665 12.0996L141.089 12.5239L141.089 12.5238L140.665 12.0996ZM141.004 11.2803L141.604 11.2805V11.2803H141.004ZM141.004 3.67969H141.604V3.67961L141.004 3.67969ZM140.665 2.85938L141.089 2.43511L141.089 2.43507L140.665 2.85938ZM344.661 2.51953L344.661 1.91953H344.661V2.51953ZM343.84 2.85938L343.416 2.43498L343.416 2.43511L343.84 2.85938ZM343.5 3.67969L342.9 3.67961V3.67969H343.5ZM343.5 11.2803H342.9V11.2805L343.5 11.2803ZM343.84 12.0996L343.416 12.5239L343.416 12.5239L343.84 12.0996ZM344.661 12.4395V13.0395H344.661L344.661 12.4395ZM345.5 12.0996L345.925 12.5239L345.925 12.5238L345.5 12.0996ZM345.84 11.2803L346.44 11.2805V11.2803H345.84ZM345.84 3.67969H346.44V3.67961L345.84 3.67969ZM345.5 2.85938L345.925 2.43511L345.925 2.43507L345.5 2.85938ZM154.28 12.2402H153.68V12.8402H154.28V12.2402ZM156.28 11.8994L156.704 12.3237L156.704 12.3235L156.28 11.8994ZM156.62 11.0801L157.22 11.0802V11.0801H156.62ZM156.28 3.05957L156.704 2.63533L156.704 2.63531L156.28 3.05957ZM154.28 2.71973V2.11973H153.68V2.71973H154.28ZM84.2036 9.35938L83.6137 9.25004L83.4822 9.95938H84.2036V9.35938ZM85.7231 9.35938V9.95938H86.4446L86.3131 9.25004L85.7231 9.35938ZM84.9634 5.25977L85.5533 5.15043H84.3734L84.9634 5.25977ZM314.348 9.35938L313.758 9.25004L313.627 9.95938H314.348V9.35938ZM315.868 9.35938V9.95938H316.589L316.458 9.25004L315.868 9.35938ZM315.108 5.25977L315.698 5.15043H314.518L315.108 5.25977ZM185.543 8.75977V9.35977H186.143V8.75977H185.543ZM183.023 8.75977H182.423V9.35977H183.023V8.75977ZM183.023 7.75977V7.15977H182.423V7.75977H183.023ZM185.543 7.75977H186.143V7.15977H185.543V7.75977ZM23.5454 7.04785V7.64785H24.1454V7.04785H23.5454ZM21.0249 7.04785H20.4249V7.64785H21.0249V7.04785ZM21.0249 6.04785V5.44785H20.4249V6.04785H21.0249ZM23.5454 6.04785H24.1454V5.44785H23.5454V6.04785ZM255.526 7.04785V7.64785H256.126V7.04785H255.526ZM253.005 7.04785H252.405V7.64785H253.005V7.04785ZM253.005 6.04785V5.44785H252.405V6.04785H253.005ZM255.526 6.04785H256.126V5.44785H255.526V6.04785ZM185.543 6.75977V7.35977H186.143V6.75977H185.543ZM183.023 6.75977H182.423V7.35977H183.023V6.75977ZM183.023 5.75977V5.15977H182.423V5.75977H183.023ZM185.543 5.75977H186.143V5.15977H185.543V5.75977ZM109.178 5.95996H108.578V6.55996H109.178V5.95996ZM109.938 5.95996V6.55996H109.938L109.938 5.95996ZM110.778 5.62012L111.202 6.04445L111.202 6.04438L110.778 5.62012ZM110.778 3.05957L111.202 2.63531L111.202 2.63524L110.778 3.05957ZM109.938 2.71973L109.938 2.11973H109.938V2.71973ZM109.178 2.71973V2.11973H108.578V2.71973H109.178ZM123.678 5.95996H123.078V6.55996H123.678V5.95996ZM124.438 5.95996V6.55996H124.438L124.438 5.95996ZM125.278 5.62012L125.702 6.04445L125.702 6.04438L125.278 5.62012ZM125.278 3.05957L125.702 2.63531L125.702 2.63524L125.278 3.05957ZM124.438 2.71973L124.438 2.11973H124.438V2.71973ZM123.678 2.71973V2.11973H123.078V2.71973H123.678ZM215.385 5.95996H214.785V6.55996H215.385V5.95996ZM216.145 5.95996V6.55996H216.145L216.145 5.95996ZM216.985 5.62012L217.409 6.04445L217.409 6.04438L216.985 5.62012ZM216.985 3.05957L217.409 2.63531L217.409 2.63524L216.985 3.05957ZM216.145 2.71973L216.145 2.11973H216.145V2.71973ZM215.385 2.71973V2.11973H214.785V2.71973H215.385ZM359.116 5.95996H358.516V6.55996H359.116V5.95996ZM359.875 5.95996V6.55996H359.876L359.875 5.95996ZM360.715 5.62012L361.14 6.04445L361.14 6.04438L360.715 5.62012ZM360.715 3.05957L361.14 2.63531L361.14 2.63524L360.715 3.05957ZM359.875 2.71973L359.876 2.11973H359.875V2.71973ZM359.116 2.71973V2.11973H358.516V2.71973H359.116ZM23.5454 5.04785V5.64785H24.1454V5.04785H23.5454ZM21.0249 5.04785H20.4249V5.64785H21.0249V5.04785ZM21.0249 4.04785V3.44785H20.4249V4.04785H21.0249ZM23.5454 4.04785H24.1454V3.44785H23.5454V4.04785ZM255.526 5.04785V5.64785H256.126V5.04785H255.526ZM253.005 5.04785H252.405V5.64785H253.005V5.04785ZM253.005 4.04785V3.44785H252.405V4.04785H253.005ZM255.526 4.04785H256.126V3.44785H255.526V4.04785ZM186.704 0L186.704 -0.6H186.704V0ZM189.323 1.08008L189.747 0.655814L189.747 0.655801L189.323 1.08008ZM190.403 3.67969H191.003V3.67966L190.403 3.67969ZM190.403 4.33984V4.93984H191.003V4.33984H190.403ZM187.883 4.33984H187.283V4.93984H187.883V4.33984ZM187.883 3.67969H188.483V3.67961L187.883 3.67969ZM187.543 2.85938L187.968 2.43511L187.968 2.43507L187.543 2.85938ZM186.704 2.51953L186.704 1.91953H186.704V2.51953ZM185.883 2.85938L185.459 2.43498L185.459 2.43511L185.883 2.85938ZM185.543 3.67969L184.943 3.67961V3.67969H185.543ZM185.543 4.75977V5.35977H186.143V4.75977H185.543ZM183.023 4.75977H182.423V5.35977H183.023V4.75977ZM183.023 3.67969L182.423 3.67966V3.67969H183.023ZM184.103 1.08008L183.679 0.655814L183.679 0.655839L184.103 1.08008ZM23.5454 3.04785V3.64785H24.1454V3.04785H23.5454ZM21.0249 3.04785H20.4249V3.64785H21.0249V3.04785ZM21.0249 0.200195V-0.399805H20.4249V0.200195H21.0249ZM23.5454 0.200195H24.1454V-0.399805H23.5454V0.200195ZM255.526 3.04785V3.64785H256.126V3.04785H255.526ZM253.005 3.04785H252.405V3.64785H253.005V3.04785ZM253.005 0.200195V-0.399805H252.405V0.200195H253.005ZM255.526 0.200195H256.126V-0.399805H255.526V0.200195ZM9.28564 0L9.28558 0.6C10.1543 0.600089 10.8741 0.89797 11.4805 1.50435L11.9048 1.08008L12.329 0.655801C11.4957 -0.177482 10.4699 -0.599878 9.28571 -0.6L9.28564 0ZM11.9048 1.08008L11.4805 1.50434C12.0886 2.11245 12.3848 2.82651 12.3849 3.67971L12.9849 3.67969L13.5849 3.67966C13.5848 2.50634 13.1609 1.48762 12.329 0.655814L11.9048 1.08008ZM12.9849 3.67969H12.3849V4.33984H12.9849H13.5849V3.67969H12.9849ZM12.9849 4.33984V3.73984H10.4653V4.33984V4.93984H12.9849V4.33984ZM10.4653 4.33984H11.0653V3.67969H10.4653H9.86533V4.33984H10.4653ZM10.4653 3.67969L11.0653 3.67961C11.0653 3.20074 10.889 2.77436 10.5498 2.43511L10.1255 2.85938L9.70122 3.28364C9.81524 3.39765 9.86531 3.51878 9.86533 3.67976L10.4653 3.67969ZM10.1255 2.85938L10.5497 2.43507C10.2056 2.09102 9.77061 1.91968 9.28583 1.91953L9.28564 2.51953L9.28546 3.11953C9.46686 3.11959 9.59229 3.17472 9.70127 3.28368L10.1255 2.85938ZM9.28564 2.51953V1.91953C8.80658 1.91953 8.38022 2.09618 8.0412 2.43498L8.46533 2.85938L8.88946 3.28377C9.00366 3.16965 9.125 3.11953 9.28564 3.11953V2.51953ZM8.46533 2.85938L8.04107 2.43511C7.70182 2.77436 7.52555 3.20074 7.52549 3.67961L8.12549 3.67969L8.72549 3.67976C8.72551 3.51878 8.77558 3.39765 8.8896 3.28364L8.46533 2.85938ZM8.12549 3.67969H7.52549V11.2803H8.12549H8.72549V3.67969H8.12549ZM8.12549 11.2803L7.52549 11.2805C7.52564 11.7596 7.70226 12.185 8.04105 12.5239L8.46533 12.0996L8.88962 11.6754C8.77534 11.5611 8.72554 11.4405 8.72549 11.2801L8.12549 11.2803ZM8.46533 12.0996L8.04107 12.5239C8.38031 12.8631 8.80659 13.0395 9.28564 13.0395V12.4395V11.8395C9.1247 11.8395 9.00369 11.7894 8.8896 11.6753L8.46533 12.0996ZM9.28564 12.4395L9.28583 13.0395C9.77061 13.0393 10.2056 12.8681 10.5498 12.5239L10.1255 12.0996L9.70122 11.6753C9.59228 11.7843 9.46695 11.8394 9.28546 11.8395L9.28564 12.4395ZM10.1255 12.0996L10.5499 12.5238C10.8883 12.1851 11.0652 11.7596 11.0653 11.2805L10.4653 11.2803L9.86533 11.2801C9.86528 11.4403 9.81541 11.5611 9.70111 11.6755L10.1255 12.0996ZM10.4653 11.2803H11.0653V10.6201H10.4653H9.86533V11.2803H10.4653ZM10.4653 10.6201V11.2201H12.9849V10.6201V10.0201H10.4653V10.6201ZM12.9849 10.6201H12.3849V11.2803H12.9849H13.5849V10.6201H12.9849ZM12.9849 11.2803L12.3849 11.2802C12.3848 12.1334 12.0886 12.8476 11.4805 13.4556L11.9048 13.8799L12.329 14.3041C13.1608 13.4724 13.5847 12.4535 13.5849 11.2803L12.9849 11.2803ZM11.9048 13.8799L11.4806 13.4556C10.8741 14.0619 10.1542 14.3599 9.28558 14.36L9.28564 14.96L9.28571 15.56C10.4698 15.5598 11.4957 15.1373 12.329 14.3042L11.9048 13.8799ZM9.28564 14.96V14.36C8.43224 14.36 7.71736 14.0637 7.10932 13.4556L6.68506 13.8799L6.26079 14.3041C7.09275 15.1361 8.11239 15.56 9.28564 15.56V14.96ZM6.68506 13.8799L7.10933 13.4556C6.50132 12.8476 6.20506 12.1333 6.20498 11.2802L5.60498 11.2803L5.00498 11.2803C5.0051 12.4535 5.42906 13.4724 6.26079 14.3041L6.68506 13.8799ZM5.60498 11.2803H6.20498V3.67969H5.60498H5.00498V11.2803H5.60498ZM5.60498 3.67969L6.20498 3.67971C6.20501 2.82662 6.50131 2.11242 7.10935 1.50432L6.68506 1.08008L6.26077 0.655839C5.42912 1.48758 5.00503 2.5064 5.00498 3.67966L5.60498 3.67969ZM6.68506 1.08008L7.10932 1.50434C7.71736 0.896301 8.43223 0.6 9.28564 0.6V0V-0.6C8.11239 -0.6 7.09275 -0.176146 6.26079 0.655814L6.68506 1.08008ZM139.825 0L139.825 0.6C140.693 0.600089 141.413 0.89797 142.02 1.50435L142.444 1.08008L142.868 0.655801C142.035 -0.177482 141.009 -0.599878 139.825 -0.6L139.825 0ZM142.444 1.08008L142.02 1.50434C142.628 2.11245 142.924 2.82651 142.924 3.67971L143.524 3.67969L144.124 3.67966C144.124 2.50634 143.7 1.48762 142.868 0.655814L142.444 1.08008ZM143.524 3.67969H142.924V11.2803H143.524H144.124V3.67969H143.524ZM143.524 11.2803L142.924 11.2802C142.924 12.1334 142.628 12.8476 142.02 13.4556L142.444 13.8799L142.868 14.3041C143.7 13.4724 144.124 12.4535 144.124 11.2803L143.524 11.2803ZM142.444 13.8799L142.02 13.4556C141.413 14.0619 140.693 14.3599 139.825 14.36L139.825 14.96L139.825 15.56C141.009 15.5598 142.035 15.1373 142.868 14.3042L142.444 13.8799ZM139.825 14.96V14.36C138.971 14.36 138.256 14.0637 137.648 13.4556L137.224 13.8799L136.8 14.3041C137.632 15.1361 138.651 15.56 139.825 15.56V14.96ZM137.224 13.8799L137.648 13.4556C137.04 12.8476 136.744 12.1333 136.744 11.2802L136.144 11.2803L135.544 11.2803C135.544 12.4535 135.968 13.4724 136.8 14.3041L137.224 13.8799ZM136.144 11.2803H136.744V3.67969H136.144H135.544V11.2803H136.144ZM136.144 3.67969L136.744 3.67971C136.744 2.82662 137.04 2.11242 137.648 1.50432L137.224 1.08008L136.8 0.655839C135.968 1.48758 135.544 2.5064 135.544 3.67966L136.144 3.67969ZM137.224 1.08008L137.648 1.50434C138.256 0.896301 138.971 0.6 139.825 0.6V0V-0.6C138.651 -0.6 137.632 -0.176146 136.8 0.655814L137.224 1.08008ZM169.913 11.2998H169.313C169.313 11.7734 169.495 12.1903 169.828 12.5239L170.252 12.0996L170.677 11.6754C170.557 11.5556 170.513 11.4396 170.513 11.2998H169.913ZM170.252 12.0996L169.828 12.5239C170.167 12.8627 170.592 13.0393 171.072 13.0395L171.072 12.4395L171.072 11.8395C170.911 11.8394 170.791 11.7896 170.677 11.6753L170.252 12.0996ZM171.072 12.4395V13.0395C171.545 13.0395 171.977 12.8839 172.324 12.557L171.913 12.1201L171.501 11.6832C171.395 11.783 171.266 11.8395 171.072 11.8395V12.4395ZM171.913 12.1201L172.337 12.5444C172.676 12.2052 172.852 11.7789 172.852 11.2998H172.252H171.652C171.652 11.4607 171.602 11.5818 171.488 11.6959L171.913 12.1201ZM172.252 11.2998H172.852V0.200195H172.252H171.652V11.2998H172.252ZM172.252 0.200195V0.800195H174.772V0.200195V-0.399805H172.252V0.200195ZM174.772 0.200195H174.172V11.2998H174.772H175.372V0.200195H174.772ZM174.772 11.2998H174.172C174.172 12.153 173.876 12.867 173.268 13.4752L173.692 13.8994L174.116 14.3237C174.948 13.4919 175.372 12.4732 175.372 11.2998H174.772ZM173.692 13.8994L173.272 13.4712C172.666 14.0658 171.944 14.36 171.072 14.36V14.96V15.56C172.253 15.56 173.278 15.1464 174.112 14.3276L173.692 13.8994ZM171.072 14.96L171.072 14.36C170.215 14.3599 169.5 14.0673 168.892 13.4712L168.472 13.8994L168.052 14.3276C168.884 15.1447 169.902 15.5598 171.072 15.56L171.072 14.96ZM168.472 13.8994L168.896 13.4752C168.288 12.867 167.992 12.1529 167.992 11.2998H167.392H166.792C166.792 12.4732 167.216 13.4919 168.048 14.3236L168.472 13.8994ZM167.392 11.2998H167.992V0.200195H167.392H166.792V11.2998H167.392ZM167.392 0.200195V0.800195H169.913V0.200195V-0.399805H167.392V0.200195ZM169.913 0.200195H169.313V11.2998H169.913H170.513V0.200195H169.913ZM185.543 11.2803L184.943 11.2805C184.944 11.7596 185.12 12.185 185.459 12.5239L185.883 12.0996L186.308 11.6754C186.193 11.5611 186.144 11.4405 186.143 11.2801L185.543 11.2803ZM185.883 12.0996L185.459 12.5239C185.798 12.8631 186.225 13.0395 186.704 13.0395V12.4395V11.8395C186.543 11.8395 186.422 11.7894 186.308 11.6753L185.883 12.0996ZM186.704 12.4395L186.704 13.0395C187.189 13.0393 187.624 12.8681 187.968 12.5239L187.543 12.0996L187.119 11.6753C187.01 11.7843 186.885 11.8394 186.703 11.8395L186.704 12.4395ZM187.543 12.0996L187.968 12.5238C188.306 12.1851 188.483 11.7596 188.483 11.2805L187.883 11.2803L187.283 11.2801C187.283 11.4403 187.233 11.5611 187.119 11.6755L187.543 12.0996ZM187.883 11.2803H188.483V10.6201H187.883H187.283V11.2803H187.883ZM187.883 10.6201V11.2201H190.403V10.6201V10.0201H187.883V10.6201ZM190.403 10.6201H189.803V11.2803H190.403H191.003V10.6201H190.403ZM190.403 11.2803L189.803 11.2802C189.803 12.1334 189.507 12.8476 188.898 13.4556L189.323 13.8799L189.747 14.3041C190.579 13.4724 191.003 12.4535 191.003 11.2803L190.403 11.2803ZM189.323 13.8799L188.899 13.4556C188.292 14.0619 187.572 14.3599 186.704 14.36L186.704 14.96L186.704 15.56C187.888 15.5598 188.914 15.1373 189.747 14.3042L189.323 13.8799ZM186.704 14.96V14.36C185.85 14.36 185.135 14.0637 184.527 13.4556L184.103 13.8799L183.679 14.3041C184.511 15.1361 185.53 15.56 186.704 15.56V14.96ZM184.103 13.8799L184.527 13.4556C183.919 12.8476 183.623 12.1333 183.623 11.2802L183.023 11.2803L182.423 11.2803C182.423 12.4535 182.847 13.4724 183.679 14.3041L184.103 13.8799ZM183.023 11.2803H183.623V9.75977H183.023H182.423V11.2803H183.023ZM183.023 9.75977V10.3598H185.543V9.75977V9.15977H183.023V9.75977ZM185.543 9.75977H184.943V11.2803H185.543H186.143V9.75977H185.543ZM241.299 0L241.299 0.6C242.168 0.600043 242.889 0.897966 243.495 1.50434L243.919 1.08008L244.344 0.655814C243.51 -0.177709 242.484 -0.599941 241.299 -0.6L241.299 0ZM243.919 1.08008L243.495 1.5043C244.103 2.11241 244.399 2.82668 244.4 3.67971L245 3.67969L245.6 3.67966C245.599 2.50643 245.175 1.48756 244.344 0.655853L243.919 1.08008ZM245 3.67969H244.4V4.33984H245H245.6V3.67969H245ZM245 4.33984V3.73984H242.479V4.33984V4.93984H245V4.33984ZM242.479 4.33984H243.079V3.67969H242.479H241.879V4.33984H242.479ZM242.479 3.67969L243.079 3.67961C243.079 3.20074 242.903 2.77436 242.563 2.43511L242.139 2.85938L241.715 3.28364C241.829 3.39765 241.879 3.51878 241.879 3.67976L242.479 3.67969ZM242.139 2.85938L242.563 2.43502C242.219 2.09114 241.784 1.9196 241.299 1.91953L241.299 2.51953L241.299 3.11953C241.48 3.11956 241.606 3.17466 241.715 3.28373L242.139 2.85938ZM241.299 2.51953V1.91953C240.82 1.91953 240.394 2.09606 240.055 2.43503L240.479 2.85938L240.903 3.28372C241.017 3.16961 241.139 3.11953 241.299 3.11953V2.51953ZM240.479 2.85938L240.055 2.43511C239.715 2.77436 239.539 3.20074 239.539 3.67961L240.139 3.67969L240.739 3.67976C240.739 3.51878 240.789 3.39765 240.903 3.28364L240.479 2.85938ZM240.139 3.67969H239.539V3.91992H240.139H240.739V3.67969H240.139ZM240.139 3.91992L239.539 3.91994C239.539 4.68818 239.831 5.34504 240.411 5.83739L240.799 5.37988L241.188 4.92238C240.888 4.66809 240.739 4.3516 240.739 3.9199L240.139 3.91992ZM240.799 5.37988L240.409 5.83542L243.069 8.1157L243.459 7.66016L243.85 7.20461L241.19 4.92434L240.799 5.37988ZM243.459 7.66016L243.062 8.10985C243.962 8.90487 244.4 9.869 244.4 11.04H245H245.6C245.6 9.51806 245.009 8.22867 243.857 7.21046L243.459 7.66016ZM245 11.04H244.4V11.2803H245H245.6V11.04H245ZM245 11.2803L244.4 11.2802C244.399 12.1333 244.103 12.8476 243.495 13.4556L243.919 13.8799L244.344 14.3041C245.175 13.4724 245.599 12.4534 245.6 11.2803L245 11.2803ZM243.919 13.8799L243.495 13.4556C242.889 14.062 242.168 14.3599 241.299 14.36L241.299 14.96L241.299 15.56C242.484 15.5599 243.51 15.1377 244.344 14.3041L243.919 13.8799ZM241.299 14.96V14.36C240.446 14.36 239.731 14.0637 239.123 13.4556L238.699 13.8799L238.274 14.3041C239.106 15.1361 240.126 15.56 241.299 15.56V14.96ZM238.699 13.8799L239.123 13.4556C238.515 12.8476 238.219 12.1333 238.219 11.2802L237.619 11.2803L237.019 11.2803C237.019 12.4534 237.443 13.4724 238.274 14.3041L238.699 13.8799ZM237.619 11.2803H238.219V10.6201H237.619H237.019V11.2803H237.619ZM237.619 10.6201V11.2201H240.139V10.6201V10.0201H237.619V10.6201ZM240.139 10.6201H239.539V11.2803H240.139H240.739V10.6201H240.139ZM240.139 11.2803L239.539 11.2805C239.539 11.7596 239.716 12.1851 240.055 12.5238L240.479 12.0996L240.903 11.6754C240.789 11.5611 240.739 11.4404 240.739 11.2801L240.139 11.2803ZM240.479 12.0996L240.055 12.5239C240.394 12.8631 240.82 13.0395 241.299 13.0395V12.4395V11.8395C241.138 11.8395 241.017 11.7894 240.903 11.6753L240.479 12.0996ZM241.299 12.4395L241.299 13.0395C241.784 13.0394 242.219 12.8681 242.563 12.5239L242.139 12.0996L241.715 11.6753C241.606 11.7844 241.481 11.8394 241.299 11.8395L241.299 12.4395ZM242.139 12.0996L242.563 12.5238C242.902 12.1851 243.079 11.7596 243.079 11.2805L242.479 11.2803L241.879 11.2801C241.879 11.4404 241.829 11.5611 241.715 11.6754L242.139 12.0996ZM242.479 11.2803H243.079V11.04H242.479H241.879V11.2803H242.479ZM242.479 11.04H243.079C243.079 10.2717 242.787 9.61492 242.207 9.12257L241.819 9.58008L241.431 10.0376C241.73 10.2919 241.879 10.6083 241.879 11.04H242.479ZM241.819 9.58008L242.209 9.12454L239.549 6.84426L239.159 7.2998L238.768 7.75535L241.428 10.0356L241.819 9.58008ZM239.159 7.2998L239.556 6.8501C238.656 6.0551 238.219 5.09099 238.219 3.91991L237.619 3.91992L237.019 3.91993C237.019 5.4419 237.609 6.73128 238.762 7.74951L239.159 7.2998ZM237.619 3.91992H238.219V3.67969H237.619H237.019V3.91992H237.619ZM237.619 3.67969L238.219 3.67971C238.219 2.82669 238.515 2.1124 239.123 1.5043L238.699 1.08008L238.274 0.655855C237.443 1.48756 237.019 2.50643 237.019 3.67966L237.619 3.67969ZM238.699 1.08008L239.123 1.50434C239.731 0.896301 240.446 0.6 241.299 0.6V0V-0.6C240.126 -0.6 239.106 -0.176145 238.274 0.655814L238.699 1.08008ZM285.092 11.2998H284.492C284.492 11.7734 284.674 12.1903 285.008 12.5239L285.432 12.0996L285.856 11.6754C285.737 11.5556 285.692 11.4396 285.692 11.2998H285.092ZM285.432 12.0996L285.008 12.5239C285.347 12.8627 285.772 13.0393 286.251 13.0395L286.251 12.4395L286.252 11.8395C286.091 11.8394 285.971 11.7896 285.856 11.6753L285.432 12.0996ZM286.251 12.4395V13.0395C286.724 13.0395 287.156 12.8839 287.504 12.557L287.092 12.1201L286.681 11.6832C286.575 11.783 286.445 11.8395 286.251 11.8395V12.4395ZM287.092 12.1201L287.517 12.5444C287.856 12.2052 288.032 11.7789 288.032 11.2998H287.432H286.832C286.832 11.4607 286.782 11.5818 286.668 11.6959L287.092 12.1201ZM287.432 11.2998H288.032V0.200195H287.432H286.832V11.2998H287.432ZM287.432 0.200195V0.800195H289.952V0.200195V-0.399805H287.432V0.200195ZM289.952 0.200195H289.352V11.2998H289.952H290.552V0.200195H289.952ZM289.952 11.2998H289.352C289.352 12.153 289.055 12.867 288.447 13.4752L288.872 13.8994L289.296 14.3237C290.128 13.4919 290.552 12.4732 290.552 11.2998H289.952ZM288.872 13.8994L288.451 13.4712C287.846 14.0658 287.124 14.36 286.251 14.36V14.96V15.56C287.432 15.56 288.458 15.1464 289.292 14.3276L288.872 13.8994ZM286.251 14.96L286.252 14.36C285.395 14.3599 284.679 14.0673 284.072 13.4712L283.652 13.8994L283.232 14.3276C284.064 15.1447 285.082 15.5598 286.251 15.56L286.251 14.96ZM283.652 13.8994L284.076 13.4752C283.468 12.867 283.172 12.1529 283.172 11.2998H282.572H281.972C281.972 12.4732 282.396 13.4919 283.228 14.3236L283.652 13.8994ZM282.572 11.2998H283.172V0.200195H282.572H281.972V11.2998H282.572ZM282.572 0.200195V0.800195H285.092V0.200195V-0.399805H282.572V0.200195ZM285.092 0.200195H284.492V11.2998H285.092H285.692V0.200195H285.092ZM344.661 0L344.661 0.6C345.529 0.600089 346.249 0.89797 346.856 1.50435L347.28 1.08008L347.704 0.655801C346.871 -0.177482 345.845 -0.599878 344.661 -0.6L344.661 0ZM347.28 1.08008L346.856 1.50434C347.464 2.11245 347.76 2.82651 347.76 3.67971L348.36 3.67969L348.96 3.67966C348.96 2.50634 348.536 1.48762 347.704 0.655814L347.28 1.08008ZM348.36 3.67969H347.76V11.2803H348.36H348.96V3.67969H348.36ZM348.36 11.2803L347.76 11.2802C347.76 12.1334 347.464 12.8476 346.856 13.4556L347.28 13.8799L347.704 14.3041C348.536 13.4724 348.96 12.4535 348.96 11.2803L348.36 11.2803ZM347.28 13.8799L346.856 13.4556C346.249 14.0619 345.529 14.3599 344.661 14.36L344.661 14.96L344.661 15.56C345.845 15.5598 346.871 15.1373 347.704 14.3042L347.28 13.8799ZM344.661 14.96V14.36C343.807 14.36 343.092 14.0637 342.484 13.4556L342.06 13.8799L341.636 14.3041C342.468 15.1361 343.487 15.56 344.661 15.56V14.96ZM342.06 13.8799L342.484 13.4556C341.876 12.8476 341.58 12.1333 341.58 11.2802L340.98 11.2803L340.38 11.2803C340.38 12.4535 340.804 13.4724 341.636 14.3041L342.06 13.8799ZM340.98 11.2803H341.58V3.67969H340.98H340.38V11.2803H340.98ZM340.98 3.67969L341.58 3.67971C341.58 2.82662 341.876 2.11242 342.484 1.50432L342.06 1.08008L341.636 0.655839C340.804 1.48758 340.38 2.5064 340.38 3.67966L340.98 3.67969ZM342.06 1.08008L342.484 1.50434C343.092 0.896301 343.807 0.6 344.661 0.6V0V-0.6C343.487 -0.6 342.468 -0.176146 341.636 0.655814L342.06 1.08008ZM23.5454 14.7598V14.1598H21.0249V14.7598V15.3598H23.5454V14.7598ZM21.0249 14.7598H21.6249V8.04785H21.0249H20.4249V14.7598H21.0249ZM21.0249 8.04785V8.64785H23.5454V8.04785V7.44785H21.0249V8.04785ZM23.5454 8.04785H22.9454V14.7598H23.5454H24.1454V8.04785H23.5454ZM37.6323 8.16016H38.2323V0.200195H37.6323H37.0323V8.16016H37.6323ZM37.6323 0.200195V0.800195H40.1519V0.200195V-0.399805H37.6323V0.200195ZM40.1519 0.200195H39.5519V14.7598H40.1519H40.7519V0.200195H40.1519ZM40.1519 14.7598V14.1598H37.6323V14.7598V15.3598H40.1519V14.7598ZM37.6323 14.7598L38.1885 14.5348L34.9688 6.57482L34.4126 6.7998L33.8564 7.02479L37.0761 14.9848L37.6323 14.7598ZM34.4126 6.7998H33.8126V14.7598H34.4126H35.0126V6.7998H34.4126ZM34.4126 14.7598V14.1598H31.8921V14.7598V15.3598H34.4126V14.7598ZM31.8921 14.7598H32.4921V0.200195H31.8921H31.2921V14.7598H31.8921ZM31.8921 0.200195V0.800195H34.4126V0.200195V-0.399805H31.8921V0.200195ZM34.4126 0.200195L33.8564 0.425181L37.0761 8.38514L37.6323 8.16016L38.1885 7.93517L34.9688 -0.0247905L34.4126 0.200195ZM55.1021 2.71973V2.11973H51.0024V2.71973V3.31973H55.1021V2.71973ZM51.0024 2.71973H50.4024V5.95996H51.0024H51.6024V2.71973H51.0024ZM51.0024 5.95996V6.55996H54.6216V5.95996V5.35996H51.0024V5.95996ZM54.6216 5.95996H54.0216V8.47949H54.6216H55.2216V5.95996H54.6216ZM54.6216 8.47949V7.87949H51.0024V8.47949V9.07949H54.6216V8.47949ZM51.0024 8.47949H50.4024V12.2402H51.0024H51.6024V8.47949H51.0024ZM51.0024 12.2402V12.8402H55.1021V12.2402V11.6402H51.0024V12.2402ZM55.1021 12.2402H54.5021V14.7598H55.1021H55.702V12.2402H55.1021ZM55.1021 14.7598V14.1598H48.4819V14.7598V15.3598H55.1021V14.7598ZM48.4819 14.7598H49.0819V0.200195H48.4819H47.8819V14.7598H48.4819ZM48.4819 0.200195V0.800195H55.1021V0.200195V-0.399805H48.4819V0.200195ZM55.1021 0.200195H54.5021V2.71973H55.1021H55.702V0.200195H55.1021ZM68.104 8.13965L68.6734 8.32894L71.313 0.389491L70.7437 0.200195L70.1743 0.0108999L67.5346 7.95035L68.104 8.13965ZM70.7437 0.200195V0.800195H73.2837V0.200195V-0.399805H70.7437V0.200195ZM73.2837 0.200195H72.6837V14.7598H73.2837H73.8837V0.200195H73.2837ZM73.2837 14.7598V14.1598H70.7642V14.7598V15.3598H73.2837V14.7598ZM70.7642 14.7598H71.3642V6.82031H70.7642H70.1642V14.7598H70.7642ZM70.7642 6.82031L70.191 6.64274L68.4313 12.3224L69.0044 12.5L69.5775 12.6776L71.3373 6.99789L70.7642 6.82031ZM69.0044 12.5V11.9H67.1841V12.5V13.1H69.0044V12.5ZM67.1841 12.5L67.7572 12.3224L65.9974 6.64274L65.4243 6.82031L64.8512 6.99789L66.611 12.6776L67.1841 12.5ZM65.4243 6.82031H64.8243V14.7598H65.4243H66.0243V6.82031H65.4243ZM65.4243 14.7598V14.1598H62.9038V14.7598V15.3598H65.4243V14.7598ZM62.9038 14.7598H63.5038V0.200195H62.9038H62.3038V14.7598H62.9038ZM62.9038 0.200195V0.800195H65.4438V0.200195V-0.399805H62.9038V0.200195ZM65.4438 0.200195L64.8749 0.390813L67.5351 8.33027L68.104 8.13965L68.6729 7.94903L66.0128 0.00957716L65.4438 0.200195ZM89.3032 14.7598V14.1598H86.7231V14.7598V15.3598H89.3032V14.7598ZM86.7231 14.7598L87.3129 14.6492L86.7728 11.7693L86.1831 11.8799L85.5934 11.9905L86.1334 14.8704L86.7231 14.7598ZM86.1831 11.8799V11.2799H83.7427V11.8799V12.4799H86.1831V11.8799ZM83.7427 11.8799L83.1529 11.7695L82.6139 14.6494L83.2036 14.7598L83.7934 14.8702L84.3324 11.9903L83.7427 11.8799ZM83.2036 14.7598V14.1598H80.6235V14.7598V15.3598H83.2036V14.7598ZM80.6235 14.7598L81.2105 14.8839L84.2906 0.324377L83.7036 0.200195L83.1166 0.0760136L80.0365 14.6356L80.6235 14.7598ZM83.7036 0.200195V0.800195H86.2231V0.200195V-0.399805H83.7036V0.200195ZM86.2231 0.200195L85.6361 0.324377L88.7162 14.8839L89.3032 14.7598L89.8902 14.6356L86.8102 0.0760136L86.2231 0.200195ZM109.938 0.200195L109.938 0.800195C110.807 0.800223 111.527 1.09814 112.134 1.70454L112.558 1.28027L112.982 0.856009C112.149 0.0224742 111.122 -0.399767 109.938 -0.399805L109.938 0.200195ZM112.558 1.28027L112.134 1.70449C112.742 2.31264 113.038 3.02686 113.038 3.87988H113.638H114.238C114.238 2.70656 113.814 1.68777 112.982 0.856056L112.558 1.28027ZM113.638 3.87988H113.038V4.7998H113.638H114.238V3.87988H113.638ZM113.638 4.7998H113.038C113.038 5.65282 112.742 6.36704 112.134 6.9752L112.558 7.39941L112.982 7.82363C113.814 6.99192 114.238 5.97313 114.238 4.7998H113.638ZM112.558 7.39941L112.134 6.97515C111.527 7.58155 110.807 7.87946 109.938 7.87949L109.938 8.47949L109.938 9.07949C111.122 9.07945 112.149 8.65721 112.982 7.82368L112.558 7.39941ZM109.938 8.47949V7.87949H109.178V8.47949V9.07949H109.938V8.47949ZM109.178 8.47949H108.578V14.7598H109.178H109.778V8.47949H109.178ZM109.178 14.7598V14.1598H106.658V14.7598V15.3598H109.178V14.7598ZM106.658 14.7598H107.258V0.200195H106.658H106.058V14.7598H106.658ZM106.658 0.200195V0.800195H109.938V0.200195V-0.399805H106.658V0.200195ZM124.438 0.200195L124.438 0.800195C125.307 0.800223 126.027 1.09814 126.634 1.70454L127.058 1.28027L127.482 0.856009C126.649 0.0224742 125.622 -0.399767 124.438 -0.399805L124.438 0.200195ZM127.058 1.28027L126.634 1.70449C127.242 2.31264 127.538 3.02686 127.538 3.87988H128.138H128.738C128.738 2.70656 128.314 1.68777 127.482 0.856056L127.058 1.28027ZM128.138 3.87988H127.538V4.7998H128.138H128.738V3.87988H128.138ZM128.138 4.7998H127.538C127.538 5.33933 127.41 5.83154 127.155 6.28653L127.678 6.58008L128.202 6.87363C128.56 6.23529 128.738 5.54028 128.738 4.7998H128.138ZM127.678 6.58008L127.152 6.29092C126.908 6.73481 126.571 7.09437 126.134 7.37476L126.458 7.87988L126.781 8.38501C127.384 7.99874 127.861 7.492 128.204 6.86923L127.678 6.58008ZM126.458 7.87988L125.894 8.0848L128.394 14.9647L128.958 14.7598L129.521 14.5548L127.021 7.67497L126.458 7.87988ZM128.958 14.7598V14.1598H126.278V14.7598V15.3598H128.958V14.7598ZM126.278 14.7598L126.843 14.5582L124.603 8.27791L124.038 8.47949L123.472 8.68108L125.713 14.9614L126.278 14.7598ZM124.038 8.47949V7.87949H123.678V8.47949V9.07949H124.038V8.47949ZM123.678 8.47949H123.078V14.7598H123.678H124.278V8.47949H123.678ZM123.678 14.7598V14.1598H121.158V14.7598V15.3598H123.678V14.7598ZM121.158 14.7598H121.758V0.200195H121.158H120.558V14.7598H121.158ZM121.158 0.200195V0.800195H124.438V0.200195V-0.399805H121.158V0.200195ZM155.439 0.200195V0.800195C156.292 0.800195 157.007 1.0965 157.615 1.70454L158.04 1.28027L158.464 0.856009C157.632 0.0240498 156.612 -0.399805 155.439 -0.399805V0.200195ZM158.04 1.28027L157.619 1.70837C158.239 2.31728 158.539 3.03022 158.539 3.87988H159.139H159.739C159.739 2.70314 159.306 1.68316 158.46 0.852173L158.04 1.28027ZM159.139 3.87988H158.539V11.0801H159.139H159.739V3.87988H159.139ZM159.139 11.0801L158.539 11.08C158.539 11.9297 158.239 12.6427 157.619 13.2516L158.04 13.6797L158.46 14.1078C159.306 13.2768 159.739 12.2567 159.739 11.0801L159.139 11.0801ZM158.04 13.6797L157.615 13.2554C157.007 13.8635 156.292 14.1598 155.439 14.1598V14.7598V15.3598C156.612 15.3598 157.632 14.9359 158.464 14.104L158.04 13.6797ZM155.439 14.7598V14.1598H151.759V14.7598V15.3598H155.439V14.7598ZM151.759 14.7598H152.359V0.200195H151.759H151.159V14.7598H151.759ZM151.759 0.200195V0.800195H155.439V0.200195V-0.399805H151.759V0.200195ZM205.063 2.71973V2.11973H200.963V2.71973V3.31973H205.063V2.71973ZM200.963 2.71973H200.363V5.95996H200.963H201.563V2.71973H200.963ZM200.963 5.95996V6.55996H204.583V5.95996V5.35996H200.963V5.95996ZM204.583 5.95996H203.983V8.47949H204.583H205.183V5.95996H204.583ZM204.583 8.47949V7.87949H200.963V8.47949V9.07949H204.583V8.47949ZM200.963 8.47949H200.363V12.2402H200.963H201.563V8.47949H200.963ZM200.963 12.2402V12.8402H205.063V12.2402V11.6402H200.963V12.2402ZM205.063 12.2402H204.463V14.7598H205.063H205.663V12.2402H205.063ZM205.063 14.7598V14.1598H198.443V14.7598V15.3598H205.063V14.7598ZM198.443 14.7598H199.043V0.200195H198.443H197.843V14.7598H198.443ZM198.443 0.200195V0.800195H205.063V0.200195V-0.399805H198.443V0.200195ZM205.063 0.200195H204.463V2.71973H205.063H205.663V0.200195H205.063ZM216.145 0.200195L216.145 0.800195C217.014 0.800223 217.734 1.09814 218.341 1.70454L218.765 1.28027L219.189 0.856009C218.356 0.0224742 217.329 -0.399767 216.145 -0.399805L216.145 0.200195ZM218.765 1.28027L218.341 1.70449C218.949 2.31264 219.245 3.02686 219.245 3.87988H219.845H220.445C220.445 2.70656 220.021 1.68777 219.189 0.856056L218.765 1.28027ZM219.845 3.87988H219.245V4.7998H219.845H220.445V3.87988H219.845ZM219.845 4.7998H219.245C219.245 5.33933 219.117 5.83154 218.862 6.28653L219.385 6.58008L219.909 6.87363C220.267 6.23529 220.445 5.54028 220.445 4.7998H219.845ZM219.385 6.58008L218.86 6.29092C218.615 6.73481 218.278 7.09437 217.841 7.37476L218.165 7.87988L218.488 8.38501C219.091 7.99874 219.568 7.492 219.911 6.86923L219.385 6.58008ZM218.165 7.87988L217.601 8.0848L220.101 14.9647L220.665 14.7598L221.228 14.5548L218.728 7.67497L218.165 7.87988ZM220.665 14.7598V14.1598H217.985V14.7598V15.3598H220.665V14.7598ZM217.985 14.7598L218.55 14.5582L216.31 8.27791L215.745 8.47949L215.18 8.68108L217.42 14.9614L217.985 14.7598ZM215.745 8.47949V7.87949H215.385V8.47949V9.07949H215.745V8.47949ZM215.385 8.47949H214.785V14.7598H215.385H215.985V8.47949H215.385ZM215.385 14.7598V14.1598H212.865V14.7598V15.3598H215.385V14.7598ZM212.865 14.7598H213.465V0.200195H212.865H212.265V14.7598H212.865ZM212.865 0.200195V0.800195H216.145V0.200195V-0.399805H212.865V0.200195ZM255.526 14.7598V14.1598H253.005V14.7598V15.3598H255.526V14.7598ZM253.005 14.7598H253.605V8.04785H253.005H252.405V14.7598H253.005ZM253.005 8.04785V8.64785H255.526V8.04785V7.44785H253.005V8.04785ZM255.526 8.04785H254.926V14.7598H255.526H256.126V8.04785H255.526ZM269.073 8.13965L269.642 8.32894L272.282 0.389491L271.712 0.200195L271.143 0.0108999L268.503 7.95035L269.073 8.13965ZM271.712 0.200195V0.800195H274.252V0.200195V-0.399805H271.712V0.200195ZM274.252 0.200195H273.652V14.7598H274.252H274.852V0.200195H274.252ZM274.252 14.7598V14.1598H271.733V14.7598V15.3598H274.252V14.7598ZM271.733 14.7598H272.333V6.82031H271.733H271.133V14.7598H271.733ZM271.733 6.82031L271.16 6.64274L269.4 12.3224L269.973 12.5L270.546 12.6776L272.306 6.99789L271.733 6.82031ZM269.973 12.5V11.9H268.153V12.5V13.1H269.973V12.5ZM268.153 12.5L268.726 12.3224L266.966 6.64274L266.393 6.82031L265.82 6.99789L267.58 12.6776L268.153 12.5ZM266.393 6.82031H265.793V14.7598H266.393H266.993V6.82031H266.393ZM266.393 14.7598V14.1598H263.873V14.7598V15.3598H266.393V14.7598ZM263.873 14.7598H264.473V0.200195H263.873H263.273V14.7598H263.873ZM263.873 0.200195V0.800195H266.413V0.200195V-0.399805H263.873V0.200195ZM266.413 0.200195L265.844 0.390813L268.504 8.33027L269.073 8.13965L269.642 7.94903L266.982 0.00957716L266.413 0.200195ZM300.803 12.2402V12.8402H304.223V12.2402V11.6402H300.803V12.2402ZM304.223 12.2402H303.623V14.7598H304.223H304.823V12.2402H304.223ZM304.223 14.7598V14.1598H298.283V14.7598V15.3598H304.223V14.7598ZM298.283 14.7598H298.883V0.200195H298.283H297.683V14.7598H298.283ZM298.283 0.200195V0.800195H300.803V0.200195V-0.399805H298.283V0.200195ZM300.803 0.200195H300.203V12.2402H300.803H301.403V0.200195H300.803ZM319.448 14.7598V14.1598H316.868V14.7598V15.3598H319.448V14.7598ZM316.868 14.7598L317.457 14.6492L316.917 11.7693L316.328 11.8799L315.738 11.9905L316.278 14.8704L316.868 14.7598ZM316.328 11.8799V11.2799H313.887V11.8799V12.4799H316.328V11.8799ZM313.887 11.8799L313.297 11.7695L312.758 14.6494L313.348 14.7598L313.938 14.8702L314.477 11.9903L313.887 11.8799ZM313.348 14.7598V14.1598H310.768V14.7598V15.3598H313.348V14.7598ZM310.768 14.7598L311.355 14.8839L314.435 0.324377L313.848 0.200195L313.261 0.0760136L310.181 14.6356L310.768 14.7598ZM313.848 0.200195V0.800195H316.368V0.200195V-0.399805H313.848V0.200195ZM316.368 0.200195L315.781 0.324377L318.861 14.8839L319.448 14.7598L320.035 14.6356L316.955 0.0760136L316.368 0.200195ZM333.514 2.71973V2.11973H331.014V2.71973V3.31973H333.514V2.71973ZM331.014 2.71973H330.414V14.7598H331.014H331.614V2.71973H331.014ZM331.014 14.7598V14.1598H328.495V14.7598V15.3598H331.014V14.7598ZM328.495 14.7598H329.095V2.71973H328.495H327.895V14.7598H328.495ZM328.495 2.71973V2.11973H325.995V2.71973V3.31973H328.495V2.71973ZM325.995 2.71973H326.595V0.200195H325.995H325.395V2.71973H325.995ZM325.995 0.200195V0.800195H333.514V0.200195V-0.399805H325.995V0.200195ZM333.514 0.200195H332.914V2.71973H333.514H334.114V0.200195H333.514ZM359.875 0.200195L359.875 0.800195C360.744 0.800223 361.465 1.09814 362.071 1.70454L362.496 1.28027L362.92 0.856009C362.086 0.0224742 361.06 -0.399767 359.876 -0.399805L359.875 0.200195ZM362.496 1.28027L362.071 1.70449C362.679 2.31264 362.976 3.02686 362.976 3.87988H363.576H364.176C364.176 2.70656 363.751 1.68777 362.92 0.856056L362.496 1.28027ZM363.576 3.87988H362.976V4.7998H363.576H364.176V3.87988H363.576ZM363.576 4.7998H362.976C362.976 5.33933 362.848 5.83154 362.592 6.28653L363.116 6.58008L363.639 6.87363C363.997 6.23529 364.176 5.54028 364.176 4.7998H363.576ZM363.116 6.58008L362.59 6.29092C362.346 6.73481 362.009 7.09437 361.571 7.37476L361.895 7.87988L362.219 8.38501C362.821 7.99874 363.299 7.492 363.641 6.86923L363.116 6.58008ZM361.895 7.87988L361.331 8.0848L363.831 14.9647L364.395 14.7598L364.959 14.5548L362.459 7.67497L361.895 7.87988ZM364.395 14.7598V14.1598H361.715V14.7598V15.3598H364.395V14.7598ZM361.715 14.7598L362.28 14.5582L360.04 8.27791L359.475 8.47949L358.91 8.68108L361.15 14.9614L361.715 14.7598ZM359.475 8.47949V7.87949H359.116V8.47949V9.07949H359.475V8.47949ZM359.116 8.47949H358.516V14.7598H359.116H359.716V8.47949H359.116ZM359.116 14.7598V14.1598H356.595V14.7598V15.3598H359.116V14.7598ZM356.595 14.7598H357.195V0.200195H356.595H355.995V14.7598H356.595ZM356.595 0.200195V0.800195H359.875V0.200195V-0.399805H356.595V0.200195ZM139.825 2.51953V1.91953C139.346 1.91953 138.919 2.09618 138.58 2.43498L139.004 2.85938L139.429 3.28377C139.543 3.16965 139.664 3.11953 139.825 3.11953V2.51953ZM139.004 2.85938L138.58 2.43511C138.241 2.77436 138.065 3.20074 138.065 3.67961L138.665 3.67969L139.265 3.67976C139.265 3.51878 139.315 3.39765 139.429 3.28364L139.004 2.85938ZM138.665 3.67969H138.065V11.2803H138.665H139.265V3.67969H138.665ZM138.665 11.2803L138.065 11.2805C138.065 11.7596 138.241 12.185 138.58 12.5239L139.004 12.0996L139.429 11.6754C139.314 11.5611 139.265 11.4405 139.265 11.2801L138.665 11.2803ZM139.004 12.0996L138.58 12.5239C138.919 12.8631 139.346 13.0395 139.825 13.0395V12.4395V11.8395C139.664 11.8395 139.543 11.7894 139.429 11.6753L139.004 12.0996ZM139.825 12.4395L139.825 13.0395C140.31 13.0393 140.745 12.8681 141.089 12.5239L140.665 12.0996L140.24 11.6753C140.131 11.7843 140.006 11.8394 139.825 11.8395L139.825 12.4395ZM140.665 12.0996L141.089 12.5238C141.427 12.1851 141.604 11.7596 141.604 11.2805L141.004 11.2803L140.404 11.2801C140.404 11.4403 140.354 11.5611 140.24 11.6755L140.665 12.0996ZM141.004 11.2803H141.604V3.67969H141.004H140.404V11.2803H141.004ZM141.004 3.67969L141.604 3.67961C141.604 3.20074 141.428 2.77436 141.089 2.43511L140.665 2.85938L140.24 3.28364C140.354 3.39765 140.404 3.51878 140.404 3.67976L141.004 3.67969ZM140.665 2.85938L141.089 2.43507C140.745 2.09102 140.31 1.91968 139.825 1.91953L139.825 2.51953L139.825 3.11953C140.006 3.11959 140.131 3.17472 140.24 3.28368L140.665 2.85938ZM344.661 2.51953V1.91953C344.182 1.91953 343.755 2.09618 343.416 2.43498L343.84 2.85938L344.264 3.28377C344.379 3.16965 344.5 3.11953 344.661 3.11953V2.51953ZM343.84 2.85938L343.416 2.43511C343.077 2.77436 342.901 3.20074 342.9 3.67961L343.5 3.67969L344.1 3.67976C344.1 3.51878 344.151 3.39765 344.265 3.28364L343.84 2.85938ZM343.5 3.67969H342.9V11.2803H343.5H344.1V3.67969H343.5ZM343.5 11.2803L342.9 11.2805C342.901 11.7596 343.077 12.185 343.416 12.5239L343.84 12.0996L344.265 11.6754C344.15 11.5611 344.101 11.4405 344.1 11.2801L343.5 11.2803ZM343.84 12.0996L343.416 12.5239C343.755 12.8631 344.182 13.0395 344.661 13.0395V12.4395V11.8395C344.5 11.8395 344.379 11.7894 344.265 11.6753L343.84 12.0996ZM344.661 12.4395L344.661 13.0395C345.146 13.0393 345.581 12.8681 345.925 12.5239L345.5 12.0996L345.076 11.6753C344.967 11.7843 344.842 11.8394 344.66 11.8395L344.661 12.4395ZM345.5 12.0996L345.925 12.5238C346.263 12.1851 346.44 11.7596 346.44 11.2805L345.84 11.2803L345.24 11.2801C345.24 11.4403 345.19 11.5611 345.076 11.6755L345.5 12.0996ZM345.84 11.2803H346.44V3.67969H345.84H345.24V11.2803H345.84ZM345.84 3.67969L346.44 3.67961C346.44 3.20074 346.264 2.77436 345.925 2.43511L345.5 2.85938L345.076 3.28364C345.19 3.39765 345.24 3.51878 345.24 3.67976L345.84 3.67969ZM345.5 2.85938L345.925 2.43507C345.581 2.09102 345.146 1.91968 344.661 1.91953L344.661 2.51953L344.66 3.11953C344.842 3.11959 344.967 3.17472 345.076 3.28368L345.5 2.85938ZM154.28 12.2402V12.8402H155.439V12.2402V11.6402H154.28V12.2402ZM155.439 12.2402V12.8402C155.925 12.8402 156.36 12.6673 156.704 12.3237L156.28 11.8994L155.856 11.4752C155.746 11.5848 155.62 11.6402 155.439 11.6402V12.2402ZM156.28 11.8994L156.704 12.3235C157.042 11.9849 157.22 11.5595 157.22 11.0802L156.62 11.0801L156.02 11.08C156.02 11.24 155.97 11.3608 155.855 11.4753L156.28 11.8994ZM156.62 11.0801H157.22V3.87988H156.62H156.02V11.0801H156.62ZM156.62 3.87988H157.22C157.22 3.40083 157.043 2.97453 156.704 2.63533L156.28 3.05957L155.855 3.48381C155.97 3.59792 156.02 3.71898 156.02 3.87988H156.62ZM156.28 3.05957L156.704 2.63531C156.359 2.29076 155.924 2.11973 155.439 2.11973V2.71973V3.31973C155.621 3.31973 155.747 3.37505 155.856 3.48383L156.28 3.05957ZM155.439 2.71973V2.11973H154.28V2.71973V3.31973H155.439V2.71973ZM154.28 2.71973H153.68V12.2402H154.28H154.88V2.71973H154.28ZM84.2036 9.35938V9.95938H85.7231V9.35938V8.75937H84.2036V9.35938ZM85.7231 9.35938L86.3131 9.25004L85.5533 5.15043L84.9634 5.25977L84.3734 5.3691L85.1332 9.46871L85.7231 9.35938ZM84.9634 5.25977L84.3734 5.15043L83.6137 9.25004L84.2036 9.35938L84.7936 9.46871L85.5533 5.3691L84.9634 5.25977ZM314.348 9.35938V9.95938H315.868V9.35938V8.75937H314.348V9.35938ZM315.868 9.35938L316.458 9.25004L315.698 5.15043L315.108 5.25977L314.518 5.3691L315.278 9.46871L315.868 9.35938ZM315.108 5.25977L314.518 5.15043L313.758 9.25004L314.348 9.35938L314.938 9.46871L315.698 5.3691L315.108 5.25977ZM185.543 8.75977V8.15977H183.023V8.75977V9.35977H185.543V8.75977ZM183.023 8.75977H183.623V7.75977H183.023H182.423V8.75977H183.023ZM183.023 7.75977V8.35977H185.543V7.75977V7.15977H183.023V7.75977ZM185.543 7.75977H184.943V8.75977H185.543H186.143V7.75977H185.543ZM23.5454 7.04785V6.44785H21.0249V7.04785V7.64785H23.5454V7.04785ZM21.0249 7.04785H21.6249V6.04785H21.0249H20.4249V7.04785H21.0249ZM21.0249 6.04785V6.64785H23.5454V6.04785V5.44785H21.0249V6.04785ZM23.5454 6.04785H22.9454V7.04785H23.5454H24.1454V6.04785H23.5454ZM255.526 7.04785V6.44785H253.005V7.04785V7.64785H255.526V7.04785ZM253.005 7.04785H253.605V6.04785H253.005H252.405V7.04785H253.005ZM253.005 6.04785V6.64785H255.526V6.04785V5.44785H253.005V6.04785ZM255.526 6.04785H254.926V7.04785H255.526H256.126V6.04785H255.526ZM185.543 6.75977V6.15977H183.023V6.75977V7.35977H185.543V6.75977ZM183.023 6.75977H183.623V5.75977H183.023H182.423V6.75977H183.023ZM183.023 5.75977V6.35977H185.543V5.75977V5.15977H183.023V5.75977ZM185.543 5.75977H184.943V6.75977H185.543H186.143V5.75977H185.543ZM109.178 5.95996V6.55996H109.938V5.95996V5.35996H109.178V5.95996ZM109.938 5.95996L109.938 6.55996C110.423 6.55992 110.858 6.38842 111.202 6.04445L110.778 5.62012L110.354 5.19579C110.244 5.30489 110.119 5.35994 109.938 5.35996L109.938 5.95996ZM110.778 5.62012L111.202 6.04438C111.541 5.70514 111.718 5.27886 111.718 4.7998H111.118H110.518C110.518 4.96075 110.468 5.08176 110.354 5.19585L110.778 5.62012ZM111.118 4.7998H111.718V3.87988H111.118H110.518V4.7998H111.118ZM111.118 3.87988H111.718C111.718 3.40083 111.541 2.97455 111.202 2.63531L110.778 3.05957L110.354 3.48383C110.468 3.59793 110.518 3.71894 110.518 3.87988H111.118ZM110.778 3.05957L111.202 2.63524C110.858 2.29127 110.423 2.11977 109.938 2.11973L109.938 2.71973L109.938 3.31973C110.119 3.31974 110.244 3.3748 110.354 3.4839L110.778 3.05957ZM109.938 2.71973V2.11973H109.178V2.71973V3.31973H109.938V2.71973ZM109.178 2.71973H108.578V5.95996H109.178H109.778V2.71973H109.178ZM123.678 5.95996V6.55996H124.438V5.95996V5.35996H123.678V5.95996ZM124.438 5.95996L124.438 6.55996C124.923 6.55992 125.358 6.38842 125.702 6.04445L125.278 5.62012L124.854 5.19579C124.744 5.30489 124.619 5.35994 124.438 5.35996L124.438 5.95996ZM125.278 5.62012L125.702 6.04438C126.041 5.70514 126.218 5.27886 126.218 4.7998H125.618H125.018C125.018 4.96075 124.968 5.08176 124.854 5.19585L125.278 5.62012ZM125.618 4.7998H126.218V3.87988H125.618H125.018V4.7998H125.618ZM125.618 3.87988H126.218C126.218 3.40083 126.041 2.97455 125.702 2.63531L125.278 3.05957L124.854 3.48383C124.968 3.59793 125.018 3.71894 125.018 3.87988H125.618ZM125.278 3.05957L125.702 2.63524C125.358 2.29127 124.923 2.11977 124.438 2.11973L124.438 2.71973L124.438 3.31973C124.619 3.31974 124.744 3.3748 124.854 3.4839L125.278 3.05957ZM124.438 2.71973V2.11973H123.678V2.71973V3.31973H124.438V2.71973ZM123.678 2.71973H123.078V5.95996H123.678H124.278V2.71973H123.678ZM215.385 5.95996V6.55996H216.145V5.95996V5.35996H215.385V5.95996ZM216.145 5.95996L216.145 6.55996C216.63 6.55992 217.065 6.38842 217.409 6.04445L216.985 5.62012L216.561 5.19579C216.452 5.30489 216.326 5.35994 216.145 5.35996L216.145 5.95996ZM216.985 5.62012L217.409 6.04438C217.748 5.70514 217.925 5.27886 217.925 4.7998H217.325H216.725C216.725 4.96075 216.675 5.08176 216.561 5.19585L216.985 5.62012ZM217.325 4.7998H217.925V3.87988H217.325H216.725V4.7998H217.325ZM217.325 3.87988H217.925C217.925 3.40083 217.748 2.97455 217.409 2.63531L216.985 3.05957L216.561 3.48383C216.675 3.59793 216.725 3.71894 216.725 3.87988H217.325ZM216.985 3.05957L217.409 2.63524C217.065 2.29127 216.63 2.11977 216.145 2.11973L216.145 2.71973L216.145 3.31973C216.326 3.31974 216.452 3.3748 216.561 3.4839L216.985 3.05957ZM216.145 2.71973V2.11973H215.385V2.71973V3.31973H216.145V2.71973ZM215.385 2.71973H214.785V5.95996H215.385H215.985V2.71973H215.385ZM359.116 5.95996V6.55996H359.875V5.95996V5.35996H359.116V5.95996ZM359.875 5.95996L359.876 6.55996C360.361 6.55992 360.795 6.38842 361.14 6.04445L360.715 5.62012L360.291 5.19579C360.182 5.30489 360.057 5.35994 359.875 5.35996L359.875 5.95996ZM360.715 5.62012L361.14 6.04438C361.479 5.70514 361.655 5.27886 361.655 4.7998H361.055H360.455C360.455 4.96075 360.405 5.08176 360.291 5.19585L360.715 5.62012ZM361.055 4.7998H361.655V3.87988H361.055H360.455V4.7998H361.055ZM361.055 3.87988H361.655C361.655 3.40083 361.479 2.97455 361.14 2.63531L360.715 3.05957L360.291 3.48383C360.405 3.59793 360.455 3.71894 360.455 3.87988H361.055ZM360.715 3.05957L361.14 2.63524C360.795 2.29127 360.361 2.11977 359.876 2.11973L359.875 2.71973L359.875 3.31973C360.057 3.31974 360.182 3.3748 360.291 3.4839L360.715 3.05957ZM359.875 2.71973V2.11973H359.116V2.71973V3.31973H359.875V2.71973ZM359.116 2.71973H358.516V5.95996H359.116H359.716V2.71973H359.116ZM23.5454 5.04785V4.44785H21.0249V5.04785V5.64785H23.5454V5.04785ZM21.0249 5.04785H21.6249V4.04785H21.0249H20.4249V5.04785H21.0249ZM21.0249 4.04785V4.64785H23.5454V4.04785V3.44785H21.0249V4.04785ZM23.5454 4.04785H22.9454V5.04785H23.5454H24.1454V4.04785H23.5454ZM255.526 5.04785V4.44785H253.005V5.04785V5.64785H255.526V5.04785ZM253.005 5.04785H253.605V4.04785H253.005H252.405V5.04785H253.005ZM253.005 4.04785V4.64785H255.526V4.04785V3.44785H253.005V4.04785ZM255.526 4.04785H254.926V5.04785H255.526H256.126V4.04785H255.526ZM186.704 0L186.704 0.6C187.572 0.600089 188.292 0.89797 188.898 1.50435L189.323 1.08008L189.747 0.655801C188.914 -0.177482 187.888 -0.599878 186.704 -0.6L186.704 0ZM189.323 1.08008L188.898 1.50434C189.507 2.11245 189.803 2.82651 189.803 3.67971L190.403 3.67969L191.003 3.67966C191.003 2.50634 190.579 1.48762 189.747 0.655814L189.323 1.08008ZM190.403 3.67969H189.803V4.33984H190.403H191.003V3.67969H190.403ZM190.403 4.33984V3.73984H187.883V4.33984V4.93984H190.403V4.33984ZM187.883 4.33984H188.483V3.67969H187.883H187.283V4.33984H187.883ZM187.883 3.67969L188.483 3.67961C188.483 3.20074 188.307 2.77436 187.968 2.43511L187.543 2.85938L187.119 3.28364C187.233 3.39765 187.283 3.51878 187.283 3.67976L187.883 3.67969ZM187.543 2.85938L187.968 2.43507C187.624 2.09102 187.189 1.91968 186.704 1.91953L186.704 2.51953L186.703 3.11953C186.885 3.11959 187.01 3.17472 187.119 3.28368L187.543 2.85938ZM186.704 2.51953V1.91953C186.225 1.91953 185.798 2.09618 185.459 2.43498L185.883 2.85938L186.307 3.28377C186.422 3.16965 186.543 3.11953 186.704 3.11953V2.51953ZM185.883 2.85938L185.459 2.43511C185.12 2.77436 184.944 3.20074 184.943 3.67961L185.543 3.67969L186.143 3.67976C186.143 3.51878 186.194 3.39765 186.308 3.28364L185.883 2.85938ZM185.543 3.67969H184.943V4.75977H185.543H186.143V3.67969H185.543ZM185.543 4.75977V4.15977H183.023V4.75977V5.35977H185.543V4.75977ZM183.023 4.75977H183.623V3.67969H183.023H182.423V4.75977H183.023ZM183.023 3.67969L183.623 3.67971C183.623 2.82662 183.919 2.11242 184.527 1.50432L184.103 1.08008L183.679 0.655839C182.847 1.48758 182.423 2.5064 182.423 3.67966L183.023 3.67969ZM184.103 1.08008L184.527 1.50434C185.135 0.896301 185.85 0.6 186.704 0.6V0V-0.6C185.53 -0.6 184.511 -0.176146 183.679 0.655814L184.103 1.08008ZM23.5454 3.04785V2.44785H21.0249V3.04785V3.64785H23.5454V3.04785ZM21.0249 3.04785H21.6249V0.200195H21.0249H20.4249V3.04785H21.0249ZM21.0249 0.200195V0.800195H23.5454V0.200195V-0.399805H21.0249V0.200195ZM23.5454 0.200195H22.9454V3.04785H23.5454H24.1454V0.200195H23.5454ZM255.526 3.04785V2.44785H253.005V3.04785V3.64785H255.526V3.04785ZM253.005 3.04785H253.605V0.200195H253.005H252.405V3.04785H253.005ZM253.005 0.200195V0.800195H255.526V0.200195V-0.399805H253.005V0.200195ZM255.526 0.200195H254.926V3.04785H255.526H256.126V0.200195H255.526Z" fill="url(#paint1_linear_36_3371)" mask="url(#path-1-inside-1_36_3371)"/>
<defs>
<radialGradient id="paint0_radial_36_3371" cx="0" cy="0" r="1" gradientUnits="userSpaceOnUse" gradientTransform="translate(184.382 7.67658) rotate(90) scale(38.8047 233.524)">
<stop stop-color="#ECF7FF"/>
<stop offset="1" stop-color="#ECF7FF" stop-opacity="0"/>
</radialGradient>
<linearGradient id="paint1_linear_36_3371" x1="184.382" y1="-6.45475" x2="184.382" y2="44.9505" gradientUnits="userSpaceOnUse">
<stop stop-color="#253596" stop-opacity="0"/>
<stop offset="0.456017" stop-color="#4A76D4"/>
<stop offset="1" stop-color="#76EAF1"/>
</linearGradient>
</defs>
</svg>
