<svg width="540" height="22" viewBox="0 0 540 22" fill="none" xmlns="http://www.w3.org/2000/svg">
<mask id="path-1-inside-1_7_293" fill="white">
<path d="M93.999 16.792C93.999 17.2399 94.1573 17.6231 94.4746 17.9404C94.7919 18.2578 95.1751 18.416 95.623 18.416C96.0896 18.416 96.4815 18.2576 96.7988 17.9404C97.1162 17.6231 97.2754 17.24 97.2754 16.792V15.8682H100.803V16.792C100.803 18.2107 100.299 19.4246 99.291 20.4326C98.2831 21.4404 97.0603 21.9443 95.623 21.9443C94.2046 21.9443 92.9913 21.4403 91.9834 20.4326C90.9754 19.4246 90.4707 18.2107 90.4707 16.792V12.9521H93.999V16.792ZM218.481 16.8203C218.481 17.2496 218.64 17.6231 218.957 17.9404C219.274 18.2578 219.657 18.416 220.105 18.416C220.572 18.416 220.964 18.2664 221.281 17.9678C221.598 17.6505 221.758 17.2682 221.758 16.8203V13.6641H225.285V16.8203C225.285 18.2389 224.781 19.452 223.773 20.46C222.765 21.4493 221.543 21.9443 220.105 21.9443C218.687 21.9443 217.474 21.4492 216.466 20.46C215.458 19.452 214.953 18.2389 214.953 16.8203V13.6641H218.481V16.8203ZM300.256 16.8203C300.256 17.2496 300.414 17.6231 300.731 17.9404C301.049 18.2577 301.432 18.416 301.88 18.416C302.346 18.416 302.738 18.2664 303.056 17.9678C303.373 17.6505 303.531 17.2681 303.531 16.8203V1.28027H307.06V16.8203C307.06 18.2388 306.556 19.452 305.548 20.46C304.54 21.4492 303.317 21.9443 301.88 21.9443C300.461 21.9443 299.247 21.4493 298.239 20.46C297.231 19.4521 296.728 18.2388 296.728 16.8203V1.28027H300.256V16.8203ZM423.56 1C424.997 1 426.22 1.50393 427.228 2.51172C428.236 3.51972 428.739 4.73368 428.739 6.15234V7.07617H425.212V6.15234C425.212 5.70434 425.053 5.32124 424.735 5.00391C424.418 4.68678 424.026 4.52832 423.56 4.52832C423.112 4.52836 422.729 4.68682 422.412 5.00391C422.095 5.32124 421.936 5.70434 421.936 6.15234V6.48828C421.936 7.32814 422.244 8.00961 422.859 8.53223L426.584 11.7246C428.021 12.9939 428.739 14.5709 428.739 16.4561V16.792C428.739 18.2107 428.236 19.4246 427.228 20.4326C426.22 21.4404 424.997 21.9443 423.56 21.9443C422.141 21.9443 420.928 21.4404 419.92 20.4326C418.912 19.4246 418.408 18.2107 418.408 16.792V15.8682H421.936V16.792C421.936 17.24 422.095 17.6231 422.412 17.9404C422.729 18.2575 423.112 18.416 423.56 18.416C424.026 18.416 424.418 18.2575 424.735 17.9404C425.053 17.6231 425.212 17.24 425.212 16.792V16.4561C425.212 15.6162 424.904 14.9347 424.288 14.4121L420.563 11.2197C419.126 9.95048 418.408 8.3734 418.408 6.48828V6.15234C418.408 4.73368 418.912 3.51972 419.92 2.51172C420.928 1.50396 422.141 1.00004 423.56 1ZM115.607 9.00781L117.595 1.28027H121.403L117.371 12.9004V21.6641H113.843V12.9004L109.812 1.28027H113.619L115.607 9.00781ZM136.268 1.28027C137.705 1.28035 138.928 1.78407 139.936 2.79199C140.944 3.79998 141.447 5.01398 141.447 6.43262V7.71973C141.447 8.87706 141.102 9.89513 140.411 10.7725C141.475 11.7991 142.007 13.0402 142.007 14.4961V16.5117C142.007 17.9304 141.503 19.1443 140.495 20.1523C139.487 21.1602 138.264 21.6641 136.827 21.6641H131.675V1.28027H136.268ZM162.638 4.80859H156.897V9.34375H161.966V12.8721H156.897V18.1357H162.638V21.6641H153.37V1.28027H162.638V4.80859ZM178.152 1.28027C179.59 1.28027 180.812 1.78408 181.82 2.79199C182.828 3.79999 183.332 5.01395 183.332 6.43262V7.71973C183.332 8.61565 183.118 9.44664 182.688 10.2119C182.278 10.9586 181.708 11.5656 180.98 12.0322L184.48 21.6641H180.729L177.593 12.8721H177.089V21.6641H173.561V1.28027H178.152ZM199.245 1.28027C200.682 1.28027 201.905 1.78414 202.913 2.79199C203.921 3.79999 204.426 5.01395 204.426 6.43262V7.71973C204.426 9.13839 203.921 10.3524 202.913 11.3604C201.905 12.3682 200.682 12.8721 199.245 12.8721H198.182V21.6641H194.653V1.28027H199.245ZM244.984 12.4238V1.28027H248.513V21.6641H244.984L240.477 10.5205V21.6641H236.948V1.28027H240.477L244.984 12.4238ZM263.702 9.87598L267.566 1.28027H271.486L267.343 9.65234L272.383 21.6641H268.547L265.383 13.6006L263.702 16.96V21.6641H260.175V1.28027H263.702V9.87598ZM326.759 12.4238V1.28027H330.287V21.6641H326.759L322.251 10.5205V21.6641H318.723V1.28027H322.251L326.759 12.4238ZM345.477 21.6641H341.948V9.95215H345.477V21.6641ZM361.53 14.1885L363.687 1.28027H367.299L363.295 21.6641H359.767L355.763 1.28027H359.375L361.53 14.1885ZM386.84 4.80859H381.101V9.34375H386.168V12.8721H381.101V18.1357H386.84V21.6641H377.572V1.28027H386.84V4.80859ZM402.354 1.28027C403.792 1.28027 405.014 1.78415 406.022 2.79199C407.03 3.79999 407.535 5.01395 407.535 6.43262V7.71973C407.535 8.61568 407.32 9.44661 406.891 10.2119C406.48 10.9586 405.911 11.5656 405.183 12.0322L408.683 21.6641H404.931L401.795 12.8721H401.291V21.6641H397.763V1.28027H402.354ZM449.217 4.80859H443.477V9.34375H448.545V12.8721H443.477V18.1357H449.217V21.6641H439.948V1.28027H449.217V4.80859ZM135.203 18.1357H136.827C137.294 18.1357 137.686 17.9774 138.003 17.6602C138.32 17.3428 138.479 16.9597 138.479 16.5117V14.4961C138.479 14.0482 138.32 13.6659 138.003 13.3486C137.686 13.0313 137.294 12.8721 136.827 12.8721H135.203V18.1357ZM218.481 12.6641H214.953V11.6641H218.481V12.6641ZM225.285 12.6641H221.758V11.6641H225.285V12.6641ZM93.999 11.9521H90.4707V10.9521H93.999V11.9521ZM218.481 10.6641H214.953V9.66406H218.481V10.6641ZM225.285 10.6641H221.758V9.66406H225.285V10.6641ZM93.999 9.95215H90.4707V8.95215H93.999V9.95215ZM135.203 9.34375H136.268C136.734 9.34368 137.126 9.18543 137.443 8.86816C137.761 8.55084 137.919 8.16771 137.919 7.71973V6.43262C137.919 5.98465 137.761 5.6015 137.443 5.28418C137.126 4.96692 136.734 4.80867 136.268 4.80859H135.203V9.34375ZM177.089 9.34375H178.152C178.619 9.34375 179.011 9.1854 179.328 8.86816C179.645 8.55083 179.805 8.16773 179.805 7.71973V6.43262C179.805 5.98462 179.645 5.60151 179.328 5.28418C179.011 4.96693 178.619 4.80859 178.152 4.80859H177.089V9.34375ZM198.182 9.34375H199.245C199.712 9.34375 200.105 9.1855 200.422 8.86816C200.739 8.55088 200.897 8.16762 200.897 7.71973V6.43262C200.897 5.98474 200.739 5.60146 200.422 5.28418C200.105 4.96685 199.712 4.80859 199.245 4.80859H198.182V9.34375ZM401.291 9.34375H402.354C402.821 9.34375 403.214 9.1855 403.531 8.86816C403.848 8.55088 404.007 8.16762 404.007 7.71973V6.43262C404.007 5.98474 403.848 5.60146 403.531 5.28418C403.214 4.96685 402.821 4.80859 402.354 4.80859H401.291V9.34375ZM345.477 8.95215H341.948V7.95215H345.477V8.95215ZM218.481 8.66406H214.953V1.28027H218.481V8.66406ZM225.285 8.66406H221.758V1.28027H225.285V8.66406ZM95.623 1C97.0603 1 98.2831 1.50388 99.291 2.51172C100.299 3.51972 100.803 4.73368 100.803 6.15234V7.07617H97.2754V6.15234C97.2754 5.70434 97.1162 5.32124 96.7988 5.00391C96.4815 4.68674 96.0896 4.52832 95.623 4.52832C95.1751 4.52833 94.7919 4.68658 94.4746 5.00391C94.1574 5.32122 93.999 5.7044 93.999 6.15234V7.95215H90.4707V6.15234C90.4707 4.73368 90.9754 3.51972 91.9834 2.51172C92.9913 1.50398 94.2046 1.00001 95.623 1ZM345.477 6.95215H341.948V5.95215H345.477V6.95215ZM345.477 4.95215H341.948V1.28027H345.477V4.95215Z"/>
</mask>
<path d="M93.999 16.792C93.999 17.2399 94.1573 17.6231 94.4746 17.9404C94.7919 18.2578 95.1751 18.416 95.623 18.416C96.0896 18.416 96.4815 18.2576 96.7988 17.9404C97.1162 17.6231 97.2754 17.24 97.2754 16.792V15.8682H100.803V16.792C100.803 18.2107 100.299 19.4246 99.291 20.4326C98.2831 21.4404 97.0603 21.9443 95.623 21.9443C94.2046 21.9443 92.9913 21.4403 91.9834 20.4326C90.9754 19.4246 90.4707 18.2107 90.4707 16.792V12.9521H93.999V16.792ZM218.481 16.8203C218.481 17.2496 218.64 17.6231 218.957 17.9404C219.274 18.2578 219.657 18.416 220.105 18.416C220.572 18.416 220.964 18.2664 221.281 17.9678C221.598 17.6505 221.758 17.2682 221.758 16.8203V13.6641H225.285V16.8203C225.285 18.2389 224.781 19.452 223.773 20.46C222.765 21.4493 221.543 21.9443 220.105 21.9443C218.687 21.9443 217.474 21.4492 216.466 20.46C215.458 19.452 214.953 18.2389 214.953 16.8203V13.6641H218.481V16.8203ZM300.256 16.8203C300.256 17.2496 300.414 17.6231 300.731 17.9404C301.049 18.2577 301.432 18.416 301.88 18.416C302.346 18.416 302.738 18.2664 303.056 17.9678C303.373 17.6505 303.531 17.2681 303.531 16.8203V1.28027H307.06V16.8203C307.06 18.2388 306.556 19.452 305.548 20.46C304.54 21.4492 303.317 21.9443 301.88 21.9443C300.461 21.9443 299.247 21.4493 298.239 20.46C297.231 19.4521 296.728 18.2388 296.728 16.8203V1.28027H300.256V16.8203ZM423.56 1C424.997 1 426.22 1.50393 427.228 2.51172C428.236 3.51972 428.739 4.73368 428.739 6.15234V7.07617H425.212V6.15234C425.212 5.70434 425.053 5.32124 424.735 5.00391C424.418 4.68678 424.026 4.52832 423.56 4.52832C423.112 4.52836 422.729 4.68682 422.412 5.00391C422.095 5.32124 421.936 5.70434 421.936 6.15234V6.48828C421.936 7.32814 422.244 8.00961 422.859 8.53223L426.584 11.7246C428.021 12.9939 428.739 14.5709 428.739 16.4561V16.792C428.739 18.2107 428.236 19.4246 427.228 20.4326C426.22 21.4404 424.997 21.9443 423.56 21.9443C422.141 21.9443 420.928 21.4404 419.92 20.4326C418.912 19.4246 418.408 18.2107 418.408 16.792V15.8682H421.936V16.792C421.936 17.24 422.095 17.6231 422.412 17.9404C422.729 18.2575 423.112 18.416 423.56 18.416C424.026 18.416 424.418 18.2575 424.735 17.9404C425.053 17.6231 425.212 17.24 425.212 16.792V16.4561C425.212 15.6162 424.904 14.9347 424.288 14.4121L420.563 11.2197C419.126 9.95048 418.408 8.3734 418.408 6.48828V6.15234C418.408 4.73368 418.912 3.51972 419.92 2.51172C420.928 1.50396 422.141 1.00004 423.56 1ZM115.607 9.00781L117.595 1.28027H121.403L117.371 12.9004V21.6641H113.843V12.9004L109.812 1.28027H113.619L115.607 9.00781ZM136.268 1.28027C137.705 1.28035 138.928 1.78407 139.936 2.79199C140.944 3.79998 141.447 5.01398 141.447 6.43262V7.71973C141.447 8.87706 141.102 9.89513 140.411 10.7725C141.475 11.7991 142.007 13.0402 142.007 14.4961V16.5117C142.007 17.9304 141.503 19.1443 140.495 20.1523C139.487 21.1602 138.264 21.6641 136.827 21.6641H131.675V1.28027H136.268ZM162.638 4.80859H156.897V9.34375H161.966V12.8721H156.897V18.1357H162.638V21.6641H153.37V1.28027H162.638V4.80859ZM178.152 1.28027C179.59 1.28027 180.812 1.78408 181.82 2.79199C182.828 3.79999 183.332 5.01395 183.332 6.43262V7.71973C183.332 8.61565 183.118 9.44664 182.688 10.2119C182.278 10.9586 181.708 11.5656 180.98 12.0322L184.48 21.6641H180.729L177.593 12.8721H177.089V21.6641H173.561V1.28027H178.152ZM199.245 1.28027C200.682 1.28027 201.905 1.78414 202.913 2.79199C203.921 3.79999 204.426 5.01395 204.426 6.43262V7.71973C204.426 9.13839 203.921 10.3524 202.913 11.3604C201.905 12.3682 200.682 12.8721 199.245 12.8721H198.182V21.6641H194.653V1.28027H199.245ZM244.984 12.4238V1.28027H248.513V21.6641H244.984L240.477 10.5205V21.6641H236.948V1.28027H240.477L244.984 12.4238ZM263.702 9.87598L267.566 1.28027H271.486L267.343 9.65234L272.383 21.6641H268.547L265.383 13.6006L263.702 16.96V21.6641H260.175V1.28027H263.702V9.87598ZM326.759 12.4238V1.28027H330.287V21.6641H326.759L322.251 10.5205V21.6641H318.723V1.28027H322.251L326.759 12.4238ZM345.477 21.6641H341.948V9.95215H345.477V21.6641ZM361.53 14.1885L363.687 1.28027H367.299L363.295 21.6641H359.767L355.763 1.28027H359.375L361.53 14.1885ZM386.84 4.80859H381.101V9.34375H386.168V12.8721H381.101V18.1357H386.84V21.6641H377.572V1.28027H386.84V4.80859ZM402.354 1.28027C403.792 1.28027 405.014 1.78415 406.022 2.79199C407.03 3.79999 407.535 5.01395 407.535 6.43262V7.71973C407.535 8.61568 407.32 9.44661 406.891 10.2119C406.48 10.9586 405.911 11.5656 405.183 12.0322L408.683 21.6641H404.931L401.795 12.8721H401.291V21.6641H397.763V1.28027H402.354ZM449.217 4.80859H443.477V9.34375H448.545V12.8721H443.477V18.1357H449.217V21.6641H439.948V1.28027H449.217V4.80859ZM135.203 18.1357H136.827C137.294 18.1357 137.686 17.9774 138.003 17.6602C138.32 17.3428 138.479 16.9597 138.479 16.5117V14.4961C138.479 14.0482 138.32 13.6659 138.003 13.3486C137.686 13.0313 137.294 12.8721 136.827 12.8721H135.203V18.1357ZM218.481 12.6641H214.953V11.6641H218.481V12.6641ZM225.285 12.6641H221.758V11.6641H225.285V12.6641ZM93.999 11.9521H90.4707V10.9521H93.999V11.9521ZM218.481 10.6641H214.953V9.66406H218.481V10.6641ZM225.285 10.6641H221.758V9.66406H225.285V10.6641ZM93.999 9.95215H90.4707V8.95215H93.999V9.95215ZM135.203 9.34375H136.268C136.734 9.34368 137.126 9.18543 137.443 8.86816C137.761 8.55084 137.919 8.16771 137.919 7.71973V6.43262C137.919 5.98465 137.761 5.6015 137.443 5.28418C137.126 4.96692 136.734 4.80867 136.268 4.80859H135.203V9.34375ZM177.089 9.34375H178.152C178.619 9.34375 179.011 9.1854 179.328 8.86816C179.645 8.55083 179.805 8.16773 179.805 7.71973V6.43262C179.805 5.98462 179.645 5.60151 179.328 5.28418C179.011 4.96693 178.619 4.80859 178.152 4.80859H177.089V9.34375ZM198.182 9.34375H199.245C199.712 9.34375 200.105 9.1855 200.422 8.86816C200.739 8.55088 200.897 8.16762 200.897 7.71973V6.43262C200.897 5.98474 200.739 5.60146 200.422 5.28418C200.105 4.96685 199.712 4.80859 199.245 4.80859H198.182V9.34375ZM401.291 9.34375H402.354C402.821 9.34375 403.214 9.1855 403.531 8.86816C403.848 8.55088 404.007 8.16762 404.007 7.71973V6.43262C404.007 5.98474 403.848 5.60146 403.531 5.28418C403.214 4.96685 402.821 4.80859 402.354 4.80859H401.291V9.34375ZM345.477 8.95215H341.948V7.95215H345.477V8.95215ZM218.481 8.66406H214.953V1.28027H218.481V8.66406ZM225.285 8.66406H221.758V1.28027H225.285V8.66406ZM95.623 1C97.0603 1 98.2831 1.50388 99.291 2.51172C100.299 3.51972 100.803 4.73368 100.803 6.15234V7.07617H97.2754V6.15234C97.2754 5.70434 97.1162 5.32124 96.7988 5.00391C96.4815 4.68674 96.0896 4.52832 95.623 4.52832C95.1751 4.52833 94.7919 4.68658 94.4746 5.00391C94.1574 5.32122 93.999 5.7044 93.999 6.15234V7.95215H90.4707V6.15234C90.4707 4.73368 90.9754 3.51972 91.9834 2.51172C92.9913 1.50398 94.2046 1.00001 95.623 1ZM345.477 6.95215H341.948V5.95215H345.477V6.95215ZM345.477 4.95215H341.948V1.28027H345.477V4.95215Z" fill="url(#paint0_radial_7_293)"/>
<path d="M94.4746 17.9404L94.0503 18.3647L94.0503 18.3647L94.4746 17.9404ZM95.623 18.416L95.623 19.016H95.623V18.416ZM96.7988 17.9404L97.223 18.3648L97.2231 18.3647L96.7988 17.9404ZM97.2754 15.8682V15.2682H96.6754V15.8682H97.2754ZM100.803 15.8682H101.403V15.2682H100.803V15.8682ZM99.291 20.4326L99.7153 20.8569L99.7153 20.8569L99.291 20.4326ZM95.623 21.9443L95.623 22.5443H95.623V21.9443ZM91.9834 20.4326L91.5591 20.8569L91.5592 20.8569L91.9834 20.4326ZM90.4707 12.9521V12.3521H89.8707V12.9521H90.4707ZM93.999 12.9521H94.599V12.3521H93.999V12.9521ZM218.481 16.8203H217.881V16.8204L218.481 16.8203ZM218.957 17.9404L218.533 18.3647V18.3647L218.957 17.9404ZM220.105 18.416V19.016H220.105L220.105 18.416ZM221.281 17.9678L221.692 18.4047L221.699 18.3984L221.706 18.392L221.281 17.9678ZM221.758 16.8203L222.358 16.8204V16.8203H221.758ZM221.758 13.6641V13.0641H221.158V13.6641H221.758ZM225.285 13.6641H225.885V13.0641H225.285V13.6641ZM225.285 16.8203L225.885 16.8203V16.8203H225.285ZM223.773 20.46L224.194 20.8882L224.198 20.8842L223.773 20.46ZM220.105 21.9443V22.5443V21.9443ZM216.466 20.46L216.042 20.8842L216.046 20.8882L216.466 20.46ZM214.953 16.8203H214.353V16.8203L214.953 16.8203ZM214.953 13.6641V13.0641H214.353V13.6641H214.953ZM218.481 13.6641H219.081V13.0641H218.481V13.6641ZM300.256 16.8203H299.656V16.8204L300.256 16.8203ZM300.731 17.9404L300.307 18.3647L300.307 18.3647L300.731 17.9404ZM301.88 18.416V19.016H301.88L301.88 18.416ZM303.056 17.9678L303.467 18.4047L303.474 18.3984L303.48 18.392L303.056 17.9678ZM303.531 16.8203L304.131 16.8204V16.8203H303.531ZM303.531 1.28027V0.680273H302.931V1.28027H303.531ZM307.06 1.28027H307.66V0.680273H307.06V1.28027ZM307.06 16.8203L307.66 16.8203V16.8203H307.06ZM305.548 20.46L305.968 20.8882L305.972 20.8842L305.548 20.46ZM301.88 21.9443V22.5443H301.88L301.88 21.9443ZM298.239 20.46L297.815 20.8842L297.819 20.8882L298.239 20.46ZM296.728 16.8203H296.128V16.8203L296.728 16.8203ZM296.728 1.28027V0.680273H296.128V1.28027H296.728ZM300.256 1.28027H300.856V0.680273H300.256V1.28027ZM423.56 1V0.4H423.56L423.56 1ZM427.228 2.51172L427.652 2.08745L427.652 2.08742L427.228 2.51172ZM428.739 7.07617V7.67617H429.339V7.07617H428.739ZM425.212 7.07617H424.612V7.67617H425.212V7.07617ZM424.735 5.00391L425.16 4.57964L425.16 4.57954L424.735 5.00391ZM423.56 4.52832V3.92832L423.56 3.92832L423.56 4.52832ZM422.412 5.00391L421.988 4.57955L421.988 4.57964L422.412 5.00391ZM421.936 6.48828H421.336V6.4883L421.936 6.48828ZM422.859 8.53223L423.25 8.07666L423.248 8.07475L422.859 8.53223ZM426.584 11.7246L426.981 11.2749L426.974 11.269L426.584 11.7246ZM428.739 16.4561H429.339V16.456L428.739 16.4561ZM427.228 20.4326L427.652 20.8569L427.652 20.8569L427.228 20.4326ZM423.56 21.9443L423.56 22.5443H423.56V21.9443ZM419.92 20.4326L419.496 20.8569L419.496 20.8569L419.92 20.4326ZM418.408 15.8682V15.2682H417.808V15.8682H418.408ZM421.936 15.8682H422.536V15.2682H421.936V15.8682ZM422.412 17.9404L421.988 18.3647L421.988 18.3648L422.412 17.9404ZM423.56 18.416L423.56 19.016H423.56V18.416ZM424.735 17.9404L425.16 18.3648L425.16 18.3647L424.735 17.9404ZM425.212 16.4561H425.812V16.456L425.212 16.4561ZM424.288 14.4121L423.898 14.8677L423.9 14.8696L424.288 14.4121ZM420.563 11.2197L420.166 11.6695L420.173 11.6753L420.563 11.2197ZM418.408 6.48828H417.808V6.48829L418.408 6.48828ZM419.92 2.51172L419.496 2.08742L419.496 2.08745L419.92 2.51172ZM115.607 9.00781L115.026 9.15732L116.189 9.15725L115.607 9.00781ZM117.595 1.28027V0.680273H117.13L117.014 1.13083L117.595 1.28027ZM121.403 1.28027L121.97 1.47697L122.247 0.680273H121.403V1.28027ZM117.371 12.9004L116.804 12.7037L116.771 12.7992V12.9004H117.371ZM117.371 21.6641V22.2641H117.971V21.6641H117.371ZM113.843 21.6641H113.243V22.2641H113.843V21.6641ZM113.843 12.9004H114.443V12.7993L114.41 12.7037L113.843 12.9004ZM109.812 1.28027V0.680273H108.968L109.245 1.47693L109.812 1.28027ZM113.619 1.28027L114.2 1.13076L114.084 0.680273H113.619V1.28027ZM136.268 1.28027L136.268 0.680273H136.268V1.28027ZM139.936 2.79199L140.36 2.36773L140.36 2.36773L139.936 2.79199ZM140.411 10.7725L139.94 10.4013L139.604 10.8276L139.995 11.2042L140.411 10.7725ZM142.007 14.4961H142.607V14.4961L142.007 14.4961ZM140.495 20.1523L140.919 20.5766L140.919 20.5766L140.495 20.1523ZM131.675 21.6641H131.075V22.2641H131.675V21.6641ZM131.675 1.28027V0.680273H131.075V1.28027H131.675ZM162.638 4.80859V5.40859H163.238V4.80859H162.638ZM156.897 4.80859V4.20859H156.297V4.80859H156.897ZM156.897 9.34375H156.297V9.94375H156.897V9.34375ZM161.966 9.34375H162.566V8.74375H161.966V9.34375ZM161.966 12.8721V13.4721H162.566V12.8721H161.966ZM156.897 12.8721V12.2721H156.297V12.8721H156.897ZM156.897 18.1357H156.297V18.7357H156.897V18.1357ZM162.638 18.1357H163.238V17.5357H162.638V18.1357ZM162.638 21.6641V22.2641H163.238V21.6641H162.638ZM153.37 21.6641H152.77V22.2641H153.37V21.6641ZM153.37 1.28027V0.680273H152.77V1.28027H153.37ZM162.638 1.28027H163.238V0.680273H162.638V1.28027ZM181.82 2.79199L182.245 2.36773L182.245 2.36772L181.82 2.79199ZM182.688 10.2119L182.165 9.91838L182.163 9.92276L182.688 10.2119ZM180.98 12.0322L180.657 11.5271L180.253 11.7861L180.417 12.2371L180.98 12.0322ZM184.48 21.6641V22.2641H185.337L185.044 21.4591L184.48 21.6641ZM180.729 21.6641L180.163 21.8656L180.305 22.2641H180.729V21.6641ZM177.593 12.8721L178.158 12.6705L178.016 12.2721H177.593V12.8721ZM177.089 12.8721V12.2721H176.489V12.8721H177.089ZM177.089 21.6641V22.2641H177.689V21.6641H177.089ZM173.561 21.6641H172.961V22.2641H173.561V21.6641ZM173.561 1.28027V0.680273H172.961V1.28027H173.561ZM202.913 2.79199L203.337 2.36773L203.337 2.36771L202.913 2.79199ZM202.913 11.3604L203.337 11.7846L203.337 11.7846L202.913 11.3604ZM198.182 12.8721V12.2721H197.582V12.8721H198.182ZM198.182 21.6641V22.2641H198.782V21.6641H198.182ZM194.653 21.6641H194.053V22.2641H194.653V21.6641ZM194.653 1.28027V0.680273H194.053V1.28027H194.653ZM244.984 12.4238L244.428 12.6488L245.584 12.4238H244.984ZM244.984 1.28027V0.680273H244.384V1.28027H244.984ZM248.513 1.28027H249.113V0.680273H248.513V1.28027ZM248.513 21.6641V22.2641H249.113V21.6641H248.513ZM244.984 21.6641L244.428 21.8891L244.58 22.2641H244.984V21.6641ZM240.477 10.5205L241.033 10.2955L239.877 10.5205H240.477ZM240.477 21.6641V22.2641H241.077V21.6641H240.477ZM236.948 21.6641H236.348V22.2641H236.948V21.6641ZM236.948 1.28027V0.680273H236.348V1.28027H236.948ZM240.477 1.28027L241.033 1.05527L240.881 0.680273H240.477V1.28027ZM263.702 9.87598H263.102L264.249 10.122L263.702 9.87598ZM267.566 1.28027V0.680273H267.178L267.019 1.03426L267.566 1.28027ZM271.486 1.28027L272.024 1.54642L272.453 0.680273H271.486V1.28027ZM267.343 9.65234L266.805 9.3862L266.683 9.6318L266.79 9.88449L267.343 9.65234ZM272.383 21.6641V22.2641H273.285L272.936 21.4319L272.383 21.6641ZM268.547 21.6641L267.988 21.8832L268.138 22.2641H268.547V21.6641ZM265.383 13.6006L265.941 13.3814L265.449 12.127L264.846 13.3321L265.383 13.6006ZM263.702 16.96L263.166 16.6915L263.102 16.8182V16.96H263.702ZM263.702 21.6641V22.2641H264.302V21.6641H263.702ZM260.175 21.6641H259.575V22.2641H260.175V21.6641ZM260.175 1.28027V0.680273H259.575V1.28027H260.175ZM263.702 1.28027H264.302V0.680273H263.702V1.28027ZM326.759 12.4238L326.203 12.6488L327.359 12.4238H326.759ZM326.759 1.28027V0.680273H326.159V1.28027H326.759ZM330.287 1.28027H330.887V0.680273H330.287V1.28027ZM330.287 21.6641V22.2641H330.887V21.6641H330.287ZM326.759 21.6641L326.203 21.8891L326.354 22.2641H326.759V21.6641ZM322.251 10.5205L322.807 10.2955L321.651 10.5205H322.251ZM322.251 21.6641V22.2641H322.851V21.6641H322.251ZM318.723 21.6641H318.123V22.2641H318.723V21.6641ZM318.723 1.28027V0.680273H318.123V1.28027H318.723ZM322.251 1.28027L322.807 1.05527L322.656 0.680273H322.251V1.28027ZM345.477 21.6641V22.2641H346.077V21.6641H345.477ZM341.948 21.6641H341.348V22.2641H341.948V21.6641ZM341.948 9.95215V9.35215H341.348V9.95215H341.948ZM345.477 9.95215H346.077V9.35215H345.477V9.95215ZM361.53 14.1885L360.938 14.2873L362.122 14.2873L361.53 14.1885ZM363.687 1.28027V0.680273H363.178L363.095 1.18142L363.687 1.28027ZM367.299 1.28027L367.888 1.39592L368.028 0.680273H367.299V1.28027ZM363.295 21.6641V22.2641H363.789L363.884 21.7797L363.295 21.6641ZM359.767 21.6641L359.178 21.7797L359.273 22.2641H359.767V21.6641ZM355.763 1.28027V0.680273H355.033L355.174 1.39592L355.763 1.28027ZM359.375 1.28027L359.967 1.18146L359.883 0.680273H359.375V1.28027ZM386.84 4.80859V5.40859H387.44V4.80859H386.84ZM381.101 4.80859V4.20859H380.501V4.80859H381.101ZM381.101 9.34375H380.501V9.94375H381.101V9.34375ZM386.168 9.34375H386.768V8.74375H386.168V9.34375ZM386.168 12.8721V13.4721H386.768V12.8721H386.168ZM381.101 12.8721V12.2721H380.501V12.8721H381.101ZM381.101 18.1357H380.501V18.7357H381.101V18.1357ZM386.84 18.1357H387.44V17.5357H386.84V18.1357ZM386.84 21.6641V22.2641H387.44V21.6641H386.84ZM377.572 21.6641H376.972V22.2641H377.572V21.6641ZM377.572 1.28027V0.680273H376.972V1.28027H377.572ZM386.84 1.28027H387.44V0.680273H386.84V1.28027ZM406.022 2.79199L406.447 2.36773V2.3677L406.022 2.79199ZM406.891 10.2119L406.367 9.91837L406.365 9.92276L406.891 10.2119ZM405.183 12.0322L404.859 11.5271L404.455 11.7861L404.619 12.2371L405.183 12.0322ZM408.683 21.6641V22.2641H409.539L409.247 21.4591L408.683 21.6641ZM404.931 21.6641L404.366 21.8656L404.508 22.2641H404.931V21.6641ZM401.795 12.8721L402.36 12.6705L402.218 12.2721H401.795V12.8721ZM401.291 12.8721V12.2721H400.691V12.8721H401.291ZM401.291 21.6641V22.2641H401.891V21.6641H401.291ZM397.763 21.6641H397.163V22.2641H397.763V21.6641ZM397.763 1.28027V0.680273H397.163V1.28027H397.763ZM449.217 4.80859V5.40859H449.817V4.80859H449.217ZM443.477 4.80859V4.20859H442.877V4.80859H443.477ZM443.477 9.34375H442.877V9.94375H443.477V9.34375ZM448.545 9.34375H449.145V8.74375H448.545V9.34375ZM448.545 12.8721V13.4721H449.145V12.8721H448.545ZM443.477 12.8721V12.2721H442.877V12.8721H443.477ZM443.477 18.1357H442.877V18.7357H443.477V18.1357ZM449.217 18.1357H449.817V17.5357H449.217V18.1357ZM449.217 21.6641V22.2641H449.817V21.6641H449.217ZM439.948 21.6641H439.348V22.2641H439.948V21.6641ZM439.948 1.28027V0.680273H439.348V1.28027H439.948ZM449.217 1.28027H449.817V0.680273H449.217V1.28027ZM135.203 18.1357H134.603V18.7357H135.203V18.1357ZM138.003 17.6602L138.427 18.0845L138.427 18.0844L138.003 17.6602ZM138.479 14.4961H139.079V14.4961L138.479 14.4961ZM138.003 13.3486L138.427 12.9244L138.427 12.9244L138.003 13.3486ZM135.203 12.8721V12.2721H134.603V12.8721H135.203ZM218.481 12.6641V13.2641H219.081V12.6641H218.481ZM214.953 12.6641H214.353V13.2641H214.953V12.6641ZM214.953 11.6641V11.0641H214.353V11.6641H214.953ZM218.481 11.6641H219.081V11.0641H218.481V11.6641ZM225.285 12.6641V13.2641H225.885V12.6641H225.285ZM221.758 12.6641H221.158V13.2641H221.758V12.6641ZM221.758 11.6641V11.0641H221.158V11.6641H221.758ZM225.285 11.6641H225.885V11.0641H225.285V11.6641ZM93.999 11.9521V12.5521H94.599V11.9521H93.999ZM90.4707 11.9521H89.8707V12.5521H90.4707V11.9521ZM90.4707 10.9521V10.3521H89.8707V10.9521H90.4707ZM93.999 10.9521H94.599V10.3521H93.999V10.9521ZM218.481 10.6641V11.2641H219.081V10.6641H218.481ZM214.953 10.6641H214.353V11.2641H214.953V10.6641ZM214.953 9.66406V9.06406H214.353V9.66406H214.953ZM218.481 9.66406H219.081V9.06406H218.481V9.66406ZM225.285 10.6641V11.2641H225.885V10.6641H225.285ZM221.758 10.6641H221.158V11.2641H221.758V10.6641ZM221.758 9.66406V9.06406H221.158V9.66406H221.758ZM225.285 9.66406H225.885V9.06406H225.285V9.66406ZM93.999 9.95215V10.5521H94.599V9.95215H93.999ZM90.4707 9.95215H89.8707V10.5521H90.4707V9.95215ZM90.4707 8.95215V8.35215H89.8707V8.95215H90.4707ZM93.999 8.95215H94.599V8.35215H93.999V8.95215ZM135.203 9.34375H134.603V9.94375H135.203V9.34375ZM136.268 9.34375V9.94375H136.268L136.268 9.34375ZM137.443 8.86816L137.868 9.29243L137.868 9.29242L137.443 8.86816ZM137.443 5.28418L137.868 4.85994L137.868 4.85992L137.443 5.28418ZM136.268 4.80859L136.268 4.20859H136.268V4.80859ZM135.203 4.80859V4.20859H134.603V4.80859H135.203ZM177.089 9.34375H176.489V9.94375H177.089V9.34375ZM179.328 8.86816L179.752 9.29248L179.752 9.29243L179.328 8.86816ZM179.328 5.28418L179.752 4.85992L179.752 4.85987L179.328 5.28418ZM177.089 4.80859V4.20859H176.489V4.80859H177.089ZM198.182 9.34375H197.582V9.94375H198.182V9.34375ZM200.422 8.86816L200.846 9.29243L200.846 9.29235L200.422 8.86816ZM200.422 5.28418L200.846 4.86L200.846 4.85992L200.422 5.28418ZM198.182 4.80859V4.20859H197.582V4.80859H198.182ZM401.291 9.34375H400.691V9.94375H401.291V9.34375ZM403.531 8.86816L403.956 9.29243L403.956 9.29236L403.531 8.86816ZM403.531 5.28418L403.956 4.85999L403.956 4.85992L403.531 5.28418ZM401.291 4.80859V4.20859H400.691V4.80859H401.291ZM345.477 8.95215V9.55215H346.077V8.95215H345.477ZM341.948 8.95215H341.348V9.55215H341.948V8.95215ZM341.948 7.95215V7.35215H341.348V7.95215H341.948ZM345.477 7.95215H346.077V7.35215H345.477V7.95215ZM218.481 8.66406V9.26406H219.081V8.66406H218.481ZM214.953 8.66406H214.353V9.26406H214.953V8.66406ZM214.953 1.28027V0.680273H214.353V1.28027H214.953ZM218.481 1.28027H219.081V0.680273H218.481V1.28027ZM225.285 8.66406V9.26406H225.885V8.66406H225.285ZM221.758 8.66406H221.158V9.26406H221.758V8.66406ZM221.758 1.28027V0.680273H221.158V1.28027H221.758ZM225.285 1.28027H225.885V0.680273H225.285V1.28027ZM95.623 1V0.4H95.623L95.623 1ZM99.291 2.51172L99.7153 2.08745L99.7153 2.08743L99.291 2.51172ZM100.803 7.07617V7.67617H101.403V7.07617H100.803ZM97.2754 7.07617H96.6754V7.67617H97.2754V7.07617ZM96.7988 5.00391L97.2231 4.57964L97.223 4.57956L96.7988 5.00391ZM95.623 4.52832V3.92832L95.623 3.92832L95.623 4.52832ZM94.4746 5.00391L94.0503 4.57964L94.0503 4.57968L94.4746 5.00391ZM93.999 7.95215V8.55215H94.599V7.95215H93.999ZM90.4707 7.95215H89.8707V8.55215H90.4707V7.95215ZM91.9834 2.51172L91.5592 2.08742L91.5591 2.08745L91.9834 2.51172ZM345.477 6.95215V7.55215H346.077V6.95215H345.477ZM341.948 6.95215H341.348V7.55215H341.948V6.95215ZM341.948 5.95215V5.35215H341.348V5.95215H341.948ZM345.477 5.95215H346.077V5.35215H345.477V5.95215ZM345.477 4.95215V5.55215H346.077V4.95215H345.477ZM341.948 4.95215H341.348V5.55215H341.948V4.95215ZM341.948 1.28027V0.680273H341.348V1.28027H341.948ZM345.477 1.28027H346.077V0.680273H345.477V1.28027ZM93.999 16.792H93.399C93.399 17.3988 93.6204 17.9347 94.0503 18.3647L94.4746 17.9404L94.8989 17.5162C94.6943 17.3116 94.599 17.081 94.599 16.792H93.999ZM94.4746 17.9404L94.0503 18.3647C94.4804 18.7947 95.0162 19.016 95.623 19.016L95.623 18.416L95.6231 17.816C95.3339 17.816 95.1035 17.7208 94.8989 17.5162L94.4746 17.9404ZM95.623 18.416V19.016C96.2414 19.016 96.7882 18.7994 97.223 18.3648L96.7988 17.9404L96.3747 17.5161C96.1749 17.7157 95.9377 17.816 95.623 17.816V18.416ZM96.7988 17.9404L97.2231 18.3647C97.6525 17.9353 97.8754 17.3998 97.8754 16.792H97.2754H96.6754C96.6754 17.0802 96.5799 17.3109 96.3746 17.5162L96.7988 17.9404ZM97.2754 16.792H97.8754V15.8682H97.2754H96.6754V16.792H97.2754ZM97.2754 15.8682V16.4682H100.803V15.8682V15.2682H97.2754V15.8682ZM100.803 15.8682H100.203V16.792H100.803H101.403V15.8682H100.803ZM100.803 16.792H100.203C100.203 18.0508 99.7627 19.1124 98.8668 20.0084L99.291 20.4326L99.7153 20.8569C100.835 19.7369 101.403 18.3705 101.403 16.792H100.803ZM99.291 20.4326L98.8668 20.0083C97.9724 20.9026 96.9027 21.3443 95.623 21.3443V21.9443V22.5443C97.2179 22.5443 98.5937 21.9783 99.7153 20.8569L99.291 20.4326ZM95.623 21.9443L95.623 21.3443C94.3646 21.3443 93.3036 20.9042 92.4076 20.0083L91.9834 20.4326L91.5592 20.8569C92.679 21.9765 94.0446 22.5443 95.623 22.5443L95.623 21.9443ZM91.9834 20.4326L92.4077 20.0084C91.5115 19.1122 91.0707 18.0505 91.0707 16.792H90.4707H89.8707C89.8707 18.3708 90.4393 19.7371 91.5591 20.8569L91.9834 20.4326ZM90.4707 16.792H91.0707V12.9521H90.4707H89.8707V16.792H90.4707ZM90.4707 12.9521V13.5521H93.999V12.9521V12.3521H90.4707V12.9521ZM93.999 12.9521H93.399V16.792H93.999H94.599V12.9521H93.999ZM218.481 16.8203L217.881 16.8204C217.882 17.4161 218.108 17.9402 218.533 18.3647L218.957 17.9404L219.381 17.5162C219.171 17.3061 219.081 17.083 219.081 16.8203L218.481 16.8203ZM218.957 17.9404L218.533 18.3647C218.963 18.7947 219.499 19.016 220.105 19.016V18.416V17.816C219.816 17.816 219.586 17.7208 219.381 17.5162L218.957 17.9404ZM220.105 18.416L220.105 19.016C220.713 19.016 221.256 18.8158 221.692 18.4047L221.281 17.9678L220.87 17.5309C220.672 17.7171 220.431 17.816 220.105 17.816L220.105 18.416ZM221.281 17.9678L221.706 18.392C222.134 17.963 222.358 17.4284 222.358 16.8204L221.758 16.8203L221.158 16.8203C221.158 17.108 221.062 17.338 220.857 17.5435L221.281 17.9678ZM221.758 16.8203H222.358V13.6641H221.758H221.158V16.8203H221.758ZM221.758 13.6641V14.2641H225.285V13.6641V13.0641H221.758V13.6641ZM225.285 13.6641H224.685V16.8203H225.285H225.885V13.6641H225.285ZM225.285 16.8203L224.685 16.8203C224.685 18.0789 224.245 19.1397 223.349 20.0357L223.773 20.46L224.198 20.8842C225.318 19.7643 225.885 18.3988 225.885 16.8203L225.285 16.8203ZM223.773 20.46L223.353 20.0317C222.459 20.9089 221.389 21.3443 220.105 21.3443V21.9443V22.5443C221.697 22.5443 223.071 21.9897 224.194 20.8882L223.773 20.46ZM220.105 21.9443V21.3443C218.843 21.3443 217.781 20.9105 216.886 20.0317L216.466 20.46L216.046 20.8882C217.166 21.988 218.53 22.5443 220.105 22.5443V21.9443ZM216.466 20.46L216.89 20.0357C215.994 19.1395 215.553 18.0787 215.553 16.8203L214.953 16.8203L214.353 16.8203C214.353 18.3992 214.922 19.7645 216.042 20.8842L216.466 20.46ZM214.953 16.8203H215.553V13.6641H214.953H214.353V16.8203H214.953ZM214.953 13.6641V14.2641H218.481V13.6641V13.0641H214.953V13.6641ZM218.481 13.6641H217.881V16.8203H218.481H219.081V13.6641H218.481ZM300.256 16.8203L299.656 16.8204C299.656 17.4161 299.883 17.9402 300.307 18.3647L300.731 17.9404L301.156 17.5162C300.946 17.3061 300.856 17.0831 300.856 16.8203L300.256 16.8203ZM300.731 17.9404L300.307 18.3647C300.737 18.7947 301.273 19.016 301.88 19.016V18.416V17.816C301.591 17.816 301.36 17.7208 301.156 17.5161L300.731 17.9404ZM301.88 18.416L301.88 19.016C302.488 19.0159 303.03 18.8158 303.467 18.4047L303.056 17.9678L302.644 17.5309C302.447 17.717 302.205 17.816 301.88 17.816L301.88 18.416ZM303.056 17.9678L303.48 18.392C303.909 17.9623 304.131 17.4274 304.131 16.8204L303.531 16.8203L302.931 16.8203C302.931 17.1088 302.836 17.3387 302.631 17.5436L303.056 17.9678ZM303.531 16.8203H304.131V1.28027H303.531H302.931V16.8203H303.531ZM303.531 1.28027V1.88027H307.06V1.28027V0.680273H303.531V1.28027ZM307.06 1.28027H306.46V16.8203H307.06H307.66V1.28027H307.06ZM307.06 16.8203L306.46 16.8203C306.46 18.0788 306.019 19.1397 305.124 20.0357L305.548 20.46L305.972 20.8842C307.092 19.7644 307.66 18.3988 307.66 16.8203L307.06 16.8203ZM305.548 20.46L305.128 20.0317C304.234 20.9088 303.163 21.3443 301.88 21.3443L301.88 21.9443L301.88 22.5443C303.471 22.5443 304.846 21.9896 305.968 20.8882L305.548 20.46ZM301.88 21.9443V21.3443C300.618 21.3443 299.555 20.9105 298.66 20.0317L298.239 20.46L297.819 20.8882C298.94 21.9881 300.305 22.5443 301.88 22.5443V21.9443ZM298.239 20.46L298.664 20.0357C297.768 19.1397 297.328 18.0788 297.328 16.8203L296.728 16.8203L296.128 16.8203C296.128 18.3988 296.695 19.7644 297.815 20.8842L298.239 20.46ZM296.728 16.8203H297.328V1.28027H296.728H296.128V16.8203H296.728ZM296.728 1.28027V1.88027H300.256V1.28027V0.680273H296.728V1.28027ZM300.256 1.28027H299.656V16.8203H300.256H300.856V1.28027H300.256ZM423.56 1V1.6C424.839 1.6 425.909 2.04179 426.803 2.93601L427.228 2.51172L427.652 2.08742C426.53 0.966064 425.154 0.4 423.56 0.4V1ZM427.228 2.51172L426.803 2.93598C427.699 3.83196 428.139 4.89351 428.139 6.15234H428.739H429.339C429.339 4.57385 428.772 3.20748 427.652 2.08745L427.228 2.51172ZM428.739 6.15234H428.139V7.07617H428.739H429.339V6.15234H428.739ZM428.739 7.07617V6.47617H425.212V7.07617V7.67617H428.739V7.07617ZM425.212 7.07617H425.812V6.15234H425.212H424.612V7.07617H425.212ZM425.212 6.15234H425.812C425.812 5.54454 425.589 5.00902 425.16 4.57964L424.735 5.00391L424.311 5.42817C424.516 5.63346 424.612 5.86415 424.612 6.15234H425.212ZM424.735 5.00391L425.16 4.57954C424.725 4.14495 424.178 3.92832 423.56 3.92832V4.52832V5.12832C423.874 5.12832 424.111 5.22861 424.311 5.42827L424.735 5.00391ZM423.56 4.52832L423.56 3.92832C422.952 3.92837 422.418 4.15016 421.988 4.57955L422.412 5.00391L422.836 5.42827C423.041 5.22347 423.271 5.12835 423.56 5.12832L423.56 4.52832ZM422.412 5.00391L421.988 4.57964C421.558 5.00902 421.336 5.54454 421.336 6.15234H421.936H422.536C422.536 5.86415 422.631 5.63346 422.836 5.42817L422.412 5.00391ZM421.936 6.15234H421.336V6.48828H421.936H422.536V6.15234H421.936ZM421.936 6.48828L421.336 6.4883C421.336 7.49625 421.715 8.34795 422.471 8.9897L422.859 8.53223L423.248 8.07475C422.772 7.67126 422.536 7.16003 422.536 6.48826L421.936 6.48828ZM422.859 8.53223L422.469 8.98779L426.194 12.1802L426.584 11.7246L426.974 11.269L423.25 8.07666L422.859 8.53223ZM426.584 11.7246L426.187 12.1743C427.497 13.3319 428.139 14.7462 428.139 16.4561L428.739 16.4561L429.339 16.456C429.339 14.3956 428.545 12.6559 426.981 11.2749L426.584 11.7246ZM428.739 16.4561H428.139V16.792H428.739H429.339V16.4561H428.739ZM428.739 16.792H428.139C428.139 18.0508 427.699 19.1124 426.803 20.0084L427.228 20.4326L427.652 20.8569C428.772 19.7369 429.339 18.3705 429.339 16.792H428.739ZM427.228 20.4326L426.803 20.0083C425.909 20.9025 424.839 21.3443 423.56 21.3443V21.9443V22.5443C425.154 22.5443 426.53 21.9783 427.652 20.8569L427.228 20.4326ZM423.56 21.9443L423.56 21.3443C422.301 21.3443 421.24 20.9042 420.344 20.0083L419.92 20.4326L419.496 20.8569C420.616 21.9765 421.981 22.5443 423.56 22.5443L423.56 21.9443ZM419.92 20.4326L420.344 20.0084C419.448 19.1124 419.008 18.0508 419.008 16.792H418.408H417.808C417.808 18.3705 418.376 19.7369 419.496 20.8569L419.92 20.4326ZM418.408 16.792H419.008V15.8682H418.408H417.808V16.792H418.408ZM418.408 15.8682V16.4682H421.936V15.8682V15.2682H418.408V15.8682ZM421.936 15.8682H421.336V16.792H421.936H422.536V15.8682H421.936ZM421.936 16.792H421.336C421.336 17.3998 421.558 17.9353 421.988 18.3647L422.412 17.9404L422.836 17.5162C422.631 17.3109 422.536 17.0802 422.536 16.792H421.936ZM422.412 17.9404L421.988 18.3648C422.418 18.7942 422.952 19.016 423.56 19.016L423.56 18.416L423.56 17.816C423.271 17.816 423.041 17.7209 422.836 17.5161L422.412 17.9404ZM423.56 18.416V19.016C424.178 19.016 424.725 18.7994 425.16 18.3648L424.735 17.9404L424.311 17.5161C424.111 17.7157 423.874 17.816 423.56 17.816V18.416ZM424.735 17.9404L425.16 18.3647C425.589 17.9353 425.812 17.3998 425.812 16.792H425.212H424.612C424.612 17.0802 424.516 17.3109 424.311 17.5162L424.735 17.9404ZM425.212 16.792H425.812V16.4561H425.212H424.612V16.792H425.212ZM425.212 16.4561L425.812 16.456C425.812 15.4481 425.433 14.5964 424.676 13.9546L424.288 14.4121L423.9 14.8696C424.375 15.2731 424.612 15.7843 424.612 16.4561L425.212 16.4561ZM424.288 14.4121L424.679 13.9565L420.954 10.7642L420.563 11.2197L420.173 11.6753L423.898 14.8677L424.288 14.4121ZM420.563 11.2197L420.961 10.77C419.65 9.61248 419.008 8.19808 419.008 6.48827L418.408 6.48828L417.808 6.48829C417.808 8.54872 418.603 10.2885 420.166 11.6694L420.563 11.2197ZM418.408 6.48828H419.008V6.15234H418.408H417.808V6.48828H418.408ZM418.408 6.15234H419.008C419.008 4.89351 419.448 3.83196 420.344 2.93598L419.92 2.51172L419.496 2.08745C418.376 3.20748 417.808 4.57385 417.808 6.15234H418.408ZM419.92 2.51172L420.344 2.93601C421.24 2.04015 422.301 1.60003 423.56 1.6L423.56 1L423.56 0.4C421.981 0.400043 420.616 0.967774 419.496 2.08742L419.92 2.51172ZM115.607 9.00781L116.189 9.15725L118.176 1.42971L117.595 1.28027L117.014 1.13083L115.026 8.85837L115.607 9.00781ZM117.595 1.28027V1.88027H121.403V1.28027V0.680273H117.595V1.28027ZM121.403 1.28027L120.836 1.08358L116.804 12.7037L117.371 12.9004L117.938 13.0971L121.97 1.47697L121.403 1.28027ZM117.371 12.9004H116.771V21.6641H117.371H117.971V12.9004H117.371ZM117.371 21.6641V21.0641H113.843V21.6641V22.2641H117.371V21.6641ZM113.843 21.6641H114.443V12.9004H113.843H113.243V21.6641H113.843ZM113.843 12.9004L114.41 12.7037L110.378 1.08362L109.812 1.28027L109.245 1.47693L113.276 13.097L113.843 12.9004ZM109.812 1.28027V1.88027H113.619V1.28027V0.680273H109.812V1.28027ZM113.619 1.28027L113.038 1.42978L115.026 9.15732L115.607 9.00781L116.188 8.8583L114.2 1.13076L113.619 1.28027ZM136.268 1.28027L136.268 1.88027C137.547 1.88034 138.617 2.32197 139.511 3.21626L139.936 2.79199L140.36 2.36773C139.238 1.24616 137.862 0.680355 136.268 0.680273L136.268 1.28027ZM139.936 2.79199L139.511 3.21625C140.407 4.11222 140.847 5.17382 140.847 6.43262H141.447H142.047C142.047 4.85414 141.48 3.48774 140.36 2.36773L139.936 2.79199ZM141.447 6.43262H140.847V7.71973H141.447H142.047V6.43262H141.447ZM141.447 7.71973H140.847C140.847 8.74778 140.544 9.6339 139.94 10.4013L140.411 10.7725L140.883 11.1436C141.66 10.1564 142.047 9.00634 142.047 7.71973H141.447ZM140.411 10.7725L139.995 11.2042C140.943 12.1197 141.407 13.2058 141.407 14.4961L142.007 14.4961L142.607 14.4961C142.607 12.8745 142.007 11.4785 140.828 10.3407L140.411 10.7725ZM142.007 14.4961H141.407V16.5117H142.007H142.607V14.4961H142.007ZM142.007 16.5117H141.407C141.407 17.7706 140.967 18.8321 140.071 19.7281L140.495 20.1523L140.919 20.5766C142.039 19.4566 142.607 18.0902 142.607 16.5117H142.007ZM140.495 20.1523L140.071 19.7281C139.177 20.6224 138.107 21.0641 136.827 21.0641V21.6641V22.2641C138.422 22.2641 139.798 21.6981 140.919 20.5766L140.495 20.1523ZM136.827 21.6641V21.0641H131.675V21.6641V22.2641H136.827V21.6641ZM131.675 21.6641H132.275V1.28027H131.675H131.075V21.6641H131.675ZM131.675 1.28027V1.88027H136.268V1.28027V0.680273H131.675V1.28027ZM162.638 4.80859V4.20859H156.897V4.80859V5.40859H162.638V4.80859ZM156.897 4.80859H156.297V9.34375H156.897H157.497V4.80859H156.897ZM156.897 9.34375V9.94375H161.966V9.34375V8.74375H156.897V9.34375ZM161.966 9.34375H161.366V12.8721H161.966H162.566V9.34375H161.966ZM161.966 12.8721V12.2721H156.897V12.8721V13.4721H161.966V12.8721ZM156.897 12.8721H156.297V18.1357H156.897H157.497V12.8721H156.897ZM156.897 18.1357V18.7357H162.638V18.1357V17.5357H156.897V18.1357ZM162.638 18.1357H162.038V21.6641H162.638H163.238V18.1357H162.638ZM162.638 21.6641V21.0641H153.37V21.6641V22.2641H162.638V21.6641ZM153.37 21.6641H153.97V1.28027H153.37H152.77V21.6641H153.37ZM153.37 1.28027V1.88027H162.638V1.28027V0.680273H153.37V1.28027ZM162.638 1.28027H162.038V4.80859H162.638H163.238V1.28027H162.638ZM178.152 1.28027V1.88027C179.432 1.88027 180.502 2.32196 181.396 3.21627L181.82 2.79199L182.245 2.36772C181.123 1.2462 179.747 0.680273 178.152 0.680273V1.28027ZM181.82 2.79199L181.396 3.21626C182.292 4.11223 182.732 5.17378 182.732 6.43262H183.332H183.932C183.932 4.85412 183.365 3.48775 182.245 2.36773L181.82 2.79199ZM183.332 6.43262H182.732V7.71973H183.332H183.932V6.43262H183.332ZM183.332 7.71973H182.732C182.732 8.51532 182.543 9.24489 182.165 9.91839L182.688 10.2119L183.212 10.5054C183.693 9.64838 183.932 8.71598 183.932 7.71973H183.332ZM182.688 10.2119L182.163 9.92276C181.801 10.5805 181.302 11.1137 180.657 11.5271L180.98 12.0322L181.304 12.5374C182.115 12.0174 182.755 11.3367 183.214 10.5011L182.688 10.2119ZM180.98 12.0322L180.417 12.2371L183.917 21.869L184.48 21.6641L185.044 21.4591L181.544 11.8273L180.98 12.0322ZM184.48 21.6641V21.0641H180.729V21.6641V22.2641H184.48V21.6641ZM180.729 21.6641L181.294 21.4625L178.158 12.6705L177.593 12.8721L177.028 13.0736L180.163 21.8656L180.729 21.6641ZM177.593 12.8721V12.2721H177.089V12.8721V13.4721H177.593V12.8721ZM177.089 12.8721H176.489V21.6641H177.089H177.689V12.8721H177.089ZM177.089 21.6641V21.0641H173.561V21.6641V22.2641H177.089V21.6641ZM173.561 21.6641H174.161V1.28027H173.561H172.961V21.6641H173.561ZM173.561 1.28027V1.88027H178.152V1.28027V0.680273H173.561V1.28027ZM199.245 1.28027V1.88027C200.525 1.88027 201.594 2.32201 202.489 3.21628L202.913 2.79199L203.337 2.36771C202.216 1.24628 200.84 0.680273 199.245 0.680273V1.28027ZM202.913 2.79199L202.489 3.21626C203.385 4.11244 203.826 5.17408 203.826 6.43262H204.426H205.026C205.026 4.85382 204.457 3.48754 203.337 2.36773L202.913 2.79199ZM204.426 6.43262H203.826V7.71973H204.426H205.026V6.43262H204.426ZM204.426 7.71973H203.826C203.826 8.97827 203.385 10.0399 202.489 10.9361L202.913 11.3604L203.337 11.7846C204.457 10.6648 205.026 9.29852 205.026 7.71973H204.426ZM202.913 11.3604L202.489 10.9361C201.594 11.8303 200.525 12.2721 199.245 12.2721V12.8721V13.4721C200.84 13.4721 202.216 12.9061 203.337 11.7846L202.913 11.3604ZM199.245 12.8721V12.2721H198.182V12.8721V13.4721H199.245V12.8721ZM198.182 12.8721H197.582V21.6641H198.182H198.782V12.8721H198.182ZM198.182 21.6641V21.0641H194.653V21.6641V22.2641H198.182V21.6641ZM194.653 21.6641H195.253V1.28027H194.653H194.053V21.6641H194.653ZM194.653 1.28027V1.88027H199.245V1.28027V0.680273H194.653V1.28027ZM244.984 12.4238H245.584V1.28027H244.984H244.384V12.4238H244.984ZM244.984 1.28027V1.88027H248.513V1.28027V0.680273H244.984V1.28027ZM248.513 1.28027H247.913V21.6641H248.513H249.113V1.28027H248.513ZM248.513 21.6641V21.0641H244.984V21.6641V22.2641H248.513V21.6641ZM244.984 21.6641L245.541 21.4391L241.033 10.2955L240.477 10.5205L239.92 10.7455L244.428 21.8891L244.984 21.6641ZM240.477 10.5205H239.877V21.6641H240.477H241.077V10.5205H240.477ZM240.477 21.6641V21.0641H236.948V21.6641V22.2641H240.477V21.6641ZM236.948 21.6641H237.548V1.28027H236.948H236.348V21.6641H236.948ZM236.948 1.28027V1.88027H240.477V1.28027V0.680273H236.948V1.28027ZM240.477 1.28027L239.92 1.50527L244.428 12.6488L244.984 12.4238L245.541 12.1988L241.033 1.05527L240.477 1.28027ZM263.702 9.87598L264.249 10.122L268.114 1.52629L267.566 1.28027L267.019 1.03426L263.155 9.62996L263.702 9.87598ZM267.566 1.28027V1.88027H271.486V1.28027V0.680273H267.566V1.28027ZM271.486 1.28027L270.949 1.01413L266.805 9.3862L267.343 9.65234L267.881 9.91849L272.024 1.54642L271.486 1.28027ZM267.343 9.65234L266.79 9.88449L271.83 21.8962L272.383 21.6641L272.936 21.4319L267.896 9.4202L267.343 9.65234ZM272.383 21.6641V21.0641H268.547V21.6641V22.2641H272.383V21.6641ZM268.547 21.6641L269.105 21.4449L265.941 13.3814L265.383 13.6006L264.824 13.8198L267.988 21.8832L268.547 21.6641ZM265.383 13.6006L264.846 13.3321L263.166 16.6915L263.702 16.96L264.239 17.2284L265.919 13.869L265.383 13.6006ZM263.702 16.96H263.102V21.6641H263.702H264.302V16.96H263.702ZM263.702 21.6641V21.0641H260.175V21.6641V22.2641H263.702V21.6641ZM260.175 21.6641H260.775V1.28027H260.175H259.575V21.6641H260.175ZM260.175 1.28027V1.88027H263.702V1.28027V0.680273H260.175V1.28027ZM263.702 1.28027H263.102V9.87598H263.702H264.302V1.28027H263.702ZM326.759 12.4238H327.359V1.28027H326.759H326.159V12.4238H326.759ZM326.759 1.28027V1.88027H330.287V1.28027V0.680273H326.759V1.28027ZM330.287 1.28027H329.687V21.6641H330.287H330.887V1.28027H330.287ZM330.287 21.6641V21.0641H326.759V21.6641V22.2641H330.287V21.6641ZM326.759 21.6641L327.315 21.4391L322.807 10.2955L322.251 10.5205L321.695 10.7455L326.203 21.8891L326.759 21.6641ZM322.251 10.5205H321.651V21.6641H322.251H322.851V10.5205H322.251ZM322.251 21.6641V21.0641H318.723V21.6641V22.2641H322.251V21.6641ZM318.723 21.6641H319.323V1.28027H318.723H318.123V21.6641H318.723ZM318.723 1.28027V1.88027H322.251V1.28027V0.680273H318.723V1.28027ZM322.251 1.28027L321.695 1.50527L326.203 12.6488L326.759 12.4238L327.315 12.1988L322.807 1.05527L322.251 1.28027ZM345.477 21.6641V21.0641H341.948V21.6641V22.2641H345.477V21.6641ZM341.948 21.6641H342.548V9.95215H341.948H341.348V21.6641H341.948ZM341.948 9.95215V10.5521H345.477V9.95215V9.35215H341.948V9.95215ZM345.477 9.95215H344.877V21.6641H345.477H346.077V9.95215H345.477ZM361.53 14.1885L362.122 14.2873L364.278 1.37913L363.687 1.28027L363.095 1.18142L360.938 14.0896L361.53 14.1885ZM363.687 1.28027V1.88027H367.299V1.28027V0.680273H363.687V1.28027ZM367.299 1.28027L366.71 1.16463L362.706 21.5484L363.295 21.6641L363.884 21.7797L367.888 1.39592L367.299 1.28027ZM363.295 21.6641V21.0641H359.767V21.6641V22.2641H363.295V21.6641ZM359.767 21.6641L360.355 21.5484L356.351 1.16463L355.763 1.28027L355.174 1.39592L359.178 21.7797L359.767 21.6641ZM355.763 1.28027V1.88027H359.375V1.28027V0.680273H355.763V1.28027ZM359.375 1.28027L358.783 1.37909L360.938 14.2873L361.53 14.1885L362.122 14.0897L359.967 1.18146L359.375 1.28027ZM386.84 4.80859V4.20859H381.101V4.80859V5.40859H386.84V4.80859ZM381.101 4.80859H380.501V9.34375H381.101H381.701V4.80859H381.101ZM381.101 9.34375V9.94375H386.168V9.34375V8.74375H381.101V9.34375ZM386.168 9.34375H385.568V12.8721H386.168H386.768V9.34375H386.168ZM386.168 12.8721V12.2721H381.101V12.8721V13.4721H386.168V12.8721ZM381.101 12.8721H380.501V18.1357H381.101H381.701V12.8721H381.101ZM381.101 18.1357V18.7357H386.84V18.1357V17.5357H381.101V18.1357ZM386.84 18.1357H386.24V21.6641H386.84H387.44V18.1357H386.84ZM386.84 21.6641V21.0641H377.572V21.6641V22.2641H386.84V21.6641ZM377.572 21.6641H378.172V1.28027H377.572H376.972V21.6641H377.572ZM377.572 1.28027V1.88027H386.84V1.28027V0.680273H377.572V1.28027ZM386.84 1.28027H386.24V4.80859H386.84H387.44V1.28027H386.84ZM402.354 1.28027V1.88027C403.634 1.88027 404.704 2.32202 405.598 3.21628L406.022 2.79199L406.447 2.3677C405.325 1.24628 403.949 0.680273 402.354 0.680273V1.28027ZM406.022 2.79199L405.598 3.21626C406.494 4.11244 406.935 5.17408 406.935 6.43262H407.535H408.135C408.135 4.85382 407.567 3.48754 406.447 2.36773L406.022 2.79199ZM407.535 6.43262H406.935V7.71973H407.535H408.135V6.43262H407.535ZM407.535 7.71973H406.935C406.935 8.5149 406.745 9.24448 406.367 9.91838L406.891 10.2119L407.414 10.5055C407.894 9.64875 408.135 8.71647 408.135 7.71973H407.535ZM406.891 10.2119L406.365 9.92276C406.003 10.5805 405.504 11.1137 404.859 11.5271L405.183 12.0322L405.506 12.5374C406.317 12.0174 406.957 11.3367 407.416 10.5011L406.891 10.2119ZM405.183 12.0322L404.619 12.2371L408.119 21.869L408.683 21.6641L409.247 21.4591L405.747 11.8273L405.183 12.0322ZM408.683 21.6641V21.0641H404.931V21.6641V22.2641H408.683V21.6641ZM404.931 21.6641L405.496 21.4625L402.36 12.6705L401.795 12.8721L401.23 13.0736L404.366 21.8656L404.931 21.6641ZM401.795 12.8721V12.2721H401.291V12.8721V13.4721H401.795V12.8721ZM401.291 12.8721H400.691V21.6641H401.291H401.891V12.8721H401.291ZM401.291 21.6641V21.0641H397.763V21.6641V22.2641H401.291V21.6641ZM397.763 21.6641H398.363V1.28027H397.763H397.163V21.6641H397.763ZM397.763 1.28027V1.88027H402.354V1.28027V0.680273H397.763V1.28027ZM449.217 4.80859V4.20859H443.477V4.80859V5.40859H449.217V4.80859ZM443.477 4.80859H442.877V9.34375H443.477H444.077V4.80859H443.477ZM443.477 9.34375V9.94375H448.545V9.34375V8.74375H443.477V9.34375ZM448.545 9.34375H447.945V12.8721H448.545H449.145V9.34375H448.545ZM448.545 12.8721V12.2721H443.477V12.8721V13.4721H448.545V12.8721ZM443.477 12.8721H442.877V18.1357H443.477H444.077V12.8721H443.477ZM443.477 18.1357V18.7357H449.217V18.1357V17.5357H443.477V18.1357ZM449.217 18.1357H448.617V21.6641H449.217H449.817V18.1357H449.217ZM449.217 21.6641V21.0641H439.948V21.6641V22.2641H449.217V21.6641ZM439.948 21.6641H440.548V1.28027H439.948H439.348V21.6641H439.948ZM439.948 1.28027V1.88027H449.217V1.28027V0.680273H439.948V1.28027ZM449.217 1.28027H448.617V4.80859H449.217H449.817V1.28027H449.217ZM135.203 18.1357V18.7357H136.827V18.1357V17.5357H135.203V18.1357ZM136.827 18.1357V18.7357C137.446 18.7357 137.992 18.5192 138.427 18.0845L138.003 17.6602L137.579 17.2358C137.379 17.4355 137.142 17.5357 136.827 17.5357V18.1357ZM138.003 17.6602L138.427 18.0844C138.857 17.655 139.079 17.1195 139.079 16.5117H138.479H137.879C137.879 16.7999 137.784 17.0306 137.579 17.2359L138.003 17.6602ZM138.479 16.5117H139.079V14.4961H138.479H137.879V16.5117H138.479ZM138.479 14.4961L139.079 14.4961C139.079 13.8879 138.856 13.3534 138.427 12.9244L138.003 13.3486L137.579 13.7729C137.784 13.9784 137.879 14.2084 137.879 14.4961L138.479 14.4961ZM138.003 13.3486L138.427 12.9244C137.993 12.49 137.446 12.2721 136.827 12.2721V12.8721V13.4721C137.141 13.4721 137.378 13.5726 137.579 13.7729L138.003 13.3486ZM136.827 12.8721V12.2721H135.203V12.8721V13.4721H136.827V12.8721ZM135.203 12.8721H134.603V18.1357H135.203H135.803V12.8721H135.203ZM218.481 12.6641V12.0641H214.953V12.6641V13.2641H218.481V12.6641ZM214.953 12.6641H215.553V11.6641H214.953H214.353V12.6641H214.953ZM214.953 11.6641V12.2641H218.481V11.6641V11.0641H214.953V11.6641ZM218.481 11.6641H217.881V12.6641H218.481H219.081V11.6641H218.481ZM225.285 12.6641V12.0641H221.758V12.6641V13.2641H225.285V12.6641ZM221.758 12.6641H222.358V11.6641H221.758H221.158V12.6641H221.758ZM221.758 11.6641V12.2641H225.285V11.6641V11.0641H221.758V11.6641ZM225.285 11.6641H224.685V12.6641H225.285H225.885V11.6641H225.285ZM93.999 11.9521V11.3521H90.4707V11.9521V12.5521H93.999V11.9521ZM90.4707 11.9521H91.0707V10.9521H90.4707H89.8707V11.9521H90.4707ZM90.4707 10.9521V11.5521H93.999V10.9521V10.3521H90.4707V10.9521ZM93.999 10.9521H93.399V11.9521H93.999H94.599V10.9521H93.999ZM218.481 10.6641V10.0641H214.953V10.6641V11.2641H218.481V10.6641ZM214.953 10.6641H215.553V9.66406H214.953H214.353V10.6641H214.953ZM214.953 9.66406V10.2641H218.481V9.66406V9.06406H214.953V9.66406ZM218.481 9.66406H217.881V10.6641H218.481H219.081V9.66406H218.481ZM225.285 10.6641V10.0641H221.758V10.6641V11.2641H225.285V10.6641ZM221.758 10.6641H222.358V9.66406H221.758H221.158V10.6641H221.758ZM221.758 9.66406V10.2641H225.285V9.66406V9.06406H221.758V9.66406ZM225.285 9.66406H224.685V10.6641H225.285H225.885V9.66406H225.285ZM93.999 9.95215V9.35215H90.4707V9.95215V10.5521H93.999V9.95215ZM90.4707 9.95215H91.0707V8.95215H90.4707H89.8707V9.95215H90.4707ZM90.4707 8.95215V9.55215H93.999V8.95215V8.35215H90.4707V8.95215ZM93.999 8.95215H93.399V9.95215H93.999H94.599V8.95215H93.999ZM135.203 9.34375V9.94375H136.268V9.34375V8.74375H135.203V9.34375ZM136.268 9.34375L136.268 9.94375C136.886 9.94366 137.433 9.72738 137.868 9.29243L137.443 8.86816L137.019 8.4439C136.82 8.64347 136.582 8.7437 136.267 8.74375L136.268 9.34375ZM137.443 8.86816L137.868 9.29242C138.298 8.8624 138.519 8.32659 138.519 7.71973H137.919H137.319C137.319 8.00883 137.224 8.23928 137.019 8.44391L137.443 8.86816ZM137.919 7.71973H138.519V6.43262H137.919H137.319V7.71973H137.919ZM137.919 6.43262H138.519C138.519 5.82576 138.298 5.28994 137.868 4.85994L137.443 5.28418L137.019 5.70842C137.224 5.91306 137.319 6.14354 137.319 6.43262H137.919ZM137.443 5.28418L137.868 4.85992C137.433 4.42496 136.886 4.20869 136.268 4.20859L136.268 4.80859L136.267 5.40859C136.582 5.40864 136.82 5.50888 137.019 5.70844L137.443 5.28418ZM136.268 4.80859V4.20859H135.203V4.80859V5.40859H136.268V4.80859ZM135.203 4.80859H134.603V9.34375H135.203H135.803V4.80859H135.203ZM177.089 9.34375V9.94375H178.152V9.34375V8.74375H177.089V9.34375ZM178.152 9.34375V9.94375C178.771 9.94375 179.317 9.72727 179.752 9.29248L179.328 8.86816L178.904 8.44385C178.704 8.64352 178.467 8.74375 178.152 8.74375V9.34375ZM179.328 8.86816L179.752 9.29243C180.182 8.86305 180.405 8.32753 180.405 7.71973H179.805H179.205C179.205 8.00792 179.109 8.23861 178.904 8.4439L179.328 8.86816ZM179.805 7.71973H180.405V6.43262H179.805H179.205V7.71973H179.805ZM179.805 6.43262H180.405C180.405 5.82481 180.182 5.28929 179.752 4.85992L179.328 5.28418L178.904 5.70844C179.109 5.91374 179.205 6.14442 179.205 6.43262H179.805ZM179.328 5.28418L179.752 4.85987C179.317 4.42506 178.771 4.20859 178.152 4.20859V4.80859V5.40859C178.467 5.40859 178.704 5.50881 178.904 5.70849L179.328 5.28418ZM178.152 4.80859V4.20859H177.089V4.80859V5.40859H178.152V4.80859ZM177.089 4.80859H176.489V9.34375H177.089H177.689V4.80859H177.089ZM198.182 9.34375V9.94375H199.245V9.34375V8.74375H198.182V9.34375ZM199.245 9.34375V9.94375C199.863 9.94375 200.411 9.72766 200.846 9.29243L200.422 8.86816L199.998 8.4439C199.798 8.64333 199.56 8.74375 199.245 8.74375V9.34375ZM200.422 8.86816L200.846 9.29235C201.276 8.86245 201.497 8.32657 201.497 7.71973H200.897H200.297C200.297 8.00867 200.202 8.2393 199.998 8.44397L200.422 8.86816ZM200.897 7.71973H201.497V6.43262H200.897H200.297V7.71973H200.897ZM200.897 6.43262H201.497C201.497 5.82578 201.276 5.28989 200.846 4.86L200.422 5.28418L199.998 5.70836C200.202 5.91304 200.297 6.1437 200.297 6.43262H200.897ZM200.422 5.28418L200.846 4.85992C200.411 4.42468 199.863 4.20859 199.245 4.20859V4.80859V5.40859C199.56 5.40859 199.798 5.50901 199.998 5.70844L200.422 5.28418ZM199.245 4.80859V4.20859H198.182V4.80859V5.40859H199.245V4.80859ZM198.182 4.80859H197.582V9.34375H198.182H198.782V4.80859H198.182ZM401.291 9.34375V9.94375H402.354V9.34375V8.74375H401.291V9.34375ZM402.354 9.34375V9.94375C402.973 9.94375 403.52 9.72766 403.956 9.29243L403.531 8.86816L403.107 8.4439C402.908 8.64333 402.67 8.74375 402.354 8.74375V9.34375ZM403.531 8.86816L403.956 9.29236C404.385 8.86245 404.607 8.32657 404.607 7.71973H404.007H403.407C403.407 8.00867 403.312 8.2393 403.107 8.44397L403.531 8.86816ZM404.007 7.71973H404.607V6.43262H404.007H403.407V7.71973H404.007ZM404.007 6.43262H404.607C404.607 5.82578 404.385 5.28989 403.956 4.85999L403.531 5.28418L403.107 5.70836C403.311 5.91304 403.407 6.14369 403.407 6.43262H404.007ZM403.531 5.28418L403.956 4.85992C403.52 4.42468 402.973 4.20859 402.354 4.20859V4.80859V5.40859C402.67 5.40859 402.908 5.50901 403.107 5.70844L403.531 5.28418ZM402.354 4.80859V4.20859H401.291V4.80859V5.40859H402.354V4.80859ZM401.291 4.80859H400.691V9.34375H401.291H401.891V4.80859H401.291ZM345.477 8.95215V8.35215H341.948V8.95215V9.55215H345.477V8.95215ZM341.948 8.95215H342.548V7.95215H341.948H341.348V8.95215H341.948ZM341.948 7.95215V8.55215H345.477V7.95215V7.35215H341.948V7.95215ZM345.477 7.95215H344.877V8.95215H345.477H346.077V7.95215H345.477ZM218.481 8.66406V8.06406H214.953V8.66406V9.26406H218.481V8.66406ZM214.953 8.66406H215.553V1.28027H214.953H214.353V8.66406H214.953ZM214.953 1.28027V1.88027H218.481V1.28027V0.680273H214.953V1.28027ZM218.481 1.28027H217.881V8.66406H218.481H219.081V1.28027H218.481ZM225.285 8.66406V8.06406H221.758V8.66406V9.26406H225.285V8.66406ZM221.758 8.66406H222.358V1.28027H221.758H221.158V8.66406H221.758ZM221.758 1.28027V1.88027H225.285V1.28027V0.680273H221.758V1.28027ZM225.285 1.28027H224.685V8.66406H225.285H225.885V1.28027H225.285ZM95.623 1V1.6C96.9027 1.6 97.9724 2.04175 98.8668 2.93601L99.291 2.51172L99.7153 2.08743C98.5937 0.966014 97.2179 0.4 95.623 0.4V1ZM99.291 2.51172L98.8668 2.93598C99.7627 3.83196 100.203 4.89351 100.203 6.15234H100.803H101.403C101.403 4.57385 100.835 3.20748 99.7153 2.08745L99.291 2.51172ZM100.803 6.15234H100.203V7.07617H100.803H101.403V6.15234H100.803ZM100.803 7.07617V6.47617H97.2754V7.07617V7.67617H100.803V7.07617ZM97.2754 7.07617H97.8754V6.15234H97.2754H96.6754V7.07617H97.2754ZM97.2754 6.15234H97.8754C97.8754 5.54454 97.6525 5.00902 97.2231 4.57964L96.7988 5.00391L96.3746 5.42817C96.5799 5.63346 96.6754 5.86415 96.6754 6.15234H97.2754ZM96.7988 5.00391L97.223 4.57956C96.7882 4.14489 96.2414 3.92832 95.623 3.92832V4.52832V5.12832C95.9378 5.12832 96.1749 5.22859 96.3746 5.42825L96.7988 5.00391ZM95.623 4.52832L95.623 3.92832C95.0162 3.92833 94.4804 4.1496 94.0503 4.57964L94.4746 5.00391L94.8989 5.42817C95.1035 5.22356 95.3339 5.12832 95.6231 5.12832L95.623 4.52832ZM94.4746 5.00391L94.0503 4.57968C93.6204 5.00965 93.399 5.54549 93.399 6.15234H93.999H94.599C94.599 5.8633 94.6943 5.63278 94.8989 5.42813L94.4746 5.00391ZM93.999 6.15234H93.399V7.95215H93.999H94.599V6.15234H93.999ZM93.999 7.95215V7.35215H90.4707V7.95215V8.55215H93.999V7.95215ZM90.4707 7.95215H91.0707V6.15234H90.4707H89.8707V7.95215H90.4707ZM90.4707 6.15234H91.0707C91.0707 4.8938 91.5115 3.83217 92.4077 2.93598L91.9834 2.51172L91.5591 2.08745C90.4393 3.20727 89.8707 4.57355 89.8707 6.15234H90.4707ZM91.9834 2.51172L92.4076 2.93602C93.3036 2.04015 94.3646 1.60001 95.623 1.6L95.623 1L95.623 0.4C94.0446 0.400008 92.679 0.9678 91.5592 2.08742L91.9834 2.51172ZM345.477 6.95215V6.35215H341.948V6.95215V7.55215H345.477V6.95215ZM341.948 6.95215H342.548V5.95215H341.948H341.348V6.95215H341.948ZM341.948 5.95215V6.55215H345.477V5.95215V5.35215H341.948V5.95215ZM345.477 5.95215H344.877V6.95215H345.477H346.077V5.95215H345.477ZM345.477 4.95215V4.35215H341.948V4.95215V5.55215H345.477V4.95215ZM341.948 4.95215H342.548V1.28027H341.948H341.348V4.95215H341.948ZM341.948 1.28027V1.88027H345.477V1.28027V0.680273H341.948V1.28027ZM345.477 1.28027H344.877V4.95215H345.477H346.077V1.28027H345.477Z" fill="url(#paint1_linear_7_293)" mask="url(#path-1-inside-1_7_293)"/>
<defs>
<radialGradient id="paint0_radial_7_293" cx="0" cy="0" r="1" gradientUnits="userSpaceOnUse" gradientTransform="translate(269.226 11.7474) rotate(90) scale(54.3276 233.496)">
<stop stop-color="#ECF7FF"/>
<stop offset="1" stop-color="#ECF7FF" stop-opacity="0"/>
</radialGradient>
<linearGradient id="paint1_linear_7_293" x1="269.226" y1="-8.03681" x2="269.226" y2="63.9319" gradientUnits="userSpaceOnUse">
<stop stop-color="#253596" stop-opacity="0"/>
<stop offset="0.456017" stop-color="#4A76D4"/>
<stop offset="1" stop-color="#76EAF1"/>
</linearGradient>
</defs>
</svg>
