<svg width="370" height="22" viewBox="0 0 370 22" fill="none" xmlns="http://www.w3.org/2000/svg">
<mask id="path-1-inside-1_7_533" fill="white">
<path d="M58.6787 11.2803C58.6788 11.6001 58.792 11.8731 59.0186 12.0996C59.2452 12.3263 59.5189 12.4395 59.8389 12.4395C60.172 12.4394 60.4521 12.3262 60.6787 12.0996C60.9051 11.8731 61.0185 11.6 61.0186 11.2803V10.6201H63.5381V11.2803C63.538 12.2934 63.1779 13.16 62.458 13.8799C61.7382 14.5996 60.8652 14.9599 59.8389 14.96C58.8255 14.96 57.9583 14.5999 57.2383 13.8799C56.5184 13.16 56.1583 12.2934 56.1582 11.2803V10.0957H58.6787V11.2803ZM152.454 11.2998C152.454 12.3131 152.094 13.1794 151.374 13.8994C150.654 14.6061 149.781 14.96 148.754 14.96C147.741 14.9599 146.874 14.606 146.154 13.8994C145.434 13.1795 145.074 12.313 145.074 11.2998V10.0957H147.595V11.2998C147.595 11.6065 147.708 11.8729 147.935 12.0996C148.161 12.3262 148.434 12.4393 148.754 12.4395C149.087 12.4395 149.368 12.3335 149.595 12.1201C149.821 11.8935 149.935 11.6198 149.935 11.2998V10.0957H152.454V11.2998ZM206.005 11.2998C206.005 11.6065 206.118 11.8729 206.345 12.0996C206.571 12.3262 206.844 12.4393 207.164 12.4395C207.497 12.4395 207.778 12.3335 208.005 12.1201C208.232 11.8935 208.345 11.6198 208.345 11.2998V0.200195H210.864V11.2998C210.864 12.3131 210.504 13.1794 209.784 13.8994C209.064 14.6061 208.191 14.96 207.164 14.96C206.151 14.9599 205.284 14.606 204.564 13.8994C203.845 13.1795 203.484 12.313 203.484 11.2998V0.200195H206.005V11.2998ZM294.079 0C295.106 5.0884e-05 295.979 0.360129 296.699 1.08008C297.419 1.79998 297.779 2.66656 297.779 3.67969V4.33984H295.259V3.67969C295.259 3.35976 295.146 3.086 294.919 2.85938C294.692 2.6329 294.412 2.51958 294.079 2.51953C293.759 2.51953 293.485 2.63284 293.259 2.85938C293.032 3.086 292.919 3.35976 292.919 3.67969V3.91992C292.919 4.51989 293.139 5.00656 293.579 5.37988L296.239 7.66016C297.266 8.56677 297.779 9.69353 297.779 11.04V11.2803C297.779 12.2934 297.419 13.16 296.699 13.8799C295.979 14.5998 295.106 14.9599 294.079 14.96C293.066 14.96 292.199 14.5999 291.479 13.8799C290.759 13.16 290.399 12.2933 290.398 11.2803V10.6201H292.919V11.2803C292.919 11.6 293.032 11.8731 293.259 12.0996C293.485 12.3263 293.759 12.4395 294.079 12.4395C294.412 12.4394 294.692 12.3262 294.919 12.0996C295.145 11.8731 295.259 11.6 295.259 11.2803V11.04C295.259 10.44 295.039 9.95341 294.599 9.58008L291.938 7.2998C290.912 6.39319 290.398 5.26645 290.398 3.91992V3.67969C290.398 2.66656 290.759 1.79998 291.479 1.08008C292.199 0.360078 293.066 0 294.079 0ZM74.1123 5.71973L75.5332 0.200195H78.2529L75.373 8.5V14.7598H72.8525V8.5L69.9727 0.200195H72.6924L74.1123 5.71973ZM88.8701 0.200195C89.8967 0.200228 90.7703 0.560306 91.4902 1.28027C92.21 2.00021 92.5703 2.86671 92.5703 3.87988V4.7998C92.5703 5.62635 92.3233 6.35289 91.8301 6.97949C92.59 7.71278 92.9697 8.59974 92.9697 9.63965V11.0801C92.9697 12.0933 92.6096 12.9597 91.8896 13.6797C91.1697 14.3996 90.2962 14.7598 89.2695 14.7598H85.5898V0.200195H88.8701ZM107.706 2.71973H103.606V5.95996H107.226V8.47949H103.606V12.2402H107.706V14.7598H101.086V0.200195H107.706V2.71973ZM118.788 0.200195C119.815 0.200228 120.688 0.560306 121.408 1.28027C122.128 2.00021 122.488 2.86671 122.488 3.87988V4.7998C122.488 5.43981 122.335 6.03341 122.028 6.58008C121.735 7.1134 121.328 7.54655 120.808 7.87988L123.308 14.7598H120.628L118.388 8.47949H118.028V14.7598H115.508V0.200195H118.788ZM133.854 0.200195C134.881 0.200228 135.755 0.560306 136.475 1.28027C137.194 2.00021 137.555 2.86671 137.555 3.87988V4.7998C137.555 5.81298 137.194 6.67948 136.475 7.39941C135.755 8.11938 134.881 8.47946 133.854 8.47949H133.095V14.7598H130.574V0.200195H133.854ZM166.525 8.16016V0.200195H169.045V14.7598H166.525L163.306 6.7998V14.7598H160.785V0.200195H163.306L166.525 8.16016ZM179.896 6.33984L182.655 0.200195H185.455L182.495 6.17969L186.095 14.7598H183.355L181.095 9L179.896 11.3994V14.7598H177.375V0.200195H179.896V6.33984ZM224.936 8.16016V0.200195H227.455V14.7598H224.936L221.716 6.7998V14.7598H219.195V0.200195H221.716L224.936 8.16016ZM238.306 14.7598H235.785V8.0957H238.306V14.7598ZM249.772 9.41992L251.312 0.200195H253.893L251.032 14.7598H248.513L245.652 0.200195H248.232L249.772 9.41992ZM267.851 2.71973H263.751V5.95996H267.37V8.47949H263.751V12.2402H267.851V14.7598H261.23V0.200195H267.851V2.71973ZM278.933 0.200195C279.959 0.200228 280.833 0.560306 281.553 1.28027C282.273 2.00021 282.633 2.86671 282.633 3.87988V4.7998C282.633 5.43981 282.48 6.03341 282.173 6.58008C281.88 7.1134 281.472 7.54655 280.952 7.87988L283.452 14.7598H280.772L278.532 8.47949H278.173V14.7598H275.652V0.200195H278.933ZM312.405 2.71973H308.306V5.95996H311.925V8.47949H308.306V12.2402H312.405V14.7598H305.785V0.200195H312.405V2.71973ZM88.1104 12.2402H89.2695C89.6029 12.2402 89.8837 12.1261 90.1104 11.8994C90.3367 11.6729 90.4501 11.3998 90.4502 11.0801V9.63965C90.4501 9.31993 90.3367 9.04685 90.1104 8.82031C89.8837 8.59365 89.6029 8.47949 89.2695 8.47949H88.1104V12.2402ZM147.595 9.0957H145.074V8.0957H147.595V9.0957ZM152.454 9.0957H149.935V8.0957H152.454V9.0957ZM58.6787 9.0957H56.1582V8.0957H58.6787V9.0957ZM147.595 7.0957H145.074V6.0957H147.595V7.0957ZM152.454 7.0957H149.935V6.0957H152.454V7.0957ZM58.6787 7.0957H56.1582V6.0957H58.6787V7.0957ZM238.306 7.0957H235.785V6.0957H238.306V7.0957ZM88.1104 5.95996H88.8701C89.2033 5.95993 89.4834 5.84666 89.71 5.62012C89.9366 5.39345 90.0498 5.1198 90.0498 4.7998V3.87988C90.0498 3.55988 89.9366 3.28624 89.71 3.05957C89.4834 2.83303 89.2033 2.71976 88.8701 2.71973H88.1104V5.95996ZM118.028 5.95996H118.788C119.121 5.95993 119.401 5.84666 119.628 5.62012C119.855 5.39345 119.968 5.1198 119.968 4.7998V3.87988C119.968 3.55988 119.855 3.28624 119.628 3.05957C119.401 2.83303 119.121 2.71976 118.788 2.71973H118.028V5.95996ZM133.095 5.95996H133.854C134.188 5.95993 134.468 5.84666 134.694 5.62012C134.921 5.39345 135.034 5.1198 135.034 4.7998V3.87988C135.034 3.55988 134.921 3.28624 134.694 3.05957C134.468 2.83303 134.188 2.71976 133.854 2.71973H133.095V5.95996ZM278.173 5.95996H278.933C279.266 5.95993 279.546 5.84666 279.772 5.62012C279.999 5.39345 280.112 5.1198 280.112 4.7998V3.87988C280.112 3.55988 279.999 3.28624 279.772 3.05957C279.546 2.83303 279.266 2.71976 278.933 2.71973H278.173V5.95996ZM147.595 5.0957H145.074V0.200195H147.595V5.0957ZM152.454 5.0957H149.935V0.200195H152.454V5.0957ZM59.8389 0C60.8653 0.000105686 61.7381 0.360244 62.458 1.08008C63.178 1.80004 63.538 2.66642 63.5381 3.67969V4.33984H61.0186V3.67969C61.0185 3.35976 60.9053 3.086 60.6787 2.85938C60.4522 2.63287 60.172 2.51963 59.8389 2.51953C59.519 2.51953 59.2452 2.63291 59.0186 2.85938C58.7919 3.086 58.6787 3.35976 58.6787 3.67969V5.0957H56.1582V3.67969C56.1582 2.66651 56.5184 1.8 57.2383 1.08008C57.9583 0.360078 58.8255 0 59.8389 0ZM238.306 5.0957H235.785V4.0957H238.306V5.0957ZM238.306 3.0957H235.785V0.200195H238.306V3.0957Z"/>
</mask>
<path d="M58.6787 11.2803C58.6788 11.6001 58.792 11.8731 59.0186 12.0996C59.2452 12.3263 59.5189 12.4395 59.8389 12.4395C60.172 12.4394 60.4521 12.3262 60.6787 12.0996C60.9051 11.8731 61.0185 11.6 61.0186 11.2803V10.6201H63.5381V11.2803C63.538 12.2934 63.1779 13.16 62.458 13.8799C61.7382 14.5996 60.8652 14.9599 59.8389 14.96C58.8255 14.96 57.9583 14.5999 57.2383 13.8799C56.5184 13.16 56.1583 12.2934 56.1582 11.2803V10.0957H58.6787V11.2803ZM152.454 11.2998C152.454 12.3131 152.094 13.1794 151.374 13.8994C150.654 14.6061 149.781 14.96 148.754 14.96C147.741 14.9599 146.874 14.606 146.154 13.8994C145.434 13.1795 145.074 12.313 145.074 11.2998V10.0957H147.595V11.2998C147.595 11.6065 147.708 11.8729 147.935 12.0996C148.161 12.3262 148.434 12.4393 148.754 12.4395C149.087 12.4395 149.368 12.3335 149.595 12.1201C149.821 11.8935 149.935 11.6198 149.935 11.2998V10.0957H152.454V11.2998ZM206.005 11.2998C206.005 11.6065 206.118 11.8729 206.345 12.0996C206.571 12.3262 206.844 12.4393 207.164 12.4395C207.497 12.4395 207.778 12.3335 208.005 12.1201C208.232 11.8935 208.345 11.6198 208.345 11.2998V0.200195H210.864V11.2998C210.864 12.3131 210.504 13.1794 209.784 13.8994C209.064 14.6061 208.191 14.96 207.164 14.96C206.151 14.9599 205.284 14.606 204.564 13.8994C203.845 13.1795 203.484 12.313 203.484 11.2998V0.200195H206.005V11.2998ZM294.079 0C295.106 5.0884e-05 295.979 0.360129 296.699 1.08008C297.419 1.79998 297.779 2.66656 297.779 3.67969V4.33984H295.259V3.67969C295.259 3.35976 295.146 3.086 294.919 2.85938C294.692 2.6329 294.412 2.51958 294.079 2.51953C293.759 2.51953 293.485 2.63284 293.259 2.85938C293.032 3.086 292.919 3.35976 292.919 3.67969V3.91992C292.919 4.51989 293.139 5.00656 293.579 5.37988L296.239 7.66016C297.266 8.56677 297.779 9.69353 297.779 11.04V11.2803C297.779 12.2934 297.419 13.16 296.699 13.8799C295.979 14.5998 295.106 14.9599 294.079 14.96C293.066 14.96 292.199 14.5999 291.479 13.8799C290.759 13.16 290.399 12.2933 290.398 11.2803V10.6201H292.919V11.2803C292.919 11.6 293.032 11.8731 293.259 12.0996C293.485 12.3263 293.759 12.4395 294.079 12.4395C294.412 12.4394 294.692 12.3262 294.919 12.0996C295.145 11.8731 295.259 11.6 295.259 11.2803V11.04C295.259 10.44 295.039 9.95341 294.599 9.58008L291.938 7.2998C290.912 6.39319 290.398 5.26645 290.398 3.91992V3.67969C290.398 2.66656 290.759 1.79998 291.479 1.08008C292.199 0.360078 293.066 0 294.079 0ZM74.1123 5.71973L75.5332 0.200195H78.2529L75.373 8.5V14.7598H72.8525V8.5L69.9727 0.200195H72.6924L74.1123 5.71973ZM88.8701 0.200195C89.8967 0.200228 90.7703 0.560306 91.4902 1.28027C92.21 2.00021 92.5703 2.86671 92.5703 3.87988V4.7998C92.5703 5.62635 92.3233 6.35289 91.8301 6.97949C92.59 7.71278 92.9697 8.59974 92.9697 9.63965V11.0801C92.9697 12.0933 92.6096 12.9597 91.8896 13.6797C91.1697 14.3996 90.2962 14.7598 89.2695 14.7598H85.5898V0.200195H88.8701ZM107.706 2.71973H103.606V5.95996H107.226V8.47949H103.606V12.2402H107.706V14.7598H101.086V0.200195H107.706V2.71973ZM118.788 0.200195C119.815 0.200228 120.688 0.560306 121.408 1.28027C122.128 2.00021 122.488 2.86671 122.488 3.87988V4.7998C122.488 5.43981 122.335 6.03341 122.028 6.58008C121.735 7.1134 121.328 7.54655 120.808 7.87988L123.308 14.7598H120.628L118.388 8.47949H118.028V14.7598H115.508V0.200195H118.788ZM133.854 0.200195C134.881 0.200228 135.755 0.560306 136.475 1.28027C137.194 2.00021 137.555 2.86671 137.555 3.87988V4.7998C137.555 5.81298 137.194 6.67948 136.475 7.39941C135.755 8.11938 134.881 8.47946 133.854 8.47949H133.095V14.7598H130.574V0.200195H133.854ZM166.525 8.16016V0.200195H169.045V14.7598H166.525L163.306 6.7998V14.7598H160.785V0.200195H163.306L166.525 8.16016ZM179.896 6.33984L182.655 0.200195H185.455L182.495 6.17969L186.095 14.7598H183.355L181.095 9L179.896 11.3994V14.7598H177.375V0.200195H179.896V6.33984ZM224.936 8.16016V0.200195H227.455V14.7598H224.936L221.716 6.7998V14.7598H219.195V0.200195H221.716L224.936 8.16016ZM238.306 14.7598H235.785V8.0957H238.306V14.7598ZM249.772 9.41992L251.312 0.200195H253.893L251.032 14.7598H248.513L245.652 0.200195H248.232L249.772 9.41992ZM267.851 2.71973H263.751V5.95996H267.37V8.47949H263.751V12.2402H267.851V14.7598H261.23V0.200195H267.851V2.71973ZM278.933 0.200195C279.959 0.200228 280.833 0.560306 281.553 1.28027C282.273 2.00021 282.633 2.86671 282.633 3.87988V4.7998C282.633 5.43981 282.48 6.03341 282.173 6.58008C281.88 7.1134 281.472 7.54655 280.952 7.87988L283.452 14.7598H280.772L278.532 8.47949H278.173V14.7598H275.652V0.200195H278.933ZM312.405 2.71973H308.306V5.95996H311.925V8.47949H308.306V12.2402H312.405V14.7598H305.785V0.200195H312.405V2.71973ZM88.1104 12.2402H89.2695C89.6029 12.2402 89.8837 12.1261 90.1104 11.8994C90.3367 11.6729 90.4501 11.3998 90.4502 11.0801V9.63965C90.4501 9.31993 90.3367 9.04685 90.1104 8.82031C89.8837 8.59365 89.6029 8.47949 89.2695 8.47949H88.1104V12.2402ZM147.595 9.0957H145.074V8.0957H147.595V9.0957ZM152.454 9.0957H149.935V8.0957H152.454V9.0957ZM58.6787 9.0957H56.1582V8.0957H58.6787V9.0957ZM147.595 7.0957H145.074V6.0957H147.595V7.0957ZM152.454 7.0957H149.935V6.0957H152.454V7.0957ZM58.6787 7.0957H56.1582V6.0957H58.6787V7.0957ZM238.306 7.0957H235.785V6.0957H238.306V7.0957ZM88.1104 5.95996H88.8701C89.2033 5.95993 89.4834 5.84666 89.71 5.62012C89.9366 5.39345 90.0498 5.1198 90.0498 4.7998V3.87988C90.0498 3.55988 89.9366 3.28624 89.71 3.05957C89.4834 2.83303 89.2033 2.71976 88.8701 2.71973H88.1104V5.95996ZM118.028 5.95996H118.788C119.121 5.95993 119.401 5.84666 119.628 5.62012C119.855 5.39345 119.968 5.1198 119.968 4.7998V3.87988C119.968 3.55988 119.855 3.28624 119.628 3.05957C119.401 2.83303 119.121 2.71976 118.788 2.71973H118.028V5.95996ZM133.095 5.95996H133.854C134.188 5.95993 134.468 5.84666 134.694 5.62012C134.921 5.39345 135.034 5.1198 135.034 4.7998V3.87988C135.034 3.55988 134.921 3.28624 134.694 3.05957C134.468 2.83303 134.188 2.71976 133.854 2.71973H133.095V5.95996ZM278.173 5.95996H278.933C279.266 5.95993 279.546 5.84666 279.772 5.62012C279.999 5.39345 280.112 5.1198 280.112 4.7998V3.87988C280.112 3.55988 279.999 3.28624 279.772 3.05957C279.546 2.83303 279.266 2.71976 278.933 2.71973H278.173V5.95996ZM147.595 5.0957H145.074V0.200195H147.595V5.0957ZM152.454 5.0957H149.935V0.200195H152.454V5.0957ZM59.8389 0C60.8653 0.000105686 61.7381 0.360244 62.458 1.08008C63.178 1.80004 63.538 2.66642 63.5381 3.67969V4.33984H61.0186V3.67969C61.0185 3.35976 60.9053 3.086 60.6787 2.85938C60.4522 2.63287 60.172 2.51963 59.8389 2.51953C59.519 2.51953 59.2452 2.63291 59.0186 2.85938C58.7919 3.086 58.6787 3.35976 58.6787 3.67969V5.0957H56.1582V3.67969C56.1582 2.66651 56.5184 1.8 57.2383 1.08008C57.9583 0.360078 58.8255 0 59.8389 0ZM238.306 5.0957H235.785V4.0957H238.306V5.0957ZM238.306 3.0957H235.785V0.200195H238.306V3.0957Z" fill="url(#paint0_radial_7_533)"/>
<path d="M58.6787 11.2803H58.0787V11.2805L58.6787 11.2803ZM59.0186 12.0996L58.5943 12.5239L58.5943 12.5239L59.0186 12.0996ZM59.8389 12.4395V13.0395H59.8391L59.8389 12.4395ZM60.6787 12.0996L61.103 12.5239L61.1031 12.5238L60.6787 12.0996ZM61.0186 11.2803L61.6186 11.2805V11.2803H61.0186ZM61.0186 10.6201V10.0201H60.4186V10.6201H61.0186ZM63.5381 10.6201H64.1381V10.0201H63.5381V10.6201ZM63.5381 11.2803L64.1381 11.2803V11.2803H63.5381ZM62.458 13.8799L62.8822 14.3042L62.8823 14.3041L62.458 13.8799ZM59.8389 14.96V15.56H59.8389L59.8389 14.96ZM57.2383 13.8799L56.814 14.3041L56.814 14.3041L57.2383 13.8799ZM56.1582 11.2803H55.5582V11.2803L56.1582 11.2803ZM56.1582 10.0957V9.4957H55.5582V10.0957H56.1582ZM58.6787 10.0957H59.2787V9.4957H58.6787V10.0957ZM151.374 13.8994L151.794 14.3276L151.798 14.3237L151.374 13.8994ZM148.754 14.96L148.754 15.56H148.754V14.96ZM146.154 13.8994L145.73 14.3237L145.734 14.3276L146.154 13.8994ZM145.074 10.0957V9.4957H144.474V10.0957H145.074ZM147.595 10.0957H148.195V9.4957H147.595V10.0957ZM147.935 12.0996L147.51 12.5239L147.51 12.5239L147.935 12.0996ZM148.754 12.4395L148.754 13.0395H148.754V12.4395ZM149.595 12.1201L150.006 12.557L150.013 12.5508L150.019 12.5444L149.595 12.1201ZM149.935 10.0957V9.4957H149.335V10.0957H149.935ZM152.454 10.0957H153.054V9.4957H152.454V10.0957ZM206.345 12.0996L205.92 12.5239V12.5239L206.345 12.0996ZM207.164 12.4395L207.164 13.0395H207.164V12.4395ZM208.005 12.1201L208.416 12.557L208.423 12.5508L208.429 12.5444L208.005 12.1201ZM208.345 0.200195V-0.399805H207.745V0.200195H208.345ZM210.864 0.200195H211.464V-0.399805H210.864V0.200195ZM209.784 13.8994L210.204 14.3276L210.208 14.3237L209.784 13.8994ZM207.164 14.96L207.164 15.56H207.164V14.96ZM204.564 13.8994L204.14 14.3237L204.144 14.3276L204.564 13.8994ZM203.484 0.200195V-0.399805H202.884V0.200195H203.484ZM206.005 0.200195H206.605V-0.399805H206.005V0.200195ZM294.079 0L294.079 -0.6H294.079V0ZM296.699 1.08008L297.124 0.655853L297.123 0.655814L296.699 1.08008ZM297.779 3.67969H298.379V3.67966L297.779 3.67969ZM297.779 4.33984V4.93984H298.379V4.33984H297.779ZM295.259 4.33984H294.659V4.93984H295.259V4.33984ZM295.259 3.67969H295.859V3.67961L295.259 3.67969ZM294.919 2.85938L295.343 2.43511L295.343 2.43502L294.919 2.85938ZM294.079 2.51953L294.079 1.91953H294.079V2.51953ZM293.259 2.85938L292.835 2.43503L292.835 2.43511L293.259 2.85938ZM292.919 3.67969L292.319 3.67961V3.67969H292.919ZM292.919 3.91992H292.319V3.91994L292.919 3.91992ZM293.579 5.37988L293.97 4.92434L293.967 4.92238L293.579 5.37988ZM296.239 7.66016L296.637 7.21041L296.63 7.20461L296.239 7.66016ZM297.779 11.2803L298.379 11.2803V11.2803H297.779ZM296.699 13.8799L297.123 14.3041L297.124 14.3041L296.699 13.8799ZM294.079 14.96V15.56H294.079L294.079 14.96ZM291.479 13.8799L291.054 14.3041L291.054 14.3041L291.479 13.8799ZM290.398 11.2803H289.798V11.2803L290.398 11.2803ZM290.398 10.6201V10.0201H289.798V10.6201H290.398ZM292.919 10.6201H293.519V10.0201H292.919V10.6201ZM292.919 11.2803H292.319V11.2805L292.919 11.2803ZM293.259 12.0996L292.834 12.5238L292.835 12.5239L293.259 12.0996ZM294.079 12.4395V13.0395H294.079L294.079 12.4395ZM294.919 12.0996L295.343 12.5239L295.343 12.5238L294.919 12.0996ZM295.259 11.2803L295.859 11.2805V11.2803H295.259ZM294.599 9.58008L294.208 10.0356L294.21 10.0376L294.599 9.58008ZM291.938 7.2998L291.541 7.74956L291.548 7.75535L291.938 7.2998ZM290.398 3.91992H289.798V3.91993L290.398 3.91992ZM290.398 3.67969L289.798 3.67966V3.67969H290.398ZM291.479 1.08008L291.054 0.655814L291.054 0.655855L291.479 1.08008ZM74.1123 5.71973L73.5312 5.86921L74.6934 5.86931L74.1123 5.71973ZM75.5332 0.200195V-0.399805H75.0681L74.9521 0.0506136L75.5332 0.200195ZM78.2529 0.200195L78.8198 0.396881L79.0962 -0.399805H78.2529V0.200195ZM75.373 8.5L74.8062 8.30331L74.773 8.39886V8.5H75.373ZM75.373 14.7598V15.3598H75.973V14.7598H75.373ZM72.8525 14.7598H72.2525V15.3598H72.8525V14.7598ZM72.8525 8.5H73.4525V8.39886L73.4194 8.30331L72.8525 8.5ZM69.9727 0.200195V-0.399805H69.1294L69.4058 0.396881L69.9727 0.200195ZM72.6924 0.200195L73.2735 0.0507101L73.1576 -0.399805H72.6924V0.200195ZM88.8701 0.200195L88.8701 -0.399805H88.8701V0.200195ZM91.4902 1.28027L91.9145 0.856056L91.9145 0.856009L91.4902 1.28027ZM91.8301 6.97949L91.3586 6.6084L91.0231 7.03463L91.4135 7.41126L91.8301 6.97949ZM92.9697 9.63965H93.5697V9.63962L92.9697 9.63965ZM92.9697 11.0801L93.5697 11.0801V11.0801H92.9697ZM91.8896 13.6797L92.3139 14.104L92.3139 14.104L91.8896 13.6797ZM85.5898 14.7598H84.9898V15.3598H85.5898V14.7598ZM85.5898 0.200195V-0.399805H84.9898V0.200195H85.5898ZM107.706 2.71973V3.31973H108.306V2.71973H107.706ZM103.606 2.71973V2.11973H103.006V2.71973H103.606ZM103.606 5.95996H103.006V6.55996H103.606V5.95996ZM107.226 5.95996H107.826V5.35996H107.226V5.95996ZM107.226 8.47949V9.07949H107.826V8.47949H107.226ZM103.606 8.47949V7.87949H103.006V8.47949H103.606ZM103.606 12.2402H103.006V12.8402H103.606V12.2402ZM107.706 12.2402H108.306V11.6402H107.706V12.2402ZM107.706 14.7598V15.3598H108.306V14.7598H107.706ZM101.086 14.7598H100.486V15.3598H101.086V14.7598ZM101.086 0.200195V-0.399805H100.486V0.200195H101.086ZM107.706 0.200195H108.306V-0.399805H107.706V0.200195ZM118.788 0.200195L118.788 -0.399805H118.788V0.200195ZM121.408 1.28027L121.833 0.856056L121.832 0.856009L121.408 1.28027ZM122.028 6.58008L121.505 6.28652L121.503 6.29092L122.028 6.58008ZM120.808 7.87988L120.484 7.37476L120.08 7.63375L120.244 8.0848L120.808 7.87988ZM123.308 14.7598V15.3598H124.164L123.872 14.5548L123.308 14.7598ZM120.628 14.7598L120.063 14.9614L120.205 15.3598H120.628V14.7598ZM118.388 8.47949L118.953 8.27791L118.811 7.87949H118.388V8.47949ZM118.028 8.47949V7.87949H117.428V8.47949H118.028ZM118.028 14.7598V15.3598H118.628V14.7598H118.028ZM115.508 14.7598H114.908V15.3598H115.508V14.7598ZM115.508 0.200195V-0.399805H114.908V0.200195H115.508ZM133.854 0.200195L133.855 -0.399805H133.854V0.200195ZM136.475 1.28027L136.899 0.856056L136.899 0.856009L136.475 1.28027ZM136.475 7.39941L136.899 7.82368L136.899 7.82363L136.475 7.39941ZM133.854 8.47949V9.07949H133.855L133.854 8.47949ZM133.095 8.47949V7.87949H132.495V8.47949H133.095ZM133.095 14.7598V15.3598H133.695V14.7598H133.095ZM130.574 14.7598H129.974V15.3598H130.574V14.7598ZM130.574 0.200195V-0.399805H129.974V0.200195H130.574ZM166.525 8.16016L165.969 8.38514L167.125 8.16016H166.525ZM166.525 0.200195V-0.399805H165.925V0.200195H166.525ZM169.045 0.200195H169.645V-0.399805H169.045V0.200195ZM169.045 14.7598V15.3598H169.645V14.7598H169.045ZM166.525 14.7598L165.969 14.9848L166.121 15.3598H166.525V14.7598ZM163.306 6.7998L163.862 6.57482L162.706 6.7998H163.306ZM163.306 14.7598V15.3598H163.906V14.7598H163.306ZM160.785 14.7598H160.185V15.3598H160.785V14.7598ZM160.785 0.200195V-0.399805H160.185V0.200195H160.785ZM163.306 0.200195L163.862 -0.0247905L163.71 -0.399805H163.306V0.200195ZM179.896 6.33984H179.296L180.443 6.58583L179.896 6.33984ZM182.655 0.200195V-0.399805H182.267L182.108 -0.0457955L182.655 0.200195ZM185.455 0.200195L185.993 0.466379L186.422 -0.399805H185.455V0.200195ZM182.495 6.17969L181.957 5.9135L181.836 6.1591L181.942 6.41181L182.495 6.17969ZM186.095 14.7598V15.3598H186.997L186.648 14.5276L186.095 14.7598ZM183.355 14.7598L182.797 14.979L182.946 15.3598H183.355V14.7598ZM181.095 9L181.653 8.78078L181.161 7.52592L180.558 8.73176L181.095 9ZM179.896 11.3994L179.359 11.1312L179.296 11.2578V11.3994H179.896ZM179.896 14.7598V15.3598H180.496V14.7598H179.896ZM177.375 14.7598H176.775V15.3598H177.375V14.7598ZM177.375 0.200195V-0.399805H176.775V0.200195H177.375ZM179.896 0.200195H180.496V-0.399805H179.896V0.200195ZM224.936 8.16016L224.379 8.38514L225.536 8.16016H224.936ZM224.936 0.200195V-0.399805H224.336V0.200195H224.936ZM227.455 0.200195H228.055V-0.399805H227.455V0.200195ZM227.455 14.7598V15.3598H228.055V14.7598H227.455ZM224.936 14.7598L224.379 14.9848L224.531 15.3598H224.936V14.7598ZM221.716 6.7998L222.272 6.57482L221.116 6.7998H221.716ZM221.716 14.7598V15.3598H222.316V14.7598H221.716ZM219.195 14.7598H218.595V15.3598H219.195V14.7598ZM219.195 0.200195V-0.399805H218.595V0.200195H219.195ZM221.716 0.200195L222.272 -0.0247905L222.12 -0.399805H221.716V0.200195ZM238.306 14.7598V15.3598H238.906V14.7598H238.306ZM235.785 14.7598H235.185V15.3598H235.785V14.7598ZM235.785 8.0957V7.4957H235.185V8.0957H235.785ZM238.306 8.0957H238.906V7.4957H238.306V8.0957ZM249.772 9.41992L249.181 9.51877H250.364L249.772 9.41992ZM251.312 0.200195V-0.399805H250.804L250.721 0.101342L251.312 0.200195ZM253.893 0.200195L254.481 0.315859L254.622 -0.399805H253.893V0.200195ZM251.032 14.7598V15.3598H251.526L251.621 14.8754L251.032 14.7598ZM248.513 14.7598L247.924 14.8754L248.019 15.3598H248.513V14.7598ZM245.652 0.200195V-0.399805H244.923L245.064 0.315859L245.652 0.200195ZM248.232 0.200195L248.824 0.101342L248.741 -0.399805H248.232V0.200195ZM267.851 2.71973V3.31973H268.451V2.71973H267.851ZM263.751 2.71973V2.11973H263.151V2.71973H263.751ZM263.751 5.95996H263.151V6.55996H263.751V5.95996ZM267.37 5.95996H267.97V5.35996H267.37V5.95996ZM267.37 8.47949V9.07949H267.97V8.47949H267.37ZM263.751 8.47949V7.87949H263.151V8.47949H263.751ZM263.751 12.2402H263.151V12.8402H263.751V12.2402ZM267.851 12.2402H268.451V11.6402H267.851V12.2402ZM267.851 14.7598V15.3598H268.451V14.7598H267.851ZM261.23 14.7598H260.63V15.3598H261.23V14.7598ZM261.23 0.200195V-0.399805H260.63V0.200195H261.23ZM267.851 0.200195H268.451V-0.399805H267.851V0.200195ZM278.933 0.200195L278.933 -0.399805H278.933V0.200195ZM281.553 1.28027L281.977 0.856056L281.977 0.856009L281.553 1.28027ZM282.173 6.58008L281.65 6.28652L281.647 6.29092L282.173 6.58008ZM280.952 7.87988L280.628 7.37476L280.224 7.63375L280.388 8.0848L280.952 7.87988ZM283.452 14.7598V15.3598H284.309L284.016 14.5548L283.452 14.7598ZM280.772 14.7598L280.207 14.9614L280.349 15.3598H280.772V14.7598ZM278.532 8.47949L279.097 8.27791L278.955 7.87949H278.532V8.47949ZM278.173 8.47949V7.87949H277.573V8.47949H278.173ZM278.173 14.7598V15.3598H278.773V14.7598H278.173ZM275.652 14.7598H275.052V15.3598H275.652V14.7598ZM275.652 0.200195V-0.399805H275.052V0.200195H275.652ZM312.405 2.71973V3.31973H313.005V2.71973H312.405ZM308.306 2.71973V2.11973H307.706V2.71973H308.306ZM308.306 5.95996H307.706V6.55996H308.306V5.95996ZM311.925 5.95996H312.525V5.35996H311.925V5.95996ZM311.925 8.47949V9.07949H312.525V8.47949H311.925ZM308.306 8.47949V7.87949H307.706V8.47949H308.306ZM308.306 12.2402H307.706V12.8402H308.306V12.2402ZM312.405 12.2402H313.005V11.6402H312.405V12.2402ZM312.405 14.7598V15.3598H313.005V14.7598H312.405ZM305.785 14.7598H305.185V15.3598H305.785V14.7598ZM305.785 0.200195V-0.399805H305.185V0.200195H305.785ZM312.405 0.200195H313.005V-0.399805H312.405V0.200195ZM88.1104 12.2402H87.5104V12.8402H88.1104V12.2402ZM90.1104 11.8994L90.5346 12.3237L90.5348 12.3235L90.1104 11.8994ZM90.4502 11.0801L91.0502 11.0802V11.0801H90.4502ZM90.4502 9.63965H91.0502V9.63956L90.4502 9.63965ZM90.1104 8.82031L90.5348 8.39623L90.5346 8.39605L90.1104 8.82031ZM88.1104 8.47949V7.87949H87.5104V8.47949H88.1104ZM147.595 9.0957V9.6957H148.195V9.0957H147.595ZM145.074 9.0957H144.474V9.6957H145.074V9.0957ZM145.074 8.0957V7.4957H144.474V8.0957H145.074ZM147.595 8.0957H148.195V7.4957H147.595V8.0957ZM152.454 9.0957V9.6957H153.054V9.0957H152.454ZM149.935 9.0957H149.335V9.6957H149.935V9.0957ZM149.935 8.0957V7.4957H149.335V8.0957H149.935ZM152.454 8.0957H153.054V7.4957H152.454V8.0957ZM58.6787 9.0957V9.6957H59.2787V9.0957H58.6787ZM56.1582 9.0957H55.5582V9.6957H56.1582V9.0957ZM56.1582 8.0957V7.4957H55.5582V8.0957H56.1582ZM58.6787 8.0957H59.2787V7.4957H58.6787V8.0957ZM147.595 7.0957V7.6957H148.195V7.0957H147.595ZM145.074 7.0957H144.474V7.6957H145.074V7.0957ZM145.074 6.0957V5.4957H144.474V6.0957H145.074ZM147.595 6.0957H148.195V5.4957H147.595V6.0957ZM152.454 7.0957V7.6957H153.054V7.0957H152.454ZM149.935 7.0957H149.335V7.6957H149.935V7.0957ZM149.935 6.0957V5.4957H149.335V6.0957H149.935ZM152.454 6.0957H153.054V5.4957H152.454V6.0957ZM58.6787 7.0957V7.6957H59.2787V7.0957H58.6787ZM56.1582 7.0957H55.5582V7.6957H56.1582V7.0957ZM56.1582 6.0957V5.4957H55.5582V6.0957H56.1582ZM58.6787 6.0957H59.2787V5.4957H58.6787V6.0957ZM238.306 7.0957V7.6957H238.906V7.0957H238.306ZM235.785 7.0957H235.185V7.6957H235.785V7.0957ZM235.785 6.0957V5.4957H235.185V6.0957H235.785ZM238.306 6.0957H238.906V5.4957H238.306V6.0957ZM88.1104 5.95996H87.5104V6.55996H88.1104V5.95996ZM88.8701 5.95996V6.55996H88.8702L88.8701 5.95996ZM89.71 5.62012L90.1342 6.04445L90.1342 6.04438L89.71 5.62012ZM89.71 3.05957L90.1342 2.63531L90.1342 2.63524L89.71 3.05957ZM88.8701 2.71973L88.8702 2.11973H88.8701V2.71973ZM88.1104 2.71973V2.11973H87.5104V2.71973H88.1104ZM118.028 5.95996H117.428V6.55996H118.028V5.95996ZM118.788 5.95996V6.55996H118.788L118.788 5.95996ZM119.628 5.62012L120.052 6.04445L120.052 6.04438L119.628 5.62012ZM119.628 3.05957L120.052 2.63531L120.052 2.63524L119.628 3.05957ZM118.788 2.71973L118.788 2.11973H118.788V2.71973ZM118.028 2.71973V2.11973H117.428V2.71973H118.028ZM133.095 5.95996H132.495V6.55996H133.095V5.95996ZM133.854 5.95996V6.55996H133.855L133.854 5.95996ZM134.694 5.62012L135.119 6.04445L135.119 6.04438L134.694 5.62012ZM134.694 3.05957L135.119 2.63531L135.119 2.63524L134.694 3.05957ZM133.854 2.71973L133.855 2.11973H133.854V2.71973ZM133.095 2.71973V2.11973H132.495V2.71973H133.095ZM278.173 5.95996H277.573V6.55996H278.173V5.95996ZM278.933 5.95996V6.55996H278.933L278.933 5.95996ZM279.772 5.62012L280.197 6.04445L280.197 6.04438L279.772 5.62012ZM279.772 3.05957L280.197 2.63531L280.197 2.63524L279.772 3.05957ZM278.933 2.71973L278.933 2.11973H278.933V2.71973ZM278.173 2.71973V2.11973H277.573V2.71973H278.173ZM147.595 5.0957V5.6957H148.195V5.0957H147.595ZM145.074 5.0957H144.474V5.6957H145.074V5.0957ZM145.074 0.200195V-0.399805H144.474V0.200195H145.074ZM147.595 0.200195H148.195V-0.399805H147.595V0.200195ZM152.454 5.0957V5.6957H153.054V5.0957H152.454ZM149.935 5.0957H149.335V5.6957H149.935V5.0957ZM149.935 0.200195V-0.399805H149.335V0.200195H149.935ZM152.454 0.200195H153.054V-0.399805H152.454V0.200195ZM59.8389 0L59.8389 -0.6H59.8389V0ZM62.458 1.08008L62.8823 0.655814L62.8823 0.655801L62.458 1.08008ZM63.5381 3.67969H64.1381V3.67966L63.5381 3.67969ZM63.5381 4.33984V4.93984H64.1381V4.33984H63.5381ZM61.0186 4.33984H60.4186V4.93984H61.0186V4.33984ZM61.0186 3.67969H61.6186V3.67961L61.0186 3.67969ZM60.6787 2.85938L61.103 2.43511L61.1029 2.43507L60.6787 2.85938ZM59.8389 2.51953L59.8391 1.91953H59.8389V2.51953ZM59.0186 2.85938L58.5944 2.43498L58.5943 2.43511L59.0186 2.85938ZM58.6787 3.67969L58.0787 3.67961V3.67969H58.6787ZM58.6787 5.0957V5.6957H59.2787V5.0957H58.6787ZM56.1582 5.0957H55.5582V5.6957H56.1582V5.0957ZM56.1582 3.67969L55.5582 3.67966V3.67969H56.1582ZM57.2383 1.08008L56.814 0.655814L56.814 0.655839L57.2383 1.08008ZM238.306 5.0957V5.6957H238.906V5.0957H238.306ZM235.785 5.0957H235.185V5.6957H235.785V5.0957ZM235.785 4.0957V3.4957H235.185V4.0957H235.785ZM238.306 4.0957H238.906V3.4957H238.306V4.0957ZM238.306 3.0957V3.6957H238.906V3.0957H238.306ZM235.785 3.0957H235.185V3.6957H235.785V3.0957ZM235.785 0.200195V-0.399805H235.185V0.200195H235.785ZM238.306 0.200195H238.906V-0.399805H238.306V0.200195ZM58.6787 11.2803L58.0787 11.2805C58.0789 11.7596 58.2555 12.185 58.5943 12.5239L59.0186 12.0996L59.4428 11.6754C59.3286 11.5611 59.2788 11.4405 59.2787 11.2801L58.6787 11.2803ZM59.0186 12.0996L58.5943 12.5239C58.9335 12.8631 59.3598 13.0395 59.8389 13.0395V12.4395V11.8395C59.6779 11.8395 59.5569 11.7894 59.4428 11.6753L59.0186 12.0996ZM59.8389 12.4395L59.8391 13.0395C60.3238 13.0393 60.7588 12.8681 61.103 12.5239L60.6787 12.0996L60.2544 11.6753C60.1455 11.7843 60.0202 11.8394 59.8387 11.8395L59.8389 12.4395ZM60.6787 12.0996L61.1031 12.5238C61.4416 12.1851 61.6184 11.7596 61.6186 11.2805L61.0186 11.2803L60.4186 11.2801C60.4185 11.4403 60.3686 11.5611 60.2543 11.6755L60.6787 12.0996ZM61.0186 11.2803H61.6186V10.6201H61.0186H60.4186V11.2803H61.0186ZM61.0186 10.6201V11.2201H63.5381V10.6201V10.0201H61.0186V10.6201ZM63.5381 10.6201H62.9381V11.2803H63.5381H64.1381V10.6201H63.5381ZM63.5381 11.2803L62.9381 11.2802C62.938 12.1334 62.6418 12.8476 62.0337 13.4556L62.458 13.8799L62.8823 14.3041C63.714 13.4724 64.138 12.4535 64.1381 11.2803L63.5381 11.2803ZM62.458 13.8799L62.0338 13.4556C61.4274 14.0619 60.7074 14.3599 59.8388 14.36L59.8389 14.96L59.8389 15.56C61.0231 15.5598 62.049 15.1373 62.8822 14.3042L62.458 13.8799ZM59.8389 14.96V14.36C58.9855 14.36 58.2706 14.0637 57.6625 13.4556L57.2383 13.8799L56.814 14.3041C57.646 15.1361 58.6656 15.56 59.8389 15.56V14.96ZM57.2383 13.8799L57.6626 13.4556C57.0545 12.8476 56.7583 12.1333 56.7582 11.2802L56.1582 11.2803L55.5582 11.2803C55.5583 12.4535 55.9823 13.4724 56.814 14.3041L57.2383 13.8799ZM56.1582 11.2803H56.7582V10.0957H56.1582H55.5582V11.2803H56.1582ZM56.1582 10.0957V10.6957H58.6787V10.0957V9.4957H56.1582V10.0957ZM58.6787 10.0957H58.0787V11.2803H58.6787H59.2787V10.0957H58.6787ZM152.454 11.2998H151.854C151.854 12.153 151.558 12.867 150.95 13.4752L151.374 13.8994L151.798 14.3237C152.63 13.4919 153.054 12.4732 153.054 11.2998H152.454ZM151.374 13.8994L150.954 13.4712C150.348 14.0658 149.626 14.36 148.754 14.36V14.96V15.56C149.935 15.56 150.96 15.1464 151.794 14.3276L151.374 13.8994ZM148.754 14.96L148.754 14.36C147.897 14.3599 147.182 14.0673 146.575 13.4712L146.154 13.8994L145.734 14.3276C146.566 15.1447 147.584 15.5598 148.754 15.56L148.754 14.96ZM146.154 13.8994L146.579 13.4752C145.971 12.867 145.674 12.1529 145.674 11.2998H145.074H144.474C144.474 12.4732 144.898 13.4919 145.73 14.3236L146.154 13.8994ZM145.074 11.2998H145.674V10.0957H145.074H144.474V11.2998H145.074ZM145.074 10.0957V10.6957H147.595V10.0957V9.4957H145.074V10.0957ZM147.595 10.0957H146.995V11.2998H147.595H148.195V10.0957H147.595ZM147.595 11.2998H146.995C146.995 11.7734 147.177 12.1903 147.51 12.5239L147.935 12.0996L148.359 11.6754C148.239 11.5556 148.195 11.4396 148.195 11.2998H147.595ZM147.935 12.0996L147.51 12.5239C147.849 12.8627 148.275 13.0393 148.754 13.0395L148.754 12.4395L148.754 11.8395C148.594 11.8394 148.473 11.7896 148.359 11.6753L147.935 12.0996ZM148.754 12.4395V13.0395C149.227 13.0395 149.659 12.8839 150.006 12.557L149.595 12.1201L149.184 11.6832C149.077 11.783 148.948 11.8395 148.754 11.8395V12.4395ZM149.595 12.1201L150.019 12.5444C150.358 12.2052 150.535 11.7789 150.535 11.2998H149.935H149.335C149.335 11.4607 149.285 11.5818 149.17 11.6959L149.595 12.1201ZM149.935 11.2998H150.535V10.0957H149.935H149.335V11.2998H149.935ZM149.935 10.0957V10.6957H152.454V10.0957V9.4957H149.935V10.0957ZM152.454 10.0957H151.854V11.2998H152.454H153.054V10.0957H152.454ZM206.005 11.2998H205.405C205.405 11.7734 205.587 12.1903 205.92 12.5239L206.345 12.0996L206.769 11.6754C206.649 11.5556 206.605 11.4396 206.605 11.2998H206.005ZM206.345 12.0996L205.92 12.5239C206.259 12.8627 206.685 13.0393 207.164 13.0395L207.164 12.4395L207.164 11.8395C207.004 11.8394 206.883 11.7896 206.769 11.6753L206.345 12.0996ZM207.164 12.4395V13.0395C207.637 13.0395 208.069 12.8839 208.416 12.557L208.005 12.1201L207.594 11.6832C207.488 11.783 207.358 11.8395 207.164 11.8395V12.4395ZM208.005 12.1201L208.429 12.5444C208.768 12.2052 208.945 11.7789 208.945 11.2998H208.345H207.745C207.745 11.4607 207.695 11.5818 207.581 11.6959L208.005 12.1201ZM208.345 11.2998H208.945V0.200195H208.345H207.745V11.2998H208.345ZM208.345 0.200195V0.800195H210.864V0.200195V-0.399805H208.345V0.200195ZM210.864 0.200195H210.264V11.2998H210.864H211.464V0.200195H210.864ZM210.864 11.2998H210.264C210.264 12.153 209.968 12.867 209.36 13.4752L209.784 13.8994L210.208 14.3237C211.04 13.4919 211.464 12.4732 211.464 11.2998H210.864ZM209.784 13.8994L209.364 13.4712C208.758 14.0658 208.036 14.36 207.164 14.36V14.96V15.56C208.345 15.56 209.37 15.1464 210.204 14.3276L209.784 13.8994ZM207.164 14.96L207.164 14.36C206.308 14.3599 205.592 14.0673 204.985 13.4712L204.564 13.8994L204.144 14.3276C204.977 15.1447 205.994 15.5598 207.164 15.56L207.164 14.96ZM204.564 13.8994L204.989 13.4752C204.381 12.867 204.084 12.1529 204.084 11.2998H203.484H202.884C202.884 12.4732 203.309 13.4919 204.14 14.3236L204.564 13.8994ZM203.484 11.2998H204.084V0.200195H203.484H202.884V11.2998H203.484ZM203.484 0.200195V0.800195H206.005V0.200195V-0.399805H203.484V0.200195ZM206.005 0.200195H205.405V11.2998H206.005H206.605V0.200195H206.005ZM294.079 0L294.079 0.6C294.948 0.600043 295.669 0.897966 296.275 1.50434L296.699 1.08008L297.123 0.655814C296.29 -0.177709 295.263 -0.599941 294.079 -0.6L294.079 0ZM296.699 1.08008L296.275 1.5043C296.883 2.11241 297.179 2.82668 297.179 3.67971L297.779 3.67969L298.379 3.67966C298.379 2.50643 297.955 1.48756 297.124 0.655853L296.699 1.08008ZM297.779 3.67969H297.179V4.33984H297.779H298.379V3.67969H297.779ZM297.779 4.33984V3.73984H295.259V4.33984V4.93984H297.779V4.33984ZM295.259 4.33984H295.859V3.67969H295.259H294.659V4.33984H295.259ZM295.259 3.67969L295.859 3.67961C295.859 3.20074 295.682 2.77436 295.343 2.43511L294.919 2.85938L294.495 3.28364C294.609 3.39765 294.659 3.51878 294.659 3.67976L295.259 3.67969ZM294.919 2.85938L295.343 2.43502C294.999 2.09114 294.564 1.9196 294.079 1.91953L294.079 2.51953L294.079 3.11953C294.26 3.11956 294.386 3.17466 294.495 3.28373L294.919 2.85938ZM294.079 2.51953V1.91953C293.6 1.91953 293.174 2.09606 292.835 2.43503L293.259 2.85938L293.683 3.28372C293.797 3.16961 293.918 3.11953 294.079 3.11953V2.51953ZM293.259 2.85938L292.835 2.43511C292.495 2.77436 292.319 3.20074 292.319 3.67961L292.919 3.67969L293.519 3.67976C293.519 3.51878 293.569 3.39765 293.683 3.28364L293.259 2.85938ZM292.919 3.67969H292.319V3.91992H292.919H293.519V3.67969H292.919ZM292.919 3.91992L292.319 3.91994C292.319 4.68818 292.611 5.34504 293.191 5.83739L293.579 5.37988L293.967 4.92238C293.668 4.66809 293.519 4.3516 293.519 3.9199L292.919 3.91992ZM293.579 5.37988L293.189 5.83542L295.849 8.1157L296.239 7.66016L296.63 7.20461L293.97 4.92434L293.579 5.37988ZM296.239 7.66016L295.842 8.10985C296.742 8.90487 297.179 9.869 297.179 11.04H297.779H298.379C298.379 9.51806 297.789 8.22867 296.636 7.21046L296.239 7.66016ZM297.779 11.04H297.179V11.2803H297.779H298.379V11.04H297.779ZM297.779 11.2803L297.179 11.2802C297.179 12.1333 296.883 12.8476 296.275 13.4556L296.699 13.8799L297.124 14.3041C297.955 13.4724 298.379 12.4534 298.379 11.2803L297.779 11.2803ZM296.699 13.8799L296.275 13.4556C295.669 14.062 294.948 14.3599 294.079 14.36L294.079 14.96L294.079 15.56C295.263 15.5599 296.29 15.1377 297.123 14.3041L296.699 13.8799ZM294.079 14.96V14.36C293.226 14.36 292.511 14.0637 291.903 13.4556L291.479 13.8799L291.054 14.3041C291.886 15.1361 292.906 15.56 294.079 15.56V14.96ZM291.479 13.8799L291.903 13.4556C291.295 12.8476 290.999 12.1333 290.998 11.2802L290.398 11.2803L289.798 11.2803C289.799 12.4534 290.223 13.4724 291.054 14.3041L291.479 13.8799ZM290.398 11.2803H290.998V10.6201H290.398H289.798V11.2803H290.398ZM290.398 10.6201V11.2201H292.919V10.6201V10.0201H290.398V10.6201ZM292.919 10.6201H292.319V11.2803H292.919H293.519V10.6201H292.919ZM292.919 11.2803L292.319 11.2805C292.319 11.7596 292.496 12.1851 292.834 12.5238L293.259 12.0996L293.683 11.6754C293.569 11.5611 293.519 11.4404 293.519 11.2801L292.919 11.2803ZM293.259 12.0996L292.835 12.5239C293.174 12.8631 293.6 13.0395 294.079 13.0395V12.4395V11.8395C293.918 11.8395 293.797 11.7894 293.683 11.6753L293.259 12.0996ZM294.079 12.4395L294.079 13.0395C294.564 13.0394 294.999 12.8681 295.343 12.5239L294.919 12.0996L294.495 11.6753C294.386 11.7844 294.26 11.8394 294.079 11.8395L294.079 12.4395ZM294.919 12.0996L295.343 12.5238C295.682 12.1851 295.859 11.7596 295.859 11.2805L295.259 11.2803L294.659 11.2801C294.659 11.4404 294.609 11.5611 294.495 11.6754L294.919 12.0996ZM295.259 11.2803H295.859V11.04H295.259H294.659V11.2803H295.259ZM295.259 11.04H295.859C295.859 10.2717 295.567 9.61492 294.987 9.12257L294.599 9.58008L294.21 10.0376C294.51 10.2919 294.659 10.6083 294.659 11.04H295.259ZM294.599 9.58008L294.989 9.12454L292.329 6.84426L291.938 7.2998L291.548 7.75535L294.208 10.0356L294.599 9.58008ZM291.938 7.2998L292.336 6.8501C291.436 6.0551 290.998 5.09099 290.998 3.91991L290.398 3.91992L289.798 3.91993C289.798 5.4419 290.388 6.73128 291.541 7.74951L291.938 7.2998ZM290.398 3.91992H290.998V3.67969H290.398H289.798V3.91992H290.398ZM290.398 3.67969L290.998 3.67971C290.998 2.82669 291.295 2.1124 291.903 1.5043L291.479 1.08008L291.054 0.655855C290.223 1.48756 289.798 2.50643 289.798 3.67966L290.398 3.67969ZM291.479 1.08008L291.903 1.50434C292.511 0.896301 293.226 0.6 294.079 0.6V0V-0.6C292.906 -0.6 291.886 -0.176145 291.054 0.655814L291.479 1.08008ZM74.1123 5.71973L74.6934 5.86931L76.1143 0.349777L75.5332 0.200195L74.9521 0.0506136L73.5312 5.57015L74.1123 5.71973ZM75.5332 0.200195V0.800195H78.2529V0.200195V-0.399805H75.5332V0.200195ZM78.2529 0.200195L77.6861 0.00350982L74.8062 8.30331L75.373 8.5L75.9399 8.69669L78.8198 0.396881L78.2529 0.200195ZM75.373 8.5H74.773V14.7598H75.373H75.973V8.5H75.373ZM75.373 14.7598V14.1598H72.8525V14.7598V15.3598H75.373V14.7598ZM72.8525 14.7598H73.4525V8.5H72.8525H72.2525V14.7598H72.8525ZM72.8525 8.5L73.4194 8.30331L70.5395 0.00350982L69.9727 0.200195L69.4058 0.396881L72.2857 8.69669L72.8525 8.5ZM69.9727 0.200195V0.800195H72.6924V0.200195V-0.399805H69.9727V0.200195ZM72.6924 0.200195L72.1113 0.349681L73.5312 5.86921L74.1123 5.71973L74.6934 5.57024L73.2735 0.0507101L72.6924 0.200195ZM88.8701 0.200195L88.8701 0.800195C89.7391 0.800223 90.4596 1.09814 91.066 1.70454L91.4902 1.28027L91.9145 0.856009C91.081 0.0224742 90.0544 -0.399767 88.8701 -0.399805L88.8701 0.200195ZM91.4902 1.28027L91.0659 1.70449C91.6739 2.31264 91.9703 3.02686 91.9703 3.87988H92.5703H93.1703C93.1703 2.70656 92.7461 1.68777 91.9145 0.856056L91.4902 1.28027ZM92.5703 3.87988H91.9703V4.7998H92.5703H93.1703V3.87988H92.5703ZM92.5703 4.7998H91.9703C91.9703 5.4968 91.7655 6.09148 91.3586 6.6084L91.8301 6.97949L92.3016 7.35058C92.8811 6.61429 93.1703 5.7559 93.1703 4.7998H92.5703ZM91.8301 6.97949L91.4135 7.41126C92.0581 8.03331 92.3697 8.76522 92.3697 9.63968L92.9697 9.63965L93.5697 9.63962C93.5697 8.43425 93.1219 7.39224 92.2467 6.54772L91.8301 6.97949ZM92.9697 9.63965H92.3697V11.0801H92.9697H93.5697V9.63965H92.9697ZM92.9697 11.0801L92.3697 11.08C92.3697 11.9332 92.0735 12.6473 91.4654 13.2554L91.8896 13.6797L92.3139 14.104C93.1457 13.2722 93.5697 12.2534 93.5697 11.0801L92.9697 11.0801ZM91.8896 13.6797L91.4654 13.2554C90.859 13.8618 90.1385 14.1598 89.2695 14.1598V14.7598V15.3598C90.4538 15.3598 91.4804 14.9374 92.3139 14.104L91.8896 13.6797ZM89.2695 14.7598V14.1598H85.5898V14.7598V15.3598H89.2695V14.7598ZM85.5898 14.7598H86.1898V0.200195H85.5898H84.9898V14.7598H85.5898ZM85.5898 0.200195V0.800195H88.8701V0.200195V-0.399805H85.5898V0.200195ZM107.706 2.71973V2.11973H103.606V2.71973V3.31973H107.706V2.71973ZM103.606 2.71973H103.006V5.95996H103.606H104.206V2.71973H103.606ZM103.606 5.95996V6.55996H107.226V5.95996V5.35996H103.606V5.95996ZM107.226 5.95996H106.626V8.47949H107.226H107.826V5.95996H107.226ZM107.226 8.47949V7.87949H103.606V8.47949V9.07949H107.226V8.47949ZM103.606 8.47949H103.006V12.2402H103.606H104.206V8.47949H103.606ZM103.606 12.2402V12.8402H107.706V12.2402V11.6402H103.606V12.2402ZM107.706 12.2402H107.106V14.7598H107.706H108.306V12.2402H107.706ZM107.706 14.7598V14.1598H101.086V14.7598V15.3598H107.706V14.7598ZM101.086 14.7598H101.686V0.200195H101.086H100.486V14.7598H101.086ZM101.086 0.200195V0.800195H107.706V0.200195V-0.399805H101.086V0.200195ZM107.706 0.200195H107.106V2.71973H107.706H108.306V0.200195H107.706ZM118.788 0.200195L118.788 0.800195C119.657 0.800223 120.378 1.09814 120.984 1.70454L121.408 1.28027L121.832 0.856009C120.999 0.0224742 119.972 -0.399767 118.788 -0.399805L118.788 0.200195ZM121.408 1.28027L120.984 1.70449C121.592 2.31264 121.888 3.02686 121.888 3.87988H122.488H123.088C123.088 2.70656 122.664 1.68777 121.833 0.856056L121.408 1.28027ZM122.488 3.87988H121.888V4.7998H122.488H123.088V3.87988H122.488ZM122.488 4.7998H121.888C121.888 5.33933 121.76 5.83154 121.505 6.28653L122.028 6.58008L122.552 6.87363C122.91 6.23529 123.088 5.54028 123.088 4.7998H122.488ZM122.028 6.58008L121.503 6.29092C121.258 6.73481 120.921 7.09437 120.484 7.37476L120.808 7.87988L121.131 8.38501C121.734 7.99874 122.212 7.492 122.554 6.86923L122.028 6.58008ZM120.808 7.87988L120.244 8.0848L122.744 14.9647L123.308 14.7598L123.872 14.5548L121.372 7.67497L120.808 7.87988ZM123.308 14.7598V14.1598H120.628V14.7598V15.3598H123.308V14.7598ZM120.628 14.7598L121.193 14.5582L118.953 8.27791L118.388 8.47949L117.823 8.68108L120.063 14.9614L120.628 14.7598ZM118.388 8.47949V7.87949H118.028V8.47949V9.07949H118.388V8.47949ZM118.028 8.47949H117.428V14.7598H118.028H118.628V8.47949H118.028ZM118.028 14.7598V14.1598H115.508V14.7598V15.3598H118.028V14.7598ZM115.508 14.7598H116.108V0.200195H115.508H114.908V14.7598H115.508ZM115.508 0.200195V0.800195H118.788V0.200195V-0.399805H115.508V0.200195ZM133.854 0.200195L133.854 0.800195C134.723 0.800223 135.444 1.09814 136.05 1.70454L136.475 1.28027L136.899 0.856009C136.065 0.0224742 135.039 -0.399767 133.855 -0.399805L133.854 0.200195ZM136.475 1.28027L136.05 1.70449C136.658 2.31264 136.955 3.02686 136.955 3.87988H137.555H138.155C138.155 2.70656 137.73 1.68777 136.899 0.856056L136.475 1.28027ZM137.555 3.87988H136.955V4.7998H137.555H138.155V3.87988H137.555ZM137.555 4.7998H136.955C136.955 5.65282 136.658 6.36704 136.05 6.9752L136.475 7.39941L136.899 7.82363C137.73 6.99192 138.155 5.97313 138.155 4.7998H137.555ZM136.475 7.39941L136.05 6.97515C135.444 7.58155 134.723 7.87946 133.854 7.87949L133.854 8.47949L133.855 9.07949C135.039 9.07945 136.065 8.65721 136.899 7.82368L136.475 7.39941ZM133.854 8.47949V7.87949H133.095V8.47949V9.07949H133.854V8.47949ZM133.095 8.47949H132.495V14.7598H133.095H133.695V8.47949H133.095ZM133.095 14.7598V14.1598H130.574V14.7598V15.3598H133.095V14.7598ZM130.574 14.7598H131.174V0.200195H130.574H129.974V14.7598H130.574ZM130.574 0.200195V0.800195H133.854V0.200195V-0.399805H130.574V0.200195ZM166.525 8.16016H167.125V0.200195H166.525H165.925V8.16016H166.525ZM166.525 0.200195V0.800195H169.045V0.200195V-0.399805H166.525V0.200195ZM169.045 0.200195H168.445V14.7598H169.045H169.645V0.200195H169.045ZM169.045 14.7598V14.1598H166.525V14.7598V15.3598H169.045V14.7598ZM166.525 14.7598L167.082 14.5348L163.862 6.57482L163.306 6.7998L162.749 7.02479L165.969 14.9848L166.525 14.7598ZM163.306 6.7998H162.706V14.7598H163.306H163.906V6.7998H163.306ZM163.306 14.7598V14.1598H160.785V14.7598V15.3598H163.306V14.7598ZM160.785 14.7598H161.385V0.200195H160.785H160.185V14.7598H160.785ZM160.785 0.200195V0.800195H163.306V0.200195V-0.399805H160.785V0.200195ZM163.306 0.200195L162.749 0.425181L165.969 8.38514L166.525 8.16016L167.082 7.93517L163.862 -0.0247905L163.306 0.200195ZM179.896 6.33984L180.443 6.58583L183.203 0.446186L182.655 0.200195L182.108 -0.0457955L179.348 6.09385L179.896 6.33984ZM182.655 0.200195V0.800195H185.455V0.200195V-0.399805H182.655V0.200195ZM185.455 0.200195L184.917 -0.0659879L181.957 5.9135L182.495 6.17969L183.033 6.44587L185.993 0.466379L185.455 0.200195ZM182.495 6.17969L181.942 6.41181L185.541 14.9919L186.095 14.7598L186.648 14.5276L183.048 5.94757L182.495 6.17969ZM186.095 14.7598V14.1598H183.355V14.7598V15.3598H186.095V14.7598ZM183.355 14.7598L183.914 14.5405L181.653 8.78078L181.095 9L180.536 9.21922L182.797 14.979L183.355 14.7598ZM181.095 9L180.558 8.73176L179.359 11.1312L179.896 11.3994L180.432 11.6677L181.631 9.26824L181.095 9ZM179.896 11.3994H179.296V14.7598H179.896H180.496V11.3994H179.896ZM179.896 14.7598V14.1598H177.375V14.7598V15.3598H179.896V14.7598ZM177.375 14.7598H177.975V0.200195H177.375H176.775V14.7598H177.375ZM177.375 0.200195V0.800195H179.896V0.200195V-0.399805H177.375V0.200195ZM179.896 0.200195H179.296V6.33984H179.896H180.496V0.200195H179.896ZM224.936 8.16016H225.536V0.200195H224.936H224.336V8.16016H224.936ZM224.936 0.200195V0.800195H227.455V0.200195V-0.399805H224.936V0.200195ZM227.455 0.200195H226.855V14.7598H227.455H228.055V0.200195H227.455ZM227.455 14.7598V14.1598H224.936V14.7598V15.3598H227.455V14.7598ZM224.936 14.7598L225.492 14.5348L222.272 6.57482L221.716 6.7998L221.16 7.02479L224.379 14.9848L224.936 14.7598ZM221.716 6.7998H221.116V14.7598H221.716H222.316V6.7998H221.716ZM221.716 14.7598V14.1598H219.195V14.7598V15.3598H221.716V14.7598ZM219.195 14.7598H219.795V0.200195H219.195H218.595V14.7598H219.195ZM219.195 0.200195V0.800195H221.716V0.200195V-0.399805H219.195V0.200195ZM221.716 0.200195L221.16 0.425181L224.379 8.38514L224.936 8.16016L225.492 7.93517L222.272 -0.0247905L221.716 0.200195ZM238.306 14.7598V14.1598H235.785V14.7598V15.3598H238.306V14.7598ZM235.785 14.7598H236.385V8.0957H235.785H235.185V14.7598H235.785ZM235.785 8.0957V8.6957H238.306V8.0957V7.4957H235.785V8.0957ZM238.306 8.0957H237.706V14.7598H238.306H238.906V8.0957H238.306ZM249.772 9.41992L250.364 9.51877L251.904 0.299048L251.312 0.200195L250.721 0.101342L249.181 9.32107L249.772 9.41992ZM251.312 0.200195V0.800195H253.893V0.200195V-0.399805H251.312V0.200195ZM253.893 0.200195L253.304 0.0845312L250.443 14.6441L251.032 14.7598L251.621 14.8754L254.481 0.315859L253.893 0.200195ZM251.032 14.7598V14.1598H248.513V14.7598V15.3598H251.032V14.7598ZM248.513 14.7598L249.101 14.6441L246.241 0.0845312L245.652 0.200195L245.064 0.315859L247.924 14.8754L248.513 14.7598ZM245.652 0.200195V0.800195H248.232V0.200195V-0.399805H245.652V0.200195ZM248.232 0.200195L247.641 0.299048L249.181 9.51877L249.772 9.41992L250.364 9.32107L248.824 0.101342L248.232 0.200195ZM267.851 2.71973V2.11973H263.751V2.71973V3.31973H267.851V2.71973ZM263.751 2.71973H263.151V5.95996H263.751H264.351V2.71973H263.751ZM263.751 5.95996V6.55996H267.37V5.95996V5.35996H263.751V5.95996ZM267.37 5.95996H266.77V8.47949H267.37H267.97V5.95996H267.37ZM267.37 8.47949V7.87949H263.751V8.47949V9.07949H267.37V8.47949ZM263.751 8.47949H263.151V12.2402H263.751H264.351V8.47949H263.751ZM263.751 12.2402V12.8402H267.851V12.2402V11.6402H263.751V12.2402ZM267.851 12.2402H267.251V14.7598H267.851H268.451V12.2402H267.851ZM267.851 14.7598V14.1598H261.23V14.7598V15.3598H267.851V14.7598ZM261.23 14.7598H261.83V0.200195H261.23H260.63V14.7598H261.23ZM261.23 0.200195V0.800195H267.851V0.200195V-0.399805H261.23V0.200195ZM267.851 0.200195H267.251V2.71973H267.851H268.451V0.200195H267.851ZM278.933 0.200195L278.933 0.800195C279.802 0.800223 280.522 1.09814 281.128 1.70454L281.553 1.28027L281.977 0.856009C281.143 0.0224742 280.117 -0.399767 278.933 -0.399805L278.933 0.200195ZM281.553 1.28027L281.128 1.70449C281.736 2.31264 282.033 3.02686 282.033 3.87988H282.633H283.233C283.233 2.70656 282.809 1.68777 281.977 0.856056L281.553 1.28027ZM282.633 3.87988H282.033V4.7998H282.633H283.233V3.87988H282.633ZM282.633 4.7998H282.033C282.033 5.33933 281.905 5.83154 281.65 6.28653L282.173 6.58008L282.696 6.87363C283.054 6.23529 283.233 5.54028 283.233 4.7998H282.633ZM282.173 6.58008L281.647 6.29092C281.403 6.73481 281.066 7.09437 280.628 7.37476L280.952 7.87988L281.276 8.38501C281.879 7.99874 282.356 7.492 282.699 6.86923L282.173 6.58008ZM280.952 7.87988L280.388 8.0848L282.888 14.9647L283.452 14.7598L284.016 14.5548L281.516 7.67497L280.952 7.87988ZM283.452 14.7598V14.1598H280.772V14.7598V15.3598H283.452V14.7598ZM280.772 14.7598L281.338 14.5582L279.097 8.27791L278.532 8.47949L277.967 8.68108L280.207 14.9614L280.772 14.7598ZM278.532 8.47949V7.87949H278.173V8.47949V9.07949H278.532V8.47949ZM278.173 8.47949H277.573V14.7598H278.173H278.773V8.47949H278.173ZM278.173 14.7598V14.1598H275.652V14.7598V15.3598H278.173V14.7598ZM275.652 14.7598H276.252V0.200195H275.652H275.052V14.7598H275.652ZM275.652 0.200195V0.800195H278.933V0.200195V-0.399805H275.652V0.200195ZM312.405 2.71973V2.11973H308.306V2.71973V3.31973H312.405V2.71973ZM308.306 2.71973H307.706V5.95996H308.306H308.906V2.71973H308.306ZM308.306 5.95996V6.55996H311.925V5.95996V5.35996H308.306V5.95996ZM311.925 5.95996H311.325V8.47949H311.925H312.525V5.95996H311.925ZM311.925 8.47949V7.87949H308.306V8.47949V9.07949H311.925V8.47949ZM308.306 8.47949H307.706V12.2402H308.306H308.906V8.47949H308.306ZM308.306 12.2402V12.8402H312.405V12.2402V11.6402H308.306V12.2402ZM312.405 12.2402H311.805V14.7598H312.405H313.005V12.2402H312.405ZM312.405 14.7598V14.1598H305.785V14.7598V15.3598H312.405V14.7598ZM305.785 14.7598H306.385V0.200195H305.785H305.185V14.7598H305.785ZM305.785 0.200195V0.800195H312.405V0.200195V-0.399805H305.785V0.200195ZM312.405 0.200195H311.805V2.71973H312.405H313.005V0.200195H312.405ZM88.1104 12.2402V12.8402H89.2695V12.2402V11.6402H88.1104V12.2402ZM89.2695 12.2402V12.8402C89.7556 12.8402 90.191 12.6673 90.5346 12.3237L90.1104 11.8994L89.6861 11.4752C89.5764 11.5848 89.4502 11.6402 89.2695 11.6402V12.2402ZM90.1104 11.8994L90.5348 12.3235C90.8731 11.9849 91.0501 11.5595 91.0502 11.0802L90.4502 11.0801L89.8502 11.08C89.8502 11.24 89.8003 11.3608 89.6859 11.4753L90.1104 11.8994ZM90.4502 11.0801H91.0502V9.63965H90.4502H89.8502V11.0801H90.4502ZM90.4502 9.63965L91.0502 9.63956C91.0501 9.16017 90.8731 8.73478 90.5348 8.39623L90.1104 8.82031L89.6859 9.24439C89.8003 9.35892 89.8502 9.4797 89.8502 9.63974L90.4502 9.63965ZM90.1104 8.82031L90.5346 8.39605C90.191 8.0524 89.7556 7.87949 89.2695 7.87949V8.47949V9.07949C89.4502 9.07949 89.5764 9.13489 89.6861 9.24458L90.1104 8.82031ZM89.2695 8.47949V7.87949H88.1104V8.47949V9.07949H89.2695V8.47949ZM88.1104 8.47949H87.5104V12.2402H88.1104H88.7104V8.47949H88.1104ZM147.595 9.0957V8.4957H145.074V9.0957V9.6957H147.595V9.0957ZM145.074 9.0957H145.674V8.0957H145.074H144.474V9.0957H145.074ZM145.074 8.0957V8.6957H147.595V8.0957V7.4957H145.074V8.0957ZM147.595 8.0957H146.995V9.0957H147.595H148.195V8.0957H147.595ZM152.454 9.0957V8.4957H149.935V9.0957V9.6957H152.454V9.0957ZM149.935 9.0957H150.535V8.0957H149.935H149.335V9.0957H149.935ZM149.935 8.0957V8.6957H152.454V8.0957V7.4957H149.935V8.0957ZM152.454 8.0957H151.854V9.0957H152.454H153.054V8.0957H152.454ZM58.6787 9.0957V8.4957H56.1582V9.0957V9.6957H58.6787V9.0957ZM56.1582 9.0957H56.7582V8.0957H56.1582H55.5582V9.0957H56.1582ZM56.1582 8.0957V8.6957H58.6787V8.0957V7.4957H56.1582V8.0957ZM58.6787 8.0957H58.0787V9.0957H58.6787H59.2787V8.0957H58.6787ZM147.595 7.0957V6.4957H145.074V7.0957V7.6957H147.595V7.0957ZM145.074 7.0957H145.674V6.0957H145.074H144.474V7.0957H145.074ZM145.074 6.0957V6.6957H147.595V6.0957V5.4957H145.074V6.0957ZM147.595 6.0957H146.995V7.0957H147.595H148.195V6.0957H147.595ZM152.454 7.0957V6.4957H149.935V7.0957V7.6957H152.454V7.0957ZM149.935 7.0957H150.535V6.0957H149.935H149.335V7.0957H149.935ZM149.935 6.0957V6.6957H152.454V6.0957V5.4957H149.935V6.0957ZM152.454 6.0957H151.854V7.0957H152.454H153.054V6.0957H152.454ZM58.6787 7.0957V6.4957H56.1582V7.0957V7.6957H58.6787V7.0957ZM56.1582 7.0957H56.7582V6.0957H56.1582H55.5582V7.0957H56.1582ZM56.1582 6.0957V6.6957H58.6787V6.0957V5.4957H56.1582V6.0957ZM58.6787 6.0957H58.0787V7.0957H58.6787H59.2787V6.0957H58.6787ZM238.306 7.0957V6.4957H235.785V7.0957V7.6957H238.306V7.0957ZM235.785 7.0957H236.385V6.0957H235.785H235.185V7.0957H235.785ZM235.785 6.0957V6.6957H238.306V6.0957V5.4957H235.785V6.0957ZM238.306 6.0957H237.706V7.0957H238.306H238.906V6.0957H238.306ZM88.1104 5.95996V6.55996H88.8701V5.95996V5.35996H88.1104V5.95996ZM88.8701 5.95996L88.8702 6.55996C89.3553 6.55992 89.7901 6.38842 90.1342 6.04445L89.71 5.62012L89.2858 5.19579C89.1766 5.30489 89.0513 5.35994 88.8701 5.35996L88.8701 5.95996ZM89.71 5.62012L90.1342 6.04438C90.4735 5.70514 90.6498 5.27886 90.6498 4.7998H90.0498H89.4498C89.4498 4.96075 89.3998 5.08176 89.2857 5.19585L89.71 5.62012ZM90.0498 4.7998H90.6498V3.87988H90.0498H89.4498V4.7998H90.0498ZM90.0498 3.87988H90.6498C90.6498 3.40083 90.4735 2.97455 90.1342 2.63531L89.71 3.05957L89.2857 3.48383C89.3998 3.59793 89.4498 3.71894 89.4498 3.87988H90.0498ZM89.71 3.05957L90.1342 2.63524C89.7901 2.29127 89.3553 2.11977 88.8702 2.11973L88.8701 2.71973L88.8701 3.31973C89.0513 3.31974 89.1766 3.3748 89.2858 3.4839L89.71 3.05957ZM88.8701 2.71973V2.11973H88.1104V2.71973V3.31973H88.8701V2.71973ZM88.1104 2.71973H87.5104V5.95996H88.1104H88.7104V2.71973H88.1104ZM118.028 5.95996V6.55996H118.788V5.95996V5.35996H118.028V5.95996ZM118.788 5.95996L118.788 6.55996C119.273 6.55992 119.708 6.38842 120.052 6.04445L119.628 5.62012L119.204 5.19579C119.095 5.30489 118.969 5.35994 118.788 5.35996L118.788 5.95996ZM119.628 5.62012L120.052 6.04438C120.391 5.70514 120.568 5.27886 120.568 4.7998H119.968H119.368C119.368 4.96075 119.318 5.08176 119.204 5.19585L119.628 5.62012ZM119.968 4.7998H120.568V3.87988H119.968H119.368V4.7998H119.968ZM119.968 3.87988H120.568C120.568 3.40083 120.391 2.97455 120.052 2.63531L119.628 3.05957L119.204 3.48383C119.318 3.59793 119.368 3.71894 119.368 3.87988H119.968ZM119.628 3.05957L120.052 2.63524C119.708 2.29127 119.273 2.11977 118.788 2.11973L118.788 2.71973L118.788 3.31973C118.969 3.31974 119.095 3.3748 119.204 3.4839L119.628 3.05957ZM118.788 2.71973V2.11973H118.028V2.71973V3.31973H118.788V2.71973ZM118.028 2.71973H117.428V5.95996H118.028H118.628V2.71973H118.028ZM133.095 5.95996V6.55996H133.854V5.95996V5.35996H133.095V5.95996ZM133.854 5.95996L133.855 6.55996C134.34 6.55992 134.774 6.38842 135.119 6.04445L134.694 5.62012L134.27 5.19579C134.161 5.30489 134.036 5.35994 133.854 5.35996L133.854 5.95996ZM134.694 5.62012L135.119 6.04438C135.458 5.70514 135.634 5.27886 135.634 4.7998H135.034H134.434C134.434 4.96075 134.384 5.08176 134.27 5.19585L134.694 5.62012ZM135.034 4.7998H135.634V3.87988H135.034H134.434V4.7998H135.034ZM135.034 3.87988H135.634C135.634 3.40083 135.458 2.97455 135.119 2.63531L134.694 3.05957L134.27 3.48383C134.384 3.59793 134.434 3.71894 134.434 3.87988H135.034ZM134.694 3.05957L135.119 2.63524C134.774 2.29127 134.34 2.11977 133.855 2.11973L133.854 2.71973L133.854 3.31973C134.036 3.31974 134.161 3.3748 134.27 3.4839L134.694 3.05957ZM133.854 2.71973V2.11973H133.095V2.71973V3.31973H133.854V2.71973ZM133.095 2.71973H132.495V5.95996H133.095H133.695V2.71973H133.095ZM278.173 5.95996V6.55996H278.933V5.95996V5.35996H278.173V5.95996ZM278.933 5.95996L278.933 6.55996C279.418 6.55992 279.853 6.38842 280.197 6.04445L279.772 5.62012L279.348 5.19579C279.239 5.30489 279.114 5.35994 278.933 5.35996L278.933 5.95996ZM279.772 5.62012L280.197 6.04438C280.536 5.70514 280.712 5.27886 280.712 4.7998H280.112H279.512C279.512 4.96075 279.462 5.08176 279.348 5.19585L279.772 5.62012ZM280.112 4.7998H280.712V3.87988H280.112H279.512V4.7998H280.112ZM280.112 3.87988H280.712C280.712 3.40083 280.536 2.97455 280.197 2.63531L279.772 3.05957L279.348 3.48383C279.462 3.59793 279.512 3.71894 279.512 3.87988H280.112ZM279.772 3.05957L280.197 2.63524C279.853 2.29127 279.418 2.11977 278.933 2.11973L278.933 2.71973L278.933 3.31973C279.114 3.31974 279.239 3.3748 279.348 3.4839L279.772 3.05957ZM278.933 2.71973V2.11973H278.173V2.71973V3.31973H278.933V2.71973ZM278.173 2.71973H277.573V5.95996H278.173H278.773V2.71973H278.173ZM147.595 5.0957V4.4957H145.074V5.0957V5.6957H147.595V5.0957ZM145.074 5.0957H145.674V0.200195H145.074H144.474V5.0957H145.074ZM145.074 0.200195V0.800195H147.595V0.200195V-0.399805H145.074V0.200195ZM147.595 0.200195H146.995V5.0957H147.595H148.195V0.200195H147.595ZM152.454 5.0957V4.4957H149.935V5.0957V5.6957H152.454V5.0957ZM149.935 5.0957H150.535V0.200195H149.935H149.335V5.0957H149.935ZM149.935 0.200195V0.800195H152.454V0.200195V-0.399805H149.935V0.200195ZM152.454 0.200195H151.854V5.0957H152.454H153.054V0.200195H152.454ZM59.8389 0L59.8388 0.6C60.7075 0.600089 61.4273 0.89797 62.0338 1.50435L62.458 1.08008L62.8823 0.655801C62.0489 -0.177482 61.0231 -0.599878 59.8389 -0.6L59.8389 0ZM62.458 1.08008L62.0337 1.50434C62.6419 2.11245 62.9381 2.82651 62.9381 3.67971L63.5381 3.67969L64.1381 3.67966C64.138 2.50634 63.7141 1.48762 62.8823 0.655814L62.458 1.08008ZM63.5381 3.67969H62.9381V4.33984H63.5381H64.1381V3.67969H63.5381ZM63.5381 4.33984V3.73984H61.0186V4.33984V4.93984H63.5381V4.33984ZM61.0186 4.33984H61.6186V3.67969H61.0186H60.4186V4.33984H61.0186ZM61.0186 3.67969L61.6186 3.67961C61.6185 3.20074 61.4422 2.77436 61.103 2.43511L60.6787 2.85938L60.2544 3.28364C60.3685 3.39765 60.4185 3.51878 60.4186 3.67976L61.0186 3.67969ZM60.6787 2.85938L61.1029 2.43507C60.7588 2.09102 60.3238 1.91968 59.8391 1.91953L59.8389 2.51953L59.8387 3.11953C60.0201 3.11959 60.1455 3.17472 60.2545 3.28368L60.6787 2.85938ZM59.8389 2.51953V1.91953C59.3598 1.91953 58.9334 2.09618 58.5944 2.43498L59.0186 2.85938L59.4427 3.28377C59.5569 3.16965 59.6782 3.11953 59.8389 3.11953V2.51953ZM59.0186 2.85938L58.5943 2.43511C58.255 2.77436 58.0788 3.20074 58.0787 3.67961L58.6787 3.67969L59.2787 3.67976C59.2787 3.51878 59.3288 3.39765 59.4428 3.28364L59.0186 2.85938ZM58.6787 3.67969H58.0787V5.0957H58.6787H59.2787V3.67969H58.6787ZM58.6787 5.0957V4.4957H56.1582V5.0957V5.6957H58.6787V5.0957ZM56.1582 5.0957H56.7582V3.67969H56.1582H55.5582V5.0957H56.1582ZM56.1582 3.67969L56.7582 3.67971C56.7582 2.82662 57.0545 2.11242 57.6626 1.50432L57.2383 1.08008L56.814 0.655839C55.9823 1.48758 55.5582 2.5064 55.5582 3.67966L56.1582 3.67969ZM57.2383 1.08008L57.6625 1.50434C58.2706 0.896301 58.9855 0.6 59.8389 0.6V0V-0.6C58.6656 -0.6 57.646 -0.176146 56.814 0.655814L57.2383 1.08008ZM238.306 5.0957V4.4957H235.785V5.0957V5.6957H238.306V5.0957ZM235.785 5.0957H236.385V4.0957H235.785H235.185V5.0957H235.785ZM235.785 4.0957V4.6957H238.306V4.0957V3.4957H235.785V4.0957ZM238.306 4.0957H237.706V5.0957H238.306H238.906V4.0957H238.306ZM238.306 3.0957V2.4957H235.785V3.0957V3.6957H238.306V3.0957ZM235.785 3.0957H236.385V0.200195H235.785H235.185V3.0957H235.785ZM235.785 0.200195V0.800195H238.306V0.200195V-0.399805H235.785V0.200195ZM238.306 0.200195H237.706V3.0957H238.306H238.906V0.200195H238.306Z" fill="url(#paint1_linear_7_533)" mask="url(#path-1-inside-1_7_533)"/>
<defs>
<radialGradient id="paint0_radial_7_533" cx="0" cy="0" r="1" gradientUnits="userSpaceOnUse" gradientTransform="translate(183.841 7.67658) rotate(90) scale(38.8047 166.782)">
<stop stop-color="#ECF7FF"/>
<stop offset="1" stop-color="#ECF7FF" stop-opacity="0"/>
</radialGradient>
<linearGradient id="paint1_linear_7_533" x1="183.841" y1="-6.45475" x2="183.841" y2="44.9505" gradientUnits="userSpaceOnUse">
<stop stop-color="#253596" stop-opacity="0"/>
<stop offset="0.456017" stop-color="#4A76D4"/>
<stop offset="1" stop-color="#76EAF1"/>
</linearGradient>
</defs>
</svg>
