<svg width="540" height="22" viewBox="0 0 540 22" fill="none" xmlns="http://www.w3.org/2000/svg">
<mask id="path-1-inside-1_7_146" fill="white">
<path d="M109.52 1C110.957 1.0001 112.18 1.50383 113.188 2.51172C114.195 3.51972 114.699 4.73368 114.699 6.15234V7.07617H111.171V6.15234C111.171 5.70434 111.013 5.32124 110.695 5.00391C110.378 4.68668 109.986 4.52842 109.52 4.52832C109.072 4.52832 108.688 4.68665 108.371 5.00391C108.054 5.32124 107.896 5.70434 107.896 6.15234V6.48828C107.896 7.32822 108.203 8.00959 108.819 8.53223L112.543 11.7246C113.98 12.9939 114.699 14.5708 114.699 16.4561V16.792C114.699 18.2107 114.195 19.4246 113.188 20.4326C112.18 21.4405 110.957 21.9442 109.52 21.9443C108.101 21.9443 106.887 21.4405 105.879 20.4326C104.871 19.4246 104.367 18.2107 104.367 16.792V15.8682H107.896V16.792C107.896 17.24 108.054 17.6231 108.371 17.9404C108.688 18.2577 109.072 18.416 109.52 18.416C109.986 18.4159 110.378 18.2576 110.695 17.9404C111.013 17.6231 111.171 17.24 111.171 16.792V16.4561C111.171 15.6161 110.863 14.9348 110.247 14.4121L106.523 11.2197C105.086 9.95043 104.367 8.37354 104.367 6.48828V6.15234C104.367 4.73368 104.871 3.51972 105.879 2.51172C106.887 1.50379 108.101 1 109.52 1ZM130.612 1C132.049 1.00005 133.272 1.50385 134.28 2.51172C135.288 3.51972 135.792 4.73368 135.792 6.15234V7.07617H132.264V6.15234C132.264 5.70434 132.105 5.32124 131.788 5.00391C131.471 4.6867 131.079 4.52837 130.612 4.52832C130.164 4.52832 129.781 4.68658 129.464 5.00391C129.147 5.32124 128.988 5.70434 128.988 6.15234V6.48828C128.988 7.32822 129.296 8.00959 129.912 8.53223L133.636 11.7246C135.073 12.9939 135.792 14.5708 135.792 16.4561V16.792C135.792 18.2107 135.288 19.4246 134.28 20.4326C133.272 21.4405 132.049 21.9443 130.612 21.9443C129.194 21.9443 127.98 21.4406 126.972 20.4326C125.964 19.4246 125.46 18.2107 125.46 16.792V15.8682H128.988V16.792C128.988 17.24 129.147 17.6231 129.464 17.9404C129.781 18.2577 130.164 18.416 130.612 18.416C131.079 18.416 131.471 18.2576 131.788 17.9404C132.105 17.6231 132.264 17.24 132.264 16.792V16.4561C132.264 15.6161 131.956 14.9348 131.34 14.4121L127.616 11.2197C126.179 9.95044 125.46 8.3735 125.46 6.48828V6.15234C125.46 4.73368 125.964 3.51972 126.972 2.51172C127.98 1.50373 129.194 1 130.612 1ZM193.833 16.792C193.833 17.24 193.992 17.6231 194.31 17.9404C194.627 18.2575 195.009 18.4159 195.457 18.416C195.924 18.416 196.316 18.2578 196.634 17.9404C196.951 17.6231 197.109 17.24 197.109 16.792V15.8682H200.638V16.792C200.638 18.2107 200.133 19.4246 199.125 20.4326C198.117 21.4403 196.894 21.9443 195.457 21.9443C194.039 21.9442 192.825 21.4404 191.817 20.4326C190.809 19.4246 190.306 18.2107 190.306 16.792V14.6641H193.833V16.792ZM251.135 1C252.572 1 253.795 1.50388 254.803 2.51172C255.811 3.51972 256.314 4.73368 256.314 6.15234V16.792C256.314 18.2107 255.811 19.4246 254.803 20.4326C253.795 21.4404 252.572 21.9443 251.135 21.9443C249.716 21.9443 248.503 21.4403 247.495 20.4326C246.487 19.4246 245.982 18.2107 245.982 16.792V6.15234C245.982 4.73368 246.487 3.51972 247.495 2.51172C248.503 1.50398 249.716 1.00001 251.135 1ZM382.953 1C384.39 1 385.613 1.50401 386.621 2.51172C387.629 3.51972 388.134 4.73368 388.134 6.15234V7.07617H384.605V6.15234C384.605 5.70437 384.447 5.32123 384.13 5.00391C383.813 4.68657 383.42 4.52832 382.953 4.52832C382.505 4.52842 382.123 4.68679 381.806 5.00391C381.488 5.32124 381.329 5.70434 381.329 6.15234V16.792C381.329 17.24 381.488 17.6231 381.806 17.9404C382.123 18.2575 382.505 18.4159 382.953 18.416C383.42 18.416 383.813 18.2578 384.13 17.9404C384.447 17.6231 384.605 17.24 384.605 16.792V12.8721H382.562V9.34375H388.134V16.792C388.134 18.2107 387.629 19.4246 386.621 20.4326C385.613 21.4403 384.39 21.9443 382.953 21.9443C381.535 21.9442 380.321 21.4404 379.313 20.4326C378.305 19.4246 377.802 18.2107 377.802 16.792V6.15234C377.802 4.73368 378.305 3.51972 379.313 2.51172C380.321 1.50394 381.535 1.0001 382.953 1ZM93.8926 4.80859H88.1523V9.34375H93.2207V12.8721H88.1523V18.1357H93.8926V21.6641H84.624V1.28027H93.8926V4.80859ZM156.27 4.80859H150.529V9.34375H155.597V12.8721H150.529V18.1357H156.27V21.6641H147.001V1.28027H156.27V4.80859ZM175.228 12.4238V1.28027H178.756V21.6641H175.228L170.72 10.5205V21.6641H167.191V1.28027H170.72L175.228 12.4238ZM221.161 4.80859H215.421V9.34375H220.489V12.8721H215.421V18.1357H221.161V21.6641H211.894V1.28027H221.161V4.80859ZM271.372 21.6641H267.844V17.6641H271.372V21.6641ZM311.152 4.80859H307.652V21.6641H304.125V4.80859H300.625V1.28027H311.152V4.80859ZM325.245 9.34375H328.521V1.28027H332.049V21.6641H328.521V12.8721H325.245V21.6641H321.717V1.28027H325.245V9.34375ZM352.98 4.80859H347.24V9.34375H352.308V12.8721H347.24V18.1357H352.98V21.6641H343.712V1.28027H352.98V4.80859ZM403.303 14.1045H405.431L404.477 8.95215H407.754L410.442 21.6641H406.831L406.075 17.6318H402.659L401.902 21.6641H398.291L400.979 8.95215H404.258L403.303 14.1045ZM428.009 12.3965L431.704 1.28027H435.261V21.6641H431.732V10.5479L429.269 18.5H426.721L424.257 10.5479V21.6641H420.729V1.28027H424.284L428.009 12.3965ZM456.176 4.80859H450.436V9.34375H455.503V12.8721H450.436V18.1357H456.176V21.6641H446.907V1.28027H456.176V4.80859ZM251.135 4.52832C250.687 4.52833 250.304 4.68658 249.986 5.00391C249.669 5.32122 249.511 5.7044 249.511 6.15234V16.792C249.511 17.2399 249.669 17.6231 249.986 17.9404C250.304 18.2578 250.687 18.416 251.135 18.416C251.601 18.416 251.993 18.2576 252.311 17.9404C252.628 17.6231 252.787 17.24 252.787 16.792V6.15234C252.787 5.70434 252.628 5.32124 252.311 5.00391C251.993 4.68674 251.601 4.52832 251.135 4.52832ZM271.372 16.6641H267.844V15.6641H271.372V16.6641ZM271.372 14.6641H267.844V13.6641H271.372V14.6641ZM193.833 13.6641H190.306V12.6641H193.833V13.6641ZM277.112 4.80859H271.372V9.34375H276.44V12.8721H275.535V12.6641H267.844V1.28027H277.112V4.80859ZM193.833 11.6641H190.306V10.6641H193.833V11.6641ZM195.457 1C196.894 1 198.117 1.50401 199.125 2.51172C200.133 3.51972 200.638 4.73368 200.638 6.15234V7.07617H197.109V6.15234C197.109 5.70437 196.951 5.32123 196.634 5.00391C196.316 4.68657 195.924 4.52832 195.457 4.52832C195.009 4.52842 194.627 4.68679 194.31 5.00391C193.992 5.32124 193.833 5.70434 193.833 6.15234V9.66406H190.306V6.15234C190.306 4.73368 190.809 3.51972 191.817 2.51172C192.825 1.50394 194.039 1.0001 195.457 1ZM407.542 7.95215H401.191L401.403 6.95215H407.33L407.542 7.95215ZM407.119 5.95215H401.614L401.826 4.95215H406.907L407.119 5.95215ZM406.696 3.95215H402.037L402.603 1.28027H406.131L406.696 3.95215Z"/>
</mask>
<path d="M109.52 1C110.957 1.0001 112.18 1.50383 113.188 2.51172C114.195 3.51972 114.699 4.73368 114.699 6.15234V7.07617H111.171V6.15234C111.171 5.70434 111.013 5.32124 110.695 5.00391C110.378 4.68668 109.986 4.52842 109.52 4.52832C109.072 4.52832 108.688 4.68665 108.371 5.00391C108.054 5.32124 107.896 5.70434 107.896 6.15234V6.48828C107.896 7.32822 108.203 8.00959 108.819 8.53223L112.543 11.7246C113.98 12.9939 114.699 14.5708 114.699 16.4561V16.792C114.699 18.2107 114.195 19.4246 113.188 20.4326C112.18 21.4405 110.957 21.9442 109.52 21.9443C108.101 21.9443 106.887 21.4405 105.879 20.4326C104.871 19.4246 104.367 18.2107 104.367 16.792V15.8682H107.896V16.792C107.896 17.24 108.054 17.6231 108.371 17.9404C108.688 18.2577 109.072 18.416 109.52 18.416C109.986 18.4159 110.378 18.2576 110.695 17.9404C111.013 17.6231 111.171 17.24 111.171 16.792V16.4561C111.171 15.6161 110.863 14.9348 110.247 14.4121L106.523 11.2197C105.086 9.95043 104.367 8.37354 104.367 6.48828V6.15234C104.367 4.73368 104.871 3.51972 105.879 2.51172C106.887 1.50379 108.101 1 109.52 1ZM130.612 1C132.049 1.00005 133.272 1.50385 134.28 2.51172C135.288 3.51972 135.792 4.73368 135.792 6.15234V7.07617H132.264V6.15234C132.264 5.70434 132.105 5.32124 131.788 5.00391C131.471 4.6867 131.079 4.52837 130.612 4.52832C130.164 4.52832 129.781 4.68658 129.464 5.00391C129.147 5.32124 128.988 5.70434 128.988 6.15234V6.48828C128.988 7.32822 129.296 8.00959 129.912 8.53223L133.636 11.7246C135.073 12.9939 135.792 14.5708 135.792 16.4561V16.792C135.792 18.2107 135.288 19.4246 134.28 20.4326C133.272 21.4405 132.049 21.9443 130.612 21.9443C129.194 21.9443 127.98 21.4406 126.972 20.4326C125.964 19.4246 125.46 18.2107 125.46 16.792V15.8682H128.988V16.792C128.988 17.24 129.147 17.6231 129.464 17.9404C129.781 18.2577 130.164 18.416 130.612 18.416C131.079 18.416 131.471 18.2576 131.788 17.9404C132.105 17.6231 132.264 17.24 132.264 16.792V16.4561C132.264 15.6161 131.956 14.9348 131.34 14.4121L127.616 11.2197C126.179 9.95044 125.46 8.3735 125.46 6.48828V6.15234C125.46 4.73368 125.964 3.51972 126.972 2.51172C127.98 1.50373 129.194 1 130.612 1ZM193.833 16.792C193.833 17.24 193.992 17.6231 194.31 17.9404C194.627 18.2575 195.009 18.4159 195.457 18.416C195.924 18.416 196.316 18.2578 196.634 17.9404C196.951 17.6231 197.109 17.24 197.109 16.792V15.8682H200.638V16.792C200.638 18.2107 200.133 19.4246 199.125 20.4326C198.117 21.4403 196.894 21.9443 195.457 21.9443C194.039 21.9442 192.825 21.4404 191.817 20.4326C190.809 19.4246 190.306 18.2107 190.306 16.792V14.6641H193.833V16.792ZM251.135 1C252.572 1 253.795 1.50388 254.803 2.51172C255.811 3.51972 256.314 4.73368 256.314 6.15234V16.792C256.314 18.2107 255.811 19.4246 254.803 20.4326C253.795 21.4404 252.572 21.9443 251.135 21.9443C249.716 21.9443 248.503 21.4403 247.495 20.4326C246.487 19.4246 245.982 18.2107 245.982 16.792V6.15234C245.982 4.73368 246.487 3.51972 247.495 2.51172C248.503 1.50398 249.716 1.00001 251.135 1ZM382.953 1C384.39 1 385.613 1.50401 386.621 2.51172C387.629 3.51972 388.134 4.73368 388.134 6.15234V7.07617H384.605V6.15234C384.605 5.70437 384.447 5.32123 384.13 5.00391C383.813 4.68657 383.42 4.52832 382.953 4.52832C382.505 4.52842 382.123 4.68679 381.806 5.00391C381.488 5.32124 381.329 5.70434 381.329 6.15234V16.792C381.329 17.24 381.488 17.6231 381.806 17.9404C382.123 18.2575 382.505 18.4159 382.953 18.416C383.42 18.416 383.813 18.2578 384.13 17.9404C384.447 17.6231 384.605 17.24 384.605 16.792V12.8721H382.562V9.34375H388.134V16.792C388.134 18.2107 387.629 19.4246 386.621 20.4326C385.613 21.4403 384.39 21.9443 382.953 21.9443C381.535 21.9442 380.321 21.4404 379.313 20.4326C378.305 19.4246 377.802 18.2107 377.802 16.792V6.15234C377.802 4.73368 378.305 3.51972 379.313 2.51172C380.321 1.50394 381.535 1.0001 382.953 1ZM93.8926 4.80859H88.1523V9.34375H93.2207V12.8721H88.1523V18.1357H93.8926V21.6641H84.624V1.28027H93.8926V4.80859ZM156.27 4.80859H150.529V9.34375H155.597V12.8721H150.529V18.1357H156.27V21.6641H147.001V1.28027H156.27V4.80859ZM175.228 12.4238V1.28027H178.756V21.6641H175.228L170.72 10.5205V21.6641H167.191V1.28027H170.72L175.228 12.4238ZM221.161 4.80859H215.421V9.34375H220.489V12.8721H215.421V18.1357H221.161V21.6641H211.894V1.28027H221.161V4.80859ZM271.372 21.6641H267.844V17.6641H271.372V21.6641ZM311.152 4.80859H307.652V21.6641H304.125V4.80859H300.625V1.28027H311.152V4.80859ZM325.245 9.34375H328.521V1.28027H332.049V21.6641H328.521V12.8721H325.245V21.6641H321.717V1.28027H325.245V9.34375ZM352.98 4.80859H347.24V9.34375H352.308V12.8721H347.24V18.1357H352.98V21.6641H343.712V1.28027H352.98V4.80859ZM403.303 14.1045H405.431L404.477 8.95215H407.754L410.442 21.6641H406.831L406.075 17.6318H402.659L401.902 21.6641H398.291L400.979 8.95215H404.258L403.303 14.1045ZM428.009 12.3965L431.704 1.28027H435.261V21.6641H431.732V10.5479L429.269 18.5H426.721L424.257 10.5479V21.6641H420.729V1.28027H424.284L428.009 12.3965ZM456.176 4.80859H450.436V9.34375H455.503V12.8721H450.436V18.1357H456.176V21.6641H446.907V1.28027H456.176V4.80859ZM251.135 4.52832C250.687 4.52833 250.304 4.68658 249.986 5.00391C249.669 5.32122 249.511 5.7044 249.511 6.15234V16.792C249.511 17.2399 249.669 17.6231 249.986 17.9404C250.304 18.2578 250.687 18.416 251.135 18.416C251.601 18.416 251.993 18.2576 252.311 17.9404C252.628 17.6231 252.787 17.24 252.787 16.792V6.15234C252.787 5.70434 252.628 5.32124 252.311 5.00391C251.993 4.68674 251.601 4.52832 251.135 4.52832ZM271.372 16.6641H267.844V15.6641H271.372V16.6641ZM271.372 14.6641H267.844V13.6641H271.372V14.6641ZM193.833 13.6641H190.306V12.6641H193.833V13.6641ZM277.112 4.80859H271.372V9.34375H276.44V12.8721H275.535V12.6641H267.844V1.28027H277.112V4.80859ZM193.833 11.6641H190.306V10.6641H193.833V11.6641ZM195.457 1C196.894 1 198.117 1.50401 199.125 2.51172C200.133 3.51972 200.638 4.73368 200.638 6.15234V7.07617H197.109V6.15234C197.109 5.70437 196.951 5.32123 196.634 5.00391C196.316 4.68657 195.924 4.52832 195.457 4.52832C195.009 4.52842 194.627 4.68679 194.31 5.00391C193.992 5.32124 193.833 5.70434 193.833 6.15234V9.66406H190.306V6.15234C190.306 4.73368 190.809 3.51972 191.817 2.51172C192.825 1.50394 194.039 1.0001 195.457 1ZM407.542 7.95215H401.191L401.403 6.95215H407.33L407.542 7.95215ZM407.119 5.95215H401.614L401.826 4.95215H406.907L407.119 5.95215ZM406.696 3.95215H402.037L402.603 1.28027H406.131L406.696 3.95215Z" fill="url(#paint0_radial_7_146)"/>
<path d="M109.52 1L109.52 0.4H109.52V1ZM113.188 2.51172L113.612 2.08745L113.612 2.08745L113.188 2.51172ZM114.699 7.07617V7.67617H115.299V7.07617H114.699ZM111.171 7.07617H110.571V7.67617H111.171V7.07617ZM110.695 5.00391L111.12 4.57964L111.12 4.57964L110.695 5.00391ZM109.52 4.52832L109.52 3.92832H109.52V4.52832ZM108.371 5.00391L107.947 4.57961L107.947 4.57964L108.371 5.00391ZM107.896 6.48828H107.296V6.4883L107.896 6.48828ZM108.819 8.53223L109.21 8.07671L109.208 8.07472L108.819 8.53223ZM112.543 11.7246L112.94 11.2748L112.933 11.2691L112.543 11.7246ZM114.699 16.4561H115.299V16.456L114.699 16.4561ZM113.188 20.4326L113.612 20.8569L113.612 20.8569L113.188 20.4326ZM109.52 21.9443V22.5443H109.52L109.52 21.9443ZM105.879 20.4326L105.455 20.8569L105.455 20.8569L105.879 20.4326ZM104.367 15.8682V15.2682H103.767V15.8682H104.367ZM107.896 15.8682H108.496V15.2682H107.896V15.8682ZM108.371 17.9404L107.947 18.3647L107.947 18.3647L108.371 17.9404ZM109.52 18.416V19.016H109.52L109.52 18.416ZM110.695 17.9404L111.12 18.3647L111.12 18.3647L110.695 17.9404ZM111.171 16.4561H111.771V16.456L111.171 16.4561ZM110.247 14.4121L109.857 14.8676L109.859 14.8696L110.247 14.4121ZM106.523 11.2197L106.126 11.6695L106.133 11.6752L106.523 11.2197ZM104.367 6.48828H103.767V6.48829L104.367 6.48828ZM105.879 2.51172L105.455 2.08744L105.455 2.08745L105.879 2.51172ZM130.612 1L130.612 0.4H130.612V1ZM134.28 2.51172L134.705 2.08745L134.705 2.08744L134.28 2.51172ZM135.792 7.07617V7.67617H136.392V7.07617H135.792ZM132.264 7.07617H131.664V7.67617H132.264V7.07617ZM131.788 5.00391L132.212 4.57964L132.212 4.5796L131.788 5.00391ZM130.612 4.52832L130.612 3.92832H130.612V4.52832ZM129.464 5.00391L129.04 4.57964L129.04 4.57964L129.464 5.00391ZM128.988 6.48828H128.388V6.4883L128.988 6.48828ZM129.912 8.53223L130.303 8.07671L130.3 8.07472L129.912 8.53223ZM133.636 11.7246L134.033 11.2748L134.026 11.2691L133.636 11.7246ZM135.792 16.4561H136.392V16.456L135.792 16.4561ZM134.28 20.4326L134.705 20.8569L134.705 20.8569L134.28 20.4326ZM130.612 21.9443V22.5443H130.612L130.612 21.9443ZM126.972 20.4326L126.547 20.8569L126.547 20.8569L126.972 20.4326ZM125.46 15.8682V15.2682H124.86V15.8682H125.46ZM128.988 15.8682H129.588V15.2682H128.988V15.8682ZM129.464 17.9404L129.04 18.3647L129.04 18.3647L129.464 17.9404ZM130.612 18.416V19.016H130.612L130.612 18.416ZM131.788 17.9404L132.212 18.3647L132.212 18.3647L131.788 17.9404ZM132.264 16.4561H132.864V16.456L132.264 16.4561ZM131.34 14.4121L130.949 14.8676L130.952 14.8696L131.34 14.4121ZM127.616 11.2197L127.219 11.6695L127.226 11.6752L127.616 11.2197ZM125.46 6.48828H124.86V6.48829L125.46 6.48828ZM126.972 2.51172L126.547 2.08745V2.08745L126.972 2.51172ZM194.31 17.9404L193.885 18.3647L193.885 18.3648L194.31 17.9404ZM195.457 18.416L195.457 19.016H195.457V18.416ZM196.634 17.9404L197.058 18.3647L197.058 18.3647L196.634 17.9404ZM197.109 15.8682V15.2682H196.509V15.8682H197.109ZM200.638 15.8682H201.238V15.2682H200.638V15.8682ZM199.125 20.4326L199.549 20.8569L199.549 20.8569L199.125 20.4326ZM195.457 21.9443L195.457 22.5443H195.457V21.9443ZM191.817 20.4326L191.393 20.8569L191.393 20.8569L191.817 20.4326ZM190.306 14.6641V14.0641H189.706V14.6641H190.306ZM193.833 14.6641H194.433V14.0641H193.833V14.6641ZM251.135 1V0.4V1ZM254.803 2.51172L255.227 2.08745L255.227 2.08743L254.803 2.51172ZM254.803 20.4326L255.227 20.8569L255.227 20.8569L254.803 20.4326ZM251.135 21.9443V22.5443V21.9443ZM247.495 20.4326L247.071 20.8569L247.071 20.8569L247.495 20.4326ZM247.495 2.51172L247.071 2.08742L247.071 2.08745L247.495 2.51172ZM382.953 1V0.4H382.953L382.953 1ZM386.621 2.51172L387.045 2.08745L387.045 2.08741L386.621 2.51172ZM388.134 7.07617V7.67617H388.734V7.07617H388.134ZM384.605 7.07617H384.005V7.67617H384.605V7.07617ZM384.13 5.00391L384.554 4.57966L384.554 4.57964L384.13 5.00391ZM382.953 4.52832V3.92832L382.953 3.92832L382.953 4.52832ZM381.806 5.00391L381.381 4.57958L381.381 4.57964L381.806 5.00391ZM381.806 17.9404L381.381 18.3647L381.381 18.3648L381.806 17.9404ZM382.953 18.416L382.953 19.016H382.953V18.416ZM384.13 17.9404L384.554 18.3647L384.554 18.3647L384.13 17.9404ZM384.605 12.8721H385.205V12.2721H384.605V12.8721ZM382.562 12.8721H381.962V13.4721H382.562V12.8721ZM382.562 9.34375V8.74375H381.962V9.34375H382.562ZM388.134 9.34375H388.734V8.74375H388.134V9.34375ZM386.621 20.4326L387.045 20.8569L387.045 20.8569L386.621 20.4326ZM382.953 21.9443L382.953 22.5443H382.953V21.9443ZM379.313 20.4326L378.889 20.8569V20.8569L379.313 20.4326ZM379.313 2.51172L378.889 2.08744V2.08745L379.313 2.51172ZM93.8926 4.80859V5.40859H94.4926V4.80859H93.8926ZM88.1523 4.80859V4.20859H87.5523V4.80859H88.1523ZM88.1523 9.34375H87.5523V9.94375H88.1523V9.34375ZM93.2207 9.34375H93.8207V8.74375H93.2207V9.34375ZM93.2207 12.8721V13.4721H93.8207V12.8721H93.2207ZM88.1523 12.8721V12.2721H87.5523V12.8721H88.1523ZM88.1523 18.1357H87.5523V18.7357H88.1523V18.1357ZM93.8926 18.1357H94.4926V17.5357H93.8926V18.1357ZM93.8926 21.6641V22.2641H94.4926V21.6641H93.8926ZM84.624 21.6641H84.024V22.2641H84.624V21.6641ZM84.624 1.28027V0.680273H84.024V1.28027H84.624ZM93.8926 1.28027H94.4926V0.680273H93.8926V1.28027ZM156.27 4.80859V5.40859H156.87V4.80859H156.27ZM150.529 4.80859V4.20859H149.929V4.80859H150.529ZM150.529 9.34375H149.929V9.94375H150.529V9.34375ZM155.597 9.34375H156.197V8.74375H155.597V9.34375ZM155.597 12.8721V13.4721H156.197V12.8721H155.597ZM150.529 12.8721V12.2721H149.929V12.8721H150.529ZM150.529 18.1357H149.929V18.7357H150.529V18.1357ZM156.27 18.1357H156.87V17.5357H156.27V18.1357ZM156.27 21.6641V22.2641H156.87V21.6641H156.27ZM147.001 21.6641H146.401V22.2641H147.001V21.6641ZM147.001 1.28027V0.680273H146.401V1.28027H147.001ZM156.27 1.28027H156.87V0.680273H156.27V1.28027ZM175.228 12.4238L174.671 12.6488L175.828 12.4238H175.228ZM175.228 1.28027V0.680273H174.628V1.28027H175.228ZM178.756 1.28027H179.356V0.680273H178.756V1.28027ZM178.756 21.6641V22.2641H179.356V21.6641H178.756ZM175.228 21.6641L174.671 21.8891L174.823 22.2641H175.228V21.6641ZM170.72 10.5205L171.276 10.2955L170.12 10.5205H170.72ZM170.72 21.6641V22.2641H171.32V21.6641H170.72ZM167.191 21.6641H166.591V22.2641H167.191V21.6641ZM167.191 1.28027V0.680273H166.591V1.28027H167.191ZM170.72 1.28027L171.276 1.05527L171.124 0.680273H170.72V1.28027ZM221.161 4.80859V5.40859H221.761V4.80859H221.161ZM215.421 4.80859V4.20859H214.821V4.80859H215.421ZM215.421 9.34375H214.821V9.94375H215.421V9.34375ZM220.489 9.34375H221.089V8.74375H220.489V9.34375ZM220.489 12.8721V13.4721H221.089V12.8721H220.489ZM215.421 12.8721V12.2721H214.821V12.8721H215.421ZM215.421 18.1357H214.821V18.7357H215.421V18.1357ZM221.161 18.1357H221.761V17.5357H221.161V18.1357ZM221.161 21.6641V22.2641H221.761V21.6641H221.161ZM211.894 21.6641H211.294V22.2641H211.894V21.6641ZM211.894 1.28027V0.680273H211.294V1.28027H211.894ZM221.161 1.28027H221.761V0.680273H221.161V1.28027ZM271.372 21.6641V22.2641H271.972V21.6641H271.372ZM267.844 21.6641H267.244V22.2641H267.844V21.6641ZM267.844 17.6641V17.0641H267.244V17.6641H267.844ZM271.372 17.6641H271.972V17.0641H271.372V17.6641ZM311.152 4.80859V5.40859H311.752V4.80859H311.152ZM307.652 4.80859V4.20859H307.052V4.80859H307.652ZM307.652 21.6641V22.2641H308.252V21.6641H307.652ZM304.125 21.6641H303.525V22.2641H304.125V21.6641ZM304.125 4.80859H304.725V4.20859H304.125V4.80859ZM300.625 4.80859H300.025V5.40859H300.625V4.80859ZM300.625 1.28027V0.680273H300.025V1.28027H300.625ZM311.152 1.28027H311.752V0.680273H311.152V1.28027ZM325.245 9.34375H324.645V9.94375H325.245V9.34375ZM328.521 9.34375V9.94375H329.121V9.34375H328.521ZM328.521 1.28027V0.680273H327.921V1.28027H328.521ZM332.049 1.28027H332.649V0.680273H332.049V1.28027ZM332.049 21.6641V22.2641H332.649V21.6641H332.049ZM328.521 21.6641H327.921V22.2641H328.521V21.6641ZM328.521 12.8721H329.121V12.2721H328.521V12.8721ZM325.245 12.8721V12.2721H324.645V12.8721H325.245ZM325.245 21.6641V22.2641H325.845V21.6641H325.245ZM321.717 21.6641H321.117V22.2641H321.717V21.6641ZM321.717 1.28027V0.680273H321.117V1.28027H321.717ZM325.245 1.28027H325.845V0.680273H325.245V1.28027ZM352.98 4.80859V5.40859H353.58V4.80859H352.98ZM347.24 4.80859V4.20859H346.64V4.80859H347.24ZM347.24 9.34375H346.64V9.94375H347.24V9.34375ZM352.308 9.34375H352.908V8.74375H352.308V9.34375ZM352.308 12.8721V13.4721H352.908V12.8721H352.308ZM347.24 12.8721V12.2721H346.64V12.8721H347.24ZM347.24 18.1357H346.64V18.7357H347.24V18.1357ZM352.98 18.1357H353.58V17.5357H352.98V18.1357ZM352.98 21.6641V22.2641H353.58V21.6641H352.98ZM343.712 21.6641H343.112V22.2641H343.712V21.6641ZM343.712 1.28027V0.680273H343.112V1.28027H343.712ZM352.98 1.28027H353.58V0.680273H352.98V1.28027ZM403.303 14.1045L402.713 13.9951L402.581 14.7045H403.303V14.1045ZM405.431 14.1045V14.7045H406.152L406.021 13.9952L405.431 14.1045ZM404.477 8.95215V8.35215H403.755L403.887 9.0614L404.477 8.95215ZM407.754 8.95215L408.341 8.828L408.24 8.35215H407.754V8.95215ZM410.442 21.6641V22.2641H411.183L411.029 21.5399L410.442 21.6641ZM406.831 21.6641L406.241 21.7746L406.333 22.2641H406.831V21.6641ZM406.075 17.6318L406.665 17.5213L406.573 17.0318H406.075V17.6318ZM402.659 17.6318V17.0318H402.161L402.069 17.5212L402.659 17.6318ZM401.902 21.6641V22.2641H402.4L402.492 21.7747L401.902 21.6641ZM398.291 21.6641L397.704 21.5399L397.551 22.2641H398.291V21.6641ZM400.979 8.95215V8.35215H400.493L400.392 8.828L400.979 8.95215ZM404.258 8.95215L404.848 9.06151L404.979 8.35215H404.258V8.95215ZM428.009 12.3965L427.44 12.5871L428.011 14.2918L428.578 12.5858L428.009 12.3965ZM431.704 1.28027V0.680273H431.271L431.135 1.091L431.704 1.28027ZM435.261 1.28027H435.861V0.680273H435.261V1.28027ZM435.261 21.6641V22.2641H435.861V21.6641H435.261ZM431.732 21.6641H431.132V22.2641H431.732V21.6641ZM431.732 10.5479H432.332L431.159 10.3703L431.732 10.5479ZM429.269 18.5V19.1H429.711L429.842 18.6776L429.269 18.5ZM426.721 18.5L426.148 18.6776L426.278 19.1H426.721V18.5ZM424.257 10.5479L424.83 10.3703L423.657 10.5479H424.257ZM424.257 21.6641V22.2641H424.857V21.6641H424.257ZM420.729 21.6641H420.129V22.2641H420.729V21.6641ZM420.729 1.28027V0.680273H420.129V1.28027H420.729ZM424.284 1.28027L424.853 1.08965L424.716 0.680273H424.284V1.28027ZM456.176 4.80859V5.40859H456.776V4.80859H456.176ZM450.436 4.80859V4.20859H449.836V4.80859H450.436ZM450.436 9.34375H449.836V9.94375H450.436V9.34375ZM455.503 9.34375H456.103V8.74375H455.503V9.34375ZM455.503 12.8721V13.4721H456.103V12.8721H455.503ZM450.436 12.8721V12.2721H449.836V12.8721H450.436ZM450.436 18.1357H449.836V18.7357H450.436V18.1357ZM456.176 18.1357H456.776V17.5357H456.176V18.1357ZM456.176 21.6641V22.2641H456.776V21.6641H456.176ZM446.907 21.6641H446.307V22.2641H446.907V21.6641ZM446.907 1.28027V0.680273H446.307V1.28027H446.907ZM456.176 1.28027H456.776V0.680273H456.176V1.28027ZM251.135 4.52832V3.92832L251.135 3.92832L251.135 4.52832ZM249.986 5.00391L249.562 4.57964L249.562 4.57968L249.986 5.00391ZM249.986 17.9404L249.562 18.3647L249.562 18.3647L249.986 17.9404ZM251.135 18.416L251.135 19.016H251.135V18.416ZM252.311 17.9404L252.735 18.3648L252.735 18.3647L252.311 17.9404ZM252.311 5.00391L252.735 4.57964L252.735 4.57956L252.311 5.00391ZM271.372 16.6641V17.2641H271.972V16.6641H271.372ZM267.844 16.6641H267.244V17.2641H267.844V16.6641ZM267.844 15.6641V15.0641H267.244V15.6641H267.844ZM271.372 15.6641H271.972V15.0641H271.372V15.6641ZM271.372 14.6641V15.2641H271.972V14.6641H271.372ZM267.844 14.6641H267.244V15.2641H267.844V14.6641ZM267.844 13.6641V13.0641H267.244V13.6641H267.844ZM271.372 13.6641H271.972V13.0641H271.372V13.6641ZM193.833 13.6641V14.2641H194.433V13.6641H193.833ZM190.306 13.6641H189.706V14.2641H190.306V13.6641ZM190.306 12.6641V12.0641H189.706V12.6641H190.306ZM193.833 12.6641H194.433V12.0641H193.833V12.6641ZM277.112 4.80859V5.40859H277.712V4.80859H277.112ZM271.372 4.80859V4.20859H270.772V4.80859H271.372ZM271.372 9.34375H270.772V9.94375H271.372V9.34375ZM276.44 9.34375H277.04V8.74375H276.44V9.34375ZM276.44 12.8721V13.4721H277.04V12.8721H276.44ZM275.535 12.8721H274.935V13.4721H275.535V12.8721ZM275.535 12.6641H276.135V12.0641H275.535V12.6641ZM267.844 12.6641H267.244V13.2641H267.844V12.6641ZM267.844 1.28027V0.680273H267.244V1.28027H267.844ZM277.112 1.28027H277.712V0.680273H277.112V1.28027ZM193.833 11.6641V12.2641H194.433V11.6641H193.833ZM190.306 11.6641H189.706V12.2641H190.306V11.6641ZM190.306 10.6641V10.0641H189.706V10.6641H190.306ZM193.833 10.6641H194.433V10.0641H193.833V10.6641ZM195.457 1V0.4H195.457L195.457 1ZM199.125 2.51172L199.549 2.08745L199.549 2.08741L199.125 2.51172ZM200.638 7.07617V7.67617H201.238V7.07617H200.638ZM197.109 7.07617H196.509V7.67617H197.109V7.07617ZM196.634 5.00391L197.058 4.57966L197.058 4.57964L196.634 5.00391ZM195.457 4.52832V3.92832L195.457 3.92832L195.457 4.52832ZM194.31 5.00391L193.885 4.57959L193.885 4.57964L194.31 5.00391ZM193.833 9.66406V10.2641H194.433V9.66406H193.833ZM190.306 9.66406H189.706V10.2641H190.306V9.66406ZM191.817 2.51172L191.393 2.08744L191.393 2.08745L191.817 2.51172ZM407.542 7.95215V8.55215H408.282L408.129 7.82776L407.542 7.95215ZM401.191 7.95215L400.604 7.82776L400.451 8.55215H401.191V7.95215ZM401.403 6.95215V6.35215H400.917L400.816 6.82776L401.403 6.95215ZM407.33 6.95215L407.917 6.82776L407.816 6.35215H407.33V6.95215ZM407.119 5.95215V6.55215H407.86L407.706 5.82776L407.119 5.95215ZM401.614 5.95215L401.027 5.82776L400.874 6.55215H401.614V5.95215ZM401.826 4.95215V4.35215H401.34L401.239 4.82776L401.826 4.95215ZM406.907 4.95215L407.494 4.82776L407.393 4.35215H406.907V4.95215ZM406.696 3.95215V4.55215H407.437L407.283 3.82793L406.696 3.95215ZM402.037 3.95215L401.45 3.82793L401.297 4.55215H402.037V3.95215ZM402.603 1.28027V0.680273H402.116L402.016 1.15605L402.603 1.28027ZM406.131 1.28027L406.718 1.15605L406.617 0.680273H406.131V1.28027ZM109.52 1L109.519 1.6C110.799 1.60009 111.869 2.04174 112.763 2.93598L113.188 2.51172L113.612 2.08745C112.49 0.965922 111.114 0.400109 109.52 0.4L109.52 1ZM113.188 2.51172L112.763 2.93598C113.659 3.83196 114.099 4.89351 114.099 6.15234H114.699H115.299C115.299 4.57385 114.732 3.20748 113.612 2.08745L113.188 2.51172ZM114.699 6.15234H114.099V7.07617H114.699H115.299V6.15234H114.699ZM114.699 7.07617V6.47617H111.171V7.07617V7.67617H114.699V7.07617ZM111.171 7.07617H111.771V6.15234H111.171H110.571V7.07617H111.171ZM111.171 6.15234H111.771C111.771 5.54548 111.55 5.00968 111.12 4.57964L110.695 5.00391L110.271 5.42817C110.476 5.6328 110.571 5.86321 110.571 6.15234H111.171ZM110.695 5.00391L111.12 4.57964C110.685 4.14471 110.138 3.92845 109.52 3.92832L109.52 4.52832L109.519 5.12832C109.834 5.12838 110.072 5.22865 110.271 5.42818L110.695 5.00391ZM109.52 4.52832V3.92832C108.913 3.92832 108.377 4.1497 107.947 4.57961L108.371 5.00391L108.795 5.42821C109 5.22359 109.23 5.12832 109.52 5.12832V4.52832ZM108.371 5.00391L107.947 4.57964C107.517 5.00968 107.296 5.54548 107.296 6.15234H107.896H108.496C108.496 5.86321 108.591 5.6328 108.795 5.42817L108.371 5.00391ZM107.896 6.15234H107.296V6.48828H107.896H108.496V6.15234H107.896ZM107.896 6.48828L107.296 6.4883C107.296 7.49629 107.675 8.34793 108.431 8.98973L108.819 8.53223L109.208 8.07472C108.732 7.67125 108.496 7.16015 108.496 6.48826L107.896 6.48828ZM108.819 8.53223L108.429 8.98774L112.152 12.1801L112.543 11.7246L112.933 11.2691L109.21 8.07671L108.819 8.53223ZM112.543 11.7246L112.146 12.1743C113.457 13.332 114.099 14.7464 114.099 16.4561L114.699 16.4561L115.299 16.456C115.299 14.3953 114.504 12.6558 112.94 11.2749L112.543 11.7246ZM114.699 16.4561H114.099V16.792H114.699H115.299V16.4561H114.699ZM114.699 16.792H114.099C114.099 18.0508 113.659 19.1124 112.763 20.0084L113.188 20.4326L113.612 20.8569C114.732 19.7369 115.299 18.3705 115.299 16.792H114.699ZM113.188 20.4326L112.763 20.0083C111.869 20.9026 110.799 21.3442 109.519 21.3443L109.52 21.9443L109.52 22.5443C111.114 22.5442 112.49 21.9784 113.612 20.8569L113.188 20.4326ZM109.52 21.9443V21.3443C108.261 21.3443 107.199 20.9042 106.303 20.0083L105.879 20.4326L105.455 20.8569C106.575 21.9768 107.941 22.5443 109.52 22.5443V21.9443ZM105.879 20.4326L106.303 20.0084C105.407 19.1124 104.967 18.0508 104.967 16.792H104.367H103.767C103.767 18.3705 104.335 19.7369 105.455 20.8569L105.879 20.4326ZM104.367 16.792H104.967V15.8682H104.367H103.767V16.792H104.367ZM104.367 15.8682V16.4682H107.896V15.8682V15.2682H104.367V15.8682ZM107.896 15.8682H107.296V16.792H107.896H108.496V15.8682H107.896ZM107.896 16.792H107.296C107.296 17.3989 107.517 17.9347 107.947 18.3647L108.371 17.9404L108.795 17.5162C108.591 17.3115 108.496 17.0811 108.496 16.792H107.896ZM108.371 17.9404L107.947 18.3647C108.377 18.7946 108.913 19.016 109.52 19.016V18.416V17.816C109.231 17.816 109 17.7207 108.795 17.5161L108.371 17.9404ZM109.52 18.416L109.52 19.016C110.138 19.0159 110.685 18.7996 111.12 18.3647L110.695 17.9404L110.271 17.5162C110.072 17.7157 109.834 17.816 109.519 17.816L109.52 18.416ZM110.695 17.9404L111.12 18.3647C111.55 17.9347 111.771 17.3989 111.771 16.792H111.171H110.571C110.571 17.0811 110.476 17.3115 110.271 17.5162L110.695 17.9404ZM111.171 16.792H111.771V16.4561H111.171H110.571V16.792H111.171ZM111.171 16.4561L111.771 16.456C111.771 15.448 111.392 14.5964 110.635 13.9546L110.247 14.4121L109.859 14.8696C110.334 15.2731 110.571 15.7842 110.571 16.4561L111.171 16.4561ZM110.247 14.4121L110.638 13.9566L106.914 10.7642L106.523 11.2197L106.133 11.6752L109.857 14.8676L110.247 14.4121ZM106.523 11.2197L106.921 10.77C105.61 9.61229 104.967 8.19803 104.967 6.48827L104.367 6.48828L103.767 6.48829C103.767 8.54906 104.563 10.2886 106.126 11.6695L106.523 11.2197ZM104.367 6.48828H104.967V6.15234H104.367H103.767V6.48828H104.367ZM104.367 6.15234H104.967C104.967 4.89351 105.407 3.83196 106.303 2.93598L105.879 2.51172L105.455 2.08745C104.335 3.20748 103.767 4.57385 103.767 6.15234H104.367ZM105.879 2.51172L106.303 2.93599C107.199 2.04007 108.261 1.6 109.52 1.6V1V0.4C107.941 0.4 106.575 0.967511 105.455 2.08744L105.879 2.51172ZM130.612 1L130.612 1.6C131.892 1.60005 132.962 2.04174 133.856 2.93599L134.28 2.51172L134.705 2.08744C133.583 0.96596 132.207 0.400058 130.612 0.4L130.612 1ZM134.28 2.51172L133.856 2.93598C134.752 3.83196 135.192 4.89351 135.192 6.15234H135.792H136.392C136.392 4.57385 135.825 3.20748 134.705 2.08745L134.28 2.51172ZM135.792 6.15234H135.192V7.07617H135.792H136.392V6.15234H135.792ZM135.792 7.07617V6.47617H132.264V7.07617V7.67617H135.792V7.07617ZM132.264 7.07617H132.864V6.15234H132.264H131.664V7.07617H132.264ZM132.264 6.15234H132.864C132.864 5.54548 132.642 5.00968 132.212 4.57964L131.788 5.00391L131.364 5.42817C131.568 5.6328 131.664 5.86321 131.664 6.15234H132.264ZM131.788 5.00391L132.212 4.5796C131.777 4.14479 131.231 3.92839 130.612 3.92832L130.612 4.52832L130.612 5.12832C130.927 5.12835 131.164 5.22862 131.364 5.42821L131.788 5.00391ZM130.612 4.52832V3.92832C130.005 3.92832 129.47 4.14961 129.04 4.57964L129.464 5.00391L129.888 5.42817C130.093 5.22355 130.323 5.12832 130.612 5.12832V4.52832ZM129.464 5.00391L129.04 4.57964C128.61 5.00968 128.388 5.54548 128.388 6.15234H128.988H129.588C129.588 5.86321 129.684 5.6328 129.888 5.42817L129.464 5.00391ZM128.988 6.15234H128.388V6.48828H128.988H129.588V6.15234H128.988ZM128.988 6.48828L128.388 6.4883C128.388 7.49629 128.768 8.34793 129.524 8.98973L129.912 8.53223L130.3 8.07472C129.825 7.67125 129.588 7.16015 129.588 6.48826L128.988 6.48828ZM129.912 8.53223L129.522 8.98774L133.245 12.1801L133.636 11.7246L134.026 11.2691L130.303 8.07671L129.912 8.53223ZM133.636 11.7246L133.239 12.1743C134.55 13.3321 135.192 14.7463 135.192 16.4561L135.792 16.4561L136.392 16.456C136.392 14.3953 135.597 12.6558 134.033 11.2749L133.636 11.7246ZM135.792 16.4561H135.192V16.792H135.792H136.392V16.4561H135.792ZM135.792 16.792H135.192C135.192 18.0508 134.752 19.1124 133.856 20.0084L134.28 20.4326L134.705 20.8569C135.825 19.7369 136.392 18.3705 136.392 16.792H135.792ZM134.28 20.4326L133.856 20.0083C132.962 20.9026 131.892 21.3443 130.612 21.3443L130.612 21.9443L130.612 22.5443C132.207 22.5443 133.583 21.9784 134.705 20.8569L134.28 20.4326ZM130.612 21.9443V21.3443C129.353 21.3443 128.292 20.9043 127.396 20.0084L126.972 20.4326L126.547 20.8569C127.667 21.9769 129.034 22.5443 130.612 22.5443V21.9443ZM126.972 20.4326L127.396 20.0084C126.5 19.1124 126.06 18.0508 126.06 16.792H125.46H124.86C124.86 18.3705 125.427 19.7369 126.547 20.8569L126.972 20.4326ZM125.46 16.792H126.06V15.8682H125.46H124.86V16.792H125.46ZM125.46 15.8682V16.4682H128.988V15.8682V15.2682H125.46V15.8682ZM128.988 15.8682H128.388V16.792H128.988H129.588V15.8682H128.988ZM128.988 16.792H128.388C128.388 17.3989 128.61 17.9347 129.04 18.3647L129.464 17.9404L129.888 17.5162C129.684 17.3115 129.588 17.0811 129.588 16.792H128.988ZM129.464 17.9404L129.04 18.3647C129.47 18.7947 130.005 19.016 130.612 19.016V18.416V17.816C130.323 17.816 130.093 17.7208 129.888 17.5162L129.464 17.9404ZM130.612 18.416L130.612 19.016C131.231 19.0159 131.777 18.7995 132.212 18.3647L131.788 17.9404L131.364 17.5161C131.164 17.7157 130.927 17.816 130.612 17.816L130.612 18.416ZM131.788 17.9404L132.212 18.3647C132.642 17.9347 132.864 17.3989 132.864 16.792H132.264H131.664C131.664 17.0811 131.568 17.3115 131.364 17.5162L131.788 17.9404ZM132.264 16.792H132.864V16.4561H132.264H131.664V16.792H132.264ZM132.264 16.4561L132.864 16.456C132.864 15.448 132.484 14.5964 131.728 13.9546L131.34 14.4121L130.952 14.8696C131.427 15.2731 131.664 15.7842 131.664 16.4561L132.264 16.4561ZM131.34 14.4121L131.73 13.9566L128.007 10.7642L127.616 11.2197L127.226 11.6752L130.949 14.8676L131.34 14.4121ZM127.616 11.2197L128.013 10.77C126.703 9.6123 126.06 8.19797 126.06 6.48827L125.46 6.48828L124.86 6.48829C124.86 8.54902 125.655 10.2886 127.219 11.6694L127.616 11.2197ZM125.46 6.48828H126.06V6.15234H125.46H124.86V6.48828H125.46ZM125.46 6.15234H126.06C126.06 4.89351 126.5 3.83196 127.396 2.93598L126.972 2.51172L126.547 2.08745C125.427 3.20748 124.86 4.57385 124.86 6.15234H125.46ZM126.972 2.51172L127.396 2.93598C128.292 2.04002 129.353 1.6 130.612 1.6V1V0.4C129.034 0.4 127.667 0.967439 126.547 2.08745L126.972 2.51172ZM193.833 16.792H193.233C193.233 17.3998 193.456 17.9353 193.885 18.3647L194.31 17.9404L194.734 17.5162C194.529 17.3109 194.433 17.0802 194.433 16.792H193.833ZM194.31 17.9404L193.885 18.3648C194.315 18.7943 194.85 19.0159 195.457 19.016L195.457 18.416L195.457 17.816C195.169 17.816 194.939 17.7208 194.734 17.5161L194.31 17.9404ZM195.457 18.416V19.016C196.075 19.016 196.623 18.7999 197.058 18.3647L196.634 17.9404L196.21 17.5162C196.01 17.7156 195.772 17.816 195.457 17.816V18.416ZM196.634 17.9404L197.058 18.3647C197.488 17.9347 197.709 17.3989 197.709 16.792H197.109H196.509C196.509 17.0811 196.414 17.3115 196.21 17.5162L196.634 17.9404ZM197.109 16.792H197.709V15.8682H197.109H196.509V16.792H197.109ZM197.109 15.8682V16.4682H200.638V15.8682V15.2682H197.109V15.8682ZM200.638 15.8682H200.038V16.792H200.638H201.238V15.8682H200.638ZM200.638 16.792H200.038C200.038 18.0505 199.597 19.1122 198.701 20.0084L199.125 20.4326L199.549 20.8569C200.669 19.7371 201.238 18.3708 201.238 16.792H200.638ZM199.125 20.4326L198.701 20.0083C197.806 20.9025 196.737 21.3443 195.457 21.3443V21.9443V22.5443C197.052 22.5443 198.428 21.9782 199.549 20.8569L199.125 20.4326ZM195.457 21.9443L195.457 21.3443C194.199 21.3442 193.138 20.9042 192.242 20.0083L191.817 20.4326L191.393 20.8569C192.513 21.9766 193.879 22.5442 195.457 22.5443L195.457 21.9443ZM191.817 20.4326L192.242 20.0084C191.346 19.1124 190.906 18.0508 190.906 16.792H190.306H189.706C189.706 18.3705 190.273 19.7369 191.393 20.8569L191.817 20.4326ZM190.306 16.792H190.906V14.6641H190.306H189.706V16.792H190.306ZM190.306 14.6641V15.2641H193.833V14.6641V14.0641H190.306V14.6641ZM193.833 14.6641H193.233V16.792H193.833H194.433V14.6641H193.833ZM251.135 1V1.6C252.414 1.6 253.484 2.04175 254.378 2.93601L254.803 2.51172L255.227 2.08743C254.105 0.966014 252.73 0.4 251.135 0.4V1ZM254.803 2.51172L254.378 2.93598C255.274 3.83196 255.714 4.89351 255.714 6.15234H256.314H256.914C256.914 4.57385 256.347 3.20748 255.227 2.08745L254.803 2.51172ZM256.314 6.15234H255.714V16.792H256.314H256.914V6.15234H256.314ZM256.314 16.792H255.714C255.714 18.0508 255.274 19.1124 254.378 20.0084L254.803 20.4326L255.227 20.8569C256.347 19.7369 256.914 18.3705 256.914 16.792H256.314ZM254.803 20.4326L254.378 20.0083C253.484 20.9026 252.414 21.3443 251.135 21.3443V21.9443V22.5443C252.73 22.5443 254.105 21.9783 255.227 20.8569L254.803 20.4326ZM251.135 21.9443V21.3443C249.876 21.3443 248.815 20.9042 247.919 20.0083L247.495 20.4326L247.071 20.8569C248.191 21.9765 249.556 22.5443 251.135 22.5443V21.9443ZM247.495 20.4326L247.919 20.0084C247.023 19.1122 246.582 18.0505 246.582 16.792H245.982H245.382C245.382 18.3708 245.951 19.7371 247.071 20.8569L247.495 20.4326ZM245.982 16.792H246.582V6.15234H245.982H245.382V16.792H245.982ZM245.982 6.15234H246.582C246.582 4.8938 247.023 3.83217 247.919 2.93598L247.495 2.51172L247.071 2.08745C245.951 3.20727 245.382 4.57355 245.382 6.15234H245.982ZM247.495 2.51172L247.919 2.93602C248.815 2.04015 249.876 1.60001 251.135 1.6V1V0.4C249.556 0.400008 248.191 0.9678 247.071 2.08742L247.495 2.51172ZM382.953 1V1.6C384.233 1.6 385.303 2.04186 386.197 2.93603L386.621 2.51172L387.045 2.08741C385.924 0.966155 384.548 0.4 382.953 0.4V1ZM386.621 2.51172L386.197 2.93598C387.093 3.83217 387.534 4.8938 387.534 6.15234H388.134H388.734C388.734 4.57355 388.165 3.20727 387.045 2.08745L386.621 2.51172ZM388.134 6.15234H387.534V7.07617H388.134H388.734V6.15234H388.134ZM388.134 7.07617V6.47617H384.605V7.07617V7.67617H388.134V7.07617ZM384.605 7.07617H385.205V6.15234H384.605H384.005V7.07617H384.605ZM384.605 6.15234H385.205C385.205 5.54548 384.984 5.00967 384.554 4.57966L384.13 5.00391L383.706 5.42815C383.91 5.63279 384.005 5.86325 384.005 6.15234H384.605ZM384.13 5.00391L384.554 4.57964C384.119 4.14441 383.571 3.92832 382.953 3.92832V4.52832V5.12832C383.268 5.12832 383.506 5.22874 383.706 5.42817L384.13 5.00391ZM382.953 4.52832L382.953 3.92832C382.346 3.92845 381.811 4.15007 381.381 4.57958L381.806 5.00391L382.23 5.42823C382.435 5.22352 382.665 5.12838 382.953 5.12832L382.953 4.52832ZM381.806 5.00391L381.381 4.57964C380.952 5.00902 380.729 5.54454 380.729 6.15234H381.329H381.929C381.929 5.86415 382.025 5.63346 382.23 5.42817L381.806 5.00391ZM381.329 6.15234H380.729V16.792H381.329H381.929V6.15234H381.329ZM381.329 16.792H380.729C380.729 17.3998 380.952 17.9353 381.381 18.3647L381.806 17.9404L382.23 17.5162C382.025 17.3109 381.929 17.0802 381.929 16.792H381.329ZM381.806 17.9404L381.381 18.3648C381.811 18.7943 382.346 19.0159 382.953 19.016L382.953 18.416L382.953 17.816C382.665 17.816 382.435 17.7208 382.23 17.5161L381.806 17.9404ZM382.953 18.416V19.016C383.571 19.016 384.119 18.7999 384.554 18.3647L384.13 17.9404L383.706 17.5162C383.506 17.7156 383.268 17.816 382.953 17.816V18.416ZM384.13 17.9404L384.554 18.3647C384.984 17.9347 385.205 17.3989 385.205 16.792H384.605H384.005C384.005 17.0811 383.91 17.3115 383.706 17.5162L384.13 17.9404ZM384.605 16.792H385.205V12.8721H384.605H384.005V16.792H384.605ZM384.605 12.8721V12.2721H382.562V12.8721V13.4721H384.605V12.8721ZM382.562 12.8721H383.162V9.34375H382.562H381.962V12.8721H382.562ZM382.562 9.34375V9.94375H388.134V9.34375V8.74375H382.562V9.34375ZM388.134 9.34375H387.534V16.792H388.134H388.734V9.34375H388.134ZM388.134 16.792H387.534C387.534 18.0505 387.093 19.1122 386.197 20.0084L386.621 20.4326L387.045 20.8569C388.165 19.7371 388.734 18.3708 388.734 16.792H388.134ZM386.621 20.4326L386.197 20.0083C385.303 20.9025 384.233 21.3443 382.953 21.3443V21.9443V22.5443C384.548 22.5443 385.924 21.9782 387.045 20.8569L386.621 20.4326ZM382.953 21.9443L382.953 21.3443C381.695 21.3442 380.634 20.9042 379.738 20.0083L379.313 20.4326L378.889 20.8569C380.009 21.9766 381.375 22.5442 382.953 22.5443L382.953 21.9443ZM379.313 20.4326L379.738 20.0084C378.842 19.1124 378.402 18.0508 378.402 16.792H377.802H377.202C377.202 18.3705 377.769 19.7369 378.889 20.8569L379.313 20.4326ZM377.802 16.792H378.402V6.15234H377.802H377.202V16.792H377.802ZM377.802 6.15234H378.402C378.402 4.89351 378.842 3.83196 379.738 2.93598L379.313 2.51172L378.889 2.08745C377.769 3.20748 377.202 4.57385 377.202 6.15234H377.802ZM379.313 2.51172L379.738 2.936C380.634 2.04015 381.695 1.60009 382.953 1.6L382.953 1L382.953 0.4C381.375 0.400108 380.009 0.967727 378.889 2.08744L379.313 2.51172ZM93.8926 4.80859V4.20859H88.1523V4.80859V5.40859H93.8926V4.80859ZM88.1523 4.80859H87.5523V9.34375H88.1523H88.7523V4.80859H88.1523ZM88.1523 9.34375V9.94375H93.2207V9.34375V8.74375H88.1523V9.34375ZM93.2207 9.34375H92.6207V12.8721H93.2207H93.8207V9.34375H93.2207ZM93.2207 12.8721V12.2721H88.1523V12.8721V13.4721H93.2207V12.8721ZM88.1523 12.8721H87.5523V18.1357H88.1523H88.7523V12.8721H88.1523ZM88.1523 18.1357V18.7357H93.8926V18.1357V17.5357H88.1523V18.1357ZM93.8926 18.1357H93.2926V21.6641H93.8926H94.4926V18.1357H93.8926ZM93.8926 21.6641V21.0641H84.624V21.6641V22.2641H93.8926V21.6641ZM84.624 21.6641H85.224V1.28027H84.624H84.024V21.6641H84.624ZM84.624 1.28027V1.88027H93.8926V1.28027V0.680273H84.624V1.28027ZM93.8926 1.28027H93.2926V4.80859H93.8926H94.4926V1.28027H93.8926ZM156.27 4.80859V4.20859H150.529V4.80859V5.40859H156.27V4.80859ZM150.529 4.80859H149.929V9.34375H150.529H151.129V4.80859H150.529ZM150.529 9.34375V9.94375H155.597V9.34375V8.74375H150.529V9.34375ZM155.597 9.34375H154.997V12.8721H155.597H156.197V9.34375H155.597ZM155.597 12.8721V12.2721H150.529V12.8721V13.4721H155.597V12.8721ZM150.529 12.8721H149.929V18.1357H150.529H151.129V12.8721H150.529ZM150.529 18.1357V18.7357H156.27V18.1357V17.5357H150.529V18.1357ZM156.27 18.1357H155.67V21.6641H156.27H156.87V18.1357H156.27ZM156.27 21.6641V21.0641H147.001V21.6641V22.2641H156.27V21.6641ZM147.001 21.6641H147.601V1.28027H147.001H146.401V21.6641H147.001ZM147.001 1.28027V1.88027H156.27V1.28027V0.680273H147.001V1.28027ZM156.27 1.28027H155.67V4.80859H156.27H156.87V1.28027H156.27ZM175.228 12.4238H175.828V1.28027H175.228H174.628V12.4238H175.228ZM175.228 1.28027V1.88027H178.756V1.28027V0.680273H175.228V1.28027ZM178.756 1.28027H178.156V21.6641H178.756H179.356V1.28027H178.756ZM178.756 21.6641V21.0641H175.228V21.6641V22.2641H178.756V21.6641ZM175.228 21.6641L175.784 21.4391L171.276 10.2955L170.72 10.5205L170.164 10.7455L174.671 21.8891L175.228 21.6641ZM170.72 10.5205H170.12V21.6641H170.72H171.32V10.5205H170.72ZM170.72 21.6641V21.0641H167.191V21.6641V22.2641H170.72V21.6641ZM167.191 21.6641H167.791V1.28027H167.191H166.591V21.6641H167.191ZM167.191 1.28027V1.88027H170.72V1.28027V0.680273H167.191V1.28027ZM170.72 1.28027L170.164 1.50527L174.671 12.6488L175.228 12.4238L175.784 12.1988L171.276 1.05527L170.72 1.28027ZM221.161 4.80859V4.20859H215.421V4.80859V5.40859H221.161V4.80859ZM215.421 4.80859H214.821V9.34375H215.421H216.021V4.80859H215.421ZM215.421 9.34375V9.94375H220.489V9.34375V8.74375H215.421V9.34375ZM220.489 9.34375H219.889V12.8721H220.489H221.089V9.34375H220.489ZM220.489 12.8721V12.2721H215.421V12.8721V13.4721H220.489V12.8721ZM215.421 12.8721H214.821V18.1357H215.421H216.021V12.8721H215.421ZM215.421 18.1357V18.7357H221.161V18.1357V17.5357H215.421V18.1357ZM221.161 18.1357H220.561V21.6641H221.161H221.761V18.1357H221.161ZM221.161 21.6641V21.0641H211.894V21.6641V22.2641H221.161V21.6641ZM211.894 21.6641H212.494V1.28027H211.894H211.294V21.6641H211.894ZM211.894 1.28027V1.88027H221.161V1.28027V0.680273H211.894V1.28027ZM221.161 1.28027H220.561V4.80859H221.161H221.761V1.28027H221.161ZM271.372 21.6641V21.0641H267.844V21.6641V22.2641H271.372V21.6641ZM267.844 21.6641H268.444V17.6641H267.844H267.244V21.6641H267.844ZM267.844 17.6641V18.2641H271.372V17.6641V17.0641H267.844V17.6641ZM271.372 17.6641H270.772V21.6641H271.372H271.972V17.6641H271.372ZM311.152 4.80859V4.20859H307.652V4.80859V5.40859H311.152V4.80859ZM307.652 4.80859H307.052V21.6641H307.652H308.252V4.80859H307.652ZM307.652 21.6641V21.0641H304.125V21.6641V22.2641H307.652V21.6641ZM304.125 21.6641H304.725V4.80859H304.125H303.525V21.6641H304.125ZM304.125 4.80859V4.20859H300.625V4.80859V5.40859H304.125V4.80859ZM300.625 4.80859H301.225V1.28027H300.625H300.025V4.80859H300.625ZM300.625 1.28027V1.88027H311.152V1.28027V0.680273H300.625V1.28027ZM311.152 1.28027H310.552V4.80859H311.152H311.752V1.28027H311.152ZM325.245 9.34375V9.94375H328.521V9.34375V8.74375H325.245V9.34375ZM328.521 9.34375H329.121V1.28027H328.521H327.921V9.34375H328.521ZM328.521 1.28027V1.88027H332.049V1.28027V0.680273H328.521V1.28027ZM332.049 1.28027H331.449V21.6641H332.049H332.649V1.28027H332.049ZM332.049 21.6641V21.0641H328.521V21.6641V22.2641H332.049V21.6641ZM328.521 21.6641H329.121V12.8721H328.521H327.921V21.6641H328.521ZM328.521 12.8721V12.2721H325.245V12.8721V13.4721H328.521V12.8721ZM325.245 12.8721H324.645V21.6641H325.245H325.845V12.8721H325.245ZM325.245 21.6641V21.0641H321.717V21.6641V22.2641H325.245V21.6641ZM321.717 21.6641H322.317V1.28027H321.717H321.117V21.6641H321.717ZM321.717 1.28027V1.88027H325.245V1.28027V0.680273H321.717V1.28027ZM325.245 1.28027H324.645V9.34375H325.245H325.845V1.28027H325.245ZM352.98 4.80859V4.20859H347.24V4.80859V5.40859H352.98V4.80859ZM347.24 4.80859H346.64V9.34375H347.24H347.84V4.80859H347.24ZM347.24 9.34375V9.94375H352.308V9.34375V8.74375H347.24V9.34375ZM352.308 9.34375H351.708V12.8721H352.308H352.908V9.34375H352.308ZM352.308 12.8721V12.2721H347.24V12.8721V13.4721H352.308V12.8721ZM347.24 12.8721H346.64V18.1357H347.24H347.84V12.8721H347.24ZM347.24 18.1357V18.7357H352.98V18.1357V17.5357H347.24V18.1357ZM352.98 18.1357H352.38V21.6641H352.98H353.58V18.1357H352.98ZM352.98 21.6641V21.0641H343.712V21.6641V22.2641H352.98V21.6641ZM343.712 21.6641H344.312V1.28027H343.712H343.112V21.6641H343.712ZM343.712 1.28027V1.88027H352.98V1.28027V0.680273H343.712V1.28027ZM352.98 1.28027H352.38V4.80859H352.98H353.58V1.28027H352.98ZM403.303 14.1045V14.7045H405.431V14.1045V13.5045H403.303V14.1045ZM405.431 14.1045L406.021 13.9952L405.067 8.8429L404.477 8.95215L403.887 9.0614L404.841 14.2137L405.431 14.1045ZM404.477 8.95215V9.55215H407.754V8.95215V8.35215H404.477V8.95215ZM407.754 8.95215L407.167 9.0763L409.855 21.7882L410.442 21.6641L411.029 21.5399L408.341 8.828L407.754 8.95215ZM410.442 21.6641V21.0641H406.831V21.6641V22.2641H410.442V21.6641ZM406.831 21.6641L407.421 21.5535L406.665 17.5213L406.075 17.6318L405.485 17.7424L406.241 21.7746L406.831 21.6641ZM406.075 17.6318V17.0318H402.659V17.6318V18.2318H406.075V17.6318ZM402.659 17.6318L402.069 17.5212L401.313 21.5534L401.902 21.6641L402.492 21.7747L403.249 17.7425L402.659 17.6318ZM401.902 21.6641V21.0641H398.291V21.6641V22.2641H401.902V21.6641ZM398.291 21.6641L398.878 21.7882L401.566 9.0763L400.979 8.95215L400.392 8.828L397.704 21.5399L398.291 21.6641ZM400.979 8.95215V9.55215H404.258V8.95215V8.35215H400.979V8.95215ZM404.258 8.95215L403.668 8.84279L402.713 13.9951L403.303 14.1045L403.893 14.2139L404.848 9.06151L404.258 8.95215ZM428.009 12.3965L428.578 12.5858L432.273 1.46954L431.704 1.28027L431.135 1.091L427.439 12.2072L428.009 12.3965ZM431.704 1.28027V1.88027H435.261V1.28027V0.680273H431.704V1.28027ZM435.261 1.28027H434.661V21.6641H435.261H435.861V1.28027H435.261ZM435.261 21.6641V21.0641H431.732V21.6641V22.2641H435.261V21.6641ZM431.732 21.6641H432.332V10.5479H431.732H431.132V21.6641H431.732ZM431.732 10.5479L431.159 10.3703L428.695 18.3224L429.269 18.5L429.842 18.6776L432.306 10.7254L431.732 10.5479ZM429.269 18.5V17.9H426.721V18.5V19.1H429.269V18.5ZM426.721 18.5L427.294 18.3224L424.83 10.3703L424.257 10.5479L423.684 10.7254L426.148 18.6776L426.721 18.5ZM424.257 10.5479H423.657V21.6641H424.257H424.857V10.5479H424.257ZM424.257 21.6641V21.0641H420.729V21.6641V22.2641H424.257V21.6641ZM420.729 21.6641H421.329V1.28027H420.729H420.129V21.6641H420.729ZM420.729 1.28027V1.88027H424.284V1.28027V0.680273H420.729V1.28027ZM424.284 1.28027L423.715 1.47089L427.44 12.5871L428.009 12.3965L428.578 12.2059L424.853 1.08965L424.284 1.28027ZM456.176 4.80859V4.20859H450.436V4.80859V5.40859H456.176V4.80859ZM450.436 4.80859H449.836V9.34375H450.436H451.036V4.80859H450.436ZM450.436 9.34375V9.94375H455.503V9.34375V8.74375H450.436V9.34375ZM455.503 9.34375H454.903V12.8721H455.503H456.103V9.34375H455.503ZM455.503 12.8721V12.2721H450.436V12.8721V13.4721H455.503V12.8721ZM450.436 12.8721H449.836V18.1357H450.436H451.036V12.8721H450.436ZM450.436 18.1357V18.7357H456.176V18.1357V17.5357H450.436V18.1357ZM456.176 18.1357H455.576V21.6641H456.176H456.776V18.1357H456.176ZM456.176 21.6641V21.0641H446.907V21.6641V22.2641H456.176V21.6641ZM446.907 21.6641H447.507V1.28027H446.907H446.307V21.6641H446.907ZM446.907 1.28027V1.88027H456.176V1.28027V0.680273H446.907V1.28027ZM456.176 1.28027H455.576V4.80859H456.176H456.776V1.28027H456.176ZM251.135 4.52832L251.135 3.92832C250.528 3.92833 249.992 4.1496 249.562 4.57964L249.986 5.00391L250.411 5.42817C250.615 5.22356 250.846 5.12832 251.135 5.12832L251.135 4.52832ZM249.986 5.00391L249.562 4.57968C249.132 5.00965 248.911 5.54549 248.911 6.15234H249.511H250.111C250.111 5.8633 250.206 5.63278 250.411 5.42813L249.986 5.00391ZM249.511 6.15234H248.911V16.792H249.511H250.111V6.15234H249.511ZM249.511 16.792H248.911C248.911 17.3988 249.132 17.9347 249.562 18.3647L249.986 17.9404L250.411 17.5162C250.206 17.3116 250.111 17.081 250.111 16.792H249.511ZM249.986 17.9404L249.562 18.3647C249.992 18.7947 250.528 19.016 251.135 19.016L251.135 18.416L251.135 17.816C250.846 17.816 250.615 17.7208 250.411 17.5162L249.986 17.9404ZM251.135 18.416V19.016C251.753 19.016 252.3 18.7994 252.735 18.3648L252.311 17.9404L251.886 17.5161C251.687 17.7157 251.449 17.816 251.135 17.816V18.416ZM252.311 17.9404L252.735 18.3647C253.164 17.9353 253.387 17.3998 253.387 16.792H252.787H252.187C252.187 17.0802 252.092 17.3109 251.886 17.5162L252.311 17.9404ZM252.787 16.792H253.387V6.15234H252.787H252.187V16.792H252.787ZM252.787 6.15234H253.387C253.387 5.54454 253.164 5.00902 252.735 4.57964L252.311 5.00391L251.886 5.42817C252.092 5.63346 252.187 5.86415 252.187 6.15234H252.787ZM252.311 5.00391L252.735 4.57956C252.3 4.14489 251.753 3.92832 251.135 3.92832V4.52832V5.12832C251.449 5.12832 251.687 5.22859 251.886 5.42825L252.311 5.00391ZM271.372 16.6641V16.0641H267.844V16.6641V17.2641H271.372V16.6641ZM267.844 16.6641H268.444V15.6641H267.844H267.244V16.6641H267.844ZM267.844 15.6641V16.2641H271.372V15.6641V15.0641H267.844V15.6641ZM271.372 15.6641H270.772V16.6641H271.372H271.972V15.6641H271.372ZM271.372 14.6641V14.0641H267.844V14.6641V15.2641H271.372V14.6641ZM267.844 14.6641H268.444V13.6641H267.844H267.244V14.6641H267.844ZM267.844 13.6641V14.2641H271.372V13.6641V13.0641H267.844V13.6641ZM271.372 13.6641H270.772V14.6641H271.372H271.972V13.6641H271.372ZM193.833 13.6641V13.0641H190.306V13.6641V14.2641H193.833V13.6641ZM190.306 13.6641H190.906V12.6641H190.306H189.706V13.6641H190.306ZM190.306 12.6641V13.2641H193.833V12.6641V12.0641H190.306V12.6641ZM193.833 12.6641H193.233V13.6641H193.833H194.433V12.6641H193.833ZM277.112 4.80859V4.20859H271.372V4.80859V5.40859H277.112V4.80859ZM271.372 4.80859H270.772V9.34375H271.372H271.972V4.80859H271.372ZM271.372 9.34375V9.94375H276.44V9.34375V8.74375H271.372V9.34375ZM276.44 9.34375H275.84V12.8721H276.44H277.04V9.34375H276.44ZM276.44 12.8721V12.2721H275.535V12.8721V13.4721H276.44V12.8721ZM275.535 12.8721H276.135V12.6641H275.535H274.935V12.8721H275.535ZM275.535 12.6641V12.0641H267.844V12.6641V13.2641H275.535V12.6641ZM267.844 12.6641H268.444V1.28027H267.844H267.244V12.6641H267.844ZM267.844 1.28027V1.88027H277.112V1.28027V0.680273H267.844V1.28027ZM277.112 1.28027H276.512V4.80859H277.112H277.712V1.28027H277.112ZM193.833 11.6641V11.0641H190.306V11.6641V12.2641H193.833V11.6641ZM190.306 11.6641H190.906V10.6641H190.306H189.706V11.6641H190.306ZM190.306 10.6641V11.2641H193.833V10.6641V10.0641H190.306V10.6641ZM193.833 10.6641H193.233V11.6641H193.833H194.433V10.6641H193.833ZM195.457 1V1.6C196.737 1.6 197.806 2.04187 198.701 2.93603L199.125 2.51172L199.549 2.08741C198.428 0.966161 197.052 0.4 195.457 0.4V1ZM199.125 2.51172L198.701 2.93598C199.597 3.83217 200.038 4.8938 200.038 6.15234H200.638H201.238C201.238 4.57355 200.669 3.20727 199.549 2.08745L199.125 2.51172ZM200.638 6.15234H200.038V7.07617H200.638H201.238V6.15234H200.638ZM200.638 7.07617V6.47617H197.109V7.07617V7.67617H200.638V7.07617ZM197.109 7.07617H197.709V6.15234H197.109H196.509V7.07617H197.109ZM197.109 6.15234H197.709C197.709 5.54548 197.488 5.00967 197.058 4.57966L196.634 5.00391L196.21 5.42816C196.414 5.63279 196.509 5.86325 196.509 6.15234H197.109ZM196.634 5.00391L197.058 4.57964C196.623 4.14441 196.075 3.92832 195.457 3.92832V4.52832V5.12832C195.772 5.12832 196.01 5.22874 196.21 5.42817L196.634 5.00391ZM195.457 4.52832L195.457 3.92832C194.85 3.92846 194.315 4.15006 193.885 4.57959L194.31 5.00391L194.734 5.42823C194.939 5.22352 195.169 5.12839 195.457 5.12832L195.457 4.52832ZM194.31 5.00391L193.885 4.57964C193.456 5.00902 193.233 5.54454 193.233 6.15234H193.833H194.433C194.433 5.86415 194.529 5.63346 194.734 5.42817L194.31 5.00391ZM193.833 6.15234H193.233V9.66406H193.833H194.433V6.15234H193.833ZM193.833 9.66406V9.06406H190.306V9.66406V10.2641H193.833V9.66406ZM190.306 9.66406H190.906V6.15234H190.306H189.706V9.66406H190.306ZM190.306 6.15234H190.906C190.906 4.89351 191.346 3.83196 192.242 2.93598L191.817 2.51172L191.393 2.08745C190.273 3.20748 189.706 4.57385 189.706 6.15234H190.306ZM191.817 2.51172L192.242 2.936C193.138 2.04015 194.199 1.60009 195.457 1.6L195.457 1L195.457 0.4C193.879 0.400112 192.513 0.967724 191.393 2.08744L191.817 2.51172ZM407.542 7.95215V7.35215H401.191V7.95215V8.55215H407.542V7.95215ZM401.191 7.95215L401.778 8.07653L401.99 7.07653L401.403 6.95215L400.816 6.82776L400.604 7.82776L401.191 7.95215ZM401.403 6.95215V7.55215H407.33V6.95215V6.35215H401.403V6.95215ZM407.33 6.95215L406.743 7.07653L406.955 8.07653L407.542 7.95215L408.129 7.82776L407.917 6.82776L407.33 6.95215ZM407.119 5.95215V5.35215H401.614V5.95215V6.55215H407.119V5.95215ZM401.614 5.95215L402.201 6.07653L402.413 5.07653L401.826 4.95215L401.239 4.82776L401.027 5.82776L401.614 5.95215ZM401.826 4.95215V5.55215H406.907V4.95215V4.35215H401.826V4.95215ZM406.907 4.95215L406.32 5.07653L406.532 6.07653L407.119 5.95215L407.706 5.82776L407.494 4.82776L406.907 4.95215ZM406.696 3.95215V3.35215H402.037V3.95215V4.55215H406.696V3.95215ZM402.037 3.95215L402.624 4.07637L403.19 1.4045L402.603 1.28027L402.016 1.15605L401.45 3.82793L402.037 3.95215ZM402.603 1.28027V1.88027H406.131V1.28027V0.680273H402.603V1.28027ZM406.131 1.28027L405.544 1.4045L406.109 4.07637L406.696 3.95215L407.283 3.82793L406.718 1.15605L406.131 1.28027Z" fill="url(#paint1_linear_7_146)" mask="url(#path-1-inside-1_7_146)"/>
<defs>
<radialGradient id="paint0_radial_7_146" cx="0" cy="0" r="1" gradientUnits="userSpaceOnUse" gradientTransform="translate(269.76 11.7474) rotate(90) scale(54.3276 241.83)">
<stop offset="0.0954682" stop-color="white"/>
<stop offset="1" stop-color="#ECF7FF" stop-opacity="0"/>
</radialGradient>
<linearGradient id="paint1_linear_7_146" x1="269.76" y1="-8.03681" x2="269.76" y2="63.9319" gradientUnits="userSpaceOnUse">
<stop stop-color="#253596" stop-opacity="0"/>
<stop offset="0.456017" stop-color="#4A76D4"/>
<stop offset="1" stop-color="#76EAF1"/>
</linearGradient>
</defs>
</svg>
