<svg width="370" height="22" viewBox="0 0 370 22" fill="none" xmlns="http://www.w3.org/2000/svg">
<mask id="path-1-inside-1_7_469" fill="white">
<path d="M43.6641 2.71973H39.4844V5.93945C39.9376 5.7129 40.4646 5.59961 41.0645 5.59961C41.7842 5.59968 42.3977 5.85289 42.9043 6.35938C43.411 6.86604 43.6641 7.4802 43.6641 8.2002V11.6201C43.664 12.5399 43.3306 13.3262 42.6641 13.9795C42.0107 14.6328 41.2237 14.96 40.3037 14.96C39.3839 14.9599 38.5976 14.6327 37.9443 13.9795C37.2911 13.3262 36.9639 12.54 36.9639 11.6201V10.6201H39.4844V11.6201C39.4844 11.8467 39.5647 12.0403 39.7246 12.2002C39.8844 12.3598 40.0774 12.4393 40.3037 12.4395C40.5437 12.4395 40.7443 12.3601 40.9043 12.2002C41.0642 12.0403 41.1445 11.8467 41.1445 11.6201V8.7998C41.1445 8.55995 41.0641 8.36014 40.9043 8.2002C40.7443 8.0402 40.5437 7.95996 40.3037 7.95996C40.0773 7.96007 39.8845 8.04034 39.7246 8.2002C39.5646 8.36018 39.4844 8.55983 39.4844 8.7998H36.9639V0.200195H43.6641V2.71973ZM65.1875 0C66.2141 5.0884e-05 67.0877 0.360129 67.8076 1.08008C68.5274 1.79998 68.8877 2.66656 68.8877 3.67969V4.33984H66.3672V3.67969C66.3671 3.35976 66.254 3.086 66.0273 2.85938C65.8008 2.6329 65.5206 2.51958 65.1875 2.51953C64.8676 2.51953 64.5938 2.63284 64.3672 2.85938C64.1406 3.086 64.0274 3.35976 64.0273 3.67969V3.91992C64.0274 4.51989 64.2475 5.00656 64.6875 5.37988L67.3477 7.66016C68.3741 8.56677 68.8877 9.69353 68.8877 11.04V11.2803C68.8876 12.2934 68.5274 13.16 67.8076 13.8799C67.0877 14.5998 66.2141 14.9599 65.1875 14.96C64.1742 14.96 63.3069 14.5999 62.5869 13.8799C61.8671 13.16 61.5069 12.2933 61.5068 11.2803V10.6201H64.0273V11.2803C64.0274 11.6 64.1407 11.8731 64.3672 12.0996C64.5939 12.3263 64.8675 12.4395 65.1875 12.4395C65.5207 12.4394 65.8007 12.3262 66.0273 12.0996C66.2538 11.8731 66.3671 11.6 66.3672 11.2803V11.04C66.3672 10.44 66.147 9.95341 65.707 9.58008L63.0469 7.2998C62.0204 6.39319 61.5069 5.26645 61.5068 3.91992V3.67969C61.5069 2.66656 61.8671 1.79998 62.5869 1.08008C63.3069 0.360078 64.1742 0 65.1875 0ZM109.807 0C110.833 0.000105686 111.706 0.360244 112.426 1.08008C113.146 1.80004 113.506 2.66642 113.506 3.67969V4.33984H110.986V3.67969C110.986 3.35976 110.873 3.086 110.646 2.85938C110.42 2.63287 110.14 2.51963 109.807 2.51953C109.487 2.51953 109.213 2.63291 108.986 2.85938C108.76 3.086 108.647 3.35976 108.646 3.67969V11.2803C108.647 11.6001 108.76 11.8731 108.986 12.0996C109.213 12.3263 109.487 12.4395 109.807 12.4395C110.14 12.4394 110.42 12.3262 110.646 12.0996C110.873 11.8731 110.986 11.6 110.986 11.2803V8.47949H109.526V5.95996H113.506V11.2803C113.506 12.2934 113.146 13.16 112.426 13.8799C111.706 14.5996 110.833 14.9599 109.807 14.96C108.793 14.96 107.926 14.5999 107.206 13.8799C106.486 13.16 106.126 12.2934 106.126 11.2803V3.67969C106.126 2.66651 106.486 1.8 107.206 1.08008C107.926 0.360078 108.793 0 109.807 0ZM139.523 0C140.55 5.0884e-05 141.424 0.360129 142.144 1.08008C142.863 1.79998 143.224 2.66656 143.224 3.67969V4.33984H140.703V3.67969C140.703 3.35976 140.59 3.086 140.363 2.85938C140.137 2.6329 139.857 2.51958 139.523 2.51953C139.204 2.51953 138.93 2.63284 138.703 2.85938C138.476 3.086 138.363 3.35976 138.363 3.67969V3.91992C138.363 4.51989 138.583 5.00656 139.023 5.37988L141.684 7.66016C142.71 8.56677 143.224 9.69353 143.224 11.04V11.2803C143.224 12.2934 142.863 13.16 142.144 13.8799C141.424 14.5998 140.55 14.9599 139.523 14.96C138.51 14.96 137.643 14.5999 136.923 13.8799C136.203 13.16 135.843 12.2933 135.843 11.2803V10.6201H138.363V11.2803C138.363 11.6 138.477 11.8731 138.703 12.0996C138.93 12.3263 139.203 12.4395 139.523 12.4395C139.857 12.4394 140.137 12.3262 140.363 12.0996C140.59 11.8731 140.703 11.6 140.703 11.2803V11.04C140.703 10.44 140.483 9.95341 140.043 9.58008L137.383 7.2998C136.356 6.39319 135.843 5.26645 135.843 3.91992V3.67969C135.843 2.66656 136.203 1.79998 136.923 1.08008C137.643 0.360078 138.51 0 139.523 0ZM163.678 11.2803C163.678 11.6001 163.791 11.8731 164.018 12.0996C164.244 12.3263 164.518 12.4395 164.838 12.4395C165.171 12.4394 165.451 12.3262 165.678 12.0996C165.904 11.8731 166.017 11.6 166.018 11.2803V10.0957H168.537V11.2803C168.537 12.2934 168.177 13.16 167.457 13.8799C166.737 14.5996 165.864 14.9599 164.838 14.96C163.825 14.96 162.957 14.5999 162.237 13.8799C161.517 13.16 161.157 12.2934 161.157 11.2803V10.0957H163.678V11.2803ZM339.131 0C340.157 0.000105686 341.03 0.360244 341.75 1.08008C342.47 1.80004 342.83 2.66642 342.83 3.67969V4.33984H340.311V3.67969C340.311 3.35976 340.197 3.086 339.971 2.85938C339.744 2.63287 339.464 2.51963 339.131 2.51953C338.811 2.51953 338.537 2.63291 338.311 2.85938C338.084 3.086 337.971 3.35976 337.971 3.67969V11.2803C337.971 11.6001 338.084 11.8731 338.311 12.0996C338.537 12.3263 338.811 12.4395 339.131 12.4395C339.464 12.4394 339.744 12.3262 339.971 12.0996C340.197 11.8731 340.31 11.6 340.311 11.2803V8.47949H338.851V5.95996H342.83V11.2803C342.83 12.2934 342.47 13.16 341.75 13.8799C341.03 14.5996 340.157 14.9599 339.131 14.96C338.118 14.96 337.25 14.5999 336.53 13.8799C335.81 13.16 335.45 12.2934 335.45 11.2803V3.67969C335.45 2.66651 335.81 1.8 336.53 1.08008C337.25 0.360078 338.118 0 339.131 0ZM28.7979 14.7598H26.2783V3.33984L24.3379 5.04004V1.89941L26.2783 0.200195H28.7979V14.7598ZM81.1133 14.7598H78.5938V9.0957H81.1133V14.7598ZM98.8594 14.7598H96.2793L95.7393 11.8799H93.2988L92.7598 14.7598H90.1797L93.2598 0.200195H95.7793L98.8594 14.7598ZM128.361 2.71973H124.262V5.95996H127.881V8.47949H124.262V12.2402H128.361V14.7598H121.741V0.200195H128.361V2.71973ZM183.393 2.71973H179.293V5.95996H182.912V8.47949H179.293V14.7598H176.772V0.200195H183.393V2.71973ZM207.607 2.71973H203.508V5.95996H207.127V8.47949H203.508V14.7598H200.987V0.200195H207.607V2.71973ZM217.715 14.7598H215.194V0.200195H217.715V14.7598ZM228.582 12.2402H232.002V14.7598H226.062V0.200195H228.582V12.2402ZM244.727 8.13965L247.366 0.200195H249.906V14.7598H247.387V6.82031L245.627 12.5H243.807L242.047 6.82031V14.7598H239.526V0.200195H242.066L244.727 8.13965ZM263.426 8.13965L266.065 0.200195H268.605V14.7598H266.086V6.82031L264.326 12.5H262.506L260.746 6.82031V14.7598H258.226V0.200195H260.766L263.426 8.13965ZM284.625 14.7598H282.045L281.505 11.8799H279.064L278.525 14.7598H275.945L279.025 0.200195H281.545L284.625 14.7598ZM294.492 6.33984L297.252 0.200195H300.052L297.092 6.17969L300.691 14.7598H297.952L295.691 9L294.492 11.3994V14.7598H291.972V0.200195H294.492V6.33984ZM310.594 14.7598H308.073V7.0957H310.594V14.7598ZM324.681 8.16016V0.200195H327.2V14.7598H324.681L321.461 6.7998V14.7598H318.94V0.200195H321.461L324.681 8.16016ZM93.7598 9.35938H95.2793L94.5195 5.25977L93.7598 9.35938ZM279.525 9.35938H281.045L280.285 5.25977L279.525 9.35938ZM163.678 9.0957H161.157V8.0957H163.678V9.0957ZM168.537 9.0957H166.018V8.0957H168.537V9.0957ZM81.1133 8.0957H78.5938V7.0957H81.1133V8.0957ZM163.678 7.0957H161.157V6.0957H163.678V7.0957ZM168.537 7.0957H166.018V6.0957H168.537V7.0957ZM81.1133 6.0957H78.5938V5.0957H81.1133V6.0957ZM310.594 6.0957H308.073V5.0957H310.594V6.0957ZM164.838 0C165.864 0.000105686 166.737 0.360244 167.457 1.08008C168.177 1.80004 168.537 2.66642 168.537 3.67969V5.0957H166.018V3.67969C166.018 3.35976 165.904 3.086 165.678 2.85938C165.451 2.63287 165.171 2.51963 164.838 2.51953C164.518 2.51953 164.244 2.63291 164.018 2.85938C163.791 3.086 163.678 3.35976 163.678 3.67969V5.0957H161.157V3.67969C161.157 2.66651 161.517 1.8 162.237 1.08008C162.957 0.360078 163.825 0 164.838 0ZM83.6133 2.71973H81.1133V4.0957H78.5938V2.71973H76.0938V0.200195H83.6133V2.71973ZM310.594 4.0957H308.073V3.0957H310.594V4.0957ZM310.594 2.0957H308.073V0.200195H310.594V2.0957Z"/>
</mask>
<path d="M43.6641 2.71973H39.4844V5.93945C39.9376 5.7129 40.4646 5.59961 41.0645 5.59961C41.7842 5.59968 42.3977 5.85289 42.9043 6.35938C43.411 6.86604 43.6641 7.4802 43.6641 8.2002V11.6201C43.664 12.5399 43.3306 13.3262 42.6641 13.9795C42.0107 14.6328 41.2237 14.96 40.3037 14.96C39.3839 14.9599 38.5976 14.6327 37.9443 13.9795C37.2911 13.3262 36.9639 12.54 36.9639 11.6201V10.6201H39.4844V11.6201C39.4844 11.8467 39.5647 12.0403 39.7246 12.2002C39.8844 12.3598 40.0774 12.4393 40.3037 12.4395C40.5437 12.4395 40.7443 12.3601 40.9043 12.2002C41.0642 12.0403 41.1445 11.8467 41.1445 11.6201V8.7998C41.1445 8.55995 41.0641 8.36014 40.9043 8.2002C40.7443 8.0402 40.5437 7.95996 40.3037 7.95996C40.0773 7.96007 39.8845 8.04034 39.7246 8.2002C39.5646 8.36018 39.4844 8.55983 39.4844 8.7998H36.9639V0.200195H43.6641V2.71973ZM65.1875 0C66.2141 5.0884e-05 67.0877 0.360129 67.8076 1.08008C68.5274 1.79998 68.8877 2.66656 68.8877 3.67969V4.33984H66.3672V3.67969C66.3671 3.35976 66.254 3.086 66.0273 2.85938C65.8008 2.6329 65.5206 2.51958 65.1875 2.51953C64.8676 2.51953 64.5938 2.63284 64.3672 2.85938C64.1406 3.086 64.0274 3.35976 64.0273 3.67969V3.91992C64.0274 4.51989 64.2475 5.00656 64.6875 5.37988L67.3477 7.66016C68.3741 8.56677 68.8877 9.69353 68.8877 11.04V11.2803C68.8876 12.2934 68.5274 13.16 67.8076 13.8799C67.0877 14.5998 66.2141 14.9599 65.1875 14.96C64.1742 14.96 63.3069 14.5999 62.5869 13.8799C61.8671 13.16 61.5069 12.2933 61.5068 11.2803V10.6201H64.0273V11.2803C64.0274 11.6 64.1407 11.8731 64.3672 12.0996C64.5939 12.3263 64.8675 12.4395 65.1875 12.4395C65.5207 12.4394 65.8007 12.3262 66.0273 12.0996C66.2538 11.8731 66.3671 11.6 66.3672 11.2803V11.04C66.3672 10.44 66.147 9.95341 65.707 9.58008L63.0469 7.2998C62.0204 6.39319 61.5069 5.26645 61.5068 3.91992V3.67969C61.5069 2.66656 61.8671 1.79998 62.5869 1.08008C63.3069 0.360078 64.1742 0 65.1875 0ZM109.807 0C110.833 0.000105686 111.706 0.360244 112.426 1.08008C113.146 1.80004 113.506 2.66642 113.506 3.67969V4.33984H110.986V3.67969C110.986 3.35976 110.873 3.086 110.646 2.85938C110.42 2.63287 110.14 2.51963 109.807 2.51953C109.487 2.51953 109.213 2.63291 108.986 2.85938C108.76 3.086 108.647 3.35976 108.646 3.67969V11.2803C108.647 11.6001 108.76 11.8731 108.986 12.0996C109.213 12.3263 109.487 12.4395 109.807 12.4395C110.14 12.4394 110.42 12.3262 110.646 12.0996C110.873 11.8731 110.986 11.6 110.986 11.2803V8.47949H109.526V5.95996H113.506V11.2803C113.506 12.2934 113.146 13.16 112.426 13.8799C111.706 14.5996 110.833 14.9599 109.807 14.96C108.793 14.96 107.926 14.5999 107.206 13.8799C106.486 13.16 106.126 12.2934 106.126 11.2803V3.67969C106.126 2.66651 106.486 1.8 107.206 1.08008C107.926 0.360078 108.793 0 109.807 0ZM139.523 0C140.55 5.0884e-05 141.424 0.360129 142.144 1.08008C142.863 1.79998 143.224 2.66656 143.224 3.67969V4.33984H140.703V3.67969C140.703 3.35976 140.59 3.086 140.363 2.85938C140.137 2.6329 139.857 2.51958 139.523 2.51953C139.204 2.51953 138.93 2.63284 138.703 2.85938C138.476 3.086 138.363 3.35976 138.363 3.67969V3.91992C138.363 4.51989 138.583 5.00656 139.023 5.37988L141.684 7.66016C142.71 8.56677 143.224 9.69353 143.224 11.04V11.2803C143.224 12.2934 142.863 13.16 142.144 13.8799C141.424 14.5998 140.55 14.9599 139.523 14.96C138.51 14.96 137.643 14.5999 136.923 13.8799C136.203 13.16 135.843 12.2933 135.843 11.2803V10.6201H138.363V11.2803C138.363 11.6 138.477 11.8731 138.703 12.0996C138.93 12.3263 139.203 12.4395 139.523 12.4395C139.857 12.4394 140.137 12.3262 140.363 12.0996C140.59 11.8731 140.703 11.6 140.703 11.2803V11.04C140.703 10.44 140.483 9.95341 140.043 9.58008L137.383 7.2998C136.356 6.39319 135.843 5.26645 135.843 3.91992V3.67969C135.843 2.66656 136.203 1.79998 136.923 1.08008C137.643 0.360078 138.51 0 139.523 0ZM163.678 11.2803C163.678 11.6001 163.791 11.8731 164.018 12.0996C164.244 12.3263 164.518 12.4395 164.838 12.4395C165.171 12.4394 165.451 12.3262 165.678 12.0996C165.904 11.8731 166.017 11.6 166.018 11.2803V10.0957H168.537V11.2803C168.537 12.2934 168.177 13.16 167.457 13.8799C166.737 14.5996 165.864 14.9599 164.838 14.96C163.825 14.96 162.957 14.5999 162.237 13.8799C161.517 13.16 161.157 12.2934 161.157 11.2803V10.0957H163.678V11.2803ZM339.131 0C340.157 0.000105686 341.03 0.360244 341.75 1.08008C342.47 1.80004 342.83 2.66642 342.83 3.67969V4.33984H340.311V3.67969C340.311 3.35976 340.197 3.086 339.971 2.85938C339.744 2.63287 339.464 2.51963 339.131 2.51953C338.811 2.51953 338.537 2.63291 338.311 2.85938C338.084 3.086 337.971 3.35976 337.971 3.67969V11.2803C337.971 11.6001 338.084 11.8731 338.311 12.0996C338.537 12.3263 338.811 12.4395 339.131 12.4395C339.464 12.4394 339.744 12.3262 339.971 12.0996C340.197 11.8731 340.31 11.6 340.311 11.2803V8.47949H338.851V5.95996H342.83V11.2803C342.83 12.2934 342.47 13.16 341.75 13.8799C341.03 14.5996 340.157 14.9599 339.131 14.96C338.118 14.96 337.25 14.5999 336.53 13.8799C335.81 13.16 335.45 12.2934 335.45 11.2803V3.67969C335.45 2.66651 335.81 1.8 336.53 1.08008C337.25 0.360078 338.118 0 339.131 0ZM28.7979 14.7598H26.2783V3.33984L24.3379 5.04004V1.89941L26.2783 0.200195H28.7979V14.7598ZM81.1133 14.7598H78.5938V9.0957H81.1133V14.7598ZM98.8594 14.7598H96.2793L95.7393 11.8799H93.2988L92.7598 14.7598H90.1797L93.2598 0.200195H95.7793L98.8594 14.7598ZM128.361 2.71973H124.262V5.95996H127.881V8.47949H124.262V12.2402H128.361V14.7598H121.741V0.200195H128.361V2.71973ZM183.393 2.71973H179.293V5.95996H182.912V8.47949H179.293V14.7598H176.772V0.200195H183.393V2.71973ZM207.607 2.71973H203.508V5.95996H207.127V8.47949H203.508V14.7598H200.987V0.200195H207.607V2.71973ZM217.715 14.7598H215.194V0.200195H217.715V14.7598ZM228.582 12.2402H232.002V14.7598H226.062V0.200195H228.582V12.2402ZM244.727 8.13965L247.366 0.200195H249.906V14.7598H247.387V6.82031L245.627 12.5H243.807L242.047 6.82031V14.7598H239.526V0.200195H242.066L244.727 8.13965ZM263.426 8.13965L266.065 0.200195H268.605V14.7598H266.086V6.82031L264.326 12.5H262.506L260.746 6.82031V14.7598H258.226V0.200195H260.766L263.426 8.13965ZM284.625 14.7598H282.045L281.505 11.8799H279.064L278.525 14.7598H275.945L279.025 0.200195H281.545L284.625 14.7598ZM294.492 6.33984L297.252 0.200195H300.052L297.092 6.17969L300.691 14.7598H297.952L295.691 9L294.492 11.3994V14.7598H291.972V0.200195H294.492V6.33984ZM310.594 14.7598H308.073V7.0957H310.594V14.7598ZM324.681 8.16016V0.200195H327.2V14.7598H324.681L321.461 6.7998V14.7598H318.94V0.200195H321.461L324.681 8.16016ZM93.7598 9.35938H95.2793L94.5195 5.25977L93.7598 9.35938ZM279.525 9.35938H281.045L280.285 5.25977L279.525 9.35938ZM163.678 9.0957H161.157V8.0957H163.678V9.0957ZM168.537 9.0957H166.018V8.0957H168.537V9.0957ZM81.1133 8.0957H78.5938V7.0957H81.1133V8.0957ZM163.678 7.0957H161.157V6.0957H163.678V7.0957ZM168.537 7.0957H166.018V6.0957H168.537V7.0957ZM81.1133 6.0957H78.5938V5.0957H81.1133V6.0957ZM310.594 6.0957H308.073V5.0957H310.594V6.0957ZM164.838 0C165.864 0.000105686 166.737 0.360244 167.457 1.08008C168.177 1.80004 168.537 2.66642 168.537 3.67969V5.0957H166.018V3.67969C166.018 3.35976 165.904 3.086 165.678 2.85938C165.451 2.63287 165.171 2.51963 164.838 2.51953C164.518 2.51953 164.244 2.63291 164.018 2.85938C163.791 3.086 163.678 3.35976 163.678 3.67969V5.0957H161.157V3.67969C161.157 2.66651 161.517 1.8 162.237 1.08008C162.957 0.360078 163.825 0 164.838 0ZM83.6133 2.71973H81.1133V4.0957H78.5938V2.71973H76.0938V0.200195H83.6133V2.71973ZM310.594 4.0957H308.073V3.0957H310.594V4.0957ZM310.594 2.0957H308.073V0.200195H310.594V2.0957Z" fill="url(#paint0_radial_7_469)"/>
<path d="M43.6641 2.71973V3.31973H44.2641V2.71973H43.6641ZM39.4844 2.71973V2.11973H38.8844V2.71973H39.4844ZM39.4844 5.93945H38.8844V6.91013L39.7526 6.47614L39.4844 5.93945ZM41.0645 5.59961L41.0645 4.99961H41.0645V5.59961ZM42.9043 6.35938L43.3286 5.93511L43.3285 5.93508L42.9043 6.35938ZM43.6641 11.6201L44.2641 11.6202V11.6201H43.6641ZM42.6641 13.9795L42.2441 13.551L42.2398 13.5552L42.6641 13.9795ZM40.3037 14.96L40.3036 15.56H40.3037V14.96ZM37.9443 13.9795L37.5201 14.4037L37.5201 14.4038L37.9443 13.9795ZM36.9639 11.6201H36.3639V11.6202L36.9639 11.6201ZM36.9639 10.6201V10.0201H36.3639V10.6201H36.9639ZM39.4844 10.6201H40.0844V10.0201H39.4844V10.6201ZM39.4844 11.6201H38.8844V11.6203L39.4844 11.6201ZM39.7246 12.2002L39.3003 12.6245L39.3006 12.6247L39.7246 12.2002ZM40.3037 12.4395L40.3034 13.0395H40.3037V12.4395ZM40.9043 12.2002L41.3285 12.6245L41.3286 12.6245L40.9043 12.2002ZM41.1445 11.6201L41.7445 11.6203V11.6201H41.1445ZM41.1445 8.7998H41.7445V8.79978L41.1445 8.7998ZM40.9043 8.2002L41.3287 7.77609L41.3286 7.77593L40.9043 8.2002ZM40.3037 7.95996V7.35996H40.3034L40.3037 7.95996ZM39.7246 8.2002L39.3004 7.7759L39.3003 7.77593L39.7246 8.2002ZM39.4844 8.7998V9.39981H40.0843L40.0844 8.79983L39.4844 8.7998ZM36.9639 8.7998H36.3639V9.39981H36.9639V8.7998ZM36.9639 0.200195V-0.399805H36.3639V0.200195H36.9639ZM43.6641 0.200195H44.2641V-0.399805H43.6641V0.200195ZM65.1875 0L65.1875 -0.6H65.1875V0ZM67.8076 1.08008L68.2319 0.655853L68.2319 0.655814L67.8076 1.08008ZM68.8877 3.67969H69.4877V3.67966L68.8877 3.67969ZM68.8877 4.33984V4.93984H69.4877V4.33984H68.8877ZM66.3672 4.33984H65.7672V4.93984H66.3672V4.33984ZM66.3672 3.67969H66.9672V3.67961L66.3672 3.67969ZM66.0273 2.85938L66.4516 2.43511L66.4515 2.43502L66.0273 2.85938ZM65.1875 2.51953L65.1876 1.91953H65.1875V2.51953ZM64.3672 2.85938L63.943 2.43503L63.9429 2.43511L64.3672 2.85938ZM64.0273 3.67969L63.4273 3.67961V3.67969H64.0273ZM64.0273 3.91992H63.4273V3.91994L64.0273 3.91992ZM64.6875 5.37988L65.078 4.92434L65.0757 4.92238L64.6875 5.37988ZM67.3477 7.66016L67.7449 7.21041L67.7381 7.20461L67.3477 7.66016ZM68.8877 11.2803L69.4877 11.2803V11.2803H68.8877ZM67.8076 13.8799L68.2319 14.3041L68.2319 14.3041L67.8076 13.8799ZM65.1875 14.96V15.56H65.1875L65.1875 14.96ZM62.5869 13.8799L62.1626 14.3041L62.1627 14.3041L62.5869 13.8799ZM61.5068 11.2803H60.9068V11.2803L61.5068 11.2803ZM61.5068 10.6201V10.0201H60.9068V10.6201H61.5068ZM64.0273 10.6201H64.6273V10.0201H64.0273V10.6201ZM64.0273 11.2803H63.4273V11.2805L64.0273 11.2803ZM64.3672 12.0996L63.9428 12.5238L63.9429 12.5239L64.3672 12.0996ZM65.1875 12.4395V13.0395H65.1876L65.1875 12.4395ZM66.0273 12.0996L66.4516 12.5239L66.4517 12.5238L66.0273 12.0996ZM66.3672 11.2803L66.9672 11.2805V11.2803H66.3672ZM65.707 9.58008L65.3165 10.0356L65.3188 10.0376L65.707 9.58008ZM63.0469 7.2998L62.6496 7.74956L62.6564 7.75535L63.0469 7.2998ZM61.5068 3.91992H60.9068V3.91993L61.5068 3.91992ZM61.5068 3.67969L60.9068 3.67966V3.67969H61.5068ZM62.5869 1.08008L62.1627 0.655814L62.1626 0.655855L62.5869 1.08008ZM109.807 0L109.807 -0.6H109.807V0ZM112.426 1.08008L112.85 0.655814L112.85 0.655801L112.426 1.08008ZM113.506 3.67969H114.106V3.67966L113.506 3.67969ZM113.506 4.33984V4.93984H114.106V4.33984H113.506ZM110.986 4.33984H110.386V4.93984H110.986V4.33984ZM110.986 3.67969H111.586V3.67961L110.986 3.67969ZM110.646 2.85938L111.071 2.43511L111.071 2.43507L110.646 2.85938ZM109.807 2.51953L109.807 1.91953H109.807V2.51953ZM108.986 2.85938L108.562 2.43498L108.562 2.43511L108.986 2.85938ZM108.646 3.67969L108.046 3.67961V3.67969H108.646ZM108.646 11.2803H108.046V11.2805L108.646 11.2803ZM108.986 12.0996L108.562 12.5239L108.562 12.5239L108.986 12.0996ZM109.807 12.4395V13.0395H109.807L109.807 12.4395ZM110.646 12.0996L111.071 12.5239L111.071 12.5238L110.646 12.0996ZM110.986 11.2803L111.586 11.2805V11.2803H110.986ZM110.986 8.47949H111.586V7.87949H110.986V8.47949ZM109.526 8.47949H108.926V9.07949H109.526V8.47949ZM109.526 5.95996V5.35996H108.926V5.95996H109.526ZM113.506 5.95996H114.106V5.35996H113.506V5.95996ZM113.506 11.2803L114.106 11.2803V11.2803H113.506ZM112.426 13.8799L112.85 14.3042L112.85 14.3041L112.426 13.8799ZM109.807 14.96V15.56H109.807L109.807 14.96ZM107.206 13.8799L106.782 14.3041L106.782 14.3041L107.206 13.8799ZM106.126 11.2803H105.526V11.2803L106.126 11.2803ZM106.126 3.67969L105.526 3.67966V3.67969H106.126ZM107.206 1.08008L106.782 0.655814L106.782 0.655839L107.206 1.08008ZM139.523 0L139.523 -0.6H139.523V0ZM142.144 1.08008L142.568 0.655853L142.568 0.655814L142.144 1.08008ZM143.224 3.67969H143.824V3.67966L143.224 3.67969ZM143.224 4.33984V4.93984H143.824V4.33984H143.224ZM140.703 4.33984H140.103V4.93984H140.703V4.33984ZM140.703 3.67969H141.303V3.67961L140.703 3.67969ZM140.363 2.85938L140.788 2.43511L140.787 2.43502L140.363 2.85938ZM139.523 2.51953L139.524 1.91953H139.523V2.51953ZM138.703 2.85938L138.279 2.43503L138.279 2.43511L138.703 2.85938ZM138.363 3.67969L137.763 3.67961V3.67969H138.363ZM138.363 3.91992H137.763V3.91994L138.363 3.91992ZM139.023 5.37988L139.414 4.92434L139.412 4.92238L139.023 5.37988ZM141.684 7.66016L142.081 7.21041L142.074 7.20461L141.684 7.66016ZM143.224 11.2803L143.824 11.2803V11.2803H143.224ZM142.144 13.8799L142.568 14.3041L142.568 14.3041L142.144 13.8799ZM139.523 14.96V15.56H139.523L139.523 14.96ZM136.923 13.8799L136.499 14.3041L136.499 14.3041L136.923 13.8799ZM135.843 11.2803H135.243V11.2803L135.843 11.2803ZM135.843 10.6201V10.0201H135.243V10.6201H135.843ZM138.363 10.6201H138.963V10.0201H138.363V10.6201ZM138.363 11.2803H137.763V11.2805L138.363 11.2803ZM138.703 12.0996L138.279 12.5238L138.279 12.5239L138.703 12.0996ZM139.523 12.4395V13.0395H139.524L139.523 12.4395ZM140.363 12.0996L140.788 12.5239L140.788 12.5238L140.363 12.0996ZM140.703 11.2803L141.303 11.2805V11.2803H140.703ZM140.043 9.58008L139.652 10.0356L139.655 10.0376L140.043 9.58008ZM137.383 7.2998L136.986 7.74956L136.992 7.75535L137.383 7.2998ZM135.843 3.91992H135.243V3.91993L135.843 3.91992ZM135.843 3.67969L135.243 3.67966V3.67969H135.843ZM136.923 1.08008L136.499 0.655814L136.499 0.655855L136.923 1.08008ZM163.678 11.2803H163.078V11.2805L163.678 11.2803ZM164.018 12.0996L163.593 12.5239L163.593 12.5239L164.018 12.0996ZM164.838 12.4395V13.0395H164.838L164.838 12.4395ZM165.678 12.0996L166.102 12.5239L166.102 12.5238L165.678 12.0996ZM166.018 11.2803L166.618 11.2805V11.2803H166.018ZM166.018 10.0957V9.4957H165.418V10.0957H166.018ZM168.537 10.0957H169.137V9.4957H168.537V10.0957ZM168.537 11.2803L169.137 11.2803V11.2803H168.537ZM167.457 13.8799L167.881 14.3042L167.881 14.3041L167.457 13.8799ZM164.838 14.96V15.56H164.838L164.838 14.96ZM162.237 13.8799L161.813 14.3041V14.3041L162.237 13.8799ZM161.157 11.2803H160.557V11.2803L161.157 11.2803ZM161.157 10.0957V9.4957H160.557V10.0957H161.157ZM163.678 10.0957H164.278V9.4957H163.678V10.0957ZM339.131 0L339.131 -0.6H339.131V0ZM341.75 1.08008L342.174 0.655814V0.655801L341.75 1.08008ZM342.83 3.67969H343.43V3.67966L342.83 3.67969ZM342.83 4.33984V4.93984H343.43V4.33984H342.83ZM340.311 4.33984H339.711V4.93984H340.311V4.33984ZM340.311 3.67969H340.911V3.67961L340.311 3.67969ZM339.971 2.85938L340.395 2.43511L340.395 2.43507L339.971 2.85938ZM339.131 2.51953L339.131 1.91953H339.131V2.51953ZM338.311 2.85938L337.886 2.43498L337.886 2.43511L338.311 2.85938ZM337.971 3.67969L337.371 3.67961V3.67969H337.971ZM337.971 11.2803H337.371V11.2805L337.971 11.2803ZM338.311 12.0996L337.886 12.5239L337.886 12.5239L338.311 12.0996ZM339.131 12.4395V13.0395H339.131L339.131 12.4395ZM339.971 12.0996L340.395 12.5239L340.395 12.5238L339.971 12.0996ZM340.311 11.2803L340.911 11.2805V11.2803H340.311ZM340.311 8.47949H340.911V7.87949H340.311V8.47949ZM338.851 8.47949H338.251V9.07949H338.851V8.47949ZM338.851 5.95996V5.35996H338.251V5.95996H338.851ZM342.83 5.95996H343.43V5.35996H342.83V5.95996ZM342.83 11.2803L343.43 11.2803V11.2803H342.83ZM341.75 13.8799L342.174 14.3042L342.174 14.3041L341.75 13.8799ZM339.131 14.96V15.56H339.131L339.131 14.96ZM336.53 13.8799L336.106 14.3041L336.106 14.3041L336.53 13.8799ZM335.45 11.2803H334.85V11.2803L335.45 11.2803ZM335.45 3.67969L334.85 3.67966V3.67969H335.45ZM336.53 1.08008L336.106 0.655814L336.106 0.655839L336.53 1.08008ZM28.7979 14.7598V15.3598H29.3979V14.7598H28.7979ZM26.2783 14.7598H25.6783V15.3598H26.2783V14.7598ZM26.2783 3.33984H26.8783V2.01639L25.8829 2.88857L26.2783 3.33984ZM24.3379 5.04004H23.7379V6.36349L24.7333 5.49132L24.3379 5.04004ZM24.3379 1.89941L23.9426 1.44802L23.7379 1.62729V1.89941H24.3379ZM26.2783 0.200195V-0.399805H26.0527L25.883 -0.251196L26.2783 0.200195ZM28.7979 0.200195H29.3979V-0.399805H28.7979V0.200195ZM81.1133 14.7598V15.3598H81.7133V14.7598H81.1133ZM78.5938 14.7598H77.9938V15.3598H78.5938V14.7598ZM78.5938 9.0957V8.4957H77.9938V9.0957H78.5938ZM81.1133 9.0957H81.7133V8.4957H81.1133V9.0957ZM98.8594 14.7598V15.3598H99.5996L99.4464 14.6356L98.8594 14.7598ZM96.2793 14.7598L95.6896 14.8704L95.7813 15.3598H96.2793V14.7598ZM95.7393 11.8799L96.329 11.7693L96.2372 11.2799H95.7393V11.8799ZM93.2988 11.8799V11.2799H92.8007L92.7091 11.7695L93.2988 11.8799ZM92.7598 14.7598V15.3598H93.2579L93.3495 14.8702L92.7598 14.7598ZM90.1797 14.7598L89.5927 14.6356L89.4395 15.3598H90.1797V14.7598ZM93.2598 0.200195V-0.399805H92.7734L92.6728 0.0760136L93.2598 0.200195ZM95.7793 0.200195L96.3663 0.0760136L96.2656 -0.399805H95.7793V0.200195ZM128.361 2.71973V3.31973H128.961V2.71973H128.361ZM124.262 2.71973V2.11973H123.662V2.71973H124.262ZM124.262 5.95996H123.662V6.55996H124.262V5.95996ZM127.881 5.95996H128.481V5.35996H127.881V5.95996ZM127.881 8.47949V9.07949H128.481V8.47949H127.881ZM124.262 8.47949V7.87949H123.662V8.47949H124.262ZM124.262 12.2402H123.662V12.8402H124.262V12.2402ZM128.361 12.2402H128.961V11.6402H128.361V12.2402ZM128.361 14.7598V15.3598H128.961V14.7598H128.361ZM121.741 14.7598H121.141V15.3598H121.741V14.7598ZM121.741 0.200195V-0.399805H121.141V0.200195H121.741ZM128.361 0.200195H128.961V-0.399805H128.361V0.200195ZM183.393 2.71973V3.31973H183.993V2.71973H183.393ZM179.293 2.71973V2.11973H178.693V2.71973H179.293ZM179.293 5.95996H178.693V6.55996H179.293V5.95996ZM182.912 5.95996H183.512V5.35996H182.912V5.95996ZM182.912 8.47949V9.07949H183.512V8.47949H182.912ZM179.293 8.47949V7.87949H178.693V8.47949H179.293ZM179.293 14.7598V15.3598H179.893V14.7598H179.293ZM176.772 14.7598H176.172V15.3598H176.772V14.7598ZM176.772 0.200195V-0.399805H176.172V0.200195H176.772ZM183.393 0.200195H183.993V-0.399805H183.393V0.200195ZM207.607 2.71973V3.31973H208.207V2.71973H207.607ZM203.508 2.71973V2.11973H202.908V2.71973H203.508ZM203.508 5.95996H202.908V6.55996H203.508V5.95996ZM207.127 5.95996H207.727V5.35996H207.127V5.95996ZM207.127 8.47949V9.07949H207.727V8.47949H207.127ZM203.508 8.47949V7.87949H202.908V8.47949H203.508ZM203.508 14.7598V15.3598H204.108V14.7598H203.508ZM200.987 14.7598H200.387V15.3598H200.987V14.7598ZM200.987 0.200195V-0.399805H200.387V0.200195H200.987ZM207.607 0.200195H208.207V-0.399805H207.607V0.200195ZM217.715 14.7598V15.3598H218.315V14.7598H217.715ZM215.194 14.7598H214.594V15.3598H215.194V14.7598ZM215.194 0.200195V-0.399805H214.594V0.200195H215.194ZM217.715 0.200195H218.315V-0.399805H217.715V0.200195ZM228.582 12.2402H227.982V12.8402H228.582V12.2402ZM232.002 12.2402H232.602V11.6402H232.002V12.2402ZM232.002 14.7598V15.3598H232.602V14.7598H232.002ZM226.062 14.7598H225.462V15.3598H226.062V14.7598ZM226.062 0.200195V-0.399805H225.462V0.200195H226.062ZM228.582 0.200195H229.182V-0.399805H228.582V0.200195ZM244.727 8.13965L244.158 8.33027L244.729 10.0348L245.296 8.32894L244.727 8.13965ZM247.366 0.200195V-0.399805H246.933L246.797 0.0108999L247.366 0.200195ZM249.906 0.200195H250.506V-0.399805H249.906V0.200195ZM249.906 14.7598V15.3598H250.506V14.7598H249.906ZM247.387 14.7598H246.787V15.3598H247.387V14.7598ZM247.387 6.82031H247.987L246.814 6.64274L247.387 6.82031ZM245.627 12.5V13.1H246.069L246.2 12.6776L245.627 12.5ZM243.807 12.5L243.234 12.6776L243.364 13.1H243.807V12.5ZM242.047 6.82031L242.62 6.64274L241.447 6.82031H242.047ZM242.047 14.7598V15.3598H242.647V14.7598H242.047ZM239.526 14.7598H238.926V15.3598H239.526V14.7598ZM239.526 0.200195V-0.399805H238.926V0.200195H239.526ZM242.066 0.200195L242.635 0.00957716L242.498 -0.399805H242.066V0.200195ZM263.426 8.13965L262.857 8.33027L263.428 10.0348L263.995 8.32894L263.426 8.13965ZM266.065 0.200195V-0.399805H265.633L265.496 0.0108999L266.065 0.200195ZM268.605 0.200195H269.205V-0.399805H268.605V0.200195ZM268.605 14.7598V15.3598H269.205V14.7598H268.605ZM266.086 14.7598H265.486V15.3598H266.086V14.7598ZM266.086 6.82031H266.686L265.513 6.64274L266.086 6.82031ZM264.326 12.5V13.1H264.768L264.899 12.6776L264.326 12.5ZM262.506 12.5L261.933 12.6776L262.064 13.1H262.506V12.5ZM260.746 6.82031L261.319 6.64274L260.146 6.82031H260.746ZM260.746 14.7598V15.3598H261.346V14.7598H260.746ZM258.226 14.7598H257.626V15.3598H258.226V14.7598ZM258.226 0.200195V-0.399805H257.626V0.200195H258.226ZM260.766 0.200195L261.335 0.00957716L261.197 -0.399805H260.766V0.200195ZM284.625 14.7598V15.3598H285.365L285.212 14.6356L284.625 14.7598ZM282.045 14.7598L281.455 14.8704L281.547 15.3598H282.045V14.7598ZM281.505 11.8799L282.095 11.7693L282.003 11.2799H281.505V11.8799ZM279.064 11.8799V11.2799H278.566L278.475 11.7695L279.064 11.8799ZM278.525 14.7598V15.3598H279.023L279.115 14.8702L278.525 14.7598ZM275.945 14.7598L275.358 14.6356L275.205 15.3598H275.945V14.7598ZM279.025 0.200195V-0.399805H278.539L278.438 0.0760136L279.025 0.200195ZM281.545 0.200195L282.132 0.0760136L282.031 -0.399805H281.545V0.200195ZM294.492 6.33984H293.892L295.039 6.58583L294.492 6.33984ZM297.252 0.200195V-0.399805H296.864L296.705 -0.0457955L297.252 0.200195ZM300.052 0.200195L300.589 0.466379L301.018 -0.399805H300.052V0.200195ZM297.092 6.17969L296.554 5.9135L296.432 6.1591L296.539 6.41181L297.092 6.17969ZM300.691 14.7598V15.3598H301.594L301.245 14.5276L300.691 14.7598ZM297.952 14.7598L297.394 14.979L297.543 15.3598H297.952V14.7598ZM295.691 9L296.25 8.78078L295.757 7.52592L295.155 8.73176L295.691 9ZM294.492 11.3994L293.955 11.1312L293.892 11.2578V11.3994H294.492ZM294.492 14.7598V15.3598H295.092V14.7598H294.492ZM291.972 14.7598H291.372V15.3598H291.972V14.7598ZM291.972 0.200195V-0.399805H291.372V0.200195H291.972ZM294.492 0.200195H295.092V-0.399805H294.492V0.200195ZM310.594 14.7598V15.3598H311.194V14.7598H310.594ZM308.073 14.7598H307.473V15.3598H308.073V14.7598ZM308.073 7.0957V6.4957H307.473V7.0957H308.073ZM310.594 7.0957H311.194V6.4957H310.594V7.0957ZM324.681 8.16016L324.124 8.38514L325.281 8.16016H324.681ZM324.681 0.200195V-0.399805H324.081V0.200195H324.681ZM327.2 0.200195H327.8V-0.399805H327.2V0.200195ZM327.2 14.7598V15.3598H327.8V14.7598H327.2ZM324.681 14.7598L324.124 14.9848L324.276 15.3598H324.681V14.7598ZM321.461 6.7998L322.017 6.57482L320.861 6.7998H321.461ZM321.461 14.7598V15.3598H322.061V14.7598H321.461ZM318.94 14.7598H318.34V15.3598H318.94V14.7598ZM318.94 0.200195V-0.399805H318.34V0.200195H318.94ZM321.461 0.200195L322.017 -0.0247905L321.865 -0.399805H321.461V0.200195ZM93.7598 9.35938L93.1698 9.25004L93.0384 9.95938H93.7598V9.35938ZM95.2793 9.35938V9.95938H96.0007L95.8692 9.25004L95.2793 9.35938ZM94.5195 5.25977L95.1095 5.15043H93.9296L94.5195 5.25977ZM279.525 9.35938L278.935 9.25004L278.804 9.95938H279.525V9.35938ZM281.045 9.35938V9.95938H281.766L281.635 9.25004L281.045 9.35938ZM280.285 5.25977L280.875 5.15043H279.695L280.285 5.25977ZM163.678 9.0957V9.6957H164.278V9.0957H163.678ZM161.157 9.0957H160.557V9.6957H161.157V9.0957ZM161.157 8.0957V7.4957H160.557V8.0957H161.157ZM163.678 8.0957H164.278V7.4957H163.678V8.0957ZM168.537 9.0957V9.6957H169.137V9.0957H168.537ZM166.018 9.0957H165.418V9.6957H166.018V9.0957ZM166.018 8.0957V7.4957H165.418V8.0957H166.018ZM168.537 8.0957H169.137V7.4957H168.537V8.0957ZM81.1133 8.0957V8.6957H81.7133V8.0957H81.1133ZM78.5938 8.0957H77.9938V8.6957H78.5938V8.0957ZM78.5938 7.0957V6.4957H77.9938V7.0957H78.5938ZM81.1133 7.0957H81.7133V6.4957H81.1133V7.0957ZM163.678 7.0957V7.6957H164.278V7.0957H163.678ZM161.157 7.0957H160.557V7.6957H161.157V7.0957ZM161.157 6.0957V5.4957H160.557V6.0957H161.157ZM163.678 6.0957H164.278V5.4957H163.678V6.0957ZM168.537 7.0957V7.6957H169.137V7.0957H168.537ZM166.018 7.0957H165.418V7.6957H166.018V7.0957ZM166.018 6.0957V5.4957H165.418V6.0957H166.018ZM168.537 6.0957H169.137V5.4957H168.537V6.0957ZM81.1133 6.0957V6.6957H81.7133V6.0957H81.1133ZM78.5938 6.0957H77.9938V6.6957H78.5938V6.0957ZM78.5938 5.0957V4.4957H77.9938V5.0957H78.5938ZM81.1133 5.0957H81.7133V4.4957H81.1133V5.0957ZM310.594 6.0957V6.6957H311.194V6.0957H310.594ZM308.073 6.0957H307.473V6.6957H308.073V6.0957ZM308.073 5.0957V4.4957H307.473V5.0957H308.073ZM310.594 5.0957H311.194V4.4957H310.594V5.0957ZM164.838 0L164.838 -0.6H164.838V0ZM167.457 1.08008L167.881 0.655814L167.881 0.655801L167.457 1.08008ZM168.537 3.67969H169.137V3.67966L168.537 3.67969ZM168.537 5.0957V5.6957H169.137V5.0957H168.537ZM166.018 5.0957H165.418V5.6957H166.018V5.0957ZM166.018 3.67969H166.618V3.67961L166.018 3.67969ZM165.678 2.85938L166.102 2.43511L166.102 2.43507L165.678 2.85938ZM164.838 2.51953L164.838 1.91953H164.838V2.51953ZM164.018 2.85938L163.593 2.43498L163.593 2.43511L164.018 2.85938ZM163.678 3.67969L163.078 3.67961V3.67969H163.678ZM163.678 5.0957V5.6957H164.278V5.0957H163.678ZM161.157 5.0957H160.557V5.6957H161.157V5.0957ZM161.157 3.67969L160.557 3.67966V3.67969H161.157ZM162.237 1.08008L161.813 0.655814L161.813 0.655839L162.237 1.08008ZM83.6133 2.71973V3.31973H84.2133V2.71973H83.6133ZM81.1133 2.71973V2.11973H80.5133V2.71973H81.1133ZM81.1133 4.0957V4.6957H81.7133V4.0957H81.1133ZM78.5938 4.0957H77.9938V4.6957H78.5938V4.0957ZM78.5938 2.71973H79.1937V2.11973H78.5938V2.71973ZM76.0938 2.71973H75.4938V3.31973H76.0938V2.71973ZM76.0938 0.200195V-0.399805H75.4938V0.200195H76.0938ZM83.6133 0.200195H84.2133V-0.399805H83.6133V0.200195ZM310.594 4.0957V4.6957H311.194V4.0957H310.594ZM308.073 4.0957H307.473V4.6957H308.073V4.0957ZM308.073 3.0957V2.4957H307.473V3.0957H308.073ZM310.594 3.0957H311.194V2.4957H310.594V3.0957ZM310.594 2.0957V2.6957H311.194V2.0957H310.594ZM308.073 2.0957H307.473V2.6957H308.073V2.0957ZM308.073 0.200195V-0.399805H307.473V0.200195H308.073ZM310.594 0.200195H311.194V-0.399805H310.594V0.200195ZM43.6641 2.71973V2.11973H39.4844V2.71973V3.31973H43.6641V2.71973ZM39.4844 2.71973H38.8844V5.93945H39.4844H40.0844V2.71973H39.4844ZM39.4844 5.93945L39.7526 6.47614C40.1086 6.29824 40.5406 6.19961 41.0645 6.19961V5.59961V4.99961C40.3886 4.99961 39.7667 5.12756 39.2161 5.40276L39.4844 5.93945ZM41.0645 5.59961L41.0644 6.19961C41.6261 6.19966 42.0867 6.39037 42.4801 6.78367L42.9043 6.35938L43.3285 5.93508C42.7088 5.31541 41.9424 4.99969 41.0645 4.99961L41.0645 5.59961ZM42.9043 6.35938L42.48 6.78364C42.8733 7.17693 43.0641 7.63811 43.0641 8.2002H43.6641H44.2641C44.2641 7.32228 43.9486 6.55515 43.3286 5.93511L42.9043 6.35938ZM43.6641 8.2002H43.0641V11.6201H43.6641H44.2641V8.2002H43.6641ZM43.6641 11.6201L43.0641 11.6201C43.064 12.376 42.7974 13.0086 42.2441 13.551L42.6641 13.9795L43.084 14.408C43.8637 13.6438 44.264 12.7039 44.2641 11.6202L43.6641 11.6201ZM42.6641 13.9795L42.2398 13.5552C41.6983 14.0967 41.0637 14.36 40.3037 14.36V14.96V15.56C41.3838 15.56 42.3231 15.169 43.0883 14.4038L42.6641 13.9795ZM40.3037 14.96L40.3038 14.36C39.5441 14.3599 38.9101 14.0967 38.3686 13.5552L37.9443 13.9795L37.5201 14.4038C38.2851 15.1688 39.2237 15.5598 40.3036 15.56L40.3037 14.96ZM37.9443 13.9795L38.3686 13.5552C37.8271 13.0137 37.5639 12.3797 37.5639 11.6201L36.9639 11.6201L36.3639 11.6202C36.3639 12.7002 36.7551 13.6387 37.5201 14.4037L37.9443 13.9795ZM36.9639 11.6201H37.5639V10.6201H36.9639H36.3639V11.6201H36.9639ZM36.9639 10.6201V11.2201H39.4844V10.6201V10.0201H36.9639V10.6201ZM39.4844 10.6201H38.8844V11.6201H39.4844H40.0844V10.6201H39.4844ZM39.4844 11.6201L38.8844 11.6203C38.8845 12.0058 39.0278 12.352 39.3003 12.6245L39.7246 12.2002L40.1489 11.7759C40.1015 11.7286 40.0844 11.6875 40.0844 11.62L39.4844 11.6201ZM39.7246 12.2002L39.3006 12.6247C39.5735 12.8973 39.9192 13.0393 40.3034 13.0395L40.3037 12.4395L40.304 11.8395C40.2357 11.8394 40.1953 11.8224 40.1486 11.7757L39.7246 12.2002ZM40.3037 12.4395V13.0395C40.6903 13.0395 41.0475 12.9055 41.3285 12.6245L40.9043 12.2002L40.4801 11.7759C40.4412 11.8148 40.397 11.8395 40.3037 11.8395V12.4395ZM40.9043 12.2002L41.3286 12.6245C41.6011 12.352 41.7444 12.0058 41.7445 11.6203L41.1445 11.6201L40.5445 11.62C40.5445 11.6875 40.5274 11.7286 40.48 11.7759L40.9043 12.2002ZM41.1445 11.6201H41.7445V8.7998H41.1445H40.5445V11.6201H41.1445ZM41.1445 8.7998L41.7445 8.79978C41.7445 8.41061 41.6077 8.05525 41.3287 7.77609L40.9043 8.2002L40.4799 8.6243C40.5206 8.66504 40.5445 8.70928 40.5445 8.79983L41.1445 8.7998ZM40.9043 8.2002L41.3286 7.77593C41.0487 7.49605 40.6921 7.35996 40.3037 7.35996V7.95996V8.55996C40.3953 8.55996 40.4399 8.58434 40.48 8.62446L40.9043 8.2002ZM40.3037 7.95996L40.3034 7.35996C39.9174 7.36014 39.5723 7.50402 39.3004 7.7759L39.7246 8.2002L40.1488 8.62449C40.1967 8.57665 40.2371 8.55999 40.304 8.55996L40.3037 7.95996ZM39.7246 8.2002L39.3003 7.77593C39.021 8.05531 38.8844 8.41067 38.8844 8.79978L39.4844 8.7998L40.0844 8.79983C40.0844 8.70898 40.1083 8.66506 40.1489 8.62446L39.7246 8.2002ZM39.4844 8.7998V8.1998H36.9639V8.7998V9.39981H39.4844V8.7998ZM36.9639 8.7998H37.5639V0.200195H36.9639H36.3639V8.7998H36.9639ZM36.9639 0.200195V0.800195H43.6641V0.200195V-0.399805H36.9639V0.200195ZM43.6641 0.200195H43.0641V2.71973H43.6641H44.2641V0.200195H43.6641ZM65.1875 0L65.1875 0.6C66.0564 0.600043 66.777 0.897966 67.3834 1.50434L67.8076 1.08008L68.2319 0.655814C67.3984 -0.177709 66.3717 -0.599941 65.1875 -0.6L65.1875 0ZM67.8076 1.08008L67.3833 1.5043C67.9913 2.11241 68.2877 2.82668 68.2877 3.67971L68.8877 3.67969L69.4877 3.67966C69.4877 2.50643 69.0635 1.48756 68.2319 0.655853L67.8076 1.08008ZM68.8877 3.67969H68.2877V4.33984H68.8877H69.4877V3.67969H68.8877ZM68.8877 4.33984V3.73984H66.3672V4.33984V4.93984H68.8877V4.33984ZM66.3672 4.33984H66.9672V3.67969H66.3672H65.7672V4.33984H66.3672ZM66.3672 3.67969L66.9672 3.67961C66.9671 3.20074 66.7909 2.77436 66.4516 2.43511L66.0273 2.85938L65.6031 3.28364C65.7171 3.39765 65.7672 3.51878 65.7672 3.67976L66.3672 3.67969ZM66.0273 2.85938L66.4515 2.43502C66.1075 2.09114 65.6726 1.9196 65.1876 1.91953L65.1875 2.51953L65.1874 3.11953C65.3686 3.11956 65.494 3.17466 65.6032 3.28373L66.0273 2.85938ZM65.1875 2.51953V1.91953C64.7084 1.91953 64.2821 2.09606 63.943 2.43503L64.3672 2.85938L64.7914 3.28372C64.9055 3.16961 65.0267 3.11953 65.1875 3.11953V2.51953ZM64.3672 2.85938L63.9429 2.43511C63.6037 2.77436 63.4274 3.20074 63.4273 3.67961L64.0273 3.67969L64.6273 3.67976C64.6274 3.51878 64.6774 3.39765 64.7915 3.28364L64.3672 2.85938ZM64.0273 3.67969H63.4273V3.91992H64.0273H64.6273V3.67969H64.0273ZM64.0273 3.91992L63.4273 3.91994C63.4274 4.68818 63.719 5.34504 64.2993 5.83739L64.6875 5.37988L65.0757 4.92238C64.776 4.66809 64.6274 4.3516 64.6273 3.9199L64.0273 3.91992ZM64.6875 5.37988L64.297 5.83542L66.9572 8.1157L67.3477 7.66016L67.7381 7.20461L65.078 4.92434L64.6875 5.37988ZM67.3477 7.66016L66.9505 8.10985C67.8505 8.90487 68.2877 9.869 68.2877 11.04H68.8877H69.4877C69.4877 9.51806 68.8976 8.22867 67.7449 7.21046L67.3477 7.66016ZM68.8877 11.04H68.2877V11.2803H68.8877H69.4877V11.04H68.8877ZM68.8877 11.2803L68.2877 11.2802C68.2876 12.1333 67.9913 12.8476 67.3833 13.4556L67.8076 13.8799L68.2319 14.3041C69.0635 13.4724 69.4876 12.4534 69.4877 11.2803L68.8877 11.2803ZM67.8076 13.8799L67.3834 13.4556C66.777 14.062 66.0564 14.3599 65.1875 14.36L65.1875 14.96L65.1875 15.56C66.3717 15.5599 67.3984 15.1377 68.2319 14.3041L67.8076 13.8799ZM65.1875 14.96V14.36C64.3341 14.36 63.6192 14.0637 63.0112 13.4556L62.5869 13.8799L62.1627 14.3041C62.9946 15.1361 64.0142 15.56 65.1875 15.56V14.96ZM62.5869 13.8799L63.0112 13.4556C62.4032 12.8476 62.1069 12.1333 62.1068 11.2802L61.5068 11.2803L60.9068 11.2803C60.907 12.4534 61.331 13.4724 62.1626 14.3041L62.5869 13.8799ZM61.5068 11.2803H62.1068V10.6201H61.5068H60.9068V11.2803H61.5068ZM61.5068 10.6201V11.2201H64.0273V10.6201V10.0201H61.5068V10.6201ZM64.0273 10.6201H63.4273V11.2803H64.0273H64.6273V10.6201H64.0273ZM64.0273 11.2803L63.4273 11.2805C63.4275 11.7596 63.6042 12.1851 63.9428 12.5238L64.3672 12.0996L64.7915 11.6754C64.6772 11.5611 64.6274 11.4404 64.6273 11.2801L64.0273 11.2803ZM64.3672 12.0996L63.9429 12.5239C64.2822 12.8631 64.7084 13.0395 65.1875 13.0395V12.4395V11.8395C65.0266 11.8395 64.9055 11.7894 64.7915 11.6753L64.3672 12.0996ZM65.1875 12.4395L65.1876 13.0395C65.6726 13.0394 66.1074 12.8681 66.4516 12.5239L66.0273 12.0996L65.6031 11.6753C65.494 11.7844 65.3689 11.8394 65.1874 11.8395L65.1875 12.4395ZM66.0273 12.0996L66.4517 12.5238C66.7903 12.1851 66.967 11.7596 66.9672 11.2805L66.3672 11.2803L65.7672 11.2801C65.7671 11.4404 65.7173 11.5611 65.603 11.6754L66.0273 12.0996ZM66.3672 11.2803H66.9672V11.04H66.3672H65.7672V11.2803H66.3672ZM66.3672 11.04H66.9672C66.9672 10.2717 66.6755 9.61492 66.0952 9.12257L65.707 9.58008L65.3188 10.0376C65.6186 10.2919 65.7672 10.6083 65.7672 11.04H66.3672ZM65.707 9.58008L66.0975 9.12454L63.4374 6.84426L63.0469 7.2998L62.6564 7.75535L65.3165 10.0356L65.707 9.58008ZM63.0469 7.2998L63.4441 6.8501C62.544 6.0551 62.1068 5.09099 62.1068 3.91991L61.5068 3.91992L60.9068 3.91993C60.9069 5.4419 61.4968 6.73128 62.6497 7.74951L63.0469 7.2998ZM61.5068 3.91992H62.1068V3.67969H61.5068H60.9068V3.91992H61.5068ZM61.5068 3.67969L62.1068 3.67971C62.1069 2.82669 62.4032 2.1124 63.0112 1.5043L62.5869 1.08008L62.1626 0.655855C61.3311 1.48756 60.9069 2.50643 60.9068 3.67966L61.5068 3.67969ZM62.5869 1.08008L63.0112 1.50434C63.6192 0.896301 64.3341 0.6 65.1875 0.6V0V-0.6C64.0142 -0.6 62.9946 -0.176145 62.1627 0.655814L62.5869 1.08008ZM109.807 0L109.807 0.6C110.675 0.600089 111.395 0.89797 112.002 1.50435L112.426 1.08008L112.85 0.655801C112.017 -0.177482 110.991 -0.599878 109.807 -0.6L109.807 0ZM112.426 1.08008L112.002 1.50434C112.61 2.11245 112.906 2.82651 112.906 3.67971L113.506 3.67969L114.106 3.67966C114.106 2.50634 113.682 1.48762 112.85 0.655814L112.426 1.08008ZM113.506 3.67969H112.906V4.33984H113.506H114.106V3.67969H113.506ZM113.506 4.33984V3.73984H110.986V4.33984V4.93984H113.506V4.33984ZM110.986 4.33984H111.586V3.67969H110.986H110.386V4.33984H110.986ZM110.986 3.67969L111.586 3.67961C111.586 3.20074 111.41 2.77436 111.071 2.43511L110.646 2.85938L110.222 3.28364C110.336 3.39765 110.386 3.51878 110.386 3.67976L110.986 3.67969ZM110.646 2.85938L111.071 2.43507C110.727 2.09102 110.292 1.91968 109.807 1.91953L109.807 2.51953L109.806 3.11953C109.988 3.11959 110.113 3.17472 110.222 3.28368L110.646 2.85938ZM109.807 2.51953V1.91953C109.328 1.91953 108.901 2.09618 108.562 2.43498L108.986 2.85938L109.41 3.28377C109.525 3.16965 109.646 3.11953 109.807 3.11953V2.51953ZM108.986 2.85938L108.562 2.43511C108.223 2.77436 108.047 3.20074 108.046 3.67961L108.646 3.67969L109.246 3.67976C109.247 3.51878 109.297 3.39765 109.411 3.28364L108.986 2.85938ZM108.646 3.67969H108.046V11.2803H108.646H109.246V3.67969H108.646ZM108.646 11.2803L108.046 11.2805C108.047 11.7596 108.223 12.185 108.562 12.5239L108.986 12.0996L109.411 11.6754C109.296 11.5611 109.247 11.4405 109.246 11.2801L108.646 11.2803ZM108.986 12.0996L108.562 12.5239C108.901 12.8631 109.328 13.0395 109.807 13.0395V12.4395V11.8395C109.646 11.8395 109.525 11.7894 109.411 11.6753L108.986 12.0996ZM109.807 12.4395L109.807 13.0395C110.292 13.0393 110.727 12.8681 111.071 12.5239L110.646 12.0996L110.222 11.6753C110.113 11.7843 109.988 11.8394 109.806 11.8395L109.807 12.4395ZM110.646 12.0996L111.071 12.5238C111.409 12.1851 111.586 11.7596 111.586 11.2805L110.986 11.2803L110.386 11.2801C110.386 11.4403 110.336 11.5611 110.222 11.6755L110.646 12.0996ZM110.986 11.2803H111.586V8.47949H110.986H110.386V11.2803H110.986ZM110.986 8.47949V7.87949H109.526V8.47949V9.07949H110.986V8.47949ZM109.526 8.47949H110.126V5.95996H109.526H108.926V8.47949H109.526ZM109.526 5.95996V6.55996H113.506V5.95996V5.35996H109.526V5.95996ZM113.506 5.95996H112.906V11.2803H113.506H114.106V5.95996H113.506ZM113.506 11.2803L112.906 11.2802C112.906 12.1334 112.61 12.8476 112.002 13.4556L112.426 13.8799L112.85 14.3041C113.682 13.4724 114.106 12.4535 114.106 11.2803L113.506 11.2803ZM112.426 13.8799L112.002 13.4556C111.395 14.0619 110.675 14.3599 109.807 14.36L109.807 14.96L109.807 15.56C110.991 15.5598 112.017 15.1373 112.85 14.3042L112.426 13.8799ZM109.807 14.96V14.36C108.953 14.36 108.238 14.0637 107.63 13.4556L107.206 13.8799L106.782 14.3041C107.614 15.1361 108.633 15.56 109.807 15.56V14.96ZM107.206 13.8799L107.63 13.4556C107.022 12.8476 106.726 12.1333 106.726 11.2802L106.126 11.2803L105.526 11.2803C105.526 12.4535 105.95 13.4724 106.782 14.3041L107.206 13.8799ZM106.126 11.2803H106.726V3.67969H106.126H105.526V11.2803H106.126ZM106.126 3.67969L106.726 3.67971C106.726 2.82662 107.022 2.11242 107.63 1.50432L107.206 1.08008L106.782 0.655839C105.95 1.48758 105.526 2.5064 105.526 3.67966L106.126 3.67969ZM107.206 1.08008L107.63 1.50434C108.238 0.896301 108.953 0.6 109.807 0.6V0V-0.6C108.633 -0.6 107.614 -0.176146 106.782 0.655814L107.206 1.08008ZM139.523 0L139.523 0.6C140.392 0.600043 141.113 0.897966 141.719 1.50434L142.144 1.08008L142.568 0.655814C141.734 -0.177709 140.708 -0.599941 139.523 -0.6L139.523 0ZM142.144 1.08008L141.719 1.5043C142.327 2.11241 142.624 2.82668 142.624 3.67971L143.224 3.67969L143.824 3.67966C143.824 2.50643 143.399 1.48756 142.568 0.655853L142.144 1.08008ZM143.224 3.67969H142.624V4.33984H143.224H143.824V3.67969H143.224ZM143.224 4.33984V3.73984H140.703V4.33984V4.93984H143.224V4.33984ZM140.703 4.33984H141.303V3.67969H140.703H140.103V4.33984H140.703ZM140.703 3.67969L141.303 3.67961C141.303 3.20074 141.127 2.77436 140.788 2.43511L140.363 2.85938L139.939 3.28364C140.053 3.39765 140.103 3.51878 140.103 3.67976L140.703 3.67969ZM140.363 2.85938L140.787 2.43502C140.443 2.09114 140.009 1.9196 139.524 1.91953L139.523 2.51953L139.523 3.11953C139.705 3.11956 139.83 3.17466 139.939 3.28373L140.363 2.85938ZM139.523 2.51953V1.91953C139.044 1.91953 138.618 2.09606 138.279 2.43503L138.703 2.85938L139.127 3.28372C139.241 3.16961 139.363 3.11953 139.523 3.11953V2.51953ZM138.703 2.85938L138.279 2.43511C137.94 2.77436 137.763 3.20074 137.763 3.67961L138.363 3.67969L138.963 3.67976C138.963 3.51878 139.013 3.39765 139.127 3.28364L138.703 2.85938ZM138.363 3.67969H137.763V3.91992H138.363H138.963V3.67969H138.363ZM138.363 3.91992L137.763 3.91994C137.763 4.68818 138.055 5.34504 138.635 5.83739L139.023 5.37988L139.412 4.92238C139.112 4.66809 138.963 4.3516 138.963 3.9199L138.363 3.91992ZM139.023 5.37988L138.633 5.83542L141.293 8.1157L141.684 7.66016L142.074 7.20461L139.414 4.92434L139.023 5.37988ZM141.684 7.66016L141.286 8.10985C142.186 8.90487 142.624 9.869 142.624 11.04H143.224H143.824C143.824 9.51806 143.234 8.22867 142.081 7.21046L141.684 7.66016ZM143.224 11.04H142.624V11.2803H143.224H143.824V11.04H143.224ZM143.224 11.2803L142.624 11.2802C142.624 12.1333 142.327 12.8476 141.719 13.4556L142.144 13.8799L142.568 14.3041C143.399 13.4724 143.824 12.4534 143.824 11.2803L143.224 11.2803ZM142.144 13.8799L141.719 13.4556C141.113 14.062 140.392 14.3599 139.523 14.36L139.523 14.96L139.523 15.56C140.708 15.5599 141.734 15.1377 142.568 14.3041L142.144 13.8799ZM139.523 14.96V14.36C138.67 14.36 137.955 14.0637 137.347 13.4556L136.923 13.8799L136.499 14.3041C137.331 15.1361 138.35 15.56 139.523 15.56V14.96ZM136.923 13.8799L137.347 13.4556C136.739 12.8476 136.443 12.1333 136.443 11.2802L135.843 11.2803L135.243 11.2803C135.243 12.4534 135.667 13.4724 136.499 14.3041L136.923 13.8799ZM135.843 11.2803H136.443V10.6201H135.843H135.243V11.2803H135.843ZM135.843 10.6201V11.2201H138.363V10.6201V10.0201H135.843V10.6201ZM138.363 10.6201H137.763V11.2803H138.363H138.963V10.6201H138.363ZM138.363 11.2803L137.763 11.2805C137.763 11.7596 137.94 12.1851 138.279 12.5238L138.703 12.0996L139.127 11.6754C139.013 11.5611 138.963 11.4404 138.963 11.2801L138.363 11.2803ZM138.703 12.0996L138.279 12.5239C138.618 12.8631 139.044 13.0395 139.523 13.0395V12.4395V11.8395C139.362 11.8395 139.241 11.7894 139.127 11.6753L138.703 12.0996ZM139.523 12.4395L139.524 13.0395C140.009 13.0394 140.443 12.8681 140.788 12.5239L140.363 12.0996L139.939 11.6753C139.83 11.7844 139.705 11.8394 139.523 11.8395L139.523 12.4395ZM140.363 12.0996L140.788 12.5238C141.126 12.1851 141.303 11.7596 141.303 11.2805L140.703 11.2803L140.103 11.2801C140.103 11.4404 140.053 11.5611 139.939 11.6754L140.363 12.0996ZM140.703 11.2803H141.303V11.04H140.703H140.103V11.2803H140.703ZM140.703 11.04H141.303C141.303 10.2717 141.011 9.61492 140.431 9.12257L140.043 9.58008L139.655 10.0376C139.955 10.2919 140.103 10.6083 140.103 11.04H140.703ZM140.043 9.58008L140.433 9.12454L137.773 6.84426L137.383 7.2998L136.992 7.75535L139.652 10.0356L140.043 9.58008ZM137.383 7.2998L137.78 6.8501C136.88 6.0551 136.443 5.09099 136.443 3.91991L135.843 3.91992L135.243 3.91993C135.243 5.4419 135.833 6.73128 136.986 7.74951L137.383 7.2998ZM135.843 3.91992H136.443V3.67969H135.843H135.243V3.91992H135.843ZM135.843 3.67969L136.443 3.67971C136.443 2.82669 136.739 2.1124 137.347 1.5043L136.923 1.08008L136.499 0.655855C135.667 1.48756 135.243 2.50643 135.243 3.67966L135.843 3.67969ZM136.923 1.08008L137.347 1.50434C137.955 0.896301 138.67 0.6 139.523 0.6V0V-0.6C138.35 -0.6 137.331 -0.176145 136.499 0.655814L136.923 1.08008ZM163.678 11.2803L163.078 11.2805C163.078 11.7596 163.255 12.185 163.593 12.5239L164.018 12.0996L164.442 11.6754C164.328 11.5611 164.278 11.4405 164.278 11.2801L163.678 11.2803ZM164.018 12.0996L163.593 12.5239C163.933 12.8631 164.359 13.0395 164.838 13.0395V12.4395V11.8395C164.677 11.8395 164.556 11.7894 164.442 11.6753L164.018 12.0996ZM164.838 12.4395L164.838 13.0395C165.323 13.0393 165.758 12.8681 166.102 12.5239L165.678 12.0996L165.253 11.6753C165.145 11.7843 165.019 11.8394 164.838 11.8395L164.838 12.4395ZM165.678 12.0996L166.102 12.5238C166.441 12.1851 166.617 11.7596 166.618 11.2805L166.018 11.2803L165.418 11.2801C165.418 11.4403 165.368 11.5611 165.253 11.6755L165.678 12.0996ZM166.018 11.2803H166.618V10.0957H166.018H165.418V11.2803H166.018ZM166.018 10.0957V10.6957H168.537V10.0957V9.4957H166.018V10.0957ZM168.537 10.0957H167.937V11.2803H168.537H169.137V10.0957H168.537ZM168.537 11.2803L167.937 11.2802C167.937 12.1334 167.641 12.8476 167.033 13.4556L167.457 13.8799L167.881 14.3041C168.713 13.4724 169.137 12.4535 169.137 11.2803L168.537 11.2803ZM167.457 13.8799L167.033 13.4556C166.426 14.0619 165.706 14.3599 164.838 14.36L164.838 14.96L164.838 15.56C166.022 15.5598 167.048 15.1373 167.881 14.3042L167.457 13.8799ZM164.838 14.96V14.36C163.984 14.36 163.27 14.0637 162.662 13.4556L162.237 13.8799L161.813 14.3041C162.645 15.1361 163.665 15.56 164.838 15.56V14.96ZM162.237 13.8799L162.662 13.4556C162.054 12.8476 161.757 12.1333 161.757 11.2802L161.157 11.2803L160.557 11.2803C160.557 12.4535 160.981 13.4724 161.813 14.3041L162.237 13.8799ZM161.157 11.2803H161.757V10.0957H161.157H160.557V11.2803H161.157ZM161.157 10.0957V10.6957H163.678V10.0957V9.4957H161.157V10.0957ZM163.678 10.0957H163.078V11.2803H163.678H164.278V10.0957H163.678ZM339.131 0L339.131 0.6C339.999 0.600089 340.719 0.89797 341.326 1.50435L341.75 1.08008L342.174 0.655801C341.341 -0.177482 340.315 -0.599878 339.131 -0.6L339.131 0ZM341.75 1.08008L341.326 1.50434C341.934 2.11245 342.23 2.82651 342.23 3.67971L342.83 3.67969L343.43 3.67966C343.43 2.50634 343.006 1.48762 342.174 0.655814L341.75 1.08008ZM342.83 3.67969H342.23V4.33984H342.83H343.43V3.67969H342.83ZM342.83 4.33984V3.73984H340.311V4.33984V4.93984H342.83V4.33984ZM340.311 4.33984H340.911V3.67969H340.311H339.711V4.33984H340.311ZM340.311 3.67969L340.911 3.67961C340.91 3.20074 340.734 2.77436 340.395 2.43511L339.971 2.85938L339.546 3.28364C339.66 3.39765 339.711 3.51878 339.711 3.67976L340.311 3.67969ZM339.971 2.85938L340.395 2.43507C340.051 2.09102 339.616 1.91968 339.131 1.91953L339.131 2.51953L339.131 3.11953C339.312 3.11959 339.438 3.17472 339.546 3.28368L339.971 2.85938ZM339.131 2.51953V1.91953C338.652 1.91953 338.225 2.09618 337.886 2.43498L338.311 2.85938L338.735 3.28377C338.849 3.16965 338.97 3.11953 339.131 3.11953V2.51953ZM338.311 2.85938L337.886 2.43511C337.547 2.77436 337.371 3.20074 337.371 3.67961L337.971 3.67969L338.571 3.67976C338.571 3.51878 338.621 3.39765 338.735 3.28364L338.311 2.85938ZM337.971 3.67969H337.371V11.2803H337.971H338.571V3.67969H337.971ZM337.971 11.2803L337.371 11.2805C337.371 11.7596 337.547 12.185 337.886 12.5239L338.311 12.0996L338.735 11.6754C338.621 11.5611 338.571 11.4405 338.571 11.2801L337.971 11.2803ZM338.311 12.0996L337.886 12.5239C338.226 12.8631 338.652 13.0395 339.131 13.0395V12.4395V11.8395C338.97 11.8395 338.849 11.7894 338.735 11.6753L338.311 12.0996ZM339.131 12.4395L339.131 13.0395C339.616 13.0393 340.051 12.8681 340.395 12.5239L339.971 12.0996L339.546 11.6753C339.438 11.7843 339.312 11.8394 339.131 11.8395L339.131 12.4395ZM339.971 12.0996L340.395 12.5238C340.734 12.1851 340.91 11.7596 340.911 11.2805L340.311 11.2803L339.711 11.2801C339.711 11.4403 339.661 11.5611 339.546 11.6755L339.971 12.0996ZM340.311 11.2803H340.911V8.47949H340.311H339.711V11.2803H340.311ZM340.311 8.47949V7.87949H338.851V8.47949V9.07949H340.311V8.47949ZM338.851 8.47949H339.451V5.95996H338.851H338.251V8.47949H338.851ZM338.851 5.95996V6.55996H342.83V5.95996V5.35996H338.851V5.95996ZM342.83 5.95996H342.23V11.2803H342.83H343.43V5.95996H342.83ZM342.83 11.2803L342.23 11.2802C342.23 12.1334 341.934 12.8476 341.326 13.4556L341.75 13.8799L342.174 14.3041C343.006 13.4724 343.43 12.4535 343.43 11.2803L342.83 11.2803ZM341.75 13.8799L341.326 13.4556C340.719 14.0619 339.999 14.3599 339.131 14.36L339.131 14.96L339.131 15.56C340.315 15.5598 341.341 15.1373 342.174 14.3042L341.75 13.8799ZM339.131 14.96V14.36C338.277 14.36 337.563 14.0637 336.955 13.4556L336.53 13.8799L336.106 14.3041C336.938 15.1361 337.958 15.56 339.131 15.56V14.96ZM336.53 13.8799L336.955 13.4556C336.347 12.8476 336.05 12.1333 336.05 11.2802L335.45 11.2803L334.85 11.2803C334.85 12.4535 335.274 13.4724 336.106 14.3041L336.53 13.8799ZM335.45 11.2803H336.05V3.67969H335.45H334.85V11.2803H335.45ZM335.45 3.67969L336.05 3.67971C336.05 2.82662 336.347 2.11242 336.955 1.50432L336.53 1.08008L336.106 0.655839C335.274 1.48758 334.85 2.5064 334.85 3.67966L335.45 3.67969ZM336.53 1.08008L336.955 1.50434C337.563 0.896301 338.277 0.6 339.131 0.6V0V-0.6C337.958 -0.6 336.938 -0.176146 336.106 0.655814L336.53 1.08008ZM28.7979 14.7598V14.1598H26.2783V14.7598V15.3598H28.7979V14.7598ZM26.2783 14.7598H26.8783V3.33984H26.2783H25.6783V14.7598H26.2783ZM26.2783 3.33984L25.8829 2.88857L23.9425 4.58876L24.3379 5.04004L24.7333 5.49132L26.6737 3.79112L26.2783 3.33984ZM24.3379 5.04004H24.9379V1.89941H24.3379H23.7379V5.04004H24.3379ZM24.3379 1.89941L24.7332 2.35081L26.6736 0.651587L26.2783 0.200195L25.883 -0.251196L23.9426 1.44802L24.3379 1.89941ZM26.2783 0.200195V0.800195H28.7979V0.200195V-0.399805H26.2783V0.200195ZM28.7979 0.200195H28.1979V14.7598H28.7979H29.3979V0.200195H28.7979ZM81.1133 14.7598V14.1598H78.5938V14.7598V15.3598H81.1133V14.7598ZM78.5938 14.7598H79.1937V9.0957H78.5938H77.9938V14.7598H78.5938ZM78.5938 9.0957V9.6957H81.1133V9.0957V8.4957H78.5938V9.0957ZM81.1133 9.0957H80.5133V14.7598H81.1133H81.7133V9.0957H81.1133ZM98.8594 14.7598V14.1598H96.2793V14.7598V15.3598H98.8594V14.7598ZM96.2793 14.7598L96.869 14.6492L96.329 11.7693L95.7393 11.8799L95.1495 11.9905L95.6896 14.8704L96.2793 14.7598ZM95.7393 11.8799V11.2799H93.2988V11.8799V12.4799H95.7393V11.8799ZM93.2988 11.8799L92.7091 11.7695L92.17 14.6494L92.7598 14.7598L93.3495 14.8702L93.8886 11.9903L93.2988 11.8799ZM92.7598 14.7598V14.1598H90.1797V14.7598V15.3598H92.7598V14.7598ZM90.1797 14.7598L90.7667 14.8839L93.8468 0.324377L93.2598 0.200195L92.6728 0.0760136L89.5927 14.6356L90.1797 14.7598ZM93.2598 0.200195V0.800195H95.7793V0.200195V-0.399805H93.2598V0.200195ZM95.7793 0.200195L95.1923 0.324377L98.2724 14.8839L98.8594 14.7598L99.4464 14.6356L96.3663 0.0760136L95.7793 0.200195ZM128.361 2.71973V2.11973H124.262V2.71973V3.31973H128.361V2.71973ZM124.262 2.71973H123.662V5.95996H124.262H124.862V2.71973H124.262ZM124.262 5.95996V6.55996H127.881V5.95996V5.35996H124.262V5.95996ZM127.881 5.95996H127.281V8.47949H127.881H128.481V5.95996H127.881ZM127.881 8.47949V7.87949H124.262V8.47949V9.07949H127.881V8.47949ZM124.262 8.47949H123.662V12.2402H124.262H124.862V8.47949H124.262ZM124.262 12.2402V12.8402H128.361V12.2402V11.6402H124.262V12.2402ZM128.361 12.2402H127.761V14.7598H128.361H128.961V12.2402H128.361ZM128.361 14.7598V14.1598H121.741V14.7598V15.3598H128.361V14.7598ZM121.741 14.7598H122.341V0.200195H121.741H121.141V14.7598H121.741ZM121.741 0.200195V0.800195H128.361V0.200195V-0.399805H121.741V0.200195ZM128.361 0.200195H127.761V2.71973H128.361H128.961V0.200195H128.361ZM183.393 2.71973V2.11973H179.293V2.71973V3.31973H183.393V2.71973ZM179.293 2.71973H178.693V5.95996H179.293H179.893V2.71973H179.293ZM179.293 5.95996V6.55996H182.912V5.95996V5.35996H179.293V5.95996ZM182.912 5.95996H182.312V8.47949H182.912H183.512V5.95996H182.912ZM182.912 8.47949V7.87949H179.293V8.47949V9.07949H182.912V8.47949ZM179.293 8.47949H178.693V14.7598H179.293H179.893V8.47949H179.293ZM179.293 14.7598V14.1598H176.772V14.7598V15.3598H179.293V14.7598ZM176.772 14.7598H177.372V0.200195H176.772H176.172V14.7598H176.772ZM176.772 0.200195V0.800195H183.393V0.200195V-0.399805H176.772V0.200195ZM183.393 0.200195H182.793V2.71973H183.393H183.993V0.200195H183.393ZM207.607 2.71973V2.11973H203.508V2.71973V3.31973H207.607V2.71973ZM203.508 2.71973H202.908V5.95996H203.508H204.108V2.71973H203.508ZM203.508 5.95996V6.55996H207.127V5.95996V5.35996H203.508V5.95996ZM207.127 5.95996H206.527V8.47949H207.127H207.727V5.95996H207.127ZM207.127 8.47949V7.87949H203.508V8.47949V9.07949H207.127V8.47949ZM203.508 8.47949H202.908V14.7598H203.508H204.108V8.47949H203.508ZM203.508 14.7598V14.1598H200.987V14.7598V15.3598H203.508V14.7598ZM200.987 14.7598H201.587V0.200195H200.987H200.387V14.7598H200.987ZM200.987 0.200195V0.800195H207.607V0.200195V-0.399805H200.987V0.200195ZM207.607 0.200195H207.007V2.71973H207.607H208.207V0.200195H207.607ZM217.715 14.7598V14.1598H215.194V14.7598V15.3598H217.715V14.7598ZM215.194 14.7598H215.794V0.200195H215.194H214.594V14.7598H215.194ZM215.194 0.200195V0.800195H217.715V0.200195V-0.399805H215.194V0.200195ZM217.715 0.200195H217.115V14.7598H217.715H218.315V0.200195H217.715ZM228.582 12.2402V12.8402H232.002V12.2402V11.6402H228.582V12.2402ZM232.002 12.2402H231.402V14.7598H232.002H232.602V12.2402H232.002ZM232.002 14.7598V14.1598H226.062V14.7598V15.3598H232.002V14.7598ZM226.062 14.7598H226.662V0.200195H226.062H225.462V14.7598H226.062ZM226.062 0.200195V0.800195H228.582V0.200195V-0.399805H226.062V0.200195ZM228.582 0.200195H227.982V12.2402H228.582H229.182V0.200195H228.582ZM244.727 8.13965L245.296 8.32894L247.936 0.389491L247.366 0.200195L246.797 0.0108999L244.157 7.95035L244.727 8.13965ZM247.366 0.200195V0.800195H249.906V0.200195V-0.399805H247.366V0.200195ZM249.906 0.200195H249.306V14.7598H249.906H250.506V0.200195H249.906ZM249.906 14.7598V14.1598H247.387V14.7598V15.3598H249.906V14.7598ZM247.387 14.7598H247.987V6.82031H247.387H246.787V14.7598H247.387ZM247.387 6.82031L246.814 6.64274L245.054 12.3224L245.627 12.5L246.2 12.6776L247.96 6.99789L247.387 6.82031ZM245.627 12.5V11.9H243.807V12.5V13.1H245.627V12.5ZM243.807 12.5L244.38 12.3224L242.62 6.64274L242.047 6.82031L241.474 6.99789L243.234 12.6776L243.807 12.5ZM242.047 6.82031H241.447V14.7598H242.047H242.647V6.82031H242.047ZM242.047 14.7598V14.1598H239.526V14.7598V15.3598H242.047V14.7598ZM239.526 14.7598H240.126V0.200195H239.526H238.926V14.7598H239.526ZM239.526 0.200195V0.800195H242.066V0.200195V-0.399805H239.526V0.200195ZM242.066 0.200195L241.497 0.390813L244.158 8.33027L244.727 8.13965L245.295 7.94903L242.635 0.00957716L242.066 0.200195ZM263.426 8.13965L263.995 8.32894L266.635 0.389491L266.065 0.200195L265.496 0.0108999L262.856 7.95035L263.426 8.13965ZM266.065 0.200195V0.800195H268.605V0.200195V-0.399805H266.065V0.200195ZM268.605 0.200195H268.005V14.7598H268.605H269.205V0.200195H268.605ZM268.605 14.7598V14.1598H266.086V14.7598V15.3598H268.605V14.7598ZM266.086 14.7598H266.686V6.82031H266.086H265.486V14.7598H266.086ZM266.086 6.82031L265.513 6.64274L263.753 12.3224L264.326 12.5L264.899 12.6776L266.659 6.99789L266.086 6.82031ZM264.326 12.5V11.9H262.506V12.5V13.1H264.326V12.5ZM262.506 12.5L263.079 12.3224L261.319 6.64274L260.746 6.82031L260.173 6.99789L261.933 12.6776L262.506 12.5ZM260.746 6.82031H260.146V14.7598H260.746H261.346V6.82031H260.746ZM260.746 14.7598V14.1598H258.226V14.7598V15.3598H260.746V14.7598ZM258.226 14.7598H258.826V0.200195H258.226H257.626V14.7598H258.226ZM258.226 0.200195V0.800195H260.766V0.200195V-0.399805H258.226V0.200195ZM260.766 0.200195L260.197 0.390813L262.857 8.33027L263.426 8.13965L263.995 7.94903L261.335 0.00957716L260.766 0.200195ZM284.625 14.7598V14.1598H282.045V14.7598V15.3598H284.625V14.7598ZM282.045 14.7598L282.635 14.6492L282.095 11.7693L281.505 11.8799L280.915 11.9905L281.455 14.8704L282.045 14.7598ZM281.505 11.8799V11.2799H279.064V11.8799V12.4799H281.505V11.8799ZM279.064 11.8799L278.475 11.7695L277.936 14.6494L278.525 14.7598L279.115 14.8702L279.654 11.9903L279.064 11.8799ZM278.525 14.7598V14.1598H275.945V14.7598V15.3598H278.525V14.7598ZM275.945 14.7598L276.532 14.8839L279.612 0.324377L279.025 0.200195L278.438 0.0760136L275.358 14.6356L275.945 14.7598ZM279.025 0.200195V0.800195H281.545V0.200195V-0.399805H279.025V0.200195ZM281.545 0.200195L280.958 0.324377L284.038 14.8839L284.625 14.7598L285.212 14.6356L282.132 0.0760136L281.545 0.200195ZM294.492 6.33984L295.039 6.58583L297.799 0.446186L297.252 0.200195L296.705 -0.0457955L293.945 6.09385L294.492 6.33984ZM297.252 0.200195V0.800195H300.052V0.200195V-0.399805H297.252V0.200195ZM300.052 0.200195L299.514 -0.0659879L296.554 5.9135L297.092 6.17969L297.63 6.44587L300.589 0.466379L300.052 0.200195ZM297.092 6.17969L296.539 6.41181L300.138 14.9919L300.691 14.7598L301.245 14.5276L297.645 5.94757L297.092 6.17969ZM300.691 14.7598V14.1598H297.952V14.7598V15.3598H300.691V14.7598ZM297.952 14.7598L298.511 14.5405L296.25 8.78078L295.691 9L295.133 9.21922L297.394 14.979L297.952 14.7598ZM295.691 9L295.155 8.73176L293.955 11.1312L294.492 11.3994L295.029 11.6677L296.228 9.26824L295.691 9ZM294.492 11.3994H293.892V14.7598H294.492H295.092V11.3994H294.492ZM294.492 14.7598V14.1598H291.972V14.7598V15.3598H294.492V14.7598ZM291.972 14.7598H292.572V0.200195H291.972H291.372V14.7598H291.972ZM291.972 0.200195V0.800195H294.492V0.200195V-0.399805H291.972V0.200195ZM294.492 0.200195H293.892V6.33984H294.492H295.092V0.200195H294.492ZM310.594 14.7598V14.1598H308.073V14.7598V15.3598H310.594V14.7598ZM308.073 14.7598H308.673V7.0957H308.073H307.473V14.7598H308.073ZM308.073 7.0957V7.6957H310.594V7.0957V6.4957H308.073V7.0957ZM310.594 7.0957H309.994V14.7598H310.594H311.194V7.0957H310.594ZM324.681 8.16016H325.281V0.200195H324.681H324.081V8.16016H324.681ZM324.681 0.200195V0.800195H327.2V0.200195V-0.399805H324.681V0.200195ZM327.2 0.200195H326.6V14.7598H327.2H327.8V0.200195H327.2ZM327.2 14.7598V14.1598H324.681V14.7598V15.3598H327.2V14.7598ZM324.681 14.7598L325.237 14.5348L322.017 6.57482L321.461 6.7998L320.905 7.02479L324.124 14.9848L324.681 14.7598ZM321.461 6.7998H320.861V14.7598H321.461H322.061V6.7998H321.461ZM321.461 14.7598V14.1598H318.94V14.7598V15.3598H321.461V14.7598ZM318.94 14.7598H319.54V0.200195H318.94H318.34V14.7598H318.94ZM318.94 0.200195V0.800195H321.461V0.200195V-0.399805H318.94V0.200195ZM321.461 0.200195L320.905 0.425181L324.124 8.38514L324.681 8.16016L325.237 7.93517L322.017 -0.0247905L321.461 0.200195ZM93.7598 9.35938V9.95938H95.2793V9.35938V8.75937H93.7598V9.35938ZM95.2793 9.35938L95.8692 9.25004L95.1095 5.15043L94.5195 5.25977L93.9296 5.3691L94.6893 9.46871L95.2793 9.35938ZM94.5195 5.25977L93.9296 5.15043L93.1698 9.25004L93.7598 9.35938L94.3497 9.46871L95.1095 5.3691L94.5195 5.25977ZM279.525 9.35938V9.95938H281.045V9.35938V8.75937H279.525V9.35938ZM281.045 9.35938L281.635 9.25004L280.875 5.15043L280.285 5.25977L279.695 5.3691L280.455 9.46871L281.045 9.35938ZM280.285 5.25977L279.695 5.15043L278.935 9.25004L279.525 9.35938L280.115 9.46871L280.875 5.3691L280.285 5.25977ZM163.678 9.0957V8.4957H161.157V9.0957V9.6957H163.678V9.0957ZM161.157 9.0957H161.757V8.0957H161.157H160.557V9.0957H161.157ZM161.157 8.0957V8.6957H163.678V8.0957V7.4957H161.157V8.0957ZM163.678 8.0957H163.078V9.0957H163.678H164.278V8.0957H163.678ZM168.537 9.0957V8.4957H166.018V9.0957V9.6957H168.537V9.0957ZM166.018 9.0957H166.618V8.0957H166.018H165.418V9.0957H166.018ZM166.018 8.0957V8.6957H168.537V8.0957V7.4957H166.018V8.0957ZM168.537 8.0957H167.937V9.0957H168.537H169.137V8.0957H168.537ZM81.1133 8.0957V7.4957H78.5938V8.0957V8.6957H81.1133V8.0957ZM78.5938 8.0957H79.1937V7.0957H78.5938H77.9938V8.0957H78.5938ZM78.5938 7.0957V7.6957H81.1133V7.0957V6.4957H78.5938V7.0957ZM81.1133 7.0957H80.5133V8.0957H81.1133H81.7133V7.0957H81.1133ZM163.678 7.0957V6.4957H161.157V7.0957V7.6957H163.678V7.0957ZM161.157 7.0957H161.757V6.0957H161.157H160.557V7.0957H161.157ZM161.157 6.0957V6.6957H163.678V6.0957V5.4957H161.157V6.0957ZM163.678 6.0957H163.078V7.0957H163.678H164.278V6.0957H163.678ZM168.537 7.0957V6.4957H166.018V7.0957V7.6957H168.537V7.0957ZM166.018 7.0957H166.618V6.0957H166.018H165.418V7.0957H166.018ZM166.018 6.0957V6.6957H168.537V6.0957V5.4957H166.018V6.0957ZM168.537 6.0957H167.937V7.0957H168.537H169.137V6.0957H168.537ZM81.1133 6.0957V5.4957H78.5938V6.0957V6.6957H81.1133V6.0957ZM78.5938 6.0957H79.1937V5.0957H78.5938H77.9938V6.0957H78.5938ZM78.5938 5.0957V5.6957H81.1133V5.0957V4.4957H78.5938V5.0957ZM81.1133 5.0957H80.5133V6.0957H81.1133H81.7133V5.0957H81.1133ZM310.594 6.0957V5.4957H308.073V6.0957V6.6957H310.594V6.0957ZM308.073 6.0957H308.673V5.0957H308.073H307.473V6.0957H308.073ZM308.073 5.0957V5.6957H310.594V5.0957V4.4957H308.073V5.0957ZM310.594 5.0957H309.994V6.0957H310.594H311.194V5.0957H310.594ZM164.838 0L164.838 0.6C165.706 0.600089 166.426 0.89797 167.033 1.50435L167.457 1.08008L167.881 0.655801C167.048 -0.177482 166.022 -0.599878 164.838 -0.6L164.838 0ZM167.457 1.08008L167.033 1.50434C167.641 2.11245 167.937 2.82651 167.937 3.67971L168.537 3.67969L169.137 3.67966C169.137 2.50634 168.713 1.48762 167.881 0.655814L167.457 1.08008ZM168.537 3.67969H167.937V5.0957H168.537H169.137V3.67969H168.537ZM168.537 5.0957V4.4957H166.018V5.0957V5.6957H168.537V5.0957ZM166.018 5.0957H166.618V3.67969H166.018H165.418V5.0957H166.018ZM166.018 3.67969L166.618 3.67961C166.618 3.20074 166.441 2.77436 166.102 2.43511L165.678 2.85938L165.253 3.28364C165.367 3.39765 165.418 3.51878 165.418 3.67976L166.018 3.67969ZM165.678 2.85938L166.102 2.43507C165.758 2.09102 165.323 1.91968 164.838 1.91953L164.838 2.51953L164.838 3.11953C165.019 3.11959 165.145 3.17472 165.254 3.28368L165.678 2.85938ZM164.838 2.51953V1.91953C164.359 1.91953 163.932 2.09618 163.593 2.43498L164.018 2.85938L164.442 3.28377C164.556 3.16965 164.677 3.11953 164.838 3.11953V2.51953ZM164.018 2.85938L163.593 2.43511C163.254 2.77436 163.078 3.20074 163.078 3.67961L163.678 3.67969L164.278 3.67976C164.278 3.51878 164.328 3.39765 164.442 3.28364L164.018 2.85938ZM163.678 3.67969H163.078V5.0957H163.678H164.278V3.67969H163.678ZM163.678 5.0957V4.4957H161.157V5.0957V5.6957H163.678V5.0957ZM161.157 5.0957H161.757V3.67969H161.157H160.557V5.0957H161.157ZM161.157 3.67969L161.757 3.67971C161.757 2.82662 162.054 2.11242 162.662 1.50432L162.237 1.08008L161.813 0.655839C160.981 1.48758 160.557 2.5064 160.557 3.67966L161.157 3.67969ZM162.237 1.08008L162.662 1.50434C163.27 0.896301 163.984 0.6 164.838 0.6V0V-0.6C163.665 -0.6 162.645 -0.176146 161.813 0.655814L162.237 1.08008ZM83.6133 2.71973V2.11973H81.1133V2.71973V3.31973H83.6133V2.71973ZM81.1133 2.71973H80.5133V4.0957H81.1133H81.7133V2.71973H81.1133ZM81.1133 4.0957V3.4957H78.5938V4.0957V4.6957H81.1133V4.0957ZM78.5938 4.0957H79.1937V2.71973H78.5938H77.9938V4.0957H78.5938ZM78.5938 2.71973V2.11973H76.0938V2.71973V3.31973H78.5938V2.71973ZM76.0938 2.71973H76.6937V0.200195H76.0938H75.4938V2.71973H76.0938ZM76.0938 0.200195V0.800195H83.6133V0.200195V-0.399805H76.0938V0.200195ZM83.6133 0.200195H83.0133V2.71973H83.6133H84.2133V0.200195H83.6133ZM310.594 4.0957V3.4957H308.073V4.0957V4.6957H310.594V4.0957ZM308.073 4.0957H308.673V3.0957H308.073H307.473V4.0957H308.073ZM308.073 3.0957V3.6957H310.594V3.0957V2.4957H308.073V3.0957ZM310.594 3.0957H309.994V4.0957H310.594H311.194V3.0957H310.594ZM310.594 2.0957V1.4957H308.073V2.0957V2.6957H310.594V2.0957ZM308.073 2.0957H308.673V0.200195H308.073H307.473V2.0957H308.073ZM308.073 0.200195V0.800195H310.594V0.200195V-0.399805H308.073V0.200195ZM310.594 0.200195H309.994V2.0957H310.594H311.194V0.200195H310.594Z" fill="url(#paint1_linear_7_469)" mask="url(#path-1-inside-1_7_469)"/>
<defs>
<radialGradient id="paint0_radial_7_469" cx="0" cy="0" r="1" gradientUnits="userSpaceOnUse" gradientTransform="translate(183.036 7.67658) rotate(90) scale(38.8047 207.296)">
<stop stop-color="#ECF7FF"/>
<stop offset="1" stop-color="#ECF7FF" stop-opacity="0"/>
</radialGradient>
<linearGradient id="paint1_linear_7_469" x1="183.036" y1="-6.45475" x2="183.036" y2="44.9505" gradientUnits="userSpaceOnUse">
<stop stop-color="#253596" stop-opacity="0"/>
<stop offset="0.456017" stop-color="#4A76D4"/>
<stop offset="1" stop-color="#76EAF1"/>
</linearGradient>
</defs>
</svg>
