<svg width="540" height="22" viewBox="0 0 540 22" fill="none" xmlns="http://www.w3.org/2000/svg">
<mask id="path-1-inside-1_7_265" fill="white">
<path d="M135.619 1C137.056 1.00008 138.279 1.50384 139.287 2.51172C140.295 3.51972 140.799 4.73368 140.799 6.15234V7.07617H137.271V6.15234C137.271 5.70434 137.112 5.32124 136.795 5.00391C136.478 4.68669 136.086 4.5284 135.619 4.52832C135.171 4.52832 134.788 4.68662 134.471 5.00391C134.153 5.32124 133.995 5.70434 133.995 6.15234V16.792C133.995 17.24 134.153 17.6231 134.471 17.9404C134.788 18.2577 135.171 18.416 135.619 18.416C136.086 18.4159 136.478 18.2576 136.795 17.9404C137.112 17.6231 137.271 17.24 137.271 16.792V15.8682H140.799V16.792C140.799 18.2107 140.295 19.4246 139.287 20.4326C138.279 21.4405 137.056 21.9443 135.619 21.9443C134.201 21.9443 132.986 21.4406 131.979 20.4326C130.971 19.4246 130.467 18.2107 130.467 16.792V6.15234C130.467 4.73368 130.971 3.51972 131.979 2.51172C132.987 1.50377 134.201 1 135.619 1ZM341.276 1C342.714 1 343.936 1.50395 344.944 2.51172C345.952 3.51972 346.457 4.73368 346.457 6.15234V7.07617H342.929V6.15234C342.929 5.70434 342.769 5.32124 342.452 5.00391C342.135 4.6868 341.743 4.52832 341.276 4.52832C340.829 4.52837 340.446 4.68681 340.129 5.00391C339.812 5.32124 339.652 5.70434 339.652 6.15234V16.792C339.652 17.24 339.812 17.6231 340.129 17.9404C340.446 18.2575 340.829 18.416 341.276 18.416C341.743 18.416 342.135 18.2575 342.452 17.9404C342.769 17.6231 342.929 17.24 342.929 16.792V12.8721H340.885V9.34375H346.457V16.792C346.457 18.2107 345.952 19.4246 344.944 20.4326C343.936 21.4404 342.714 21.9443 341.276 21.9443C339.858 21.9443 338.645 21.4404 337.637 20.4326C336.629 19.4246 336.125 18.2107 336.125 16.792V6.15234C336.125 4.73368 336.629 3.51972 337.637 2.51172C338.645 1.50396 339.858 1.00005 341.276 1ZM382.468 16.792C382.468 17.24 382.626 17.6231 382.943 17.9404C383.261 18.2577 383.644 18.416 384.092 18.416C384.558 18.4159 384.95 18.2576 385.268 17.9404C385.585 17.6231 385.743 17.24 385.743 16.792V15.8682H389.271V16.792C389.271 18.2107 388.768 19.4246 387.76 20.4326C386.752 21.4405 385.529 21.9443 384.092 21.9443C382.673 21.9443 381.459 21.4406 380.451 20.4326C379.443 19.4246 378.939 18.2107 378.939 16.792V13.9521H382.468V16.792ZM156.646 1.28027C158.084 1.28027 159.306 1.78408 160.314 2.79199C161.322 3.79999 161.826 5.01395 161.826 6.43262V7.71973C161.826 8.61565 161.612 9.44664 161.183 10.2119C160.772 10.9586 160.203 11.5656 159.475 12.0322L162.975 21.6641H159.223L156.087 12.8721H155.583V21.6641H152.055V1.28027H156.646ZM182.416 4.80859H176.676V9.34375H181.743V12.8721H176.676V18.1357H182.416V21.6641H173.147V1.28027H182.416V4.80859ZM204.118 21.6641H200.506L199.75 17.6318H196.334L195.578 21.6641H191.966L196.278 1.28027H199.807L204.118 21.6641ZM223.812 4.80859H220.312V21.6641H216.784V4.80859H213.284V1.28027H223.812V4.80859ZM237.903 21.6641H234.376V9.66406H237.903V21.6641ZM253.958 14.1885L256.113 1.28027H259.726L255.722 21.6641H252.193L248.189 1.28027H251.802L253.958 14.1885ZM279.268 4.80859H273.527V9.34375H278.595V12.8721H273.527V18.1357H279.268V21.6641H269.999V1.28027H279.268V4.80859ZM300.724 18.1357H305.511V21.6641H297.195V1.28027H300.724V18.1357ZM325.314 4.80859H319.574V9.34375H324.642V12.8721H319.574V18.1357H325.314V21.6641H316.046V1.28027H325.314V4.80859ZM368.766 21.6641H365.154L364.397 17.6318H360.981L360.226 21.6641H356.614L360.926 1.28027H364.454L368.766 21.6641ZM404.075 9.00781L406.063 1.28027H409.871L405.84 12.9004V21.6641H402.312V12.9004L398.279 1.28027H402.088L404.075 9.00781ZM196.979 14.1045H199.106L198.042 8.36426L196.979 14.1045ZM361.626 14.1045H363.754L362.689 8.36426L361.626 14.1045ZM382.468 12.9521H378.939V11.9521H382.468V12.9521ZM382.468 10.9521H378.939V9.95215H382.468V10.9521ZM155.583 9.34375H156.646C157.113 9.34375 157.505 9.18539 157.822 8.86816C158.14 8.55083 158.299 8.16773 158.299 7.71973V6.43262C158.299 5.98462 158.14 5.60151 157.822 5.28418C157.505 4.96694 157.113 4.80859 156.646 4.80859H155.583V9.34375ZM384.092 1C385.529 1.00008 386.752 1.50384 387.76 2.51172C388.768 3.51972 389.271 4.73368 389.271 6.15234V7.07617H385.743V6.15234C385.743 5.70434 385.585 5.32124 385.268 5.00391C384.95 4.68669 384.558 4.5284 384.092 4.52832C383.644 4.52832 383.261 4.68662 382.943 5.00391C382.626 5.32124 382.468 5.70434 382.468 6.15234V8.95215H378.939V6.15234C378.939 4.73368 379.443 3.51972 380.451 2.51172C381.459 1.50377 382.673 1 384.092 1ZM237.903 8.66406H234.376V7.66406H237.903V8.66406ZM237.903 6.66406H234.376V5.66406H237.903V6.66406ZM237.903 4.66406H234.376V1.28027H237.903V4.66406Z"/>
</mask>
<path d="M135.619 1C137.056 1.00008 138.279 1.50384 139.287 2.51172C140.295 3.51972 140.799 4.73368 140.799 6.15234V7.07617H137.271V6.15234C137.271 5.70434 137.112 5.32124 136.795 5.00391C136.478 4.68669 136.086 4.5284 135.619 4.52832C135.171 4.52832 134.788 4.68662 134.471 5.00391C134.153 5.32124 133.995 5.70434 133.995 6.15234V16.792C133.995 17.24 134.153 17.6231 134.471 17.9404C134.788 18.2577 135.171 18.416 135.619 18.416C136.086 18.4159 136.478 18.2576 136.795 17.9404C137.112 17.6231 137.271 17.24 137.271 16.792V15.8682H140.799V16.792C140.799 18.2107 140.295 19.4246 139.287 20.4326C138.279 21.4405 137.056 21.9443 135.619 21.9443C134.201 21.9443 132.986 21.4406 131.979 20.4326C130.971 19.4246 130.467 18.2107 130.467 16.792V6.15234C130.467 4.73368 130.971 3.51972 131.979 2.51172C132.987 1.50377 134.201 1 135.619 1ZM341.276 1C342.714 1 343.936 1.50395 344.944 2.51172C345.952 3.51972 346.457 4.73368 346.457 6.15234V7.07617H342.929V6.15234C342.929 5.70434 342.769 5.32124 342.452 5.00391C342.135 4.6868 341.743 4.52832 341.276 4.52832C340.829 4.52837 340.446 4.68681 340.129 5.00391C339.812 5.32124 339.652 5.70434 339.652 6.15234V16.792C339.652 17.24 339.812 17.6231 340.129 17.9404C340.446 18.2575 340.829 18.416 341.276 18.416C341.743 18.416 342.135 18.2575 342.452 17.9404C342.769 17.6231 342.929 17.24 342.929 16.792V12.8721H340.885V9.34375H346.457V16.792C346.457 18.2107 345.952 19.4246 344.944 20.4326C343.936 21.4404 342.714 21.9443 341.276 21.9443C339.858 21.9443 338.645 21.4404 337.637 20.4326C336.629 19.4246 336.125 18.2107 336.125 16.792V6.15234C336.125 4.73368 336.629 3.51972 337.637 2.51172C338.645 1.50396 339.858 1.00005 341.276 1ZM382.468 16.792C382.468 17.24 382.626 17.6231 382.943 17.9404C383.261 18.2577 383.644 18.416 384.092 18.416C384.558 18.4159 384.95 18.2576 385.268 17.9404C385.585 17.6231 385.743 17.24 385.743 16.792V15.8682H389.271V16.792C389.271 18.2107 388.768 19.4246 387.76 20.4326C386.752 21.4405 385.529 21.9443 384.092 21.9443C382.673 21.9443 381.459 21.4406 380.451 20.4326C379.443 19.4246 378.939 18.2107 378.939 16.792V13.9521H382.468V16.792ZM156.646 1.28027C158.084 1.28027 159.306 1.78408 160.314 2.79199C161.322 3.79999 161.826 5.01395 161.826 6.43262V7.71973C161.826 8.61565 161.612 9.44664 161.183 10.2119C160.772 10.9586 160.203 11.5656 159.475 12.0322L162.975 21.6641H159.223L156.087 12.8721H155.583V21.6641H152.055V1.28027H156.646ZM182.416 4.80859H176.676V9.34375H181.743V12.8721H176.676V18.1357H182.416V21.6641H173.147V1.28027H182.416V4.80859ZM204.118 21.6641H200.506L199.75 17.6318H196.334L195.578 21.6641H191.966L196.278 1.28027H199.807L204.118 21.6641ZM223.812 4.80859H220.312V21.6641H216.784V4.80859H213.284V1.28027H223.812V4.80859ZM237.903 21.6641H234.376V9.66406H237.903V21.6641ZM253.958 14.1885L256.113 1.28027H259.726L255.722 21.6641H252.193L248.189 1.28027H251.802L253.958 14.1885ZM279.268 4.80859H273.527V9.34375H278.595V12.8721H273.527V18.1357H279.268V21.6641H269.999V1.28027H279.268V4.80859ZM300.724 18.1357H305.511V21.6641H297.195V1.28027H300.724V18.1357ZM325.314 4.80859H319.574V9.34375H324.642V12.8721H319.574V18.1357H325.314V21.6641H316.046V1.28027H325.314V4.80859ZM368.766 21.6641H365.154L364.397 17.6318H360.981L360.226 21.6641H356.614L360.926 1.28027H364.454L368.766 21.6641ZM404.075 9.00781L406.063 1.28027H409.871L405.84 12.9004V21.6641H402.312V12.9004L398.279 1.28027H402.088L404.075 9.00781ZM196.979 14.1045H199.106L198.042 8.36426L196.979 14.1045ZM361.626 14.1045H363.754L362.689 8.36426L361.626 14.1045ZM382.468 12.9521H378.939V11.9521H382.468V12.9521ZM382.468 10.9521H378.939V9.95215H382.468V10.9521ZM155.583 9.34375H156.646C157.113 9.34375 157.505 9.18539 157.822 8.86816C158.14 8.55083 158.299 8.16773 158.299 7.71973V6.43262C158.299 5.98462 158.14 5.60151 157.822 5.28418C157.505 4.96694 157.113 4.80859 156.646 4.80859H155.583V9.34375ZM384.092 1C385.529 1.00008 386.752 1.50384 387.76 2.51172C388.768 3.51972 389.271 4.73368 389.271 6.15234V7.07617H385.743V6.15234C385.743 5.70434 385.585 5.32124 385.268 5.00391C384.95 4.68669 384.558 4.5284 384.092 4.52832C383.644 4.52832 383.261 4.68662 382.943 5.00391C382.626 5.32124 382.468 5.70434 382.468 6.15234V8.95215H378.939V6.15234C378.939 4.73368 379.443 3.51972 380.451 2.51172C381.459 1.50377 382.673 1 384.092 1ZM237.903 8.66406H234.376V7.66406H237.903V8.66406ZM237.903 6.66406H234.376V5.66406H237.903V6.66406ZM237.903 4.66406H234.376V1.28027H237.903V4.66406Z" fill="url(#paint0_radial_7_265)"/>
<path d="M135.619 1L135.619 0.4H135.619V1ZM139.287 2.51172L139.711 2.08745L139.711 2.08745L139.287 2.51172ZM140.799 7.07617V7.67617H141.399V7.07617H140.799ZM137.271 7.07617H136.671V7.67617H137.271V7.07617ZM136.795 5.00391L137.219 4.57964L137.219 4.57962L136.795 5.00391ZM135.619 4.52832L135.619 3.92832H135.619V4.52832ZM134.471 5.00391L134.046 4.57962L134.046 4.57964L134.471 5.00391ZM134.471 17.9404L134.046 18.3647L134.046 18.3647L134.471 17.9404ZM135.619 18.416V19.016H135.619L135.619 18.416ZM136.795 17.9404L137.219 18.3647L137.219 18.3647L136.795 17.9404ZM137.271 15.8682V15.2682H136.671V15.8682H137.271ZM140.799 15.8682H141.399V15.2682H140.799V15.8682ZM139.287 20.4326L139.711 20.8569L139.711 20.8569L139.287 20.4326ZM135.619 21.9443V22.5443H135.619L135.619 21.9443ZM131.979 20.4326L131.554 20.8569L131.554 20.8569L131.979 20.4326ZM131.979 2.51172L131.554 2.08745L131.554 2.08745L131.979 2.51172ZM341.276 1V0.4H341.276L341.276 1ZM344.944 2.51172L345.369 2.08745L345.369 2.08742L344.944 2.51172ZM346.457 7.07617V7.67617H347.057V7.07617H346.457ZM342.929 7.07617H342.329V7.67617H342.929V7.07617ZM342.452 5.00391L342.876 4.57964L342.876 4.57953L342.452 5.00391ZM341.276 4.52832V3.92832L341.276 3.92832L341.276 4.52832ZM340.129 5.00391L339.705 4.57956L339.705 4.57964L340.129 5.00391ZM340.129 17.9404L339.705 18.3647L339.705 18.3648L340.129 17.9404ZM341.276 18.416L341.276 19.016H341.276V18.416ZM342.452 17.9404L342.876 18.3648L342.876 18.3647L342.452 17.9404ZM342.929 12.8721H343.529V12.2721H342.929V12.8721ZM340.885 12.8721H340.285V13.4721H340.885V12.8721ZM340.885 9.34375V8.74375H340.285V9.34375H340.885ZM346.457 9.34375H347.057V8.74375H346.457V9.34375ZM344.944 20.4326L345.369 20.8569L345.369 20.8569L344.944 20.4326ZM341.276 21.9443L341.276 22.5443H341.276V21.9443ZM337.637 20.4326L337.212 20.8569L337.212 20.8569L337.637 20.4326ZM337.637 2.51172L337.212 2.08743L337.212 2.08745L337.637 2.51172ZM382.943 17.9404L382.519 18.3647L382.519 18.3647L382.943 17.9404ZM384.092 18.416V19.016H384.092L384.092 18.416ZM385.268 17.9404L385.692 18.3647L385.692 18.3647L385.268 17.9404ZM385.743 15.8682V15.2682H385.143V15.8682H385.743ZM389.271 15.8682H389.871V15.2682H389.271V15.8682ZM387.76 20.4326L388.184 20.8569V20.8569L387.76 20.4326ZM384.092 21.9443V22.5443H384.092L384.092 21.9443ZM380.451 20.4326L380.027 20.8569L380.027 20.8569L380.451 20.4326ZM378.939 13.9521V13.3521H378.339V13.9521H378.939ZM382.468 13.9521H383.068V13.3521H382.468V13.9521ZM160.314 2.79199L160.739 2.36773L160.739 2.36771L160.314 2.79199ZM161.183 10.2119L160.659 9.91838L160.657 9.92276L161.183 10.2119ZM159.475 12.0322L159.151 11.5271L158.747 11.7861L158.911 12.2371L159.475 12.0322ZM162.975 21.6641V22.2641H163.831L163.539 21.4591L162.975 21.6641ZM159.223 21.6641L158.658 21.8656L158.8 22.2641H159.223V21.6641ZM156.087 12.8721L156.652 12.6705L156.51 12.2721H156.087V12.8721ZM155.583 12.8721V12.2721H154.983V12.8721H155.583ZM155.583 21.6641V22.2641H156.183V21.6641H155.583ZM152.055 21.6641H151.455V22.2641H152.055V21.6641ZM152.055 1.28027V0.680273H151.455V1.28027H152.055ZM182.416 4.80859V5.40859H183.016V4.80859H182.416ZM176.676 4.80859V4.20859H176.076V4.80859H176.676ZM176.676 9.34375H176.076V9.94375H176.676V9.34375ZM181.743 9.34375H182.343V8.74375H181.743V9.34375ZM181.743 12.8721V13.4721H182.343V12.8721H181.743ZM176.676 12.8721V12.2721H176.076V12.8721H176.676ZM176.676 18.1357H176.076V18.7357H176.676V18.1357ZM182.416 18.1357H183.016V17.5357H182.416V18.1357ZM182.416 21.6641V22.2641H183.016V21.6641H182.416ZM173.147 21.6641H172.547V22.2641H173.147V21.6641ZM173.147 1.28027V0.680273H172.547V1.28027H173.147ZM182.416 1.28027H183.016V0.680273H182.416V1.28027ZM204.118 21.6641V22.2641H204.858L204.705 21.5399L204.118 21.6641ZM200.506 21.6641L199.916 21.7746L200.008 22.2641H200.506V21.6641ZM199.75 17.6318L200.34 17.5213L200.248 17.0318H199.75V17.6318ZM196.334 17.6318V17.0318H195.836L195.744 17.5213L196.334 17.6318ZM195.578 21.6641V22.2641H196.076L196.168 21.7746L195.578 21.6641ZM191.966 21.6641L191.379 21.5399L191.226 22.2641H191.966V21.6641ZM196.278 1.28027V0.680273H195.792L195.691 1.15608L196.278 1.28027ZM199.807 1.28027L200.394 1.15611L200.293 0.680273H199.807V1.28027ZM223.812 4.80859V5.40859H224.412V4.80859H223.812ZM220.312 4.80859V4.20859H219.712V4.80859H220.312ZM220.312 21.6641V22.2641H220.912V21.6641H220.312ZM216.784 21.6641H216.184V22.2641H216.784V21.6641ZM216.784 4.80859H217.384V4.20859H216.784V4.80859ZM213.284 4.80859H212.684V5.40859H213.284V4.80859ZM213.284 1.28027V0.680273H212.684V1.28027H213.284ZM223.812 1.28027H224.412V0.680273H223.812V1.28027ZM237.903 21.6641V22.2641H238.503V21.6641H237.903ZM234.376 21.6641H233.776V22.2641H234.376V21.6641ZM234.376 9.66406V9.06406H233.776V9.66406H234.376ZM237.903 9.66406H238.503V9.06406H237.903V9.66406ZM253.958 14.1885L253.366 14.2873L254.55 14.2873L253.958 14.1885ZM256.113 1.28027V0.680273H255.605L255.521 1.18146L256.113 1.28027ZM259.726 1.28027L260.314 1.39592L260.455 0.680273H259.726V1.28027ZM255.722 21.6641V22.2641H256.215L256.31 21.7797L255.722 21.6641ZM252.193 21.6641L251.605 21.7797L251.7 22.2641H252.193V21.6641ZM248.189 1.28027V0.680273H247.46L247.601 1.39592L248.189 1.28027ZM251.802 1.28027L252.394 1.18142L252.31 0.680273H251.802V1.28027ZM279.268 4.80859V5.40859H279.868V4.80859H279.268ZM273.527 4.80859V4.20859H272.927V4.80859H273.527ZM273.527 9.34375H272.927V9.94375H273.527V9.34375ZM278.595 9.34375H279.195V8.74375H278.595V9.34375ZM278.595 12.8721V13.4721H279.195V12.8721H278.595ZM273.527 12.8721V12.2721H272.927V12.8721H273.527ZM273.527 18.1357H272.927V18.7357H273.527V18.1357ZM279.268 18.1357H279.868V17.5357H279.268V18.1357ZM279.268 21.6641V22.2641H279.868V21.6641H279.268ZM269.999 21.6641H269.399V22.2641H269.999V21.6641ZM269.999 1.28027V0.680273H269.399V1.28027H269.999ZM279.268 1.28027H279.868V0.680273H279.268V1.28027ZM300.724 18.1357H300.124V18.7357H300.724V18.1357ZM305.511 18.1357H306.111V17.5357H305.511V18.1357ZM305.511 21.6641V22.2641H306.111V21.6641H305.511ZM297.195 21.6641H296.595V22.2641H297.195V21.6641ZM297.195 1.28027V0.680273H296.595V1.28027H297.195ZM300.724 1.28027H301.324V0.680273H300.724V1.28027ZM325.314 4.80859V5.40859H325.914V4.80859H325.314ZM319.574 4.80859V4.20859H318.974V4.80859H319.574ZM319.574 9.34375H318.974V9.94375H319.574V9.34375ZM324.642 9.34375H325.242V8.74375H324.642V9.34375ZM324.642 12.8721V13.4721H325.242V12.8721H324.642ZM319.574 12.8721V12.2721H318.974V12.8721H319.574ZM319.574 18.1357H318.974V18.7357H319.574V18.1357ZM325.314 18.1357H325.914V17.5357H325.314V18.1357ZM325.314 21.6641V22.2641H325.914V21.6641H325.314ZM316.046 21.6641H315.446V22.2641H316.046V21.6641ZM316.046 1.28027V0.680273H315.446V1.28027H316.046ZM325.314 1.28027H325.914V0.680273H325.314V1.28027ZM368.766 21.6641V22.2641H369.506L369.353 21.5399L368.766 21.6641ZM365.154 21.6641L364.565 21.7747L364.656 22.2641H365.154V21.6641ZM364.397 17.6318L364.987 17.5212L364.895 17.0318H364.397V17.6318ZM360.981 17.6318V17.0318H360.483L360.392 17.5213L360.981 17.6318ZM360.226 21.6641V22.2641H360.724L360.815 21.7746L360.226 21.6641ZM356.614 21.6641L356.027 21.5399L355.874 22.2641H356.614V21.6641ZM360.926 1.28027V0.680273H360.439L360.339 1.15611L360.926 1.28027ZM364.454 1.28027L365.041 1.15611L364.94 0.680273H364.454V1.28027ZM404.075 9.00781L403.494 9.15725L404.656 9.15732L404.075 9.00781ZM406.063 1.28027V0.680273H405.598L405.482 1.13076L406.063 1.28027ZM409.871 1.28027L410.438 1.47693L410.714 0.680273H409.871V1.28027ZM405.84 12.9004L405.273 12.7037L405.24 12.7993V12.9004H405.84ZM405.84 21.6641V22.2641H406.44V21.6641H405.84ZM402.312 21.6641H401.712V22.2641H402.312V21.6641ZM402.312 12.9004H402.912V12.7992L402.878 12.7037L402.312 12.9004ZM398.279 1.28027V0.680273H397.436L397.712 1.47697L398.279 1.28027ZM402.088 1.28027L402.669 1.13083L402.553 0.680273H402.088V1.28027ZM196.979 14.1045L196.389 13.9952L196.257 14.7045H196.979V14.1045ZM199.106 14.1045V14.7045H199.828L199.696 13.9951L199.106 14.1045ZM198.042 8.36426L198.632 8.25486L197.452 8.25496L198.042 8.36426ZM361.626 14.1045L361.036 13.9952L360.905 14.7045H361.626V14.1045ZM363.754 14.1045V14.7045H364.475L364.344 13.9951L363.754 14.1045ZM362.689 8.36426L363.279 8.25486L362.099 8.25496L362.689 8.36426ZM382.468 12.9521V13.5521H383.068V12.9521H382.468ZM378.939 12.9521H378.339V13.5521H378.939V12.9521ZM378.939 11.9521V11.3521H378.339V11.9521H378.939ZM382.468 11.9521H383.068V11.3521H382.468V11.9521ZM382.468 10.9521V11.5521H383.068V10.9521H382.468ZM378.939 10.9521H378.339V11.5521H378.939V10.9521ZM378.939 9.95215V9.35215H378.339V9.95215H378.939ZM382.468 9.95215H383.068V9.35215H382.468V9.95215ZM155.583 9.34375H154.983V9.94375H155.583V9.34375ZM157.822 8.86816L158.246 9.29248L158.247 9.29243L157.822 8.86816ZM157.822 5.28418L158.247 4.85992L158.246 4.85987L157.822 5.28418ZM155.583 4.80859V4.20859H154.983V4.80859H155.583ZM384.092 1L384.092 0.4H384.092V1ZM387.76 2.51172L388.184 2.08745V2.08745L387.76 2.51172ZM389.271 7.07617V7.67617H389.871V7.07617H389.271ZM385.743 7.07617H385.143V7.67617H385.743V7.07617ZM385.268 5.00391L385.692 4.57964L385.692 4.57962L385.268 5.00391ZM384.092 4.52832L384.092 3.92832H384.092V4.52832ZM382.943 5.00391L382.519 4.57962L382.519 4.57964L382.943 5.00391ZM382.468 8.95215V9.55215H383.068V8.95215H382.468ZM378.939 8.95215H378.339V9.55215H378.939V8.95215ZM380.451 2.51172L380.027 2.08745L380.027 2.08745L380.451 2.51172ZM237.903 8.66406V9.26406H238.503V8.66406H237.903ZM234.376 8.66406H233.776V9.26406H234.376V8.66406ZM234.376 7.66406V7.06406H233.776V7.66406H234.376ZM237.903 7.66406H238.503V7.06406H237.903V7.66406ZM237.903 6.66406V7.26406H238.503V6.66406H237.903ZM234.376 6.66406H233.776V7.26406H234.376V6.66406ZM234.376 5.66406V5.06406H233.776V5.66406H234.376ZM237.903 5.66406H238.503V5.06406H237.903V5.66406ZM237.903 4.66406V5.26406H238.503V4.66406H237.903ZM234.376 4.66406H233.776V5.26406H234.376V4.66406ZM234.376 1.28027V0.680273H233.776V1.28027H234.376ZM237.903 1.28027H238.503V0.680273H237.903V1.28027ZM135.619 1L135.619 1.6C136.899 1.60007 137.969 2.04174 138.863 2.93599L139.287 2.51172L139.711 2.08745C138.59 0.965935 137.214 0.400091 135.619 0.4L135.619 1ZM139.287 2.51172L138.863 2.93598C139.759 3.83196 140.199 4.89351 140.199 6.15234H140.799H141.399C141.399 4.57385 140.831 3.20748 139.711 2.08745L139.287 2.51172ZM140.799 6.15234H140.199V7.07617H140.799H141.399V6.15234H140.799ZM140.799 7.07617V6.47617H137.271V7.07617V7.67617H140.799V7.07617ZM137.271 7.07617H137.871V6.15234H137.271H136.671V7.07617H137.271ZM137.271 6.15234H137.871C137.871 5.54548 137.649 5.00968 137.219 4.57964L136.795 5.00391L136.371 5.42817C136.575 5.6328 136.671 5.86321 136.671 6.15234H137.271ZM136.795 5.00391L137.219 4.57962C136.784 4.14474 136.237 3.92843 135.619 3.92832L135.619 4.52832L135.619 5.12832C135.934 5.12837 136.171 5.22864 136.371 5.42819L136.795 5.00391ZM135.619 4.52832V3.92832C135.012 3.92832 134.476 4.14967 134.046 4.57962L134.471 5.00391L134.895 5.42819C135.1 5.22358 135.33 5.12832 135.619 5.12832V4.52832ZM134.471 5.00391L134.046 4.57964C133.616 5.00968 133.395 5.54548 133.395 6.15234H133.995H134.595C134.595 5.86321 134.69 5.6328 134.895 5.42817L134.471 5.00391ZM133.995 6.15234H133.395V16.792H133.995H134.595V6.15234H133.995ZM133.995 16.792H133.395C133.395 17.3989 133.616 17.9347 134.046 18.3647L134.471 17.9404L134.895 17.5162C134.69 17.3115 134.595 17.0811 134.595 16.792H133.995ZM134.471 17.9404L134.046 18.3647C134.476 18.7946 135.012 19.016 135.619 19.016V18.416V17.816C135.33 17.816 135.1 17.7207 134.895 17.5161L134.471 17.9404ZM135.619 18.416L135.619 19.016C136.237 19.0159 136.784 18.7996 137.219 18.3647L136.795 17.9404L136.371 17.5161C136.171 17.7157 135.934 17.816 135.619 17.816L135.619 18.416ZM136.795 17.9404L137.219 18.3647C137.649 17.9347 137.871 17.3989 137.871 16.792H137.271H136.671C136.671 17.0811 136.575 17.3115 136.371 17.5162L136.795 17.9404ZM137.271 16.792H137.871V15.8682H137.271H136.671V16.792H137.271ZM137.271 15.8682V16.4682H140.799V15.8682V15.2682H137.271V15.8682ZM140.799 15.8682H140.199V16.792H140.799H141.399V15.8682H140.799ZM140.799 16.792H140.199C140.199 18.0508 139.759 19.1124 138.863 20.0084L139.287 20.4326L139.711 20.8569C140.831 19.7369 141.399 18.3705 141.399 16.792H140.799ZM139.287 20.4326L138.863 20.0083C137.969 20.9026 136.899 21.3443 135.619 21.3443L135.619 21.9443L135.619 22.5443C137.214 22.5442 138.59 21.9784 139.711 20.8569L139.287 20.4326ZM135.619 21.9443V21.3443C134.36 21.3443 133.299 20.9043 132.403 20.0083L131.979 20.4326L131.554 20.8569C132.674 21.9768 134.041 22.5443 135.619 22.5443V21.9443ZM131.979 20.4326L132.403 20.0084C131.507 19.1124 131.067 18.0508 131.067 16.792H130.467H129.867C129.867 18.3705 130.434 19.7369 131.554 20.8569L131.979 20.4326ZM130.467 16.792H131.067V6.15234H130.467H129.867V16.792H130.467ZM130.467 6.15234H131.067C131.067 4.89351 131.507 3.83196 132.403 2.93598L131.979 2.51172L131.554 2.08745C130.434 3.20748 129.867 4.57385 129.867 6.15234H130.467ZM131.979 2.51172L132.403 2.93599C133.299 2.04006 134.36 1.6 135.619 1.6V1V0.4C134.041 0.4 132.674 0.967487 131.554 2.08745L131.979 2.51172ZM341.276 1V1.6C342.556 1.6 343.626 2.04181 344.52 2.93602L344.944 2.51172L345.369 2.08742C344.247 0.966087 342.871 0.4 341.276 0.4V1ZM344.944 2.51172L344.52 2.93598C345.416 3.83217 345.857 4.8938 345.857 6.15234H346.457H347.057C347.057 4.57355 346.488 3.20727 345.369 2.08745L344.944 2.51172ZM346.457 6.15234H345.857V7.07617H346.457H347.057V6.15234H346.457ZM346.457 7.07617V6.47617H342.929V7.07617V7.67617H346.457V7.07617ZM342.929 7.07617H343.529V6.15234H342.929H342.329V7.07617H342.929ZM342.929 6.15234H343.529C343.529 5.54454 343.306 5.00902 342.876 4.57964L342.452 5.00391L342.028 5.42817C342.233 5.63346 342.329 5.86415 342.329 6.15234H342.929ZM342.452 5.00391L342.876 4.57953C342.442 4.14498 341.895 3.92832 341.276 3.92832V4.52832V5.12832C341.591 5.12832 341.828 5.22863 342.028 5.42828L342.452 5.00391ZM341.276 4.52832L341.276 3.92832C340.669 3.92839 340.134 4.15014 339.705 4.57956L340.129 5.00391L340.553 5.42826C340.758 5.22348 340.988 5.12836 341.276 5.12832L341.276 4.52832ZM340.129 5.00391L339.705 4.57964C339.275 5.00902 339.052 5.54454 339.052 6.15234H339.652H340.252C340.252 5.86415 340.348 5.63346 340.553 5.42817L340.129 5.00391ZM339.652 6.15234H339.052V16.792H339.652H340.252V6.15234H339.652ZM339.652 16.792H339.052C339.052 17.3998 339.275 17.9353 339.705 18.3647L340.129 17.9404L340.553 17.5162C340.348 17.3109 340.252 17.0802 340.252 16.792H339.652ZM340.129 17.9404L339.705 18.3648C340.134 18.7942 340.669 19.0159 341.276 19.016L341.276 18.416L341.276 17.816C340.988 17.816 340.758 17.7208 340.553 17.5161L340.129 17.9404ZM341.276 18.416V19.016C341.895 19.016 342.442 18.7993 342.876 18.3648L342.452 17.9404L342.028 17.516C341.828 17.7157 341.591 17.816 341.276 17.816V18.416ZM342.452 17.9404L342.876 18.3647C343.306 17.9353 343.529 17.3998 343.529 16.792H342.929H342.329C342.329 17.0802 342.233 17.3109 342.028 17.5162L342.452 17.9404ZM342.929 16.792H343.529V12.8721H342.929H342.329V16.792H342.929ZM342.929 12.8721V12.2721H340.885V12.8721V13.4721H342.929V12.8721ZM340.885 12.8721H341.485V9.34375H340.885H340.285V12.8721H340.885ZM340.885 9.34375V9.94375H346.457V9.34375V8.74375H340.885V9.34375ZM346.457 9.34375H345.857V16.792H346.457H347.057V9.34375H346.457ZM346.457 16.792H345.857C345.857 18.0505 345.416 19.1122 344.52 20.0084L344.944 20.4326L345.369 20.8569C346.488 19.7371 347.057 18.3708 347.057 16.792H346.457ZM344.944 20.4326L344.52 20.0083C343.626 20.9025 342.556 21.3443 341.276 21.3443V21.9443V22.5443C342.871 22.5443 344.247 21.9782 345.369 20.8569L344.944 20.4326ZM341.276 21.9443L341.276 21.3443C340.018 21.3443 338.957 20.9042 338.061 20.0083L337.637 20.4326L337.212 20.8569C338.332 21.9766 339.698 22.5443 341.276 22.5443L341.276 21.9443ZM337.637 20.4326L338.061 20.0084C337.165 19.1124 336.725 18.0508 336.725 16.792H336.125H335.525C335.525 18.3705 336.092 19.7369 337.212 20.8569L337.637 20.4326ZM336.125 16.792H336.725V6.15234H336.125H335.525V16.792H336.125ZM336.125 6.15234H336.725C336.725 4.89351 337.165 3.83196 338.061 2.93598L337.637 2.51172L337.212 2.08745C336.092 3.20748 335.525 4.57385 335.525 6.15234H336.125ZM337.637 2.51172L338.061 2.93601C338.957 2.04015 340.018 1.60005 341.276 1.6L341.276 1L341.276 0.4C339.698 0.40006 338.332 0.967762 337.212 2.08743L337.637 2.51172ZM382.468 16.792H381.868C381.868 17.3989 382.089 17.9347 382.519 18.3647L382.943 17.9404L383.368 17.5162C383.163 17.3115 383.068 17.0811 383.068 16.792H382.468ZM382.943 17.9404L382.519 18.3647C382.949 18.7946 383.485 19.016 384.092 19.016V18.416V17.816C383.803 17.816 383.572 17.7207 383.368 17.5161L382.943 17.9404ZM384.092 18.416L384.092 19.016C384.71 19.0159 385.257 18.7996 385.692 18.3647L385.268 17.9404L384.843 17.5161C384.644 17.7157 384.407 17.816 384.092 17.816L384.092 18.416ZM385.268 17.9404L385.692 18.3647C386.122 17.9347 386.343 17.3989 386.343 16.792H385.743H385.143C385.143 17.0811 385.048 17.3115 384.843 17.5162L385.268 17.9404ZM385.743 16.792H386.343V15.8682H385.743H385.143V16.792H385.743ZM385.743 15.8682V16.4682H389.271V15.8682V15.2682H385.743V15.8682ZM389.271 15.8682H388.671V16.792H389.271H389.871V15.8682H389.271ZM389.271 16.792H388.671C388.671 18.0508 388.231 19.1124 387.336 20.0084L387.76 20.4326L388.184 20.8569C389.304 19.7369 389.871 18.3705 389.871 16.792H389.271ZM387.76 20.4326L387.336 20.0083C386.441 20.9026 385.371 21.3443 384.092 21.3443L384.092 21.9443L384.092 22.5443C385.686 22.5442 387.062 21.9784 388.184 20.8569L387.76 20.4326ZM384.092 21.9443V21.3443C382.833 21.3443 381.771 20.9043 380.875 20.0083L380.451 20.4326L380.027 20.8569C381.147 21.9768 382.513 22.5443 384.092 22.5443V21.9443ZM380.451 20.4326L380.875 20.0084C379.979 19.1124 379.539 18.0508 379.539 16.792H378.939H378.339C378.339 18.3705 378.907 19.7369 380.027 20.8569L380.451 20.4326ZM378.939 16.792H379.539V13.9521H378.939H378.339V16.792H378.939ZM378.939 13.9521V14.5521H382.468V13.9521V13.3521H378.939V13.9521ZM382.468 13.9521H381.868V16.792H382.468H383.068V13.9521H382.468ZM156.646 1.28027V1.88027C157.926 1.88027 158.996 2.32196 159.89 3.21627L160.314 2.79199L160.739 2.36771C159.617 1.24621 158.241 0.680273 156.646 0.680273V1.28027ZM160.314 2.79199L159.89 3.21626C160.786 4.11223 161.226 5.17378 161.226 6.43262H161.826H162.426C162.426 4.85412 161.859 3.48775 160.739 2.36773L160.314 2.79199ZM161.826 6.43262H161.226V7.71973H161.826H162.426V6.43262H161.826ZM161.826 7.71973H161.226C161.226 8.51532 161.037 9.24489 160.659 9.91839L161.183 10.2119L161.706 10.5054C162.187 9.64838 162.426 8.71598 162.426 7.71973H161.826ZM161.183 10.2119L160.657 9.92276C160.295 10.5805 159.796 11.1137 159.151 11.5271L159.475 12.0322L159.798 12.5374C160.609 12.0174 161.249 11.3367 161.708 10.5011L161.183 10.2119ZM159.475 12.0322L158.911 12.2371L162.411 21.869L162.975 21.6641L163.539 21.4591L160.039 11.8273L159.475 12.0322ZM162.975 21.6641V21.0641H159.223V21.6641V22.2641H162.975V21.6641ZM159.223 21.6641L159.788 21.4625L156.652 12.6705L156.087 12.8721L155.522 13.0736L158.658 21.8656L159.223 21.6641ZM156.087 12.8721V12.2721H155.583V12.8721V13.4721H156.087V12.8721ZM155.583 12.8721H154.983V21.6641H155.583H156.183V12.8721H155.583ZM155.583 21.6641V21.0641H152.055V21.6641V22.2641H155.583V21.6641ZM152.055 21.6641H152.655V1.28027H152.055H151.455V21.6641H152.055ZM152.055 1.28027V1.88027H156.646V1.28027V0.680273H152.055V1.28027ZM182.416 4.80859V4.20859H176.676V4.80859V5.40859H182.416V4.80859ZM176.676 4.80859H176.076V9.34375H176.676H177.276V4.80859H176.676ZM176.676 9.34375V9.94375H181.743V9.34375V8.74375H176.676V9.34375ZM181.743 9.34375H181.143V12.8721H181.743H182.343V9.34375H181.743ZM181.743 12.8721V12.2721H176.676V12.8721V13.4721H181.743V12.8721ZM176.676 12.8721H176.076V18.1357H176.676H177.276V12.8721H176.676ZM176.676 18.1357V18.7357H182.416V18.1357V17.5357H176.676V18.1357ZM182.416 18.1357H181.816V21.6641H182.416H183.016V18.1357H182.416ZM182.416 21.6641V21.0641H173.147V21.6641V22.2641H182.416V21.6641ZM173.147 21.6641H173.747V1.28027H173.147H172.547V21.6641H173.147ZM173.147 1.28027V1.88027H182.416V1.28027V0.680273H173.147V1.28027ZM182.416 1.28027H181.816V4.80859H182.416H183.016V1.28027H182.416ZM204.118 21.6641V21.0641H200.506V21.6641V22.2641H204.118V21.6641ZM200.506 21.6641L201.096 21.5535L200.34 17.5213L199.75 17.6318L199.16 17.7424L199.916 21.7746L200.506 21.6641ZM199.75 17.6318V17.0318H196.334V17.6318V18.2318H199.75V17.6318ZM196.334 17.6318L195.744 17.5213L194.988 21.5535L195.578 21.6641L196.168 21.7746L196.924 17.7424L196.334 17.6318ZM195.578 21.6641V21.0641H191.966V21.6641V22.2641H195.578V21.6641ZM191.966 21.6641L192.553 21.7883L196.865 1.40446L196.278 1.28027L195.691 1.15608L191.379 21.5399L191.966 21.6641ZM196.278 1.28027V1.88027H199.807V1.28027V0.680273H196.278V1.28027ZM199.807 1.28027L199.22 1.40444L203.531 21.7882L204.118 21.6641L204.705 21.5399L200.394 1.15611L199.807 1.28027ZM223.812 4.80859V4.20859H220.312V4.80859V5.40859H223.812V4.80859ZM220.312 4.80859H219.712V21.6641H220.312H220.912V4.80859H220.312ZM220.312 21.6641V21.0641H216.784V21.6641V22.2641H220.312V21.6641ZM216.784 21.6641H217.384V4.80859H216.784H216.184V21.6641H216.784ZM216.784 4.80859V4.20859H213.284V4.80859V5.40859H216.784V4.80859ZM213.284 4.80859H213.884V1.28027H213.284H212.684V4.80859H213.284ZM213.284 1.28027V1.88027H223.812V1.28027V0.680273H213.284V1.28027ZM223.812 1.28027H223.212V4.80859H223.812H224.412V1.28027H223.812ZM237.903 21.6641V21.0641H234.376V21.6641V22.2641H237.903V21.6641ZM234.376 21.6641H234.976V9.66406H234.376H233.776V21.6641H234.376ZM234.376 9.66406V10.2641H237.903V9.66406V9.06406H234.376V9.66406ZM237.903 9.66406H237.303V21.6641H237.903H238.503V9.66406H237.903ZM253.958 14.1885L254.55 14.2873L256.705 1.37909L256.113 1.28027L255.521 1.18146L253.366 14.0897L253.958 14.1885ZM256.113 1.28027V1.88027H259.726V1.28027V0.680273H256.113V1.28027ZM259.726 1.28027L259.137 1.16463L255.133 21.5484L255.722 21.6641L256.31 21.7797L260.314 1.39592L259.726 1.28027ZM255.722 21.6641V21.0641H252.193V21.6641V22.2641H255.722V21.6641ZM252.193 21.6641L252.782 21.5484L248.778 1.16463L248.189 1.28027L247.601 1.39592L251.605 21.7797L252.193 21.6641ZM248.189 1.28027V1.88027H251.802V1.28027V0.680273H248.189V1.28027ZM251.802 1.28027L251.21 1.37913L253.366 14.2873L253.958 14.1885L254.55 14.0896L252.394 1.18142L251.802 1.28027ZM279.268 4.80859V4.20859H273.527V4.80859V5.40859H279.268V4.80859ZM273.527 4.80859H272.927V9.34375H273.527H274.127V4.80859H273.527ZM273.527 9.34375V9.94375H278.595V9.34375V8.74375H273.527V9.34375ZM278.595 9.34375H277.995V12.8721H278.595H279.195V9.34375H278.595ZM278.595 12.8721V12.2721H273.527V12.8721V13.4721H278.595V12.8721ZM273.527 12.8721H272.927V18.1357H273.527H274.127V12.8721H273.527ZM273.527 18.1357V18.7357H279.268V18.1357V17.5357H273.527V18.1357ZM279.268 18.1357H278.668V21.6641H279.268H279.868V18.1357H279.268ZM279.268 21.6641V21.0641H269.999V21.6641V22.2641H279.268V21.6641ZM269.999 21.6641H270.599V1.28027H269.999H269.399V21.6641H269.999ZM269.999 1.28027V1.88027H279.268V1.28027V0.680273H269.999V1.28027ZM279.268 1.28027H278.668V4.80859H279.268H279.868V1.28027H279.268ZM300.724 18.1357V18.7357H305.511V18.1357V17.5357H300.724V18.1357ZM305.511 18.1357H304.911V21.6641H305.511H306.111V18.1357H305.511ZM305.511 21.6641V21.0641H297.195V21.6641V22.2641H305.511V21.6641ZM297.195 21.6641H297.795V1.28027H297.195H296.595V21.6641H297.195ZM297.195 1.28027V1.88027H300.724V1.28027V0.680273H297.195V1.28027ZM300.724 1.28027H300.124V18.1357H300.724H301.324V1.28027H300.724ZM325.314 4.80859V4.20859H319.574V4.80859V5.40859H325.314V4.80859ZM319.574 4.80859H318.974V9.34375H319.574H320.174V4.80859H319.574ZM319.574 9.34375V9.94375H324.642V9.34375V8.74375H319.574V9.34375ZM324.642 9.34375H324.042V12.8721H324.642H325.242V9.34375H324.642ZM324.642 12.8721V12.2721H319.574V12.8721V13.4721H324.642V12.8721ZM319.574 12.8721H318.974V18.1357H319.574H320.174V12.8721H319.574ZM319.574 18.1357V18.7357H325.314V18.1357V17.5357H319.574V18.1357ZM325.314 18.1357H324.714V21.6641H325.314H325.914V18.1357H325.314ZM325.314 21.6641V21.0641H316.046V21.6641V22.2641H325.314V21.6641ZM316.046 21.6641H316.646V1.28027H316.046H315.446V21.6641H316.046ZM316.046 1.28027V1.88027H325.314V1.28027V0.680273H316.046V1.28027ZM325.314 1.28027H324.714V4.80859H325.314H325.914V1.28027H325.314ZM368.766 21.6641V21.0641H365.154V21.6641V22.2641H368.766V21.6641ZM365.154 21.6641L365.744 21.5534L364.987 17.5212L364.397 17.6318L363.808 17.7425L364.565 21.7747L365.154 21.6641ZM364.397 17.6318V17.0318H360.981V17.6318V18.2318H364.397V17.6318ZM360.981 17.6318L360.392 17.5213L359.636 21.5535L360.226 21.6641L360.815 21.7746L361.571 17.7424L360.981 17.6318ZM360.226 21.6641V21.0641H356.614V21.6641V22.2641H360.226V21.6641ZM356.614 21.6641L357.201 21.7882L361.513 1.40444L360.926 1.28027L360.339 1.15611L356.027 21.5399L356.614 21.6641ZM360.926 1.28027V1.88027H364.454V1.28027V0.680273H360.926V1.28027ZM364.454 1.28027L363.867 1.40444L368.179 21.7882L368.766 21.6641L369.353 21.5399L365.041 1.15611L364.454 1.28027ZM404.075 9.00781L404.656 9.15732L406.645 1.42978L406.063 1.28027L405.482 1.13076L403.494 8.8583L404.075 9.00781ZM406.063 1.28027V1.88027H409.871V1.28027V0.680273H406.063V1.28027ZM409.871 1.28027L409.304 1.08362L405.273 12.7037L405.84 12.9004L406.407 13.097L410.438 1.47693L409.871 1.28027ZM405.84 12.9004H405.24V21.6641H405.84H406.44V12.9004H405.84ZM405.84 21.6641V21.0641H402.312V21.6641V22.2641H405.84V21.6641ZM402.312 21.6641H402.912V12.9004H402.312H401.712V21.6641H402.312ZM402.312 12.9004L402.878 12.7037L398.846 1.08358L398.279 1.28027L397.712 1.47697L401.745 13.0971L402.312 12.9004ZM398.279 1.28027V1.88027H402.088V1.28027V0.680273H398.279V1.28027ZM402.088 1.28027L401.507 1.42971L403.494 9.15725L404.075 9.00781L404.656 8.85837L402.669 1.13083L402.088 1.28027ZM196.979 14.1045V14.7045H199.106V14.1045V13.5045H196.979V14.1045ZM199.106 14.1045L199.696 13.9951L198.632 8.25486L198.042 8.36426L197.452 8.47366L198.517 14.2139L199.106 14.1045ZM198.042 8.36426L197.452 8.25496L196.389 13.9952L196.979 14.1045L197.568 14.2138L198.632 8.47356L198.042 8.36426ZM361.626 14.1045V14.7045H363.754V14.1045V13.5045H361.626V14.1045ZM363.754 14.1045L364.344 13.9951L363.279 8.25486L362.689 8.36426L362.1 8.47366L363.164 14.2139L363.754 14.1045ZM362.689 8.36426L362.099 8.25496L361.036 13.9952L361.626 14.1045L362.216 14.2138L363.279 8.47356L362.689 8.36426ZM382.468 12.9521V12.3521H378.939V12.9521V13.5521H382.468V12.9521ZM378.939 12.9521H379.539V11.9521H378.939H378.339V12.9521H378.939ZM378.939 11.9521V12.5521H382.468V11.9521V11.3521H378.939V11.9521ZM382.468 11.9521H381.868V12.9521H382.468H383.068V11.9521H382.468ZM382.468 10.9521V10.3521H378.939V10.9521V11.5521H382.468V10.9521ZM378.939 10.9521H379.539V9.95215H378.939H378.339V10.9521H378.939ZM378.939 9.95215V10.5521H382.468V9.95215V9.35215H378.939V9.95215ZM382.468 9.95215H381.868V10.9521H382.468H383.068V9.95215H382.468ZM155.583 9.34375V9.94375H156.646V9.34375V8.74375H155.583V9.34375ZM156.646 9.34375V9.94375C157.265 9.94375 157.812 9.72726 158.246 9.29248L157.822 8.86816L157.398 8.44385C157.198 8.64352 156.961 8.74375 156.646 8.74375V9.34375ZM157.822 8.86816L158.247 9.29243C158.676 8.86305 158.899 8.32753 158.899 7.71973H158.299H157.699C157.699 8.00792 157.603 8.23861 157.398 8.4439L157.822 8.86816ZM158.299 7.71973H158.899V6.43262H158.299H157.699V7.71973H158.299ZM158.299 6.43262H158.899C158.899 5.82481 158.676 5.28929 158.247 4.85992L157.822 5.28418L157.398 5.70844C157.603 5.91374 157.699 6.14442 157.699 6.43262H158.299ZM157.822 5.28418L158.246 4.85987C157.812 4.42506 157.265 4.20859 156.646 4.20859V4.80859V5.40859C156.961 5.40859 157.198 5.50881 157.398 5.70849L157.822 5.28418ZM156.646 4.80859V4.20859H155.583V4.80859V5.40859H156.646V4.80859ZM155.583 4.80859H154.983V9.34375H155.583H156.183V4.80859H155.583ZM384.092 1L384.092 1.6C385.371 1.60007 386.441 2.04174 387.336 2.93599L387.76 2.51172L388.184 2.08745C387.062 0.965935 385.687 0.400091 384.092 0.4L384.092 1ZM387.76 2.51172L387.336 2.93598C388.231 3.83196 388.671 4.89351 388.671 6.15234H389.271H389.871C389.871 4.57385 389.304 3.20748 388.184 2.08745L387.76 2.51172ZM389.271 6.15234H388.671V7.07617H389.271H389.871V6.15234H389.271ZM389.271 7.07617V6.47617H385.743V7.07617V7.67617H389.271V7.07617ZM385.743 7.07617H386.343V6.15234H385.743H385.143V7.07617H385.743ZM385.743 6.15234H386.343C386.343 5.54548 386.122 5.00968 385.692 4.57964L385.268 5.00391L384.843 5.42817C385.048 5.6328 385.143 5.86321 385.143 6.15234H385.743ZM385.268 5.00391L385.692 4.57962C385.257 4.14474 384.71 3.92843 384.092 3.92832L384.092 4.52832L384.092 5.12832C384.407 5.12837 384.644 5.22864 384.843 5.42819L385.268 5.00391ZM384.092 4.52832V3.92832C383.485 3.92832 382.949 4.14967 382.519 4.57962L382.943 5.00391L383.368 5.42819C383.572 5.22358 383.803 5.12832 384.092 5.12832V4.52832ZM382.943 5.00391L382.519 4.57964C382.089 5.00968 381.868 5.54548 381.868 6.15234H382.468H383.068C383.068 5.86321 383.163 5.6328 383.368 5.42817L382.943 5.00391ZM382.468 6.15234H381.868V8.95215H382.468H383.068V6.15234H382.468ZM382.468 8.95215V8.35215H378.939V8.95215V9.55215H382.468V8.95215ZM378.939 8.95215H379.539V6.15234H378.939H378.339V8.95215H378.939ZM378.939 6.15234H379.539C379.539 4.89351 379.979 3.83196 380.875 2.93598L380.451 2.51172L380.027 2.08745C378.907 3.20748 378.339 4.57385 378.339 6.15234H378.939ZM380.451 2.51172L380.875 2.93599C381.771 2.04006 382.833 1.6 384.092 1.6V1V0.4C382.513 0.4 381.147 0.967487 380.027 2.08745L380.451 2.51172ZM237.903 8.66406V8.06406H234.376V8.66406V9.26406H237.903V8.66406ZM234.376 8.66406H234.976V7.66406H234.376H233.776V8.66406H234.376ZM234.376 7.66406V8.26406H237.903V7.66406V7.06406H234.376V7.66406ZM237.903 7.66406H237.303V8.66406H237.903H238.503V7.66406H237.903ZM237.903 6.66406V6.06406H234.376V6.66406V7.26406H237.903V6.66406ZM234.376 6.66406H234.976V5.66406H234.376H233.776V6.66406H234.376ZM234.376 5.66406V6.26406H237.903V5.66406V5.06406H234.376V5.66406ZM237.903 5.66406H237.303V6.66406H237.903H238.503V5.66406H237.903ZM237.903 4.66406V4.06406H234.376V4.66406V5.26406H237.903V4.66406ZM234.376 4.66406H234.976V1.28027H234.376H233.776V4.66406H234.376ZM234.376 1.28027V1.88027H237.903V1.28027V0.680273H234.376V1.28027ZM237.903 1.28027H237.303V4.66406H237.903H238.503V1.28027H237.903Z" fill="url(#paint1_linear_7_265)" mask="url(#path-1-inside-1_7_265)"/>
<defs>
<radialGradient id="paint0_radial_7_265" cx="0" cy="0" r="1" gradientUnits="userSpaceOnUse" gradientTransform="translate(269.688 11.7474) rotate(90) scale(54.3276 181.855)">
<stop stop-color="#ECF7FF"/>
<stop offset="1" stop-color="#ECF7FF" stop-opacity="0"/>
</radialGradient>
<linearGradient id="paint1_linear_7_265" x1="269.688" y1="-8.03681" x2="269.688" y2="63.9319" gradientUnits="userSpaceOnUse">
<stop stop-color="#253596" stop-opacity="0"/>
<stop offset="0.456017" stop-color="#4A76D4"/>
<stop offset="1" stop-color="#76EAF1"/>
</linearGradient>
</defs>
</svg>
