<svg width="370" height="22" viewBox="0 0 370 22" fill="none" xmlns="http://www.w3.org/2000/svg">
<mask id="path-1-inside-1_7_437" fill="white">
<path d="M44.0596 2.71973H39.8799V5.93945C40.3331 5.7129 40.8601 5.59961 41.46 5.59961C42.1798 5.59968 42.7932 5.85289 43.2998 6.35938C43.8065 6.86604 44.0596 7.4802 44.0596 8.2002V11.6201C44.0595 12.5399 43.7261 13.3262 43.0596 13.9795C42.4062 14.6328 41.6192 14.96 40.6992 14.96C39.7794 14.9599 38.9931 14.6327 38.3398 13.9795C37.6866 13.3262 37.3594 12.54 37.3594 11.6201V10.6201H39.8799V11.6201C39.8799 11.8467 39.9602 12.0403 40.1201 12.2002C40.2799 12.3598 40.4729 12.4393 40.6992 12.4395C40.9392 12.4395 41.1398 12.3601 41.2998 12.2002C41.4597 12.0403 41.54 11.8467 41.54 11.6201V8.7998C41.54 8.55995 41.4596 8.36014 41.2998 8.2002C41.1398 8.0402 40.9392 7.95996 40.6992 7.95996C40.4728 7.96007 40.28 8.04034 40.1201 8.2002C39.9601 8.36018 39.8799 8.55983 39.8799 8.7998H37.3594V0.200195H44.0596V2.71973ZM65.583 0C66.6096 5.0884e-05 67.4832 0.360129 68.2031 1.08008C68.9229 1.79998 69.2832 2.66656 69.2832 3.67969V4.33984H66.7627V3.67969C66.7627 3.35976 66.6495 3.086 66.4229 2.85938C66.1963 2.6329 65.9161 2.51958 65.583 2.51953C65.2631 2.51953 64.9893 2.63284 64.7627 2.85938C64.5361 3.086 64.4229 3.35976 64.4229 3.67969V3.91992C64.4229 4.51989 64.643 5.00656 65.083 5.37988L67.7432 7.66016C68.7696 8.56677 69.2832 9.69353 69.2832 11.04V11.2803C69.2831 12.2934 68.9229 13.16 68.2031 13.8799C67.4832 14.5998 66.6096 14.9599 65.583 14.96C64.5697 14.96 63.7024 14.5999 62.9824 13.8799C62.2626 13.16 61.9024 12.2933 61.9023 11.2803V10.6201H64.4229V11.2803C64.423 11.6 64.5362 11.8731 64.7627 12.0996C64.9894 12.3263 65.263 12.4395 65.583 12.4395C65.9162 12.4394 66.1962 12.3262 66.4229 12.0996C66.6493 11.8731 66.7626 11.6 66.7627 11.2803V11.04C66.7627 10.44 66.5425 9.95341 66.1025 9.58008L63.4424 7.2998C62.4159 6.39319 61.9024 5.26645 61.9023 3.91992V3.67969C61.9024 2.66656 62.2627 1.79998 62.9824 1.08008C63.7024 0.360078 64.5697 0 65.583 0ZM110.202 0C111.229 0.000105686 112.101 0.360244 112.821 1.08008C113.541 1.80004 113.901 2.66642 113.901 3.67969V4.33984H111.382V3.67969C111.382 3.35976 111.269 3.086 111.042 2.85938C110.815 2.63287 110.535 2.51963 110.202 2.51953C109.882 2.51953 109.608 2.63291 109.382 2.85938C109.155 3.086 109.042 3.35976 109.042 3.67969V11.2803C109.042 11.6001 109.155 11.8731 109.382 12.0996C109.609 12.3263 109.882 12.4395 110.202 12.4395C110.535 12.4394 110.815 12.3262 111.042 12.0996C111.268 11.8731 111.382 11.6 111.382 11.2803V8.47949H109.922V5.95996H113.901V11.2803C113.901 12.2934 113.541 13.16 112.821 13.8799C112.101 14.5996 111.229 14.9599 110.202 14.96C109.189 14.96 108.322 14.5999 107.602 13.8799C106.882 13.16 106.522 12.2934 106.521 11.2803V3.67969C106.522 2.66651 106.882 1.8 107.602 1.08008C108.322 0.360078 109.189 0 110.202 0ZM139.919 0C140.946 5.0884e-05 141.819 0.360129 142.539 1.08008C143.259 1.79998 143.619 2.66656 143.619 3.67969V4.33984H141.099V3.67969C141.099 3.35976 140.985 3.086 140.759 2.85938C140.532 2.6329 140.252 2.51958 139.919 2.51953C139.599 2.51953 139.325 2.63284 139.099 2.85938C138.872 3.086 138.759 3.35976 138.759 3.67969V3.91992C138.759 4.51989 138.979 5.00656 139.419 5.37988L142.079 7.66016C143.106 8.56677 143.619 9.69353 143.619 11.04V11.2803C143.619 12.2934 143.259 13.16 142.539 13.8799C141.819 14.5998 140.946 14.9599 139.919 14.96C138.906 14.96 138.038 14.5999 137.318 13.8799C136.599 13.16 136.238 12.2933 136.238 11.2803V10.6201H138.759V11.2803C138.759 11.6 138.872 11.8731 139.099 12.0996C139.325 12.3263 139.599 12.4395 139.919 12.4395C140.252 12.4394 140.532 12.3262 140.759 12.0996C140.985 11.8731 141.099 11.6 141.099 11.2803V11.04C141.099 10.44 140.878 9.95341 140.438 9.58008L137.778 7.2998C136.752 6.39319 136.238 5.26645 136.238 3.91992V3.67969C136.238 2.66656 136.599 1.79998 137.318 1.08008C138.038 0.360078 138.906 0 139.919 0ZM164.073 11.2803C164.073 11.6001 164.187 11.8731 164.413 12.0996C164.64 12.3263 164.913 12.4395 165.233 12.4395C165.567 12.4394 165.847 12.3262 166.073 12.0996C166.3 11.8731 166.413 11.6 166.413 11.2803V10.0957H168.933V11.2803C168.933 12.2934 168.572 13.16 167.853 13.8799C167.133 14.5996 166.26 14.9599 165.233 14.96C164.22 14.96 163.353 14.5999 162.633 13.8799C161.913 13.16 161.553 12.2934 161.553 11.2803V10.0957H164.073V11.2803ZM339.526 0C340.553 0.000105686 341.426 0.360244 342.146 1.08008C342.865 1.80004 343.226 2.66642 343.226 3.67969V4.33984H340.706V3.67969C340.706 3.35976 340.593 3.086 340.366 2.85938C340.14 2.63287 339.859 2.51963 339.526 2.51953C339.207 2.51953 338.933 2.63291 338.706 2.85938C338.479 3.086 338.366 3.35976 338.366 3.67969V11.2803C338.366 11.6001 338.48 11.8731 338.706 12.0996C338.933 12.3263 339.206 12.4395 339.526 12.4395C339.86 12.4394 340.14 12.3262 340.366 12.0996C340.593 11.8731 340.706 11.6 340.706 11.2803V8.47949H339.246V5.95996H343.226V11.2803C343.225 12.2934 342.865 13.16 342.146 13.8799C341.426 14.5996 340.553 14.9599 339.526 14.96C338.513 14.96 337.646 14.5999 336.926 13.8799C336.206 13.16 335.846 12.2934 335.846 11.2803V3.67969C335.846 2.66651 336.206 1.8 336.926 1.08008C337.646 0.360078 338.513 0 339.526 0ZM29.1934 14.7598H26.6738V3.33984L24.7334 5.04004V1.89941L26.6738 0.200195H29.1934V14.7598ZM81.5088 14.7598H78.9893V9.0957H81.5088V14.7598ZM99.2549 14.7598H96.6748L96.1348 11.8799H93.6943L93.1553 14.7598H90.5752L93.6553 0.200195H96.1748L99.2549 14.7598ZM128.757 2.71973H124.657V5.95996H128.276V8.47949H124.657V12.2402H128.757V14.7598H122.137V0.200195H128.757V2.71973ZM183.788 2.71973H179.688V5.95996H183.308V8.47949H179.688V14.7598H177.168V0.200195H183.788V2.71973ZM208.003 2.71973H203.903V5.95996H207.522V8.47949H203.903V14.7598H201.383V0.200195H208.003V2.71973ZM218.11 14.7598H215.59V0.200195H218.11V14.7598ZM228.978 12.2402H232.397V14.7598H226.457V0.200195H228.978V12.2402ZM245.122 8.13965L247.762 0.200195H250.302V14.7598H247.782V6.82031L246.022 12.5H244.202L242.442 6.82031V14.7598H239.922V0.200195H242.462L245.122 8.13965ZM263.821 8.13965L266.461 0.200195H269.001V14.7598H266.481V6.82031L264.722 12.5H262.901L261.142 6.82031V14.7598H258.621V0.200195H261.161L263.821 8.13965ZM285.021 14.7598H282.44L281.9 11.8799H279.46L278.921 14.7598H276.341L279.421 0.200195H281.94L285.021 14.7598ZM294.888 6.33984L297.647 0.200195H300.447L297.487 6.17969L301.087 14.7598H298.348L296.087 9L294.888 11.3994V14.7598H292.367V0.200195H294.888V6.33984ZM310.989 14.7598H308.469V7.0957H310.989V14.7598ZM325.076 8.16016V0.200195H327.596V14.7598H325.076L321.856 6.7998V14.7598H319.336V0.200195H321.856L325.076 8.16016ZM94.1553 9.35938H95.6748L94.915 5.25977L94.1553 9.35938ZM279.921 9.35938H281.44L280.681 5.25977L279.921 9.35938ZM164.073 9.0957H161.553V8.0957H164.073V9.0957ZM168.933 9.0957H166.413V8.0957H168.933V9.0957ZM81.5088 8.0957H78.9893V7.0957H81.5088V8.0957ZM164.073 7.0957H161.553V6.0957H164.073V7.0957ZM168.933 7.0957H166.413V6.0957H168.933V7.0957ZM81.5088 6.0957H78.9893V5.0957H81.5088V6.0957ZM310.989 6.0957H308.469V5.0957H310.989V6.0957ZM165.233 0C166.26 0.000105686 167.133 0.360244 167.853 1.08008C168.572 1.80004 168.933 2.66642 168.933 3.67969V5.0957H166.413V3.67969C166.413 3.35976 166.3 3.086 166.073 2.85938C165.847 2.63287 165.566 2.51963 165.233 2.51953C164.914 2.51953 164.64 2.63291 164.413 2.85938C164.186 3.086 164.073 3.35976 164.073 3.67969V5.0957H161.553V3.67969C161.553 2.66651 161.913 1.8 162.633 1.08008C163.353 0.360078 164.22 0 165.233 0ZM84.0088 2.71973H81.5088V4.0957H78.9893V2.71973H76.4893V0.200195H84.0088V2.71973ZM310.989 4.0957H308.469V3.0957H310.989V4.0957ZM310.989 2.0957H308.469V0.200195H310.989V2.0957Z"/>
</mask>
<path d="M44.0596 2.71973H39.8799V5.93945C40.3331 5.7129 40.8601 5.59961 41.46 5.59961C42.1798 5.59968 42.7932 5.85289 43.2998 6.35938C43.8065 6.86604 44.0596 7.4802 44.0596 8.2002V11.6201C44.0595 12.5399 43.7261 13.3262 43.0596 13.9795C42.4062 14.6328 41.6192 14.96 40.6992 14.96C39.7794 14.9599 38.9931 14.6327 38.3398 13.9795C37.6866 13.3262 37.3594 12.54 37.3594 11.6201V10.6201H39.8799V11.6201C39.8799 11.8467 39.9602 12.0403 40.1201 12.2002C40.2799 12.3598 40.4729 12.4393 40.6992 12.4395C40.9392 12.4395 41.1398 12.3601 41.2998 12.2002C41.4597 12.0403 41.54 11.8467 41.54 11.6201V8.7998C41.54 8.55995 41.4596 8.36014 41.2998 8.2002C41.1398 8.0402 40.9392 7.95996 40.6992 7.95996C40.4728 7.96007 40.28 8.04034 40.1201 8.2002C39.9601 8.36018 39.8799 8.55983 39.8799 8.7998H37.3594V0.200195H44.0596V2.71973ZM65.583 0C66.6096 5.0884e-05 67.4832 0.360129 68.2031 1.08008C68.9229 1.79998 69.2832 2.66656 69.2832 3.67969V4.33984H66.7627V3.67969C66.7627 3.35976 66.6495 3.086 66.4229 2.85938C66.1963 2.6329 65.9161 2.51958 65.583 2.51953C65.2631 2.51953 64.9893 2.63284 64.7627 2.85938C64.5361 3.086 64.4229 3.35976 64.4229 3.67969V3.91992C64.4229 4.51989 64.643 5.00656 65.083 5.37988L67.7432 7.66016C68.7696 8.56677 69.2832 9.69353 69.2832 11.04V11.2803C69.2831 12.2934 68.9229 13.16 68.2031 13.8799C67.4832 14.5998 66.6096 14.9599 65.583 14.96C64.5697 14.96 63.7024 14.5999 62.9824 13.8799C62.2626 13.16 61.9024 12.2933 61.9023 11.2803V10.6201H64.4229V11.2803C64.423 11.6 64.5362 11.8731 64.7627 12.0996C64.9894 12.3263 65.263 12.4395 65.583 12.4395C65.9162 12.4394 66.1962 12.3262 66.4229 12.0996C66.6493 11.8731 66.7626 11.6 66.7627 11.2803V11.04C66.7627 10.44 66.5425 9.95341 66.1025 9.58008L63.4424 7.2998C62.4159 6.39319 61.9024 5.26645 61.9023 3.91992V3.67969C61.9024 2.66656 62.2627 1.79998 62.9824 1.08008C63.7024 0.360078 64.5697 0 65.583 0ZM110.202 0C111.229 0.000105686 112.101 0.360244 112.821 1.08008C113.541 1.80004 113.901 2.66642 113.901 3.67969V4.33984H111.382V3.67969C111.382 3.35976 111.269 3.086 111.042 2.85938C110.815 2.63287 110.535 2.51963 110.202 2.51953C109.882 2.51953 109.608 2.63291 109.382 2.85938C109.155 3.086 109.042 3.35976 109.042 3.67969V11.2803C109.042 11.6001 109.155 11.8731 109.382 12.0996C109.609 12.3263 109.882 12.4395 110.202 12.4395C110.535 12.4394 110.815 12.3262 111.042 12.0996C111.268 11.8731 111.382 11.6 111.382 11.2803V8.47949H109.922V5.95996H113.901V11.2803C113.901 12.2934 113.541 13.16 112.821 13.8799C112.101 14.5996 111.229 14.9599 110.202 14.96C109.189 14.96 108.322 14.5999 107.602 13.8799C106.882 13.16 106.522 12.2934 106.521 11.2803V3.67969C106.522 2.66651 106.882 1.8 107.602 1.08008C108.322 0.360078 109.189 0 110.202 0ZM139.919 0C140.946 5.0884e-05 141.819 0.360129 142.539 1.08008C143.259 1.79998 143.619 2.66656 143.619 3.67969V4.33984H141.099V3.67969C141.099 3.35976 140.985 3.086 140.759 2.85938C140.532 2.6329 140.252 2.51958 139.919 2.51953C139.599 2.51953 139.325 2.63284 139.099 2.85938C138.872 3.086 138.759 3.35976 138.759 3.67969V3.91992C138.759 4.51989 138.979 5.00656 139.419 5.37988L142.079 7.66016C143.106 8.56677 143.619 9.69353 143.619 11.04V11.2803C143.619 12.2934 143.259 13.16 142.539 13.8799C141.819 14.5998 140.946 14.9599 139.919 14.96C138.906 14.96 138.038 14.5999 137.318 13.8799C136.599 13.16 136.238 12.2933 136.238 11.2803V10.6201H138.759V11.2803C138.759 11.6 138.872 11.8731 139.099 12.0996C139.325 12.3263 139.599 12.4395 139.919 12.4395C140.252 12.4394 140.532 12.3262 140.759 12.0996C140.985 11.8731 141.099 11.6 141.099 11.2803V11.04C141.099 10.44 140.878 9.95341 140.438 9.58008L137.778 7.2998C136.752 6.39319 136.238 5.26645 136.238 3.91992V3.67969C136.238 2.66656 136.599 1.79998 137.318 1.08008C138.038 0.360078 138.906 0 139.919 0ZM164.073 11.2803C164.073 11.6001 164.187 11.8731 164.413 12.0996C164.64 12.3263 164.913 12.4395 165.233 12.4395C165.567 12.4394 165.847 12.3262 166.073 12.0996C166.3 11.8731 166.413 11.6 166.413 11.2803V10.0957H168.933V11.2803C168.933 12.2934 168.572 13.16 167.853 13.8799C167.133 14.5996 166.26 14.9599 165.233 14.96C164.22 14.96 163.353 14.5999 162.633 13.8799C161.913 13.16 161.553 12.2934 161.553 11.2803V10.0957H164.073V11.2803ZM339.526 0C340.553 0.000105686 341.426 0.360244 342.146 1.08008C342.865 1.80004 343.226 2.66642 343.226 3.67969V4.33984H340.706V3.67969C340.706 3.35976 340.593 3.086 340.366 2.85938C340.14 2.63287 339.859 2.51963 339.526 2.51953C339.207 2.51953 338.933 2.63291 338.706 2.85938C338.479 3.086 338.366 3.35976 338.366 3.67969V11.2803C338.366 11.6001 338.48 11.8731 338.706 12.0996C338.933 12.3263 339.206 12.4395 339.526 12.4395C339.86 12.4394 340.14 12.3262 340.366 12.0996C340.593 11.8731 340.706 11.6 340.706 11.2803V8.47949H339.246V5.95996H343.226V11.2803C343.225 12.2934 342.865 13.16 342.146 13.8799C341.426 14.5996 340.553 14.9599 339.526 14.96C338.513 14.96 337.646 14.5999 336.926 13.8799C336.206 13.16 335.846 12.2934 335.846 11.2803V3.67969C335.846 2.66651 336.206 1.8 336.926 1.08008C337.646 0.360078 338.513 0 339.526 0ZM29.1934 14.7598H26.6738V3.33984L24.7334 5.04004V1.89941L26.6738 0.200195H29.1934V14.7598ZM81.5088 14.7598H78.9893V9.0957H81.5088V14.7598ZM99.2549 14.7598H96.6748L96.1348 11.8799H93.6943L93.1553 14.7598H90.5752L93.6553 0.200195H96.1748L99.2549 14.7598ZM128.757 2.71973H124.657V5.95996H128.276V8.47949H124.657V12.2402H128.757V14.7598H122.137V0.200195H128.757V2.71973ZM183.788 2.71973H179.688V5.95996H183.308V8.47949H179.688V14.7598H177.168V0.200195H183.788V2.71973ZM208.003 2.71973H203.903V5.95996H207.522V8.47949H203.903V14.7598H201.383V0.200195H208.003V2.71973ZM218.11 14.7598H215.59V0.200195H218.11V14.7598ZM228.978 12.2402H232.397V14.7598H226.457V0.200195H228.978V12.2402ZM245.122 8.13965L247.762 0.200195H250.302V14.7598H247.782V6.82031L246.022 12.5H244.202L242.442 6.82031V14.7598H239.922V0.200195H242.462L245.122 8.13965ZM263.821 8.13965L266.461 0.200195H269.001V14.7598H266.481V6.82031L264.722 12.5H262.901L261.142 6.82031V14.7598H258.621V0.200195H261.161L263.821 8.13965ZM285.021 14.7598H282.44L281.9 11.8799H279.46L278.921 14.7598H276.341L279.421 0.200195H281.94L285.021 14.7598ZM294.888 6.33984L297.647 0.200195H300.447L297.487 6.17969L301.087 14.7598H298.348L296.087 9L294.888 11.3994V14.7598H292.367V0.200195H294.888V6.33984ZM310.989 14.7598H308.469V7.0957H310.989V14.7598ZM325.076 8.16016V0.200195H327.596V14.7598H325.076L321.856 6.7998V14.7598H319.336V0.200195H321.856L325.076 8.16016ZM94.1553 9.35938H95.6748L94.915 5.25977L94.1553 9.35938ZM279.921 9.35938H281.44L280.681 5.25977L279.921 9.35938ZM164.073 9.0957H161.553V8.0957H164.073V9.0957ZM168.933 9.0957H166.413V8.0957H168.933V9.0957ZM81.5088 8.0957H78.9893V7.0957H81.5088V8.0957ZM164.073 7.0957H161.553V6.0957H164.073V7.0957ZM168.933 7.0957H166.413V6.0957H168.933V7.0957ZM81.5088 6.0957H78.9893V5.0957H81.5088V6.0957ZM310.989 6.0957H308.469V5.0957H310.989V6.0957ZM165.233 0C166.26 0.000105686 167.133 0.360244 167.853 1.08008C168.572 1.80004 168.933 2.66642 168.933 3.67969V5.0957H166.413V3.67969C166.413 3.35976 166.3 3.086 166.073 2.85938C165.847 2.63287 165.566 2.51963 165.233 2.51953C164.914 2.51953 164.64 2.63291 164.413 2.85938C164.186 3.086 164.073 3.35976 164.073 3.67969V5.0957H161.553V3.67969C161.553 2.66651 161.913 1.8 162.633 1.08008C163.353 0.360078 164.22 0 165.233 0ZM84.0088 2.71973H81.5088V4.0957H78.9893V2.71973H76.4893V0.200195H84.0088V2.71973ZM310.989 4.0957H308.469V3.0957H310.989V4.0957ZM310.989 2.0957H308.469V0.200195H310.989V2.0957Z" fill="url(#paint0_radial_7_437)"/>
<path d="M44.0596 2.71973V3.31973H44.6596V2.71973H44.0596ZM39.8799 2.71973V2.11973H39.2799V2.71973H39.8799ZM39.8799 5.93945H39.2799V6.91013L40.1481 6.47614L39.8799 5.93945ZM41.46 5.59961L41.46 4.99961H41.46V5.59961ZM43.2998 6.35938L43.7241 5.93511L43.724 5.93508L43.2998 6.35938ZM44.0596 11.6201L44.6596 11.6202V11.6201H44.0596ZM43.0596 13.9795L42.6396 13.551L42.6353 13.5552L43.0596 13.9795ZM40.6992 14.96L40.6991 15.56H40.6992V14.96ZM38.3398 13.9795L37.9156 14.4037L37.9156 14.4038L38.3398 13.9795ZM37.3594 11.6201L36.7594 11.6201L36.7594 11.6202L37.3594 11.6201ZM37.3594 10.6201V10.0201H36.7594V10.6201H37.3594ZM39.8799 10.6201H40.4799V10.0201H39.8799V10.6201ZM39.8799 11.6201L39.2799 11.6201L39.2799 11.6203L39.8799 11.6201ZM40.1201 12.2002L39.6959 12.6245L39.6961 12.6247L40.1201 12.2002ZM40.6992 12.4395L40.6989 13.0395H40.6992V12.4395ZM41.2998 12.2002L41.724 12.6245L41.7241 12.6245L41.2998 12.2002ZM41.54 11.6201L42.14 11.6203V11.6201H41.54ZM41.54 8.7998L42.14 8.7998L42.14 8.79978L41.54 8.7998ZM41.2998 8.2002L41.7242 7.77609L41.7241 7.77593L41.2998 8.2002ZM40.6992 7.95996L40.6992 7.35996L40.6989 7.35996L40.6992 7.95996ZM40.1201 8.2002L39.6959 7.7759L39.6959 7.77593L40.1201 8.2002ZM39.8799 8.7998V9.3998H40.4799L40.4799 8.79983L39.8799 8.7998ZM37.3594 8.7998H36.7594V9.3998H37.3594V8.7998ZM37.3594 0.200195V-0.399805H36.7594V0.200195H37.3594ZM44.0596 0.200195H44.6596V-0.399805H44.0596V0.200195ZM65.583 0L65.583 -0.6H65.583V0ZM68.2031 1.08008L68.6274 0.655853L68.6274 0.655814L68.2031 1.08008ZM69.2832 3.67969L69.8832 3.67969L69.8832 3.67966L69.2832 3.67969ZM69.2832 4.33984V4.93984H69.8832V4.33984H69.2832ZM66.7627 4.33984H66.1627V4.93984H66.7627V4.33984ZM66.7627 3.67969L67.3627 3.67969L67.3627 3.67961L66.7627 3.67969ZM66.4229 2.85938L66.8471 2.43511L66.847 2.43502L66.4229 2.85938ZM65.583 2.51953L65.5831 1.91953H65.583V2.51953ZM64.7627 2.85938L64.3385 2.43503L64.3384 2.43511L64.7627 2.85938ZM64.4229 3.67969L63.8229 3.67961V3.67969H64.4229ZM64.4229 3.91992L63.8229 3.91992L63.8229 3.91994L64.4229 3.91992ZM65.083 5.37988L65.4735 4.92433L65.4712 4.92238L65.083 5.37988ZM67.7432 7.66016L68.1404 7.21041L68.1337 7.20461L67.7432 7.66016ZM69.2832 11.2803L69.8832 11.2803V11.2803H69.2832ZM68.2031 13.8799L68.6274 14.3041L68.6274 14.3041L68.2031 13.8799ZM65.583 14.96L65.583 15.56L65.583 15.56L65.583 14.96ZM62.9824 13.8799L62.5581 14.3041L62.5582 14.3041L62.9824 13.8799ZM61.9023 11.2803L61.3023 11.2803L61.3023 11.2803L61.9023 11.2803ZM61.9023 10.6201V10.0201H61.3023V10.6201H61.9023ZM64.4229 10.6201H65.0229V10.0201H64.4229V10.6201ZM64.4229 11.2803L63.8229 11.2803L63.8229 11.2805L64.4229 11.2803ZM64.7627 12.0996L64.3384 12.5238L64.3384 12.5239L64.7627 12.0996ZM65.583 12.4395L65.583 13.0395L65.5831 13.0395L65.583 12.4395ZM66.4229 12.0996L66.8471 12.5239L66.8472 12.5238L66.4229 12.0996ZM66.7627 11.2803L67.3627 11.2805V11.2803H66.7627ZM66.1025 9.58008L65.712 10.0356L65.7144 10.0376L66.1025 9.58008ZM63.4424 7.2998L63.0451 7.74956L63.0519 7.75535L63.4424 7.2998ZM61.9023 3.91992L61.3023 3.91992L61.3023 3.91993L61.9023 3.91992ZM61.9023 3.67969L61.3023 3.67966V3.67969H61.9023ZM62.9824 1.08008L62.5582 0.655814L62.5581 0.655855L62.9824 1.08008ZM110.202 0L110.202 -0.6H110.202V0ZM112.821 1.08008L113.246 0.655814L113.246 0.655801L112.821 1.08008ZM113.901 3.67969L114.501 3.67969L114.501 3.67966L113.901 3.67969ZM113.901 4.33984V4.93984H114.501V4.33984H113.901ZM111.382 4.33984H110.782V4.93984H111.382V4.33984ZM111.382 3.67969L111.982 3.67969L111.982 3.67961L111.382 3.67969ZM111.042 2.85938L111.466 2.43511L111.466 2.43507L111.042 2.85938ZM110.202 2.51953L110.202 1.91953H110.202V2.51953ZM109.382 2.85938L108.958 2.43498L108.958 2.43511L109.382 2.85938ZM109.042 3.67969L108.442 3.67961V3.67969H109.042ZM109.042 11.2803L108.442 11.2803L108.442 11.2805L109.042 11.2803ZM109.382 12.0996L108.958 12.5239L108.958 12.5239L109.382 12.0996ZM110.202 12.4395L110.202 13.0395L110.202 13.0395L110.202 12.4395ZM111.042 12.0996L111.466 12.5239L111.466 12.5238L111.042 12.0996ZM111.382 11.2803L111.982 11.2805V11.2803H111.382ZM111.382 8.47949H111.982V7.87949H111.382V8.47949ZM109.922 8.47949H109.322V9.07949H109.922V8.47949ZM109.922 5.95996V5.35996H109.322V5.95996H109.922ZM113.901 5.95996H114.501V5.35996H113.901V5.95996ZM113.901 11.2803L114.501 11.2803V11.2803H113.901ZM112.821 13.8799L113.246 14.3042L113.246 14.3041L112.821 13.8799ZM110.202 14.96L110.202 15.56L110.202 15.56L110.202 14.96ZM107.602 13.8799L107.177 14.3041L107.177 14.3041L107.602 13.8799ZM106.521 11.2803L105.921 11.2803L105.921 11.2803L106.521 11.2803ZM106.521 3.67969L105.921 3.67966V3.67969H106.521ZM107.602 1.08008L107.177 0.655814L107.177 0.655839L107.602 1.08008ZM139.919 0L139.919 -0.6H139.919V0ZM142.539 1.08008L142.963 0.655853L142.963 0.655814L142.539 1.08008ZM143.619 3.67969L144.219 3.67969L144.219 3.67966L143.619 3.67969ZM143.619 4.33984V4.93984H144.219V4.33984H143.619ZM141.099 4.33984H140.499V4.93984H141.099V4.33984ZM141.099 3.67969L141.699 3.67969L141.699 3.67961L141.099 3.67969ZM140.759 2.85938L141.183 2.43511L141.183 2.43502L140.759 2.85938ZM139.919 2.51953L139.919 1.91953H139.919V2.51953ZM139.099 2.85938L138.674 2.43503L138.674 2.43511L139.099 2.85938ZM138.759 3.67969L138.159 3.67961V3.67969H138.759ZM138.759 3.91992L138.159 3.91992L138.159 3.91994L138.759 3.91992ZM139.419 5.37988L139.809 4.92433L139.807 4.92238L139.419 5.37988ZM142.079 7.66016L142.476 7.21041L142.47 7.20461L142.079 7.66016ZM143.619 11.2803L144.219 11.2803V11.2803H143.619ZM142.539 13.8799L142.963 14.3041L142.963 14.3041L142.539 13.8799ZM139.919 14.96L139.919 15.56L139.919 15.56L139.919 14.96ZM137.318 13.8799L136.894 14.3041L136.894 14.3041L137.318 13.8799ZM136.238 11.2803L135.638 11.2803L135.638 11.2803L136.238 11.2803ZM136.238 10.6201V10.0201H135.638V10.6201H136.238ZM138.759 10.6201H139.359V10.0201H138.759V10.6201ZM138.759 11.2803L138.159 11.2803L138.159 11.2805L138.759 11.2803ZM139.099 12.0996L138.674 12.5238L138.674 12.5239L139.099 12.0996ZM139.919 12.4395L139.919 13.0395L139.919 13.0395L139.919 12.4395ZM140.759 12.0996L141.183 12.5239L141.183 12.5238L140.759 12.0996ZM141.099 11.2803L141.699 11.2805V11.2803H141.099ZM140.438 9.58008L140.048 10.0356L140.05 10.0376L140.438 9.58008ZM137.778 7.2998L137.381 7.74956L137.388 7.75535L137.778 7.2998ZM136.238 3.91992L135.638 3.91992L135.638 3.91993L136.238 3.91992ZM136.238 3.67969L135.638 3.67966V3.67969H136.238ZM137.318 1.08008L136.894 0.655814L136.894 0.655855L137.318 1.08008ZM164.073 11.2803L163.473 11.2803L163.473 11.2805L164.073 11.2803ZM164.413 12.0996L163.989 12.5239L163.989 12.5239L164.413 12.0996ZM165.233 12.4395L165.233 13.0395L165.234 13.0395L165.233 12.4395ZM166.073 12.0996L166.498 12.5239L166.498 12.5238L166.073 12.0996ZM166.413 11.2803L167.013 11.2805V11.2803H166.413ZM166.413 10.0957V9.4957H165.813V10.0957H166.413ZM168.933 10.0957H169.533V9.4957H168.933V10.0957ZM168.933 11.2803L169.533 11.2803V11.2803H168.933ZM167.853 13.8799L168.277 14.3042L168.277 14.3041L167.853 13.8799ZM165.233 14.96L165.233 15.56L165.233 15.56L165.233 14.96ZM162.633 13.8799L162.209 14.3041L162.209 14.3041L162.633 13.8799ZM161.553 11.2803L160.953 11.2803L160.953 11.2803L161.553 11.2803ZM161.553 10.0957V9.4957H160.953V10.0957H161.553ZM164.073 10.0957H164.673V9.4957H164.073V10.0957ZM339.526 0L339.526 -0.6H339.526V0ZM342.146 1.08008L342.57 0.655814L342.57 0.655801L342.146 1.08008ZM343.226 3.67969L343.826 3.67969L343.826 3.67966L343.226 3.67969ZM343.226 4.33984V4.93984H343.826V4.33984H343.226ZM340.706 4.33984H340.106V4.93984H340.706V4.33984ZM340.706 3.67969L341.306 3.67969L341.306 3.67961L340.706 3.67969ZM340.366 2.85938L340.79 2.43511L340.79 2.43507L340.366 2.85938ZM339.526 2.51953L339.527 1.91953H339.526V2.51953ZM338.706 2.85938L338.282 2.43498L338.282 2.43511L338.706 2.85938ZM338.366 3.67969L337.766 3.67961V3.67969H338.366ZM338.366 11.2803L337.766 11.2803L337.766 11.2805L338.366 11.2803ZM338.706 12.0996L338.282 12.5239L338.282 12.5239L338.706 12.0996ZM339.526 12.4395L339.526 13.0395L339.527 13.0395L339.526 12.4395ZM340.366 12.0996L340.79 12.5239L340.791 12.5238L340.366 12.0996ZM340.706 11.2803L341.306 11.2805V11.2803H340.706ZM340.706 8.47949H341.306V7.87949H340.706V8.47949ZM339.246 8.47949H338.646V9.07949H339.246V8.47949ZM339.246 5.95996V5.35996H338.646V5.95996H339.246ZM343.226 5.95996H343.826V5.35996H343.226V5.95996ZM343.226 11.2803L343.826 11.2803V11.2803H343.226ZM342.146 13.8799L342.57 14.3042L342.57 14.3041L342.146 13.8799ZM339.526 14.96L339.526 15.56L339.526 15.56L339.526 14.96ZM336.926 13.8799L336.502 14.3041L336.502 14.3041L336.926 13.8799ZM335.846 11.2803L335.246 11.2803L335.246 11.2803L335.846 11.2803ZM335.846 3.67969L335.246 3.67966V3.67969H335.846ZM336.926 1.08008L336.502 0.655814L336.501 0.655839L336.926 1.08008ZM29.1934 14.7598V15.3598H29.7934V14.7598H29.1934ZM26.6738 14.7598H26.0738V15.3598H26.6738V14.7598ZM26.6738 3.33984H27.2738V2.01639L26.2784 2.88857L26.6738 3.33984ZM24.7334 5.04004H24.1334V6.36349L25.1288 5.49132L24.7334 5.04004ZM24.7334 1.89941L24.3381 1.44802L24.1334 1.62729V1.89941H24.7334ZM26.6738 0.200195V-0.399805H26.4483L26.2785 -0.251196L26.6738 0.200195ZM29.1934 0.200195H29.7934V-0.399805H29.1934V0.200195ZM81.5088 14.7598V15.3598H82.1088V14.7598H81.5088ZM78.9893 14.7598H78.3893V15.3598H78.9893V14.7598ZM78.9893 9.0957V8.4957H78.3893V9.0957H78.9893ZM81.5088 9.0957H82.1088V8.4957H81.5088V9.0957ZM99.2549 14.7598V15.3598H99.9951L99.8419 14.6356L99.2549 14.7598ZM96.6748 14.7598L96.0851 14.8704L96.1769 15.3598H96.6748V14.7598ZM96.1348 11.8799L96.7245 11.7693L96.6327 11.2799H96.1348V11.8799ZM93.6943 11.8799V11.2799H93.1962L93.1046 11.7695L93.6943 11.8799ZM93.1553 14.7598V15.3598H93.6534L93.745 14.8702L93.1553 14.7598ZM90.5752 14.7598L89.9882 14.6356L89.835 15.3598H90.5752V14.7598ZM93.6553 0.200195V-0.399805H93.1689L93.0683 0.0760136L93.6553 0.200195ZM96.1748 0.200195L96.7618 0.0760136L96.6612 -0.399805H96.1748V0.200195ZM128.757 2.71973V3.31973H129.357V2.71973H128.757ZM124.657 2.71973V2.11973H124.057V2.71973H124.657ZM124.657 5.95996H124.057V6.55996H124.657V5.95996ZM128.276 5.95996H128.876V5.35996H128.276V5.95996ZM128.276 8.47949V9.07949H128.876V8.47949H128.276ZM124.657 8.47949V7.87949H124.057V8.47949H124.657ZM124.657 12.2402H124.057V12.8402H124.657V12.2402ZM128.757 12.2402H129.357V11.6402H128.757V12.2402ZM128.757 14.7598V15.3598H129.357V14.7598H128.757ZM122.137 14.7598H121.537V15.3598H122.137V14.7598ZM122.137 0.200195V-0.399805H121.537V0.200195H122.137ZM128.757 0.200195H129.357V-0.399805H128.757V0.200195ZM183.788 2.71973V3.31973H184.388V2.71973H183.788ZM179.688 2.71973V2.11973H179.088V2.71973H179.688ZM179.688 5.95996H179.088V6.55996H179.688V5.95996ZM183.308 5.95996H183.908V5.35996H183.308V5.95996ZM183.308 8.47949V9.07949H183.908V8.47949H183.308ZM179.688 8.47949V7.87949H179.088V8.47949H179.688ZM179.688 14.7598V15.3598H180.288V14.7598H179.688ZM177.168 14.7598H176.568V15.3598H177.168V14.7598ZM177.168 0.200195V-0.399805H176.568V0.200195H177.168ZM183.788 0.200195H184.388V-0.399805H183.788V0.200195ZM208.003 2.71973V3.31973H208.603V2.71973H208.003ZM203.903 2.71973V2.11973H203.303V2.71973H203.903ZM203.903 5.95996H203.303V6.55996H203.903V5.95996ZM207.522 5.95996H208.122V5.35996H207.522V5.95996ZM207.522 8.47949V9.07949H208.122V8.47949H207.522ZM203.903 8.47949V7.87949H203.303V8.47949H203.903ZM203.903 14.7598V15.3598H204.503V14.7598H203.903ZM201.383 14.7598H200.783V15.3598H201.383V14.7598ZM201.383 0.200195V-0.399805H200.783V0.200195H201.383ZM208.003 0.200195H208.603V-0.399805H208.003V0.200195ZM218.11 14.7598V15.3598H218.71V14.7598H218.11ZM215.59 14.7598H214.99V15.3598H215.59V14.7598ZM215.59 0.200195V-0.399805H214.99V0.200195H215.59ZM218.11 0.200195H218.71V-0.399805H218.11V0.200195ZM228.978 12.2402H228.378V12.8402H228.978V12.2402ZM232.397 12.2402H232.997V11.6402H232.397V12.2402ZM232.397 14.7598V15.3598H232.997V14.7598H232.397ZM226.457 14.7598H225.857V15.3598H226.457V14.7598ZM226.457 0.200195V-0.399805H225.857V0.200195H226.457ZM228.978 0.200195H229.578V-0.399805H228.978V0.200195ZM245.122 8.13965L244.553 8.33027L245.124 10.0348L245.691 8.32894L245.122 8.13965ZM247.762 0.200195V-0.399805H247.329L247.192 0.0108999L247.762 0.200195ZM250.302 0.200195H250.902V-0.399805H250.302V0.200195ZM250.302 14.7598V15.3598H250.902V14.7598H250.302ZM247.782 14.7598H247.182V15.3598H247.782V14.7598ZM247.782 6.82031H248.382L247.209 6.64274L247.782 6.82031ZM246.022 12.5V13.1H246.465L246.596 12.6776L246.022 12.5ZM244.202 12.5L243.629 12.6776L243.76 13.1H244.202V12.5ZM242.442 6.82031L243.016 6.64274L241.842 6.82031H242.442ZM242.442 14.7598V15.3598H243.042V14.7598H242.442ZM239.922 14.7598H239.322V15.3598H239.922V14.7598ZM239.922 0.200195V-0.399805H239.322V0.200195H239.922ZM242.462 0.200195L243.031 0.00957716L242.894 -0.399805L242.462 -0.399805V0.200195ZM263.821 8.13965L263.252 8.33027L263.823 10.0348L264.391 8.32894L263.821 8.13965ZM266.461 0.200195V-0.399805H266.028L265.892 0.0108999L266.461 0.200195ZM269.001 0.200195H269.601V-0.399805H269.001V0.200195ZM269.001 14.7598V15.3598H269.601V14.7598H269.001ZM266.481 14.7598H265.881V15.3598H266.481V14.7598ZM266.481 6.82031H267.081L265.908 6.64274L266.481 6.82031ZM264.722 12.5V13.1H265.164L265.295 12.6776L264.722 12.5ZM262.901 12.5L262.328 12.6776L262.459 13.1H262.901V12.5ZM261.142 6.82031L261.715 6.64274L260.542 6.82031H261.142ZM261.142 14.7598V15.3598H261.742V14.7598H261.142ZM258.621 14.7598H258.021V15.3598H258.621V14.7598ZM258.621 0.200195V-0.399805H258.021V0.200195H258.621ZM261.161 0.200195L261.73 0.00957716L261.593 -0.399805L261.161 -0.399805V0.200195ZM285.021 14.7598V15.3598H285.761L285.608 14.6356L285.021 14.7598ZM282.44 14.7598L281.851 14.8704L281.942 15.3598H282.44V14.7598ZM281.9 11.8799L282.49 11.7693L282.398 11.2799H281.9V11.8799ZM279.46 11.8799V11.2799H278.962L278.87 11.7695L279.46 11.8799ZM278.921 14.7598V15.3598H279.419L279.511 14.8702L278.921 14.7598ZM276.341 14.7598L275.754 14.6356L275.601 15.3598H276.341V14.7598ZM279.421 0.200195V-0.399805H278.935L278.834 0.0760136L279.421 0.200195ZM281.94 0.200195L282.527 0.0760136L282.427 -0.399805H281.94V0.200195ZM294.888 6.33984H294.288L295.435 6.58583L294.888 6.33984ZM297.647 0.200195V-0.399805H297.259L297.1 -0.0457955L297.647 0.200195ZM300.447 0.200195L300.985 0.466379L301.414 -0.399805H300.447V0.200195ZM297.487 6.17969L296.95 5.9135L296.828 6.1591L296.934 6.41181L297.487 6.17969ZM301.087 14.7598V15.3598H301.989L301.64 14.5276L301.087 14.7598ZM298.348 14.7598L297.789 14.979L297.939 15.3598H298.348V14.7598ZM296.087 9L296.645 8.78078L296.153 7.52592L295.55 8.73176L296.087 9ZM294.888 11.3994L294.351 11.1312L294.288 11.2578V11.3994H294.888ZM294.888 14.7598V15.3598H295.488V14.7598H294.888ZM292.367 14.7598H291.767V15.3598H292.367V14.7598ZM292.367 0.200195V-0.399805H291.767V0.200195H292.367ZM294.888 0.200195H295.488V-0.399805H294.888V0.200195ZM310.989 14.7598V15.3598H311.589V14.7598H310.989ZM308.469 14.7598H307.869V15.3598H308.469V14.7598ZM308.469 7.0957V6.4957H307.869V7.0957H308.469ZM310.989 7.0957H311.589V6.4957H310.989V7.0957ZM325.076 8.16016L324.52 8.38514L325.676 8.16016H325.076ZM325.076 0.200195V-0.399805H324.476V0.200195H325.076ZM327.596 0.200195H328.196V-0.399805H327.596V0.200195ZM327.596 14.7598V15.3598H328.196V14.7598H327.596ZM325.076 14.7598L324.52 14.9848L324.672 15.3598H325.076V14.7598ZM321.856 6.7998L322.413 6.57482L321.256 6.7998H321.856ZM321.856 14.7598V15.3598H322.456V14.7598H321.856ZM319.336 14.7598H318.736V15.3598H319.336V14.7598ZM319.336 0.200195V-0.399805H318.736V0.200195H319.336ZM321.856 0.200195L322.413 -0.0247905L322.261 -0.399805H321.856V0.200195ZM94.1553 9.35938L93.5653 9.25004L93.4339 9.95938H94.1553V9.35938ZM95.6748 9.35938V9.95938H96.3962L96.2648 9.25004L95.6748 9.35938ZM94.915 5.25977L95.505 5.15043H94.3251L94.915 5.25977ZM279.921 9.35938L279.331 9.25004L279.199 9.95938H279.921V9.35938ZM281.44 9.35938V9.95938H282.162L282.03 9.25004L281.44 9.35938ZM280.681 5.25977L281.271 5.15043H280.091L280.681 5.25977ZM164.073 9.0957V9.6957H164.673V9.0957H164.073ZM161.553 9.0957H160.953V9.6957H161.553V9.0957ZM161.553 8.0957V7.4957H160.953V8.0957H161.553ZM164.073 8.0957H164.673V7.4957H164.073V8.0957ZM168.933 9.0957V9.6957H169.533V9.0957H168.933ZM166.413 9.0957H165.813V9.6957H166.413V9.0957ZM166.413 8.0957V7.4957H165.813V8.0957H166.413ZM168.933 8.0957H169.533V7.4957H168.933V8.0957ZM81.5088 8.0957V8.6957H82.1088V8.0957H81.5088ZM78.9893 8.0957H78.3893V8.6957H78.9893V8.0957ZM78.9893 7.0957V6.4957H78.3893V7.0957H78.9893ZM81.5088 7.0957H82.1088V6.4957H81.5088V7.0957ZM164.073 7.0957V7.6957H164.673V7.0957H164.073ZM161.553 7.0957H160.953V7.6957H161.553V7.0957ZM161.553 6.0957V5.4957H160.953V6.0957H161.553ZM164.073 6.0957H164.673V5.4957H164.073V6.0957ZM168.933 7.0957V7.6957H169.533V7.0957H168.933ZM166.413 7.0957H165.813V7.6957H166.413V7.0957ZM166.413 6.0957V5.4957H165.813V6.0957H166.413ZM168.933 6.0957H169.533V5.4957H168.933V6.0957ZM81.5088 6.0957V6.6957H82.1088V6.0957H81.5088ZM78.9893 6.0957H78.3893V6.6957H78.9893V6.0957ZM78.9893 5.0957V4.4957H78.3893V5.0957H78.9893ZM81.5088 5.0957H82.1088V4.4957H81.5088V5.0957ZM310.989 6.0957V6.6957H311.589V6.0957H310.989ZM308.469 6.0957H307.869V6.6957H308.469V6.0957ZM308.469 5.0957V4.4957H307.869V5.0957H308.469ZM310.989 5.0957H311.589V4.4957H310.989V5.0957ZM165.233 0L165.233 -0.6H165.233V0ZM167.853 1.08008L168.277 0.655814L168.277 0.655801L167.853 1.08008ZM168.933 3.67969L169.533 3.67969L169.533 3.67966L168.933 3.67969ZM168.933 5.0957V5.6957H169.533V5.0957H168.933ZM166.413 5.0957H165.813V5.6957H166.413V5.0957ZM166.413 3.67969L167.013 3.67969L167.013 3.67961L166.413 3.67969ZM166.073 2.85938L166.498 2.43511L166.497 2.43507L166.073 2.85938ZM165.233 2.51953L165.234 1.91953H165.233V2.51953ZM164.413 2.85938L163.989 2.43498L163.989 2.43511L164.413 2.85938ZM164.073 3.67969L163.473 3.67961V3.67969H164.073ZM164.073 5.0957V5.6957H164.673V5.0957H164.073ZM161.553 5.0957H160.953V5.6957H161.553V5.0957ZM161.553 3.67969L160.953 3.67966V3.67969H161.553ZM162.633 1.08008L162.209 0.655814L162.209 0.655839L162.633 1.08008ZM84.0088 2.71973V3.31973H84.6088V2.71973H84.0088ZM81.5088 2.71973V2.11973H80.9088V2.71973H81.5088ZM81.5088 4.0957V4.6957H82.1088V4.0957H81.5088ZM78.9893 4.0957H78.3893V4.6957H78.9893V4.0957ZM78.9893 2.71973H79.5893V2.11973H78.9893V2.71973ZM76.4893 2.71973H75.8893V3.31973H76.4893V2.71973ZM76.4893 0.200195V-0.399805H75.8893V0.200195H76.4893ZM84.0088 0.200195H84.6088V-0.399805H84.0088V0.200195ZM310.989 4.0957V4.6957H311.589V4.0957H310.989ZM308.469 4.0957H307.869V4.6957H308.469V4.0957ZM308.469 3.0957V2.4957H307.869V3.0957H308.469ZM310.989 3.0957H311.589V2.4957H310.989V3.0957ZM310.989 2.0957V2.6957H311.589V2.0957H310.989ZM308.469 2.0957H307.869V2.6957H308.469V2.0957ZM308.469 0.200195V-0.399805H307.869V0.200195H308.469ZM310.989 0.200195H311.589V-0.399805H310.989V0.200195ZM44.0596 2.71973V2.11973H39.8799V2.71973V3.31973H44.0596V2.71973ZM39.8799 2.71973H39.2799V5.93945H39.8799H40.4799V2.71973H39.8799ZM39.8799 5.93945L40.1481 6.47614C40.5041 6.29824 40.9362 6.19961 41.46 6.19961V5.59961V4.99961C40.7841 4.99961 40.1622 5.12756 39.6116 5.40276L39.8799 5.93945ZM41.46 5.59961L41.4599 6.19961C42.0216 6.19966 42.4822 6.39037 42.8756 6.78367L43.2998 6.35938L43.724 5.93508C43.1043 5.31541 42.3379 4.99969 41.46 4.99961L41.46 5.59961ZM43.2998 6.35938L42.8755 6.78364C43.2688 7.17693 43.4596 7.63811 43.4596 8.2002H44.0596H44.6596C44.6596 7.32228 44.3441 6.55515 43.7241 5.93511L43.2998 6.35938ZM44.0596 8.2002H43.4596V11.6201H44.0596H44.6596V8.2002H44.0596ZM44.0596 11.6201L43.4596 11.6201C43.4595 12.376 43.1929 13.0086 42.6396 13.551L43.0596 13.9795L43.4795 14.408C44.2592 13.6438 44.6595 12.7039 44.6596 11.6202L44.0596 11.6201ZM43.0596 13.9795L42.6353 13.5552C42.0938 14.0967 41.4592 14.36 40.6992 14.36V14.96V15.56C41.7793 15.56 42.7186 15.169 43.4838 14.4038L43.0596 13.9795ZM40.6992 14.96L40.6993 14.36C39.9396 14.3599 39.3056 14.0967 38.7641 13.5552L38.3398 13.9795L37.9156 14.4038C38.6806 15.1688 39.6192 15.5598 40.6991 15.56L40.6992 14.96ZM38.3398 13.9795L38.7641 13.5552C38.2226 13.0137 37.9594 12.3797 37.9594 11.6201L37.3594 11.6201L36.7594 11.6202C36.7594 12.7002 37.1506 13.6387 37.9156 14.4037L38.3398 13.9795ZM37.3594 11.6201H37.9594V10.6201H37.3594H36.7594V11.6201H37.3594ZM37.3594 10.6201V11.2201H39.8799V10.6201V10.0201H37.3594V10.6201ZM39.8799 10.6201H39.2799V11.6201H39.8799H40.4799V10.6201H39.8799ZM39.8799 11.6201L39.2799 11.6203C39.28 12.0058 39.4234 12.352 39.6959 12.6245L40.1201 12.2002L40.5444 11.7759C40.497 11.7286 40.4799 11.6875 40.4799 11.62L39.8799 11.6201ZM40.1201 12.2002L39.6961 12.6247C39.969 12.8973 40.3147 13.0393 40.6989 13.0395L40.6992 12.4395L40.6995 11.8395C40.6312 11.8394 40.5909 11.8224 40.5441 11.7757L40.1201 12.2002ZM40.6992 12.4395V13.0395C41.0858 13.0395 41.443 12.9055 41.724 12.6245L41.2998 12.2002L40.8756 11.7759C40.8367 11.8148 40.7926 11.8395 40.6992 11.8395V12.4395ZM41.2998 12.2002L41.7241 12.6245C41.9966 12.352 42.1399 12.0058 42.14 11.6203L41.54 11.6201L40.94 11.62C40.94 11.6875 40.9229 11.7286 40.8755 11.7759L41.2998 12.2002ZM41.54 11.6201H42.14V8.7998H41.54H40.94V11.6201H41.54ZM41.54 8.7998L42.14 8.79978C42.14 8.41061 42.0032 8.05525 41.7242 7.77609L41.2998 8.2002L40.8754 8.6243C40.9161 8.66504 40.94 8.70928 40.94 8.79983L41.54 8.7998ZM41.2998 8.2002L41.7241 7.77593C41.4442 7.49605 41.0876 7.35996 40.6992 7.35996V7.95996V8.55996C40.7908 8.55996 40.8354 8.58434 40.8755 8.62446L41.2998 8.2002ZM40.6992 7.95996L40.6989 7.35996C40.3129 7.36014 39.9678 7.50402 39.6959 7.7759L40.1201 8.2002L40.5443 8.62449C40.5922 8.57665 40.6327 8.55999 40.6995 8.55996L40.6992 7.95996ZM40.1201 8.2002L39.6959 7.77593C39.4165 8.05531 39.2799 8.41067 39.2799 8.79978L39.8799 8.7998L40.4799 8.79983C40.4799 8.70898 40.5038 8.66506 40.5444 8.62446L40.1201 8.2002ZM39.8799 8.7998V8.1998H37.3594V8.7998V9.3998H39.8799V8.7998ZM37.3594 8.7998H37.9594V0.200195H37.3594H36.7594V8.7998H37.3594ZM37.3594 0.200195V0.800195H44.0596V0.200195V-0.399805H37.3594V0.200195ZM44.0596 0.200195H43.4596V2.71973H44.0596H44.6596V0.200195H44.0596ZM65.583 0L65.583 0.6C66.4519 0.600043 67.1725 0.897966 67.7789 1.50434L68.2031 1.08008L68.6274 0.655814C67.7939 -0.177709 66.7672 -0.599941 65.583 -0.6L65.583 0ZM68.2031 1.08008L67.7788 1.5043C68.3868 2.11241 68.6832 2.82668 68.6832 3.67971L69.2832 3.67969L69.8832 3.67966C69.8832 2.50643 69.459 1.48756 68.6274 0.655853L68.2031 1.08008ZM69.2832 3.67969H68.6832V4.33984H69.2832H69.8832V3.67969H69.2832ZM69.2832 4.33984V3.73984H66.7627V4.33984V4.93984H69.2832V4.33984ZM66.7627 4.33984H67.3627V3.67969H66.7627H66.1627V4.33984H66.7627ZM66.7627 3.67969L67.3627 3.67961C67.3626 3.20074 67.1864 2.77436 66.8471 2.43511L66.4229 2.85938L65.9986 3.28364C66.1126 3.39765 66.1627 3.51878 66.1627 3.67976L66.7627 3.67969ZM66.4229 2.85938L66.847 2.43502C66.503 2.09114 66.0681 1.9196 65.5831 1.91953L65.583 2.51953L65.5829 3.11953C65.7642 3.11956 65.8896 3.17466 65.9987 3.28373L66.4229 2.85938ZM65.583 2.51953V1.91953C65.1039 1.91953 64.6776 2.09606 64.3385 2.43503L64.7627 2.85938L65.1869 3.28372C65.301 3.16961 65.4222 3.11953 65.583 3.11953V2.51953ZM64.7627 2.85938L64.3384 2.43511C63.9992 2.77436 63.8229 3.20074 63.8229 3.67961L64.4229 3.67969L65.0229 3.67976C65.0229 3.51878 65.0729 3.39765 65.187 3.28364L64.7627 2.85938ZM64.4229 3.67969H63.8229V3.91992H64.4229H65.0229V3.67969H64.4229ZM64.4229 3.91992L63.8229 3.91994C63.8229 4.68818 64.1146 5.34504 64.6948 5.83739L65.083 5.37988L65.4712 4.92238C65.1715 4.66809 65.0229 4.3516 65.0229 3.9199L64.4229 3.91992ZM65.083 5.37988L64.6925 5.83542L67.3527 8.1157L67.7432 7.66016L68.1337 7.20461L65.4735 4.92434L65.083 5.37988ZM67.7432 7.66016L67.346 8.10985C68.246 8.90487 68.6832 9.869 68.6832 11.04H69.2832H69.8832C69.8832 9.51806 69.2931 8.22867 68.1404 7.21046L67.7432 7.66016ZM69.2832 11.04H68.6832V11.2803H69.2832H69.8832V11.04H69.2832ZM69.2832 11.2803L68.6832 11.2802C68.6831 12.1333 68.3868 12.8476 67.7788 13.4556L68.2031 13.8799L68.6274 14.3041C69.459 13.4724 69.8831 12.4534 69.8832 11.2803L69.2832 11.2803ZM68.2031 13.8799L67.7789 13.4556C67.1725 14.062 66.4519 14.3599 65.583 14.36L65.583 14.96L65.583 15.56C66.7672 15.5599 67.7939 15.1377 68.6274 14.3041L68.2031 13.8799ZM65.583 14.96V14.36C64.7296 14.36 64.0147 14.0637 63.4067 13.4556L62.9824 13.8799L62.5582 14.3041C63.3901 15.1361 64.4098 15.56 65.583 15.56V14.96ZM62.9824 13.8799L63.4067 13.4556C62.7988 12.8476 62.5024 12.1333 62.5023 11.2802L61.9023 11.2803L61.3023 11.2803C61.3025 12.4534 61.7265 13.4724 62.5581 14.3041L62.9824 13.8799ZM61.9023 11.2803H62.5023V10.6201H61.9023H61.3023V11.2803H61.9023ZM61.9023 10.6201V11.2201H64.4229V10.6201V10.0201H61.9023V10.6201ZM64.4229 10.6201H63.8229V11.2803H64.4229H65.0229V10.6201H64.4229ZM64.4229 11.2803L63.8229 11.2805C63.823 11.7596 63.9997 12.1851 64.3384 12.5238L64.7627 12.0996L65.187 11.6754C65.0727 11.5611 65.0229 11.4404 65.0229 11.2801L64.4229 11.2803ZM64.7627 12.0996L64.3384 12.5239C64.6777 12.8631 65.104 13.0395 65.583 13.0395V12.4395V11.8395C65.4221 11.8395 65.3011 11.7894 65.187 11.6753L64.7627 12.0996ZM65.583 12.4395L65.5831 13.0395C66.0681 13.0394 66.5029 12.8681 66.8471 12.5239L66.4229 12.0996L65.9986 11.6753C65.8895 11.7844 65.7644 11.8394 65.5829 11.8395L65.583 12.4395ZM66.4229 12.0996L66.8472 12.5238C67.1858 12.1851 67.3625 11.7596 67.3627 11.2805L66.7627 11.2803L66.1627 11.2801C66.1626 11.4404 66.1128 11.5611 65.9985 11.6754L66.4229 12.0996ZM66.7627 11.2803H67.3627V11.04H66.7627H66.1627V11.2803H66.7627ZM66.7627 11.04H67.3627C67.3627 10.2717 67.071 9.61492 66.4907 9.12257L66.1025 9.58008L65.7144 10.0376C66.0141 10.2919 66.1627 10.6083 66.1627 11.04H66.7627ZM66.1025 9.58008L66.493 9.12454L63.8329 6.84426L63.4424 7.2998L63.0519 7.75535L65.7121 10.0356L66.1025 9.58008ZM63.4424 7.2998L63.8396 6.8501C62.9395 6.0551 62.5024 5.09099 62.5023 3.91991L61.9023 3.91992L61.3023 3.91993C61.3024 5.4419 61.8923 6.73128 63.0452 7.74951L63.4424 7.2998ZM61.9023 3.91992H62.5023V3.67969H61.9023H61.3023V3.91992H61.9023ZM61.9023 3.67969L62.5023 3.67971C62.5024 2.82669 62.7987 2.1124 63.4067 1.5043L62.9824 1.08008L62.5581 0.655855C61.7266 1.48756 61.3024 2.50643 61.3023 3.67966L61.9023 3.67969ZM62.9824 1.08008L63.4067 1.50434C64.0147 0.896301 64.7296 0.6 65.583 0.6V0V-0.6C64.4098 -0.6 63.3901 -0.176145 62.5582 0.655814L62.9824 1.08008ZM110.202 0L110.202 0.6C111.071 0.600089 111.791 0.89797 112.397 1.50435L112.821 1.08008L113.246 0.655801C112.412 -0.177482 111.386 -0.599878 110.202 -0.6L110.202 0ZM112.821 1.08008L112.397 1.50434C113.005 2.11245 113.301 2.82651 113.301 3.67971L113.901 3.67969L114.501 3.67966C114.501 2.50634 114.077 1.48762 113.246 0.655814L112.821 1.08008ZM113.901 3.67969H113.301V4.33984H113.901H114.501V3.67969H113.901ZM113.901 4.33984V3.73984H111.382V4.33984V4.93984H113.901V4.33984ZM111.382 4.33984H111.982V3.67969H111.382H110.782V4.33984H111.382ZM111.382 3.67969L111.982 3.67961C111.982 3.20074 111.806 2.77436 111.466 2.43511L111.042 2.85938L110.618 3.28364C110.732 3.39765 110.782 3.51878 110.782 3.67976L111.382 3.67969ZM111.042 2.85938L111.466 2.43507C111.122 2.09102 110.687 1.91968 110.202 1.91953L110.202 2.51953L110.202 3.11953C110.383 3.11959 110.509 3.17472 110.618 3.28368L111.042 2.85938ZM110.202 2.51953V1.91953C109.723 1.91953 109.297 2.09618 108.958 2.43498L109.382 2.85938L109.806 3.28377C109.92 3.16965 110.042 3.11953 110.202 3.11953V2.51953ZM109.382 2.85938L108.958 2.43511C108.618 2.77436 108.442 3.20074 108.442 3.67961L109.042 3.67969L109.642 3.67976C109.642 3.51878 109.692 3.39765 109.806 3.28364L109.382 2.85938ZM109.042 3.67969H108.442V11.2803H109.042H109.642V3.67969H109.042ZM109.042 11.2803L108.442 11.2805C108.442 11.7596 108.619 12.185 108.958 12.5239L109.382 12.0996L109.806 11.6754C109.692 11.5611 109.642 11.4405 109.642 11.2801L109.042 11.2803ZM109.382 12.0996L108.958 12.5239C109.297 12.8631 109.723 13.0395 110.202 13.0395V12.4395V11.8395C110.041 11.8395 109.92 11.7894 109.806 11.6753L109.382 12.0996ZM110.202 12.4395L110.202 13.0395C110.687 13.0393 111.122 12.8681 111.466 12.5239L111.042 12.0996L110.618 11.6753C110.509 11.7843 110.383 11.8394 110.202 11.8395L110.202 12.4395ZM111.042 12.0996L111.466 12.5238C111.805 12.1851 111.982 11.7596 111.982 11.2805L111.382 11.2803L110.782 11.2801C110.782 11.4403 110.732 11.5611 110.618 11.6755L111.042 12.0996ZM111.382 11.2803H111.982V8.47949H111.382H110.782V11.2803H111.382ZM111.382 8.47949V7.87949H109.922V8.47949V9.07949H111.382V8.47949ZM109.922 8.47949H110.522V5.95996H109.922H109.322V8.47949H109.922ZM109.922 5.95996V6.55996H113.901V5.95996V5.35996H109.922V5.95996ZM113.901 5.95996H113.301V11.2803H113.901H114.501V5.95996H113.901ZM113.901 11.2803L113.301 11.2802C113.301 12.1334 113.005 12.8476 112.397 13.4556L112.821 13.8799L113.246 14.3041C114.077 13.4724 114.501 12.4535 114.501 11.2803L113.901 11.2803ZM112.821 13.8799L112.397 13.4556C111.791 14.0619 111.071 14.3599 110.202 14.36L110.202 14.96L110.202 15.56C111.386 15.5598 112.412 15.1373 113.246 14.3042L112.821 13.8799ZM110.202 14.96V14.36C109.349 14.36 108.634 14.0637 108.026 13.4556L107.602 13.8799L107.177 14.3041C108.009 15.1361 109.029 15.56 110.202 15.56V14.96ZM107.602 13.8799L108.026 13.4556C107.418 12.8476 107.122 12.1333 107.121 11.2802L106.521 11.2803L105.921 11.2803C105.922 12.4535 106.346 13.4724 107.177 14.3041L107.602 13.8799ZM106.521 11.2803H107.121V3.67969H106.521H105.921V11.2803H106.521ZM106.521 3.67969L107.121 3.67971C107.122 2.82662 107.418 2.11242 108.026 1.50432L107.602 1.08008L107.177 0.655839C106.346 1.48758 105.922 2.5064 105.921 3.67966L106.521 3.67969ZM107.602 1.08008L108.026 1.50434C108.634 0.896301 109.349 0.6 110.202 0.6V0V-0.6C109.029 -0.6 108.009 -0.176146 107.177 0.655814L107.602 1.08008ZM139.919 0L139.919 0.6C140.788 0.600043 141.508 0.897966 142.115 1.50434L142.539 1.08008L142.963 0.655814C142.13 -0.177709 141.103 -0.599941 139.919 -0.6L139.919 0ZM142.539 1.08008L142.115 1.5043C142.723 2.11241 143.019 2.82668 143.019 3.67971L143.619 3.67969L144.219 3.67966C144.219 2.50643 143.795 1.48756 142.963 0.655853L142.539 1.08008ZM143.619 3.67969H143.019V4.33984H143.619H144.219V3.67969H143.619ZM143.619 4.33984V3.73984H141.099V4.33984V4.93984H143.619V4.33984ZM141.099 4.33984H141.699V3.67969H141.099H140.499V4.33984H141.099ZM141.099 3.67969L141.699 3.67961C141.699 3.20074 141.522 2.77436 141.183 2.43511L140.759 2.85938L140.335 3.28364C140.449 3.39765 140.499 3.51878 140.499 3.67976L141.099 3.67969ZM140.759 2.85938L141.183 2.43502C140.839 2.09114 140.404 1.9196 139.919 1.91953L139.919 2.51953L139.919 3.11953C140.1 3.11956 140.225 3.17466 140.335 3.28373L140.759 2.85938ZM139.919 2.51953V1.91953C139.44 1.91953 139.014 2.09606 138.674 2.43503L139.099 2.85938L139.523 3.28372C139.637 3.16961 139.758 3.11953 139.919 3.11953V2.51953ZM139.099 2.85938L138.674 2.43511C138.335 2.77436 138.159 3.20074 138.159 3.67961L138.759 3.67969L139.359 3.67976C139.359 3.51878 139.409 3.39765 139.523 3.28364L139.099 2.85938ZM138.759 3.67969H138.159V3.91992H138.759H139.359V3.67969H138.759ZM138.759 3.91992L138.159 3.91994C138.159 4.68818 138.45 5.34504 139.031 5.83739L139.419 5.37988L139.807 4.92238C139.507 4.66809 139.359 4.3516 139.359 3.9199L138.759 3.91992ZM139.419 5.37988L139.028 5.83542L141.689 8.1157L142.079 7.66016L142.47 7.20461L139.809 4.92434L139.419 5.37988ZM142.079 7.66016L141.682 8.10985C142.582 8.90487 143.019 9.869 143.019 11.04H143.619H144.219C144.219 9.51806 143.629 8.22867 142.476 7.21046L142.079 7.66016ZM143.619 11.04H143.019V11.2803H143.619H144.219V11.04H143.619ZM143.619 11.2803L143.019 11.2802C143.019 12.1333 142.723 12.8476 142.115 13.4556L142.539 13.8799L142.963 14.3041C143.795 13.4724 144.219 12.4534 144.219 11.2803L143.619 11.2803ZM142.539 13.8799L142.115 13.4556C141.508 14.062 140.788 14.3599 139.919 14.36L139.919 14.96L139.919 15.56C141.103 15.5599 142.13 15.1377 142.963 14.3041L142.539 13.8799ZM139.919 14.96V14.36C139.066 14.36 138.351 14.0637 137.743 13.4556L137.318 13.8799L136.894 14.3041C137.726 15.1361 138.746 15.56 139.919 15.56V14.96ZM137.318 13.8799L137.743 13.4556C137.135 12.8476 136.838 12.1333 136.838 11.2802L136.238 11.2803L135.638 11.2803C135.638 12.4534 136.062 13.4724 136.894 14.3041L137.318 13.8799ZM136.238 11.2803H136.838V10.6201H136.238H135.638V11.2803H136.238ZM136.238 10.6201V11.2201H138.759V10.6201V10.0201H136.238V10.6201ZM138.759 10.6201H138.159V11.2803H138.759H139.359V10.6201H138.759ZM138.759 11.2803L138.159 11.2805C138.159 11.7596 138.336 12.1851 138.674 12.5238L139.099 12.0996L139.523 11.6754C139.409 11.5611 139.359 11.4404 139.359 11.2801L138.759 11.2803ZM139.099 12.0996L138.674 12.5239C139.014 12.8631 139.44 13.0395 139.919 13.0395V12.4395V11.8395C139.758 11.8395 139.637 11.7894 139.523 11.6753L139.099 12.0996ZM139.919 12.4395L139.919 13.0395C140.404 13.0394 140.839 12.8681 141.183 12.5239L140.759 12.0996L140.335 11.6753C140.225 11.7844 140.1 11.8394 139.919 11.8395L139.919 12.4395ZM140.759 12.0996L141.183 12.5238C141.522 12.1851 141.698 11.7596 141.699 11.2805L141.099 11.2803L140.499 11.2801C140.499 11.4404 140.449 11.5611 140.334 11.6754L140.759 12.0996ZM141.099 11.2803H141.699V11.04H141.099H140.499V11.2803H141.099ZM141.099 11.04H141.699C141.699 10.2717 141.407 9.61492 140.827 9.12257L140.438 9.58008L140.05 10.0376C140.35 10.2919 140.499 10.6083 140.499 11.04H141.099ZM140.438 9.58008L140.829 9.12454L138.169 6.84426L137.778 7.2998L137.388 7.75535L140.048 10.0356L140.438 9.58008ZM137.778 7.2998L138.176 6.8501C137.275 6.0551 136.838 5.09099 136.838 3.91991L136.238 3.91992L135.638 3.91993C135.638 5.4419 136.228 6.73128 137.381 7.74951L137.778 7.2998ZM136.238 3.91992H136.838V3.67969H136.238H135.638V3.91992H136.238ZM136.238 3.67969L136.838 3.67971C136.838 2.82669 137.135 2.1124 137.743 1.5043L137.318 1.08008L136.894 0.655855C136.063 1.48756 135.638 2.50643 135.638 3.67966L136.238 3.67969ZM137.318 1.08008L137.743 1.50434C138.351 0.896301 139.066 0.6 139.919 0.6V0V-0.6C138.746 -0.6 137.726 -0.176145 136.894 0.655814L137.318 1.08008ZM164.073 11.2803L163.473 11.2805C163.473 11.7596 163.65 12.185 163.989 12.5239L164.413 12.0996L164.837 11.6754C164.723 11.5611 164.673 11.4405 164.673 11.2801L164.073 11.2803ZM164.413 12.0996L163.989 12.5239C164.328 12.8631 164.754 13.0395 165.233 13.0395V12.4395V11.8395C165.072 11.8395 164.951 11.7894 164.837 11.6753L164.413 12.0996ZM165.233 12.4395L165.234 13.0395C165.718 13.0393 166.153 12.8681 166.498 12.5239L166.073 12.0996L165.649 11.6753C165.54 11.7843 165.415 11.8394 165.233 11.8395L165.233 12.4395ZM166.073 12.0996L166.498 12.5238C166.836 12.1851 167.013 11.7596 167.013 11.2805L166.413 11.2803L165.813 11.2801C165.813 11.4403 165.763 11.5611 165.649 11.6755L166.073 12.0996ZM166.413 11.2803H167.013V10.0957H166.413H165.813V11.2803H166.413ZM166.413 10.0957V10.6957H168.933V10.0957V9.4957H166.413V10.0957ZM168.933 10.0957H168.333V11.2803H168.933H169.533V10.0957H168.933ZM168.933 11.2803L168.333 11.2802C168.333 12.1334 168.036 12.8476 167.428 13.4556L167.853 13.8799L168.277 14.3041C169.109 13.4724 169.533 12.4535 169.533 11.2803L168.933 11.2803ZM167.853 13.8799L167.428 13.4556C166.822 14.0619 166.102 14.3599 165.233 14.36L165.233 14.96L165.233 15.56C166.418 15.5598 167.443 15.1373 168.277 14.3042L167.853 13.8799ZM165.233 14.96V14.36C164.38 14.36 163.665 14.0637 163.057 13.4556L162.633 13.8799L162.209 14.3041C163.041 15.1361 164.06 15.56 165.233 15.56V14.96ZM162.633 13.8799L163.057 13.4556C162.449 12.8476 162.153 12.1333 162.153 11.2802L161.553 11.2803L160.953 11.2803C160.953 12.4535 161.377 13.4724 162.209 14.3041L162.633 13.8799ZM161.553 11.2803H162.153V10.0957H161.553H160.953V11.2803H161.553ZM161.553 10.0957V10.6957H164.073V10.0957V9.4957H161.553V10.0957ZM164.073 10.0957H163.473V11.2803H164.073H164.673V10.0957H164.073ZM339.526 0L339.526 0.6C340.395 0.600089 341.115 0.89797 341.721 1.50435L342.146 1.08008L342.57 0.655801C341.736 -0.177482 340.711 -0.599878 339.526 -0.6L339.526 0ZM342.146 1.08008L341.721 1.50434C342.329 2.11245 342.626 2.82651 342.626 3.67971L343.226 3.67969L343.826 3.67966C343.826 2.50634 343.402 1.48762 342.57 0.655814L342.146 1.08008ZM343.226 3.67969H342.626V4.33984H343.226H343.826V3.67969H343.226ZM343.226 4.33984V3.73984H340.706V4.33984V4.93984H343.226V4.33984ZM340.706 4.33984H341.306V3.67969H340.706H340.106V4.33984H340.706ZM340.706 3.67969L341.306 3.67961C341.306 3.20074 341.13 2.77436 340.79 2.43511L340.366 2.85938L339.942 3.28364C340.056 3.39765 340.106 3.51878 340.106 3.67976L340.706 3.67969ZM340.366 2.85938L340.79 2.43507C340.446 2.09102 340.011 1.91968 339.527 1.91953L339.526 2.51953L339.526 3.11953C339.708 3.11959 339.833 3.17472 339.942 3.28368L340.366 2.85938ZM339.526 2.51953V1.91953C339.047 1.91953 338.621 2.09618 338.282 2.43498L338.706 2.85938L339.13 3.28377C339.244 3.16965 339.366 3.11953 339.526 3.11953V2.51953ZM338.706 2.85938L338.282 2.43511C337.943 2.77436 337.766 3.20074 337.766 3.67961L338.366 3.67969L338.966 3.67976C338.966 3.51878 339.016 3.39765 339.13 3.28364L338.706 2.85938ZM338.366 3.67969H337.766V11.2803H338.366H338.966V3.67969H338.366ZM338.366 11.2803L337.766 11.2805C337.766 11.7596 337.943 12.185 338.282 12.5239L338.706 12.0996L339.13 11.6754C339.016 11.5611 338.966 11.4405 338.966 11.2801L338.366 11.2803ZM338.706 12.0996L338.282 12.5239C338.621 12.8631 339.047 13.0395 339.526 13.0395V12.4395V11.8395C339.365 11.8395 339.244 11.7894 339.13 11.6753L338.706 12.0996ZM339.526 12.4395L339.527 13.0395C340.011 13.0393 340.446 12.8681 340.79 12.5239L340.366 12.0996L339.942 11.6753C339.833 11.7843 339.708 11.8394 339.526 11.8395L339.526 12.4395ZM340.366 12.0996L340.791 12.5238C341.129 12.1851 341.306 11.7596 341.306 11.2805L340.706 11.2803L340.106 11.2801C340.106 11.4403 340.056 11.5611 339.942 11.6755L340.366 12.0996ZM340.706 11.2803H341.306V8.47949H340.706H340.106V11.2803H340.706ZM340.706 8.47949V7.87949H339.246V8.47949V9.07949H340.706V8.47949ZM339.246 8.47949H339.846V5.95996H339.246H338.646V8.47949H339.246ZM339.246 5.95996V6.55996H343.226V5.95996V5.35996H339.246V5.95996ZM343.226 5.95996H342.626V11.2803H343.226H343.826V5.95996H343.226ZM343.226 11.2803L342.626 11.2802C342.626 12.1334 342.329 12.8476 341.721 13.4556L342.146 13.8799L342.57 14.3041C343.402 13.4724 343.825 12.4535 343.826 11.2803L343.226 11.2803ZM342.146 13.8799L341.721 13.4556C341.115 14.0619 340.395 14.3599 339.526 14.36L339.526 14.96L339.526 15.56C340.711 15.5598 341.736 15.1373 342.57 14.3042L342.146 13.8799ZM339.526 14.96V14.36C338.673 14.36 337.958 14.0637 337.35 13.4556L336.926 13.8799L336.502 14.3041C337.333 15.1361 338.353 15.56 339.526 15.56V14.96ZM336.926 13.8799L337.35 13.4556C336.742 12.8476 336.446 12.1333 336.446 11.2802L335.846 11.2803L335.246 11.2803C335.246 12.4535 335.67 13.4724 336.502 14.3041L336.926 13.8799ZM335.846 11.2803H336.446V3.67969H335.846H335.246V11.2803H335.846ZM335.846 3.67969L336.446 3.67971C336.446 2.82662 336.742 2.11242 337.35 1.50432L336.926 1.08008L336.501 0.655839C335.67 1.48758 335.246 2.5064 335.246 3.67966L335.846 3.67969ZM336.926 1.08008L337.35 1.50434C337.958 0.896301 338.673 0.6 339.526 0.6V0V-0.6C338.353 -0.6 337.333 -0.176146 336.502 0.655814L336.926 1.08008ZM29.1934 14.7598V14.1598H26.6738V14.7598V15.3598H29.1934V14.7598ZM26.6738 14.7598H27.2738V3.33984H26.6738H26.0738V14.7598H26.6738ZM26.6738 3.33984L26.2784 2.88857L24.338 4.58876L24.7334 5.04004L25.1288 5.49132L27.0692 3.79112L26.6738 3.33984ZM24.7334 5.04004H25.3334V1.89941H24.7334H24.1334V5.04004H24.7334ZM24.7334 1.89941L25.1287 2.35081L27.0691 0.651587L26.6738 0.200195L26.2785 -0.251196L24.3381 1.44802L24.7334 1.89941ZM26.6738 0.200195V0.800195H29.1934V0.200195V-0.399805H26.6738V0.200195ZM29.1934 0.200195H28.5934V14.7598H29.1934H29.7934V0.200195H29.1934ZM81.5088 14.7598V14.1598H78.9893V14.7598V15.3598H81.5088V14.7598ZM78.9893 14.7598H79.5893V9.0957H78.9893H78.3893V14.7598H78.9893ZM78.9893 9.0957V9.6957H81.5088V9.0957V8.4957H78.9893V9.0957ZM81.5088 9.0957H80.9088V14.7598H81.5088H82.1088V9.0957H81.5088ZM99.2549 14.7598V14.1598H96.6748V14.7598V15.3598H99.2549V14.7598ZM96.6748 14.7598L97.2645 14.6492L96.7245 11.7693L96.1348 11.8799L95.545 11.9905L96.0851 14.8704L96.6748 14.7598ZM96.1348 11.8799V11.2799H93.6943V11.8799V12.4799H96.1348V11.8799ZM93.6943 11.8799L93.1046 11.7695L92.5655 14.6494L93.1553 14.7598L93.745 14.8702L94.2841 11.9903L93.6943 11.8799ZM93.1553 14.7598V14.1598H90.5752V14.7598V15.3598H93.1553V14.7598ZM90.5752 14.7598L91.1622 14.8839L94.2423 0.324377L93.6553 0.200195L93.0683 0.0760136L89.9882 14.6356L90.5752 14.7598ZM93.6553 0.200195V0.800195H96.1748V0.200195V-0.399805H93.6553V0.200195ZM96.1748 0.200195L95.5878 0.324377L98.6679 14.8839L99.2549 14.7598L99.8419 14.6356L96.7618 0.0760136L96.1748 0.200195ZM128.757 2.71973V2.11973H124.657V2.71973V3.31973H128.757V2.71973ZM124.657 2.71973H124.057V5.95996H124.657H125.257V2.71973H124.657ZM124.657 5.95996V6.55996H128.276V5.95996V5.35996H124.657V5.95996ZM128.276 5.95996H127.676V8.47949H128.276H128.876V5.95996H128.276ZM128.276 8.47949V7.87949H124.657V8.47949V9.07949H128.276V8.47949ZM124.657 8.47949H124.057V12.2402H124.657H125.257V8.47949H124.657ZM124.657 12.2402V12.8402H128.757V12.2402V11.6402H124.657V12.2402ZM128.757 12.2402H128.157V14.7598H128.757H129.357V12.2402H128.757ZM128.757 14.7598V14.1598H122.137V14.7598V15.3598H128.757V14.7598ZM122.137 14.7598H122.737V0.200195H122.137H121.537V14.7598H122.137ZM122.137 0.200195V0.800195H128.757V0.200195V-0.399805H122.137V0.200195ZM128.757 0.200195H128.157V2.71973H128.757H129.357V0.200195H128.757ZM183.788 2.71973V2.11973H179.688V2.71973V3.31973H183.788V2.71973ZM179.688 2.71973H179.088V5.95996H179.688H180.288V2.71973H179.688ZM179.688 5.95996V6.55996H183.308V5.95996V5.35996H179.688V5.95996ZM183.308 5.95996H182.708V8.47949H183.308H183.908V5.95996H183.308ZM183.308 8.47949V7.87949H179.688V8.47949V9.07949H183.308V8.47949ZM179.688 8.47949H179.088V14.7598H179.688H180.288V8.47949H179.688ZM179.688 14.7598V14.1598H177.168V14.7598V15.3598H179.688V14.7598ZM177.168 14.7598H177.768V0.200195H177.168H176.568V14.7598H177.168ZM177.168 0.200195V0.800195H183.788V0.200195V-0.399805H177.168V0.200195ZM183.788 0.200195H183.188V2.71973H183.788H184.388V0.200195H183.788ZM208.003 2.71973V2.11973H203.903V2.71973V3.31973H208.003V2.71973ZM203.903 2.71973H203.303V5.95996H203.903H204.503V2.71973H203.903ZM203.903 5.95996V6.55996H207.522V5.95996V5.35996H203.903V5.95996ZM207.522 5.95996H206.922V8.47949H207.522H208.122V5.95996H207.522ZM207.522 8.47949V7.87949H203.903V8.47949V9.07949H207.522V8.47949ZM203.903 8.47949H203.303V14.7598H203.903H204.503V8.47949H203.903ZM203.903 14.7598V14.1598H201.383V14.7598V15.3598H203.903V14.7598ZM201.383 14.7598H201.983V0.200195H201.383H200.783V14.7598H201.383ZM201.383 0.200195V0.800195H208.003V0.200195V-0.399805H201.383V0.200195ZM208.003 0.200195H207.403V2.71973H208.003H208.603V0.200195H208.003ZM218.11 14.7598V14.1598H215.59V14.7598V15.3598H218.11V14.7598ZM215.59 14.7598H216.19V0.200195H215.59H214.99V14.7598H215.59ZM215.59 0.200195V0.800195H218.11V0.200195V-0.399805H215.59V0.200195ZM218.11 0.200195H217.51V14.7598H218.11H218.71V0.200195H218.11ZM228.978 12.2402V12.8402H232.397V12.2402V11.6402H228.978V12.2402ZM232.397 12.2402H231.797V14.7598H232.397H232.997V12.2402H232.397ZM232.397 14.7598V14.1598H226.457V14.7598V15.3598H232.397V14.7598ZM226.457 14.7598H227.057V0.200195H226.457H225.857V14.7598H226.457ZM226.457 0.200195V0.800195H228.978V0.200195V-0.399805H226.457V0.200195ZM228.978 0.200195H228.378V12.2402H228.978H229.578V0.200195H228.978ZM245.122 8.13965L245.691 8.32894L248.331 0.389491L247.762 0.200195L247.192 0.0108999L244.553 7.95035L245.122 8.13965ZM247.762 0.200195V0.800195H250.302V0.200195V-0.399805H247.762V0.200195ZM250.302 0.200195H249.702V14.7598H250.302H250.902V0.200195H250.302ZM250.302 14.7598V14.1598H247.782V14.7598V15.3598H250.302V14.7598ZM247.782 14.7598H248.382V6.82031H247.782H247.182V14.7598H247.782ZM247.782 6.82031L247.209 6.64274L245.449 12.3224L246.022 12.5L246.596 12.6776L248.355 6.99789L247.782 6.82031ZM246.022 12.5V11.9H244.202V12.5V13.1H246.022V12.5ZM244.202 12.5L244.775 12.3224L243.016 6.64274L242.442 6.82031L241.869 6.99789L243.629 12.6776L244.202 12.5ZM242.442 6.82031H241.842V14.7598H242.442H243.042V6.82031H242.442ZM242.442 14.7598V14.1598H239.922V14.7598V15.3598H242.442V14.7598ZM239.922 14.7598H240.522V0.200195H239.922H239.322V14.7598H239.922ZM239.922 0.200195V0.800195H242.462V0.200195V-0.399805H239.922V0.200195ZM242.462 0.200195L241.893 0.390813L244.553 8.33027L245.122 8.13965L245.691 7.94903L243.031 0.00957716L242.462 0.200195ZM263.821 8.13965L264.391 8.32894L267.03 0.389491L266.461 0.200195L265.892 0.0108999L263.252 7.95035L263.821 8.13965ZM266.461 0.200195V0.800195H269.001V0.200195V-0.399805H266.461V0.200195ZM269.001 0.200195H268.401V14.7598H269.001H269.601V0.200195H269.001ZM269.001 14.7598V14.1598H266.481V14.7598V15.3598H269.001V14.7598ZM266.481 14.7598H267.081V6.82031H266.481H265.881V14.7598H266.481ZM266.481 6.82031L265.908 6.64274L264.149 12.3224L264.722 12.5L265.295 12.6776L267.055 6.99789L266.481 6.82031ZM264.722 12.5V11.9H262.901V12.5V13.1H264.722V12.5ZM262.901 12.5L263.474 12.3224L261.715 6.64274L261.142 6.82031L260.568 6.99789L262.328 12.6776L262.901 12.5ZM261.142 6.82031H260.542V14.7598H261.142H261.742V6.82031H261.142ZM261.142 14.7598V14.1598H258.621V14.7598V15.3598H261.142V14.7598ZM258.621 14.7598H259.221V0.200195H258.621H258.021V14.7598H258.621ZM258.621 0.200195V0.800195H261.161V0.200195V-0.399805H258.621V0.200195ZM261.161 0.200195L260.592 0.390813L263.252 8.33027L263.821 8.13965L264.39 7.94903L261.73 0.00957716L261.161 0.200195ZM285.021 14.7598V14.1598H282.44V14.7598V15.3598H285.021V14.7598ZM282.44 14.7598L283.03 14.6492L282.49 11.7693L281.9 11.8799L281.311 11.9905L281.851 14.8704L282.44 14.7598ZM281.9 11.8799V11.2799H279.46V11.8799V12.4799H281.9V11.8799ZM279.46 11.8799L278.87 11.7695L278.331 14.6494L278.921 14.7598L279.511 14.8702L280.05 11.9903L279.46 11.8799ZM278.921 14.7598V14.1598H276.341V14.7598V15.3598H278.921V14.7598ZM276.341 14.7598L276.928 14.8839L280.008 0.324377L279.421 0.200195L278.834 0.0760136L275.754 14.6356L276.341 14.7598ZM279.421 0.200195V0.800195H281.94V0.200195V-0.399805H279.421V0.200195ZM281.94 0.200195L281.353 0.324377L284.433 14.8839L285.021 14.7598L285.608 14.6356L282.527 0.0760136L281.94 0.200195ZM294.888 6.33984L295.435 6.58583L298.195 0.446186L297.647 0.200195L297.1 -0.0457955L294.34 6.09385L294.888 6.33984ZM297.647 0.200195V0.800195H300.447V0.200195V-0.399805H297.647V0.200195ZM300.447 0.200195L299.91 -0.0659879L296.95 5.9135L297.487 6.17969L298.025 6.44587L300.985 0.466379L300.447 0.200195ZM297.487 6.17969L296.934 6.41181L300.534 14.9919L301.087 14.7598L301.64 14.5276L298.041 5.94757L297.487 6.17969ZM301.087 14.7598V14.1598H298.348V14.7598V15.3598H301.087V14.7598ZM298.348 14.7598L298.906 14.5405L296.645 8.78078L296.087 9L295.528 9.21922L297.789 14.979L298.348 14.7598ZM296.087 9L295.55 8.73176L294.351 11.1312L294.888 11.3994L295.424 11.6677L296.624 9.26824L296.087 9ZM294.888 11.3994H294.288V14.7598H294.888H295.488V11.3994H294.888ZM294.888 14.7598V14.1598H292.367V14.7598V15.3598H294.888V14.7598ZM292.367 14.7598H292.967V0.200195H292.367H291.767V14.7598H292.367ZM292.367 0.200195V0.800195H294.888V0.200195V-0.399805H292.367V0.200195ZM294.888 0.200195H294.288V6.33984H294.888H295.488V0.200195H294.888ZM310.989 14.7598V14.1598H308.469V14.7598V15.3598H310.989V14.7598ZM308.469 14.7598H309.069V7.0957H308.469H307.869V14.7598H308.469ZM308.469 7.0957V7.6957H310.989V7.0957V6.4957H308.469V7.0957ZM310.989 7.0957H310.389V14.7598H310.989H311.589V7.0957H310.989ZM325.076 8.16016H325.676V0.200195H325.076H324.476V8.16016H325.076ZM325.076 0.200195V0.800195H327.596V0.200195V-0.399805H325.076V0.200195ZM327.596 0.200195H326.996V14.7598H327.596H328.196V0.200195H327.596ZM327.596 14.7598V14.1598H325.076V14.7598V15.3598H327.596V14.7598ZM325.076 14.7598L325.632 14.5348L322.413 6.57482L321.856 6.7998L321.3 7.02479L324.52 14.9848L325.076 14.7598ZM321.856 6.7998H321.256V14.7598H321.856H322.456V6.7998H321.856ZM321.856 14.7598V14.1598H319.336V14.7598V15.3598H321.856V14.7598ZM319.336 14.7598H319.936V0.200195H319.336H318.736V14.7598H319.336ZM319.336 0.200195V0.800195H321.856V0.200195V-0.399805H319.336V0.200195ZM321.856 0.200195L321.3 0.425181L324.52 8.38514L325.076 8.16016L325.632 7.93517L322.413 -0.0247905L321.856 0.200195ZM94.1553 9.35938V9.95938H95.6748V9.35938V8.75937H94.1553V9.35938ZM95.6748 9.35938L96.2648 9.25004L95.505 5.15043L94.915 5.25977L94.3251 5.3691L95.0849 9.46871L95.6748 9.35938ZM94.915 5.25977L94.3251 5.15043L93.5653 9.25004L94.1553 9.35938L94.7452 9.46871L95.505 5.3691L94.915 5.25977ZM279.921 9.35938V9.95938H281.44V9.35938V8.75937H279.921V9.35938ZM281.44 9.35938L282.03 9.25004L281.271 5.15043L280.681 5.25977L280.091 5.3691L280.85 9.46871L281.44 9.35938ZM280.681 5.25977L280.091 5.15043L279.331 9.25004L279.921 9.35938L280.511 9.46871L281.271 5.3691L280.681 5.25977ZM164.073 9.0957V8.4957H161.553V9.0957V9.6957H164.073V9.0957ZM161.553 9.0957H162.153V8.0957H161.553H160.953V9.0957H161.553ZM161.553 8.0957V8.6957H164.073V8.0957V7.4957H161.553V8.0957ZM164.073 8.0957H163.473V9.0957H164.073H164.673V8.0957H164.073ZM168.933 9.0957V8.4957H166.413V9.0957V9.6957H168.933V9.0957ZM166.413 9.0957H167.013V8.0957H166.413H165.813V9.0957H166.413ZM166.413 8.0957V8.6957H168.933V8.0957V7.4957H166.413V8.0957ZM168.933 8.0957H168.333V9.0957H168.933H169.533V8.0957H168.933ZM81.5088 8.0957V7.4957H78.9893V8.0957V8.6957H81.5088V8.0957ZM78.9893 8.0957H79.5893V7.0957H78.9893H78.3893V8.0957H78.9893ZM78.9893 7.0957V7.6957H81.5088V7.0957V6.4957H78.9893V7.0957ZM81.5088 7.0957H80.9088V8.0957H81.5088H82.1088V7.0957H81.5088ZM164.073 7.0957V6.4957H161.553V7.0957V7.6957H164.073V7.0957ZM161.553 7.0957H162.153V6.0957H161.553H160.953V7.0957H161.553ZM161.553 6.0957V6.6957H164.073V6.0957V5.4957H161.553V6.0957ZM164.073 6.0957H163.473V7.0957H164.073H164.673V6.0957H164.073ZM168.933 7.0957V6.4957H166.413V7.0957V7.6957H168.933V7.0957ZM166.413 7.0957H167.013V6.0957H166.413H165.813V7.0957H166.413ZM166.413 6.0957V6.6957H168.933V6.0957V5.4957H166.413V6.0957ZM168.933 6.0957H168.333V7.0957H168.933H169.533V6.0957H168.933ZM81.5088 6.0957V5.4957H78.9893V6.0957V6.6957H81.5088V6.0957ZM78.9893 6.0957H79.5893V5.0957H78.9893H78.3893V6.0957H78.9893ZM78.9893 5.0957V5.6957H81.5088V5.0957V4.4957H78.9893V5.0957ZM81.5088 5.0957H80.9088V6.0957H81.5088H82.1088V5.0957H81.5088ZM310.989 6.0957V5.4957H308.469V6.0957V6.6957H310.989V6.0957ZM308.469 6.0957H309.069V5.0957H308.469H307.869V6.0957H308.469ZM308.469 5.0957V5.6957H310.989V5.0957V4.4957H308.469V5.0957ZM310.989 5.0957H310.389V6.0957H310.989H311.589V5.0957H310.989ZM165.233 0L165.233 0.6C166.102 0.600089 166.822 0.89797 167.428 1.50435L167.853 1.08008L168.277 0.655801C167.443 -0.177482 166.418 -0.599878 165.233 -0.6L165.233 0ZM167.853 1.08008L167.428 1.50434C168.036 2.11245 168.333 2.82651 168.333 3.67971L168.933 3.67969L169.533 3.67966C169.533 2.50634 169.109 1.48762 168.277 0.655814L167.853 1.08008ZM168.933 3.67969H168.333V5.0957H168.933H169.533V3.67969H168.933ZM168.933 5.0957V4.4957H166.413V5.0957V5.6957H168.933V5.0957ZM166.413 5.0957H167.013V3.67969H166.413H165.813V5.0957H166.413ZM166.413 3.67969L167.013 3.67961C167.013 3.20074 166.837 2.77436 166.498 2.43511L166.073 2.85938L165.649 3.28364C165.763 3.39765 165.813 3.51878 165.813 3.67976L166.413 3.67969ZM166.073 2.85938L166.497 2.43507C166.153 2.09102 165.718 1.91968 165.234 1.91953L165.233 2.51953L165.233 3.11953C165.415 3.11959 165.54 3.17472 165.649 3.28368L166.073 2.85938ZM165.233 2.51953V1.91953C164.754 1.91953 164.328 2.09618 163.989 2.43498L164.413 2.85938L164.837 3.28377C164.951 3.16965 165.073 3.11953 165.233 3.11953V2.51953ZM164.413 2.85938L163.989 2.43511C163.65 2.77436 163.473 3.20074 163.473 3.67961L164.073 3.67969L164.673 3.67976C164.673 3.51878 164.723 3.39765 164.837 3.28364L164.413 2.85938ZM164.073 3.67969H163.473V5.0957H164.073H164.673V3.67969H164.073ZM164.073 5.0957V4.4957H161.553V5.0957V5.6957H164.073V5.0957ZM161.553 5.0957H162.153V3.67969H161.553H160.953V5.0957H161.553ZM161.553 3.67969L162.153 3.67971C162.153 2.82662 162.449 2.11242 163.057 1.50432L162.633 1.08008L162.209 0.655839C161.377 1.48758 160.953 2.5064 160.953 3.67966L161.553 3.67969ZM162.633 1.08008L163.057 1.50434C163.665 0.896301 164.38 0.6 165.233 0.6V0V-0.6C164.06 -0.6 163.041 -0.176146 162.209 0.655814L162.633 1.08008ZM84.0088 2.71973V2.11973H81.5088V2.71973V3.31973H84.0088V2.71973ZM81.5088 2.71973H80.9088V4.0957H81.5088H82.1088V2.71973H81.5088ZM81.5088 4.0957V3.4957H78.9893V4.0957V4.6957H81.5088V4.0957ZM78.9893 4.0957H79.5893V2.71973H78.9893H78.3893V4.0957H78.9893ZM78.9893 2.71973V2.11973H76.4893V2.71973V3.31973H78.9893V2.71973ZM76.4893 2.71973H77.0893V0.200195H76.4893H75.8893V2.71973H76.4893ZM76.4893 0.200195V0.800195H84.0088V0.200195V-0.399805H76.4893V0.200195ZM84.0088 0.200195H83.4088V2.71973H84.0088H84.6088V0.200195H84.0088ZM310.989 4.0957V3.4957H308.469V4.0957V4.6957H310.989V4.0957ZM308.469 4.0957H309.069V3.0957H308.469H307.869V4.0957H308.469ZM308.469 3.0957V3.6957H310.989V3.0957V2.4957H308.469V3.0957ZM310.989 3.0957H310.389V4.0957H310.989H311.589V3.0957H310.989ZM310.989 2.0957V1.4957H308.469V2.0957V2.6957H310.989V2.0957ZM308.469 2.0957H309.069V0.200195H308.469H307.869V2.0957H308.469ZM308.469 0.200195V0.800195H310.989V0.200195V-0.399805H308.469V0.200195ZM310.989 0.200195H310.389V2.0957H310.989H311.589V0.200195H310.989Z" fill="url(#paint1_linear_7_437)" mask="url(#path-1-inside-1_7_437)"/>
<defs>
<radialGradient id="paint0_radial_7_437" cx="0" cy="0" r="1" gradientUnits="userSpaceOnUse" gradientTransform="translate(183.431 7.67658) rotate(90) scale(38.8047 207.296)">
<stop stop-color="#ECF7FF"/>
<stop offset="1" stop-color="#ECF7FF" stop-opacity="0"/>
</radialGradient>
<linearGradient id="paint1_linear_7_437" x1="183.431" y1="-6.45475" x2="183.431" y2="44.9505" gradientUnits="userSpaceOnUse">
<stop stop-color="#253596" stop-opacity="0"/>
<stop offset="0.456017" stop-color="#4A76D4"/>
<stop offset="1" stop-color="#76EAF1"/>
</linearGradient>
</defs>
</svg>
