<svg width="370" height="22" viewBox="0 0 370 22" fill="none" xmlns="http://www.w3.org/2000/svg">
<mask id="path-1-inside-1_7_437" fill="white">
<path d="M213.657 11.2803C213.657 11.6001 213.771 11.8731 213.997 12.0996C214.224 12.3263 214.497 12.4395 214.817 12.4395C215.151 12.4394 215.431 12.3262 215.657 12.0996C215.884 11.8731 215.997 11.6 215.997 11.2803V10.6201H218.517V11.2803C218.516 12.2934 218.156 13.16 217.437 13.8799C216.717 14.5996 215.844 14.9599 214.817 14.96C213.804 14.96 212.937 14.5999 212.217 13.8799C211.497 13.16 211.137 12.2934 211.137 11.2803V10.0957H213.657V11.2803ZM246.259 0C247.285 0.000105686 248.158 0.360244 248.878 1.08008C249.598 1.80004 249.958 2.66642 249.958 3.67969V4.33984H247.438V3.67969C247.438 3.35976 247.325 3.086 247.099 2.85938C246.872 2.63287 246.592 2.51963 246.259 2.51953C245.939 2.51953 245.665 2.63291 245.438 2.85938C245.212 3.086 245.099 3.35976 245.099 3.67969V11.2803C245.099 11.6001 245.212 11.8731 245.438 12.0996C245.665 12.3263 245.939 12.4395 246.259 12.4395C246.592 12.4394 246.872 12.3262 247.099 12.0996C247.325 11.8731 247.438 11.6 247.438 11.2803V8.47949H245.979V5.95996H249.958V11.2803C249.958 12.2934 249.598 13.16 248.878 13.8799C248.158 14.5996 247.285 14.9599 246.259 14.96C245.245 14.96 244.378 14.5999 243.658 13.8799C242.938 13.16 242.578 12.2934 242.578 11.2803V3.67969C242.578 2.66651 242.938 1.8 243.658 1.08008C244.378 0.360078 245.245 0 246.259 0ZM275.7 11.2803C275.7 11.6001 275.814 11.8731 276.04 12.0996C276.267 12.3263 276.54 12.4395 276.86 12.4395C277.193 12.4394 277.474 12.3262 277.7 12.0996C277.927 11.8731 278.04 11.6 278.04 11.2803V10.0957H280.56V11.2803C280.559 12.2934 280.199 13.16 279.479 13.8799C278.76 14.5996 277.887 14.9599 276.86 14.96C275.847 14.96 274.98 14.5999 274.26 13.8799C273.54 13.16 273.18 12.2934 273.18 11.2803V10.0957H275.7V11.2803ZM291.315 11.2998C291.315 11.6065 291.429 11.8729 291.655 12.0996C291.882 12.3262 292.155 12.4393 292.475 12.4395C292.808 12.4395 293.089 12.3335 293.315 12.1201C293.542 11.8935 293.655 11.6198 293.655 11.2998V0.200195H296.175V11.2998C296.175 12.3131 295.815 13.1794 295.095 13.8994C294.375 14.6061 293.501 14.96 292.475 14.96C291.461 14.9599 290.595 14.606 289.875 13.8994C289.155 13.1795 288.795 12.313 288.795 11.2998V0.200195H291.315V11.2998ZM45.457 8.16016V0.200195H47.9766V14.7598H45.457L42.2373 6.7998V14.7598H39.7168V0.200195H42.2373L45.457 8.16016ZM64.0068 14.7598H61.4268L60.8867 11.8799H58.4463L57.9072 14.7598H55.3271L58.4072 0.200195H60.9268L64.0068 14.7598ZM74.6338 0.200195C75.6604 0.200228 76.5339 0.560306 77.2539 1.28027C77.9737 2.00021 78.334 2.86671 78.334 3.87988V4.7998C78.334 5.43981 78.1807 6.03341 77.874 6.58008C77.5807 7.1134 77.1733 7.54655 76.6533 7.87988L79.1533 14.7598H76.4736L74.2334 8.47949H73.874V14.7598H71.3535V0.200195H74.6338ZM89.7002 0.200195C90.7268 0.200228 91.6003 0.560306 92.3203 1.28027C93.0401 2.00021 93.4004 2.86671 93.4004 3.87988V4.7998C93.4004 5.43981 93.2471 6.03341 92.9404 6.58008C92.6471 7.1134 92.2397 7.54655 91.7197 7.87988L94.2197 14.7598H91.54L89.2998 8.47949H88.9404V14.7598H86.4199V0.200195H89.7002ZM109.187 14.7598H106.606L106.066 11.8799H103.626L103.087 14.7598H100.507L103.587 0.200195H106.106L109.187 14.7598ZM123.253 2.71973H120.753V14.7598H118.233V2.71973H115.733V0.200195H123.253V2.71973ZM133.319 14.7598H130.799V8.04785H133.319V14.7598ZM144.786 9.41992L146.326 0.200195H148.906L146.046 14.7598H143.526L140.666 0.200195H143.246L144.786 9.41992ZM162.864 2.71973H158.765V5.95996H162.384V8.47949H158.765V12.2402H162.864V14.7598H156.244V0.200195H162.864V2.71973ZM183.954 0.200195C184.981 0.200228 185.854 0.560306 186.574 1.28027C187.294 2.00021 187.654 2.86671 187.654 3.87988V4.7998C187.654 5.62635 187.407 6.35289 186.914 6.97949C187.674 7.71278 188.054 8.59974 188.054 9.63965V11.0801C188.054 12.0933 187.694 12.9597 186.974 13.6797C186.254 14.3996 185.38 14.7598 184.354 14.7598H180.674V0.200195H183.954ZM203.87 14.7598H201.29L200.75 11.8799H198.31L197.771 14.7598H195.19L198.271 0.200195H200.79L203.87 14.7598ZM229.077 6.33984L231.837 0.200195H234.637L231.677 6.17969L235.276 14.7598H232.537L230.276 9L229.077 11.3994V14.7598H226.557V0.200195H229.077V6.33984ZM261.474 0.200195C262.5 0.200228 263.374 0.560306 264.094 1.28027C264.814 2.00021 265.174 2.86671 265.174 3.87988V4.7998C265.174 5.43981 265.021 6.03341 264.714 6.58008C264.421 7.1134 264.013 7.54655 263.493 7.87988L265.993 14.7598H263.313L261.073 8.47949H260.714V14.7598H258.193V0.200195H261.474ZM310.246 8.16016V0.200195H312.766V14.7598H310.246L307.026 6.7998V14.7598H304.506V0.200195H307.026L310.246 8.16016ZM324.775 0.200195C325.789 0.200195 326.656 0.560273 327.376 1.28027C328.109 2.00022 328.476 2.86668 328.476 3.87988V11.0801C328.476 12.0932 328.109 12.9598 327.376 13.6797C326.656 14.3997 325.789 14.7598 324.775 14.7598H321.096V0.200195H324.775ZM183.194 12.2402H184.354C184.687 12.2402 184.968 12.1261 185.194 11.8994C185.421 11.6729 185.534 11.3998 185.534 11.0801V9.63965C185.534 9.31993 185.421 9.04685 185.194 8.82031C184.968 8.59365 184.687 8.47949 184.354 8.47949H183.194V12.2402ZM323.616 12.2402H324.775C325.109 12.2402 325.39 12.1261 325.616 11.8994C325.843 11.6729 325.956 11.3998 325.956 11.0801V3.87988C325.956 3.5599 325.843 3.28623 325.616 3.05957C325.39 2.8329 325.109 2.71973 324.775 2.71973H323.616V12.2402ZM58.9072 9.35938H60.4268L59.667 5.25977L58.9072 9.35938ZM104.087 9.35938H105.606L104.847 5.25977L104.087 9.35938ZM198.771 9.35938H200.29L199.53 5.25977L198.771 9.35938ZM213.657 9.0957H211.137V8.0957H213.657V9.0957ZM275.7 9.0957H273.18V8.0957H275.7V9.0957ZM280.56 9.0957H278.04V8.0957H280.56V9.0957ZM213.657 7.0957H211.137V6.0957H213.657V7.0957ZM275.7 7.0957H273.18V6.0957H275.7V7.0957ZM280.56 7.0957H278.04V6.0957H280.56V7.0957ZM133.319 7.04785H130.799V6.04785H133.319V7.04785ZM73.874 5.95996H74.6338C74.967 5.95993 75.247 5.84666 75.4736 5.62012C75.7003 5.39345 75.8135 5.1198 75.8135 4.7998V3.87988C75.8135 3.55988 75.7003 3.28624 75.4736 3.05957C75.247 2.83303 74.967 2.71976 74.6338 2.71973H73.874V5.95996ZM88.9404 5.95996H89.7002C90.0334 5.95993 90.3134 5.84666 90.54 5.62012C90.7667 5.39345 90.8799 5.1198 90.8799 4.7998V3.87988C90.8799 3.55988 90.7667 3.28624 90.54 3.05957C90.3134 2.83303 90.0334 2.71976 89.7002 2.71973H88.9404V5.95996ZM183.194 5.95996H183.954C184.287 5.95993 184.567 5.84666 184.794 5.62012C185.021 5.39345 185.134 5.1198 185.134 4.7998V3.87988C185.134 3.55988 185.021 3.28624 184.794 3.05957C184.567 2.83303 184.287 2.71976 183.954 2.71973H183.194V5.95996ZM260.714 5.95996H261.474C261.807 5.95993 262.087 5.84666 262.313 5.62012C262.54 5.39345 262.653 5.1198 262.653 4.7998V3.87988C262.653 3.55988 262.54 3.28624 262.313 3.05957C262.087 2.83303 261.807 2.71976 261.474 2.71973H260.714V5.95996ZM214.817 0C215.844 0.000105686 216.717 0.360244 217.437 1.08008C218.156 1.80004 218.517 2.66642 218.517 3.67969V4.33984H215.997V3.67969C215.997 3.35976 215.884 3.086 215.657 2.85938C215.431 2.63287 215.15 2.51963 214.817 2.51953C214.498 2.51953 214.224 2.63291 213.997 2.85938C213.77 3.086 213.657 3.35976 213.657 3.67969V5.0957H211.137V3.67969C211.137 2.66651 211.497 1.8 212.217 1.08008C212.937 0.360078 213.804 0 214.817 0ZM276.86 0C277.887 0.000105686 278.76 0.360244 279.479 1.08008C280.199 1.80004 280.56 2.66642 280.56 3.67969V5.0957H278.04V3.67969C278.04 3.35976 277.927 3.086 277.7 2.85938C277.474 2.63287 277.193 2.51963 276.86 2.51953C276.54 2.51953 276.267 2.63291 276.04 2.85938C275.813 3.086 275.7 3.35976 275.7 3.67969V5.0957H273.18V3.67969C273.18 2.66651 273.54 1.8 274.26 1.08008C274.98 0.360078 275.847 0 276.86 0ZM133.319 5.04785H130.799V4.04785H133.319V5.04785ZM133.319 3.04785H130.799V0.200195H133.319V3.04785Z"/>
</mask>
<path d="M213.657 11.2803C213.657 11.6001 213.771 11.8731 213.997 12.0996C214.224 12.3263 214.497 12.4395 214.817 12.4395C215.151 12.4394 215.431 12.3262 215.657 12.0996C215.884 11.8731 215.997 11.6 215.997 11.2803V10.6201H218.517V11.2803C218.516 12.2934 218.156 13.16 217.437 13.8799C216.717 14.5996 215.844 14.9599 214.817 14.96C213.804 14.96 212.937 14.5999 212.217 13.8799C211.497 13.16 211.137 12.2934 211.137 11.2803V10.0957H213.657V11.2803ZM246.259 0C247.285 0.000105686 248.158 0.360244 248.878 1.08008C249.598 1.80004 249.958 2.66642 249.958 3.67969V4.33984H247.438V3.67969C247.438 3.35976 247.325 3.086 247.099 2.85938C246.872 2.63287 246.592 2.51963 246.259 2.51953C245.939 2.51953 245.665 2.63291 245.438 2.85938C245.212 3.086 245.099 3.35976 245.099 3.67969V11.2803C245.099 11.6001 245.212 11.8731 245.438 12.0996C245.665 12.3263 245.939 12.4395 246.259 12.4395C246.592 12.4394 246.872 12.3262 247.099 12.0996C247.325 11.8731 247.438 11.6 247.438 11.2803V8.47949H245.979V5.95996H249.958V11.2803C249.958 12.2934 249.598 13.16 248.878 13.8799C248.158 14.5996 247.285 14.9599 246.259 14.96C245.245 14.96 244.378 14.5999 243.658 13.8799C242.938 13.16 242.578 12.2934 242.578 11.2803V3.67969C242.578 2.66651 242.938 1.8 243.658 1.08008C244.378 0.360078 245.245 0 246.259 0ZM275.7 11.2803C275.7 11.6001 275.814 11.8731 276.04 12.0996C276.267 12.3263 276.54 12.4395 276.86 12.4395C277.193 12.4394 277.474 12.3262 277.7 12.0996C277.927 11.8731 278.04 11.6 278.04 11.2803V10.0957H280.56V11.2803C280.559 12.2934 280.199 13.16 279.479 13.8799C278.76 14.5996 277.887 14.9599 276.86 14.96C275.847 14.96 274.98 14.5999 274.26 13.8799C273.54 13.16 273.18 12.2934 273.18 11.2803V10.0957H275.7V11.2803ZM291.315 11.2998C291.315 11.6065 291.429 11.8729 291.655 12.0996C291.882 12.3262 292.155 12.4393 292.475 12.4395C292.808 12.4395 293.089 12.3335 293.315 12.1201C293.542 11.8935 293.655 11.6198 293.655 11.2998V0.200195H296.175V11.2998C296.175 12.3131 295.815 13.1794 295.095 13.8994C294.375 14.6061 293.501 14.96 292.475 14.96C291.461 14.9599 290.595 14.606 289.875 13.8994C289.155 13.1795 288.795 12.313 288.795 11.2998V0.200195H291.315V11.2998ZM45.457 8.16016V0.200195H47.9766V14.7598H45.457L42.2373 6.7998V14.7598H39.7168V0.200195H42.2373L45.457 8.16016ZM64.0068 14.7598H61.4268L60.8867 11.8799H58.4463L57.9072 14.7598H55.3271L58.4072 0.200195H60.9268L64.0068 14.7598ZM74.6338 0.200195C75.6604 0.200228 76.5339 0.560306 77.2539 1.28027C77.9737 2.00021 78.334 2.86671 78.334 3.87988V4.7998C78.334 5.43981 78.1807 6.03341 77.874 6.58008C77.5807 7.1134 77.1733 7.54655 76.6533 7.87988L79.1533 14.7598H76.4736L74.2334 8.47949H73.874V14.7598H71.3535V0.200195H74.6338ZM89.7002 0.200195C90.7268 0.200228 91.6003 0.560306 92.3203 1.28027C93.0401 2.00021 93.4004 2.86671 93.4004 3.87988V4.7998C93.4004 5.43981 93.2471 6.03341 92.9404 6.58008C92.6471 7.1134 92.2397 7.54655 91.7197 7.87988L94.2197 14.7598H91.54L89.2998 8.47949H88.9404V14.7598H86.4199V0.200195H89.7002ZM109.187 14.7598H106.606L106.066 11.8799H103.626L103.087 14.7598H100.507L103.587 0.200195H106.106L109.187 14.7598ZM123.253 2.71973H120.753V14.7598H118.233V2.71973H115.733V0.200195H123.253V2.71973ZM133.319 14.7598H130.799V8.04785H133.319V14.7598ZM144.786 9.41992L146.326 0.200195H148.906L146.046 14.7598H143.526L140.666 0.200195H143.246L144.786 9.41992ZM162.864 2.71973H158.765V5.95996H162.384V8.47949H158.765V12.2402H162.864V14.7598H156.244V0.200195H162.864V2.71973ZM183.954 0.200195C184.981 0.200228 185.854 0.560306 186.574 1.28027C187.294 2.00021 187.654 2.86671 187.654 3.87988V4.7998C187.654 5.62635 187.407 6.35289 186.914 6.97949C187.674 7.71278 188.054 8.59974 188.054 9.63965V11.0801C188.054 12.0933 187.694 12.9597 186.974 13.6797C186.254 14.3996 185.38 14.7598 184.354 14.7598H180.674V0.200195H183.954ZM203.87 14.7598H201.29L200.75 11.8799H198.31L197.771 14.7598H195.19L198.271 0.200195H200.79L203.87 14.7598ZM229.077 6.33984L231.837 0.200195H234.637L231.677 6.17969L235.276 14.7598H232.537L230.276 9L229.077 11.3994V14.7598H226.557V0.200195H229.077V6.33984ZM261.474 0.200195C262.5 0.200228 263.374 0.560306 264.094 1.28027C264.814 2.00021 265.174 2.86671 265.174 3.87988V4.7998C265.174 5.43981 265.021 6.03341 264.714 6.58008C264.421 7.1134 264.013 7.54655 263.493 7.87988L265.993 14.7598H263.313L261.073 8.47949H260.714V14.7598H258.193V0.200195H261.474ZM310.246 8.16016V0.200195H312.766V14.7598H310.246L307.026 6.7998V14.7598H304.506V0.200195H307.026L310.246 8.16016ZM324.775 0.200195C325.789 0.200195 326.656 0.560273 327.376 1.28027C328.109 2.00022 328.476 2.86668 328.476 3.87988V11.0801C328.476 12.0932 328.109 12.9598 327.376 13.6797C326.656 14.3997 325.789 14.7598 324.775 14.7598H321.096V0.200195H324.775ZM183.194 12.2402H184.354C184.687 12.2402 184.968 12.1261 185.194 11.8994C185.421 11.6729 185.534 11.3998 185.534 11.0801V9.63965C185.534 9.31993 185.421 9.04685 185.194 8.82031C184.968 8.59365 184.687 8.47949 184.354 8.47949H183.194V12.2402ZM323.616 12.2402H324.775C325.109 12.2402 325.39 12.1261 325.616 11.8994C325.843 11.6729 325.956 11.3998 325.956 11.0801V3.87988C325.956 3.5599 325.843 3.28623 325.616 3.05957C325.39 2.8329 325.109 2.71973 324.775 2.71973H323.616V12.2402ZM58.9072 9.35938H60.4268L59.667 5.25977L58.9072 9.35938ZM104.087 9.35938H105.606L104.847 5.25977L104.087 9.35938ZM198.771 9.35938H200.29L199.53 5.25977L198.771 9.35938ZM213.657 9.0957H211.137V8.0957H213.657V9.0957ZM275.7 9.0957H273.18V8.0957H275.7V9.0957ZM280.56 9.0957H278.04V8.0957H280.56V9.0957ZM213.657 7.0957H211.137V6.0957H213.657V7.0957ZM275.7 7.0957H273.18V6.0957H275.7V7.0957ZM280.56 7.0957H278.04V6.0957H280.56V7.0957ZM133.319 7.04785H130.799V6.04785H133.319V7.04785ZM73.874 5.95996H74.6338C74.967 5.95993 75.247 5.84666 75.4736 5.62012C75.7003 5.39345 75.8135 5.1198 75.8135 4.7998V3.87988C75.8135 3.55988 75.7003 3.28624 75.4736 3.05957C75.247 2.83303 74.967 2.71976 74.6338 2.71973H73.874V5.95996ZM88.9404 5.95996H89.7002C90.0334 5.95993 90.3134 5.84666 90.54 5.62012C90.7667 5.39345 90.8799 5.1198 90.8799 4.7998V3.87988C90.8799 3.55988 90.7667 3.28624 90.54 3.05957C90.3134 2.83303 90.0334 2.71976 89.7002 2.71973H88.9404V5.95996ZM183.194 5.95996H183.954C184.287 5.95993 184.567 5.84666 184.794 5.62012C185.021 5.39345 185.134 5.1198 185.134 4.7998V3.87988C185.134 3.55988 185.021 3.28624 184.794 3.05957C184.567 2.83303 184.287 2.71976 183.954 2.71973H183.194V5.95996ZM260.714 5.95996H261.474C261.807 5.95993 262.087 5.84666 262.313 5.62012C262.54 5.39345 262.653 5.1198 262.653 4.7998V3.87988C262.653 3.55988 262.54 3.28624 262.313 3.05957C262.087 2.83303 261.807 2.71976 261.474 2.71973H260.714V5.95996ZM214.817 0C215.844 0.000105686 216.717 0.360244 217.437 1.08008C218.156 1.80004 218.517 2.66642 218.517 3.67969V4.33984H215.997V3.67969C215.997 3.35976 215.884 3.086 215.657 2.85938C215.431 2.63287 215.15 2.51963 214.817 2.51953C214.498 2.51953 214.224 2.63291 213.997 2.85938C213.77 3.086 213.657 3.35976 213.657 3.67969V5.0957H211.137V3.67969C211.137 2.66651 211.497 1.8 212.217 1.08008C212.937 0.360078 213.804 0 214.817 0ZM276.86 0C277.887 0.000105686 278.76 0.360244 279.479 1.08008C280.199 1.80004 280.56 2.66642 280.56 3.67969V5.0957H278.04V3.67969C278.04 3.35976 277.927 3.086 277.7 2.85938C277.474 2.63287 277.193 2.51963 276.86 2.51953C276.54 2.51953 276.267 2.63291 276.04 2.85938C275.813 3.086 275.7 3.35976 275.7 3.67969V5.0957H273.18V3.67969C273.18 2.66651 273.54 1.8 274.26 1.08008C274.98 0.360078 275.847 0 276.86 0ZM133.319 5.04785H130.799V4.04785H133.319V5.04785ZM133.319 3.04785H130.799V0.200195H133.319V3.04785Z" fill="url(#paint0_radial_7_437)"/>
<path d="M213.657 11.2803H213.057V11.2805L213.657 11.2803ZM213.997 12.0996L213.573 12.5239L213.573 12.5239L213.997 12.0996ZM214.817 12.4395V13.0395H214.818L214.817 12.4395ZM215.657 12.0996L216.081 12.5239L216.082 12.5238L215.657 12.0996ZM215.997 11.2803L216.597 11.2805V11.2803H215.997ZM215.997 10.6201V10.0201H215.397V10.6201H215.997ZM218.517 10.6201H219.117V10.0201H218.517V10.6201ZM218.517 11.2803L219.117 11.2803V11.2803H218.517ZM217.437 13.8799L217.861 14.3042L217.861 14.3041L217.437 13.8799ZM214.817 14.96V15.56H214.817L214.817 14.96ZM212.217 13.8799L211.793 14.3041V14.3041L212.217 13.8799ZM211.137 11.2803H210.537V11.2803L211.137 11.2803ZM211.137 10.0957V9.4957H210.537V10.0957H211.137ZM213.657 10.0957H214.257V9.4957H213.657V10.0957ZM246.259 0L246.259 -0.6H246.259V0ZM248.878 1.08008L249.302 0.655814L249.302 0.655801L248.878 1.08008ZM249.958 3.67969H250.558V3.67966L249.958 3.67969ZM249.958 4.33984V4.93984H250.558V4.33984H249.958ZM247.438 4.33984H246.838V4.93984H247.438V4.33984ZM247.438 3.67969H248.038V3.67961L247.438 3.67969ZM247.099 2.85938L247.523 2.43511L247.523 2.43507L247.099 2.85938ZM246.259 2.51953L246.259 1.91953H246.259V2.51953ZM245.438 2.85938L245.014 2.43498L245.014 2.43511L245.438 2.85938ZM245.099 3.67969L244.499 3.67961V3.67969H245.099ZM245.099 11.2803H244.499V11.2805L245.099 11.2803ZM245.438 12.0996L245.014 12.5239L245.014 12.5239L245.438 12.0996ZM246.259 12.4395V13.0395H246.259L246.259 12.4395ZM247.099 12.0996L247.523 12.5239L247.523 12.5238L247.099 12.0996ZM247.438 11.2803L248.038 11.2805V11.2803H247.438ZM247.438 8.47949H248.038V7.87949H247.438V8.47949ZM245.979 8.47949H245.379V9.07949H245.979V8.47949ZM245.979 5.95996V5.35996H245.379V5.95996H245.979ZM249.958 5.95996H250.558V5.35996H249.958V5.95996ZM249.958 11.2803L250.558 11.2803V11.2803H249.958ZM248.878 13.8799L249.302 14.3042L249.302 14.3041L248.878 13.8799ZM246.259 14.96V15.56H246.259L246.259 14.96ZM243.658 13.8799L243.234 14.3041V14.3041L243.658 13.8799ZM242.578 11.2803H241.978V11.2803L242.578 11.2803ZM242.578 3.67969L241.978 3.67966V3.67969H242.578ZM243.658 1.08008L243.234 0.655814L243.234 0.655839L243.658 1.08008ZM275.7 11.2803H275.1V11.2805L275.7 11.2803ZM276.04 12.0996L275.616 12.5239L275.616 12.5239L276.04 12.0996ZM276.86 12.4395V13.0395H276.861L276.86 12.4395ZM277.7 12.0996L278.124 12.5239L278.125 12.5238L277.7 12.0996ZM278.04 11.2803L278.64 11.2805V11.2803H278.04ZM278.04 10.0957V9.4957H277.44V10.0957H278.04ZM280.56 10.0957H281.16V9.4957H280.56V10.0957ZM280.56 11.2803L281.16 11.2803V11.2803H280.56ZM279.479 13.8799L279.904 14.3042L279.904 14.3041L279.479 13.8799ZM276.86 14.96V15.56H276.86L276.86 14.96ZM274.26 13.8799L273.835 14.3041V14.3041L274.26 13.8799ZM273.18 11.2803H272.58V11.2803L273.18 11.2803ZM273.18 10.0957V9.4957H272.58V10.0957H273.18ZM275.7 10.0957H276.3V9.4957H275.7V10.0957ZM291.655 12.0996L291.231 12.5239V12.5239L291.655 12.0996ZM292.475 12.4395L292.474 13.0395H292.475V12.4395ZM293.315 12.1201L293.727 12.557L293.733 12.5508L293.74 12.5444L293.315 12.1201ZM293.655 0.200195V-0.399805H293.055V0.200195H293.655ZM296.175 0.200195H296.775V-0.399805H296.175V0.200195ZM295.095 13.8994L295.515 14.3276L295.519 14.3237L295.095 13.8994ZM292.475 14.96L292.475 15.56H292.475V14.96ZM289.875 13.8994L289.451 14.3237L289.455 14.3276L289.875 13.8994ZM288.795 0.200195V-0.399805H288.195V0.200195H288.795ZM291.315 0.200195H291.915V-0.399805H291.315V0.200195ZM45.457 8.16016L44.9008 8.38514L46.057 8.16016H45.457ZM45.457 0.200195V-0.399805H44.857V0.200195H45.457ZM47.9766 0.200195H48.5766V-0.399805H47.9766V0.200195ZM47.9766 14.7598V15.3598H48.5766V14.7598H47.9766ZM45.457 14.7598L44.9008 14.9848L45.0525 15.3598H45.457V14.7598ZM42.2373 6.7998L42.7935 6.57482L41.6373 6.7998H42.2373ZM42.2373 14.7598V15.3598H42.8373V14.7598H42.2373ZM39.7168 14.7598H39.1168V15.3598H39.7168V14.7598ZM39.7168 0.200195V-0.399805H39.1168V0.200195H39.7168ZM42.2373 0.200195L42.7935 -0.0247905L42.6418 -0.399805H42.2373V0.200195ZM64.0068 14.7598V15.3598H64.747L64.5938 14.6356L64.0068 14.7598ZM61.4268 14.7598L60.837 14.8704L60.9288 15.3598H61.4268V14.7598ZM60.8867 11.8799L61.4764 11.7693L61.3847 11.2799H60.8867V11.8799ZM58.4463 11.8799V11.2799H57.9482L57.8565 11.7695L58.4463 11.8799ZM57.9072 14.7598V15.3598H58.4053L58.497 14.8702L57.9072 14.7598ZM55.3271 14.7598L54.7401 14.6356L54.5869 15.3598H55.3271V14.7598ZM58.4072 0.200195V-0.399805H57.9209L57.8202 0.0760136L58.4072 0.200195ZM60.9268 0.200195L61.5138 0.0760136L61.4131 -0.399805H60.9268V0.200195ZM74.6338 0.200195L74.6338 -0.399805H74.6338V0.200195ZM77.2539 1.28027L77.6782 0.856056L77.6782 0.856009L77.2539 1.28027ZM77.874 6.58008L77.3507 6.28652L77.3483 6.29092L77.874 6.58008ZM76.6533 7.87988L76.3295 7.37476L75.9255 7.63375L76.0894 8.0848L76.6533 7.87988ZM79.1533 14.7598V15.3598H80.0097L79.7172 14.5548L79.1533 14.7598ZM76.4736 14.7598L75.9085 14.9614L76.0506 15.3598H76.4736V14.7598ZM74.2334 8.47949L74.7985 8.27791L74.6564 7.87949H74.2334V8.47949ZM73.874 8.47949V7.87949H73.274V8.47949H73.874ZM73.874 14.7598V15.3598H74.474V14.7598H73.874ZM71.3535 14.7598H70.7535V15.3598H71.3535V14.7598ZM71.3535 0.200195V-0.399805H70.7535V0.200195H71.3535ZM89.7002 0.200195L89.7002 -0.399805H89.7002V0.200195ZM92.3203 1.28027L92.7446 0.856056L92.7446 0.856009L92.3203 1.28027ZM92.9404 6.58008L92.4171 6.28652L92.4147 6.29092L92.9404 6.58008ZM91.7197 7.87988L91.3959 7.37476L90.9919 7.63375L91.1558 8.0848L91.7197 7.87988ZM94.2197 14.7598V15.3598H95.0761L94.7836 14.5548L94.2197 14.7598ZM91.54 14.7598L90.9749 14.9614L91.117 15.3598H91.54V14.7598ZM89.2998 8.47949L89.8649 8.27791L89.7228 7.87949H89.2998V8.47949ZM88.9404 8.47949V7.87949H88.3404V8.47949H88.9404ZM88.9404 14.7598V15.3598H89.5404V14.7598H88.9404ZM86.4199 14.7598H85.8199V15.3598H86.4199V14.7598ZM86.4199 0.200195V-0.399805H85.8199V0.200195H86.4199ZM109.187 14.7598V15.3598H109.927L109.774 14.6356L109.187 14.7598ZM106.606 14.7598L106.017 14.8704L106.108 15.3598H106.606V14.7598ZM106.066 11.8799L106.656 11.7693L106.564 11.2799H106.066V11.8799ZM103.626 11.8799V11.2799H103.128L103.036 11.7695L103.626 11.8799ZM103.087 14.7598V15.3598H103.585L103.677 14.8702L103.087 14.7598ZM100.507 14.7598L99.9198 14.6356L99.7666 15.3598H100.507V14.7598ZM103.587 0.200195V-0.399805H103.101L103 0.0760136L103.587 0.200195ZM106.106 0.200195L106.693 0.0760136L106.593 -0.399805H106.106V0.200195ZM123.253 2.71973V3.31973H123.853V2.71973H123.253ZM120.753 2.71973V2.11973H120.153V2.71973H120.753ZM120.753 14.7598V15.3598H121.353V14.7598H120.753ZM118.233 14.7598H117.633V15.3598H118.233V14.7598ZM118.233 2.71973H118.833V2.11973H118.233V2.71973ZM115.733 2.71973H115.133V3.31973H115.733V2.71973ZM115.733 0.200195V-0.399805H115.133V0.200195H115.733ZM123.253 0.200195H123.853V-0.399805H123.253V0.200195ZM133.319 14.7598V15.3598H133.919V14.7598H133.319ZM130.799 14.7598H130.199V15.3598H130.799V14.7598ZM130.799 8.04785V7.44785H130.199V8.04785H130.799ZM133.319 8.04785H133.919V7.44785H133.319V8.04785ZM144.786 9.41992L144.194 9.51877H145.378L144.786 9.41992ZM146.326 0.200195V-0.399805H145.818L145.734 0.101342L146.326 0.200195ZM148.906 0.200195L149.495 0.315859L149.636 -0.399805H148.906V0.200195ZM146.046 14.7598V15.3598H146.539L146.635 14.8754L146.046 14.7598ZM143.526 14.7598L142.938 14.8754L143.033 15.3598H143.526V14.7598ZM140.666 0.200195V-0.399805H139.937L140.077 0.315859L140.666 0.200195ZM143.246 0.200195L143.838 0.101342L143.754 -0.399805H143.246V0.200195ZM162.864 2.71973V3.31973H163.464V2.71973H162.864ZM158.765 2.71973V2.11973H158.165V2.71973H158.765ZM158.765 5.95996H158.165V6.55996H158.765V5.95996ZM162.384 5.95996H162.984V5.35996H162.384V5.95996ZM162.384 8.47949V9.07949H162.984V8.47949H162.384ZM158.765 8.47949V7.87949H158.165V8.47949H158.765ZM158.765 12.2402H158.165V12.8402H158.765V12.2402ZM162.864 12.2402H163.464V11.6402H162.864V12.2402ZM162.864 14.7598V15.3598H163.464V14.7598H162.864ZM156.244 14.7598H155.644V15.3598H156.244V14.7598ZM156.244 0.200195V-0.399805H155.644V0.200195H156.244ZM162.864 0.200195H163.464V-0.399805H162.864V0.200195ZM183.954 0.200195L183.954 -0.399805H183.954V0.200195ZM186.574 1.28027L186.999 0.856056L186.998 0.856009L186.574 1.28027ZM186.914 6.97949L186.443 6.6084L186.107 7.03463L186.497 7.41126L186.914 6.97949ZM188.054 9.63965H188.654V9.63962L188.054 9.63965ZM188.054 11.0801L188.654 11.0801V11.0801H188.054ZM186.974 13.6797L187.398 14.104L187.398 14.104L186.974 13.6797ZM180.674 14.7598H180.074V15.3598H180.674V14.7598ZM180.674 0.200195V-0.399805H180.074V0.200195H180.674ZM203.87 14.7598V15.3598H204.61L204.457 14.6356L203.87 14.7598ZM201.29 14.7598L200.7 14.8704L200.792 15.3598H201.29V14.7598ZM200.75 11.8799L201.34 11.7693L201.248 11.2799H200.75V11.8799ZM198.31 11.8799V11.2799H197.811L197.72 11.7695L198.31 11.8799ZM197.771 14.7598V15.3598H198.269L198.36 14.8702L197.771 14.7598ZM195.19 14.7598L194.603 14.6356L194.45 15.3598H195.19V14.7598ZM198.271 0.200195V-0.399805H197.784L197.684 0.0760136L198.271 0.200195ZM200.79 0.200195L201.377 0.0760136L201.276 -0.399805H200.79V0.200195ZM229.077 6.33984H228.477L229.624 6.58583L229.077 6.33984ZM231.837 0.200195V-0.399805H231.449L231.29 -0.0457955L231.837 0.200195ZM234.637 0.200195L235.174 0.466379L235.603 -0.399805H234.637V0.200195ZM231.677 6.17969L231.139 5.9135L231.017 6.1591L231.123 6.41181L231.677 6.17969ZM235.276 14.7598V15.3598H236.179L235.83 14.5276L235.276 14.7598ZM232.537 14.7598L231.979 14.979L232.128 15.3598H232.537V14.7598ZM230.276 9L230.835 8.78078L230.342 7.52592L229.74 8.73176L230.276 9ZM229.077 11.3994L228.54 11.1312L228.477 11.2578V11.3994H229.077ZM229.077 14.7598V15.3598H229.677V14.7598H229.077ZM226.557 14.7598H225.957V15.3598H226.557V14.7598ZM226.557 0.200195V-0.399805H225.957V0.200195H226.557ZM229.077 0.200195H229.677V-0.399805H229.077V0.200195ZM261.474 0.200195L261.474 -0.399805H261.474V0.200195ZM264.094 1.28027L264.518 0.856056L264.518 0.856009L264.094 1.28027ZM264.714 6.58008L264.191 6.28652L264.188 6.29092L264.714 6.58008ZM263.493 7.87988L263.169 7.37476L262.765 7.63375L262.929 8.0848L263.493 7.87988ZM265.993 14.7598V15.3598H266.85L266.557 14.5548L265.993 14.7598ZM263.313 14.7598L262.748 14.9614L262.89 15.3598H263.313V14.7598ZM261.073 8.47949L261.638 8.27791L261.496 7.87949H261.073V8.47949ZM260.714 8.47949V7.87949H260.114V8.47949H260.714ZM260.714 14.7598V15.3598H261.314V14.7598H260.714ZM258.193 14.7598H257.593V15.3598H258.193V14.7598ZM258.193 0.200195V-0.399805H257.593V0.200195H258.193ZM310.246 8.16016L309.69 8.38514L310.846 8.16016H310.246ZM310.246 0.200195V-0.399805H309.646V0.200195H310.246ZM312.766 0.200195H313.366V-0.399805H312.766V0.200195ZM312.766 14.7598V15.3598H313.366V14.7598H312.766ZM310.246 14.7598L309.69 14.9848L309.842 15.3598H310.246V14.7598ZM307.026 6.7998L307.583 6.57482L306.426 6.7998H307.026ZM307.026 14.7598V15.3598H307.626V14.7598H307.026ZM304.506 14.7598H303.906V15.3598H304.506V14.7598ZM304.506 0.200195V-0.399805H303.906V0.200195H304.506ZM307.026 0.200195L307.583 -0.0247905L307.431 -0.399805H307.026V0.200195ZM327.376 1.28027L326.952 1.70455L326.956 1.70837L327.376 1.28027ZM328.476 11.0801L329.076 11.0801V11.0801H328.476ZM327.376 13.6797L326.956 13.2516L326.952 13.2554L327.376 13.6797ZM321.096 14.7598H320.496V15.3598H321.096V14.7598ZM321.096 0.200195V-0.399805H320.496V0.200195H321.096ZM183.194 12.2402H182.594V12.8402H183.194V12.2402ZM185.194 11.8994L185.619 12.3237L185.619 12.3235L185.194 11.8994ZM185.534 11.0801L186.134 11.0802V11.0801H185.534ZM185.534 9.63965H186.134V9.63956L185.534 9.63965ZM185.194 8.82031L185.619 8.39623L185.619 8.39605L185.194 8.82031ZM183.194 8.47949V7.87949H182.594V8.47949H183.194ZM323.616 12.2402H323.016V12.8402H323.616V12.2402ZM325.616 11.8994L326.04 12.3237L326.041 12.3235L325.616 11.8994ZM325.956 11.0801L326.556 11.0802V11.0801H325.956ZM325.616 3.05957L326.04 2.63533L326.04 2.63531L325.616 3.05957ZM323.616 2.71973V2.11973H323.016V2.71973H323.616ZM58.9072 9.35938L58.3173 9.25004L58.1858 9.95938H58.9072V9.35938ZM60.4268 9.35938V9.95938H61.1482L61.0167 9.25004L60.4268 9.35938ZM59.667 5.25977L60.2569 5.15043H59.077L59.667 5.25977ZM104.087 9.35938L103.497 9.25004L103.366 9.95938H104.087V9.35938ZM105.606 9.35938V9.95938H106.328L106.196 9.25004L105.606 9.35938ZM104.847 5.25977L105.437 5.15043H104.257L104.847 5.25977ZM198.771 9.35938L198.181 9.25004L198.049 9.95938H198.771V9.35938ZM200.29 9.35938V9.95938H201.011L200.88 9.25004L200.29 9.35938ZM199.53 5.25977L200.12 5.15043H198.94L199.53 5.25977ZM213.657 9.0957V9.6957H214.257V9.0957H213.657ZM211.137 9.0957H210.537V9.6957H211.137V9.0957ZM211.137 8.0957V7.4957H210.537V8.0957H211.137ZM213.657 8.0957H214.257V7.4957H213.657V8.0957ZM275.7 9.0957V9.6957H276.3V9.0957H275.7ZM273.18 9.0957H272.58V9.6957H273.18V9.0957ZM273.18 8.0957V7.4957H272.58V8.0957H273.18ZM275.7 8.0957H276.3V7.4957H275.7V8.0957ZM280.56 9.0957V9.6957H281.16V9.0957H280.56ZM278.04 9.0957H277.44V9.6957H278.04V9.0957ZM278.04 8.0957V7.4957H277.44V8.0957H278.04ZM280.56 8.0957H281.16V7.4957H280.56V8.0957ZM213.657 7.0957V7.6957H214.257V7.0957H213.657ZM211.137 7.0957H210.537V7.6957H211.137V7.0957ZM211.137 6.0957V5.4957H210.537V6.0957H211.137ZM213.657 6.0957H214.257V5.4957H213.657V6.0957ZM275.7 7.0957V7.6957H276.3V7.0957H275.7ZM273.18 7.0957H272.58V7.6957H273.18V7.0957ZM273.18 6.0957V5.4957H272.58V6.0957H273.18ZM275.7 6.0957H276.3V5.4957H275.7V6.0957ZM280.56 7.0957V7.6957H281.16V7.0957H280.56ZM278.04 7.0957H277.44V7.6957H278.04V7.0957ZM278.04 6.0957V5.4957H277.44V6.0957H278.04ZM280.56 6.0957H281.16V5.4957H280.56V6.0957ZM133.319 7.04785V7.64785H133.919V7.04785H133.319ZM130.799 7.04785H130.199V7.64785H130.799V7.04785ZM130.799 6.04785V5.44785H130.199V6.04785H130.799ZM133.319 6.04785H133.919V5.44785H133.319V6.04785ZM73.874 5.95996H73.274V6.55996H73.874V5.95996ZM74.6338 5.95996V6.55996H74.6338L74.6338 5.95996ZM75.4736 5.62012L75.8978 6.04445L75.8979 6.04438L75.4736 5.62012ZM75.4736 3.05957L75.8979 2.63531L75.8978 2.63524L75.4736 3.05957ZM74.6338 2.71973L74.6338 2.11973H74.6338V2.71973ZM73.874 2.71973V2.11973H73.274V2.71973H73.874ZM88.9404 5.95996H88.3404V6.55996H88.9404V5.95996ZM89.7002 5.95996V6.55996H89.7003L89.7002 5.95996ZM90.54 5.62012L90.9642 6.04445L90.9643 6.04438L90.54 5.62012ZM90.54 3.05957L90.9643 2.63531L90.9642 2.63524L90.54 3.05957ZM89.7002 2.71973L89.7003 2.11973H89.7002V2.71973ZM88.9404 2.71973V2.11973H88.3404V2.71973H88.9404ZM183.194 5.95996H182.594V6.55996H183.194V5.95996ZM183.954 5.95996V6.55996H183.954L183.954 5.95996ZM184.794 5.62012L185.218 6.04445L185.218 6.04438L184.794 5.62012ZM184.794 3.05957L185.218 2.63531L185.218 2.63524L184.794 3.05957ZM183.954 2.71973L183.954 2.11973H183.954V2.71973ZM183.194 2.71973V2.11973H182.594V2.71973H183.194ZM260.714 5.95996H260.114V6.55996H260.714V5.95996ZM261.474 5.95996V6.55996H261.474L261.474 5.95996ZM262.313 5.62012L262.738 6.04445L262.738 6.04438L262.313 5.62012ZM262.313 3.05957L262.738 2.63531L262.738 2.63524L262.313 3.05957ZM261.474 2.71973L261.474 2.11973H261.474V2.71973ZM260.714 2.71973V2.11973H260.114V2.71973H260.714ZM214.817 0L214.817 -0.6H214.817V0ZM217.437 1.08008L217.861 0.655814L217.861 0.655801L217.437 1.08008ZM218.517 3.67969H219.117V3.67966L218.517 3.67969ZM218.517 4.33984V4.93984H219.117V4.33984H218.517ZM215.997 4.33984H215.397V4.93984H215.997V4.33984ZM215.997 3.67969H216.597V3.67961L215.997 3.67969ZM215.657 2.85938L216.081 2.43511L216.081 2.43507L215.657 2.85938ZM214.817 2.51953L214.818 1.91953H214.817V2.51953ZM213.997 2.85938L213.573 2.43498L213.573 2.43511L213.997 2.85938ZM213.657 3.67969L213.057 3.67961V3.67969H213.657ZM213.657 5.0957V5.6957H214.257V5.0957H213.657ZM211.137 5.0957H210.537V5.6957H211.137V5.0957ZM211.137 3.67969L210.537 3.67966V3.67969H211.137ZM212.217 1.08008L211.793 0.655814L211.793 0.655839L212.217 1.08008ZM276.86 0L276.86 -0.6H276.86V0ZM279.479 1.08008L279.904 0.655814L279.904 0.655801L279.479 1.08008ZM280.56 3.67969H281.16V3.67966L280.56 3.67969ZM280.56 5.0957V5.6957H281.16V5.0957H280.56ZM278.04 5.0957H277.44V5.6957H278.04V5.0957ZM278.04 3.67969H278.64V3.67961L278.04 3.67969ZM277.7 2.85938L278.124 2.43511L278.124 2.43507L277.7 2.85938ZM276.86 2.51953L276.861 1.91953H276.86V2.51953ZM276.04 2.85938L275.616 2.43498L275.616 2.43511L276.04 2.85938ZM275.7 3.67969L275.1 3.67961V3.67969H275.7ZM275.7 5.0957V5.6957H276.3V5.0957H275.7ZM273.18 5.0957H272.58V5.6957H273.18V5.0957ZM273.18 3.67969L272.58 3.67966V3.67969H273.18ZM274.26 1.08008L273.835 0.655814L273.835 0.655839L274.26 1.08008ZM133.319 5.04785V5.64785H133.919V5.04785H133.319ZM130.799 5.04785H130.199V5.64785H130.799V5.04785ZM130.799 4.04785V3.44785H130.199V4.04785H130.799ZM133.319 4.04785H133.919V3.44785H133.319V4.04785ZM133.319 3.04785V3.64785H133.919V3.04785H133.319ZM130.799 3.04785H130.199V3.64785H130.799V3.04785ZM130.799 0.200195V-0.399805H130.199V0.200195H130.799ZM133.319 0.200195H133.919V-0.399805H133.319V0.200195ZM213.657 11.2803L213.057 11.2805C213.057 11.7596 213.234 12.185 213.573 12.5239L213.997 12.0996L214.421 11.6754C214.307 11.5611 214.257 11.4405 214.257 11.2801L213.657 11.2803ZM213.997 12.0996L213.573 12.5239C213.912 12.8631 214.338 13.0395 214.817 13.0395V12.4395V11.8395C214.656 11.8395 214.535 11.7894 214.421 11.6753L213.997 12.0996ZM214.817 12.4395L214.818 13.0395C215.302 13.0393 215.737 12.8681 216.081 12.5239L215.657 12.0996L215.233 11.6753C215.124 11.7843 214.999 11.8394 214.817 11.8395L214.817 12.4395ZM215.657 12.0996L216.082 12.5238C216.42 12.1851 216.597 11.7596 216.597 11.2805L215.997 11.2803L215.397 11.2801C215.397 11.4403 215.347 11.5611 215.233 11.6755L215.657 12.0996ZM215.997 11.2803H216.597V10.6201H215.997H215.397V11.2803H215.997ZM215.997 10.6201V11.2201H218.517V10.6201V10.0201H215.997V10.6201ZM218.517 10.6201H217.917V11.2803H218.517H219.117V10.6201H218.517ZM218.517 11.2803L217.917 11.2802C217.917 12.1334 217.62 12.8476 217.012 13.4556L217.437 13.8799L217.861 14.3041C218.693 13.4724 219.116 12.4535 219.117 11.2803L218.517 11.2803ZM217.437 13.8799L217.012 13.4556C216.406 14.0619 215.686 14.3599 214.817 14.36L214.817 14.96L214.817 15.56C216.002 15.5598 217.027 15.1373 217.861 14.3042L217.437 13.8799ZM214.817 14.96V14.36C213.964 14.36 213.249 14.0637 212.641 13.4556L212.217 13.8799L211.793 14.3041C212.624 15.1361 213.644 15.56 214.817 15.56V14.96ZM212.217 13.8799L212.641 13.4556C212.033 12.8476 211.737 12.1333 211.737 11.2802L211.137 11.2803L210.537 11.2803C210.537 12.4535 210.961 13.4724 211.793 14.3041L212.217 13.8799ZM211.137 11.2803H211.737V10.0957H211.137H210.537V11.2803H211.137ZM211.137 10.0957V10.6957H213.657V10.0957V9.4957H211.137V10.0957ZM213.657 10.0957H213.057V11.2803H213.657H214.257V10.0957H213.657ZM246.259 0L246.259 0.6C247.127 0.600089 247.847 0.89797 248.454 1.50435L248.878 1.08008L249.302 0.655801C248.469 -0.177482 247.443 -0.599878 246.259 -0.6L246.259 0ZM248.878 1.08008L248.454 1.50434C249.062 2.11245 249.358 2.82651 249.358 3.67971L249.958 3.67969L250.558 3.67966C250.558 2.50634 250.134 1.48762 249.302 0.655814L248.878 1.08008ZM249.958 3.67969H249.358V4.33984H249.958H250.558V3.67969H249.958ZM249.958 4.33984V3.73984H247.438V4.33984V4.93984H249.958V4.33984ZM247.438 4.33984H248.038V3.67969H247.438H246.838V4.33984H247.438ZM247.438 3.67969L248.038 3.67961C248.038 3.20074 247.862 2.77436 247.523 2.43511L247.099 2.85938L246.674 3.28364C246.788 3.39765 246.838 3.51878 246.838 3.67976L247.438 3.67969ZM247.099 2.85938L247.523 2.43507C247.179 2.09102 246.744 1.91968 246.259 1.91953L246.259 2.51953L246.259 3.11953C246.44 3.11959 246.565 3.17472 246.674 3.28368L247.099 2.85938ZM246.259 2.51953V1.91953C245.78 1.91953 245.353 2.09618 245.014 2.43498L245.438 2.85938L245.863 3.28377C245.977 3.16965 246.098 3.11953 246.259 3.11953V2.51953ZM245.438 2.85938L245.014 2.43511C244.675 2.77436 244.499 3.20074 244.499 3.67961L245.099 3.67969L245.699 3.67976C245.699 3.51878 245.749 3.39765 245.863 3.28364L245.438 2.85938ZM245.099 3.67969H244.499V11.2803H245.099H245.699V3.67969H245.099ZM245.099 11.2803L244.499 11.2805C244.499 11.7596 244.675 12.185 245.014 12.5239L245.438 12.0996L245.863 11.6754C245.748 11.5611 245.699 11.4405 245.699 11.2801L245.099 11.2803ZM245.438 12.0996L245.014 12.5239C245.353 12.8631 245.78 13.0395 246.259 13.0395V12.4395V11.8395C246.098 11.8395 245.977 11.7894 245.863 11.6753L245.438 12.0996ZM246.259 12.4395L246.259 13.0395C246.744 13.0393 247.179 12.8681 247.523 12.5239L247.099 12.0996L246.674 11.6753C246.565 11.7843 246.44 11.8394 246.259 11.8395L246.259 12.4395ZM247.099 12.0996L247.523 12.5238C247.861 12.1851 248.038 11.7596 248.038 11.2805L247.438 11.2803L246.838 11.2801C246.838 11.4403 246.789 11.5611 246.674 11.6755L247.099 12.0996ZM247.438 11.2803H248.038V8.47949H247.438H246.838V11.2803H247.438ZM247.438 8.47949V7.87949H245.979V8.47949V9.07949H247.438V8.47949ZM245.979 8.47949H246.579V5.95996H245.979H245.379V8.47949H245.979ZM245.979 5.95996V6.55996H249.958V5.95996V5.35996H245.979V5.95996ZM249.958 5.95996H249.358V11.2803H249.958H250.558V5.95996H249.958ZM249.958 11.2803L249.358 11.2802C249.358 12.1334 249.062 12.8476 248.454 13.4556L248.878 13.8799L249.302 14.3041C250.134 13.4724 250.558 12.4535 250.558 11.2803L249.958 11.2803ZM248.878 13.8799L248.454 13.4556C247.847 14.0619 247.127 14.3599 246.259 14.36L246.259 14.96L246.259 15.56C247.443 15.5598 248.469 15.1373 249.302 14.3042L248.878 13.8799ZM246.259 14.96V14.36C245.405 14.36 244.691 14.0637 244.082 13.4556L243.658 13.8799L243.234 14.3041C244.066 15.1361 245.086 15.56 246.259 15.56V14.96ZM243.658 13.8799L244.082 13.4556C243.474 12.8476 243.178 12.1333 243.178 11.2802L242.578 11.2803L241.978 11.2803C241.978 12.4535 242.402 13.4724 243.234 14.3041L243.658 13.8799ZM242.578 11.2803H243.178V3.67969H242.578H241.978V11.2803H242.578ZM242.578 3.67969L243.178 3.67971C243.178 2.82662 243.474 2.11242 244.082 1.50432L243.658 1.08008L243.234 0.655839C242.402 1.48758 241.978 2.5064 241.978 3.67966L242.578 3.67969ZM243.658 1.08008L244.082 1.50434C244.691 0.896301 245.405 0.6 246.259 0.6V0V-0.6C245.086 -0.6 244.066 -0.176146 243.234 0.655814L243.658 1.08008ZM275.7 11.2803L275.1 11.2805C275.1 11.7596 275.277 12.185 275.616 12.5239L276.04 12.0996L276.464 11.6754C276.35 11.5611 276.3 11.4405 276.3 11.2801L275.7 11.2803ZM276.04 12.0996L275.616 12.5239C275.955 12.8631 276.381 13.0395 276.86 13.0395V12.4395V11.8395C276.699 11.8395 276.578 11.7894 276.464 11.6753L276.04 12.0996ZM276.86 12.4395L276.861 13.0395C277.345 13.0393 277.78 12.8681 278.124 12.5239L277.7 12.0996L277.276 11.6753C277.167 11.7843 277.042 11.8394 276.86 11.8395L276.86 12.4395ZM277.7 12.0996L278.125 12.5238C278.463 12.1851 278.64 11.7596 278.64 11.2805L278.04 11.2803L277.44 11.2801C277.44 11.4403 277.39 11.5611 277.276 11.6755L277.7 12.0996ZM278.04 11.2803H278.64V10.0957H278.04H277.44V11.2803H278.04ZM278.04 10.0957V10.6957H280.56V10.0957V9.4957H278.04V10.0957ZM280.56 10.0957H279.96V11.2803H280.56H281.16V10.0957H280.56ZM280.56 11.2803L279.96 11.2802C279.959 12.1334 279.663 12.8476 279.055 13.4556L279.479 13.8799L279.904 14.3041C280.736 13.4724 281.159 12.4535 281.16 11.2803L280.56 11.2803ZM279.479 13.8799L279.055 13.4556C278.449 14.0619 277.729 14.3599 276.86 14.36L276.86 14.96L276.86 15.56C278.045 15.5598 279.07 15.1373 279.904 14.3042L279.479 13.8799ZM276.86 14.96V14.36C276.007 14.36 275.292 14.0637 274.684 13.4556L274.26 13.8799L273.835 14.3041C274.667 15.1361 275.687 15.56 276.86 15.56V14.96ZM274.26 13.8799L274.684 13.4556C274.076 12.8476 273.78 12.1333 273.78 11.2802L273.18 11.2803L272.58 11.2803C272.58 12.4535 273.004 13.4724 273.835 14.3041L274.26 13.8799ZM273.18 11.2803H273.78V10.0957H273.18H272.58V11.2803H273.18ZM273.18 10.0957V10.6957H275.7V10.0957V9.4957H273.18V10.0957ZM275.7 10.0957H275.1V11.2803H275.7H276.3V10.0957H275.7ZM291.315 11.2998H290.715C290.715 11.7734 290.897 12.1903 291.231 12.5239L291.655 12.0996L292.08 11.6754C291.96 11.5556 291.915 11.4396 291.915 11.2998H291.315ZM291.655 12.0996L291.231 12.5239C291.57 12.8627 291.995 13.0393 292.474 13.0395L292.475 12.4395L292.475 11.8395C292.314 11.8394 292.194 11.7896 292.08 11.6753L291.655 12.0996ZM292.475 12.4395V13.0395C292.948 13.0395 293.379 12.8839 293.727 12.557L293.315 12.1201L292.904 11.6832C292.798 11.783 292.668 11.8395 292.475 11.8395V12.4395ZM293.315 12.1201L293.74 12.5444C294.079 12.2052 294.255 11.7789 294.255 11.2998H293.655H293.055C293.055 11.4607 293.005 11.5818 292.891 11.6959L293.315 12.1201ZM293.655 11.2998H294.255V0.200195H293.655H293.055V11.2998H293.655ZM293.655 0.200195V0.800195H296.175V0.200195V-0.399805H293.655V0.200195ZM296.175 0.200195H295.575V11.2998H296.175H296.775V0.200195H296.175ZM296.175 11.2998H295.575C295.575 12.153 295.279 12.867 294.67 13.4752L295.095 13.8994L295.519 14.3237C296.351 13.4919 296.775 12.4732 296.775 11.2998H296.175ZM295.095 13.8994L294.674 13.4712C294.069 14.0658 293.347 14.36 292.475 14.36V14.96V15.56C293.656 15.56 294.681 15.1464 295.515 14.3276L295.095 13.8994ZM292.475 14.96L292.475 14.36C291.618 14.3599 290.903 14.0673 290.295 13.4712L289.875 13.8994L289.455 14.3276C290.287 15.1447 291.305 15.5598 292.475 15.56L292.475 14.96ZM289.875 13.8994L290.299 13.4752C289.691 12.867 289.395 12.1529 289.395 11.2998H288.795H288.195C288.195 12.4732 288.619 13.4919 289.451 14.3236L289.875 13.8994ZM288.795 11.2998H289.395V0.200195H288.795H288.195V11.2998H288.795ZM288.795 0.200195V0.800195H291.315V0.200195V-0.399805H288.795V0.200195ZM291.315 0.200195H290.715V11.2998H291.315H291.915V0.200195H291.315ZM45.457 8.16016H46.057V0.200195H45.457H44.857V8.16016H45.457ZM45.457 0.200195V0.800195H47.9766V0.200195V-0.399805H45.457V0.200195ZM47.9766 0.200195H47.3766V14.7598H47.9766H48.5766V0.200195H47.9766ZM47.9766 14.7598V14.1598H45.457V14.7598V15.3598H47.9766V14.7598ZM45.457 14.7598L46.0133 14.5348L42.7935 6.57482L42.2373 6.7998L41.6811 7.02479L44.9008 14.9848L45.457 14.7598ZM42.2373 6.7998H41.6373V14.7598H42.2373H42.8373V6.7998H42.2373ZM42.2373 14.7598V14.1598H39.7168V14.7598V15.3598H42.2373V14.7598ZM39.7168 14.7598H40.3168V0.200195H39.7168H39.1168V14.7598H39.7168ZM39.7168 0.200195V0.800195H42.2373V0.200195V-0.399805H39.7168V0.200195ZM42.2373 0.200195L41.6811 0.425181L44.9008 8.38514L45.457 8.16016L46.0133 7.93517L42.7935 -0.0247905L42.2373 0.200195ZM64.0068 14.7598V14.1598H61.4268V14.7598V15.3598H64.0068V14.7598ZM61.4268 14.7598L62.0165 14.6492L61.4764 11.7693L60.8867 11.8799L60.297 11.9905L60.837 14.8704L61.4268 14.7598ZM60.8867 11.8799V11.2799H58.4463V11.8799V12.4799H60.8867V11.8799ZM58.4463 11.8799L57.8565 11.7695L57.3175 14.6494L57.9072 14.7598L58.497 14.8702L59.036 11.9903L58.4463 11.8799ZM57.9072 14.7598V14.1598H55.3271V14.7598V15.3598H57.9072V14.7598ZM55.3271 14.7598L55.9142 14.8839L58.9942 0.324377L58.4072 0.200195L57.8202 0.0760136L54.7401 14.6356L55.3271 14.7598ZM58.4072 0.200195V0.800195H60.9268V0.200195V-0.399805H58.4072V0.200195ZM60.9268 0.200195L60.3398 0.324377L63.4198 14.8839L64.0068 14.7598L64.5938 14.6356L61.5138 0.0760136L60.9268 0.200195ZM74.6338 0.200195L74.6338 0.800195C75.5027 0.800223 76.2232 1.09814 76.8296 1.70454L77.2539 1.28027L77.6782 0.856009C76.8446 0.0224742 75.818 -0.399767 74.6338 -0.399805L74.6338 0.200195ZM77.2539 1.28027L76.8296 1.70449C77.4376 2.31264 77.734 3.02686 77.734 3.87988H78.334H78.934C78.934 2.70656 78.5097 1.68777 77.6782 0.856056L77.2539 1.28027ZM78.334 3.87988H77.734V4.7998H78.334H78.934V3.87988H78.334ZM78.334 4.7998H77.734C77.734 5.33933 77.606 5.83154 77.3507 6.28653L77.874 6.58008L78.3973 6.87363C78.7554 6.23529 78.934 5.54028 78.934 4.7998H78.334ZM77.874 6.58008L77.3483 6.29092C77.1042 6.73481 76.7669 7.09437 76.3295 7.37476L76.6533 7.87988L76.9771 8.38501C77.5797 7.99874 78.0572 7.492 78.3998 6.86923L77.874 6.58008ZM76.6533 7.87988L76.0894 8.0848L78.5894 14.9647L79.1533 14.7598L79.7172 14.5548L77.2172 7.67497L76.6533 7.87988ZM79.1533 14.7598V14.1598H76.4736V14.7598V15.3598H79.1533V14.7598ZM76.4736 14.7598L77.0388 14.5582L74.7985 8.27791L74.2334 8.47949L73.6683 8.68108L75.9085 14.9614L76.4736 14.7598ZM74.2334 8.47949V7.87949H73.874V8.47949V9.07949H74.2334V8.47949ZM73.874 8.47949H73.274V14.7598H73.874H74.474V8.47949H73.874ZM73.874 14.7598V14.1598H71.3535V14.7598V15.3598H73.874V14.7598ZM71.3535 14.7598H71.9535V0.200195H71.3535H70.7535V14.7598H71.3535ZM71.3535 0.200195V0.800195H74.6338V0.200195V-0.399805H71.3535V0.200195ZM89.7002 0.200195L89.7002 0.800195C90.5691 0.800223 91.2896 1.09814 91.896 1.70454L92.3203 1.28027L92.7446 0.856009C91.911 0.0224742 90.8845 -0.399767 89.7002 -0.399805L89.7002 0.200195ZM92.3203 1.28027L91.896 1.70449C92.504 2.31264 92.8004 3.02686 92.8004 3.87988H93.4004H94.0004C94.0004 2.70656 93.5762 1.68777 92.7446 0.856056L92.3203 1.28027ZM93.4004 3.87988H92.8004V4.7998H93.4004H94.0004V3.87988H93.4004ZM93.4004 4.7998H92.8004C92.8004 5.33933 92.6724 5.83154 92.4171 6.28653L92.9404 6.58008L93.4637 6.87363C93.8218 6.23529 94.0004 5.54028 94.0004 4.7998H93.4004ZM92.9404 6.58008L92.4147 6.29092C92.1706 6.73481 91.8333 7.09437 91.3959 7.37476L91.7197 7.87988L92.0435 8.38501C92.6461 7.99874 93.1236 7.492 93.4662 6.86923L92.9404 6.58008ZM91.7197 7.87988L91.1558 8.0848L93.6558 14.9647L94.2197 14.7598L94.7836 14.5548L92.2836 7.67497L91.7197 7.87988ZM94.2197 14.7598V14.1598H91.54V14.7598V15.3598H94.2197V14.7598ZM91.54 14.7598L92.1052 14.5582L89.8649 8.27791L89.2998 8.47949L88.7347 8.68108L90.9749 14.9614L91.54 14.7598ZM89.2998 8.47949V7.87949H88.9404V8.47949V9.07949H89.2998V8.47949ZM88.9404 8.47949H88.3404V14.7598H88.9404H89.5404V8.47949H88.9404ZM88.9404 14.7598V14.1598H86.4199V14.7598V15.3598H88.9404V14.7598ZM86.4199 14.7598H87.0199V0.200195H86.4199H85.8199V14.7598H86.4199ZM86.4199 0.200195V0.800195H89.7002V0.200195V-0.399805H86.4199V0.200195ZM109.187 14.7598V14.1598H106.606V14.7598V15.3598H109.187V14.7598ZM106.606 14.7598L107.196 14.6492L106.656 11.7693L106.066 11.8799L105.477 11.9905L106.017 14.8704L106.606 14.7598ZM106.066 11.8799V11.2799H103.626V11.8799V12.4799H106.066V11.8799ZM103.626 11.8799L103.036 11.7695L102.497 14.6494L103.087 14.7598L103.677 14.8702L104.216 11.9903L103.626 11.8799ZM103.087 14.7598V14.1598H100.507V14.7598V15.3598H103.087V14.7598ZM100.507 14.7598L101.094 14.8839L104.174 0.324377L103.587 0.200195L103 0.0760136L99.9198 14.6356L100.507 14.7598ZM103.587 0.200195V0.800195H106.106V0.200195V-0.399805H103.587V0.200195ZM106.106 0.200195L105.519 0.324377L108.6 14.8839L109.187 14.7598L109.774 14.6356L106.693 0.0760136L106.106 0.200195ZM123.253 2.71973V2.11973H120.753V2.71973V3.31973H123.253V2.71973ZM120.753 2.71973H120.153V14.7598H120.753H121.353V2.71973H120.753ZM120.753 14.7598V14.1598H118.233V14.7598V15.3598H120.753V14.7598ZM118.233 14.7598H118.833V2.71973H118.233H117.633V14.7598H118.233ZM118.233 2.71973V2.11973H115.733V2.71973V3.31973H118.233V2.71973ZM115.733 2.71973H116.333V0.200195H115.733H115.133V2.71973H115.733ZM115.733 0.200195V0.800195H123.253V0.200195V-0.399805H115.733V0.200195ZM123.253 0.200195H122.653V2.71973H123.253H123.853V0.200195H123.253ZM133.319 14.7598V14.1598H130.799V14.7598V15.3598H133.319V14.7598ZM130.799 14.7598H131.399V8.04785H130.799H130.199V14.7598H130.799ZM130.799 8.04785V8.64785H133.319V8.04785V7.44785H130.799V8.04785ZM133.319 8.04785H132.719V14.7598H133.319H133.919V8.04785H133.319ZM144.786 9.41992L145.378 9.51877L146.918 0.299048L146.326 0.200195L145.734 0.101342L144.194 9.32107L144.786 9.41992ZM146.326 0.200195V0.800195H148.906V0.200195V-0.399805H146.326V0.200195ZM148.906 0.200195L148.318 0.0845312L145.457 14.6441L146.046 14.7598L146.635 14.8754L149.495 0.315859L148.906 0.200195ZM146.046 14.7598V14.1598H143.526V14.7598V15.3598H146.046V14.7598ZM143.526 14.7598L144.115 14.6441L141.255 0.0845312L140.666 0.200195L140.077 0.315859L142.938 14.8754L143.526 14.7598ZM140.666 0.200195V0.800195H143.246V0.200195V-0.399805H140.666V0.200195ZM143.246 0.200195L142.654 0.299048L144.194 9.51877L144.786 9.41992L145.378 9.32107L143.838 0.101342L143.246 0.200195ZM162.864 2.71973V2.11973H158.765V2.71973V3.31973H162.864V2.71973ZM158.765 2.71973H158.165V5.95996H158.765H159.365V2.71973H158.765ZM158.765 5.95996V6.55996H162.384V5.95996V5.35996H158.765V5.95996ZM162.384 5.95996H161.784V8.47949H162.384H162.984V5.95996H162.384ZM162.384 8.47949V7.87949H158.765V8.47949V9.07949H162.384V8.47949ZM158.765 8.47949H158.165V12.2402H158.765H159.365V8.47949H158.765ZM158.765 12.2402V12.8402H162.864V12.2402V11.6402H158.765V12.2402ZM162.864 12.2402H162.264V14.7598H162.864H163.464V12.2402H162.864ZM162.864 14.7598V14.1598H156.244V14.7598V15.3598H162.864V14.7598ZM156.244 14.7598H156.844V0.200195H156.244H155.644V14.7598H156.244ZM156.244 0.200195V0.800195H162.864V0.200195V-0.399805H156.244V0.200195ZM162.864 0.200195H162.264V2.71973H162.864H163.464V0.200195H162.864ZM183.954 0.200195L183.954 0.800195C184.823 0.800223 185.544 1.09814 186.15 1.70454L186.574 1.28027L186.998 0.856009C186.165 0.0224742 185.138 -0.399767 183.954 -0.399805L183.954 0.200195ZM186.574 1.28027L186.15 1.70449C186.758 2.31264 187.054 3.02686 187.054 3.87988H187.654H188.254C188.254 2.70656 187.83 1.68777 186.999 0.856056L186.574 1.28027ZM187.654 3.87988H187.054V4.7998H187.654H188.254V3.87988H187.654ZM187.654 4.7998H187.054C187.054 5.4968 186.849 6.09148 186.443 6.6084L186.914 6.97949L187.386 7.35058C187.965 6.61429 188.254 5.7559 188.254 4.7998H187.654ZM186.914 6.97949L186.497 7.41126C187.142 8.03331 187.454 8.76522 187.454 9.63968L188.054 9.63965L188.654 9.63962C188.654 8.43425 188.206 7.39224 187.331 6.54772L186.914 6.97949ZM188.054 9.63965H187.454V11.0801H188.054H188.654V9.63965H188.054ZM188.054 11.0801L187.454 11.08C187.454 11.9332 187.157 12.6473 186.549 13.2554L186.974 13.6797L187.398 14.104C188.23 13.2722 188.654 12.2534 188.654 11.0801L188.054 11.0801ZM186.974 13.6797L186.549 13.2554C185.943 13.8618 185.222 14.1598 184.354 14.1598V14.7598V15.3598C185.538 15.3598 186.564 14.9374 187.398 14.104L186.974 13.6797ZM184.354 14.7598V14.1598H180.674V14.7598V15.3598H184.354V14.7598ZM180.674 14.7598H181.274V0.200195H180.674H180.074V14.7598H180.674ZM180.674 0.200195V0.800195H183.954V0.200195V-0.399805H180.674V0.200195ZM203.87 14.7598V14.1598H201.29V14.7598V15.3598H203.87V14.7598ZM201.29 14.7598L201.88 14.6492L201.34 11.7693L200.75 11.8799L200.16 11.9905L200.7 14.8704L201.29 14.7598ZM200.75 11.8799V11.2799H198.31V11.8799V12.4799H200.75V11.8799ZM198.31 11.8799L197.72 11.7695L197.181 14.6494L197.771 14.7598L198.36 14.8702L198.899 11.9903L198.31 11.8799ZM197.771 14.7598V14.1598H195.19V14.7598V15.3598H197.771V14.7598ZM195.19 14.7598L195.777 14.8839L198.858 0.324377L198.271 0.200195L197.684 0.0760136L194.603 14.6356L195.19 14.7598ZM198.271 0.200195V0.800195H200.79V0.200195V-0.399805H198.271V0.200195ZM200.79 0.200195L200.203 0.324377L203.283 14.8839L203.87 14.7598L204.457 14.6356L201.377 0.0760136L200.79 0.200195ZM229.077 6.33984L229.624 6.58583L232.384 0.446186L231.837 0.200195L231.29 -0.0457955L228.53 6.09385L229.077 6.33984ZM231.837 0.200195V0.800195H234.637V0.200195V-0.399805H231.837V0.200195ZM234.637 0.200195L234.099 -0.0659879L231.139 5.9135L231.677 6.17969L232.214 6.44587L235.174 0.466379L234.637 0.200195ZM231.677 6.17969L231.123 6.41181L234.723 14.9919L235.276 14.7598L235.83 14.5276L232.23 5.94757L231.677 6.17969ZM235.276 14.7598V14.1598H232.537V14.7598V15.3598H235.276V14.7598ZM232.537 14.7598L233.096 14.5405L230.835 8.78078L230.276 9L229.718 9.21922L231.979 14.979L232.537 14.7598ZM230.276 9L229.74 8.73176L228.54 11.1312L229.077 11.3994L229.614 11.6677L230.813 9.26824L230.276 9ZM229.077 11.3994H228.477V14.7598H229.077H229.677V11.3994H229.077ZM229.077 14.7598V14.1598H226.557V14.7598V15.3598H229.077V14.7598ZM226.557 14.7598H227.157V0.200195H226.557H225.957V14.7598H226.557ZM226.557 0.200195V0.800195H229.077V0.200195V-0.399805H226.557V0.200195ZM229.077 0.200195H228.477V6.33984H229.077H229.677V0.200195H229.077ZM261.474 0.200195L261.474 0.800195C262.343 0.800223 263.063 1.09814 263.669 1.70454L264.094 1.28027L264.518 0.856009C263.684 0.0224742 262.658 -0.399767 261.474 -0.399805L261.474 0.200195ZM264.094 1.28027L263.669 1.70449C264.277 2.31264 264.574 3.02686 264.574 3.87988H265.174H265.774C265.774 2.70656 265.35 1.68777 264.518 0.856056L264.094 1.28027ZM265.174 3.87988H264.574V4.7998H265.174H265.774V3.87988H265.174ZM265.174 4.7998H264.574C264.574 5.33933 264.446 5.83154 264.191 6.28653L264.714 6.58008L265.237 6.87363C265.595 6.23529 265.774 5.54028 265.774 4.7998H265.174ZM264.714 6.58008L264.188 6.29092C263.944 6.73481 263.607 7.09437 263.169 7.37476L263.493 7.87988L263.817 8.38501C264.42 7.99874 264.897 7.492 265.24 6.86923L264.714 6.58008ZM263.493 7.87988L262.929 8.0848L265.429 14.9647L265.993 14.7598L266.557 14.5548L264.057 7.67497L263.493 7.87988ZM265.993 14.7598V14.1598H263.313V14.7598V15.3598H265.993V14.7598ZM263.313 14.7598L263.879 14.5582L261.638 8.27791L261.073 8.47949L260.508 8.68108L262.748 14.9614L263.313 14.7598ZM261.073 8.47949V7.87949H260.714V8.47949V9.07949H261.073V8.47949ZM260.714 8.47949H260.114V14.7598H260.714H261.314V8.47949H260.714ZM260.714 14.7598V14.1598H258.193V14.7598V15.3598H260.714V14.7598ZM258.193 14.7598H258.793V0.200195H258.193H257.593V14.7598H258.193ZM258.193 0.200195V0.800195H261.474V0.200195V-0.399805H258.193V0.200195ZM310.246 8.16016H310.846V0.200195H310.246H309.646V8.16016H310.246ZM310.246 0.200195V0.800195H312.766V0.200195V-0.399805H310.246V0.200195ZM312.766 0.200195H312.166V14.7598H312.766H313.366V0.200195H312.766ZM312.766 14.7598V14.1598H310.246V14.7598V15.3598H312.766V14.7598ZM310.246 14.7598L310.802 14.5348L307.583 6.57482L307.026 6.7998L306.47 7.02479L309.69 14.9848L310.246 14.7598ZM307.026 6.7998H306.426V14.7598H307.026H307.626V6.7998H307.026ZM307.026 14.7598V14.1598H304.506V14.7598V15.3598H307.026V14.7598ZM304.506 14.7598H305.106V0.200195H304.506H303.906V14.7598H304.506ZM304.506 0.200195V0.800195H307.026V0.200195V-0.399805H304.506V0.200195ZM307.026 0.200195L306.47 0.425181L309.69 8.38514L310.246 8.16016L310.802 7.93517L307.583 -0.0247905L307.026 0.200195ZM324.775 0.200195V0.800195C325.629 0.800195 326.344 1.0965 326.952 1.70454L327.376 1.28027L327.8 0.856009C326.968 0.0240498 325.949 -0.399805 324.775 -0.399805V0.200195ZM327.376 1.28027L326.956 1.70837C327.576 2.31728 327.876 3.03022 327.876 3.87988H328.476H329.076C329.076 2.70314 328.643 1.68316 327.796 0.852173L327.376 1.28027ZM328.476 3.87988H327.876V11.0801H328.476H329.076V3.87988H328.476ZM328.476 11.0801L327.876 11.08C327.876 11.9297 327.576 12.6427 326.956 13.2516L327.376 13.6797L327.796 14.1078C328.643 13.2768 329.076 12.2567 329.076 11.0801L328.476 11.0801ZM327.376 13.6797L326.952 13.2554C326.344 13.8635 325.629 14.1598 324.775 14.1598V14.7598V15.3598C325.949 15.3598 326.968 14.9359 327.8 14.104L327.376 13.6797ZM324.775 14.7598V14.1598H321.096V14.7598V15.3598H324.775V14.7598ZM321.096 14.7598H321.696V0.200195H321.096H320.496V14.7598H321.096ZM321.096 0.200195V0.800195H324.775V0.200195V-0.399805H321.096V0.200195ZM183.194 12.2402V12.8402H184.354V12.2402V11.6402H183.194V12.2402ZM184.354 12.2402V12.8402C184.84 12.8402 185.275 12.6673 185.619 12.3237L185.194 11.8994L184.77 11.4752C184.66 11.5848 184.534 11.6402 184.354 11.6402V12.2402ZM185.194 11.8994L185.619 12.3235C185.957 11.9849 186.134 11.5595 186.134 11.0802L185.534 11.0801L184.934 11.08C184.934 11.24 184.884 11.3608 184.77 11.4753L185.194 11.8994ZM185.534 11.0801H186.134V9.63965H185.534H184.934V11.0801H185.534ZM185.534 9.63965L186.134 9.63956C186.134 9.16017 185.957 8.73478 185.619 8.39623L185.194 8.82031L184.77 9.24439C184.884 9.35892 184.934 9.4797 184.934 9.63974L185.534 9.63965ZM185.194 8.82031L185.619 8.39605C185.275 8.0524 184.84 7.87949 184.354 7.87949V8.47949V9.07949C184.534 9.07949 184.66 9.13489 184.77 9.24458L185.194 8.82031ZM184.354 8.47949V7.87949H183.194V8.47949V9.07949H184.354V8.47949ZM183.194 8.47949H182.594V12.2402H183.194H183.794V8.47949H183.194ZM323.616 12.2402V12.8402H324.775V12.2402V11.6402H323.616V12.2402ZM324.775 12.2402V12.8402C325.261 12.8402 325.697 12.6673 326.04 12.3237L325.616 11.8994L325.192 11.4752C325.082 11.5848 324.956 11.6402 324.775 11.6402V12.2402ZM325.616 11.8994L326.041 12.3235C326.379 11.9849 326.556 11.5595 326.556 11.0802L325.956 11.0801L325.356 11.08C325.356 11.24 325.306 11.3608 325.192 11.4753L325.616 11.8994ZM325.956 11.0801H326.556V3.87988H325.956H325.356V11.0801H325.956ZM325.956 3.87988H326.556C326.556 3.40083 326.38 2.97453 326.04 2.63533L325.616 3.05957L325.192 3.48381C325.306 3.59792 325.356 3.71898 325.356 3.87988H325.956ZM325.616 3.05957L326.04 2.63531C325.696 2.29076 325.26 2.11973 324.775 2.11973V2.71973V3.31973C324.957 3.31973 325.083 3.37505 325.192 3.48383L325.616 3.05957ZM324.775 2.71973V2.11973H323.616V2.71973V3.31973H324.775V2.71973ZM323.616 2.71973H323.016V12.2402H323.616H324.216V2.71973H323.616ZM58.9072 9.35938V9.95938H60.4268V9.35938V8.75937H58.9072V9.35938ZM60.4268 9.35938L61.0167 9.25004L60.2569 5.15043L59.667 5.25977L59.077 5.3691L59.8368 9.46871L60.4268 9.35938ZM59.667 5.25977L59.077 5.15043L58.3173 9.25004L58.9072 9.35938L59.4972 9.46871L60.2569 5.3691L59.667 5.25977ZM104.087 9.35938V9.95938H105.606V9.35938V8.75937H104.087V9.35938ZM105.606 9.35938L106.196 9.25004L105.437 5.15043L104.847 5.25977L104.257 5.3691L105.016 9.46871L105.606 9.35938ZM104.847 5.25977L104.257 5.15043L103.497 9.25004L104.087 9.35938L104.677 9.46871L105.437 5.3691L104.847 5.25977ZM198.771 9.35938V9.95938H200.29V9.35938V8.75937H198.771V9.35938ZM200.29 9.35938L200.88 9.25004L200.12 5.15043L199.53 5.25977L198.94 5.3691L199.7 9.46871L200.29 9.35938ZM199.53 5.25977L198.94 5.15043L198.181 9.25004L198.771 9.35938L199.36 9.46871L200.12 5.3691L199.53 5.25977ZM213.657 9.0957V8.4957H211.137V9.0957V9.6957H213.657V9.0957ZM211.137 9.0957H211.737V8.0957H211.137H210.537V9.0957H211.137ZM211.137 8.0957V8.6957H213.657V8.0957V7.4957H211.137V8.0957ZM213.657 8.0957H213.057V9.0957H213.657H214.257V8.0957H213.657ZM275.7 9.0957V8.4957H273.18V9.0957V9.6957H275.7V9.0957ZM273.18 9.0957H273.78V8.0957H273.18H272.58V9.0957H273.18ZM273.18 8.0957V8.6957H275.7V8.0957V7.4957H273.18V8.0957ZM275.7 8.0957H275.1V9.0957H275.7H276.3V8.0957H275.7ZM280.56 9.0957V8.4957H278.04V9.0957V9.6957H280.56V9.0957ZM278.04 9.0957H278.64V8.0957H278.04H277.44V9.0957H278.04ZM278.04 8.0957V8.6957H280.56V8.0957V7.4957H278.04V8.0957ZM280.56 8.0957H279.96V9.0957H280.56H281.16V8.0957H280.56ZM213.657 7.0957V6.4957H211.137V7.0957V7.6957H213.657V7.0957ZM211.137 7.0957H211.737V6.0957H211.137H210.537V7.0957H211.137ZM211.137 6.0957V6.6957H213.657V6.0957V5.4957H211.137V6.0957ZM213.657 6.0957H213.057V7.0957H213.657H214.257V6.0957H213.657ZM275.7 7.0957V6.4957H273.18V7.0957V7.6957H275.7V7.0957ZM273.18 7.0957H273.78V6.0957H273.18H272.58V7.0957H273.18ZM273.18 6.0957V6.6957H275.7V6.0957V5.4957H273.18V6.0957ZM275.7 6.0957H275.1V7.0957H275.7H276.3V6.0957H275.7ZM280.56 7.0957V6.4957H278.04V7.0957V7.6957H280.56V7.0957ZM278.04 7.0957H278.64V6.0957H278.04H277.44V7.0957H278.04ZM278.04 6.0957V6.6957H280.56V6.0957V5.4957H278.04V6.0957ZM280.56 6.0957H279.96V7.0957H280.56H281.16V6.0957H280.56ZM133.319 7.04785V6.44785H130.799V7.04785V7.64785H133.319V7.04785ZM130.799 7.04785H131.399V6.04785H130.799H130.199V7.04785H130.799ZM130.799 6.04785V6.64785H133.319V6.04785V5.44785H130.799V6.04785ZM133.319 6.04785H132.719V7.04785H133.319H133.919V6.04785H133.319ZM73.874 5.95996V6.55996H74.6338V5.95996V5.35996H73.874V5.95996ZM74.6338 5.95996L74.6338 6.55996C75.119 6.55992 75.5538 6.38842 75.8978 6.04445L75.4736 5.62012L75.0494 5.19579C74.9403 5.30489 74.815 5.35994 74.6337 5.35996L74.6338 5.95996ZM75.4736 5.62012L75.8979 6.04438C76.2371 5.70514 76.4135 5.27886 76.4135 4.7998H75.8135H75.2135C75.2135 4.96075 75.1635 5.08176 75.0494 5.19585L75.4736 5.62012ZM75.8135 4.7998H76.4135V3.87988H75.8135H75.2135V4.7998H75.8135ZM75.8135 3.87988H76.4135C76.4135 3.40083 76.2371 2.97455 75.8979 2.63531L75.4736 3.05957L75.0494 3.48383C75.1635 3.59793 75.2135 3.71894 75.2135 3.87988H75.8135ZM75.4736 3.05957L75.8978 2.63524C75.5538 2.29127 75.119 2.11977 74.6338 2.11973L74.6338 2.71973L74.6337 3.31973C74.815 3.31974 74.9403 3.3748 75.0494 3.4839L75.4736 3.05957ZM74.6338 2.71973V2.11973H73.874V2.71973V3.31973H74.6338V2.71973ZM73.874 2.71973H73.274V5.95996H73.874H74.474V2.71973H73.874ZM88.9404 5.95996V6.55996H89.7002V5.95996V5.35996H88.9404V5.95996ZM89.7002 5.95996L89.7003 6.55996C90.1854 6.55992 90.6202 6.38842 90.9642 6.04445L90.54 5.62012L90.1158 5.19579C90.0067 5.30489 89.8814 5.35994 89.7001 5.35996L89.7002 5.95996ZM90.54 5.62012L90.9643 6.04438C91.3035 5.70514 91.4799 5.27886 91.4799 4.7998H90.8799H90.2799C90.2799 4.96075 90.2299 5.08176 90.1158 5.19585L90.54 5.62012ZM90.8799 4.7998H91.4799V3.87988H90.8799H90.2799V4.7998H90.8799ZM90.8799 3.87988H91.4799C91.4799 3.40083 91.3035 2.97455 90.9643 2.63531L90.54 3.05957L90.1158 3.48383C90.2299 3.59793 90.2799 3.71894 90.2799 3.87988H90.8799ZM90.54 3.05957L90.9642 2.63524C90.6202 2.29127 90.1854 2.11977 89.7003 2.11973L89.7002 2.71973L89.7001 3.31973C89.8814 3.31974 90.0067 3.3748 90.1158 3.4839L90.54 3.05957ZM89.7002 2.71973V2.11973H88.9404V2.71973V3.31973H89.7002V2.71973ZM88.9404 2.71973H88.3404V5.95996H88.9404H89.5404V2.71973H88.9404ZM183.194 5.95996V6.55996H183.954V5.95996V5.35996H183.194V5.95996ZM183.954 5.95996L183.954 6.55996C184.439 6.55992 184.874 6.38842 185.218 6.04445L184.794 5.62012L184.37 5.19579C184.261 5.30489 184.135 5.35994 183.954 5.35996L183.954 5.95996ZM184.794 5.62012L185.218 6.04438C185.557 5.70514 185.734 5.27886 185.734 4.7998H185.134H184.534C184.534 4.96075 184.484 5.08176 184.37 5.19585L184.794 5.62012ZM185.134 4.7998H185.734V3.87988H185.134H184.534V4.7998H185.134ZM185.134 3.87988H185.734C185.734 3.40083 185.557 2.97455 185.218 2.63531L184.794 3.05957L184.37 3.48383C184.484 3.59793 184.534 3.71894 184.534 3.87988H185.134ZM184.794 3.05957L185.218 2.63524C184.874 2.29127 184.439 2.11977 183.954 2.11973L183.954 2.71973L183.954 3.31973C184.135 3.31974 184.261 3.3748 184.37 3.4839L184.794 3.05957ZM183.954 2.71973V2.11973H183.194V2.71973V3.31973H183.954V2.71973ZM183.194 2.71973H182.594V5.95996H183.194H183.794V2.71973H183.194ZM260.714 5.95996V6.55996H261.474V5.95996V5.35996H260.714V5.95996ZM261.474 5.95996L261.474 6.55996C261.959 6.55992 262.394 6.38842 262.738 6.04445L262.313 5.62012L261.889 5.19579C261.78 5.30489 261.655 5.35994 261.474 5.35996L261.474 5.95996ZM262.313 5.62012L262.738 6.04438C263.077 5.70514 263.253 5.27886 263.253 4.7998H262.653H262.053C262.053 4.96075 262.003 5.08176 261.889 5.19585L262.313 5.62012ZM262.653 4.7998H263.253V3.87988H262.653H262.053V4.7998H262.653ZM262.653 3.87988H263.253C263.253 3.40083 263.077 2.97455 262.738 2.63531L262.313 3.05957L261.889 3.48383C262.003 3.59793 262.053 3.71894 262.053 3.87988H262.653ZM262.313 3.05957L262.738 2.63524C262.394 2.29127 261.959 2.11977 261.474 2.11973L261.474 2.71973L261.474 3.31973C261.655 3.31974 261.78 3.3748 261.889 3.4839L262.313 3.05957ZM261.474 2.71973V2.11973H260.714V2.71973V3.31973H261.474V2.71973ZM260.714 2.71973H260.114V5.95996H260.714H261.314V2.71973H260.714ZM214.817 0L214.817 0.6C215.686 0.600089 216.406 0.89797 217.012 1.50435L217.437 1.08008L217.861 0.655801C217.027 -0.177482 216.002 -0.599878 214.817 -0.6L214.817 0ZM217.437 1.08008L217.012 1.50434C217.62 2.11245 217.917 2.82651 217.917 3.67971L218.517 3.67969L219.117 3.67966C219.117 2.50634 218.693 1.48762 217.861 0.655814L217.437 1.08008ZM218.517 3.67969H217.917V4.33984H218.517H219.117V3.67969H218.517ZM218.517 4.33984V3.73984H215.997V4.33984V4.93984H218.517V4.33984ZM215.997 4.33984H216.597V3.67969H215.997H215.397V4.33984H215.997ZM215.997 3.67969L216.597 3.67961C216.597 3.20074 216.421 2.77436 216.081 2.43511L215.657 2.85938L215.233 3.28364C215.347 3.39765 215.397 3.51878 215.397 3.67976L215.997 3.67969ZM215.657 2.85938L216.081 2.43507C215.737 2.09102 215.302 1.91968 214.818 1.91953L214.817 2.51953L214.817 3.11953C214.999 3.11959 215.124 3.17472 215.233 3.28368L215.657 2.85938ZM214.817 2.51953V1.91953C214.338 1.91953 213.912 2.09618 213.573 2.43498L213.997 2.85938L214.421 3.28377C214.535 3.16965 214.657 3.11953 214.817 3.11953V2.51953ZM213.997 2.85938L213.573 2.43511C213.234 2.77436 213.057 3.20074 213.057 3.67961L213.657 3.67969L214.257 3.67976C214.257 3.51878 214.307 3.39765 214.421 3.28364L213.997 2.85938ZM213.657 3.67969H213.057V5.0957H213.657H214.257V3.67969H213.657ZM213.657 5.0957V4.4957H211.137V5.0957V5.6957H213.657V5.0957ZM211.137 5.0957H211.737V3.67969H211.137H210.537V5.0957H211.137ZM211.137 3.67969L211.737 3.67971C211.737 2.82662 212.033 2.11242 212.641 1.50432L212.217 1.08008L211.793 0.655839C210.961 1.48758 210.537 2.5064 210.537 3.67966L211.137 3.67969ZM212.217 1.08008L212.641 1.50434C213.249 0.896301 213.964 0.6 214.817 0.6V0V-0.6C213.644 -0.6 212.624 -0.176146 211.793 0.655814L212.217 1.08008ZM276.86 0L276.86 0.6C277.729 0.600089 278.449 0.89797 279.055 1.50435L279.479 1.08008L279.904 0.655801C279.07 -0.177482 278.045 -0.599878 276.86 -0.6L276.86 0ZM279.479 1.08008L279.055 1.50434C279.663 2.11245 279.96 2.82651 279.96 3.67971L280.56 3.67969L281.16 3.67966C281.16 2.50634 280.736 1.48762 279.904 0.655814L279.479 1.08008ZM280.56 3.67969H279.96V5.0957H280.56H281.16V3.67969H280.56ZM280.56 5.0957V4.4957H278.04V5.0957V5.6957H280.56V5.0957ZM278.04 5.0957H278.64V3.67969H278.04H277.44V5.0957H278.04ZM278.04 3.67969L278.64 3.67961C278.64 3.20074 278.464 2.77436 278.124 2.43511L277.7 2.85938L277.276 3.28364C277.39 3.39765 277.44 3.51878 277.44 3.67976L278.04 3.67969ZM277.7 2.85938L278.124 2.43507C277.78 2.09102 277.345 1.91968 276.861 1.91953L276.86 2.51953L276.86 3.11953C277.042 3.11959 277.167 3.17472 277.276 3.28368L277.7 2.85938ZM276.86 2.51953V1.91953C276.381 1.91953 275.955 2.09618 275.616 2.43498L276.04 2.85938L276.464 3.28377C276.578 3.16965 276.7 3.11953 276.86 3.11953V2.51953ZM276.04 2.85938L275.616 2.43511C275.277 2.77436 275.1 3.20074 275.1 3.67961L275.7 3.67969L276.3 3.67976C276.3 3.51878 276.35 3.39765 276.464 3.28364L276.04 2.85938ZM275.7 3.67969H275.1V5.0957H275.7H276.3V3.67969H275.7ZM275.7 5.0957V4.4957H273.18V5.0957V5.6957H275.7V5.0957ZM273.18 5.0957H273.78V3.67969H273.18H272.58V5.0957H273.18ZM273.18 3.67969L273.78 3.67971C273.78 2.82662 274.076 2.11242 274.684 1.50432L274.26 1.08008L273.835 0.655839C273.004 1.48758 272.58 2.5064 272.58 3.67966L273.18 3.67969ZM274.26 1.08008L274.684 1.50434C275.292 0.896301 276.007 0.6 276.86 0.6V0V-0.6C275.687 -0.6 274.667 -0.176146 273.835 0.655814L274.26 1.08008ZM133.319 5.04785V4.44785H130.799V5.04785V5.64785H133.319V5.04785ZM130.799 5.04785H131.399V4.04785H130.799H130.199V5.04785H130.799ZM130.799 4.04785V4.64785H133.319V4.04785V3.44785H130.799V4.04785ZM133.319 4.04785H132.719V5.04785H133.319H133.919V4.04785H133.319ZM133.319 3.04785V2.44785H130.799V3.04785V3.64785H133.319V3.04785ZM130.799 3.04785H131.399V0.200195H130.799H130.199V3.04785H130.799ZM130.799 0.200195V0.800195H133.319V0.200195V-0.399805H130.799V0.200195ZM133.319 0.200195H132.719V3.04785H133.319H133.919V0.200195H133.319Z" fill="url(#paint1_linear_7_437)" mask="url(#path-1-inside-1_7_437)"/>
<defs>
<radialGradient id="paint0_radial_7_437" cx="0" cy="0" r="1" gradientUnits="userSpaceOnUse" gradientTransform="translate(183.599 7.67658) rotate(90) scale(38.8047 187.943)">
<stop stop-color="#ECF7FF"/>
<stop offset="1" stop-color="#ECF7FF" stop-opacity="0"/>
</radialGradient>
<linearGradient id="paint1_linear_7_437" x1="183.599" y1="-6.45475" x2="183.599" y2="44.9505" gradientUnits="userSpaceOnUse">
<stop stop-color="#253596" stop-opacity="0"/>
<stop offset="0.456017" stop-color="#4A76D4"/>
<stop offset="1" stop-color="#76EAF1"/>
</linearGradient>
</defs>
</svg>
