<svg width="370" height="22" viewBox="0 0 370 22" fill="none" xmlns="http://www.w3.org/2000/svg">
<mask id="path-1-inside-1_7_389" fill="white">
<path d="M69.4067 0C70.4333 5.0884e-05 71.3069 0.360129 72.0269 1.08008C72.7466 1.79998 73.1069 2.66656 73.1069 3.67969V4.33984H70.5864V3.67969C70.5864 3.35976 70.4732 3.086 70.2466 2.85938C70.02 2.6329 69.7399 2.51958 69.4067 2.51953C69.0868 2.51953 68.8131 2.63284 68.5864 2.85938C68.3598 3.086 68.2466 3.35976 68.2466 3.67969V3.91992C68.2466 4.51989 68.4668 5.00656 68.9067 5.37988L71.5669 7.66016C72.5933 8.56677 73.1069 9.69353 73.1069 11.04V11.2803C73.1068 12.2934 72.7467 13.16 72.0269 13.8799C71.3069 14.5998 70.4333 14.9599 69.4067 14.96C68.3934 14.96 67.5262 14.5999 66.8062 13.8799C66.0864 13.16 65.7262 12.2933 65.7261 11.2803V10.6201H68.2466V11.2803C68.2467 11.6 68.36 11.8731 68.5864 12.0996C68.8131 12.3263 69.0867 12.4395 69.4067 12.4395C69.74 12.4394 70.02 12.3262 70.2466 12.0996C70.473 11.8731 70.5863 11.6 70.5864 11.2803V11.04C70.5864 10.44 70.3663 9.95341 69.9263 9.58008L67.2661 7.2998C66.2396 6.39319 65.7261 5.26645 65.7261 3.91992V3.67969C65.7261 2.66656 66.0864 1.79998 66.8062 1.08008C67.5262 0.360078 68.3934 0 69.4067 0ZM84.4731 0C85.4997 5.0884e-05 86.3733 0.360129 87.0933 1.08008C87.813 1.79998 88.1733 2.66656 88.1733 3.67969V4.33984H85.6528V3.67969C85.6528 3.35976 85.5396 3.086 85.313 2.85938C85.0864 2.6329 84.8063 2.51958 84.4731 2.51953C84.1532 2.51953 83.8795 2.63284 83.6528 2.85938C83.4262 3.086 83.313 3.35976 83.313 3.67969V3.91992C83.313 4.51989 83.5332 5.00656 83.9731 5.37988L86.6333 7.66016C87.6597 8.56677 88.1733 9.69353 88.1733 11.04V11.2803C88.1732 12.2934 87.8131 13.16 87.0933 13.8799C86.3733 14.5998 85.4997 14.9599 84.4731 14.96C83.4598 14.96 82.5926 14.5999 81.8726 13.8799C81.1528 13.16 80.7926 12.2933 80.7925 11.2803V10.6201H83.313V11.2803C83.3131 11.6 83.4264 11.8731 83.6528 12.0996C83.8795 12.3263 84.1531 12.4395 84.4731 12.4395C84.8064 12.4394 85.0864 12.3262 85.313 12.0996C85.5395 11.8731 85.6527 11.6 85.6528 11.2803V11.04C85.6528 10.44 85.4327 9.95341 84.9927 9.58008L82.3325 7.2998C81.306 6.39319 80.7925 5.26645 80.7925 3.91992V3.67969C80.7925 2.66656 81.1528 1.79998 81.8726 1.08008C82.5926 0.360078 83.4598 0 84.4731 0ZM129.631 11.2803C129.631 11.6001 129.745 11.8731 129.971 12.0996C130.198 12.3263 130.472 12.4395 130.792 12.4395C131.125 12.4394 131.405 12.3262 131.631 12.0996C131.858 11.8731 131.971 11.6 131.971 11.2803V10.6201H134.491V11.2803C134.491 12.2934 134.131 13.16 133.411 13.8799C132.691 14.5996 131.818 14.9599 130.792 14.96C129.778 14.96 128.911 14.5999 128.191 13.8799C127.471 13.16 127.111 12.2934 127.111 11.2803V10.0479H129.631V11.2803ZM170.561 0C171.587 0.000105686 172.46 0.360244 173.18 1.08008C173.9 1.80004 174.26 2.66642 174.26 3.67969V11.2803C174.26 12.2934 173.9 13.16 173.18 13.8799C172.46 14.5996 171.587 14.9599 170.561 14.96C169.548 14.96 168.68 14.5999 167.96 13.8799C167.241 13.16 166.88 12.2934 166.88 11.2803V3.67969C166.88 2.66651 167.241 1.8 167.96 1.08008C168.68 0.360078 169.548 0 170.561 0ZM264.717 0C265.744 0.000105686 266.617 0.360244 267.336 1.08008C268.056 1.80004 268.416 2.66642 268.417 3.67969V4.33984H265.897V3.67969C265.897 3.35976 265.784 3.086 265.557 2.85938C265.331 2.63287 265.05 2.51963 264.717 2.51953C264.397 2.51953 264.124 2.63291 263.897 2.85938C263.67 3.086 263.557 3.35976 263.557 3.67969V11.2803C263.557 11.6001 263.67 11.8731 263.897 12.0996C264.124 12.3263 264.397 12.4395 264.717 12.4395C265.05 12.4394 265.331 12.3262 265.557 12.0996C265.784 11.8731 265.897 11.6 265.897 11.2803V8.47949H264.437V5.95996H268.417V11.2803C268.416 12.2934 268.056 13.16 267.336 13.8799C266.617 14.5996 265.744 14.9599 264.717 14.96C263.704 14.96 262.837 14.5999 262.117 13.8799C261.397 13.16 261.037 12.2934 261.037 11.2803V3.67969C261.037 2.66651 261.397 1.8 262.117 1.08008C262.837 0.360078 263.704 0 264.717 0ZM58.2446 2.71973H54.145V5.95996H57.7642V8.47949H54.145V12.2402H58.2446V14.7598H51.6245V0.200195H58.2446V2.71973ZM102.799 2.71973H98.6997V5.95996H102.319V8.47949H98.6997V12.2402H102.799V14.7598H96.1792V0.200195H102.799V2.71973ZM116.341 8.16016V0.200195H118.861V14.7598H116.341L113.122 6.7998V14.7598H110.601V0.200195H113.122L116.341 8.16016ZM149.151 2.71973H145.051V5.95996H148.67V8.47949H145.051V12.2402H149.151V14.7598H142.531V0.200195H149.151V2.71973ZM185.016 14.7598H182.496V12.7598H185.016V14.7598ZM213.43 2.71973H210.93V14.7598H208.411V2.71973H205.911V0.200195H213.43V2.71973ZM223.497 5.95996H225.836V0.200195H228.356V14.7598H225.836V8.47949H223.497V14.7598H220.976V0.200195H223.497V5.95996ZM243.307 2.71973H239.208V5.95996H242.827V8.47949H239.208V12.2402H243.307V14.7598H236.687V0.200195H243.307V2.71973ZM278.252 14.7598H275.672L276.246 12.0479H278.76L278.252 14.7598ZM284.352 14.7598H281.772L281.263 12.0479H283.779L284.352 14.7598ZM296.899 8.13965L299.539 0.200195H302.079V14.7598H299.559V6.82031L297.799 12.5H295.979L294.219 6.82031V14.7598H291.699V0.200195H294.239L296.899 8.13965ZM317.018 2.71973H312.918V5.95996H316.538V8.47949H312.918V12.2402H317.018V14.7598H310.398V0.200195H317.018V2.71973ZM170.561 2.51953C170.241 2.51953 169.967 2.63291 169.741 2.85938C169.514 3.086 169.401 3.35976 169.401 3.67969V11.2803C169.401 11.6001 169.514 11.8731 169.741 12.0996C169.967 12.3263 170.241 12.4395 170.561 12.4395C170.894 12.4394 171.174 12.3262 171.401 12.0996C171.627 11.8731 171.741 11.6 171.741 11.2803V3.67969C171.741 3.35976 171.628 3.086 171.401 2.85938C171.174 2.63287 170.894 2.51963 170.561 2.51953ZM185.016 11.7598H182.496V10.7598H185.016V11.7598ZM283.567 11.0479H276.458L276.669 10.0479H283.355L283.567 11.0479ZM185.016 9.75977H182.496V8.75977H185.016V9.75977ZM129.631 9.04785H127.111V8.04785H129.631V9.04785ZM279.31 9.04785H276.88L277.092 8.04785H279.496L279.31 9.04785ZM283.144 9.04785H280.714L280.529 8.04785H282.932L283.144 9.04785ZM189.116 2.71973H185.016V5.95996H188.635V7.75977H182.496V0.200195H189.116V2.71973ZM129.631 7.04785H127.111V6.04785H129.631V7.04785ZM282.72 7.04785H280.343L280.012 5.25977L279.681 7.04785H277.304L278.752 0.200195H281.272L282.72 7.04785ZM130.792 0C131.818 0.000105686 132.691 0.360244 133.411 1.08008C134.131 1.80004 134.491 2.66642 134.491 3.67969V4.33984H131.971V3.67969C131.971 3.35976 131.858 3.086 131.631 2.85938C131.405 2.63287 131.125 2.51963 130.792 2.51953C130.472 2.51953 130.198 2.63291 129.971 2.85938C129.745 3.086 129.631 3.35976 129.631 3.67969V5.04785H127.111V3.67969C127.111 2.66651 127.471 1.8 128.191 1.08008C128.911 0.360078 129.778 0 130.792 0Z"/>
</mask>
<path d="M69.4067 0C70.4333 5.0884e-05 71.3069 0.360129 72.0269 1.08008C72.7466 1.79998 73.1069 2.66656 73.1069 3.67969V4.33984H70.5864V3.67969C70.5864 3.35976 70.4732 3.086 70.2466 2.85938C70.02 2.6329 69.7399 2.51958 69.4067 2.51953C69.0868 2.51953 68.8131 2.63284 68.5864 2.85938C68.3598 3.086 68.2466 3.35976 68.2466 3.67969V3.91992C68.2466 4.51989 68.4668 5.00656 68.9067 5.37988L71.5669 7.66016C72.5933 8.56677 73.1069 9.69353 73.1069 11.04V11.2803C73.1068 12.2934 72.7467 13.16 72.0269 13.8799C71.3069 14.5998 70.4333 14.9599 69.4067 14.96C68.3934 14.96 67.5262 14.5999 66.8062 13.8799C66.0864 13.16 65.7262 12.2933 65.7261 11.2803V10.6201H68.2466V11.2803C68.2467 11.6 68.36 11.8731 68.5864 12.0996C68.8131 12.3263 69.0867 12.4395 69.4067 12.4395C69.74 12.4394 70.02 12.3262 70.2466 12.0996C70.473 11.8731 70.5863 11.6 70.5864 11.2803V11.04C70.5864 10.44 70.3663 9.95341 69.9263 9.58008L67.2661 7.2998C66.2396 6.39319 65.7261 5.26645 65.7261 3.91992V3.67969C65.7261 2.66656 66.0864 1.79998 66.8062 1.08008C67.5262 0.360078 68.3934 0 69.4067 0ZM84.4731 0C85.4997 5.0884e-05 86.3733 0.360129 87.0933 1.08008C87.813 1.79998 88.1733 2.66656 88.1733 3.67969V4.33984H85.6528V3.67969C85.6528 3.35976 85.5396 3.086 85.313 2.85938C85.0864 2.6329 84.8063 2.51958 84.4731 2.51953C84.1532 2.51953 83.8795 2.63284 83.6528 2.85938C83.4262 3.086 83.313 3.35976 83.313 3.67969V3.91992C83.313 4.51989 83.5332 5.00656 83.9731 5.37988L86.6333 7.66016C87.6597 8.56677 88.1733 9.69353 88.1733 11.04V11.2803C88.1732 12.2934 87.8131 13.16 87.0933 13.8799C86.3733 14.5998 85.4997 14.9599 84.4731 14.96C83.4598 14.96 82.5926 14.5999 81.8726 13.8799C81.1528 13.16 80.7926 12.2933 80.7925 11.2803V10.6201H83.313V11.2803C83.3131 11.6 83.4264 11.8731 83.6528 12.0996C83.8795 12.3263 84.1531 12.4395 84.4731 12.4395C84.8064 12.4394 85.0864 12.3262 85.313 12.0996C85.5395 11.8731 85.6527 11.6 85.6528 11.2803V11.04C85.6528 10.44 85.4327 9.95341 84.9927 9.58008L82.3325 7.2998C81.306 6.39319 80.7925 5.26645 80.7925 3.91992V3.67969C80.7925 2.66656 81.1528 1.79998 81.8726 1.08008C82.5926 0.360078 83.4598 0 84.4731 0ZM129.631 11.2803C129.631 11.6001 129.745 11.8731 129.971 12.0996C130.198 12.3263 130.472 12.4395 130.792 12.4395C131.125 12.4394 131.405 12.3262 131.631 12.0996C131.858 11.8731 131.971 11.6 131.971 11.2803V10.6201H134.491V11.2803C134.491 12.2934 134.131 13.16 133.411 13.8799C132.691 14.5996 131.818 14.9599 130.792 14.96C129.778 14.96 128.911 14.5999 128.191 13.8799C127.471 13.16 127.111 12.2934 127.111 11.2803V10.0479H129.631V11.2803ZM170.561 0C171.587 0.000105686 172.46 0.360244 173.18 1.08008C173.9 1.80004 174.26 2.66642 174.26 3.67969V11.2803C174.26 12.2934 173.9 13.16 173.18 13.8799C172.46 14.5996 171.587 14.9599 170.561 14.96C169.548 14.96 168.68 14.5999 167.96 13.8799C167.241 13.16 166.88 12.2934 166.88 11.2803V3.67969C166.88 2.66651 167.241 1.8 167.96 1.08008C168.68 0.360078 169.548 0 170.561 0ZM264.717 0C265.744 0.000105686 266.617 0.360244 267.336 1.08008C268.056 1.80004 268.416 2.66642 268.417 3.67969V4.33984H265.897V3.67969C265.897 3.35976 265.784 3.086 265.557 2.85938C265.331 2.63287 265.05 2.51963 264.717 2.51953C264.397 2.51953 264.124 2.63291 263.897 2.85938C263.67 3.086 263.557 3.35976 263.557 3.67969V11.2803C263.557 11.6001 263.67 11.8731 263.897 12.0996C264.124 12.3263 264.397 12.4395 264.717 12.4395C265.05 12.4394 265.331 12.3262 265.557 12.0996C265.784 11.8731 265.897 11.6 265.897 11.2803V8.47949H264.437V5.95996H268.417V11.2803C268.416 12.2934 268.056 13.16 267.336 13.8799C266.617 14.5996 265.744 14.9599 264.717 14.96C263.704 14.96 262.837 14.5999 262.117 13.8799C261.397 13.16 261.037 12.2934 261.037 11.2803V3.67969C261.037 2.66651 261.397 1.8 262.117 1.08008C262.837 0.360078 263.704 0 264.717 0ZM58.2446 2.71973H54.145V5.95996H57.7642V8.47949H54.145V12.2402H58.2446V14.7598H51.6245V0.200195H58.2446V2.71973ZM102.799 2.71973H98.6997V5.95996H102.319V8.47949H98.6997V12.2402H102.799V14.7598H96.1792V0.200195H102.799V2.71973ZM116.341 8.16016V0.200195H118.861V14.7598H116.341L113.122 6.7998V14.7598H110.601V0.200195H113.122L116.341 8.16016ZM149.151 2.71973H145.051V5.95996H148.67V8.47949H145.051V12.2402H149.151V14.7598H142.531V0.200195H149.151V2.71973ZM185.016 14.7598H182.496V12.7598H185.016V14.7598ZM213.43 2.71973H210.93V14.7598H208.411V2.71973H205.911V0.200195H213.43V2.71973ZM223.497 5.95996H225.836V0.200195H228.356V14.7598H225.836V8.47949H223.497V14.7598H220.976V0.200195H223.497V5.95996ZM243.307 2.71973H239.208V5.95996H242.827V8.47949H239.208V12.2402H243.307V14.7598H236.687V0.200195H243.307V2.71973ZM278.252 14.7598H275.672L276.246 12.0479H278.76L278.252 14.7598ZM284.352 14.7598H281.772L281.263 12.0479H283.779L284.352 14.7598ZM296.899 8.13965L299.539 0.200195H302.079V14.7598H299.559V6.82031L297.799 12.5H295.979L294.219 6.82031V14.7598H291.699V0.200195H294.239L296.899 8.13965ZM317.018 2.71973H312.918V5.95996H316.538V8.47949H312.918V12.2402H317.018V14.7598H310.398V0.200195H317.018V2.71973ZM170.561 2.51953C170.241 2.51953 169.967 2.63291 169.741 2.85938C169.514 3.086 169.401 3.35976 169.401 3.67969V11.2803C169.401 11.6001 169.514 11.8731 169.741 12.0996C169.967 12.3263 170.241 12.4395 170.561 12.4395C170.894 12.4394 171.174 12.3262 171.401 12.0996C171.627 11.8731 171.741 11.6 171.741 11.2803V3.67969C171.741 3.35976 171.628 3.086 171.401 2.85938C171.174 2.63287 170.894 2.51963 170.561 2.51953ZM185.016 11.7598H182.496V10.7598H185.016V11.7598ZM283.567 11.0479H276.458L276.669 10.0479H283.355L283.567 11.0479ZM185.016 9.75977H182.496V8.75977H185.016V9.75977ZM129.631 9.04785H127.111V8.04785H129.631V9.04785ZM279.31 9.04785H276.88L277.092 8.04785H279.496L279.31 9.04785ZM283.144 9.04785H280.714L280.529 8.04785H282.932L283.144 9.04785ZM189.116 2.71973H185.016V5.95996H188.635V7.75977H182.496V0.200195H189.116V2.71973ZM129.631 7.04785H127.111V6.04785H129.631V7.04785ZM282.72 7.04785H280.343L280.012 5.25977L279.681 7.04785H277.304L278.752 0.200195H281.272L282.72 7.04785ZM130.792 0C131.818 0.000105686 132.691 0.360244 133.411 1.08008C134.131 1.80004 134.491 2.66642 134.491 3.67969V4.33984H131.971V3.67969C131.971 3.35976 131.858 3.086 131.631 2.85938C131.405 2.63287 131.125 2.51963 130.792 2.51953C130.472 2.51953 130.198 2.63291 129.971 2.85938C129.745 3.086 129.631 3.35976 129.631 3.67969V5.04785H127.111V3.67969C127.111 2.66651 127.471 1.8 128.191 1.08008C128.911 0.360078 129.778 0 130.792 0Z" fill="url(#paint0_radial_7_389)"/>
<path d="M69.4067 0L69.4068 -0.6H69.4067V0ZM72.0269 1.08008L72.4512 0.655853L72.4511 0.655814L72.0269 1.08008ZM73.1069 3.67969H73.7069V3.67966L73.1069 3.67969ZM73.1069 4.33984V4.93984H73.7069V4.33984H73.1069ZM70.5864 4.33984H69.9864V4.93984H70.5864V4.33984ZM70.5864 3.67969H71.1864V3.67961L70.5864 3.67969ZM70.2466 2.85938L70.6708 2.43511L70.6708 2.43502L70.2466 2.85938ZM69.4067 2.51953L69.4068 1.91953H69.4067V2.51953ZM68.5864 2.85938L68.1622 2.43503L68.1622 2.43511L68.5864 2.85938ZM68.2466 3.67969L67.6466 3.67961V3.67969H68.2466ZM68.2466 3.91992H67.6466V3.91994L68.2466 3.91992ZM68.9067 5.37988L69.2972 4.92434L69.2949 4.92238L68.9067 5.37988ZM71.5669 7.66016L71.9641 7.21041L71.9574 7.20461L71.5669 7.66016ZM73.1069 11.2803L73.7069 11.2803V11.2803H73.1069ZM72.0269 13.8799L72.4511 14.3041L72.4511 14.3041L72.0269 13.8799ZM69.4067 14.96V15.56H69.4068L69.4067 14.96ZM66.8062 13.8799L66.3819 14.3041L66.3819 14.3041L66.8062 13.8799ZM65.7261 11.2803H65.1261V11.2803L65.7261 11.2803ZM65.7261 10.6201V10.0201H65.1261V10.6201H65.7261ZM68.2466 10.6201H68.8466V10.0201H68.2466V10.6201ZM68.2466 11.2803H67.6466V11.2805L68.2466 11.2803ZM68.5864 12.0996L68.1621 12.5238L68.1622 12.5239L68.5864 12.0996ZM69.4067 12.4395V13.0395H69.4068L69.4067 12.4395ZM70.2466 12.0996L70.6708 12.5239L70.6709 12.5238L70.2466 12.0996ZM70.5864 11.2803L71.1864 11.2805V11.2803H70.5864ZM69.9263 9.58008L69.5358 10.0356L69.5381 10.0376L69.9263 9.58008ZM67.2661 7.2998L66.8689 7.74956L66.8756 7.75535L67.2661 7.2998ZM65.7261 3.91992H65.1261V3.91993L65.7261 3.91992ZM65.7261 3.67969L65.1261 3.67966V3.67969H65.7261ZM66.8062 1.08008L66.3819 0.655814L66.3818 0.655855L66.8062 1.08008ZM84.4731 0L84.4732 -0.6H84.4731V0ZM87.0933 1.08008L87.5176 0.655853L87.5175 0.655814L87.0933 1.08008ZM88.1733 3.67969H88.7733V3.67966L88.1733 3.67969ZM88.1733 4.33984V4.93984H88.7733V4.33984H88.1733ZM85.6528 4.33984H85.0528V4.93984H85.6528V4.33984ZM85.6528 3.67969H86.2528V3.67961L85.6528 3.67969ZM85.313 2.85938L85.7373 2.43511L85.7372 2.43502L85.313 2.85938ZM84.4731 2.51953L84.4732 1.91953H84.4731V2.51953ZM83.6528 2.85938L83.2287 2.43503L83.2286 2.43511L83.6528 2.85938ZM83.313 3.67969L82.713 3.67961V3.67969H83.313ZM83.313 3.91992H82.713V3.91994L83.313 3.91992ZM83.9731 5.37988L84.3636 4.92434L84.3613 4.92238L83.9731 5.37988ZM86.6333 7.66016L87.0305 7.21041L87.0238 7.20461L86.6333 7.66016ZM88.1733 11.2803L88.7733 11.2803V11.2803H88.1733ZM87.0933 13.8799L87.5175 14.3041L87.5175 14.3041L87.0933 13.8799ZM84.4731 14.96V15.56H84.4732L84.4731 14.96ZM81.8726 13.8799L81.4483 14.3041L81.4483 14.3041L81.8726 13.8799ZM80.7925 11.2803H80.1925V11.2803L80.7925 11.2803ZM80.7925 10.6201V10.0201H80.1925V10.6201H80.7925ZM83.313 10.6201H83.913V10.0201H83.313V10.6201ZM83.313 11.2803H82.713V11.2805L83.313 11.2803ZM83.6528 12.0996L83.2285 12.5238L83.2286 12.5239L83.6528 12.0996ZM84.4731 12.4395V13.0395H84.4732L84.4731 12.4395ZM85.313 12.0996L85.7373 12.5239L85.7373 12.5238L85.313 12.0996ZM85.6528 11.2803L86.2528 11.2805V11.2803H85.6528ZM84.9927 9.58008L84.6022 10.0356L84.6045 10.0376L84.9927 9.58008ZM82.3325 7.2998L81.9353 7.74956L81.942 7.75535L82.3325 7.2998ZM80.7925 3.91992H80.1925V3.91993L80.7925 3.91992ZM80.7925 3.67969L80.1925 3.67966V3.67969H80.7925ZM81.8726 1.08008L81.4483 0.655814L81.4483 0.655855L81.8726 1.08008ZM129.631 11.2803H129.031V11.2805L129.631 11.2803ZM129.971 12.0996L129.547 12.5239L129.547 12.5239L129.971 12.0996ZM130.792 12.4395V13.0395H130.792L130.792 12.4395ZM131.631 12.0996L132.056 12.5239L132.056 12.5238L131.631 12.0996ZM131.971 11.2803L132.571 11.2805V11.2803H131.971ZM131.971 10.6201V10.0201H131.371V10.6201H131.971ZM134.491 10.6201H135.091V10.0201H134.491V10.6201ZM134.491 11.2803L135.091 11.2803V11.2803H134.491ZM133.411 13.8799L133.835 14.3042L133.835 14.3041L133.411 13.8799ZM130.792 14.96V15.56H130.792L130.792 14.96ZM128.191 13.8799L127.767 14.3041L127.767 14.3041L128.191 13.8799ZM127.111 11.2803H126.511V11.2803L127.111 11.2803ZM127.111 10.0479V9.44785H126.511V10.0479H127.111ZM129.631 10.0479H130.231V9.44785H129.631V10.0479ZM170.561 0L170.561 -0.6H170.561V0ZM173.18 1.08008L173.604 0.655814L173.604 0.655801L173.18 1.08008ZM174.26 3.67969H174.86V3.67966L174.26 3.67969ZM174.26 11.2803L174.86 11.2803V11.2803H174.26ZM173.18 13.8799L173.604 14.3042L173.604 14.3041L173.18 13.8799ZM170.561 14.96V15.56H170.561L170.561 14.96ZM167.96 13.8799L167.536 14.3041L167.536 14.3041L167.96 13.8799ZM166.88 11.2803H166.28V11.2803L166.88 11.2803ZM166.88 3.67969L166.28 3.67966V3.67969H166.88ZM167.96 1.08008L167.536 0.655814L167.536 0.655839L167.96 1.08008ZM264.717 0L264.717 -0.6H264.717V0ZM267.336 1.08008L267.761 0.655814L267.761 0.655801L267.336 1.08008ZM268.417 3.67969H269.017V3.67966L268.417 3.67969ZM268.417 4.33984V4.93984H269.017V4.33984H268.417ZM265.897 4.33984H265.297V4.93984H265.897V4.33984ZM265.897 3.67969H266.497V3.67961L265.897 3.67969ZM265.557 2.85938L265.981 2.43511L265.981 2.43507L265.557 2.85938ZM264.717 2.51953L264.717 1.91953H264.717V2.51953ZM263.897 2.85938L263.473 2.43498L263.473 2.43511L263.897 2.85938ZM263.557 3.67969L262.957 3.67961V3.67969H263.557ZM263.557 11.2803H262.957V11.2805L263.557 11.2803ZM263.897 12.0996L263.473 12.5239L263.473 12.5239L263.897 12.0996ZM264.717 12.4395V13.0395H264.717L264.717 12.4395ZM265.557 12.0996L265.981 12.5239L265.982 12.5238L265.557 12.0996ZM265.897 11.2803L266.497 11.2805V11.2803H265.897ZM265.897 8.47949H266.497V7.87949H265.897V8.47949ZM264.437 8.47949H263.837V9.07949H264.437V8.47949ZM264.437 5.95996V5.35996H263.837V5.95996H264.437ZM268.417 5.95996H269.017V5.35996H268.417V5.95996ZM268.417 11.2803L269.017 11.2803V11.2803H268.417ZM267.336 13.8799L267.761 14.3042L267.761 14.3041L267.336 13.8799ZM264.717 14.96V15.56H264.717L264.717 14.96ZM262.117 13.8799L261.692 14.3041V14.3041L262.117 13.8799ZM261.037 11.2803H260.437V11.2803L261.037 11.2803ZM261.037 3.67969L260.437 3.67966V3.67969H261.037ZM262.117 1.08008L261.692 0.655814L261.692 0.655839L262.117 1.08008ZM58.2446 2.71973V3.31973H58.8446V2.71973H58.2446ZM54.145 2.71973V2.11973H53.545V2.71973H54.145ZM54.145 5.95996H53.545V6.55996H54.145V5.95996ZM57.7642 5.95996H58.3642V5.35996H57.7642V5.95996ZM57.7642 8.47949V9.07949H58.3642V8.47949H57.7642ZM54.145 8.47949V7.87949H53.545V8.47949H54.145ZM54.145 12.2402H53.545V12.8402H54.145V12.2402ZM58.2446 12.2402H58.8446V11.6402H58.2446V12.2402ZM58.2446 14.7598V15.3598H58.8446V14.7598H58.2446ZM51.6245 14.7598H51.0245V15.3598H51.6245V14.7598ZM51.6245 0.200195V-0.399805H51.0245V0.200195H51.6245ZM58.2446 0.200195H58.8446V-0.399805H58.2446V0.200195ZM102.799 2.71973V3.31973H103.399V2.71973H102.799ZM98.6997 2.71973V2.11973H98.0997V2.71973H98.6997ZM98.6997 5.95996H98.0997V6.55996H98.6997V5.95996ZM102.319 5.95996H102.919V5.35996H102.319V5.95996ZM102.319 8.47949V9.07949H102.919V8.47949H102.319ZM98.6997 8.47949V7.87949H98.0997V8.47949H98.6997ZM98.6997 12.2402H98.0997V12.8402H98.6997V12.2402ZM102.799 12.2402H103.399V11.6402H102.799V12.2402ZM102.799 14.7598V15.3598H103.399V14.7598H102.799ZM96.1792 14.7598H95.5792V15.3598H96.1792V14.7598ZM96.1792 0.200195V-0.399805H95.5792V0.200195H96.1792ZM102.799 0.200195H103.399V-0.399805H102.799V0.200195ZM116.341 8.16016L115.785 8.38514L116.941 8.16016H116.341ZM116.341 0.200195V-0.399805H115.741V0.200195H116.341ZM118.861 0.200195H119.461V-0.399805H118.861V0.200195ZM118.861 14.7598V15.3598H119.461V14.7598H118.861ZM116.341 14.7598L115.785 14.9848L115.937 15.3598H116.341V14.7598ZM113.122 6.7998L113.678 6.57482L112.522 6.7998H113.122ZM113.122 14.7598V15.3598H113.722V14.7598H113.122ZM110.601 14.7598H110.001V15.3598H110.601V14.7598ZM110.601 0.200195V-0.399805H110.001V0.200195H110.601ZM113.122 0.200195L113.678 -0.0247905L113.526 -0.399805H113.122V0.200195ZM149.151 2.71973V3.31973H149.751V2.71973H149.151ZM145.051 2.71973V2.11973H144.451V2.71973H145.051ZM145.051 5.95996H144.451V6.55996H145.051V5.95996ZM148.67 5.95996H149.27V5.35996H148.67V5.95996ZM148.67 8.47949V9.07949H149.27V8.47949H148.67ZM145.051 8.47949V7.87949H144.451V8.47949H145.051ZM145.051 12.2402H144.451V12.8402H145.051V12.2402ZM149.151 12.2402H149.751V11.6402H149.151V12.2402ZM149.151 14.7598V15.3598H149.751V14.7598H149.151ZM142.531 14.7598H141.931V15.3598H142.531V14.7598ZM142.531 0.200195V-0.399805H141.931V0.200195H142.531ZM149.151 0.200195H149.751V-0.399805H149.151V0.200195ZM185.016 14.7598V15.3598H185.616V14.7598H185.016ZM182.496 14.7598H181.896V15.3598H182.496V14.7598ZM182.496 12.7598V12.1598H181.896V12.7598H182.496ZM185.016 12.7598H185.616V12.1598H185.016V12.7598ZM213.43 2.71973V3.31973H214.03V2.71973H213.43ZM210.93 2.71973V2.11973H210.33V2.71973H210.93ZM210.93 14.7598V15.3598H211.53V14.7598H210.93ZM208.411 14.7598H207.811V15.3598H208.411V14.7598ZM208.411 2.71973H209.011V2.11973H208.411V2.71973ZM205.911 2.71973H205.311V3.31973H205.911V2.71973ZM205.911 0.200195V-0.399805H205.311V0.200195H205.911ZM213.43 0.200195H214.03V-0.399805H213.43V0.200195ZM223.497 5.95996H222.897V6.55996H223.497V5.95996ZM225.836 5.95996V6.55996H226.436V5.95996H225.836ZM225.836 0.200195V-0.399805H225.236V0.200195H225.836ZM228.356 0.200195H228.956V-0.399805H228.356V0.200195ZM228.356 14.7598V15.3598H228.956V14.7598H228.356ZM225.836 14.7598H225.236V15.3598H225.836V14.7598ZM225.836 8.47949H226.436V7.87949H225.836V8.47949ZM223.497 8.47949V7.87949H222.897V8.47949H223.497ZM223.497 14.7598V15.3598H224.097V14.7598H223.497ZM220.976 14.7598H220.376V15.3598H220.976V14.7598ZM220.976 0.200195V-0.399805H220.376V0.200195H220.976ZM223.497 0.200195H224.097V-0.399805H223.497V0.200195ZM243.307 2.71973V3.31973H243.907V2.71973H243.307ZM239.208 2.71973V2.11973H238.608V2.71973H239.208ZM239.208 5.95996H238.608V6.55996H239.208V5.95996ZM242.827 5.95996H243.427V5.35996H242.827V5.95996ZM242.827 8.47949V9.07949H243.427V8.47949H242.827ZM239.208 8.47949V7.87949H238.608V8.47949H239.208ZM239.208 12.2402H238.608V12.8402H239.208V12.2402ZM243.307 12.2402H243.907V11.6402H243.307V12.2402ZM243.307 14.7598V15.3598H243.907V14.7598H243.307ZM236.687 14.7598H236.087V15.3598H236.687V14.7598ZM236.687 0.200195V-0.399805H236.087V0.200195H236.687ZM243.307 0.200195H243.907V-0.399805H243.307V0.200195ZM278.252 14.7598V15.3598H278.751L278.842 14.8702L278.252 14.7598ZM275.672 14.7598L275.085 14.6357L274.932 15.3598H275.672V14.7598ZM276.246 12.0479V11.4479H275.759L275.659 11.9238L276.246 12.0479ZM278.76 12.0479L279.35 12.1583L279.483 11.4479H278.76V12.0479ZM284.352 14.7598V15.3598H285.092L284.939 14.6357L284.352 14.7598ZM281.772 14.7598L281.182 14.8704L281.274 15.3598H281.772V14.7598ZM281.263 12.0479V11.4479H280.54L280.673 12.1585L281.263 12.0479ZM283.779 12.0479L284.366 11.9238L284.265 11.4479H283.779V12.0479ZM296.899 8.13965L296.33 8.33027L296.901 10.0348L297.468 8.32894L296.899 8.13965ZM299.539 0.200195V-0.399805H299.106L298.969 0.0108999L299.539 0.200195ZM302.079 0.200195H302.679V-0.399805H302.079V0.200195ZM302.079 14.7598V15.3598H302.679V14.7598H302.079ZM299.559 14.7598H298.959V15.3598H299.559V14.7598ZM299.559 6.82031H300.159L298.986 6.64274L299.559 6.82031ZM297.799 12.5V13.1H298.242L298.372 12.6776L297.799 12.5ZM295.979 12.5L295.406 12.6776L295.537 13.1H295.979V12.5ZM294.219 6.82031L294.792 6.64274L293.619 6.82031H294.219ZM294.219 14.7598V15.3598H294.819V14.7598H294.219ZM291.699 14.7598H291.099V15.3598H291.699V14.7598ZM291.699 0.200195V-0.399805H291.099V0.200195H291.699ZM294.239 0.200195L294.808 0.00957716L294.671 -0.399805H294.239V0.200195ZM317.018 2.71973V3.31973H317.618V2.71973H317.018ZM312.918 2.71973V2.11973H312.318V2.71973H312.918ZM312.918 5.95996H312.318V6.55996H312.918V5.95996ZM316.538 5.95996H317.138V5.35996H316.538V5.95996ZM316.538 8.47949V9.07949H317.138V8.47949H316.538ZM312.918 8.47949V7.87949H312.318V8.47949H312.918ZM312.918 12.2402H312.318V12.8402H312.918V12.2402ZM317.018 12.2402H317.618V11.6402H317.018V12.2402ZM317.018 14.7598V15.3598H317.618V14.7598H317.018ZM310.398 14.7598H309.798V15.3598H310.398V14.7598ZM310.398 0.200195V-0.399805H309.798V0.200195H310.398ZM317.018 0.200195H317.618V-0.399805H317.018V0.200195ZM170.561 2.51953L170.561 1.91953H170.561V2.51953ZM169.741 2.85938L169.317 2.43498L169.316 2.43511L169.741 2.85938ZM169.401 3.67969L168.801 3.67961V3.67969H169.401ZM169.401 11.2803H168.801V11.2805L169.401 11.2803ZM169.741 12.0996L169.316 12.5239L169.316 12.5239L169.741 12.0996ZM170.561 12.4395V13.0395H170.561L170.561 12.4395ZM171.401 12.0996L171.825 12.5239L171.825 12.5238L171.401 12.0996ZM171.741 11.2803L172.341 11.2805V11.2803H171.741ZM171.741 3.67969H172.341V3.67961L171.741 3.67969ZM171.401 2.85938L171.825 2.43511L171.825 2.43507L171.401 2.85938ZM185.016 11.7598V12.3598H185.616V11.7598H185.016ZM182.496 11.7598H181.896V12.3598H182.496V11.7598ZM182.496 10.7598V10.1598H181.896V10.7598H182.496ZM185.016 10.7598H185.616V10.1598H185.016V10.7598ZM283.567 11.0479V11.6479H284.307L284.154 10.9235L283.567 11.0479ZM276.458 11.0479L275.871 10.9235L275.717 11.6479H276.458V11.0479ZM276.669 10.0479V9.44785H276.183L276.082 9.92347L276.669 10.0479ZM283.355 10.0479L283.942 9.92347L283.841 9.44785H283.355V10.0479ZM185.016 9.75977V10.3598H185.616V9.75977H185.016ZM182.496 9.75977H181.896V10.3598H182.496V9.75977ZM182.496 8.75977V8.15977H181.896V8.75977H182.496ZM185.016 8.75977H185.616V8.15977H185.016V8.75977ZM129.631 9.04785V9.64785H130.231V9.04785H129.631ZM127.111 9.04785H126.511V9.64785H127.111V9.04785ZM127.111 8.04785V7.44785H126.511V8.04785H127.111ZM129.631 8.04785H130.231V7.44785H129.631V8.04785ZM279.31 9.04785V9.64785H279.809L279.9 9.15731L279.31 9.04785ZM276.88 9.04785L276.293 8.92347L276.14 9.64785H276.88V9.04785ZM277.092 8.04785V7.44785H276.606L276.505 7.92347L277.092 8.04785ZM279.496 8.04785L280.086 8.15731L280.217 7.44785H279.496V8.04785ZM283.144 9.04785V9.64785H283.885L283.731 8.92347L283.144 9.04785ZM280.714 9.04785L280.124 9.15731L280.215 9.64785H280.714V9.04785ZM280.529 8.04785V7.44785H279.807L279.939 8.15731L280.529 8.04785ZM282.932 8.04785L283.519 7.92347L283.418 7.44785H282.932V8.04785ZM189.116 2.71973V3.31973H189.716V2.71973H189.116ZM185.016 2.71973V2.11973H184.416V2.71973H185.016ZM185.016 5.95996H184.416V6.55996H185.016V5.95996ZM188.635 5.95996H189.235V5.35996H188.635V5.95996ZM188.635 7.75977V8.35977H189.235V7.75977H188.635ZM182.496 7.75977H181.896V8.35977H182.496V7.75977ZM182.496 0.200195V-0.399805H181.896V0.200195H182.496ZM189.116 0.200195H189.716V-0.399805H189.116V0.200195ZM129.631 7.04785V7.64785H130.231V7.04785H129.631ZM127.111 7.04785H126.511V7.64785H127.111V7.04785ZM127.111 6.04785V5.44785H126.511V6.04785H127.111ZM129.631 6.04785H130.231V5.44785H129.631V6.04785ZM282.72 7.04785V7.64785H283.46L283.307 6.9237L282.72 7.04785ZM280.343 7.04785L279.753 7.15708L279.844 7.64785H280.343V7.04785ZM280.012 5.25977L280.602 5.15054H279.422L280.012 5.25977ZM279.681 7.04785V7.64785H280.18L280.271 7.15708L279.681 7.04785ZM277.304 7.04785L276.717 6.9237L276.564 7.64785H277.304V7.04785ZM278.752 0.200195V-0.399805H278.266L278.165 0.0760448L278.752 0.200195ZM281.272 0.200195L281.859 0.0760448L281.758 -0.399805H281.272V0.200195ZM130.792 0L130.792 -0.6H130.792V0ZM133.411 1.08008L133.835 0.655814L133.835 0.655801L133.411 1.08008ZM134.491 3.67969H135.091V3.67966L134.491 3.67969ZM134.491 4.33984V4.93984H135.091V4.33984H134.491ZM131.971 4.33984H131.371V4.93984H131.971V4.33984ZM131.971 3.67969H132.571V3.67961L131.971 3.67969ZM131.631 2.85938L132.056 2.43511L132.056 2.43507L131.631 2.85938ZM130.792 2.51953L130.792 1.91953H130.792V2.51953ZM129.971 2.85938L129.547 2.43498L129.547 2.43511L129.971 2.85938ZM129.631 3.67969L129.031 3.67961V3.67969H129.631ZM129.631 5.04785V5.64785H130.231V5.04785H129.631ZM127.111 5.04785H126.511V5.64785H127.111V5.04785ZM127.111 3.67969L126.511 3.67966V3.67969H127.111ZM128.191 1.08008L127.767 0.655814L127.767 0.655839L128.191 1.08008ZM69.4067 0L69.4067 0.6C70.2757 0.600043 70.9962 0.897966 71.6026 1.50434L72.0269 1.08008L72.4511 0.655814C71.6176 -0.177709 70.591 -0.599941 69.4068 -0.6L69.4067 0ZM72.0269 1.08008L71.6026 1.5043C72.2105 2.11241 72.5069 2.82668 72.5069 3.67971L73.1069 3.67969L73.7069 3.67966C73.7069 2.50643 73.2827 1.48756 72.4512 0.655853L72.0269 1.08008ZM73.1069 3.67969H72.5069V4.33984H73.1069H73.7069V3.67969H73.1069ZM73.1069 4.33984V3.73984H70.5864V4.33984V4.93984H73.1069V4.33984ZM70.5864 4.33984H71.1864V3.67969H70.5864H69.9864V4.33984H70.5864ZM70.5864 3.67969L71.1864 3.67961C71.1864 3.20074 71.0101 2.77436 70.6708 2.43511L70.2466 2.85938L69.8223 3.28364C69.9363 3.39765 69.9864 3.51878 69.9864 3.67976L70.5864 3.67969ZM70.2466 2.85938L70.6708 2.43502C70.3267 2.09114 69.8919 1.9196 69.4068 1.91953L69.4067 2.51953L69.4066 3.11953C69.5879 3.11956 69.7133 3.17466 69.8224 3.28373L70.2466 2.85938ZM69.4067 2.51953V1.91953C68.9277 1.91953 68.5013 2.09606 68.1622 2.43503L68.5864 2.85938L69.0106 3.28372C69.1248 3.16961 69.246 3.11953 69.4067 3.11953V2.51953ZM68.5864 2.85938L68.1622 2.43511C67.8229 2.77436 67.6466 3.20074 67.6466 3.67961L68.2466 3.67969L68.8466 3.67976C68.8466 3.51878 68.8967 3.39765 69.0107 3.28364L68.5864 2.85938ZM68.2466 3.67969H67.6466V3.91992H68.2466H68.8466V3.67969H68.2466ZM68.2466 3.91992L67.6466 3.91994C67.6466 4.68818 67.9383 5.34504 68.5186 5.83739L68.9067 5.37988L69.2949 4.92238C68.9952 4.66809 68.8466 4.3516 68.8466 3.9199L68.2466 3.91992ZM68.9067 5.37988L68.5163 5.83542L71.1764 8.1157L71.5669 7.66016L71.9574 7.20461L69.2972 4.92434L68.9067 5.37988ZM71.5669 7.66016L71.1697 8.10985C72.0698 8.90487 72.5069 9.869 72.5069 11.04H73.1069H73.7069C73.7069 9.51806 73.1169 8.22867 71.9641 7.21046L71.5669 7.66016ZM73.1069 11.04H72.5069V11.2803H73.1069H73.7069V11.04H73.1069ZM73.1069 11.2803L72.5069 11.2802C72.5068 12.1333 72.2105 12.8476 71.6026 13.4556L72.0269 13.8799L72.4511 14.3041C73.2828 13.4724 73.7068 12.4534 73.7069 11.2803L73.1069 11.2803ZM72.0269 13.8799L71.6026 13.4556C70.9962 14.062 70.2757 14.3599 69.4067 14.36L69.4067 14.96L69.4068 15.56C70.591 15.5599 71.6176 15.1377 72.4511 14.3041L72.0269 13.8799ZM69.4067 14.96V14.36C68.5533 14.36 67.8385 14.0637 67.2304 13.4556L66.8062 13.8799L66.3819 14.3041C67.2138 15.1361 68.2335 15.56 69.4067 15.56V14.96ZM66.8062 13.8799L67.2304 13.4556C66.6225 12.8476 66.3262 12.1333 66.3261 11.2802L65.7261 11.2803L65.1261 11.2803C65.1262 12.4534 65.5502 13.4724 66.3819 14.3041L66.8062 13.8799ZM65.7261 11.2803H66.3261V10.6201H65.7261H65.1261V11.2803H65.7261ZM65.7261 10.6201V11.2201H68.2466V10.6201V10.0201H65.7261V10.6201ZM68.2466 10.6201H67.6466V11.2803H68.2466H68.8466V10.6201H68.2466ZM68.2466 11.2803L67.6466 11.2805C67.6467 11.7596 67.8235 12.1851 68.1621 12.5238L68.5864 12.0996L69.0108 11.6754C68.8965 11.5611 68.8466 11.4404 68.8466 11.2801L68.2466 11.2803ZM68.5864 12.0996L68.1622 12.5239C68.5014 12.8631 68.9277 13.0395 69.4067 13.0395V12.4395V11.8395C69.2458 11.8395 69.1248 11.7894 69.0107 11.6753L68.5864 12.0996ZM69.4067 12.4395L69.4068 13.0395C69.8919 13.0394 70.3267 12.8681 70.6708 12.5239L70.2466 12.0996L69.8223 11.6753C69.7133 11.7844 69.5881 11.8394 69.4066 11.8395L69.4067 12.4395ZM70.2466 12.0996L70.6709 12.5238C71.0096 12.1851 71.1863 11.7596 71.1864 11.2805L70.5864 11.2803L69.9864 11.2801C69.9864 11.4404 69.9365 11.5611 69.8223 11.6754L70.2466 12.0996ZM70.5864 11.2803H71.1864V11.04H70.5864H69.9864V11.2803H70.5864ZM70.5864 11.04H71.1864C71.1864 10.2717 70.8947 9.61492 70.3145 9.12257L69.9263 9.58008L69.5381 10.0376C69.8378 10.2919 69.9864 10.6083 69.9864 11.04H70.5864ZM69.9263 9.58008L70.3168 9.12454L67.6566 6.84426L67.2661 7.2998L66.8756 7.75535L69.5358 10.0356L69.9263 9.58008ZM67.2661 7.2998L67.6633 6.8501C66.7632 6.0551 66.3261 5.09099 66.3261 3.91991L65.7261 3.91992L65.1261 3.91993C65.1261 5.4419 65.7161 6.73128 66.8689 7.74951L67.2661 7.2998ZM65.7261 3.91992H66.3261V3.67969H65.7261H65.1261V3.91992H65.7261ZM65.7261 3.67969L66.3261 3.67971C66.3261 2.82669 66.6225 2.1124 67.2305 1.5043L66.8062 1.08008L66.3818 0.655855C65.5503 1.48756 65.1261 2.50643 65.1261 3.67966L65.7261 3.67969ZM66.8062 1.08008L67.2304 1.50434C67.8385 0.896301 68.5533 0.6 69.4067 0.6V0V-0.6C68.2335 -0.6 67.2138 -0.176145 66.3819 0.655814L66.8062 1.08008ZM84.4731 0L84.4731 0.6C85.3421 0.600043 86.0626 0.897966 86.669 1.50434L87.0933 1.08008L87.5175 0.655814C86.684 -0.177709 85.6574 -0.599941 84.4732 -0.6L84.4731 0ZM87.0933 1.08008L86.669 1.5043C87.277 2.11241 87.5733 2.82668 87.5733 3.67971L88.1733 3.67969L88.7733 3.67966C88.7733 2.50643 88.3491 1.48756 87.5176 0.655853L87.0933 1.08008ZM88.1733 3.67969H87.5733V4.33984H88.1733H88.7733V3.67969H88.1733ZM88.1733 4.33984V3.73984H85.6528V4.33984V4.93984H88.1733V4.33984ZM85.6528 4.33984H86.2528V3.67969H85.6528H85.0528V4.33984H85.6528ZM85.6528 3.67969L86.2528 3.67961C86.2528 3.20074 86.0765 2.77436 85.7373 2.43511L85.313 2.85938L84.8887 3.28364C85.0027 3.39765 85.0528 3.51878 85.0528 3.67976L85.6528 3.67969ZM85.313 2.85938L85.7372 2.43502C85.3931 2.09114 84.9583 1.9196 84.4732 1.91953L84.4731 2.51953L84.4731 3.11953C84.6543 3.11956 84.7797 3.17466 84.8888 3.28373L85.313 2.85938ZM84.4731 2.51953V1.91953C83.9941 1.91953 83.5678 2.09606 83.2287 2.43503L83.6528 2.85938L84.077 3.28372C84.1912 3.16961 84.3124 3.11953 84.4731 3.11953V2.51953ZM83.6528 2.85938L83.2286 2.43511C82.8893 2.77436 82.713 3.20074 82.713 3.67961L83.313 3.67969L83.913 3.67976C83.913 3.51878 83.9631 3.39765 84.0771 3.28364L83.6528 2.85938ZM83.313 3.67969H82.713V3.91992H83.313H83.913V3.67969H83.313ZM83.313 3.91992L82.713 3.91994C82.713 4.68818 83.0047 5.34504 83.585 5.83739L83.9731 5.37988L84.3613 4.92238C84.0616 4.66809 83.913 4.3516 83.913 3.9199L83.313 3.91992ZM83.9731 5.37988L83.5827 5.83542L86.2428 8.1157L86.6333 7.66016L87.0238 7.20461L84.3636 4.92434L83.9731 5.37988ZM86.6333 7.66016L86.2361 8.10985C87.1362 8.90487 87.5733 9.869 87.5733 11.04H88.1733H88.7733C88.7733 9.51806 88.1833 8.22867 87.0305 7.21046L86.6333 7.66016ZM88.1733 11.04H87.5733V11.2803H88.1733H88.7733V11.04H88.1733ZM88.1733 11.2803L87.5733 11.2802C87.5733 12.1333 87.2769 12.8476 86.669 13.4556L87.0933 13.8799L87.5175 14.3041C88.3492 13.4724 88.7732 12.4534 88.7733 11.2803L88.1733 11.2803ZM87.0933 13.8799L86.669 13.4556C86.0626 14.062 85.3421 14.3599 84.4731 14.36L84.4731 14.96L84.4732 15.56C85.6574 15.5599 86.684 15.1377 87.5175 14.3041L87.0933 13.8799ZM84.4731 14.96V14.36C83.6197 14.36 82.9049 14.0637 82.2968 13.4556L81.8726 13.8799L81.4483 14.3041C82.2803 15.1361 83.2999 15.56 84.4731 15.56V14.96ZM81.8726 13.8799L82.2968 13.4556C81.6889 12.8476 81.3926 12.1333 81.3925 11.2802L80.7925 11.2803L80.1925 11.2803C80.1926 12.4534 80.6167 13.4724 81.4483 14.3041L81.8726 13.8799ZM80.7925 11.2803H81.3925V10.6201H80.7925H80.1925V11.2803H80.7925ZM80.7925 10.6201V11.2201H83.313V10.6201V10.0201H80.7925V10.6201ZM83.313 10.6201H82.713V11.2803H83.313H83.913V10.6201H83.313ZM83.313 11.2803L82.713 11.2805C82.7131 11.7596 82.8899 12.1851 83.2285 12.5238L83.6528 12.0996L84.0772 11.6754C83.9629 11.5611 83.913 11.4404 83.913 11.2801L83.313 11.2803ZM83.6528 12.0996L83.2286 12.5239C83.5678 12.8631 83.9941 13.0395 84.4731 13.0395V12.4395V11.8395C84.3122 11.8395 84.1912 11.7894 84.0771 11.6753L83.6528 12.0996ZM84.4731 12.4395L84.4732 13.0395C84.9583 13.0394 85.3931 12.8681 85.7373 12.5239L85.313 12.0996L84.8887 11.6753C84.7797 11.7844 84.6545 11.8394 84.4731 11.8395L84.4731 12.4395ZM85.313 12.0996L85.7373 12.5238C86.076 12.1851 86.2527 11.7596 86.2528 11.2805L85.6528 11.2803L85.0528 11.2801C85.0528 11.4404 85.0029 11.5611 84.8887 11.6754L85.313 12.0996ZM85.6528 11.2803H86.2528V11.04H85.6528H85.0528V11.2803H85.6528ZM85.6528 11.04H86.2528C86.2528 10.2717 85.9611 9.61492 85.3809 9.12257L84.9927 9.58008L84.6045 10.0376C84.9042 10.2919 85.0528 10.6083 85.0528 11.04H85.6528ZM84.9927 9.58008L85.3832 9.12454L82.723 6.84426L82.3325 7.2998L81.942 7.75535L84.6022 10.0356L84.9927 9.58008ZM82.3325 7.2998L82.7297 6.8501C81.8296 6.0551 81.3925 5.09099 81.3925 3.91991L80.7925 3.91992L80.1925 3.91993C80.1925 5.4419 80.7825 6.73128 81.9353 7.74951L82.3325 7.2998ZM80.7925 3.91992H81.3925V3.67969H80.7925H80.1925V3.91992H80.7925ZM80.7925 3.67969L81.3925 3.67971C81.3925 2.82669 81.6889 2.1124 82.2969 1.5043L81.8726 1.08008L81.4483 0.655855C80.6167 1.48756 80.1925 2.50643 80.1925 3.67966L80.7925 3.67969ZM81.8726 1.08008L82.2968 1.50434C82.9049 0.896301 83.6197 0.6 84.4731 0.6V0V-0.6C83.2999 -0.6 82.2803 -0.176145 81.4483 0.655814L81.8726 1.08008ZM129.631 11.2803L129.031 11.2805C129.031 11.7596 129.208 12.185 129.547 12.5239L129.971 12.0996L130.395 11.6754C130.281 11.5611 130.231 11.4405 130.231 11.2801L129.631 11.2803ZM129.971 12.0996L129.547 12.5239C129.886 12.8631 130.312 13.0395 130.792 13.0395V12.4395V11.8395C130.631 11.8395 130.51 11.7894 130.395 11.6753L129.971 12.0996ZM130.792 12.4395L130.792 13.0395C131.276 13.0393 131.711 12.8681 132.056 12.5239L131.631 12.0996L131.207 11.6753C131.098 11.7843 130.973 11.8394 130.791 11.8395L130.792 12.4395ZM131.631 12.0996L132.056 12.5238C132.394 12.1851 132.571 11.7596 132.571 11.2805L131.971 11.2803L131.371 11.2801C131.371 11.4403 131.321 11.5611 131.207 11.6755L131.631 12.0996ZM131.971 11.2803H132.571V10.6201H131.971H131.371V11.2803H131.971ZM131.971 10.6201V11.2201H134.491V10.6201V10.0201H131.971V10.6201ZM134.491 10.6201H133.891V11.2803H134.491H135.091V10.6201H134.491ZM134.491 11.2803L133.891 11.2802C133.891 12.1334 133.594 12.8476 132.986 13.4556L133.411 13.8799L133.835 14.3041C134.667 13.4724 135.091 12.4535 135.091 11.2803L134.491 11.2803ZM133.411 13.8799L132.986 13.4556C132.38 14.0619 131.66 14.3599 130.791 14.36L130.792 14.96L130.792 15.56C131.976 15.5598 133.002 15.1373 133.835 14.3042L133.411 13.8799ZM130.792 14.96V14.36C129.938 14.36 129.223 14.0637 128.615 13.4556L128.191 13.8799L127.767 14.3041C128.599 15.1361 129.618 15.56 130.792 15.56V14.96ZM128.191 13.8799L128.615 13.4556C128.007 12.8476 127.711 12.1333 127.711 11.2802L127.111 11.2803L126.511 11.2803C126.511 12.4535 126.935 13.4724 127.767 14.3041L128.191 13.8799ZM127.111 11.2803H127.711V10.0479H127.111H126.511V11.2803H127.111ZM127.111 10.0479V10.6479H129.631V10.0479V9.44785H127.111V10.0479ZM129.631 10.0479H129.031V11.2803H129.631H130.231V10.0479H129.631ZM170.561 0L170.561 0.6C171.43 0.600089 172.15 0.89797 172.756 1.50435L173.18 1.08008L173.604 0.655801C172.771 -0.177482 171.745 -0.599878 170.561 -0.6L170.561 0ZM173.18 1.08008L172.756 1.50434C173.364 2.11245 173.66 2.82651 173.66 3.67971L174.26 3.67969L174.86 3.67966C174.86 2.50634 174.436 1.48762 173.604 0.655814L173.18 1.08008ZM174.26 3.67969H173.66V11.2803H174.26H174.86V3.67969H174.26ZM174.26 11.2803L173.66 11.2802C173.66 12.1334 173.364 12.8476 172.756 13.4556L173.18 13.8799L173.604 14.3041C174.436 13.4724 174.86 12.4535 174.86 11.2803L174.26 11.2803ZM173.18 13.8799L172.756 13.4556C172.15 14.0619 171.43 14.3599 170.561 14.36L170.561 14.96L170.561 15.56C171.745 15.5598 172.771 15.1373 173.604 14.3042L173.18 13.8799ZM170.561 14.96V14.36C169.708 14.36 168.993 14.0637 168.385 13.4556L167.96 13.8799L167.536 14.3041C168.368 15.1361 169.388 15.56 170.561 15.56V14.96ZM167.96 13.8799L168.385 13.4556C167.777 12.8476 167.48 12.1333 167.48 11.2802L166.88 11.2803L166.28 11.2803C166.28 12.4535 166.704 13.4724 167.536 14.3041L167.96 13.8799ZM166.88 11.2803H167.48V3.67969H166.88H166.28V11.2803H166.88ZM166.88 3.67969L167.48 3.67971C167.48 2.82662 167.777 2.11242 168.385 1.50432L167.96 1.08008L167.536 0.655839C166.705 1.48758 166.28 2.5064 166.28 3.67966L166.88 3.67969ZM167.96 1.08008L168.385 1.50434C168.993 0.896301 169.708 0.6 170.561 0.6V0V-0.6C169.388 -0.6 168.368 -0.176146 167.536 0.655814L167.96 1.08008ZM264.717 0L264.717 0.6C265.586 0.600089 266.306 0.89797 266.912 1.50435L267.336 1.08008L267.761 0.655801C266.927 -0.177482 265.902 -0.599878 264.717 -0.6L264.717 0ZM267.336 1.08008L266.912 1.50434C267.52 2.11245 267.816 2.82651 267.816 3.67971L268.417 3.67969L269.017 3.67966C269.016 2.50634 268.592 1.48762 267.761 0.655814L267.336 1.08008ZM268.417 3.67969H267.816V4.33984H268.417H269.017V3.67969H268.417ZM268.417 4.33984V3.73984H265.897V4.33984V4.93984H268.417V4.33984ZM265.897 4.33984H266.497V3.67969H265.897H265.297V4.33984H265.897ZM265.897 3.67969L266.497 3.67961C266.497 3.20074 266.321 2.77436 265.981 2.43511L265.557 2.85938L265.133 3.28364C265.247 3.39765 265.297 3.51878 265.297 3.67976L265.897 3.67969ZM265.557 2.85938L265.981 2.43507C265.637 2.09102 265.202 1.91968 264.717 1.91953L264.717 2.51953L264.717 3.11953C264.898 3.11959 265.024 3.17472 265.133 3.28368L265.557 2.85938ZM264.717 2.51953V1.91953C264.238 1.91953 263.812 2.09618 263.473 2.43498L263.897 2.85938L264.321 3.28377C264.435 3.16965 264.557 3.11953 264.717 3.11953V2.51953ZM263.897 2.85938L263.473 2.43511C263.133 2.77436 262.957 3.20074 262.957 3.67961L263.557 3.67969L264.157 3.67976C264.157 3.51878 264.207 3.39765 264.321 3.28364L263.897 2.85938ZM263.557 3.67969H262.957V11.2803H263.557H264.157V3.67969H263.557ZM263.557 11.2803L262.957 11.2805C262.957 11.7596 263.134 12.185 263.473 12.5239L263.897 12.0996L264.321 11.6754C264.207 11.5611 264.157 11.4405 264.157 11.2801L263.557 11.2803ZM263.897 12.0996L263.473 12.5239C263.812 12.8631 264.238 13.0395 264.717 13.0395V12.4395V11.8395C264.556 11.8395 264.435 11.7894 264.321 11.6753L263.897 12.0996ZM264.717 12.4395L264.717 13.0395C265.202 13.0393 265.637 12.8681 265.981 12.5239L265.557 12.0996L265.133 11.6753C265.024 11.7843 264.899 11.8394 264.717 11.8395L264.717 12.4395ZM265.557 12.0996L265.982 12.5238C266.32 12.1851 266.497 11.7596 266.497 11.2805L265.897 11.2803L265.297 11.2801C265.297 11.4403 265.247 11.5611 265.133 11.6755L265.557 12.0996ZM265.897 11.2803H266.497V8.47949H265.897H265.297V11.2803H265.897ZM265.897 8.47949V7.87949H264.437V8.47949V9.07949H265.897V8.47949ZM264.437 8.47949H265.037V5.95996H264.437H263.837V8.47949H264.437ZM264.437 5.95996V6.55996H268.417V5.95996V5.35996H264.437V5.95996ZM268.417 5.95996H267.816V11.2803H268.417H269.017V5.95996H268.417ZM268.417 11.2803L267.816 11.2802C267.816 12.1334 267.52 12.8476 266.912 13.4556L267.336 13.8799L267.761 14.3041C268.592 13.4724 269.016 12.4535 269.017 11.2803L268.417 11.2803ZM267.336 13.8799L266.912 13.4556C266.306 14.0619 265.586 14.3599 264.717 14.36L264.717 14.96L264.717 15.56C265.901 15.5598 266.927 15.1373 267.761 14.3042L267.336 13.8799ZM264.717 14.96V14.36C263.864 14.36 263.149 14.0637 262.541 13.4556L262.117 13.8799L261.692 14.3041C262.524 15.1361 263.544 15.56 264.717 15.56V14.96ZM262.117 13.8799L262.541 13.4556C261.933 12.8476 261.637 12.1333 261.637 11.2802L261.037 11.2803L260.437 11.2803C260.437 12.4535 260.861 13.4724 261.692 14.3041L262.117 13.8799ZM261.037 11.2803H261.637V3.67969H261.037H260.437V11.2803H261.037ZM261.037 3.67969L261.637 3.67971C261.637 2.82662 261.933 2.11242 262.541 1.50432L262.117 1.08008L261.692 0.655839C260.861 1.48758 260.437 2.5064 260.437 3.67966L261.037 3.67969ZM262.117 1.08008L262.541 1.50434C263.149 0.896301 263.864 0.6 264.717 0.6V0V-0.6C263.544 -0.6 262.524 -0.176146 261.692 0.655814L262.117 1.08008ZM58.2446 2.71973V2.11973H54.145V2.71973V3.31973H58.2446V2.71973ZM54.145 2.71973H53.545V5.95996H54.145H54.745V2.71973H54.145ZM54.145 5.95996V6.55996H57.7642V5.95996V5.35996H54.145V5.95996ZM57.7642 5.95996H57.1642V8.47949H57.7642H58.3642V5.95996H57.7642ZM57.7642 8.47949V7.87949H54.145V8.47949V9.07949H57.7642V8.47949ZM54.145 8.47949H53.545V12.2402H54.145H54.745V8.47949H54.145ZM54.145 12.2402V12.8402H58.2446V12.2402V11.6402H54.145V12.2402ZM58.2446 12.2402H57.6446V14.7598H58.2446H58.8446V12.2402H58.2446ZM58.2446 14.7598V14.1598H51.6245V14.7598V15.3598H58.2446V14.7598ZM51.6245 14.7598H52.2245V0.200195H51.6245H51.0245V14.7598H51.6245ZM51.6245 0.200195V0.800195H58.2446V0.200195V-0.399805H51.6245V0.200195ZM58.2446 0.200195H57.6446V2.71973H58.2446H58.8446V0.200195H58.2446ZM102.799 2.71973V2.11973H98.6997V2.71973V3.31973H102.799V2.71973ZM98.6997 2.71973H98.0997V5.95996H98.6997H99.2997V2.71973H98.6997ZM98.6997 5.95996V6.55996H102.319V5.95996V5.35996H98.6997V5.95996ZM102.319 5.95996H101.719V8.47949H102.319H102.919V5.95996H102.319ZM102.319 8.47949V7.87949H98.6997V8.47949V9.07949H102.319V8.47949ZM98.6997 8.47949H98.0997V12.2402H98.6997H99.2997V8.47949H98.6997ZM98.6997 12.2402V12.8402H102.799V12.2402V11.6402H98.6997V12.2402ZM102.799 12.2402H102.199V14.7598H102.799H103.399V12.2402H102.799ZM102.799 14.7598V14.1598H96.1792V14.7598V15.3598H102.799V14.7598ZM96.1792 14.7598H96.7792V0.200195H96.1792H95.5792V14.7598H96.1792ZM96.1792 0.200195V0.800195H102.799V0.200195V-0.399805H96.1792V0.200195ZM102.799 0.200195H102.199V2.71973H102.799H103.399V0.200195H102.799ZM116.341 8.16016H116.941V0.200195H116.341H115.741V8.16016H116.341ZM116.341 0.200195V0.800195H118.861V0.200195V-0.399805H116.341V0.200195ZM118.861 0.200195H118.261V14.7598H118.861H119.461V0.200195H118.861ZM118.861 14.7598V14.1598H116.341V14.7598V15.3598H118.861V14.7598ZM116.341 14.7598L116.898 14.5348L113.678 6.57482L113.122 6.7998L112.565 7.02479L115.785 14.9848L116.341 14.7598ZM113.122 6.7998H112.522V14.7598H113.122H113.722V6.7998H113.122ZM113.122 14.7598V14.1598H110.601V14.7598V15.3598H113.122V14.7598ZM110.601 14.7598H111.201V0.200195H110.601H110.001V14.7598H110.601ZM110.601 0.200195V0.800195H113.122V0.200195V-0.399805H110.601V0.200195ZM113.122 0.200195L112.565 0.425181L115.785 8.38514L116.341 8.16016L116.898 7.93517L113.678 -0.0247905L113.122 0.200195ZM149.151 2.71973V2.11973H145.051V2.71973V3.31973H149.151V2.71973ZM145.051 2.71973H144.451V5.95996H145.051H145.651V2.71973H145.051ZM145.051 5.95996V6.55996H148.67V5.95996V5.35996H145.051V5.95996ZM148.67 5.95996H148.07V8.47949H148.67H149.27V5.95996H148.67ZM148.67 8.47949V7.87949H145.051V8.47949V9.07949H148.67V8.47949ZM145.051 8.47949H144.451V12.2402H145.051H145.651V8.47949H145.051ZM145.051 12.2402V12.8402H149.151V12.2402V11.6402H145.051V12.2402ZM149.151 12.2402H148.551V14.7598H149.151H149.751V12.2402H149.151ZM149.151 14.7598V14.1598H142.531V14.7598V15.3598H149.151V14.7598ZM142.531 14.7598H143.131V0.200195H142.531H141.931V14.7598H142.531ZM142.531 0.200195V0.800195H149.151V0.200195V-0.399805H142.531V0.200195ZM149.151 0.200195H148.551V2.71973H149.151H149.751V0.200195H149.151ZM185.016 14.7598V14.1598H182.496V14.7598V15.3598H185.016V14.7598ZM182.496 14.7598H183.096V12.7598H182.496H181.896V14.7598H182.496ZM182.496 12.7598V13.3598H185.016V12.7598V12.1598H182.496V12.7598ZM185.016 12.7598H184.416V14.7598H185.016H185.616V12.7598H185.016ZM213.43 2.71973V2.11973H210.93V2.71973V3.31973H213.43V2.71973ZM210.93 2.71973H210.33V14.7598H210.93H211.53V2.71973H210.93ZM210.93 14.7598V14.1598H208.411V14.7598V15.3598H210.93V14.7598ZM208.411 14.7598H209.011V2.71973H208.411H207.811V14.7598H208.411ZM208.411 2.71973V2.11973H205.911V2.71973V3.31973H208.411V2.71973ZM205.911 2.71973H206.511V0.200195H205.911H205.311V2.71973H205.911ZM205.911 0.200195V0.800195H213.43V0.200195V-0.399805H205.911V0.200195ZM213.43 0.200195H212.83V2.71973H213.43H214.03V0.200195H213.43ZM223.497 5.95996V6.55996H225.836V5.95996V5.35996H223.497V5.95996ZM225.836 5.95996H226.436V0.200195H225.836H225.236V5.95996H225.836ZM225.836 0.200195V0.800195H228.356V0.200195V-0.399805H225.836V0.200195ZM228.356 0.200195H227.756V14.7598H228.356H228.956V0.200195H228.356ZM228.356 14.7598V14.1598H225.836V14.7598V15.3598H228.356V14.7598ZM225.836 14.7598H226.436V8.47949H225.836H225.236V14.7598H225.836ZM225.836 8.47949V7.87949H223.497V8.47949V9.07949H225.836V8.47949ZM223.497 8.47949H222.897V14.7598H223.497H224.097V8.47949H223.497ZM223.497 14.7598V14.1598H220.976V14.7598V15.3598H223.497V14.7598ZM220.976 14.7598H221.576V0.200195H220.976H220.376V14.7598H220.976ZM220.976 0.200195V0.800195H223.497V0.200195V-0.399805H220.976V0.200195ZM223.497 0.200195H222.897V5.95996H223.497H224.097V0.200195H223.497ZM243.307 2.71973V2.11973H239.208V2.71973V3.31973H243.307V2.71973ZM239.208 2.71973H238.608V5.95996H239.208H239.808V2.71973H239.208ZM239.208 5.95996V6.55996H242.827V5.95996V5.35996H239.208V5.95996ZM242.827 5.95996H242.227V8.47949H242.827H243.427V5.95996H242.827ZM242.827 8.47949V7.87949H239.208V8.47949V9.07949H242.827V8.47949ZM239.208 8.47949H238.608V12.2402H239.208H239.808V8.47949H239.208ZM239.208 12.2402V12.8402H243.307V12.2402V11.6402H239.208V12.2402ZM243.307 12.2402H242.707V14.7598H243.307H243.907V12.2402H243.307ZM243.307 14.7598V14.1598H236.687V14.7598V15.3598H243.307V14.7598ZM236.687 14.7598H237.287V0.200195H236.687H236.087V14.7598H236.687ZM236.687 0.200195V0.800195H243.307V0.200195V-0.399805H236.687V0.200195ZM243.307 0.200195H242.707V2.71973H243.307H243.907V0.200195H243.307ZM278.252 14.7598V14.1598H275.672V14.7598V15.3598H278.252V14.7598ZM275.672 14.7598L276.259 14.8839L276.833 12.1719L276.246 12.0479L275.659 11.9238L275.085 14.6357L275.672 14.7598ZM276.246 12.0479V12.6479H278.76V12.0479V11.4479H276.246V12.0479ZM278.76 12.0479L278.171 11.9374L277.663 14.6493L278.252 14.7598L278.842 14.8702L279.35 12.1583L278.76 12.0479ZM284.352 14.7598V14.1598H281.772V14.7598V15.3598H284.352V14.7598ZM281.772 14.7598L282.362 14.6491L281.853 11.9372L281.263 12.0479L280.673 12.1585L281.182 14.8704L281.772 14.7598ZM281.263 12.0479V12.6479H283.779V12.0479V11.4479H281.263V12.0479ZM283.779 12.0479L283.192 12.1719L283.765 14.8839L284.352 14.7598L284.939 14.6357L284.366 11.9238L283.779 12.0479ZM296.899 8.13965L297.468 8.32894L300.108 0.389491L299.539 0.200195L298.969 0.0108999L296.33 7.95035L296.899 8.13965ZM299.539 0.200195V0.800195H302.079V0.200195V-0.399805H299.539V0.200195ZM302.079 0.200195H301.479V14.7598H302.079H302.679V0.200195H302.079ZM302.079 14.7598V14.1598H299.559V14.7598V15.3598H302.079V14.7598ZM299.559 14.7598H300.159V6.82031H299.559H298.959V14.7598H299.559ZM299.559 6.82031L298.986 6.64274L297.226 12.3224L297.799 12.5L298.372 12.6776L300.132 6.99789L299.559 6.82031ZM297.799 12.5V11.9H295.979V12.5V13.1H297.799V12.5ZM295.979 12.5L296.552 12.3224L294.792 6.64274L294.219 6.82031L293.646 6.99789L295.406 12.6776L295.979 12.5ZM294.219 6.82031H293.619V14.7598H294.219H294.819V6.82031H294.219ZM294.219 14.7598V14.1598H291.699V14.7598V15.3598H294.219V14.7598ZM291.699 14.7598H292.299V0.200195H291.699H291.099V14.7598H291.699ZM291.699 0.200195V0.800195H294.239V0.200195V-0.399805H291.699V0.200195ZM294.239 0.200195L293.67 0.390813L296.33 8.33027L296.899 8.13965L297.468 7.94903L294.808 0.00957716L294.239 0.200195ZM317.018 2.71973V2.11973H312.918V2.71973V3.31973H317.018V2.71973ZM312.918 2.71973H312.318V5.95996H312.918H313.518V2.71973H312.918ZM312.918 5.95996V6.55996H316.538V5.95996V5.35996H312.918V5.95996ZM316.538 5.95996H315.938V8.47949H316.538H317.138V5.95996H316.538ZM316.538 8.47949V7.87949H312.918V8.47949V9.07949H316.538V8.47949ZM312.918 8.47949H312.318V12.2402H312.918H313.518V8.47949H312.918ZM312.918 12.2402V12.8402H317.018V12.2402V11.6402H312.918V12.2402ZM317.018 12.2402H316.418V14.7598H317.018H317.618V12.2402H317.018ZM317.018 14.7598V14.1598H310.398V14.7598V15.3598H317.018V14.7598ZM310.398 14.7598H310.998V0.200195H310.398H309.798V14.7598H310.398ZM310.398 0.200195V0.800195H317.018V0.200195V-0.399805H310.398V0.200195ZM317.018 0.200195H316.418V2.71973H317.018H317.618V0.200195H317.018ZM170.561 2.51953V1.91953C170.082 1.91953 169.656 2.09618 169.317 2.43498L169.741 2.85938L170.165 3.28377C170.279 3.16965 170.4 3.11953 170.561 3.11953V2.51953ZM169.741 2.85938L169.316 2.43511C168.977 2.77436 168.801 3.20074 168.801 3.67961L169.401 3.67969L170.001 3.67976C170.001 3.51878 170.051 3.39765 170.165 3.28364L169.741 2.85938ZM169.401 3.67969H168.801V11.2803H169.401H170.001V3.67969H169.401ZM169.401 11.2803L168.801 11.2805C168.801 11.7596 168.978 12.185 169.316 12.5239L169.741 12.0996L170.165 11.6754C170.051 11.5611 170.001 11.4405 170.001 11.2801L169.401 11.2803ZM169.741 12.0996L169.316 12.5239C169.656 12.8631 170.082 13.0395 170.561 13.0395V12.4395V11.8395C170.4 11.8395 170.279 11.7894 170.165 11.6753L169.741 12.0996ZM170.561 12.4395L170.561 13.0395C171.046 13.0393 171.481 12.8681 171.825 12.5239L171.401 12.0996L170.977 11.6753C170.868 11.7843 170.742 11.8394 170.561 11.8395L170.561 12.4395ZM171.401 12.0996L171.825 12.5238C172.164 12.1851 172.341 11.7596 172.341 11.2805L171.741 11.2803L171.141 11.2801C171.141 11.4403 171.091 11.5611 170.976 11.6755L171.401 12.0996ZM171.741 11.2803H172.341V3.67969H171.741H171.141V11.2803H171.741ZM171.741 3.67969L172.341 3.67961C172.341 3.20074 172.164 2.77436 171.825 2.43511L171.401 2.85938L170.977 3.28364C171.091 3.39765 171.141 3.51878 171.141 3.67976L171.741 3.67969ZM171.401 2.85938L171.825 2.43507C171.481 2.09102 171.046 1.91968 170.561 1.91953L170.561 2.51953L170.561 3.11953C170.742 3.11959 170.868 3.17472 170.977 3.28368L171.401 2.85938ZM185.016 11.7598V11.1598H182.496V11.7598V12.3598H185.016V11.7598ZM182.496 11.7598H183.096V10.7598H182.496H181.896V11.7598H182.496ZM182.496 10.7598V11.3598H185.016V10.7598V10.1598H182.496V10.7598ZM185.016 10.7598H184.416V11.7598H185.016H185.616V10.7598H185.016ZM283.567 11.0479V10.4479H276.458V11.0479V11.6479H283.567V11.0479ZM276.458 11.0479L277.044 11.1722L277.256 10.1722L276.669 10.0479L276.082 9.92347L275.871 10.9235L276.458 11.0479ZM276.669 10.0479V10.6479H283.355V10.0479V9.44785H276.669V10.0479ZM283.355 10.0479L282.768 10.1722L282.98 11.1722L283.567 11.0479L284.154 10.9235L283.942 9.92347L283.355 10.0479ZM185.016 9.75977V9.15977H182.496V9.75977V10.3598H185.016V9.75977ZM182.496 9.75977H183.096V8.75977H182.496H181.896V9.75977H182.496ZM182.496 8.75977V9.35977H185.016V8.75977V8.15977H182.496V8.75977ZM185.016 8.75977H184.416V9.75977H185.016H185.616V8.75977H185.016ZM129.631 9.04785V8.44785H127.111V9.04785V9.64785H129.631V9.04785ZM127.111 9.04785H127.711V8.04785H127.111H126.511V9.04785H127.111ZM127.111 8.04785V8.64785H129.631V8.04785V7.44785H127.111V8.04785ZM129.631 8.04785H129.031V9.04785H129.631H130.231V8.04785H129.631ZM279.31 9.04785V8.44785H276.88V9.04785V9.64785H279.31V9.04785ZM276.88 9.04785L277.467 9.17224L277.679 8.17224L277.092 8.04785L276.505 7.92347L276.293 8.92347L276.88 9.04785ZM277.092 8.04785V8.64785H279.496V8.04785V7.44785H277.092V8.04785ZM279.496 8.04785L278.906 7.93839L278.72 8.93839L279.31 9.04785L279.9 9.15731L280.086 8.15731L279.496 8.04785ZM283.144 9.04785V8.44785H280.714V9.04785V9.64785H283.144V9.04785ZM280.714 9.04785L281.304 8.93839L281.119 7.93839L280.529 8.04785L279.939 8.15731L280.124 9.15731L280.714 9.04785ZM280.529 8.04785V8.64785H282.932V8.04785V7.44785H280.529V8.04785ZM282.932 8.04785L282.345 8.17224L282.557 9.17224L283.144 9.04785L283.731 8.92347L283.519 7.92347L282.932 8.04785ZM189.116 2.71973V2.11973H185.016V2.71973V3.31973H189.116V2.71973ZM185.016 2.71973H184.416V5.95996H185.016H185.616V2.71973H185.016ZM185.016 5.95996V6.55996H188.635V5.95996V5.35996H185.016V5.95996ZM188.635 5.95996H188.035V7.75977H188.635H189.235V5.95996H188.635ZM188.635 7.75977V7.15977H182.496V7.75977V8.35977H188.635V7.75977ZM182.496 7.75977H183.096V0.200195H182.496H181.896V7.75977H182.496ZM182.496 0.200195V0.800195H189.116V0.200195V-0.399805H182.496V0.200195ZM189.116 0.200195H188.516V2.71973H189.116H189.716V0.200195H189.116ZM129.631 7.04785V6.44785H127.111V7.04785V7.64785H129.631V7.04785ZM127.111 7.04785H127.711V6.04785H127.111H126.511V7.04785H127.111ZM127.111 6.04785V6.64785H129.631V6.04785V5.44785H127.111V6.04785ZM129.631 6.04785H129.031V7.04785H129.631H130.231V6.04785H129.631ZM282.72 7.04785V6.44785H280.343V7.04785V7.64785H282.72V7.04785ZM280.343 7.04785L280.933 6.93862L280.602 5.15054L280.012 5.25977L279.422 5.369L279.753 7.15708L280.343 7.04785ZM280.012 5.25977L279.422 5.15054L279.091 6.93862L279.681 7.04785L280.271 7.15708L280.602 5.369L280.012 5.25977ZM279.681 7.04785V6.44785H277.304V7.04785V7.64785H279.681V7.04785ZM277.304 7.04785L277.891 7.172L279.339 0.324346L278.752 0.200195L278.165 0.0760448L276.717 6.9237L277.304 7.04785ZM278.752 0.200195V0.800195H281.272V0.200195V-0.399805H278.752V0.200195ZM281.272 0.200195L280.685 0.324346L282.133 7.172L282.72 7.04785L283.307 6.9237L281.859 0.0760448L281.272 0.200195ZM130.792 0L130.791 0.6C131.66 0.600089 132.38 0.89797 132.986 1.50435L133.411 1.08008L133.835 0.655801C133.002 -0.177482 131.976 -0.599878 130.792 -0.6L130.792 0ZM133.411 1.08008L132.986 1.50434C133.594 2.11245 133.891 2.82651 133.891 3.67971L134.491 3.67969L135.091 3.67966C135.091 2.50634 134.667 1.48762 133.835 0.655814L133.411 1.08008ZM134.491 3.67969H133.891V4.33984H134.491H135.091V3.67969H134.491ZM134.491 4.33984V3.73984H131.971V4.33984V4.93984H134.491V4.33984ZM131.971 4.33984H132.571V3.67969H131.971H131.371V4.33984H131.971ZM131.971 3.67969L132.571 3.67961C132.571 3.20074 132.395 2.77436 132.056 2.43511L131.631 2.85938L131.207 3.28364C131.321 3.39765 131.371 3.51878 131.371 3.67976L131.971 3.67969ZM131.631 2.85938L132.056 2.43507C131.711 2.09102 131.276 1.91968 130.792 1.91953L130.792 2.51953L130.791 3.11953C130.973 3.11959 131.098 3.17472 131.207 3.28368L131.631 2.85938ZM130.792 2.51953V1.91953C130.312 1.91953 129.886 2.09618 129.547 2.43498L129.971 2.85938L130.395 3.28377C130.51 3.16965 130.631 3.11953 130.792 3.11953V2.51953ZM129.971 2.85938L129.547 2.43511C129.208 2.77436 129.031 3.20074 129.031 3.67961L129.631 3.67969L130.231 3.67976C130.231 3.51878 130.281 3.39765 130.395 3.28364L129.971 2.85938ZM129.631 3.67969H129.031V5.04785H129.631H130.231V3.67969H129.631ZM129.631 5.04785V4.44785H127.111V5.04785V5.64785H129.631V5.04785ZM127.111 5.04785H127.711V3.67969H127.111H126.511V5.04785H127.111ZM127.111 3.67969L127.711 3.67971C127.711 2.82662 128.007 2.11242 128.615 1.50432L128.191 1.08008L127.767 0.655839C126.935 1.48758 126.511 2.5064 126.511 3.67966L127.111 3.67969ZM128.191 1.08008L128.615 1.50434C129.223 0.896301 129.938 0.6 130.792 0.6V0V-0.6C129.618 -0.6 128.599 -0.176146 127.767 0.655814L128.191 1.08008Z" fill="url(#paint1_linear_7_389)" mask="url(#path-1-inside-1_7_389)"/>
<defs>
<radialGradient id="paint0_radial_7_389" cx="0" cy="0" r="1" gradientUnits="userSpaceOnUse" gradientTransform="translate(183.864 7.67658) rotate(90) scale(38.8047 172.736)">
<stop stop-color="#ECF7FF"/>
<stop offset="1" stop-color="#ECF7FF" stop-opacity="0"/>
</radialGradient>
<linearGradient id="paint1_linear_7_389" x1="183.864" y1="-6.45475" x2="183.864" y2="44.9505" gradientUnits="userSpaceOnUse">
<stop stop-color="#253596" stop-opacity="0"/>
<stop offset="0.456017" stop-color="#4A76D4"/>
<stop offset="1" stop-color="#76EAF1"/>
</linearGradient>
</defs>
</svg>
