<svg width="540" height="22" viewBox="0 0 540 22" fill="none" xmlns="http://www.w3.org/2000/svg">
<mask id="path-1-inside-1_36_3356" fill="white">
<path d="M23.999 0.527832C25.4362 0.527872 26.6591 1.03169 27.667 2.03955C28.675 3.04755 29.1787 4.26151 29.1787 5.68018V6.604H25.6504V5.68018C25.6504 5.23218 25.4921 4.84907 25.1748 4.53174C24.8575 4.21454 24.4655 4.05619 23.999 4.05615C23.551 4.05615 23.1679 4.2144 22.8506 4.53174C22.5333 4.84907 22.375 5.23218 22.375 5.68018V16.3198C22.375 16.7678 22.5333 17.1509 22.8506 17.4683C23.1679 17.7856 23.551 17.9438 23.999 17.9438C24.4655 17.9438 24.8575 17.7854 25.1748 17.4683C25.4921 17.1509 25.6504 16.7678 25.6504 16.3198V15.396H29.1787V16.3198C29.1787 17.7385 28.675 18.9524 27.667 19.9604C26.6591 20.9683 25.4362 21.4721 23.999 21.4722C22.5804 21.4722 21.3664 20.9684 20.3584 19.9604C19.3504 18.9524 18.8467 17.7385 18.8467 16.3198V5.68018C18.8467 4.26151 19.3504 3.04755 20.3584 2.03955C21.3664 1.03155 22.5804 0.527832 23.999 0.527832ZM206.754 0.527832C208.191 0.527918 209.414 1.03167 210.422 2.03955C211.43 3.04755 211.934 4.26151 211.934 5.68018V16.3198C211.934 17.7385 211.43 18.9524 210.422 19.9604C209.414 20.9683 208.191 21.4721 206.754 21.4722C205.335 21.4722 204.121 20.9684 203.113 19.9604C202.105 18.9524 201.602 17.7385 201.602 16.3198V5.68018C201.602 4.26151 202.105 3.04755 203.113 2.03955C204.121 1.03161 205.335 0.527832 206.754 0.527832ZM248.877 16.3481C248.877 16.7774 249.035 17.151 249.353 17.4683C249.67 17.7856 250.053 17.9438 250.501 17.9438C250.968 17.9438 251.359 17.7942 251.677 17.4956C251.994 17.1784 252.152 16.796 252.152 16.3481V0.808105H255.681V16.3481C255.681 17.7666 255.177 18.9799 254.169 19.9878C253.161 20.9771 251.938 21.4721 250.501 21.4722C249.082 21.4722 247.868 20.9771 246.86 19.9878C245.853 18.9799 245.349 17.7666 245.349 16.3481V0.808105H248.877V16.3481ZM270.76 16.3198C270.76 16.7678 270.919 17.1509 271.236 17.4683C271.554 17.7853 271.936 17.9438 272.384 17.9438C272.85 17.9438 273.242 17.7854 273.56 17.4683C273.877 17.1509 274.036 16.7678 274.036 16.3198V15.396H277.564V16.3198C277.564 17.7385 277.06 18.9524 276.052 19.9604C275.044 20.9682 273.821 21.4722 272.384 21.4722C270.965 21.4721 269.752 20.9682 268.744 19.9604C267.736 18.9524 267.232 17.7385 267.232 16.3198V13.1919H270.76V16.3198ZM348.818 0.527832C350.256 0.527843 351.478 1.0317 352.486 2.03955C353.494 3.04755 353.998 4.26151 353.998 5.68018V6.604H350.471V5.68018C350.471 5.23218 350.311 4.84907 349.994 4.53174C349.677 4.21455 349.285 4.05616 348.818 4.05615C348.37 4.05615 347.987 4.2144 347.67 4.53174C347.353 4.84906 347.194 5.23221 347.194 5.68018V6.01611C347.194 6.85603 347.502 7.53743 348.118 8.06006L351.843 11.2524C353.28 12.5217 353.998 14.0988 353.998 15.9839V16.3198C353.998 17.7385 353.494 18.9524 352.486 19.9604C351.478 20.9683 350.256 21.4722 348.818 21.4722C347.4 21.4722 346.187 20.9682 345.179 19.9604C344.171 18.9524 343.666 17.7385 343.666 16.3198V15.396H347.194V16.3198C347.194 16.7678 347.353 17.1509 347.67 17.4683C347.987 17.7856 348.37 17.9438 348.818 17.9438C349.285 17.9438 349.677 17.7854 349.994 17.4683C350.311 17.1509 350.471 16.7678 350.471 16.3198V15.9839C350.471 15.1439 350.162 14.4626 349.546 13.9399L345.822 10.7476C344.385 9.47829 343.666 7.90129 343.666 6.01611V5.68018C343.666 4.26151 344.171 3.04755 345.179 2.03955C346.187 1.03183 347.4 0.527832 348.818 0.527832ZM410.128 16.3481C410.128 16.7774 410.287 17.151 410.604 17.4683C410.922 17.7854 411.304 17.9438 411.752 17.9438C412.219 17.9438 412.611 17.7943 412.929 17.4956C413.246 17.1784 413.404 16.7959 413.404 16.3481V0.808105H416.933V16.3481C416.933 17.7667 416.428 18.9798 415.42 19.9878C414.412 20.9771 413.189 21.4722 411.752 21.4722C410.333 21.4721 409.12 20.9771 408.112 19.9878C407.104 18.9798 406.601 17.7667 406.601 16.3481V0.808105H410.128V16.3481ZM493.523 0.527832C494.961 0.527832 496.184 1.03184 497.191 2.03955C498.199 3.04755 498.704 4.26151 498.704 5.68018V16.3198C498.704 17.7385 498.199 18.9524 497.191 19.9604C496.184 20.9681 494.961 21.4722 493.523 21.4722C492.105 21.4721 490.892 20.9682 489.884 19.9604C488.876 18.9524 488.372 17.7385 488.372 16.3198V5.68018C488.372 4.26151 488.876 3.04755 489.884 2.03955C490.892 1.03177 492.105 0.527929 493.523 0.527832ZM43.9629 21.1919H40.4346V9.47998H43.9629V21.1919ZM63.6846 11.9517V0.808105H67.2129V21.1919H63.6846L59.1768 10.0483V21.1919H55.6484V0.808105H59.1768L63.6846 11.9517ZM88.1426 4.33643H82.4023V8.87158H87.4707V12.3999H82.4023V17.6636H88.1426V21.1919H78.874V0.808105H88.1426V4.33643ZM106.345 11.9243L110.041 0.808105H113.597V21.1919H110.069V10.0757L107.605 18.0278H105.057L102.593 10.0757V21.1919H99.0654V0.808105H102.621L106.345 11.9243ZM136.024 21.1919H132.412L131.656 17.1597H128.24L127.484 21.1919H123.872L128.184 0.808105H131.712L136.024 21.1919ZM164.912 0.808105C166.349 0.808105 167.573 1.31182 168.581 2.31982C169.589 3.32779 170.093 4.54186 170.093 5.96045V7.24756C170.093 8.66616 169.589 9.88021 168.581 10.8882C167.573 11.8962 166.349 12.3999 164.912 12.3999H163.849V21.1919H160.32V0.808105H164.912ZM185.213 0.808105C186.65 0.808181 187.873 1.3119 188.881 2.31982C189.889 3.32781 190.393 4.54181 190.393 5.96045V7.24756C190.393 8.14341 190.178 8.97452 189.749 9.73975C189.338 10.4863 188.769 11.0934 188.041 11.5601L191.541 21.1919H187.788L184.652 12.3999H184.148V21.1919H180.62V0.808105H185.213ZM228.615 0.808105C230.034 0.808218 231.247 1.31195 232.255 2.31982C233.282 3.32782 233.795 4.54178 233.795 5.96045V16.0396C233.795 17.4582 233.282 18.6722 232.255 19.6802C231.247 20.688 230.034 21.1918 228.615 21.1919H223.463V0.808105H228.615ZM298.088 4.33643H292.348V8.87158H297.416V12.3999H292.348V17.6636H298.088V21.1919H288.819V0.808105H298.088V4.33643ZM313.603 0.808105C315.04 0.808131 316.263 1.31188 317.271 2.31982C318.279 3.32782 318.782 4.54178 318.782 5.96045V7.24756C318.782 8.14345 318.568 8.97449 318.139 9.73975C317.728 10.4864 317.159 11.0934 316.431 11.5601L319.931 21.1919H316.179L313.042 12.3999H312.538V21.1919H309.011V0.808105H313.603ZM368.735 21.1919H365.207V9.47998H368.735V21.1919ZM387.701 11.9243L391.397 0.808105H394.953V21.1919H391.426V10.0757L388.961 18.0278H386.413L383.949 10.0757V21.1919H380.421V0.808105H383.978L387.701 11.9243ZM432.124 17.6636H436.911V21.1919H428.596V0.808105H432.124V17.6636ZM458.227 21.1919H454.614L453.858 17.1597H450.442L449.687 21.1919H446.074L450.387 0.808105H453.914L458.227 21.1919ZM477.92 4.33643H474.42V21.1919H470.892V4.33643H467.392V0.808105H477.92V4.33643ZM514.825 0.808105C516.262 0.808131 517.485 1.31188 518.493 2.31982C519.501 3.32782 520.005 4.54178 520.005 5.96045V7.24756C520.005 8.14345 519.791 8.97449 519.361 9.73975C518.951 10.4864 518.381 11.0934 517.653 11.5601L521.153 21.1919H517.401L514.265 12.3999H513.761V21.1919H510.233V0.808105H514.825ZM206.754 4.05615C206.306 4.05615 205.923 4.21446 205.605 4.53174C205.288 4.84907 205.13 5.23218 205.13 5.68018V16.3198C205.13 16.7678 205.288 17.1509 205.605 17.4683C205.923 17.7855 206.306 17.9438 206.754 17.9438C207.22 17.9438 207.612 17.7855 207.93 17.4683C208.247 17.1509 208.405 16.7678 208.405 16.3198V5.68018C208.405 5.23218 208.247 4.84907 207.93 4.53174C207.612 4.21452 207.22 4.05624 206.754 4.05615ZM493.523 4.05615C493.076 4.05625 492.693 4.21463 492.376 4.53174C492.059 4.84907 491.899 5.23218 491.899 5.68018V16.3198C491.899 16.7678 492.059 17.1509 492.376 17.4683C492.693 17.7854 493.076 17.9438 493.523 17.9438C493.99 17.9438 494.383 17.7856 494.7 17.4683C495.018 17.1509 495.176 16.7678 495.176 16.3198V5.68018C495.176 5.2322 495.017 4.84906 494.7 4.53174C494.383 4.2144 493.99 4.05615 493.523 4.05615ZM226.991 17.6636H228.615C229.082 17.6635 229.474 17.5052 229.791 17.188C230.108 16.8707 230.267 16.4875 230.267 16.0396V5.96045C230.267 5.51252 230.108 5.12932 229.791 4.81201C229.474 4.49479 229.082 4.33653 228.615 4.33643H226.991V17.6636ZM128.884 13.6323H131.012L129.948 7.89209L128.884 13.6323ZM451.086 13.6323H453.214L452.15 7.89209L451.086 13.6323ZM270.76 12.1919H267.232V11.1919H270.76V12.1919ZM270.76 10.1919H267.232V9.19189H270.76V10.1919ZM163.849 8.87158H164.912C165.379 8.87158 165.772 8.71333 166.089 8.396C166.406 8.07869 166.564 7.69549 166.564 7.24756V5.96045C166.564 5.51252 166.406 5.12931 166.089 4.81201C165.772 4.49468 165.379 4.33643 164.912 4.33643H163.849V8.87158ZM184.148 8.87158H185.213C185.679 8.87151 186.071 8.71326 186.389 8.396C186.706 8.07867 186.864 7.69554 186.864 7.24756V5.96045C186.864 5.51248 186.706 5.12933 186.389 4.81201C186.071 4.49475 185.679 4.3365 185.213 4.33643H184.148V8.87158ZM312.538 8.87158H313.603C314.069 8.87156 314.461 8.71326 314.778 8.396C315.096 8.07866 315.255 7.69556 315.255 7.24756V5.96045C315.255 5.51245 315.096 5.12935 314.778 4.81201C314.461 4.49473 314.069 4.33645 313.603 4.33643H312.538V8.87158ZM513.761 8.87158H514.825C515.292 8.87156 515.684 8.71326 516.001 8.396C516.318 8.07866 516.478 7.69556 516.478 7.24756V5.96045C516.478 5.51245 516.318 5.12935 516.001 4.81201C515.684 4.49473 515.292 4.33645 514.825 4.33643H513.761V8.87158ZM43.9629 8.47998H40.4346V7.47998H43.9629V8.47998ZM368.735 8.47998H365.207V7.47998H368.735V8.47998ZM272.384 0.527832C273.821 0.527832 275.044 1.03178 276.052 2.03955C277.06 3.04755 277.564 4.26151 277.564 5.68018V6.604H274.036V5.68018C274.036 5.23218 273.877 4.84907 273.56 4.53174C273.242 4.21463 272.85 4.05615 272.384 4.05615C271.936 4.05621 271.554 4.21464 271.236 4.53174C270.919 4.84907 270.76 5.23218 270.76 5.68018V8.19189H267.232V5.68018C267.232 4.26151 267.736 3.04755 268.744 2.03955C269.752 1.03179 270.965 0.527886 272.384 0.527832ZM43.9629 6.47998H40.4346V5.47998H43.9629V6.47998ZM368.735 6.47998H365.207V5.47998H368.735V6.47998ZM43.9629 4.47998H40.4346V0.808105H43.9629V4.47998ZM368.735 4.47998H365.207V0.808105H368.735V4.47998Z"/>
</mask>
<path d="M23.999 0.527832C25.4362 0.527872 26.6591 1.03169 27.667 2.03955C28.675 3.04755 29.1787 4.26151 29.1787 5.68018V6.604H25.6504V5.68018C25.6504 5.23218 25.4921 4.84907 25.1748 4.53174C24.8575 4.21454 24.4655 4.05619 23.999 4.05615C23.551 4.05615 23.1679 4.2144 22.8506 4.53174C22.5333 4.84907 22.375 5.23218 22.375 5.68018V16.3198C22.375 16.7678 22.5333 17.1509 22.8506 17.4683C23.1679 17.7856 23.551 17.9438 23.999 17.9438C24.4655 17.9438 24.8575 17.7854 25.1748 17.4683C25.4921 17.1509 25.6504 16.7678 25.6504 16.3198V15.396H29.1787V16.3198C29.1787 17.7385 28.675 18.9524 27.667 19.9604C26.6591 20.9683 25.4362 21.4721 23.999 21.4722C22.5804 21.4722 21.3664 20.9684 20.3584 19.9604C19.3504 18.9524 18.8467 17.7385 18.8467 16.3198V5.68018C18.8467 4.26151 19.3504 3.04755 20.3584 2.03955C21.3664 1.03155 22.5804 0.527832 23.999 0.527832ZM206.754 0.527832C208.191 0.527918 209.414 1.03167 210.422 2.03955C211.43 3.04755 211.934 4.26151 211.934 5.68018V16.3198C211.934 17.7385 211.43 18.9524 210.422 19.9604C209.414 20.9683 208.191 21.4721 206.754 21.4722C205.335 21.4722 204.121 20.9684 203.113 19.9604C202.105 18.9524 201.602 17.7385 201.602 16.3198V5.68018C201.602 4.26151 202.105 3.04755 203.113 2.03955C204.121 1.03161 205.335 0.527832 206.754 0.527832ZM248.877 16.3481C248.877 16.7774 249.035 17.151 249.353 17.4683C249.67 17.7856 250.053 17.9438 250.501 17.9438C250.968 17.9438 251.359 17.7942 251.677 17.4956C251.994 17.1784 252.152 16.796 252.152 16.3481V0.808105H255.681V16.3481C255.681 17.7666 255.177 18.9799 254.169 19.9878C253.161 20.9771 251.938 21.4721 250.501 21.4722C249.082 21.4722 247.868 20.9771 246.86 19.9878C245.853 18.9799 245.349 17.7666 245.349 16.3481V0.808105H248.877V16.3481ZM270.76 16.3198C270.76 16.7678 270.919 17.1509 271.236 17.4683C271.554 17.7853 271.936 17.9438 272.384 17.9438C272.85 17.9438 273.242 17.7854 273.56 17.4683C273.877 17.1509 274.036 16.7678 274.036 16.3198V15.396H277.564V16.3198C277.564 17.7385 277.06 18.9524 276.052 19.9604C275.044 20.9682 273.821 21.4722 272.384 21.4722C270.965 21.4721 269.752 20.9682 268.744 19.9604C267.736 18.9524 267.232 17.7385 267.232 16.3198V13.1919H270.76V16.3198ZM348.818 0.527832C350.256 0.527843 351.478 1.0317 352.486 2.03955C353.494 3.04755 353.998 4.26151 353.998 5.68018V6.604H350.471V5.68018C350.471 5.23218 350.311 4.84907 349.994 4.53174C349.677 4.21455 349.285 4.05616 348.818 4.05615C348.37 4.05615 347.987 4.2144 347.67 4.53174C347.353 4.84906 347.194 5.23221 347.194 5.68018V6.01611C347.194 6.85603 347.502 7.53743 348.118 8.06006L351.843 11.2524C353.28 12.5217 353.998 14.0988 353.998 15.9839V16.3198C353.998 17.7385 353.494 18.9524 352.486 19.9604C351.478 20.9683 350.256 21.4722 348.818 21.4722C347.4 21.4722 346.187 20.9682 345.179 19.9604C344.171 18.9524 343.666 17.7385 343.666 16.3198V15.396H347.194V16.3198C347.194 16.7678 347.353 17.1509 347.67 17.4683C347.987 17.7856 348.37 17.9438 348.818 17.9438C349.285 17.9438 349.677 17.7854 349.994 17.4683C350.311 17.1509 350.471 16.7678 350.471 16.3198V15.9839C350.471 15.1439 350.162 14.4626 349.546 13.9399L345.822 10.7476C344.385 9.47829 343.666 7.90129 343.666 6.01611V5.68018C343.666 4.26151 344.171 3.04755 345.179 2.03955C346.187 1.03183 347.4 0.527832 348.818 0.527832ZM410.128 16.3481C410.128 16.7774 410.287 17.151 410.604 17.4683C410.922 17.7854 411.304 17.9438 411.752 17.9438C412.219 17.9438 412.611 17.7943 412.929 17.4956C413.246 17.1784 413.404 16.7959 413.404 16.3481V0.808105H416.933V16.3481C416.933 17.7667 416.428 18.9798 415.42 19.9878C414.412 20.9771 413.189 21.4722 411.752 21.4722C410.333 21.4721 409.12 20.9771 408.112 19.9878C407.104 18.9798 406.601 17.7667 406.601 16.3481V0.808105H410.128V16.3481ZM493.523 0.527832C494.961 0.527832 496.184 1.03184 497.191 2.03955C498.199 3.04755 498.704 4.26151 498.704 5.68018V16.3198C498.704 17.7385 498.199 18.9524 497.191 19.9604C496.184 20.9681 494.961 21.4722 493.523 21.4722C492.105 21.4721 490.892 20.9682 489.884 19.9604C488.876 18.9524 488.372 17.7385 488.372 16.3198V5.68018C488.372 4.26151 488.876 3.04755 489.884 2.03955C490.892 1.03177 492.105 0.527929 493.523 0.527832ZM43.9629 21.1919H40.4346V9.47998H43.9629V21.1919ZM63.6846 11.9517V0.808105H67.2129V21.1919H63.6846L59.1768 10.0483V21.1919H55.6484V0.808105H59.1768L63.6846 11.9517ZM88.1426 4.33643H82.4023V8.87158H87.4707V12.3999H82.4023V17.6636H88.1426V21.1919H78.874V0.808105H88.1426V4.33643ZM106.345 11.9243L110.041 0.808105H113.597V21.1919H110.069V10.0757L107.605 18.0278H105.057L102.593 10.0757V21.1919H99.0654V0.808105H102.621L106.345 11.9243ZM136.024 21.1919H132.412L131.656 17.1597H128.24L127.484 21.1919H123.872L128.184 0.808105H131.712L136.024 21.1919ZM164.912 0.808105C166.349 0.808105 167.573 1.31182 168.581 2.31982C169.589 3.32779 170.093 4.54186 170.093 5.96045V7.24756C170.093 8.66616 169.589 9.88021 168.581 10.8882C167.573 11.8962 166.349 12.3999 164.912 12.3999H163.849V21.1919H160.32V0.808105H164.912ZM185.213 0.808105C186.65 0.808181 187.873 1.3119 188.881 2.31982C189.889 3.32781 190.393 4.54181 190.393 5.96045V7.24756C190.393 8.14341 190.178 8.97452 189.749 9.73975C189.338 10.4863 188.769 11.0934 188.041 11.5601L191.541 21.1919H187.788L184.652 12.3999H184.148V21.1919H180.62V0.808105H185.213ZM228.615 0.808105C230.034 0.808218 231.247 1.31195 232.255 2.31982C233.282 3.32782 233.795 4.54178 233.795 5.96045V16.0396C233.795 17.4582 233.282 18.6722 232.255 19.6802C231.247 20.688 230.034 21.1918 228.615 21.1919H223.463V0.808105H228.615ZM298.088 4.33643H292.348V8.87158H297.416V12.3999H292.348V17.6636H298.088V21.1919H288.819V0.808105H298.088V4.33643ZM313.603 0.808105C315.04 0.808131 316.263 1.31188 317.271 2.31982C318.279 3.32782 318.782 4.54178 318.782 5.96045V7.24756C318.782 8.14345 318.568 8.97449 318.139 9.73975C317.728 10.4864 317.159 11.0934 316.431 11.5601L319.931 21.1919H316.179L313.042 12.3999H312.538V21.1919H309.011V0.808105H313.603ZM368.735 21.1919H365.207V9.47998H368.735V21.1919ZM387.701 11.9243L391.397 0.808105H394.953V21.1919H391.426V10.0757L388.961 18.0278H386.413L383.949 10.0757V21.1919H380.421V0.808105H383.978L387.701 11.9243ZM432.124 17.6636H436.911V21.1919H428.596V0.808105H432.124V17.6636ZM458.227 21.1919H454.614L453.858 17.1597H450.442L449.687 21.1919H446.074L450.387 0.808105H453.914L458.227 21.1919ZM477.92 4.33643H474.42V21.1919H470.892V4.33643H467.392V0.808105H477.92V4.33643ZM514.825 0.808105C516.262 0.808131 517.485 1.31188 518.493 2.31982C519.501 3.32782 520.005 4.54178 520.005 5.96045V7.24756C520.005 8.14345 519.791 8.97449 519.361 9.73975C518.951 10.4864 518.381 11.0934 517.653 11.5601L521.153 21.1919H517.401L514.265 12.3999H513.761V21.1919H510.233V0.808105H514.825ZM206.754 4.05615C206.306 4.05615 205.923 4.21446 205.605 4.53174C205.288 4.84907 205.13 5.23218 205.13 5.68018V16.3198C205.13 16.7678 205.288 17.1509 205.605 17.4683C205.923 17.7855 206.306 17.9438 206.754 17.9438C207.22 17.9438 207.612 17.7855 207.93 17.4683C208.247 17.1509 208.405 16.7678 208.405 16.3198V5.68018C208.405 5.23218 208.247 4.84907 207.93 4.53174C207.612 4.21452 207.22 4.05624 206.754 4.05615ZM493.523 4.05615C493.076 4.05625 492.693 4.21463 492.376 4.53174C492.059 4.84907 491.899 5.23218 491.899 5.68018V16.3198C491.899 16.7678 492.059 17.1509 492.376 17.4683C492.693 17.7854 493.076 17.9438 493.523 17.9438C493.99 17.9438 494.383 17.7856 494.7 17.4683C495.018 17.1509 495.176 16.7678 495.176 16.3198V5.68018C495.176 5.2322 495.017 4.84906 494.7 4.53174C494.383 4.2144 493.99 4.05615 493.523 4.05615ZM226.991 17.6636H228.615C229.082 17.6635 229.474 17.5052 229.791 17.188C230.108 16.8707 230.267 16.4875 230.267 16.0396V5.96045C230.267 5.51252 230.108 5.12932 229.791 4.81201C229.474 4.49479 229.082 4.33653 228.615 4.33643H226.991V17.6636ZM128.884 13.6323H131.012L129.948 7.89209L128.884 13.6323ZM451.086 13.6323H453.214L452.15 7.89209L451.086 13.6323ZM270.76 12.1919H267.232V11.1919H270.76V12.1919ZM270.76 10.1919H267.232V9.19189H270.76V10.1919ZM163.849 8.87158H164.912C165.379 8.87158 165.772 8.71333 166.089 8.396C166.406 8.07869 166.564 7.69549 166.564 7.24756V5.96045C166.564 5.51252 166.406 5.12931 166.089 4.81201C165.772 4.49468 165.379 4.33643 164.912 4.33643H163.849V8.87158ZM184.148 8.87158H185.213C185.679 8.87151 186.071 8.71326 186.389 8.396C186.706 8.07867 186.864 7.69554 186.864 7.24756V5.96045C186.864 5.51248 186.706 5.12933 186.389 4.81201C186.071 4.49475 185.679 4.3365 185.213 4.33643H184.148V8.87158ZM312.538 8.87158H313.603C314.069 8.87156 314.461 8.71326 314.778 8.396C315.096 8.07866 315.255 7.69556 315.255 7.24756V5.96045C315.255 5.51245 315.096 5.12935 314.778 4.81201C314.461 4.49473 314.069 4.33645 313.603 4.33643H312.538V8.87158ZM513.761 8.87158H514.825C515.292 8.87156 515.684 8.71326 516.001 8.396C516.318 8.07866 516.478 7.69556 516.478 7.24756V5.96045C516.478 5.51245 516.318 5.12935 516.001 4.81201C515.684 4.49473 515.292 4.33645 514.825 4.33643H513.761V8.87158ZM43.9629 8.47998H40.4346V7.47998H43.9629V8.47998ZM368.735 8.47998H365.207V7.47998H368.735V8.47998ZM272.384 0.527832C273.821 0.527832 275.044 1.03178 276.052 2.03955C277.06 3.04755 277.564 4.26151 277.564 5.68018V6.604H274.036V5.68018C274.036 5.23218 273.877 4.84907 273.56 4.53174C273.242 4.21463 272.85 4.05615 272.384 4.05615C271.936 4.05621 271.554 4.21464 271.236 4.53174C270.919 4.84907 270.76 5.23218 270.76 5.68018V8.19189H267.232V5.68018C267.232 4.26151 267.736 3.04755 268.744 2.03955C269.752 1.03179 270.965 0.527886 272.384 0.527832ZM43.9629 6.47998H40.4346V5.47998H43.9629V6.47998ZM368.735 6.47998H365.207V5.47998H368.735V6.47998ZM43.9629 4.47998H40.4346V0.808105H43.9629V4.47998ZM368.735 4.47998H365.207V0.808105H368.735V4.47998Z" fill="url(#paint0_radial_36_3356)"/>
<path d="M23.999 0.527832L23.999 -0.072168H23.999V0.527832ZM27.667 2.03955L28.0913 1.61529L28.0912 1.61527L27.667 2.03955ZM29.1787 6.604V7.204H29.7787V6.604H29.1787ZM25.6504 6.604H25.0504V7.204H25.6504V6.604ZM25.1748 4.53174L25.5991 4.10747L25.599 4.10743L25.1748 4.53174ZM23.999 4.05615L23.9991 3.45615H23.999V4.05615ZM22.8506 4.53174L22.4263 4.10747L22.4263 4.10748L22.8506 4.53174ZM22.8506 17.4683L22.4263 17.8925L22.4263 17.8925L22.8506 17.4683ZM23.999 17.9438V18.5438H23.9991L23.999 17.9438ZM25.1748 17.4683L25.599 17.8926L25.5991 17.8925L25.1748 17.4683ZM25.6504 15.396V14.796H25.0504V15.396H25.6504ZM29.1787 15.396H29.7787V14.796H29.1787V15.396ZM27.667 19.9604L28.0912 20.3847L28.0913 20.3847L27.667 19.9604ZM23.999 21.4722V22.0722H23.999L23.999 21.4722ZM20.3584 19.9604L19.9341 20.3847H19.9341L20.3584 19.9604ZM20.3584 2.03955L19.9341 1.61529L19.9341 1.61529L20.3584 2.03955ZM206.754 0.527832L206.754 -0.072168H206.754V0.527832ZM210.422 2.03955L210.846 1.61529L210.846 1.61528L210.422 2.03955ZM210.422 19.9604L210.846 20.3847L210.846 20.3847L210.422 19.9604ZM206.754 21.4722V22.0722H206.754L206.754 21.4722ZM203.113 19.9604L202.689 20.3847L202.689 20.3847L203.113 19.9604ZM203.113 2.03955L202.689 1.61528L202.689 1.61529L203.113 2.03955ZM248.877 16.3481H248.277V16.3482L248.877 16.3481ZM249.353 17.4683L248.928 17.8925L248.928 17.8925L249.353 17.4683ZM250.501 17.9438V18.5438H250.501L250.501 17.9438ZM251.677 17.4956L252.088 17.9325L252.095 17.9263L252.101 17.9198L251.677 17.4956ZM252.152 16.3481L252.752 16.3482V16.3481H252.152ZM252.152 0.808105V0.208105H251.552V0.808105H252.152ZM255.681 0.808105H256.281V0.208105H255.681V0.808105ZM255.681 16.3481L256.281 16.3482V16.3481H255.681ZM254.169 19.9878L254.589 20.416L254.593 20.412L254.169 19.9878ZM250.501 21.4722V22.0722H250.501L250.501 21.4722ZM246.86 19.9878L246.436 20.412L246.44 20.416L246.86 19.9878ZM245.349 16.3481H244.749V16.3482L245.349 16.3481ZM245.349 0.808105V0.208105H244.749V0.808105H245.349ZM248.877 0.808105H249.477V0.208105H248.877V0.808105ZM271.236 17.4683L270.812 17.8925L270.812 17.8926L271.236 17.4683ZM272.384 17.9438L272.384 18.5438H272.384V17.9438ZM273.56 17.4683L273.984 17.8926L273.984 17.8925L273.56 17.4683ZM274.036 15.396V14.796H273.436V15.396H274.036ZM277.564 15.396H278.164V14.796H277.564V15.396ZM276.052 19.9604L276.476 20.3848L276.476 20.3847L276.052 19.9604ZM272.384 21.4722L272.384 22.0722H272.384V21.4722ZM268.744 19.9604L268.32 20.3847L268.32 20.3847L268.744 19.9604ZM267.232 13.1919V12.5919H266.632V13.1919H267.232ZM270.76 13.1919H271.36V12.5919H270.76V13.1919ZM348.818 0.527832V-0.072168V0.527832ZM352.486 2.03955L352.911 1.61529V1.61527L352.486 2.03955ZM353.998 6.604V7.204H354.598V6.604H353.998ZM350.471 6.604H349.871V7.204H350.471V6.604ZM349.994 4.53174L350.418 4.10747L350.418 4.10741L349.994 4.53174ZM348.818 4.05615V3.45615V4.05615ZM347.67 4.53174L347.246 4.10747L347.246 4.1075L347.67 4.53174ZM347.194 6.01611H346.594V6.01614L347.194 6.01611ZM348.118 8.06006L348.509 7.60449L348.506 7.60256L348.118 8.06006ZM351.843 11.2524L352.24 10.8027L352.233 10.7969L351.843 11.2524ZM353.998 15.9839H354.598V15.9839L353.998 15.9839ZM352.486 19.9604L352.911 20.3847V20.3847L352.486 19.9604ZM348.818 21.4722V22.0722V21.4722ZM345.179 19.9604L344.754 20.3847L344.754 20.3848L345.179 19.9604ZM343.666 15.396V14.796H343.066V15.396H343.666ZM347.194 15.396H347.794V14.796H347.194V15.396ZM347.67 17.4683L347.246 17.8925L347.246 17.8925L347.67 17.4683ZM348.818 17.9438V18.5438V17.9438ZM349.994 17.4683L350.418 17.8926L350.418 17.8925L349.994 17.4683ZM350.471 15.9839H351.071V15.9839L350.471 15.9839ZM349.546 13.9399L349.155 14.3955L349.158 14.3974L349.546 13.9399ZM345.822 10.7476L345.425 11.1973L345.432 11.2031L345.822 10.7476ZM343.666 6.01611H343.066V6.01612L343.666 6.01611ZM345.179 2.03955L344.754 1.61525L344.754 1.61529L345.179 2.03955ZM410.128 16.3481H409.528V16.3482L410.128 16.3481ZM410.604 17.4683L410.18 17.8925L410.18 17.8926L410.604 17.4683ZM411.752 17.9438L411.752 18.5438H411.752V17.9438ZM412.929 17.4956L413.34 17.9325L413.347 17.9262L413.353 17.9197L412.929 17.4956ZM413.404 16.3481L414.004 16.3482V16.3481H413.404ZM413.404 0.808105V0.208105H412.804V0.808105H413.404ZM416.933 0.808105H417.533V0.208105H416.933V0.808105ZM416.933 16.3481L417.533 16.3482V16.3481H416.933ZM415.42 19.9878L415.84 20.416L415.844 20.4121L415.42 19.9878ZM411.752 21.4722L411.752 22.0722H411.752V21.4722ZM408.112 19.9878L407.688 20.4121L407.692 20.416L408.112 19.9878ZM406.601 16.3481H406.001V16.3482L406.601 16.3481ZM406.601 0.808105V0.208105H406.001V0.808105H406.601ZM410.128 0.808105H410.728V0.208105H410.128V0.808105ZM493.523 0.527832V-0.072168H493.523L493.523 0.527832ZM497.191 2.03955L497.616 1.61529L497.616 1.61524L497.191 2.03955ZM497.191 19.9604L497.616 20.3848L497.616 20.3847L497.191 19.9604ZM493.523 21.4722L493.523 22.0722H493.523V21.4722ZM489.884 19.9604L489.46 20.3847V20.3847L489.884 19.9604ZM489.884 2.03955L489.46 1.61527V1.61529L489.884 2.03955ZM43.9629 21.1919V21.7919H44.5629V21.1919H43.9629ZM40.4346 21.1919H39.8346V21.7919H40.4346V21.1919ZM40.4346 9.47998V8.87998H39.8346V9.47998H40.4346ZM43.9629 9.47998H44.5629V8.87998H43.9629V9.47998ZM63.6846 11.9517L63.1284 12.1767L64.2846 11.9517H63.6846ZM63.6846 0.808105V0.208105H63.0846V0.808105H63.6846ZM67.2129 0.808105H67.8129V0.208105H67.2129V0.808105ZM67.2129 21.1919V21.7919H67.8129V21.1919H67.2129ZM63.6846 21.1919L63.1284 21.4169L63.2801 21.7919H63.6846V21.1919ZM59.1768 10.0483L59.733 9.82334L58.5768 10.0483H59.1768ZM59.1768 21.1919V21.7919H59.7768V21.1919H59.1768ZM55.6484 21.1919H55.0484V21.7919H55.6484V21.1919ZM55.6484 0.808105V0.208105H55.0484V0.808105H55.6484ZM59.1768 0.808105L59.733 0.583104L59.5813 0.208105H59.1768V0.808105ZM88.1426 4.33643V4.93643H88.7426V4.33643H88.1426ZM82.4023 4.33643V3.73643H81.8023V4.33643H82.4023ZM82.4023 8.87158H81.8023V9.47158H82.4023V8.87158ZM87.4707 8.87158H88.0707V8.27158H87.4707V8.87158ZM87.4707 12.3999V12.9999H88.0707V12.3999H87.4707ZM82.4023 12.3999V11.7999H81.8023V12.3999H82.4023ZM82.4023 17.6636H81.8023V18.2636H82.4023V17.6636ZM88.1426 17.6636H88.7426V17.0636H88.1426V17.6636ZM88.1426 21.1919V21.7919H88.7426V21.1919H88.1426ZM78.874 21.1919H78.274V21.7919H78.874V21.1919ZM78.874 0.808105V0.208105H78.274V0.808105H78.874ZM88.1426 0.808105H88.7426V0.208105H88.1426V0.808105ZM106.345 11.9243L105.776 12.1149L106.347 13.8196L106.914 12.1136L106.345 11.9243ZM110.041 0.808105V0.208105H109.608L109.472 0.618789L110.041 0.808105ZM113.597 0.808105H114.197V0.208105H113.597V0.808105ZM113.597 21.1919V21.7919H114.197V21.1919H113.597ZM110.069 21.1919H109.469V21.7919H110.069V21.1919ZM110.069 10.0757H110.669L109.496 9.89811L110.069 10.0757ZM107.605 18.0278V18.6278H108.048L108.179 18.2054L107.605 18.0278ZM105.057 18.0278L104.484 18.2054L104.614 18.6278H105.057V18.0278ZM102.593 10.0757L103.166 9.89811L101.993 10.0757H102.593ZM102.593 21.1919V21.7919H103.193V21.1919H102.593ZM99.0654 21.1919H98.4654V21.7919H99.0654V21.1919ZM99.0654 0.808105V0.208105H98.4654V0.808105H99.0654ZM102.621 0.808105L103.19 0.617529L103.053 0.208105H102.621V0.808105ZM136.024 21.1919V21.7919H136.765L136.611 21.0677L136.024 21.1919ZM132.412 21.1919L131.822 21.3024L131.914 21.7919H132.412V21.1919ZM131.656 17.1597L132.246 17.0491L132.154 16.5597H131.656V17.1597ZM128.24 17.1597V16.5597H127.742L127.651 17.0491L128.24 17.1597ZM127.484 21.1919V21.7919H127.982L128.074 21.3024L127.484 21.1919ZM123.872 21.1919L123.285 21.0677L123.132 21.7919H123.872V21.1919ZM128.184 0.808105V0.208105H127.697L127.597 0.683942L128.184 0.808105ZM131.712 0.808105L132.299 0.683915L132.198 0.208105H131.712V0.808105ZM168.581 2.31982L169.005 1.89558L169.005 1.89556L168.581 2.31982ZM168.581 10.8882L169.005 11.3124V11.3124L168.581 10.8882ZM163.849 12.3999V11.7999H163.249V12.3999H163.849ZM163.849 21.1919V21.7919H164.449V21.1919H163.849ZM160.32 21.1919H159.72V21.7919H160.32V21.1919ZM160.32 0.808105V0.208105H159.72V0.808105H160.32ZM185.213 0.808105L185.213 0.208105H185.213V0.808105ZM188.881 2.31982L189.305 1.89557V1.89556L188.881 2.31982ZM189.749 9.73975L189.226 9.44623L189.223 9.45059L189.749 9.73975ZM188.041 11.5601L187.717 11.055L187.313 11.314L187.477 11.765L188.041 11.5601ZM191.541 21.1919V21.7919H192.397L192.105 20.987L191.541 21.1919ZM187.788 21.1919L187.223 21.3935L187.365 21.7919H187.788V21.1919ZM184.652 12.3999L185.217 12.1983L185.075 11.7999H184.652V12.3999ZM184.148 12.3999V11.7999H183.548V12.3999H184.148ZM184.148 21.1919V21.7919H184.748V21.1919H184.148ZM180.62 21.1919H180.02V21.7919H180.62V21.1919ZM180.62 0.808105V0.208105H180.02V0.808105H180.62ZM228.615 0.808105L228.615 0.208105H228.615V0.808105ZM232.255 2.31982L231.831 2.74411L231.835 2.74796L232.255 2.31982ZM232.255 19.6802L231.835 19.252L231.831 19.2559L232.255 19.6802ZM228.615 21.1919V21.7919H228.615L228.615 21.1919ZM223.463 21.1919H222.863V21.7919H223.463V21.1919ZM223.463 0.808105V0.208105H222.863V0.808105H223.463ZM298.088 4.33643V4.93643H298.688V4.33643H298.088ZM292.348 4.33643V3.73643H291.748V4.33643H292.348ZM292.348 8.87158H291.748V9.47158H292.348V8.87158ZM297.416 8.87158H298.016V8.27158H297.416V8.87158ZM297.416 12.3999V12.9999H298.016V12.3999H297.416ZM292.348 12.3999V11.7999H291.748V12.3999H292.348ZM292.348 17.6636H291.748V18.2636H292.348V17.6636ZM298.088 17.6636H298.688V17.0636H298.088V17.6636ZM298.088 21.1919V21.7919H298.688V21.1919H298.088ZM288.819 21.1919H288.219V21.7919H288.819V21.1919ZM288.819 0.808105V0.208105H288.219V0.808105H288.819ZM298.088 0.808105H298.688V0.208105H298.088V0.808105ZM313.603 0.808105V0.208105V0.808105ZM317.271 2.31982L317.695 1.89556V1.89556L317.271 2.31982ZM318.139 9.73975L317.615 9.44622L317.613 9.45059L318.139 9.73975ZM316.431 11.5601L316.107 11.0549L315.703 11.3139L315.867 11.765L316.431 11.5601ZM319.931 21.1919V21.7919H320.787L320.495 20.987L319.931 21.1919ZM316.179 21.1919L315.614 21.3935L315.756 21.7919H316.179V21.1919ZM313.042 12.3999L313.607 12.1983L313.465 11.7999H313.042V12.3999ZM312.538 12.3999V11.7999H311.938V12.3999H312.538ZM312.538 21.1919V21.7919H313.138V21.1919H312.538ZM309.011 21.1919H308.411V21.7919H309.011V21.1919ZM309.011 0.808105V0.208105H308.411V0.808105H309.011ZM368.735 21.1919V21.7919H369.335V21.1919H368.735ZM365.207 21.1919H364.607V21.7919H365.207V21.1919ZM365.207 9.47998V8.87998H364.607V9.47998H365.207ZM368.735 9.47998H369.335V8.87998H368.735V9.47998ZM387.701 11.9243L387.132 12.1149L387.703 13.8196L388.271 12.1136L387.701 11.9243ZM391.397 0.808105V0.208105H390.965L390.828 0.618789L391.397 0.808105ZM394.953 0.808105H395.553V0.208105H394.953V0.808105ZM394.953 21.1919V21.7919H395.553V21.1919H394.953ZM391.426 21.1919H390.826V21.7919H391.426V21.1919ZM391.426 10.0757H392.026L390.853 9.89805L391.426 10.0757ZM388.961 18.0278V18.6278H389.403L389.534 18.2055L388.961 18.0278ZM386.413 18.0278L385.84 18.2054L385.971 18.6278H386.413V18.0278ZM383.949 10.0757L384.522 9.89811L383.349 10.0757H383.949ZM383.949 21.1919V21.7919H384.549V21.1919H383.949ZM380.421 21.1919H379.821V21.7919H380.421V21.1919ZM380.421 0.808105V0.208105H379.821V0.808105H380.421ZM383.978 0.808105L384.546 0.617529L384.409 0.208105H383.978V0.808105ZM432.124 17.6636H431.524V18.2636H432.124V17.6636ZM436.911 17.6636H437.511V17.0636H436.911V17.6636ZM436.911 21.1919V21.7919H437.511V21.1919H436.911ZM428.596 21.1919H427.996V21.7919H428.596V21.1919ZM428.596 0.808105V0.208105H427.996V0.808105H428.596ZM432.124 0.808105H432.724V0.208105H432.124V0.808105ZM458.227 21.1919V21.7919H458.967L458.814 21.0677L458.227 21.1919ZM454.614 21.1919L454.025 21.3024L454.116 21.7919H454.614V21.1919ZM453.858 17.1597L454.448 17.0491L454.356 16.5597H453.858V17.1597ZM450.442 17.1597V16.5597H449.944L449.853 17.0491L450.442 17.1597ZM449.687 21.1919V21.7919H450.185L450.276 21.3024L449.687 21.1919ZM446.074 21.1919L445.487 21.0677L445.334 21.7919H446.074V21.1919ZM450.387 0.808105V0.208105H449.9L449.8 0.683915L450.387 0.808105ZM453.914 0.808105L454.501 0.683915L454.4 0.208105H453.914V0.808105ZM477.92 4.33643V4.93643H478.52V4.33643H477.92ZM474.42 4.33643V3.73643H473.82V4.33643H474.42ZM474.42 21.1919V21.7919H475.02V21.1919H474.42ZM470.892 21.1919H470.292V21.7919H470.892V21.1919ZM470.892 4.33643H471.492V3.73643H470.892V4.33643ZM467.392 4.33643H466.792V4.93643H467.392V4.33643ZM467.392 0.808105V0.208105H466.792V0.808105H467.392ZM477.92 0.808105H478.52V0.208105H477.92V0.808105ZM514.825 0.808105V0.208105V0.808105ZM518.493 2.31982L518.917 1.89556V1.89556L518.493 2.31982ZM519.361 9.73975L518.838 9.44622L518.836 9.45059L519.361 9.73975ZM517.653 11.5601L517.329 11.0549L516.926 11.3139L517.089 11.765L517.653 11.5601ZM521.153 21.1919V21.7919H522.01L521.717 20.987L521.153 21.1919ZM517.401 21.1919L516.836 21.3935L516.978 21.7919H517.401V21.1919ZM514.265 12.3999L514.83 12.1983L514.688 11.7999H514.265V12.3999ZM513.761 12.3999V11.7999H513.161V12.3999H513.761ZM513.761 21.1919V21.7919H514.361V21.1919H513.761ZM510.233 21.1919H509.633V21.7919H510.233V21.1919ZM510.233 0.808105V0.208105H509.633V0.808105H510.233ZM206.754 4.05615L206.754 3.45615H206.754V4.05615ZM205.605 4.53174L205.181 4.10745L205.181 4.10747L205.605 4.53174ZM205.605 17.4683L205.181 17.8925L205.181 17.8926L205.605 17.4683ZM206.754 17.9438V18.5438H206.754L206.754 17.9438ZM207.93 17.4683L208.354 17.8925L208.354 17.8925L207.93 17.4683ZM207.93 4.53174L208.354 4.10747L208.354 4.10746L207.93 4.53174ZM493.523 4.05615V3.45615L493.523 3.45615L493.523 4.05615ZM492.376 4.53174L491.952 4.10742L491.952 4.10747L492.376 4.53174ZM492.376 17.4683L491.952 17.8925L491.952 17.8926L492.376 17.4683ZM493.523 17.9438L493.523 18.5438H493.523V17.9438ZM494.7 17.4683L495.124 17.8925L495.124 17.8925L494.7 17.4683ZM494.7 4.53174L495.124 4.10749L495.124 4.10747L494.7 4.53174ZM226.991 17.6636H226.391V18.2636H226.991V17.6636ZM228.615 17.6636V18.2636H228.615L228.615 17.6636ZM229.791 17.188L230.215 17.6123L230.215 17.6122L229.791 17.188ZM229.791 4.81201L230.215 4.38779L230.215 4.38775L229.791 4.81201ZM228.615 4.33643L228.615 3.73643H228.615V4.33643ZM226.991 4.33643V3.73643H226.391V4.33643H226.991ZM128.884 13.6323L128.294 13.5229L128.162 14.2323H128.884V13.6323ZM131.012 13.6323V14.2323H131.733L131.602 13.523L131.012 13.6323ZM129.948 7.89209L130.538 7.78279L129.358 7.78269L129.948 7.89209ZM451.086 13.6323L450.496 13.5229L450.364 14.2323H451.086V13.6323ZM453.214 13.6323V14.2323H453.935L453.804 13.523L453.214 13.6323ZM452.15 7.89209L452.74 7.78279L451.56 7.78269L452.15 7.89209ZM270.76 12.1919V12.7919H271.36V12.1919H270.76ZM267.232 12.1919H266.632V12.7919H267.232V12.1919ZM267.232 11.1919V10.5919H266.632V11.1919H267.232ZM270.76 11.1919H271.36V10.5919H270.76V11.1919ZM270.76 10.1919V10.7919H271.36V10.1919H270.76ZM267.232 10.1919H266.632V10.7919H267.232V10.1919ZM267.232 9.19189V8.59189H266.632V9.19189H267.232ZM270.76 9.19189H271.36V8.59189H270.76V9.19189ZM163.849 8.87158H163.249V9.47158H163.849V8.87158ZM166.089 8.396L166.513 8.82026L166.513 8.82022L166.089 8.396ZM166.089 4.81201L166.513 4.3878L166.513 4.38775L166.089 4.81201ZM163.849 4.33643V3.73643H163.249V4.33643H163.849ZM184.148 8.87158H183.548V9.47158H184.148V8.87158ZM185.213 8.87158V9.47158H185.213L185.213 8.87158ZM186.389 8.396L186.813 8.82026V8.82025L186.389 8.396ZM186.389 4.81201L186.813 4.38777L186.813 4.38775L186.389 4.81201ZM185.213 4.33643L185.213 3.73643H185.213V4.33643ZM184.148 4.33643V3.73643H183.548V4.33643H184.148ZM312.538 8.87158H311.938V9.47158H312.538V8.87158ZM313.603 8.87158V9.47158H313.603L313.603 8.87158ZM314.778 8.396L315.203 8.82028V8.82026L314.778 8.396ZM314.778 4.81201L315.203 4.38775V4.38774L314.778 4.81201ZM313.603 4.33643L313.603 3.73643H313.603V4.33643ZM312.538 4.33643V3.73643H311.938V4.33643H312.538ZM513.761 8.87158H513.161V9.47158H513.761V8.87158ZM514.825 8.87158V9.47158H514.825L514.825 8.87158ZM516.001 8.396L516.425 8.82028V8.82026L516.001 8.396ZM516.001 4.81201L516.425 4.38775V4.38774L516.001 4.81201ZM514.825 4.33643L514.825 3.73643H514.825V4.33643ZM513.761 4.33643V3.73643H513.161V4.33643H513.761ZM43.9629 8.47998V9.07998H44.5629V8.47998H43.9629ZM40.4346 8.47998H39.8346V9.07998H40.4346V8.47998ZM40.4346 7.47998V6.87998H39.8346V7.47998H40.4346ZM43.9629 7.47998H44.5629V6.87998H43.9629V7.47998ZM368.735 8.47998V9.07998H369.335V8.47998H368.735ZM365.207 8.47998H364.607V9.07998H365.207V8.47998ZM365.207 7.47998V6.87998H364.607V7.47998H365.207ZM368.735 7.47998H369.335V6.87998H368.735V7.47998ZM272.384 0.527832V-0.072168H272.384L272.384 0.527832ZM276.052 2.03955L276.476 1.61529L276.476 1.61525L276.052 2.03955ZM277.564 6.604V7.204H278.164V6.604H277.564ZM274.036 6.604H273.436V7.204H274.036V6.604ZM273.56 4.53174L273.984 4.10747L273.984 4.10736L273.56 4.53174ZM272.384 4.05615V3.45615L272.384 3.45615L272.384 4.05615ZM271.236 4.53174L270.812 4.10739L270.812 4.10747L271.236 4.53174ZM270.76 8.19189V8.79189H271.36V8.19189H270.76ZM267.232 8.19189H266.632V8.79189H267.232V8.19189ZM268.744 2.03955L268.32 1.61526L268.32 1.61529L268.744 2.03955ZM43.9629 6.47998V7.07998H44.5629V6.47998H43.9629ZM40.4346 6.47998H39.8346V7.07998H40.4346V6.47998ZM40.4346 5.47998V4.87998H39.8346V5.47998H40.4346ZM43.9629 5.47998H44.5629V4.87998H43.9629V5.47998ZM368.735 6.47998V7.07998H369.335V6.47998H368.735ZM365.207 6.47998H364.607V7.07998H365.207V6.47998ZM365.207 5.47998V4.87998H364.607V5.47998H365.207ZM368.735 5.47998H369.335V4.87998H368.735V5.47998ZM43.9629 4.47998V5.07998H44.5629V4.47998H43.9629ZM40.4346 4.47998H39.8346V5.07998H40.4346V4.47998ZM40.4346 0.808105V0.208105H39.8346V0.808105H40.4346ZM43.9629 0.808105H44.5629V0.208105H43.9629V0.808105ZM368.735 4.47998V5.07998H369.335V4.47998H368.735ZM365.207 4.47998H364.607V5.07998H365.207V4.47998ZM365.207 0.808105V0.208105H364.607V0.808105H365.207ZM368.735 0.808105H369.335V0.208105H368.735V0.808105ZM23.999 0.527832L23.999 1.12783C25.2786 1.12787 26.3484 1.56957 27.2427 2.46383L27.667 2.03955L28.0912 1.61527C26.9697 0.493802 25.5938 -0.0721241 23.999 -0.072168L23.999 0.527832ZM27.667 2.03955L27.2427 2.46381C28.1387 3.35979 28.5787 4.42134 28.5787 5.68018H29.1787H29.7787C29.7787 4.10168 29.2113 2.73531 28.0913 1.61529L27.667 2.03955ZM29.1787 5.68018H28.5787V6.604H29.1787H29.7787V5.68018H29.1787ZM29.1787 6.604V6.004H25.6504V6.604V7.204H29.1787V6.604ZM25.6504 6.604H26.2504V5.68018H25.6504H25.0504V6.604H25.6504ZM25.6504 5.68018H26.2504C26.2504 5.07331 26.0291 4.53752 25.5991 4.10747L25.1748 4.53174L24.7505 4.956C24.9552 5.16063 25.0504 5.39104 25.0504 5.68018H25.6504ZM25.1748 4.53174L25.599 4.10743C25.1641 3.67264 24.6173 3.4562 23.9991 3.45615L23.999 4.05615L23.999 4.65615C24.3138 4.65618 24.5509 4.75644 24.7506 4.95605L25.1748 4.53174ZM23.999 4.05615V3.45615C23.3922 3.45615 22.8564 3.67743 22.4263 4.10747L22.8506 4.53174L23.2749 4.956C23.4795 4.75138 23.7099 4.65615 23.999 4.65615V4.05615ZM22.8506 4.53174L22.4263 4.10748C21.9963 4.53751 21.775 5.07331 21.775 5.68018H22.375H22.975C22.975 5.39105 23.0702 5.16063 23.2749 4.956L22.8506 4.53174ZM22.375 5.68018H21.775V16.3198H22.375H22.975V5.68018H22.375ZM22.375 16.3198H21.775C21.775 16.9267 21.9963 17.4625 22.4263 17.8925L22.8506 17.4683L23.2748 17.044C23.0702 16.8394 22.975 16.609 22.975 16.3198H22.375ZM22.8506 17.4683L22.4263 17.8925C22.8564 18.3226 23.3922 18.5438 23.999 18.5438V17.9438V17.3438C23.7099 17.3438 23.4795 17.2486 23.2748 17.044L22.8506 17.4683ZM23.999 17.9438L23.9991 18.5438C24.6173 18.5438 25.1641 18.3273 25.599 17.8926L25.1748 17.4683L24.7506 17.0439C24.5509 17.2436 24.3138 17.3438 23.999 17.3438L23.999 17.9438ZM25.1748 17.4683L25.5991 17.8925C26.0291 17.4625 26.2504 16.9267 26.2504 16.3198H25.6504H25.0504C25.0504 16.609 24.9552 16.8394 24.7505 17.044L25.1748 17.4683ZM25.6504 16.3198H26.2504V15.396H25.6504H25.0504V16.3198H25.6504ZM25.6504 15.396V15.996H29.1787V15.396V14.796H25.6504V15.396ZM29.1787 15.396H28.5787V16.3198H29.1787H29.7787V15.396H29.1787ZM29.1787 16.3198H28.5787C28.5787 17.5787 28.1387 18.6402 27.2427 19.5362L27.667 19.9604L28.0913 20.3847C29.2113 19.2647 29.7787 17.8983 29.7787 16.3198H29.1787ZM27.667 19.9604L27.2427 19.5362C26.3484 20.4304 25.2786 20.8721 23.999 20.8722L23.999 21.4722L23.999 22.0722C25.5938 22.0721 26.9697 21.5062 28.0912 20.3847L27.667 19.9604ZM23.999 21.4722V20.8722C22.7402 20.8722 21.6786 20.4322 20.7827 19.5362L20.3584 19.9604L19.9341 20.3847C21.0542 21.5047 22.4205 22.0722 23.999 22.0722V21.4722ZM20.3584 19.9604L20.7827 19.5362C19.8867 18.6402 19.4467 17.5787 19.4467 16.3198H18.8467H18.2467C18.2467 17.8983 18.8141 19.2647 19.9341 20.3847L20.3584 19.9604ZM18.8467 16.3198H19.4467V5.68018H18.8467H18.2467V16.3198H18.8467ZM18.8467 5.68018H19.4467C19.4467 4.42135 19.8867 3.35979 20.7827 2.46381L20.3584 2.03955L19.9341 1.61529C18.8141 2.73531 18.2467 4.10168 18.2467 5.68018H18.8467ZM20.3584 2.03955L20.7827 2.46381C21.6786 1.56784 22.7402 1.12783 23.999 1.12783V0.527832V-0.072168C22.4205 -0.072168 21.0542 0.49526 19.9341 1.61529L20.3584 2.03955ZM206.754 0.527832L206.754 1.12783C208.034 1.12791 209.103 1.56957 209.998 2.46382L210.422 2.03955L210.846 1.61528C209.725 0.493764 208.349 -0.0720727 206.754 -0.072168L206.754 0.527832ZM210.422 2.03955L209.998 2.46381C210.894 3.35979 211.334 4.42134 211.334 5.68018H211.934H212.534C212.534 4.10168 211.966 2.73531 210.846 1.61529L210.422 2.03955ZM211.934 5.68018H211.334V16.3198H211.934H212.534V5.68018H211.934ZM211.934 16.3198H211.334C211.334 17.5787 210.894 18.6402 209.998 19.5362L210.422 19.9604L210.846 20.3847C211.966 19.2647 212.534 17.8983 212.534 16.3198H211.934ZM210.422 19.9604L209.998 19.5362C209.103 20.4304 208.033 20.8721 206.754 20.8722L206.754 21.4722L206.754 22.0722C208.349 22.0721 209.725 21.5062 210.846 20.3847L210.422 19.9604ZM206.754 21.4722V20.8722C205.495 20.8722 204.434 20.4321 203.538 19.5362L203.113 19.9604L202.689 20.3847C203.809 21.5047 205.175 22.0722 206.754 22.0722V21.4722ZM203.113 19.9604L203.538 19.5362C202.642 18.6402 202.202 17.5787 202.202 16.3198H201.602H201.002C201.002 17.8983 201.569 19.2647 202.689 20.3847L203.113 19.9604ZM201.602 16.3198H202.202V5.68018H201.602H201.002V16.3198H201.602ZM201.602 5.68018H202.202C202.202 4.42134 202.642 3.35979 203.538 2.46381L203.113 2.03955L202.689 1.61529C201.569 2.73531 201.002 4.10168 201.002 5.68018H201.602ZM203.113 2.03955L203.538 2.46382C204.434 1.56789 205.495 1.12783 206.754 1.12783V0.527832V-0.072168C205.175 -0.072168 203.809 0.495324 202.689 1.61528L203.113 2.03955ZM248.877 16.3481L248.277 16.3482C248.277 16.9439 248.504 17.468 248.928 17.8925L249.353 17.4683L249.777 17.044C249.567 16.8339 249.477 16.6109 249.477 16.3481L248.877 16.3481ZM249.353 17.4683L248.928 17.8925C249.358 18.3225 249.894 18.5438 250.501 18.5438V17.9438V17.3438C250.212 17.3438 249.981 17.2486 249.777 17.044L249.353 17.4683ZM250.501 17.9438L250.501 18.5438C251.109 18.5438 251.651 18.3436 252.088 17.9325L251.677 17.4956L251.266 17.0587C251.068 17.2448 250.826 17.3438 250.501 17.3438L250.501 17.9438ZM251.677 17.4956L252.101 17.9198C252.531 17.4902 252.752 16.9553 252.752 16.3482L252.152 16.3481L251.552 16.3481C251.552 16.6367 251.457 16.8665 251.252 17.0714L251.677 17.4956ZM252.152 16.3481H252.752V0.808105H252.152H251.552V16.3481H252.152ZM252.152 0.808105V1.40811H255.681V0.808105V0.208105H252.152V0.808105ZM255.681 0.808105H255.081V16.3481H255.681H256.281V0.808105H255.681ZM255.681 16.3481L255.081 16.3481C255.081 17.6067 254.641 18.6676 253.745 19.5636L254.169 19.9878L254.593 20.412C255.713 19.2922 256.281 17.9266 256.281 16.3482L255.681 16.3481ZM254.169 19.9878L253.749 19.5596C252.855 20.4367 251.784 20.8721 250.501 20.8722L250.501 21.4722L250.501 22.0722C252.092 22.0721 253.467 21.5175 254.589 20.416L254.169 19.9878ZM250.501 21.4722V20.8722C249.239 20.8722 248.176 20.4383 247.281 19.5596L246.86 19.9878L246.44 20.416C247.561 21.516 248.926 22.0722 250.501 22.0722V21.4722ZM246.86 19.9878L247.285 19.5636C246.389 18.6676 245.949 17.6066 245.949 16.3481L245.349 16.3481L244.749 16.3482C244.749 17.9266 245.316 19.2922 246.436 20.412L246.86 19.9878ZM245.349 16.3481H245.949V0.808105H245.349H244.749V16.3481H245.349ZM245.349 0.808105V1.40811H248.877V0.808105V0.208105H245.349V0.808105ZM248.877 0.808105H248.277V16.3481H248.877H249.477V0.808105H248.877ZM270.76 16.3198H270.16C270.16 16.9276 270.383 17.4632 270.812 17.8925L271.236 17.4683L271.661 17.044C271.455 16.8387 271.36 16.608 271.36 16.3198H270.76ZM271.236 17.4683L270.812 17.8926C271.242 18.322 271.777 18.5438 272.384 18.5438L272.384 17.9438L272.384 17.3438C272.095 17.3438 271.865 17.2487 271.66 17.0439L271.236 17.4683ZM272.384 17.9438V18.5438C273.002 18.5438 273.549 18.3272 273.984 17.8926L273.56 17.4683L273.135 17.0439C272.936 17.2435 272.698 17.3438 272.384 17.3438V17.9438ZM273.56 17.4683L273.984 17.8925C274.413 17.4632 274.636 16.9276 274.636 16.3198H274.036H273.436C273.436 16.608 273.341 16.8387 273.135 17.044L273.56 17.4683ZM274.036 16.3198H274.636V15.396H274.036H273.436V16.3198H274.036ZM274.036 15.396V15.996H277.564V15.396V14.796H274.036V15.396ZM277.564 15.396H276.964V16.3198H277.564H278.164V15.396H277.564ZM277.564 16.3198H276.964C276.964 17.5784 276.524 18.64 275.628 19.5362L276.052 19.9604L276.476 20.3847C277.596 19.2649 278.164 17.8986 278.164 16.3198H277.564ZM276.052 19.9604L275.628 19.5361C274.733 20.4303 273.663 20.8722 272.384 20.8722V21.4722V22.0722C273.979 22.0722 275.354 21.5061 276.476 20.3848L276.052 19.9604ZM272.384 21.4722L272.384 20.8722C271.125 20.8721 270.064 20.432 269.168 19.5362L268.744 19.9604L268.32 20.3847C269.44 21.5044 270.805 22.0721 272.384 22.0722L272.384 21.4722ZM268.744 19.9604L269.168 19.5362C268.272 18.6402 267.832 17.5787 267.832 16.3198H267.232H266.632C266.632 17.8983 267.2 19.2647 268.32 20.3847L268.744 19.9604ZM267.232 16.3198H267.832V13.1919H267.232H266.632V16.3198H267.232ZM267.232 13.1919V13.7919H270.76V13.1919V12.5919H267.232V13.1919ZM270.76 13.1919H270.16V16.3198H270.76H271.36V13.1919H270.76ZM348.818 0.527832V1.12783C350.098 1.12784 351.168 1.56957 352.062 2.46384L352.486 2.03955L352.911 1.61527C351.789 0.493825 350.413 -0.0721554 348.818 -0.072168V0.527832ZM352.486 2.03955L352.062 2.46381C352.958 3.35979 353.398 4.42134 353.398 5.68018H353.998H354.598C354.598 4.10168 354.031 2.73531 352.911 1.61529L352.486 2.03955ZM353.998 5.68018H353.398V6.604H353.998H354.598V5.68018H353.998ZM353.998 6.604V6.004H350.471V6.604V7.204H353.998V6.604ZM350.471 6.604H351.071V5.68018H350.471H349.871V6.604H350.471ZM350.471 5.68018H351.071C351.071 5.07237 350.848 4.53685 350.418 4.10747L349.994 4.53174L349.57 4.956C349.775 5.16129 349.871 5.39198 349.871 5.68018H350.471ZM349.994 4.53174L350.418 4.10741C349.983 3.67269 349.437 3.45617 348.818 3.45615V4.05615V4.65615C349.133 4.65616 349.37 4.75642 349.57 4.95607L349.994 4.53174ZM348.818 4.05615V3.45615C348.211 3.45615 347.676 3.67743 347.246 4.10747L347.67 4.53174L348.094 4.956C348.299 4.75138 348.529 4.65615 348.818 4.65615V4.05615ZM347.67 4.53174L347.246 4.1075C346.816 4.5375 346.594 5.07332 346.594 5.68018H347.194H347.794C347.794 5.3911 347.89 5.16062 348.094 4.95598L347.67 4.53174ZM347.194 5.68018H346.594V6.01611H347.194H347.794V5.68018H347.194ZM347.194 6.01611L346.594 6.01614C346.594 7.02412 346.974 7.87577 347.73 8.51756L348.118 8.06006L348.506 7.60256C348.031 7.19908 347.794 6.68795 347.794 6.01609L347.194 6.01611ZM348.118 8.06006L347.728 8.51562L351.452 11.708L351.843 11.2524L352.233 10.7969L348.509 7.6045L348.118 8.06006ZM351.843 11.2524L351.446 11.7021C352.756 12.8597 353.398 14.2741 353.398 15.9839L353.998 15.9839L354.598 15.9839C354.598 13.9235 353.803 12.1837 352.24 10.8027L351.843 11.2524ZM353.998 15.9839H353.398V16.3198H353.998H354.598V15.9839H353.998ZM353.998 16.3198H353.398C353.398 17.5787 352.958 18.6402 352.062 19.5362L352.486 19.9604L352.911 20.3847C354.031 19.2647 354.598 17.8983 354.598 16.3198H353.998ZM352.486 19.9604L352.062 19.5362C351.168 20.4304 350.098 20.8722 348.818 20.8722V21.4722V22.0722C350.413 22.0722 351.789 21.5062 352.911 20.3847L352.486 19.9604ZM348.818 21.4722V20.8722C347.56 20.8722 346.499 20.432 345.603 19.5361L345.179 19.9604L344.754 20.3848C345.874 21.5043 347.24 22.0722 348.818 22.0722V21.4722ZM345.179 19.9604L345.603 19.5362C344.707 18.64 344.266 17.5784 344.266 16.3198H343.666H343.066C343.066 17.8986 343.635 19.2649 344.754 20.3847L345.179 19.9604ZM343.666 16.3198H344.266V15.396H343.666H343.066V16.3198H343.666ZM343.666 15.396V15.996H347.194V15.396V14.796H343.666V15.396ZM347.194 15.396H346.594V16.3198H347.194H347.794V15.396H347.194ZM347.194 16.3198H346.594C346.594 16.9267 346.816 17.4625 347.246 17.8925L347.67 17.4683L348.094 17.044C347.89 16.8394 347.794 16.6089 347.794 16.3198H347.194ZM347.67 17.4683L347.246 17.8925C347.676 18.3226 348.211 18.5438 348.818 18.5438V17.9438V17.3438C348.529 17.3438 348.299 17.2486 348.094 17.044L347.67 17.4683ZM348.818 17.9438V18.5438C349.437 18.5438 349.983 18.3273 350.418 17.8926L349.994 17.4683L349.57 17.0439C349.37 17.2436 349.133 17.3438 348.818 17.3438V17.9438ZM349.994 17.4683L350.418 17.8925C350.848 17.4632 351.071 16.9276 351.071 16.3198H350.471H349.871C349.871 16.608 349.775 16.8387 349.57 17.044L349.994 17.4683ZM350.471 16.3198H351.071V15.9839H350.471H349.871V16.3198H350.471ZM350.471 15.9839L351.071 15.9839C351.071 14.9753 350.69 14.1239 349.934 13.4824L349.546 13.9399L349.158 14.3974C349.634 14.8013 349.871 15.3125 349.871 15.9839L350.471 15.9839ZM349.546 13.9399L349.936 13.4844L346.213 10.292L345.822 10.7476L345.432 11.2031L349.155 14.3955L349.546 13.9399ZM345.822 10.7476L346.219 10.2978C344.909 9.14015 344.266 7.72575 344.266 6.0161L343.666 6.01611L343.066 6.01612C343.066 8.07682 343.862 9.81644 345.425 11.1973L345.822 10.7476ZM343.666 6.01611H344.266V5.68018H343.666H343.066V6.01611H343.666ZM343.666 5.68018H344.266C344.266 4.42163 344.707 3.36 345.603 2.46381L345.179 2.03955L344.754 1.61529C343.635 2.7351 343.066 4.10138 343.066 5.68018H343.666ZM345.179 2.03955L345.603 2.46386C346.499 1.568 347.56 1.12783 348.818 1.12783V0.527832V-0.072168C347.24 -0.072168 345.874 0.495656 344.754 1.61525L345.179 2.03955ZM410.128 16.3481L409.528 16.3482C409.528 16.9449 409.756 17.4687 410.18 17.8925L410.604 17.4683L411.029 17.044C410.818 16.8332 410.728 16.61 410.728 16.3481L410.128 16.3481ZM410.604 17.4683L410.18 17.8926C410.61 18.322 411.145 18.5437 411.752 18.5438L411.752 17.9438L411.752 17.3438C411.464 17.3438 411.233 17.2487 411.029 17.0439L410.604 17.4683ZM411.752 17.9438V18.5438C412.36 18.5438 412.903 18.3438 413.34 17.9325L412.929 17.4956L412.517 17.0587C412.32 17.2447 412.078 17.3438 411.752 17.3438V17.9438ZM412.929 17.4956L413.353 17.9197C413.782 17.4902 414.004 16.9553 414.004 16.3482L413.404 16.3481L412.804 16.3481C412.804 16.6365 412.709 16.8666 412.504 17.0715L412.929 17.4956ZM413.404 16.3481H414.004V0.808105H413.404H412.804V16.3481H413.404ZM413.404 0.808105V1.40811H416.933V0.808105V0.208105H413.404V0.808105ZM416.933 0.808105H416.333V16.3481H416.933H417.533V0.808105H416.933ZM416.933 16.3481L416.333 16.3481C416.333 17.6065 415.892 18.6673 414.996 19.5635L415.42 19.9878L415.844 20.4121C416.964 19.2924 417.533 17.927 417.533 16.3482L416.933 16.3481ZM415.42 19.9878L415 19.5596C414.106 20.4367 413.035 20.8722 411.752 20.8722V21.4722V22.0722C413.343 22.0722 414.718 21.5175 415.84 20.416L415.42 19.9878ZM411.752 21.4722L411.752 20.8722C410.49 20.8721 409.428 20.4383 408.533 19.5596L408.112 19.9878L407.692 20.416C408.813 21.5158 410.177 22.0721 411.752 22.0722L411.752 21.4722ZM408.112 19.9878L408.537 19.5635C407.641 18.6675 407.201 17.6068 407.201 16.3481L406.601 16.3481L406.001 16.3482C406.001 17.9267 406.568 19.2922 407.688 20.4121L408.112 19.9878ZM406.601 16.3481H407.201V0.808105H406.601H406.001V16.3481H406.601ZM406.601 0.808105V1.40811H410.128V0.808105V0.208105H406.601V0.808105ZM410.128 0.808105H409.528V16.3481H410.128H410.728V0.808105H410.128ZM493.523 0.527832V1.12783C494.803 1.12783 495.873 1.5697 496.767 2.46386L497.191 2.03955L497.616 1.61524C496.494 0.493987 495.118 -0.072168 493.523 -0.072168V0.527832ZM497.191 2.03955L496.767 2.46381C497.663 3.36 498.104 4.42163 498.104 5.68018H498.704H499.304C499.304 4.10138 498.735 2.7351 497.616 1.61529L497.191 2.03955ZM498.704 5.68018H498.104V16.3198H498.704H499.304V5.68018H498.704ZM498.704 16.3198H498.104C498.104 17.5784 497.663 18.64 496.767 19.5362L497.191 19.9604L497.616 20.3847C498.735 19.2649 499.304 17.8986 499.304 16.3198H498.704ZM497.191 19.9604L496.767 19.5361C495.873 20.4303 494.803 20.8722 493.523 20.8722V21.4722V22.0722C495.118 22.0722 496.494 21.506 497.616 20.3848L497.191 19.9604ZM493.523 21.4722L493.523 20.8722C492.265 20.8721 491.204 20.432 490.308 19.5362L489.884 19.9604L489.46 20.3847C490.579 21.5044 491.945 22.0721 493.523 22.0722L493.523 21.4722ZM489.884 19.9604L490.308 19.5362C489.412 18.6402 488.972 17.5787 488.972 16.3198H488.372H487.772C487.772 17.8983 488.34 19.2647 489.46 20.3847L489.884 19.9604ZM488.372 16.3198H488.972V5.68018H488.372H487.772V16.3198H488.372ZM488.372 5.68018H488.972C488.972 4.42134 489.412 3.35979 490.308 2.46381L489.884 2.03955L489.46 1.61529C488.34 2.73531 487.772 4.10168 487.772 5.68018H488.372ZM489.884 2.03955L490.308 2.46383C491.204 1.56798 492.265 1.12792 493.523 1.12783L493.523 0.527832L493.523 -0.072168C491.945 -0.0720598 490.579 0.495559 489.46 1.61527L489.884 2.03955ZM43.9629 21.1919V20.5919H40.4346V21.1919V21.7919H43.9629V21.1919ZM40.4346 21.1919H41.0346V9.47998H40.4346H39.8346V21.1919H40.4346ZM40.4346 9.47998V10.08H43.9629V9.47998V8.87998H40.4346V9.47998ZM43.9629 9.47998H43.3629V21.1919H43.9629H44.5629V9.47998H43.9629ZM63.6846 11.9517H64.2846V0.808105H63.6846H63.0846V11.9517H63.6846ZM63.6846 0.808105V1.40811H67.2129V0.808105V0.208105H63.6846V0.808105ZM67.2129 0.808105H66.6129V21.1919H67.2129H67.8129V0.808105H67.2129ZM67.2129 21.1919V20.5919H63.6846V21.1919V21.7919H67.2129V21.1919ZM63.6846 21.1919L64.2408 20.9669L59.733 9.82334L59.1768 10.0483L58.6205 10.2733L63.1284 21.4169L63.6846 21.1919ZM59.1768 10.0483H58.5768V21.1919H59.1768H59.7768V10.0483H59.1768ZM59.1768 21.1919V20.5919H55.6484V21.1919V21.7919H59.1768V21.1919ZM55.6484 21.1919H56.2484V0.808105H55.6484H55.0484V21.1919H55.6484ZM55.6484 0.808105V1.40811H59.1768V0.808105V0.208105H55.6484V0.808105ZM59.1768 0.808105L58.6205 1.03311L63.1284 12.1767L63.6846 11.9517L64.2408 11.7267L59.733 0.583104L59.1768 0.808105ZM88.1426 4.33643V3.73643H82.4023V4.33643V4.93643H88.1426V4.33643ZM82.4023 4.33643H81.8023V8.87158H82.4023H83.0023V4.33643H82.4023ZM82.4023 8.87158V9.47158H87.4707V8.87158V8.27158H82.4023V8.87158ZM87.4707 8.87158H86.8707V12.3999H87.4707H88.0707V8.87158H87.4707ZM87.4707 12.3999V11.7999H82.4023V12.3999V12.9999H87.4707V12.3999ZM82.4023 12.3999H81.8023V17.6636H82.4023H83.0023V12.3999H82.4023ZM82.4023 17.6636V18.2636H88.1426V17.6636V17.0636H82.4023V17.6636ZM88.1426 17.6636H87.5426V21.1919H88.1426H88.7426V17.6636H88.1426ZM88.1426 21.1919V20.5919H78.874V21.1919V21.7919H88.1426V21.1919ZM78.874 21.1919H79.474V0.808105H78.874H78.274V21.1919H78.874ZM78.874 0.808105V1.40811H88.1426V0.808105V0.208105H78.874V0.808105ZM88.1426 0.808105H87.5426V4.33643H88.1426H88.7426V0.808105H88.1426ZM106.345 11.9243L106.914 12.1136L110.61 0.997422L110.041 0.808105L109.472 0.618789L105.775 11.735L106.345 11.9243ZM110.041 0.808105V1.40811H113.597V0.808105V0.208105H110.041V0.808105ZM113.597 0.808105H112.997V21.1919H113.597H114.197V0.808105H113.597ZM113.597 21.1919V20.5919H110.069V21.1919V21.7919H113.597V21.1919ZM110.069 21.1919H110.669V10.0757H110.069H109.469V21.1919H110.069ZM110.069 10.0757L109.496 9.89811L107.032 17.8503L107.605 18.0278L108.179 18.2054L110.642 10.2533L110.069 10.0757ZM107.605 18.0278V17.4278H105.057V18.0278V18.6278H107.605V18.0278ZM105.057 18.0278L105.63 17.8503L103.166 9.89811L102.593 10.0757L102.02 10.2533L104.484 18.2054L105.057 18.0278ZM102.593 10.0757H101.993V21.1919H102.593H103.193V10.0757H102.593ZM102.593 21.1919V20.5919H99.0654V21.1919V21.7919H102.593V21.1919ZM99.0654 21.1919H99.6654V0.808105H99.0654H98.4654V21.1919H99.0654ZM99.0654 0.808105V1.40811H102.621V0.808105V0.208105H99.0654V0.808105ZM102.621 0.808105L102.052 0.998682L105.776 12.1149L106.345 11.9243L106.914 11.7337L103.19 0.617529L102.621 0.808105ZM136.024 21.1919V20.5919H132.412V21.1919V21.7919H136.024V21.1919ZM132.412 21.1919L133.002 21.0813L132.246 17.0491L131.656 17.1597L131.067 17.2702L131.822 21.3024L132.412 21.1919ZM131.656 17.1597V16.5597H128.24V17.1597V17.7597H131.656V17.1597ZM128.24 17.1597L127.651 17.0491L126.895 21.0813L127.484 21.1919L128.074 21.3024L128.83 17.2702L128.24 17.1597ZM127.484 21.1919V20.5919H123.872V21.1919V21.7919H127.484V21.1919ZM123.872 21.1919L124.459 21.3161L128.771 0.932269L128.184 0.808105L127.597 0.683942L123.285 21.0677L123.872 21.1919ZM128.184 0.808105V1.40811H131.712V0.808105V0.208105H128.184V0.808105ZM131.712 0.808105L131.125 0.932296L135.437 21.3161L136.024 21.1919L136.611 21.0677L132.299 0.683915L131.712 0.808105ZM164.912 0.808105V1.40811C166.192 1.40811 167.262 1.8498 168.157 2.74409L168.581 2.31982L169.005 1.89556C167.884 0.773851 166.507 0.208105 164.912 0.208105V0.808105ZM168.581 2.31982L168.157 2.74407C169.053 3.64003 169.493 4.70171 169.493 5.96045H170.093H170.693C170.693 4.38201 170.125 3.01555 169.005 1.89558L168.581 2.31982ZM170.093 5.96045H169.493V7.24756H170.093H170.693V5.96045H170.093ZM170.093 7.24756H169.493C169.493 8.50632 169.053 9.56797 168.157 10.4639L168.581 10.8882L169.005 11.3124C170.125 10.1925 170.693 8.82601 170.693 7.24756H170.093ZM168.581 10.8882L168.157 10.4639C167.262 11.3582 166.192 11.7999 164.912 11.7999V12.3999V12.9999C166.507 12.9999 167.884 12.4342 169.005 11.3124L168.581 10.8882ZM164.912 12.3999V11.7999H163.849V12.3999V12.9999H164.912V12.3999ZM163.849 12.3999H163.249V21.1919H163.849H164.449V12.3999H163.849ZM163.849 21.1919V20.5919H160.32V21.1919V21.7919H163.849V21.1919ZM160.32 21.1919H160.92V0.808105H160.32H159.72V21.1919H160.32ZM160.32 0.808105V1.40811H164.912V0.808105V0.208105H160.32V0.808105ZM185.213 0.808105L185.213 1.40811C186.493 1.40817 187.562 1.8498 188.457 2.74409L188.881 2.31982L189.305 1.89556C188.184 0.773995 186.808 0.208189 185.213 0.208105L185.213 0.808105ZM188.881 2.31982L188.457 2.74408C189.353 3.64005 189.793 4.70165 189.793 5.96045H190.393H190.993C190.993 4.38198 190.425 3.01557 189.305 1.89557L188.881 2.31982ZM190.393 5.96045H189.793V7.24756H190.393H190.993V5.96045H190.393ZM190.393 7.24756H189.793C189.793 8.04307 189.603 8.77277 189.226 9.44624L189.749 9.73975L190.272 10.0333C190.753 9.17627 190.993 8.24376 190.993 7.24756H190.393ZM189.749 9.73975L189.223 9.45059C188.862 10.1082 188.362 10.6415 187.717 11.055L188.041 11.5601L188.365 12.0652C189.176 11.5453 189.815 10.8645 190.275 10.0289L189.749 9.73975ZM188.041 11.5601L187.477 11.765L190.977 21.3968L191.541 21.1919L192.105 20.987L188.605 11.3551L188.041 11.5601ZM191.541 21.1919V20.5919H187.788V21.1919V21.7919H191.541V21.1919ZM187.788 21.1919L188.353 20.9903L185.217 12.1983L184.652 12.3999L184.087 12.6015L187.223 21.3935L187.788 21.1919ZM184.652 12.3999V11.7999H184.148V12.3999V12.9999H184.652V12.3999ZM184.148 12.3999H183.548V21.1919H184.148H184.748V12.3999H184.148ZM184.148 21.1919V20.5919H180.62V21.1919V21.7919H184.148V21.1919ZM180.62 21.1919H181.22V0.808105H180.62H180.02V21.1919H180.62ZM180.62 0.808105V1.40811H185.213V0.808105V0.208105H180.62V0.808105ZM228.615 0.808105L228.615 1.40811C229.874 1.40821 230.935 1.84818 231.831 2.74409L232.255 2.31982L232.679 1.89556C231.559 0.775719 230.194 0.20823 228.615 0.208105L228.615 0.808105ZM232.255 2.31982L231.835 2.74796C232.748 3.6449 233.195 4.70531 233.195 5.96045H233.795H234.395C234.395 4.37826 233.815 3.01075 232.675 1.89169L232.255 2.31982ZM233.795 5.96045H233.195V16.0396H233.795H234.395V5.96045H233.795ZM233.795 16.0396H233.195C233.195 17.2947 232.748 18.3551 231.835 19.252L232.255 19.6802L232.675 20.1083C233.815 18.9892 234.395 17.6217 234.395 16.0396H233.795ZM232.255 19.6802L231.831 19.2559C230.935 20.1518 229.874 20.5918 228.615 20.5919L228.615 21.1919L228.615 21.7919C230.194 21.7918 231.559 21.2243 232.679 20.1044L232.255 19.6802ZM228.615 21.1919V20.5919H223.463V21.1919V21.7919H228.615V21.1919ZM223.463 21.1919H224.063V0.808105H223.463H222.863V21.1919H223.463ZM223.463 0.808105V1.40811H228.615V0.808105V0.208105H223.463V0.808105ZM298.088 4.33643V3.73643H292.348V4.33643V4.93643H298.088V4.33643ZM292.348 4.33643H291.748V8.87158H292.348H292.948V4.33643H292.348ZM292.348 8.87158V9.47158H297.416V8.87158V8.27158H292.348V8.87158ZM297.416 8.87158H296.816V12.3999H297.416H298.016V8.87158H297.416ZM297.416 12.3999V11.7999H292.348V12.3999V12.9999H297.416V12.3999ZM292.348 12.3999H291.748V17.6636H292.348H292.948V12.3999H292.348ZM292.348 17.6636V18.2636H298.088V17.6636V17.0636H292.348V17.6636ZM298.088 17.6636H297.488V21.1919H298.088H298.688V17.6636H298.088ZM298.088 21.1919V20.5919H288.819V21.1919V21.7919H298.088V21.1919ZM288.819 21.1919H289.419V0.808105H288.819H288.219V21.1919H288.819ZM288.819 0.808105V1.40811H298.088V0.808105V0.208105H288.819V0.808105ZM298.088 0.808105H297.488V4.33643H298.088H298.688V0.808105H298.088ZM313.603 0.808105V1.40811C314.882 1.40813 315.952 1.84977 316.846 2.74409L317.271 2.31982L317.695 1.89556C316.573 0.773985 315.197 0.208134 313.603 0.208105V0.808105ZM317.271 2.31982L316.846 2.74409C317.742 3.64006 318.182 4.70161 318.182 5.96045H318.782H319.382C319.382 4.38195 318.815 3.01559 317.695 1.89556L317.271 2.31982ZM318.782 5.96045H318.182V7.24756H318.782H319.382V5.96045H318.782ZM318.782 7.24756H318.182C318.182 8.04311 317.993 8.77274 317.615 9.44623L318.139 9.73975L318.662 10.0333C319.143 9.17624 319.382 8.24379 319.382 7.24756H318.782ZM318.139 9.73975L317.613 9.45059C317.251 10.1082 316.752 10.6415 316.107 11.0549L316.431 11.5601L316.754 12.0652C317.565 11.5453 318.205 10.8645 318.664 10.0289L318.139 9.73975ZM316.431 11.5601L315.867 11.765L319.367 21.3968L319.931 21.1919L320.495 20.987L316.995 11.3551L316.431 11.5601ZM319.931 21.1919V20.5919H316.179V21.1919V21.7919H319.931V21.1919ZM316.179 21.1919L316.744 20.9903L313.607 12.1983L313.042 12.3999L312.477 12.6015L315.614 21.3935L316.179 21.1919ZM313.042 12.3999V11.7999H312.538V12.3999V12.9999H313.042V12.3999ZM312.538 12.3999H311.938V21.1919H312.538H313.138V12.3999H312.538ZM312.538 21.1919V20.5919H309.011V21.1919V21.7919H312.538V21.1919ZM309.011 21.1919H309.611V0.808105H309.011H308.411V21.1919H309.011ZM309.011 0.808105V1.40811H313.603V0.808105V0.208105H309.011V0.808105ZM368.735 21.1919V20.5919H365.207V21.1919V21.7919H368.735V21.1919ZM365.207 21.1919H365.807V9.47998H365.207H364.607V21.1919H365.207ZM365.207 9.47998V10.08H368.735V9.47998V8.87998H365.207V9.47998ZM368.735 9.47998H368.135V21.1919H368.735H369.335V9.47998H368.735ZM387.701 11.9243L388.271 12.1136L391.967 0.997422L391.397 0.808105L390.828 0.618789L387.132 11.735L387.701 11.9243ZM391.397 0.808105V1.40811H394.953V0.808105V0.208105H391.397V0.808105ZM394.953 0.808105H394.353V21.1919H394.953H395.553V0.808105H394.953ZM394.953 21.1919V20.5919H391.426V21.1919V21.7919H394.953V21.1919ZM391.426 21.1919H392.026V10.0757H391.426H390.826V21.1919H391.426ZM391.426 10.0757L390.853 9.89805L388.388 17.8502L388.961 18.0278L389.534 18.2055L391.999 10.2533L391.426 10.0757ZM388.961 18.0278V17.4278H386.413V18.0278V18.6278H388.961V18.0278ZM386.413 18.0278L386.986 17.8503L384.522 9.89811L383.949 10.0757L383.376 10.2533L385.84 18.2054L386.413 18.0278ZM383.949 10.0757H383.349V21.1919H383.949H384.549V10.0757H383.949ZM383.949 21.1919V20.5919H380.421V21.1919V21.7919H383.949V21.1919ZM380.421 21.1919H381.021V0.808105H380.421H379.821V21.1919H380.421ZM380.421 0.808105V1.40811H383.978V0.808105V0.208105H380.421V0.808105ZM383.978 0.808105L383.409 0.998682L387.132 12.1149L387.701 11.9243L388.27 11.7337L384.546 0.617529L383.978 0.808105ZM432.124 17.6636V18.2636H436.911V17.6636V17.0636H432.124V17.6636ZM436.911 17.6636H436.311V21.1919H436.911H437.511V17.6636H436.911ZM436.911 21.1919V20.5919H428.596V21.1919V21.7919H436.911V21.1919ZM428.596 21.1919H429.196V0.808105H428.596H427.996V21.1919H428.596ZM428.596 0.808105V1.40811H432.124V0.808105V0.208105H428.596V0.808105ZM432.124 0.808105H431.524V17.6636H432.124H432.724V0.808105H432.124ZM458.227 21.1919V20.5919H454.614V21.1919V21.7919H458.227V21.1919ZM454.614 21.1919L455.204 21.0813L454.448 17.0491L453.858 17.1597L453.269 17.2702L454.025 21.3024L454.614 21.1919ZM453.858 17.1597V16.5597H450.442V17.1597V17.7597H453.858V17.1597ZM450.442 17.1597L449.853 17.0491L449.097 21.0813L449.687 21.1919L450.276 21.3024L451.032 17.2702L450.442 17.1597ZM449.687 21.1919V20.5919H446.074V21.1919V21.7919H449.687V21.1919ZM446.074 21.1919L446.661 21.3161L450.974 0.932296L450.387 0.808105L449.8 0.683915L445.487 21.0677L446.074 21.1919ZM450.387 0.808105V1.40811H453.914V0.808105V0.208105H450.387V0.808105ZM453.914 0.808105L453.327 0.932296L457.64 21.3161L458.227 21.1919L458.814 21.0677L454.501 0.683915L453.914 0.808105ZM477.92 4.33643V3.73643H474.42V4.33643V4.93643H477.92V4.33643ZM474.42 4.33643H473.82V21.1919H474.42H475.02V4.33643H474.42ZM474.42 21.1919V20.5919H470.892V21.1919V21.7919H474.42V21.1919ZM470.892 21.1919H471.492V4.33643H470.892H470.292V21.1919H470.892ZM470.892 4.33643V3.73643H467.392V4.33643V4.93643H470.892V4.33643ZM467.392 4.33643H467.992V0.808105H467.392H466.792V4.33643H467.392ZM467.392 0.808105V1.40811H477.92V0.808105V0.208105H467.392V0.808105ZM477.92 0.808105H477.32V4.33643H477.92H478.52V0.808105H477.92ZM514.825 0.808105V1.40811C516.105 1.40813 517.175 1.84977 518.069 2.74409L518.493 2.31982L518.917 1.89556C517.796 0.773985 516.42 0.208134 514.825 0.208105V0.808105ZM518.493 2.31982L518.069 2.74409C518.965 3.64006 519.405 4.70161 519.405 5.96045H520.005H520.605C520.605 4.38195 520.037 3.01559 518.917 1.89556L518.493 2.31982ZM520.005 5.96045H519.405V7.24756H520.005H520.605V5.96045H520.005ZM520.005 7.24756H519.405C519.405 8.04311 519.216 8.77274 518.838 9.44623L519.361 9.73975L519.885 10.0333C520.365 9.17624 520.605 8.24379 520.605 7.24756H520.005ZM519.361 9.73975L518.836 9.45059C518.474 10.1082 517.974 10.6415 517.329 11.0549L517.653 11.5601L517.977 12.0652C518.788 11.5453 519.427 10.8645 519.887 10.0289L519.361 9.73975ZM517.653 11.5601L517.089 11.765L520.589 21.3968L521.153 21.1919L521.717 20.987L518.217 11.3551L517.653 11.5601ZM521.153 21.1919V20.5919H517.401V21.1919V21.7919H521.153V21.1919ZM517.401 21.1919L517.966 20.9903L514.83 12.1983L514.265 12.3999L513.7 12.6015L516.836 21.3935L517.401 21.1919ZM514.265 12.3999V11.7999H513.761V12.3999V12.9999H514.265V12.3999ZM513.761 12.3999H513.161V21.1919H513.761H514.361V12.3999H513.761ZM513.761 21.1919V20.5919H510.233V21.1919V21.7919H513.761V21.1919ZM510.233 21.1919H510.833V0.808105H510.233H509.633V21.1919H510.233ZM510.233 0.808105V1.40811H514.825V0.808105V0.208105H510.233V0.808105ZM206.754 4.05615V3.45615C206.147 3.45615 205.611 3.67751 205.181 4.10745L205.605 4.53174L206.03 4.95603C206.234 4.75141 206.465 4.65615 206.754 4.65615V4.05615ZM205.605 4.53174L205.181 4.10747C204.751 4.53752 204.53 5.07331 204.53 5.68018H205.13H205.73C205.73 5.39104 205.825 5.16063 206.03 4.956L205.605 4.53174ZM205.13 5.68018H204.53V16.3198H205.13H205.73V5.68018H205.13ZM205.13 16.3198H204.53C204.53 16.9267 204.751 17.4625 205.181 17.8925L205.605 17.4683L206.03 17.044C205.825 16.8394 205.73 16.609 205.73 16.3198H205.13ZM205.605 17.4683L205.181 17.8926C205.611 18.3225 206.147 18.5438 206.754 18.5438V17.9438V17.3438C206.465 17.3438 206.234 17.2486 206.03 17.044L205.605 17.4683ZM206.754 17.9438L206.754 18.5438C207.372 18.5437 207.919 18.3274 208.354 17.8925L207.93 17.4683L207.505 17.044C207.306 17.2435 207.069 17.3438 206.754 17.3438L206.754 17.9438ZM207.93 17.4683L208.354 17.8925C208.784 17.4625 209.005 16.9267 209.005 16.3198H208.405H207.805C207.805 16.609 207.71 16.8394 207.505 17.044L207.93 17.4683ZM208.405 16.3198H209.005V5.68018H208.405H207.805V16.3198H208.405ZM208.405 5.68018H209.005C209.005 5.07331 208.784 4.53752 208.354 4.10747L207.93 4.53174L207.505 4.956C207.71 5.16063 207.805 5.39104 207.805 5.68018H208.405ZM207.93 4.53174L208.354 4.10746C207.919 3.67256 207.372 3.45626 206.754 3.45615L206.754 4.05615L206.754 4.65615C207.069 4.65621 207.306 4.75648 207.505 4.95602L207.93 4.53174ZM493.523 4.05615L493.523 3.45615C492.916 3.45628 492.381 3.6779 491.952 4.10742L492.376 4.53174L492.8 4.95606C493.005 4.75135 493.235 4.65621 493.524 4.65615L493.523 4.05615ZM492.376 4.53174L491.952 4.10747C491.522 4.53685 491.299 5.07237 491.299 5.68018H491.899H492.499C492.499 5.39198 492.595 5.16129 492.8 4.956L492.376 4.53174ZM491.899 5.68018H491.299V16.3198H491.899H492.499V5.68018H491.899ZM491.899 16.3198H491.299C491.299 16.9276 491.522 17.4632 491.952 17.8925L492.376 17.4683L492.8 17.044C492.595 16.8387 492.499 16.608 492.499 16.3198H491.899ZM492.376 17.4683L491.952 17.8926C492.381 18.3221 492.916 18.5437 493.523 18.5438L493.523 17.9438L493.524 17.3438C493.235 17.3438 493.005 17.2486 492.8 17.0439L492.376 17.4683ZM493.523 17.9438V18.5438C494.141 18.5438 494.689 18.3278 495.124 17.8925L494.7 17.4683L494.276 17.044C494.077 17.2434 493.839 17.3438 493.523 17.3438V17.9438ZM494.7 17.4683L495.124 17.8925C495.554 17.4625 495.776 16.9267 495.776 16.3198H495.176H494.576C494.576 16.6089 494.481 16.8394 494.276 17.044L494.7 17.4683ZM495.176 16.3198H495.776V5.68018H495.176H494.576V16.3198H495.176ZM495.176 5.68018H495.776C495.776 5.07332 495.554 4.5375 495.124 4.10749L494.7 4.53174L494.276 4.95599C494.481 5.16062 494.576 5.39109 494.576 5.68018H495.176ZM494.7 4.53174L495.124 4.10747C494.689 3.67224 494.141 3.45615 493.523 3.45615V4.05615V4.65615C493.839 4.65615 494.077 4.75657 494.276 4.956L494.7 4.53174ZM226.991 17.6636V18.2636H228.615V17.6636V17.0636H226.991V17.6636ZM228.615 17.6636L228.615 18.2636C229.233 18.2634 229.78 18.0472 230.215 17.6123L229.791 17.188L229.367 16.7637C229.167 16.9632 228.93 17.0635 228.615 17.0636L228.615 17.6636ZM229.791 17.188L230.215 17.6122C230.645 17.1822 230.867 16.6464 230.867 16.0396H230.267H229.667C229.667 16.3286 229.571 16.5591 229.367 16.7638L229.791 17.188ZM230.267 16.0396H230.867V5.96045H230.267H229.667V16.0396H230.267ZM230.267 5.96045H230.867C230.867 5.3536 230.645 4.81775 230.215 4.38779L229.791 4.81201L229.367 5.23623C229.571 5.44088 229.667 5.67143 229.667 5.96045H230.267ZM229.791 4.81201L230.215 4.38775C229.78 3.9528 229.233 3.73657 228.615 3.73643L228.615 4.33643L228.615 4.93643C228.93 4.9365 229.167 5.03677 229.367 5.23628L229.791 4.81201ZM228.615 4.33643V3.73643H226.991V4.33643V4.93643H228.615V4.33643ZM226.991 4.33643H226.391V17.6636H226.991H227.591V4.33643H226.991ZM128.884 13.6323V14.2323H131.012V13.6323V13.0323H128.884V13.6323ZM131.012 13.6323L131.602 13.523L130.538 7.78279L129.948 7.89209L129.358 8.00139L130.422 13.7416L131.012 13.6323ZM129.948 7.89209L129.358 7.78269L128.294 13.5229L128.884 13.6323L129.474 13.7417L130.538 8.00149L129.948 7.89209ZM451.086 13.6323V14.2323H453.214V13.6323V13.0323H451.086V13.6323ZM453.214 13.6323L453.804 13.523L452.74 7.78279L452.15 7.89209L451.56 8.00139L452.624 13.7416L453.214 13.6323ZM452.15 7.89209L451.56 7.78269L450.496 13.5229L451.086 13.6323L451.676 13.7417L452.74 8.00149L452.15 7.89209ZM270.76 12.1919V11.5919H267.232V12.1919V12.7919H270.76V12.1919ZM267.232 12.1919H267.832V11.1919H267.232H266.632V12.1919H267.232ZM267.232 11.1919V11.7919H270.76V11.1919V10.5919H267.232V11.1919ZM270.76 11.1919H270.16V12.1919H270.76H271.36V11.1919H270.76ZM270.76 10.1919V9.59189H267.232V10.1919V10.7919H270.76V10.1919ZM267.232 10.1919H267.832V9.19189H267.232H266.632V10.1919H267.232ZM267.232 9.19189V9.79189H270.76V9.19189V8.59189H267.232V9.19189ZM270.76 9.19189H270.16V10.1919H270.76H271.36V9.19189H270.76ZM163.849 8.87158V9.47158H164.912V8.87158V8.27158H163.849V8.87158ZM164.912 8.87158V9.47158C165.53 9.47158 166.078 9.2555 166.513 8.82026L166.089 8.396L165.665 7.97173C165.465 8.17116 165.227 8.27158 164.912 8.27158V8.87158ZM166.089 8.396L166.513 8.82022C166.943 8.39025 167.164 7.85441 167.164 7.24756H166.564H165.964C165.964 7.53658 165.869 7.76712 165.665 7.97178L166.089 8.396ZM166.564 7.24756H167.164V5.96045H166.564H165.964V7.24756H166.564ZM166.564 5.96045H167.164C167.164 5.3536 166.943 4.81775 166.513 4.3878L166.089 4.81201L165.665 5.23623C165.869 5.44088 165.964 5.67145 165.964 5.96045H166.564ZM166.089 4.81201L166.513 4.38775C166.078 3.95251 165.53 3.73643 164.912 3.73643V4.33643V4.93643C165.227 4.93643 165.465 5.03685 165.665 5.23628L166.089 4.81201ZM164.912 4.33643V3.73643H163.849V4.33643V4.93643H164.912V4.33643ZM163.849 4.33643H163.249V8.87158H163.849H164.449V4.33643H163.849ZM184.148 8.87158V9.47158H185.213V8.87158V8.27158H184.148V8.87158ZM185.213 8.87158L185.213 9.47158C185.831 9.47149 186.378 9.25522 186.813 8.82026L186.389 8.396L185.964 7.97173C185.765 8.1713 185.528 8.27153 185.213 8.27158L185.213 8.87158ZM186.389 8.396L186.813 8.82025C187.243 8.39023 187.464 7.85442 187.464 7.24756H186.864H186.264C186.264 7.53666 186.169 7.76711 185.964 7.97175L186.389 8.396ZM186.864 7.24756H187.464V5.96045H186.864H186.264V7.24756H186.864ZM186.864 5.96045H187.464C187.464 5.35359 187.243 4.81777 186.813 4.38777L186.389 4.81201L185.964 5.23625C186.169 5.44089 186.264 5.67137 186.264 5.96045H186.864ZM186.389 4.81201L186.813 4.38775C186.378 3.95279 185.831 3.73652 185.213 3.73643L185.213 4.33643L185.213 4.93643C185.528 4.93648 185.765 5.03671 185.964 5.23628L186.389 4.81201ZM185.213 4.33643V3.73643H184.148V4.33643V4.93643H185.213V4.33643ZM184.148 4.33643H183.548V8.87158H184.148H184.748V4.33643H184.148ZM312.538 8.87158V9.47158H313.603V8.87158V8.27158H312.538V8.87158ZM313.603 8.87158L313.603 9.47158C314.221 9.47155 314.768 9.25517 315.203 8.82028L314.778 8.396L314.354 7.97171C314.154 8.17135 313.917 8.27157 313.603 8.27158L313.603 8.87158ZM314.778 8.396L315.203 8.82026C315.632 8.39088 315.855 7.85537 315.855 7.24756H315.255H314.655C314.655 7.53575 314.559 7.76644 314.354 7.97173L314.778 8.396ZM315.255 7.24756H315.855V5.96045H315.255H314.655V7.24756H315.255ZM315.255 5.96045H315.855C315.855 5.35264 315.632 4.81712 315.203 4.38775L314.778 4.81201L314.354 5.23628C314.559 5.44157 314.655 5.67226 314.655 5.96045H315.255ZM314.778 4.81201L315.203 4.38774C314.768 3.95281 314.221 3.73646 313.603 3.73643L313.603 4.33643L313.603 4.93643C313.917 4.93644 314.154 5.03664 314.354 5.23629L314.778 4.81201ZM313.603 4.33643V3.73643H312.538V4.33643V4.93643H313.603V4.33643ZM312.538 4.33643H311.938V8.87158H312.538H313.138V4.33643H312.538ZM513.761 8.87158V9.47158H514.825V8.87158V8.27158H513.761V8.87158ZM514.825 8.87158L514.825 9.47158C515.444 9.47155 515.99 9.25517 516.425 8.82028L516.001 8.396L515.577 7.97171C515.377 8.17135 515.14 8.27157 514.825 8.27158L514.825 8.87158ZM516.001 8.396L516.425 8.82026C516.855 8.39088 517.078 7.85537 517.078 7.24756H516.478H515.878C515.878 7.53575 515.782 7.76644 515.577 7.97173L516.001 8.396ZM516.478 7.24756H517.078V5.96045H516.478H515.878V7.24756H516.478ZM516.478 5.96045H517.078C517.078 5.35264 516.855 4.81712 516.425 4.38775L516.001 4.81201L515.577 5.23628C515.782 5.44157 515.878 5.67226 515.878 5.96045H516.478ZM516.001 4.81201L516.425 4.38774C515.99 3.95281 515.444 3.73646 514.825 3.73643L514.825 4.33643L514.825 4.93643C515.14 4.93644 515.377 5.03664 515.577 5.23629L516.001 4.81201ZM514.825 4.33643V3.73643H513.761V4.33643V4.93643H514.825V4.33643ZM513.761 4.33643H513.161V8.87158H513.761H514.361V4.33643H513.761ZM43.9629 8.47998V7.87998H40.4346V8.47998V9.07998H43.9629V8.47998ZM40.4346 8.47998H41.0346V7.47998H40.4346H39.8346V8.47998H40.4346ZM40.4346 7.47998V8.07998H43.9629V7.47998V6.87998H40.4346V7.47998ZM43.9629 7.47998H43.3629V8.47998H43.9629H44.5629V7.47998H43.9629ZM368.735 8.47998V7.87998H365.207V8.47998V9.07998H368.735V8.47998ZM365.207 8.47998H365.807V7.47998H365.207H364.607V8.47998H365.207ZM365.207 7.47998V8.07998H368.735V7.47998V6.87998H365.207V7.47998ZM368.735 7.47998H368.135V8.47998H368.735H369.335V7.47998H368.735ZM272.384 0.527832V1.12783C273.663 1.12783 274.733 1.56964 275.628 2.46385L276.052 2.03955L276.476 1.61525C275.354 0.493919 273.979 -0.072168 272.384 -0.072168V0.527832ZM276.052 2.03955L275.628 2.46381C276.524 3.36 276.964 4.42163 276.964 5.68018H277.564H278.164C278.164 4.10138 277.596 2.7351 276.476 1.61529L276.052 2.03955ZM277.564 5.68018H276.964V6.604H277.564H278.164V5.68018H277.564ZM277.564 6.604V6.004H274.036V6.604V7.204H277.564V6.604ZM274.036 6.604H274.636V5.68018H274.036H273.436V6.604H274.036ZM274.036 5.68018H274.636C274.636 5.07237 274.413 4.53685 273.984 4.10747L273.56 4.53174L273.135 4.956C273.341 5.16129 273.436 5.39198 273.436 5.68018H274.036ZM273.56 4.53174L273.984 4.10736C273.549 3.67281 273.002 3.45615 272.384 3.45615V4.05615V4.65615C272.698 4.65615 272.936 4.75646 273.135 4.95611L273.56 4.53174ZM272.384 4.05615L272.384 3.45615C271.777 3.45623 271.242 3.67797 270.812 4.10739L271.236 4.53174L271.661 4.95609C271.865 4.75131 272.095 4.65619 272.384 4.65615L272.384 4.05615ZM271.236 4.53174L270.812 4.10747C270.383 4.53685 270.16 5.07237 270.16 5.68018H270.76H271.36C271.36 5.39198 271.455 5.16129 271.661 4.956L271.236 4.53174ZM270.76 5.68018H270.16V8.19189H270.76H271.36V5.68018H270.76ZM270.76 8.19189V7.59189H267.232V8.19189V8.79189H270.76V8.19189ZM267.232 8.19189H267.832V5.68018H267.232H266.632V8.19189H267.232ZM267.232 5.68018H267.832C267.832 4.42134 268.272 3.35979 269.168 2.46381L268.744 2.03955L268.32 1.61529C267.2 2.73531 266.632 4.10168 266.632 5.68018H267.232ZM268.744 2.03955L269.168 2.46384C270.064 1.56798 271.125 1.12788 272.384 1.12783L272.384 0.527832L272.384 -0.072168C270.805 -0.072108 269.44 0.495594 268.32 1.61526L268.744 2.03955ZM43.9629 6.47998V5.87998H40.4346V6.47998V7.07998H43.9629V6.47998ZM40.4346 6.47998H41.0346V5.47998H40.4346H39.8346V6.47998H40.4346ZM40.4346 5.47998V6.07998H43.9629V5.47998V4.87998H40.4346V5.47998ZM43.9629 5.47998H43.3629V6.47998H43.9629H44.5629V5.47998H43.9629ZM368.735 6.47998V5.87998H365.207V6.47998V7.07998H368.735V6.47998ZM365.207 6.47998H365.807V5.47998H365.207H364.607V6.47998H365.207ZM365.207 5.47998V6.07998H368.735V5.47998V4.87998H365.207V5.47998ZM368.735 5.47998H368.135V6.47998H368.735H369.335V5.47998H368.735ZM43.9629 4.47998V3.87998H40.4346V4.47998V5.07998H43.9629V4.47998ZM40.4346 4.47998H41.0346V0.808105H40.4346H39.8346V4.47998H40.4346ZM40.4346 0.808105V1.40811H43.9629V0.808105V0.208105H40.4346V0.808105ZM43.9629 0.808105H43.3629V4.47998H43.9629H44.5629V0.808105H43.9629ZM368.735 4.47998V3.87998H365.207V4.47998V5.07998H368.735V4.47998ZM365.207 4.47998H365.807V0.808105H365.207H364.607V4.47998H365.207ZM365.207 0.808105V1.40811H368.735V0.808105V0.208105H365.207V0.808105ZM368.735 0.808105H368.135V4.47998H368.735H369.335V0.808105H368.735Z" fill="url(#paint1_linear_36_3356)" mask="url(#path-1-inside-1_36_3356)"/>
<defs>
<radialGradient id="paint0_radial_36_3356" cx="0" cy="0" r="1" gradientUnits="userSpaceOnUse" gradientTransform="translate(269.135 11.2752) rotate(90) scale(54.3276 326.934)">
<stop stop-color="#ECF7FF"/>
<stop offset="1" stop-color="#ECF7FF" stop-opacity="0"/>
</radialGradient>
<linearGradient id="paint1_linear_36_3356" x1="269.135" y1="-8.50898" x2="269.135" y2="63.4597" gradientUnits="userSpaceOnUse">
<stop stop-color="#253596" stop-opacity="0"/>
<stop offset="0.456017" stop-color="#4A76D4"/>
<stop offset="1" stop-color="#76EAF1"/>
</linearGradient>
</defs>
</svg>
