<svg width="370" height="22" viewBox="0 0 370 22" fill="none" xmlns="http://www.w3.org/2000/svg">
<g clip-path="url(#clip0_7_582)">
<mask id="path-1-inside-1_7_582" fill="white">
<path d="M136.034 -0.261719C137.009 -0.261701 137.839 0.0796893 138.523 0.763672C139.207 1.44755 139.549 2.27096 139.549 3.2334V3.86133H137.155V3.2334C137.155 2.92963 137.047 2.67029 136.832 2.45508C136.617 2.23976 136.351 2.13185 136.034 2.13184C135.73 2.13184 135.47 2.23974 135.255 2.45508C135.04 2.67026 134.932 2.9297 134.932 3.2334V10.4541C134.932 10.7578 135.04 11.0172 135.255 11.2324C135.47 11.4478 135.73 11.5557 136.034 11.5557C136.351 11.5556 136.617 11.4477 136.832 11.2324C137.047 11.0172 137.155 10.7579 137.155 10.4541V7.79395H135.769V5.39941H139.549V10.4541C139.549 11.4166 139.207 12.2399 138.523 12.9238C137.839 13.6078 137.009 13.9502 136.034 13.9502C135.072 13.9502 134.248 13.6077 133.564 12.9238C132.881 12.2399 132.538 11.4167 132.538 10.4541V3.2334C132.538 2.27093 132.881 1.44756 133.564 0.763672C134.248 0.0798481 135.072 -0.261719 136.034 -0.261719ZM160.3 -0.261719C161.275 -0.261719 162.105 0.0796855 162.789 0.763672C163.473 1.44756 163.814 2.27093 163.814 3.2334V3.86133H161.421V3.2334C161.421 2.92959 161.313 2.6703 161.098 2.45508C160.882 2.23976 160.616 2.13184 160.3 2.13184C159.996 2.13186 159.736 2.23977 159.521 2.45508C159.305 2.67024 159.198 2.92974 159.198 3.2334V10.4541C159.198 10.7578 159.306 11.0172 159.521 11.2324C159.736 11.4477 159.996 11.5556 160.3 11.5557C160.616 11.5557 160.882 11.4478 161.098 11.2324C161.313 11.0172 161.421 10.758 161.421 10.4541V9.82715H163.814V10.4541C163.814 11.4166 163.473 12.2399 162.789 12.9238C162.105 13.6078 161.275 13.9502 160.3 13.9502C159.337 13.9502 158.514 13.6078 157.83 12.9238C157.146 12.2399 156.804 11.4167 156.804 10.4541V3.2334C156.804 2.27093 157.146 1.44756 157.83 0.763672C158.514 0.0798114 159.337 -0.261691 160.3 -0.261719ZM110.685 -0.0722656C111.66 -0.0722656 112.49 0.270101 113.174 0.954102C113.858 1.63809 114.2 2.46119 114.2 3.42383V4.29785C114.2 5.08319 113.966 5.77381 113.497 6.36914C114.219 7.06569 114.58 7.90774 114.58 8.89551V10.2637C114.58 11.2263 114.238 12.0494 113.554 12.7334C112.87 13.4173 112.041 13.7597 111.065 13.7598H107.569V-0.0722656H110.685ZM124.685 13.7598H122.29V8.04785H124.685V13.7598ZM173.847 13.7598H171.453V-0.0722656H173.847V13.7598ZM185.785 13.7598H183.392V12.7598H185.785V13.7598ZM197.736 5.17188L199.086 -0.0722656H201.67L198.934 7.8125V13.7598H196.54V7.8125L193.804 -0.0722656H196.388L197.736 5.17188ZM220.541 11.3662H223.79V13.7598H218.147V-0.0722656H220.541V11.3662ZM233.333 13.7598H230.939V7.0957H233.333V13.7598ZM247.552 2.32227H243.657V5.39941H247.096V7.79395H243.657V13.7598H241.263V-0.0722656H247.552V2.32227ZM261.049 2.32227H257.153V5.39941H260.593V7.79395H257.153V11.3662H261.049V13.7598H254.76V-0.0722656H261.049V2.32227ZM185.785 11.7598H183.392V10.7598H185.785V11.7598ZM109.963 11.3662H111.065C111.382 11.3661 111.648 11.2582 111.863 11.043C112.079 10.8277 112.186 10.5676 112.186 10.2637V8.89551C112.185 8.5918 112.078 8.33238 111.863 8.11719C111.648 7.90195 111.382 7.79405 111.065 7.79395H109.963V11.3662ZM185.785 9.75977H183.392V8.75977H185.785V9.75977ZM188.16 2.32227H185.785V7.75977H183.392V2.32227H181.017V-0.0722656H188.16V2.32227ZM124.685 7.04785H122.29V6.04785H124.685V7.04785ZM233.333 6.0957H230.939V5.0957H233.333V6.0957ZM109.963 5.39941H110.685C111.001 5.39941 111.268 5.29248 111.483 5.07715C111.699 4.86183 111.806 4.60182 111.806 4.29785V3.42383C111.806 3.11986 111.699 2.85985 111.483 2.64453C111.268 2.4292 111.001 2.32227 110.685 2.32227H109.963V5.39941ZM124.685 5.04785H122.29V4.04785H124.685V5.04785ZM233.333 4.0957H230.939V3.0957H233.333V4.0957ZM124.685 3.04785H122.29V-0.0722656H124.685V3.04785ZM233.333 2.0957H230.939V-0.0722656H233.333V2.0957Z"/>
</mask>
<path d="M136.034 -0.261719C137.009 -0.261701 137.839 0.0796893 138.523 0.763672C139.207 1.44755 139.549 2.27096 139.549 3.2334V3.86133H137.155V3.2334C137.155 2.92963 137.047 2.67029 136.832 2.45508C136.617 2.23976 136.351 2.13185 136.034 2.13184C135.73 2.13184 135.47 2.23974 135.255 2.45508C135.04 2.67026 134.932 2.9297 134.932 3.2334V10.4541C134.932 10.7578 135.04 11.0172 135.255 11.2324C135.47 11.4478 135.73 11.5557 136.034 11.5557C136.351 11.5556 136.617 11.4477 136.832 11.2324C137.047 11.0172 137.155 10.7579 137.155 10.4541V7.79395H135.769V5.39941H139.549V10.4541C139.549 11.4166 139.207 12.2399 138.523 12.9238C137.839 13.6078 137.009 13.9502 136.034 13.9502C135.072 13.9502 134.248 13.6077 133.564 12.9238C132.881 12.2399 132.538 11.4167 132.538 10.4541V3.2334C132.538 2.27093 132.881 1.44756 133.564 0.763672C134.248 0.0798481 135.072 -0.261719 136.034 -0.261719ZM160.3 -0.261719C161.275 -0.261719 162.105 0.0796855 162.789 0.763672C163.473 1.44756 163.814 2.27093 163.814 3.2334V3.86133H161.421V3.2334C161.421 2.92959 161.313 2.6703 161.098 2.45508C160.882 2.23976 160.616 2.13184 160.3 2.13184C159.996 2.13186 159.736 2.23977 159.521 2.45508C159.305 2.67024 159.198 2.92974 159.198 3.2334V10.4541C159.198 10.7578 159.306 11.0172 159.521 11.2324C159.736 11.4477 159.996 11.5556 160.3 11.5557C160.616 11.5557 160.882 11.4478 161.098 11.2324C161.313 11.0172 161.421 10.758 161.421 10.4541V9.82715H163.814V10.4541C163.814 11.4166 163.473 12.2399 162.789 12.9238C162.105 13.6078 161.275 13.9502 160.3 13.9502C159.337 13.9502 158.514 13.6078 157.83 12.9238C157.146 12.2399 156.804 11.4167 156.804 10.4541V3.2334C156.804 2.27093 157.146 1.44756 157.83 0.763672C158.514 0.0798114 159.337 -0.261691 160.3 -0.261719ZM110.685 -0.0722656C111.66 -0.0722656 112.49 0.270101 113.174 0.954102C113.858 1.63809 114.2 2.46119 114.2 3.42383V4.29785C114.2 5.08319 113.966 5.77381 113.497 6.36914C114.219 7.06569 114.58 7.90774 114.58 8.89551V10.2637C114.58 11.2263 114.238 12.0494 113.554 12.7334C112.87 13.4173 112.041 13.7597 111.065 13.7598H107.569V-0.0722656H110.685ZM124.685 13.7598H122.29V8.04785H124.685V13.7598ZM173.847 13.7598H171.453V-0.0722656H173.847V13.7598ZM185.785 13.7598H183.392V12.7598H185.785V13.7598ZM197.736 5.17188L199.086 -0.0722656H201.67L198.934 7.8125V13.7598H196.54V7.8125L193.804 -0.0722656H196.388L197.736 5.17188ZM220.541 11.3662H223.79V13.7598H218.147V-0.0722656H220.541V11.3662ZM233.333 13.7598H230.939V7.0957H233.333V13.7598ZM247.552 2.32227H243.657V5.39941H247.096V7.79395H243.657V13.7598H241.263V-0.0722656H247.552V2.32227ZM261.049 2.32227H257.153V5.39941H260.593V7.79395H257.153V11.3662H261.049V13.7598H254.76V-0.0722656H261.049V2.32227ZM185.785 11.7598H183.392V10.7598H185.785V11.7598ZM109.963 11.3662H111.065C111.382 11.3661 111.648 11.2582 111.863 11.043C112.079 10.8277 112.186 10.5676 112.186 10.2637V8.89551C112.185 8.5918 112.078 8.33238 111.863 8.11719C111.648 7.90195 111.382 7.79405 111.065 7.79395H109.963V11.3662ZM185.785 9.75977H183.392V8.75977H185.785V9.75977ZM188.16 2.32227H185.785V7.75977H183.392V2.32227H181.017V-0.0722656H188.16V2.32227ZM124.685 7.04785H122.29V6.04785H124.685V7.04785ZM233.333 6.0957H230.939V5.0957H233.333V6.0957ZM109.963 5.39941H110.685C111.001 5.39941 111.268 5.29248 111.483 5.07715C111.699 4.86183 111.806 4.60182 111.806 4.29785V3.42383C111.806 3.11986 111.699 2.85985 111.483 2.64453C111.268 2.4292 111.001 2.32227 110.685 2.32227H109.963V5.39941ZM124.685 5.04785H122.29V4.04785H124.685V5.04785ZM233.333 4.0957H230.939V3.0957H233.333V4.0957ZM124.685 3.04785H122.29V-0.0722656H124.685V3.04785ZM233.333 2.0957H230.939V-0.0722656H233.333V2.0957Z" fill="url(#paint0_radial_7_582)"/>
<path d="M136.034 -0.261719L136.034 -0.861719H136.034V-0.261719ZM138.523 0.763672L138.948 0.339419L138.948 0.339408L138.523 0.763672ZM139.549 3.2334H140.149V3.23333L139.549 3.2334ZM139.549 3.86133V4.46133H140.149V3.86133H139.549ZM137.155 3.86133H136.555V4.46133H137.155V3.86133ZM137.155 3.2334H137.755V3.23319L137.155 3.2334ZM136.832 2.45508L137.256 2.03085L137.256 2.03081L136.832 2.45508ZM136.034 2.13184L136.034 1.53184H136.034V2.13184ZM135.255 2.45508L134.831 2.03081L134.831 2.03092L135.255 2.45508ZM134.932 3.2334L134.332 3.23319V3.2334H134.932ZM134.932 10.4541H134.332V10.4542L134.932 10.4541ZM135.255 11.2324L134.83 11.6565L134.831 11.6567L135.255 11.2324ZM136.034 11.5557V12.1557H136.034L136.034 11.5557ZM136.832 11.2324L137.256 11.6567L137.256 11.6566L136.832 11.2324ZM137.155 10.4541L137.755 10.4542V10.4541H137.155ZM137.155 7.79395H137.755V7.19395H137.155V7.79395ZM135.769 7.79395H135.169V8.39395H135.769V7.79395ZM135.769 5.39941V4.79941H135.169V5.39941H135.769ZM139.549 5.39941H140.149V4.79941H139.549V5.39941ZM139.549 10.4541L140.149 10.4541V10.4541H139.549ZM138.523 12.9238L138.948 13.3481L138.948 13.3481L138.523 12.9238ZM136.034 13.9502V14.5502H136.034L136.034 13.9502ZM133.564 12.9238L133.14 13.3481L133.14 13.3481L133.564 12.9238ZM132.538 10.4541H131.938V10.4541L132.538 10.4541ZM132.538 3.2334L131.938 3.23333V3.2334H132.538ZM133.564 0.763672L133.14 0.339369L133.14 0.339408L133.564 0.763672ZM160.3 -0.261719V-0.861719H160.3L160.3 -0.261719ZM162.789 0.763672L163.213 0.339408V0.339405L162.789 0.763672ZM163.814 3.2334H164.414V3.23333L163.814 3.2334ZM163.814 3.86133V4.46133H164.414V3.86133H163.814ZM161.421 3.86133H160.821V4.46133H161.421V3.86133ZM161.421 3.2334H162.021V3.23319L161.421 3.2334ZM161.098 2.45508L161.522 2.03081L161.522 2.0308L161.098 2.45508ZM160.3 2.13184V1.53184H160.3L160.3 2.13184ZM159.521 2.45508L159.096 2.03081L159.096 2.03096L159.521 2.45508ZM159.198 3.2334L158.598 3.23319V3.2334H159.198ZM159.198 10.4541H158.598V10.4542L159.198 10.4541ZM159.521 11.2324L159.096 11.6565L159.096 11.6567L159.521 11.2324ZM160.3 11.5557L160.3 12.1557H160.3V11.5557ZM161.098 11.2324L161.522 11.6567L161.522 11.6566L161.098 11.2324ZM161.421 10.4541L162.021 10.4542V10.4541H161.421ZM161.421 9.82715V9.22715H160.821V9.82715H161.421ZM163.814 9.82715H164.414V9.22715H163.814V9.82715ZM163.814 10.4541L164.414 10.4541V10.4541H163.814ZM162.789 12.9238L163.213 13.3481L163.213 13.3481L162.789 12.9238ZM160.3 13.9502L160.3 14.5502H160.3V13.9502ZM157.83 12.9238L157.406 13.3481L157.406 13.3481L157.83 12.9238ZM156.804 10.4541H156.204V10.4541L156.804 10.4541ZM156.804 3.2334L156.204 3.23333V3.2334H156.804ZM157.83 0.763672L157.406 0.339384L157.406 0.339408L157.83 0.763672ZM113.174 0.954102L113.598 0.529844L113.598 0.529838L113.174 0.954102ZM114.2 3.42383H114.8V3.42382L114.2 3.42383ZM113.497 6.36914L113.026 5.998L112.69 6.42421L113.08 6.80089L113.497 6.36914ZM114.58 8.89551H115.18V8.89546L114.58 8.89551ZM113.554 12.7334L113.978 13.1577L113.978 13.1576L113.554 12.7334ZM111.065 13.7598V14.3598H111.065L111.065 13.7598ZM107.569 13.7598H106.969V14.3598H107.569V13.7598ZM107.569 -0.0722656V-0.672266H106.969V-0.0722656H107.569ZM124.685 13.7598V14.3598H125.285V13.7598H124.685ZM122.29 13.7598H121.69V14.3598H122.29V13.7598ZM122.29 8.04785V7.44785H121.69V8.04785H122.29ZM124.685 8.04785H125.285V7.44785H124.685V8.04785ZM173.847 13.7598V14.3598H174.447V13.7598H173.847ZM171.453 13.7598H170.853V14.3598H171.453V13.7598ZM171.453 -0.0722656V-0.672266H170.853V-0.0722656H171.453ZM173.847 -0.0722656H174.447V-0.672266H173.847V-0.0722656ZM185.785 13.7598V14.3598H186.385V13.7598H185.785ZM183.392 13.7598H182.792V14.3598H183.392V13.7598ZM183.392 12.7598V12.1598H182.792V12.7598H183.392ZM185.785 12.7598H186.385V12.1598H185.785V12.7598ZM197.736 5.17188L197.155 5.32131L198.317 5.32142L197.736 5.17188ZM199.086 -0.0722656V-0.672266H198.621L198.505 -0.221806L199.086 -0.0722656ZM201.67 -0.0722656L202.237 0.124449L202.513 -0.672266H201.67V-0.0722656ZM198.934 7.8125L198.367 7.61579L198.334 7.71135V7.8125H198.934ZM198.934 13.7598V14.3598H199.534V13.7598H198.934ZM196.54 13.7598H195.94V14.3598H196.54V13.7598ZM196.54 7.8125H197.14V7.71135L197.107 7.61579L196.54 7.8125ZM193.804 -0.0722656V-0.672266H192.96L193.237 0.124449L193.804 -0.0722656ZM196.388 -0.0722656L196.969 -0.221705L196.853 -0.672266H196.388V-0.0722656ZM220.541 11.3662H219.941V11.9662H220.541V11.3662ZM223.79 11.3662H224.39V10.7662H223.79V11.3662ZM223.79 13.7598V14.3598H224.39V13.7598H223.79ZM218.147 13.7598H217.547V14.3598H218.147V13.7598ZM218.147 -0.0722656V-0.672266H217.547V-0.0722656H218.147ZM220.541 -0.0722656H221.141V-0.672266H220.541V-0.0722656ZM233.333 13.7598V14.3598H233.933V13.7598H233.333ZM230.939 13.7598H230.339V14.3598H230.939V13.7598ZM230.939 7.0957V6.4957H230.339V7.0957H230.939ZM233.333 7.0957H233.933V6.4957H233.333V7.0957ZM247.552 2.32227V2.92227H248.152V2.32227H247.552ZM243.657 2.32227V1.72227H243.057V2.32227H243.657ZM243.657 5.39941H243.057V5.99941H243.657V5.39941ZM247.096 5.39941H247.696V4.79941H247.096V5.39941ZM247.096 7.79395V8.39395H247.696V7.79395H247.096ZM243.657 7.79395V7.19395H243.057V7.79395H243.657ZM243.657 13.7598V14.3598H244.257V13.7598H243.657ZM241.263 13.7598H240.663V14.3598H241.263V13.7598ZM241.263 -0.0722656V-0.672266H240.663V-0.0722656H241.263ZM247.552 -0.0722656H248.152V-0.672266H247.552V-0.0722656ZM261.049 2.32227V2.92227H261.649V2.32227H261.049ZM257.153 2.32227V1.72227H256.553V2.32227H257.153ZM257.153 5.39941H256.553V5.99941H257.153V5.39941ZM260.593 5.39941H261.193V4.79941H260.593V5.39941ZM260.593 7.79395V8.39395H261.193V7.79395H260.593ZM257.153 7.79395V7.19395H256.553V7.79395H257.153ZM257.153 11.3662H256.553V11.9662H257.153V11.3662ZM261.049 11.3662H261.649V10.7662H261.049V11.3662ZM261.049 13.7598V14.3598H261.649V13.7598H261.049ZM254.76 13.7598H254.16V14.3598H254.76V13.7598ZM254.76 -0.0722656V-0.672266H254.16V-0.0722656H254.76ZM261.049 -0.0722656H261.649V-0.672266H261.049V-0.0722656ZM185.785 11.7598V12.3598H186.385V11.7598H185.785ZM183.392 11.7598H182.792V12.3598H183.392V11.7598ZM183.392 10.7598V10.1598H182.792V10.7598H183.392ZM185.785 10.7598H186.385V10.1598H185.785V10.7598ZM109.963 11.3662H109.363V11.9662H109.963V11.3662ZM111.065 11.3662V11.9662H111.066L111.065 11.3662ZM111.863 11.043L112.288 11.4672L112.288 11.4672L111.863 11.043ZM112.186 8.89551H112.786V8.89535L112.186 8.89551ZM111.863 8.11719L112.288 7.69307L112.288 7.69292L111.863 8.11719ZM111.065 7.79395L111.066 7.19395H111.065V7.79395ZM109.963 7.79395V7.19395H109.363V7.79395H109.963ZM185.785 9.75977V10.3598H186.385V9.75977H185.785ZM183.392 9.75977H182.792V10.3598H183.392V9.75977ZM183.392 8.75977V8.15977H182.792V8.75977H183.392ZM185.785 8.75977H186.385V8.15977H185.785V8.75977ZM188.16 2.32227V2.92227H188.76V2.32227H188.16ZM185.785 2.32227V1.72227H185.185V2.32227H185.785ZM185.785 7.75977V8.35977H186.385V7.75977H185.785ZM183.392 7.75977H182.792V8.35977H183.392V7.75977ZM183.392 2.32227H183.992V1.72227H183.392V2.32227ZM181.017 2.32227H180.417V2.92227H181.017V2.32227ZM181.017 -0.0722656V-0.672266H180.417V-0.0722656H181.017ZM188.16 -0.0722656H188.76V-0.672266H188.16V-0.0722656ZM124.685 7.04785V7.64785H125.285V7.04785H124.685ZM122.29 7.04785H121.69V7.64785H122.29V7.04785ZM122.29 6.04785V5.44785H121.69V6.04785H122.29ZM124.685 6.04785H125.285V5.44785H124.685V6.04785ZM233.333 6.0957V6.6957H233.933V6.0957H233.333ZM230.939 6.0957H230.339V6.6957H230.939V6.0957ZM230.939 5.0957V4.4957H230.339V5.0957H230.939ZM233.333 5.0957H233.933V4.4957H233.333V5.0957ZM109.963 5.39941H109.363V5.99941H109.963V5.39941ZM111.483 5.07715L111.908 5.50141L111.908 5.50139L111.483 5.07715ZM111.806 3.42383H112.406V3.42382L111.806 3.42383ZM111.483 2.64453L111.908 2.22029L111.908 2.22027L111.483 2.64453ZM109.963 2.32227V1.72227H109.363V2.32227H109.963ZM124.685 5.04785V5.64785H125.285V5.04785H124.685ZM122.29 5.04785H121.69V5.64785H122.29V5.04785ZM122.29 4.04785V3.44785H121.69V4.04785H122.29ZM124.685 4.04785H125.285V3.44785H124.685V4.04785ZM233.333 4.0957V4.6957H233.933V4.0957H233.333ZM230.939 4.0957H230.339V4.6957H230.939V4.0957ZM230.939 3.0957V2.4957H230.339V3.0957H230.939ZM233.333 3.0957H233.933V2.4957H233.333V3.0957ZM124.685 3.04785V3.64785H125.285V3.04785H124.685ZM122.29 3.04785H121.69V3.64785H122.29V3.04785ZM122.29 -0.0722656V-0.672266H121.69V-0.0722656H122.29ZM124.685 -0.0722656H125.285V-0.672266H124.685V-0.0722656ZM233.333 2.0957V2.6957H233.933V2.0957H233.333ZM230.939 2.0957H230.339V2.6957H230.939V2.0957ZM230.939 -0.0722656V-0.672266H230.339V-0.0722656H230.939ZM233.333 -0.0722656H233.933V-0.672266H233.333V-0.0722656ZM136.034 -0.261719L136.034 0.338281C136.852 0.338296 137.529 0.61775 138.099 1.18794L138.523 0.763672L138.948 0.339408C138.15 -0.458371 137.167 -0.861698 136.034 -0.861719L136.034 -0.261719ZM138.523 0.763672L138.099 1.18792C138.671 1.75971 138.949 2.43071 138.949 3.23347L139.549 3.2334L140.149 3.23333C140.149 2.11121 139.744 1.13539 138.948 0.339419L138.523 0.763672ZM139.549 3.2334H138.949V3.86133H139.549H140.149V3.2334H139.549ZM139.549 3.86133V3.26133H137.155V3.86133V4.46133H139.549V3.86133ZM137.155 3.86133H137.755V3.2334H137.155H136.555V3.86133H137.155ZM137.155 3.2334L137.755 3.23319C137.755 2.76951 137.583 2.35791 137.256 2.03085L136.832 2.45508L136.408 2.87931C136.511 2.98267 136.555 3.08975 136.555 3.23361L137.155 3.2334ZM136.832 2.45508L137.256 2.03081C136.924 1.69834 136.503 1.53186 136.034 1.53184L136.034 2.13184L136.034 2.73184C136.198 2.73184 136.31 2.78118 136.408 2.87934L136.832 2.45508ZM136.034 2.13184V1.53184C135.571 1.53184 135.158 1.7033 134.831 2.03081L135.255 2.45508L135.679 2.87934C135.782 2.77619 135.89 2.73184 136.034 2.73184V2.13184ZM135.255 2.45508L134.831 2.03092C134.504 2.35787 134.332 2.7695 134.332 3.23319L134.932 3.2334L135.532 3.23361C135.532 3.0899 135.576 2.98266 135.679 2.87924L135.255 2.45508ZM134.932 3.2334H134.332V10.4541H134.932H135.532V3.2334H134.932ZM134.932 10.4541L134.332 10.4542C134.332 10.9181 134.504 11.3297 134.83 11.6565L135.255 11.2324L135.679 10.8083C135.576 10.7048 135.532 10.5975 135.532 10.454L134.932 10.4541ZM135.255 11.2324L134.831 11.6567C135.158 11.9842 135.571 12.1557 136.034 12.1557V11.5557V10.9557C135.89 10.9557 135.782 10.9113 135.679 10.8082L135.255 11.2324ZM136.034 11.5557L136.034 12.1557C136.503 12.1556 136.924 11.9892 137.256 11.6567L136.832 11.2324L136.408 10.8082C136.31 10.9063 136.198 10.9557 136.034 10.9557L136.034 11.5557ZM136.832 11.2324L137.256 11.6566C137.583 11.3296 137.755 10.9181 137.755 10.4542L137.155 10.4541L136.555 10.454C136.555 10.5977 136.511 10.7047 136.408 10.8082L136.832 11.2324ZM137.155 10.4541H137.755V7.79395H137.155H136.555V10.4541H137.155ZM137.155 7.79395V7.19395H135.769V7.79395V8.39395H137.155V7.79395ZM135.769 7.79395H136.369V5.39941H135.769H135.169V7.79395H135.769ZM135.769 5.39941V5.99941H139.549V5.39941V4.79941H135.769V5.39941ZM139.549 5.39941H138.949V10.4541H139.549H140.149V5.39941H139.549ZM139.549 10.4541L138.949 10.4541C138.949 11.2568 138.671 11.9277 138.099 12.4996L138.523 12.9238L138.948 13.3481C139.744 12.5521 140.149 11.5764 140.149 10.4541L139.549 10.4541ZM138.523 12.9238L138.099 12.4996C137.529 13.0701 136.852 13.3502 136.034 13.3502L136.034 13.9502L136.034 14.5502C137.167 14.5502 138.15 14.1456 138.948 13.3481L138.523 12.9238ZM136.034 13.9502V13.3502C135.232 13.3502 134.561 13.0717 133.989 12.4995L133.564 12.9238L133.14 13.3481C133.936 14.1437 134.911 14.5502 136.034 14.5502V13.9502ZM133.564 12.9238L133.989 12.4996C133.417 11.9274 133.138 11.2565 133.138 10.4541L132.538 10.4541L131.938 10.4541C131.938 11.5769 132.344 12.5524 133.14 13.3481L133.564 12.9238ZM132.538 10.4541H133.138V3.2334H132.538H131.938V10.4541H132.538ZM132.538 3.2334L133.138 3.23347C133.138 2.4311 133.417 1.76003 133.989 1.18794L133.564 0.763672L133.14 0.339408C132.345 1.13509 131.938 2.11075 131.938 3.23333L132.538 3.2334ZM133.564 0.763672L133.989 1.18797C134.561 0.61615 135.231 0.338281 136.034 0.338281V-0.261719V-0.861719C134.912 -0.861719 133.936 -0.456454 133.14 0.339369L133.564 0.763672ZM160.3 -0.261719V0.338281C161.118 0.338281 161.795 0.617738 162.365 1.18794L162.789 0.763672L163.213 0.339405C162.416 -0.458367 161.432 -0.861719 160.3 -0.861719V-0.261719ZM162.789 0.763672L162.365 1.18794C162.937 1.75972 163.214 2.43067 163.214 3.23347L163.814 3.2334L164.414 3.23333C164.414 2.11119 164.009 1.1354 163.213 0.339408L162.789 0.763672ZM163.814 3.2334H163.214V3.86133H163.814H164.414V3.2334H163.814ZM163.814 3.86133V3.26133H161.421V3.86133V4.46133H163.814V3.86133ZM161.421 3.86133H162.021V3.2334H161.421H160.821V3.86133H161.421ZM161.421 3.2334L162.021 3.23319C162.021 2.76951 161.849 2.35793 161.522 2.03081L161.098 2.45508L160.673 2.87934C160.777 2.98268 160.821 3.08968 160.821 3.23361L161.421 3.2334ZM161.098 2.45508L161.522 2.0308C161.189 1.69836 160.769 1.53184 160.3 1.53184V2.13184V2.73184C160.464 2.73184 160.575 2.78115 160.673 2.87935L161.098 2.45508ZM160.3 2.13184L160.3 1.53184C159.836 1.53188 159.424 1.70329 159.096 2.03081L159.521 2.45508L159.945 2.87934C160.048 2.77625 160.155 2.73185 160.3 2.73184L160.3 2.13184ZM159.521 2.45508L159.096 2.03096C158.768 2.35882 158.598 2.77088 158.598 3.23319L159.198 3.2334L159.798 3.23361C159.798 3.08861 159.843 2.98166 159.945 2.87919L159.521 2.45508ZM159.198 3.2334H158.598V10.4541H159.198H159.798V3.2334H159.198ZM159.198 10.4541L158.598 10.4542C158.598 10.9168 158.769 11.3287 159.096 11.6565L159.521 11.2324L159.945 10.8084C159.842 10.7057 159.798 10.5988 159.798 10.454L159.198 10.4541ZM159.521 11.2324L159.096 11.6567C159.424 11.9842 159.836 12.1556 160.3 12.1557L160.3 11.5557L160.3 10.9557C160.155 10.9557 160.048 10.9112 159.945 10.8082L159.521 11.2324ZM160.3 11.5557V12.1557C160.769 12.1557 161.189 11.9892 161.522 11.6567L161.098 11.2324L160.673 10.8082C160.575 10.9064 160.464 10.9557 160.3 10.9557V11.5557ZM161.098 11.2324L161.522 11.6566C161.849 11.3296 162.021 10.9181 162.021 10.4542L161.421 10.4541L160.821 10.454C160.821 10.5978 160.777 10.7047 160.673 10.8082L161.098 11.2324ZM161.421 10.4541H162.021V9.82715H161.421H160.821V10.4541H161.421ZM161.421 9.82715V10.4271H163.814V9.82715V9.22715H161.421V9.82715ZM163.814 9.82715H163.214V10.4541H163.814H164.414V9.82715H163.814ZM163.814 10.4541L163.214 10.4541C163.214 11.2569 162.937 11.9277 162.365 12.4996L162.789 12.9238L163.213 13.3481C164.009 12.5521 164.414 11.5764 164.414 10.4541L163.814 10.4541ZM162.789 12.9238L162.365 12.4996C161.794 13.0701 161.117 13.3502 160.3 13.3502V13.9502V14.5502C161.433 14.5502 162.416 14.1456 163.213 13.3481L162.789 12.9238ZM160.3 13.9502L160.3 13.3502C159.497 13.3502 158.827 13.0717 158.254 12.4996L157.83 12.9238L157.406 13.3481C158.202 14.1438 159.177 14.5502 160.3 14.5502L160.3 13.9502ZM157.83 12.9238L158.254 12.4996C157.682 11.9274 157.404 11.2565 157.404 10.4541L156.804 10.4541L156.204 10.4541C156.204 11.5769 156.61 12.5524 157.406 13.3481L157.83 12.9238ZM156.804 10.4541H157.404V3.2334H156.804H156.204V10.4541H156.804ZM156.804 3.2334L157.404 3.23347C157.404 2.4311 157.682 1.76003 158.254 1.18794L157.83 0.763672L157.406 0.339408C156.61 1.13509 156.204 2.11075 156.204 3.23333L156.804 3.2334ZM157.83 0.763672L158.254 1.18796C158.826 0.616134 159.497 0.338305 160.3 0.338281L160.3 -0.261719L160.3 -0.861719C159.177 -0.861686 158.202 -0.456511 157.406 0.339384L157.83 0.763672ZM110.685 -0.0722656V0.527734C111.502 0.527734 112.179 0.807849 112.75 1.37837L113.174 0.954102L113.598 0.529838C112.801 -0.267646 111.818 -0.672266 110.685 -0.672266V-0.0722656ZM113.174 0.954102L112.75 1.37836C113.322 1.95059 113.6 2.62141 113.6 3.42383L114.2 3.42383L114.8 3.42382C114.8 2.30098 114.394 1.32558 113.598 0.529844L113.174 0.954102ZM114.2 3.42383H113.6V4.29785H114.2H114.8V3.42383H114.2ZM114.2 4.29785H113.6C113.6 4.95384 113.408 5.51254 113.026 5.998L113.497 6.36914L113.969 6.74028C114.524 6.03508 114.8 5.21253 114.8 4.29785H114.2ZM113.497 6.36914L113.08 6.80089C113.687 7.38643 113.98 8.07354 113.98 8.89556L114.58 8.89551L115.18 8.89546C115.18 7.74194 114.751 6.74495 113.914 5.93739L113.497 6.36914ZM114.58 8.89551H113.98V10.2637H114.58H115.18V8.89551H114.58ZM114.58 10.2637H113.98C113.98 11.0661 113.702 11.7369 113.129 12.3091L113.554 12.7334L113.978 13.1576C114.774 12.3619 115.18 11.3865 115.18 10.2637H114.58ZM113.554 12.7334L113.129 12.3091C112.559 12.8796 111.883 13.1597 111.065 13.1598L111.065 13.7598L111.065 14.3598C112.198 14.3596 113.181 13.955 113.978 13.1577L113.554 12.7334ZM111.065 13.7598V13.1598H107.569V13.7598V14.3598H111.065V13.7598ZM107.569 13.7598H108.169V-0.0722656H107.569H106.969V13.7598H107.569ZM107.569 -0.0722656V0.527734H110.685V-0.0722656V-0.672266H107.569V-0.0722656ZM124.685 13.7598V13.1598H122.29V13.7598V14.3598H124.685V13.7598ZM122.29 13.7598H122.89V8.04785H122.29H121.69V13.7598H122.29ZM122.29 8.04785V8.64785H124.685V8.04785V7.44785H122.29V8.04785ZM124.685 8.04785H124.085V13.7598H124.685H125.285V8.04785H124.685ZM173.847 13.7598V13.1598H171.453V13.7598V14.3598H173.847V13.7598ZM171.453 13.7598H172.053V-0.0722656H171.453H170.853V13.7598H171.453ZM171.453 -0.0722656V0.527734H173.847V-0.0722656V-0.672266H171.453V-0.0722656ZM173.847 -0.0722656H173.247V13.7598H173.847H174.447V-0.0722656H173.847ZM185.785 13.7598V13.1598H183.392V13.7598V14.3598H185.785V13.7598ZM183.392 13.7598H183.992V12.7598H183.392H182.792V13.7598H183.392ZM183.392 12.7598V13.3598H185.785V12.7598V12.1598H183.392V12.7598ZM185.785 12.7598H185.185V13.7598H185.785H186.385V12.7598H185.785ZM197.736 5.17188L198.317 5.32142L199.667 0.077275L199.086 -0.0722656L198.505 -0.221806L197.155 5.02233L197.736 5.17188ZM199.086 -0.0722656V0.527734H201.67V-0.0722656V-0.672266H199.086V-0.0722656ZM201.67 -0.0722656L201.103 -0.26898L198.367 7.61579L198.934 7.8125L199.5 8.00921L202.237 0.124449L201.67 -0.0722656ZM198.934 7.8125H198.334V13.7598H198.934H199.534V7.8125H198.934ZM198.934 13.7598V13.1598H196.54V13.7598V14.3598H198.934V13.7598ZM196.54 13.7598H197.14V7.8125H196.54H195.94V13.7598H196.54ZM196.54 7.8125L197.107 7.61579L194.371 -0.26898L193.804 -0.0722656L193.237 0.124449L195.973 8.00921L196.54 7.8125ZM193.804 -0.0722656V0.527734H196.388V-0.0722656V-0.672266H193.804V-0.0722656ZM196.388 -0.0722656L195.807 0.0771735L197.155 5.32131L197.736 5.17188L198.317 5.02244L196.969 -0.221705L196.388 -0.0722656ZM220.541 11.3662V11.9662H223.79V11.3662V10.7662H220.541V11.3662ZM223.79 11.3662H223.19V13.7598H223.79H224.39V11.3662H223.79ZM223.79 13.7598V13.1598H218.147V13.7598V14.3598H223.79V13.7598ZM218.147 13.7598H218.747V-0.0722656H218.147H217.547V13.7598H218.147ZM218.147 -0.0722656V0.527734H220.541V-0.0722656V-0.672266H218.147V-0.0722656ZM220.541 -0.0722656H219.941V11.3662H220.541H221.141V-0.0722656H220.541ZM233.333 13.7598V13.1598H230.939V13.7598V14.3598H233.333V13.7598ZM230.939 13.7598H231.539V7.0957H230.939H230.339V13.7598H230.939ZM230.939 7.0957V7.6957H233.333V7.0957V6.4957H230.939V7.0957ZM233.333 7.0957H232.733V13.7598H233.333H233.933V7.0957H233.333ZM247.552 2.32227V1.72227H243.657V2.32227V2.92227H247.552V2.32227ZM243.657 2.32227H243.057V5.39941H243.657H244.257V2.32227H243.657ZM243.657 5.39941V5.99941H247.096V5.39941V4.79941H243.657V5.39941ZM247.096 5.39941H246.496V7.79395H247.096H247.696V5.39941H247.096ZM247.096 7.79395V7.19395H243.657V7.79395V8.39395H247.096V7.79395ZM243.657 7.79395H243.057V13.7598H243.657H244.257V7.79395H243.657ZM243.657 13.7598V13.1598H241.263V13.7598V14.3598H243.657V13.7598ZM241.263 13.7598H241.863V-0.0722656H241.263H240.663V13.7598H241.263ZM241.263 -0.0722656V0.527734H247.552V-0.0722656V-0.672266H241.263V-0.0722656ZM247.552 -0.0722656H246.952V2.32227H247.552H248.152V-0.0722656H247.552ZM261.049 2.32227V1.72227H257.153V2.32227V2.92227H261.049V2.32227ZM257.153 2.32227H256.553V5.39941H257.153H257.753V2.32227H257.153ZM257.153 5.39941V5.99941H260.593V5.39941V4.79941H257.153V5.39941ZM260.593 5.39941H259.993V7.79395H260.593H261.193V5.39941H260.593ZM260.593 7.79395V7.19395H257.153V7.79395V8.39395H260.593V7.79395ZM257.153 7.79395H256.553V11.3662H257.153H257.753V7.79395H257.153ZM257.153 11.3662V11.9662H261.049V11.3662V10.7662H257.153V11.3662ZM261.049 11.3662H260.449V13.7598H261.049H261.649V11.3662H261.049ZM261.049 13.7598V13.1598H254.76V13.7598V14.3598H261.049V13.7598ZM254.76 13.7598H255.36V-0.0722656H254.76H254.16V13.7598H254.76ZM254.76 -0.0722656V0.527734H261.049V-0.0722656V-0.672266H254.76V-0.0722656ZM261.049 -0.0722656H260.449V2.32227H261.049H261.649V-0.0722656H261.049ZM185.785 11.7598V11.1598H183.392V11.7598V12.3598H185.785V11.7598ZM183.392 11.7598H183.992V10.7598H183.392H182.792V11.7598H183.392ZM183.392 10.7598V11.3598H185.785V10.7598V10.1598H183.392V10.7598ZM185.785 10.7598H185.185V11.7598H185.785H186.385V10.7598H185.785ZM109.963 11.3662V11.9662H111.065V11.3662V10.7662H109.963V11.3662ZM111.065 11.3662L111.066 11.9662C111.534 11.9661 111.955 11.7997 112.288 11.4672L111.863 11.043L111.439 10.6187C111.341 10.7167 111.23 10.7662 111.065 10.7662L111.065 11.3662ZM111.863 11.043L112.288 11.4672C112.616 11.1388 112.786 10.7259 112.786 10.2637H112.186H111.586C111.586 10.4094 111.541 10.5165 111.439 10.6187L111.863 11.043ZM112.186 10.2637H112.786V8.89551H112.186H111.586V10.2637H112.186ZM112.186 8.89551L112.786 8.89535C112.785 8.43292 112.615 8.02093 112.288 7.69307L111.863 8.11719L111.439 8.54131C111.541 8.64383 111.586 8.75069 111.586 8.89567L112.186 8.89551ZM111.863 8.11719L112.288 7.69292C111.955 7.36045 111.534 7.19409 111.066 7.19395L111.065 7.79395L111.065 8.39395C111.23 8.394 111.341 8.44346 111.439 8.54145L111.863 8.11719ZM111.065 7.79395V7.19395H109.963V7.79395V8.39395H111.065V7.79395ZM109.963 7.79395H109.363V11.3662H109.963H110.563V7.79395H109.963ZM185.785 9.75977V9.15977H183.392V9.75977V10.3598H185.785V9.75977ZM183.392 9.75977H183.992V8.75977H183.392H182.792V9.75977H183.392ZM183.392 8.75977V9.35977H185.785V8.75977V8.15977H183.392V8.75977ZM185.785 8.75977H185.185V9.75977H185.785H186.385V8.75977H185.785ZM188.16 2.32227V1.72227H185.785V2.32227V2.92227H188.16V2.32227ZM185.785 2.32227H185.185V7.75977H185.785H186.385V2.32227H185.785ZM185.785 7.75977V7.15977H183.392V7.75977V8.35977H185.785V7.75977ZM183.392 7.75977H183.992V2.32227H183.392H182.792V7.75977H183.392ZM183.392 2.32227V1.72227H181.017V2.32227V2.92227H183.392V2.32227ZM181.017 2.32227H181.617V-0.0722656H181.017H180.417V2.32227H181.017ZM181.017 -0.0722656V0.527734H188.16V-0.0722656V-0.672266H181.017V-0.0722656ZM188.16 -0.0722656H187.56V2.32227H188.16H188.76V-0.0722656H188.16ZM124.685 7.04785V6.44785H122.29V7.04785V7.64785H124.685V7.04785ZM122.29 7.04785H122.89V6.04785H122.29H121.69V7.04785H122.29ZM122.29 6.04785V6.64785H124.685V6.04785V5.44785H122.29V6.04785ZM124.685 6.04785H124.085V7.04785H124.685H125.285V6.04785H124.685ZM233.333 6.0957V5.4957H230.939V6.0957V6.6957H233.333V6.0957ZM230.939 6.0957H231.539V5.0957H230.939H230.339V6.0957H230.939ZM230.939 5.0957V5.6957H233.333V5.0957V4.4957H230.939V5.0957ZM233.333 5.0957H232.733V6.0957H233.333H233.933V5.0957H233.333ZM109.963 5.39941V5.99941H110.685V5.39941V4.79941H109.963V5.39941ZM110.685 5.39941V5.99941C111.152 5.99941 111.574 5.83521 111.908 5.50141L111.483 5.07715L111.059 4.65288C110.962 4.74975 110.851 4.79941 110.685 4.79941V5.39941ZM111.483 5.07715L111.908 5.50139C112.236 5.17293 112.406 4.76007 112.406 4.29785H111.806H111.206C111.206 4.44357 111.161 4.55072 111.059 4.65291L111.483 5.07715ZM111.806 4.29785H112.406V3.42383H111.806H111.206V4.29785H111.806ZM111.806 3.42383L112.406 3.42382C112.406 2.96162 112.236 2.54875 111.908 2.22029L111.483 2.64453L111.059 3.06877C111.161 3.17095 111.206 3.2781 111.206 3.42384L111.806 3.42383ZM111.483 2.64453L111.908 2.22027C111.574 1.88647 111.152 1.72227 110.685 1.72227V2.32227V2.92227C110.851 2.92227 110.962 2.97193 111.059 3.06879L111.483 2.64453ZM110.685 2.32227V1.72227H109.963V2.32227V2.92227H110.685V2.32227ZM109.963 2.32227H109.363V5.39941H109.963H110.563V2.32227H109.963ZM124.685 5.04785V4.44785H122.29V5.04785V5.64785H124.685V5.04785ZM122.29 5.04785H122.89V4.04785H122.29H121.69V5.04785H122.29ZM122.29 4.04785V4.64785H124.685V4.04785V3.44785H122.29V4.04785ZM124.685 4.04785H124.085V5.04785H124.685H125.285V4.04785H124.685ZM233.333 4.0957V3.4957H230.939V4.0957V4.6957H233.333V4.0957ZM230.939 4.0957H231.539V3.0957H230.939H230.339V4.0957H230.939ZM230.939 3.0957V3.6957H233.333V3.0957V2.4957H230.939V3.0957ZM233.333 3.0957H232.733V4.0957H233.333H233.933V3.0957H233.333ZM124.685 3.04785V2.44785H122.29V3.04785V3.64785H124.685V3.04785ZM122.29 3.04785H122.89V-0.0722656H122.29H121.69V3.04785H122.29ZM122.29 -0.0722656V0.527734H124.685V-0.0722656V-0.672266H122.29V-0.0722656ZM124.685 -0.0722656H124.085V3.04785H124.685H125.285V-0.0722656H124.685ZM233.333 2.0957V1.4957H230.939V2.0957V2.6957H233.333V2.0957ZM230.939 2.0957H231.539V-0.0722656H230.939H230.339V2.0957H230.939ZM230.939 -0.0722656V0.527734H233.333V-0.0722656V-0.672266H230.939V-0.0722656ZM233.333 -0.0722656H232.733V2.0957H233.333H233.933V-0.0722656H233.333Z" fill="url(#paint1_linear_7_582)" mask="url(#path-1-inside-1_7_582)"/>
</g>
<defs>
<radialGradient id="paint0_radial_7_582" cx="0" cy="0" r="1" gradientUnits="userSpaceOnUse" gradientTransform="translate(184.045 7.031) rotate(90) scale(36.8643 99.8946)">
<stop stop-color="#ECF7FF"/>
<stop offset="1" stop-color="#ECF7FF" stop-opacity="0"/>
</radialGradient>
<linearGradient id="paint1_linear_7_582" x1="184.045" y1="-6.39371" x2="184.045" y2="42.4411" gradientUnits="userSpaceOnUse">
<stop stop-color="#253596" stop-opacity="0"/>
<stop offset="0.456017" stop-color="#4A76D4"/>
<stop offset="1" stop-color="#76EAF1"/>
</linearGradient>
<clipPath id="clip0_7_582">
<rect width="370" height="22" fill="white"/>
</clipPath>
</defs>
</svg>
