<svg width="540" height="22" viewBox="0 0 540 22" fill="none" xmlns="http://www.w3.org/2000/svg">
<mask id="path-1-inside-1_7_217" fill="white">
<path d="M49.9805 4.80859H44.1289V9.31641C44.7635 8.99915 45.5009 8.83984 46.3408 8.83984C47.3486 8.83992 48.2068 9.19515 48.916 9.9043C49.6253 10.6136 49.9805 11.4725 49.9805 12.4805V17.2686C49.9804 18.5564 49.5133 19.6577 48.5801 20.5723C47.6655 21.4868 46.5642 21.9443 45.2764 21.9443C43.9885 21.9443 42.8873 21.4868 41.9727 20.5723C41.0581 19.6577 40.6007 18.5564 40.6006 17.2686V15.8682H44.1289V17.2686C44.129 17.5857 44.2409 17.8562 44.4648 18.0801C44.6888 18.304 44.9592 18.416 45.2764 18.416C45.6123 18.416 45.8922 18.304 46.1162 18.0801C46.3401 17.8562 46.4521 17.5857 46.4521 17.2686V13.3203C46.4521 12.9843 46.3402 12.7045 46.1162 12.4805C45.8922 12.2565 45.6124 12.1445 45.2764 12.1445C44.9591 12.1446 44.6888 12.2565 44.4648 12.4805C44.2408 12.7045 44.1289 12.9843 44.1289 13.3203H40.6006V1.28027H49.9805V4.80859ZM80.1133 1C81.5504 1.0001 82.7734 1.50383 83.7812 2.51172C84.7892 3.51972 85.293 4.73368 85.293 6.15234V7.07617H81.7646V6.15234C81.7646 5.70434 81.6064 5.32124 81.2891 5.00391C80.9718 4.68668 80.5798 4.52842 80.1133 4.52832C79.6653 4.52832 79.2822 4.68665 78.9648 5.00391C78.6475 5.32124 78.4893 5.70434 78.4893 6.15234V6.48828C78.4893 7.32822 78.7971 8.00959 79.4131 8.53223L83.1367 11.7246C84.5739 12.9939 85.2929 14.5708 85.293 16.4561V16.792C85.293 18.2107 84.7892 19.4246 83.7812 20.4326C82.7734 21.4405 81.5504 21.9442 80.1133 21.9443C78.6947 21.9443 77.4806 21.4405 76.4727 20.4326C75.4647 19.4246 74.9609 18.2107 74.9609 16.792V15.8682H78.4893V16.792C78.4893 17.24 78.6475 17.6231 78.9648 17.9404C79.2822 18.2577 79.6653 18.416 80.1133 18.416C80.5797 18.4159 80.9718 18.2576 81.2891 17.9404C81.6064 17.6231 81.7646 17.24 81.7646 16.792V16.4561C81.7646 15.6161 81.4568 14.9348 80.8408 14.4121L77.1172 11.2197C75.6799 9.95043 74.961 8.37355 74.9609 6.48828V6.15234C74.9609 4.73368 75.4647 3.51972 76.4727 2.51172C77.4806 1.50379 78.6947 1 80.1133 1ZM142.579 1C144.016 1 145.239 1.50395 146.247 2.51172C147.255 3.51972 147.76 4.73368 147.76 6.15234V7.07617H144.231V6.15234C144.231 5.70434 144.072 5.32124 143.755 5.00391C143.438 4.6868 143.046 4.52832 142.579 4.52832C142.131 4.52837 141.749 4.68681 141.432 5.00391C141.114 5.32124 140.955 5.70434 140.955 6.15234V16.792C140.955 17.24 141.114 17.6231 141.432 17.9404C141.749 18.2575 142.131 18.416 142.579 18.416C143.046 18.416 143.438 18.2575 143.755 17.9404C144.072 17.6231 144.231 17.24 144.231 16.792V12.8721H142.188V9.34375H147.76V16.792C147.76 18.2107 147.255 19.4246 146.247 20.4326C145.239 21.4404 144.016 21.9443 142.579 21.9443C141.161 21.9443 139.947 21.4404 138.939 20.4326C137.931 19.4246 137.428 18.2107 137.428 16.792V6.15234C137.428 4.73368 137.931 3.51972 138.939 2.51172C139.947 1.50396 141.161 1.00005 142.579 1ZM184.184 1C185.621 1.0001 186.844 1.50383 187.852 2.51172C188.86 3.51972 189.363 4.73368 189.363 6.15234V7.07617H185.835V6.15234C185.835 5.70434 185.677 5.32124 185.359 5.00391C185.042 4.68668 184.65 4.52842 184.184 4.52832C183.736 4.52832 183.352 4.68665 183.035 5.00391C182.718 5.32124 182.56 5.70434 182.56 6.15234V6.48828C182.56 7.32822 182.867 8.00959 183.483 8.53223L187.207 11.7246C188.644 12.9939 189.363 14.5708 189.363 16.4561V16.792C189.363 18.2107 188.86 19.4246 187.852 20.4326C186.844 21.4405 185.621 21.9442 184.184 21.9443C182.765 21.9443 181.551 21.4405 180.543 20.4326C179.535 19.4246 179.031 18.2107 179.031 16.792V15.8682H182.56V16.792C182.56 17.24 182.718 17.6231 183.035 17.9404C183.352 18.2577 183.736 18.416 184.184 18.416C184.65 18.4159 185.042 18.2576 185.359 17.9404C185.677 17.6231 185.835 17.24 185.835 16.792V16.4561C185.835 15.6161 185.527 14.9348 184.911 14.4121L181.188 11.2197C179.75 9.95043 179.031 8.37355 179.031 6.48828V6.15234C179.031 4.73368 179.535 3.51972 180.543 2.51172C181.551 1.5038 182.765 1 184.184 1ZM219.623 1C221.06 1 222.283 1.50388 223.291 2.51172C224.299 3.51972 224.803 4.73368 224.803 6.15234V8.66406H221.275V6.15234C221.275 5.70434 221.116 5.32124 220.799 5.00391C220.482 4.68674 220.09 4.52832 219.623 4.52832C219.175 4.52833 218.792 4.68658 218.475 5.00391C218.157 5.32122 217.999 5.7044 217.999 6.15234V8.66406H214.535V9.66406H217.999V10.6641H214.535V11.6641H217.999V12.6641H214.535V13.6641H217.999V16.792C217.999 17.2399 218.157 17.6231 218.475 17.9404C218.792 18.2578 219.175 18.416 219.623 18.416C220.09 18.416 220.482 18.2576 220.799 17.9404C221.116 17.6231 221.275 17.24 221.275 16.792V13.6641H224.803V16.792C224.803 18.2107 224.299 19.4246 223.291 20.4326C222.283 21.4404 221.06 21.9443 219.623 21.9443C218.205 21.9443 216.991 21.4403 215.983 20.4326C214.975 19.4246 214.471 18.2107 214.471 16.792V6.15234C214.471 4.73368 214.975 3.51972 215.983 2.51172C216.991 1.50398 218.205 1.00001 219.623 1ZM463.633 1C465.07 1 466.293 1.50401 467.301 2.51172C468.309 3.51972 468.813 4.73368 468.813 6.15234V7.07617H465.285V6.15234C465.285 5.70437 465.127 5.32123 464.81 5.00391C464.492 4.68657 464.099 4.52832 463.633 4.52832C463.185 4.52842 462.803 4.68679 462.485 5.00391C462.168 5.32124 462.009 5.70434 462.009 6.15234V16.792C462.009 17.24 462.168 17.6231 462.485 17.9404C462.803 18.2575 463.185 18.4159 463.633 18.416C464.099 18.416 464.492 18.2578 464.81 17.9404C465.127 17.6231 465.285 17.24 465.285 16.792V12.8721H463.241V9.34375H468.813V16.792C468.813 18.2107 468.309 19.4246 467.301 20.4326C466.293 21.4403 465.07 21.9443 463.633 21.9443C462.214 21.9442 461.001 21.4404 459.993 20.4326C458.985 19.4246 458.481 18.2107 458.481 16.792V6.15234C458.481 4.73368 458.985 3.51972 459.993 2.51172C461.001 1.50394 462.214 1.0001 463.633 1ZM29.168 21.6641H25.6396V15.9521H29.168V21.6641ZM105.91 4.80859H102.41V21.6641H98.8818V4.80859H95.3818V1.28027H105.91V4.80859ZM127.254 21.6641H123.642L122.886 17.6318H119.47L118.714 21.6641H115.102L119.414 1.28027H122.941L127.254 21.6641ZM168.557 4.80859H162.816V9.34375H167.885V12.8721H162.816V18.1357H168.557V21.6641H159.288V1.28027H168.557V4.80859ZM245.601 4.80859H239.86V9.34375H244.929V12.8721H239.86V21.6641H236.332V1.28027H245.601V4.80859ZM279.501 4.80859H273.761V9.34375H278.829V12.8721H273.761V21.6641H270.233V1.28027H279.501V4.80859ZM293.651 21.6641H290.123V9.95215H293.651V21.6641ZM308.865 18.1357H313.653V21.6641H305.337V1.28027H308.865V18.1357ZM331.468 12.3965L335.164 1.28027H338.72V21.6641H335.191V10.5479L332.728 18.5H330.18L327.716 10.5479V21.6641H324.188V1.28027H327.744L331.468 12.3965ZM357.646 12.3965L361.343 1.28027H364.898V21.6641H361.371V10.5479L358.906 18.5H356.358L353.895 10.5479V21.6641H350.366V1.28027H353.923L357.646 12.3965ZM387.325 21.6641H383.714L382.958 17.6318H379.542L378.785 21.6641H375.174L379.485 1.28027H383.014L387.325 21.6641ZM401.14 9.87598L405.003 1.28027H408.923L404.779 9.65234L409.819 21.6641H405.983L402.819 13.6006L401.14 16.96V21.6641H397.611V1.28027H401.14V9.87598ZM423.682 21.6641H420.153V1.28027H423.682V21.6641ZM443.403 12.4238V1.28027H446.932V21.6641H443.403L438.896 10.5205V21.6641H435.367V1.28027H438.896L443.403 12.4238ZM29.168 14.9521H25.6396V13.9521H29.168V14.9521ZM120.113 14.1045H122.242L121.178 8.36426L120.113 14.1045ZM380.186 14.1045H382.313L381.25 8.36426L380.186 14.1045ZM29.168 12.9521H25.6396V11.9521H29.168V12.9521ZM224.803 12.6641H221.275V11.6641H224.803V12.6641ZM29.168 10.9521H25.6396V5.67578L22.9238 8.05566V3.66016L25.6396 1.28027H29.168V10.9521ZM224.803 10.6641H221.275V9.66406H224.803V10.6641ZM293.651 8.95215H290.123V7.95215H293.651V8.95215ZM293.651 6.95215H290.123V5.95215H293.651V6.95215ZM293.651 4.95215H290.123V1.28027H293.651V4.95215Z"/>
</mask>
<path d="M49.9805 4.80859H44.1289V9.31641C44.7635 8.99915 45.5009 8.83984 46.3408 8.83984C47.3486 8.83992 48.2068 9.19515 48.916 9.9043C49.6253 10.6136 49.9805 11.4725 49.9805 12.4805V17.2686C49.9804 18.5564 49.5133 19.6577 48.5801 20.5723C47.6655 21.4868 46.5642 21.9443 45.2764 21.9443C43.9885 21.9443 42.8873 21.4868 41.9727 20.5723C41.0581 19.6577 40.6007 18.5564 40.6006 17.2686V15.8682H44.1289V17.2686C44.129 17.5857 44.2409 17.8562 44.4648 18.0801C44.6888 18.304 44.9592 18.416 45.2764 18.416C45.6123 18.416 45.8922 18.304 46.1162 18.0801C46.3401 17.8562 46.4521 17.5857 46.4521 17.2686V13.3203C46.4521 12.9843 46.3402 12.7045 46.1162 12.4805C45.8922 12.2565 45.6124 12.1445 45.2764 12.1445C44.9591 12.1446 44.6888 12.2565 44.4648 12.4805C44.2408 12.7045 44.1289 12.9843 44.1289 13.3203H40.6006V1.28027H49.9805V4.80859ZM80.1133 1C81.5504 1.0001 82.7734 1.50383 83.7812 2.51172C84.7892 3.51972 85.293 4.73368 85.293 6.15234V7.07617H81.7646V6.15234C81.7646 5.70434 81.6064 5.32124 81.2891 5.00391C80.9718 4.68668 80.5798 4.52842 80.1133 4.52832C79.6653 4.52832 79.2822 4.68665 78.9648 5.00391C78.6475 5.32124 78.4893 5.70434 78.4893 6.15234V6.48828C78.4893 7.32822 78.7971 8.00959 79.4131 8.53223L83.1367 11.7246C84.5739 12.9939 85.2929 14.5708 85.293 16.4561V16.792C85.293 18.2107 84.7892 19.4246 83.7812 20.4326C82.7734 21.4405 81.5504 21.9442 80.1133 21.9443C78.6947 21.9443 77.4806 21.4405 76.4727 20.4326C75.4647 19.4246 74.9609 18.2107 74.9609 16.792V15.8682H78.4893V16.792C78.4893 17.24 78.6475 17.6231 78.9648 17.9404C79.2822 18.2577 79.6653 18.416 80.1133 18.416C80.5797 18.4159 80.9718 18.2576 81.2891 17.9404C81.6064 17.6231 81.7646 17.24 81.7646 16.792V16.4561C81.7646 15.6161 81.4568 14.9348 80.8408 14.4121L77.1172 11.2197C75.6799 9.95043 74.961 8.37355 74.9609 6.48828V6.15234C74.9609 4.73368 75.4647 3.51972 76.4727 2.51172C77.4806 1.50379 78.6947 1 80.1133 1ZM142.579 1C144.016 1 145.239 1.50395 146.247 2.51172C147.255 3.51972 147.76 4.73368 147.76 6.15234V7.07617H144.231V6.15234C144.231 5.70434 144.072 5.32124 143.755 5.00391C143.438 4.6868 143.046 4.52832 142.579 4.52832C142.131 4.52837 141.749 4.68681 141.432 5.00391C141.114 5.32124 140.955 5.70434 140.955 6.15234V16.792C140.955 17.24 141.114 17.6231 141.432 17.9404C141.749 18.2575 142.131 18.416 142.579 18.416C143.046 18.416 143.438 18.2575 143.755 17.9404C144.072 17.6231 144.231 17.24 144.231 16.792V12.8721H142.188V9.34375H147.76V16.792C147.76 18.2107 147.255 19.4246 146.247 20.4326C145.239 21.4404 144.016 21.9443 142.579 21.9443C141.161 21.9443 139.947 21.4404 138.939 20.4326C137.931 19.4246 137.428 18.2107 137.428 16.792V6.15234C137.428 4.73368 137.931 3.51972 138.939 2.51172C139.947 1.50396 141.161 1.00005 142.579 1ZM184.184 1C185.621 1.0001 186.844 1.50383 187.852 2.51172C188.86 3.51972 189.363 4.73368 189.363 6.15234V7.07617H185.835V6.15234C185.835 5.70434 185.677 5.32124 185.359 5.00391C185.042 4.68668 184.65 4.52842 184.184 4.52832C183.736 4.52832 183.352 4.68665 183.035 5.00391C182.718 5.32124 182.56 5.70434 182.56 6.15234V6.48828C182.56 7.32822 182.867 8.00959 183.483 8.53223L187.207 11.7246C188.644 12.9939 189.363 14.5708 189.363 16.4561V16.792C189.363 18.2107 188.86 19.4246 187.852 20.4326C186.844 21.4405 185.621 21.9442 184.184 21.9443C182.765 21.9443 181.551 21.4405 180.543 20.4326C179.535 19.4246 179.031 18.2107 179.031 16.792V15.8682H182.56V16.792C182.56 17.24 182.718 17.6231 183.035 17.9404C183.352 18.2577 183.736 18.416 184.184 18.416C184.65 18.4159 185.042 18.2576 185.359 17.9404C185.677 17.6231 185.835 17.24 185.835 16.792V16.4561C185.835 15.6161 185.527 14.9348 184.911 14.4121L181.188 11.2197C179.75 9.95043 179.031 8.37355 179.031 6.48828V6.15234C179.031 4.73368 179.535 3.51972 180.543 2.51172C181.551 1.5038 182.765 1 184.184 1ZM219.623 1C221.06 1 222.283 1.50388 223.291 2.51172C224.299 3.51972 224.803 4.73368 224.803 6.15234V8.66406H221.275V6.15234C221.275 5.70434 221.116 5.32124 220.799 5.00391C220.482 4.68674 220.09 4.52832 219.623 4.52832C219.175 4.52833 218.792 4.68658 218.475 5.00391C218.157 5.32122 217.999 5.7044 217.999 6.15234V8.66406H214.535V9.66406H217.999V10.6641H214.535V11.6641H217.999V12.6641H214.535V13.6641H217.999V16.792C217.999 17.2399 218.157 17.6231 218.475 17.9404C218.792 18.2578 219.175 18.416 219.623 18.416C220.09 18.416 220.482 18.2576 220.799 17.9404C221.116 17.6231 221.275 17.24 221.275 16.792V13.6641H224.803V16.792C224.803 18.2107 224.299 19.4246 223.291 20.4326C222.283 21.4404 221.06 21.9443 219.623 21.9443C218.205 21.9443 216.991 21.4403 215.983 20.4326C214.975 19.4246 214.471 18.2107 214.471 16.792V6.15234C214.471 4.73368 214.975 3.51972 215.983 2.51172C216.991 1.50398 218.205 1.00001 219.623 1ZM463.633 1C465.07 1 466.293 1.50401 467.301 2.51172C468.309 3.51972 468.813 4.73368 468.813 6.15234V7.07617H465.285V6.15234C465.285 5.70437 465.127 5.32123 464.81 5.00391C464.492 4.68657 464.099 4.52832 463.633 4.52832C463.185 4.52842 462.803 4.68679 462.485 5.00391C462.168 5.32124 462.009 5.70434 462.009 6.15234V16.792C462.009 17.24 462.168 17.6231 462.485 17.9404C462.803 18.2575 463.185 18.4159 463.633 18.416C464.099 18.416 464.492 18.2578 464.81 17.9404C465.127 17.6231 465.285 17.24 465.285 16.792V12.8721H463.241V9.34375H468.813V16.792C468.813 18.2107 468.309 19.4246 467.301 20.4326C466.293 21.4403 465.07 21.9443 463.633 21.9443C462.214 21.9442 461.001 21.4404 459.993 20.4326C458.985 19.4246 458.481 18.2107 458.481 16.792V6.15234C458.481 4.73368 458.985 3.51972 459.993 2.51172C461.001 1.50394 462.214 1.0001 463.633 1ZM29.168 21.6641H25.6396V15.9521H29.168V21.6641ZM105.91 4.80859H102.41V21.6641H98.8818V4.80859H95.3818V1.28027H105.91V4.80859ZM127.254 21.6641H123.642L122.886 17.6318H119.47L118.714 21.6641H115.102L119.414 1.28027H122.941L127.254 21.6641ZM168.557 4.80859H162.816V9.34375H167.885V12.8721H162.816V18.1357H168.557V21.6641H159.288V1.28027H168.557V4.80859ZM245.601 4.80859H239.86V9.34375H244.929V12.8721H239.86V21.6641H236.332V1.28027H245.601V4.80859ZM279.501 4.80859H273.761V9.34375H278.829V12.8721H273.761V21.6641H270.233V1.28027H279.501V4.80859ZM293.651 21.6641H290.123V9.95215H293.651V21.6641ZM308.865 18.1357H313.653V21.6641H305.337V1.28027H308.865V18.1357ZM331.468 12.3965L335.164 1.28027H338.72V21.6641H335.191V10.5479L332.728 18.5H330.18L327.716 10.5479V21.6641H324.188V1.28027H327.744L331.468 12.3965ZM357.646 12.3965L361.343 1.28027H364.898V21.6641H361.371V10.5479L358.906 18.5H356.358L353.895 10.5479V21.6641H350.366V1.28027H353.923L357.646 12.3965ZM387.325 21.6641H383.714L382.958 17.6318H379.542L378.785 21.6641H375.174L379.485 1.28027H383.014L387.325 21.6641ZM401.14 9.87598L405.003 1.28027H408.923L404.779 9.65234L409.819 21.6641H405.983L402.819 13.6006L401.14 16.96V21.6641H397.611V1.28027H401.14V9.87598ZM423.682 21.6641H420.153V1.28027H423.682V21.6641ZM443.403 12.4238V1.28027H446.932V21.6641H443.403L438.896 10.5205V21.6641H435.367V1.28027H438.896L443.403 12.4238ZM29.168 14.9521H25.6396V13.9521H29.168V14.9521ZM120.113 14.1045H122.242L121.178 8.36426L120.113 14.1045ZM380.186 14.1045H382.313L381.25 8.36426L380.186 14.1045ZM29.168 12.9521H25.6396V11.9521H29.168V12.9521ZM224.803 12.6641H221.275V11.6641H224.803V12.6641ZM29.168 10.9521H25.6396V5.67578L22.9238 8.05566V3.66016L25.6396 1.28027H29.168V10.9521ZM224.803 10.6641H221.275V9.66406H224.803V10.6641ZM293.651 8.95215H290.123V7.95215H293.651V8.95215ZM293.651 6.95215H290.123V5.95215H293.651V6.95215ZM293.651 4.95215H290.123V1.28027H293.651V4.95215Z" fill="url(#paint0_radial_7_217)"/>
<path d="M49.9805 4.80859V5.40859H50.5805V4.80859H49.9805ZM44.1289 4.80859V4.20859H43.5289V4.80859H44.1289ZM44.1289 9.31641H43.5289V10.2872L44.3972 9.85308L44.1289 9.31641ZM46.3408 8.83984L46.3409 8.23984H46.3408V8.83984ZM48.916 9.9043L49.3403 9.48003L49.3403 9.48001L48.916 9.9043ZM49.9805 17.2686L50.5805 17.2686V17.2686H49.9805ZM48.5801 20.5723L48.1601 20.1437L48.1558 20.148L48.5801 20.5723ZM45.2764 21.9443L45.2764 22.5443H45.2764V21.9443ZM41.9727 20.5723L41.5484 20.9965L41.5484 20.9965L41.9727 20.5723ZM40.6006 17.2686L40.0006 17.2686L40.0006 17.2686L40.6006 17.2686ZM40.6006 15.8682V15.2682H40.0006V15.8682H40.6006ZM44.1289 15.8682H44.7289V15.2682H44.1289V15.8682ZM44.1289 17.2686L43.5289 17.2686L43.5289 17.2687L44.1289 17.2686ZM44.4648 18.0801L44.0406 18.5043L44.0406 18.5044L44.4648 18.0801ZM45.2764 18.416L45.2763 19.016H45.2764V18.416ZM46.1162 18.0801L46.5404 18.5044L46.5405 18.5043L46.1162 18.0801ZM46.4521 17.2686L47.0521 17.2687V17.2686H46.4521ZM46.1162 12.4805L46.5405 12.0562L46.5405 12.0562L46.1162 12.4805ZM45.2764 12.1445L45.2764 11.5445L45.2763 11.5445L45.2764 12.1445ZM44.4648 12.4805L44.0406 12.0562L44.0406 12.0562L44.4648 12.4805ZM44.1289 13.3203V13.9203H44.7289V13.3203H44.1289ZM40.6006 13.3203H40.0006V13.9203H40.6006V13.3203ZM40.6006 1.28027V0.680273H40.0006V1.28027H40.6006ZM49.9805 1.28027H50.5805V0.680273H49.9805V1.28027ZM80.1133 1L80.1133 0.4H80.1133V1ZM83.7812 2.51172L84.2055 2.08745L84.2055 2.08745L83.7812 2.51172ZM85.293 7.07617V7.67617H85.893V7.07617H85.293ZM81.7646 7.07617H81.1646V7.67617H81.7646V7.07617ZM81.2891 5.00391L81.7133 4.57964L81.7133 4.57964L81.2891 5.00391ZM80.1133 4.52832L80.1134 3.92832H80.1133V4.52832ZM78.9648 5.00391L78.5406 4.57961L78.5406 4.57964L78.9648 5.00391ZM78.4893 6.48828L77.8893 6.48828L77.8893 6.4883L78.4893 6.48828ZM79.4131 8.53223L79.8036 8.07671L79.8013 8.07472L79.4131 8.53223ZM83.1367 11.7246L83.5339 11.2748L83.5272 11.2691L83.1367 11.7246ZM85.293 16.4561L85.893 16.4561L85.893 16.456L85.293 16.4561ZM83.7812 20.4326L84.2055 20.8569L84.2055 20.8569L83.7812 20.4326ZM80.1133 21.9443L80.1133 22.5443L80.1133 22.5443L80.1133 21.9443ZM76.4727 20.4326L76.0484 20.8569L76.0484 20.8569L76.4727 20.4326ZM74.9609 15.8682V15.2682H74.3609V15.8682H74.9609ZM78.4893 15.8682H79.0893V15.2682H78.4893V15.8682ZM78.9648 17.9404L78.5406 18.3647L78.5406 18.3647L78.9648 17.9404ZM80.1133 18.416L80.1133 19.016L80.1134 19.016L80.1133 18.416ZM81.2891 17.9404L81.7133 18.3647L81.7133 18.3647L81.2891 17.9404ZM81.7646 16.4561L82.3646 16.4561L82.3646 16.456L81.7646 16.4561ZM80.8408 14.4121L80.4503 14.8676L80.4526 14.8696L80.8408 14.4121ZM77.1172 11.2197L76.72 11.6695L76.7267 11.6752L77.1172 11.2197ZM74.9609 6.48828L74.3609 6.48828L74.3609 6.48829L74.9609 6.48828ZM76.4727 2.51172L76.0484 2.08744L76.0484 2.08745L76.4727 2.51172ZM142.579 1L142.579 0.4L142.579 0.4L142.579 1ZM146.247 2.51172L146.671 2.08745L146.671 2.08742L146.247 2.51172ZM147.76 7.07617V7.67617H148.36V7.07617H147.76ZM144.231 7.07617H143.631V7.67617H144.231V7.07617ZM143.755 5.00391L144.179 4.57964L144.179 4.57953L143.755 5.00391ZM142.579 4.52832L142.579 3.92832L142.579 3.92832L142.579 4.52832ZM141.432 5.00391L141.007 4.57956L141.007 4.57964L141.432 5.00391ZM141.432 17.9404L141.007 18.3647L141.007 18.3648L141.432 17.9404ZM142.579 18.416L142.579 19.016H142.579V18.416ZM143.755 17.9404L144.179 18.3648L144.179 18.3647L143.755 17.9404ZM144.231 12.8721H144.831V12.2721H144.231V12.8721ZM142.188 12.8721H141.587V13.4721H142.188V12.8721ZM142.188 9.34375V8.74375H141.587V9.34375H142.188ZM147.76 9.34375H148.36V8.74375H147.76V9.34375ZM146.247 20.4326L146.671 20.8569L146.671 20.8569L146.247 20.4326ZM142.579 21.9443L142.579 22.5443H142.579V21.9443ZM138.939 20.4326L138.515 20.8569L138.515 20.8569L138.939 20.4326ZM138.939 2.51172L138.515 2.08743L138.515 2.08745L138.939 2.51172ZM184.184 1L184.184 0.4H184.184V1ZM187.852 2.51172L188.276 2.08745L188.276 2.08745L187.852 2.51172ZM189.363 7.07617V7.67617H189.963V7.07617H189.363ZM185.835 7.07617H185.235V7.67617H185.835V7.07617ZM185.359 5.00391L185.784 4.57964L185.784 4.57964L185.359 5.00391ZM184.184 4.52832L184.184 3.92832H184.184V4.52832ZM183.035 5.00391L182.611 4.57961L182.611 4.57964L183.035 5.00391ZM182.56 6.48828L181.96 6.48828L181.96 6.4883L182.56 6.48828ZM183.483 8.53223L183.874 8.07671L183.872 8.07472L183.483 8.53223ZM187.207 11.7246L187.604 11.2748L187.598 11.2691L187.207 11.7246ZM189.363 16.4561L189.963 16.4561L189.963 16.456L189.363 16.4561ZM187.852 20.4326L188.276 20.8569L188.276 20.8569L187.852 20.4326ZM184.184 21.9443L184.184 22.5443L184.184 22.5443L184.184 21.9443ZM180.543 20.4326L180.119 20.8569L180.119 20.8569L180.543 20.4326ZM179.031 15.8682V15.2682H178.431V15.8682H179.031ZM182.56 15.8682H183.16V15.2682H182.56V15.8682ZM183.035 17.9404L182.611 18.3647L182.611 18.3647L183.035 17.9404ZM184.184 18.416L184.184 19.016L184.184 19.016L184.184 18.416ZM185.359 17.9404L185.784 18.3647L185.784 18.3647L185.359 17.9404ZM185.835 16.4561L186.435 16.4561L186.435 16.456L185.835 16.4561ZM184.911 14.4121L184.521 14.8676L184.523 14.8696L184.911 14.4121ZM181.188 11.2197L180.79 11.6695L180.797 11.6752L181.188 11.2197ZM179.031 6.48828L178.431 6.48828L178.431 6.48829L179.031 6.48828ZM180.543 2.51172L180.119 2.08744L180.119 2.08745L180.543 2.51172ZM219.623 1L219.623 0.4L219.623 0.4L219.623 1ZM223.291 2.51172L223.715 2.08745L223.715 2.08743L223.291 2.51172ZM224.803 8.66406V9.26406H225.403V8.66406H224.803ZM221.275 8.66406H220.675V9.26406H221.275V8.66406ZM220.799 5.00391L221.223 4.57964L221.223 4.57956L220.799 5.00391ZM219.623 4.52832L219.623 3.92832L219.623 3.92832L219.623 4.52832ZM218.475 5.00391L218.05 4.57964L218.05 4.57968L218.475 5.00391ZM217.999 8.66406V9.26406H218.599V8.66406H217.999ZM214.535 8.66406V8.06406H213.935V8.66406H214.535ZM214.535 9.66406H213.935V10.2641H214.535V9.66406ZM217.999 9.66406H218.599V9.06406H217.999V9.66406ZM217.999 10.6641V11.2641H218.599V10.6641H217.999ZM214.535 10.6641V10.0641H213.935V10.6641H214.535ZM214.535 11.6641H213.935V12.2641H214.535V11.6641ZM217.999 11.6641H218.599V11.0641H217.999V11.6641ZM217.999 12.6641V13.2641H218.599V12.6641H217.999ZM214.535 12.6641V12.0641H213.935V12.6641H214.535ZM214.535 13.6641H213.935V14.2641H214.535V13.6641ZM217.999 13.6641H218.599V13.0641H217.999V13.6641ZM218.475 17.9404L218.05 18.3647L218.05 18.3647L218.475 17.9404ZM219.623 18.416L219.623 19.016H219.623V18.416ZM220.799 17.9404L221.223 18.3648L221.223 18.3647L220.799 17.9404ZM221.275 13.6641V13.0641H220.675V13.6641H221.275ZM224.803 13.6641H225.403V13.0641H224.803V13.6641ZM223.291 20.4326L223.715 20.8569L223.715 20.8569L223.291 20.4326ZM219.623 21.9443L219.623 22.5443H219.623V21.9443ZM215.983 20.4326L215.559 20.8569L215.559 20.8569L215.983 20.4326ZM215.983 2.51172L215.559 2.08742L215.559 2.08745L215.983 2.51172ZM463.633 1L463.633 0.4L463.633 0.4L463.633 1ZM467.301 2.51172L467.725 2.08745L467.725 2.08741L467.301 2.51172ZM468.813 7.07617V7.67617H469.413V7.07617H468.813ZM465.285 7.07617H464.685V7.67617H465.285V7.07617ZM464.81 5.00391L465.234 4.57966L465.234 4.57964L464.81 5.00391ZM463.633 4.52832L463.633 3.92832L463.633 3.92832L463.633 4.52832ZM462.485 5.00391L462.061 4.57958L462.061 4.57964L462.485 5.00391ZM462.485 17.9404L462.061 18.3647L462.061 18.3648L462.485 17.9404ZM463.633 18.416L463.633 19.016H463.633V18.416ZM464.81 17.9404L465.234 18.3647L465.234 18.3647L464.81 17.9404ZM465.285 12.8721H465.885V12.2721H465.285V12.8721ZM463.241 12.8721H462.641V13.4721H463.241V12.8721ZM463.241 9.34375V8.74375H462.641V9.34375H463.241ZM468.813 9.34375H469.413V8.74375H468.813V9.34375ZM467.301 20.4326L467.725 20.8569L467.725 20.8569L467.301 20.4326ZM463.633 21.9443L463.633 22.5443H463.633V21.9443ZM459.993 20.4326L459.569 20.8569L459.569 20.8569L459.993 20.4326ZM459.993 2.51172L459.569 2.08744L459.569 2.08745L459.993 2.51172ZM29.168 21.6641V22.2641H29.768V21.6641H29.168ZM25.6396 21.6641H25.0396V22.2641H25.6396V21.6641ZM25.6396 15.9521V15.3521H25.0396V15.9521H25.6396ZM29.168 15.9521H29.768V15.3521H29.168V15.9521ZM105.91 4.80859V5.40859H106.51V4.80859H105.91ZM102.41 4.80859V4.20859H101.81V4.80859H102.41ZM102.41 21.6641V22.2641H103.01V21.6641H102.41ZM98.8818 21.6641H98.2818V22.2641H98.8818V21.6641ZM98.8818 4.80859H99.4818V4.20859H98.8818V4.80859ZM95.3818 4.80859H94.7818V5.40859H95.3818V4.80859ZM95.3818 1.28027V0.680273H94.7818V1.28027H95.3818ZM105.91 1.28027H106.51V0.680273H105.91V1.28027ZM127.254 21.6641V22.2641H127.994L127.841 21.5399L127.254 21.6641ZM123.642 21.6641L123.052 21.7746L123.144 22.2641H123.642V21.6641ZM122.886 17.6318L123.475 17.5213L123.384 17.0318H122.886V17.6318ZM119.47 17.6318V17.0318H118.972L118.88 17.5213L119.47 17.6318ZM118.714 21.6641V22.2641H119.212L119.304 21.7746L118.714 21.6641ZM115.102 21.6641L114.515 21.5399L114.361 22.2641H115.102V21.6641ZM119.414 1.28027V0.680273H118.928L118.827 1.15608L119.414 1.28027ZM122.941 1.28027L123.528 1.15608L123.428 0.680273H122.941V1.28027ZM168.557 4.80859V5.40859H169.157V4.80859H168.557ZM162.816 4.80859V4.20859H162.216V4.80859H162.816ZM162.816 9.34375H162.216V9.94375H162.816V9.34375ZM167.885 9.34375H168.485V8.74375H167.885V9.34375ZM167.885 12.8721V13.4721H168.485V12.8721H167.885ZM162.816 12.8721V12.2721H162.216V12.8721H162.816ZM162.816 18.1357H162.216V18.7357H162.816V18.1357ZM168.557 18.1357H169.157V17.5357H168.557V18.1357ZM168.557 21.6641V22.2641H169.157V21.6641H168.557ZM159.288 21.6641H158.688V22.2641H159.288V21.6641ZM159.288 1.28027V0.680273H158.688V1.28027H159.288ZM168.557 1.28027H169.157V0.680273H168.557V1.28027ZM245.601 4.80859V5.40859H246.201V4.80859H245.601ZM239.86 4.80859V4.20859H239.26V4.80859H239.86ZM239.86 9.34375H239.26V9.94375H239.86V9.34375ZM244.929 9.34375H245.529V8.74375H244.929V9.34375ZM244.929 12.8721V13.4721H245.529V12.8721H244.929ZM239.86 12.8721V12.2721H239.26V12.8721H239.86ZM239.86 21.6641V22.2641H240.46V21.6641H239.86ZM236.332 21.6641H235.732V22.2641H236.332V21.6641ZM236.332 1.28027V0.680273H235.732V1.28027H236.332ZM245.601 1.28027H246.201V0.680273H245.601V1.28027ZM279.501 4.80859V5.40859H280.101V4.80859H279.501ZM273.761 4.80859V4.20859H273.161V4.80859H273.761ZM273.761 9.34375H273.161V9.94375H273.761V9.34375ZM278.829 9.34375H279.429V8.74375H278.829V9.34375ZM278.829 12.8721V13.4721H279.429V12.8721H278.829ZM273.761 12.8721V12.2721H273.161V12.8721H273.761ZM273.761 21.6641V22.2641H274.361V21.6641H273.761ZM270.233 21.6641H269.633V22.2641H270.233V21.6641ZM270.233 1.28027V0.680273H269.633V1.28027H270.233ZM279.501 1.28027H280.101V0.680273H279.501V1.28027ZM293.651 21.6641V22.2641H294.251V21.6641H293.651ZM290.123 21.6641H289.523V22.2641H290.123V21.6641ZM290.123 9.95215V9.35215H289.523V9.95215H290.123ZM293.651 9.95215H294.251V9.35215H293.651V9.95215ZM308.865 18.1357H308.265V18.7357H308.865V18.1357ZM313.653 18.1357H314.253V17.5357H313.653V18.1357ZM313.653 21.6641V22.2641H314.253V21.6641H313.653ZM305.337 21.6641H304.737V22.2641H305.337V21.6641ZM305.337 1.28027V0.680273H304.737V1.28027H305.337ZM308.865 1.28027H309.465V0.680273H308.865V1.28027ZM331.468 12.3965L330.899 12.5871L331.47 14.2918L332.037 12.5858L331.468 12.3965ZM335.164 1.28027V0.680273H334.731L334.595 1.09096L335.164 1.28027ZM338.72 1.28027H339.32V0.680273H338.72V1.28027ZM338.72 21.6641V22.2641H339.32V21.6641H338.72ZM335.191 21.6641H334.591V22.2641H335.191V21.6641ZM335.191 10.5479H335.791L334.618 10.3703L335.191 10.5479ZM332.728 18.5V19.1H333.17L333.301 18.6776L332.728 18.5ZM330.18 18.5L329.607 18.6776L329.737 19.1H330.18V18.5ZM327.716 10.5479L328.289 10.3703L327.116 10.5479H327.716ZM327.716 21.6641V22.2641H328.316V21.6641H327.716ZM324.188 21.6641H323.587V22.2641H324.188V21.6641ZM324.188 1.28027V0.680273H323.587V1.28027H324.188ZM327.744 1.28027L328.313 1.0897L328.176 0.680273H327.744V1.28027ZM357.646 12.3965L357.078 12.5871L357.649 14.2918L358.216 12.5858L357.646 12.3965ZM361.343 1.28027V0.680273H360.91L360.773 1.09096L361.343 1.28027ZM364.898 1.28027H365.498V0.680273H364.898V1.28027ZM364.898 21.6641V22.2641H365.498V21.6641H364.898ZM361.371 21.6641H360.771V22.2641H361.371V21.6641ZM361.371 10.5479H361.971L360.798 10.3702L361.371 10.5479ZM358.906 18.5V19.1H359.348L359.479 18.6776L358.906 18.5ZM356.358 18.5L355.785 18.6776L355.916 19.1H356.358V18.5ZM353.895 10.5479L354.468 10.3703L353.295 10.5479H353.895ZM353.895 21.6641V22.2641H354.495V21.6641H353.895ZM350.366 21.6641H349.766V22.2641H350.366V21.6641ZM350.366 1.28027V0.680273H349.766V1.28027H350.366ZM353.923 1.28027L354.492 1.0897L354.355 0.680273H353.923V1.28027ZM387.325 21.6641V22.2641H388.065L387.912 21.5399L387.325 21.6641ZM383.714 21.6641L383.124 21.7746L383.216 22.2641H383.714V21.6641ZM382.958 17.6318L383.548 17.5213L383.456 17.0318H382.958V17.6318ZM379.542 17.6318V17.0318H379.044L378.952 17.5212L379.542 17.6318ZM378.785 21.6641V22.2641H379.283L379.375 21.7747L378.785 21.6641ZM375.174 21.6641L374.587 21.5399L374.434 22.2641H375.174V21.6641ZM379.485 1.28027V0.680273H378.999L378.898 1.15611L379.485 1.28027ZM383.014 1.28027L383.601 1.15611L383.5 0.680273H383.014V1.28027ZM401.14 9.87598H400.54L401.687 10.1219L401.14 9.87598ZM405.003 1.28027V0.680273H404.615L404.456 1.03431L405.003 1.28027ZM408.923 1.28027L409.461 1.54642L409.889 0.680273H408.923V1.28027ZM404.779 9.65234L404.242 9.3862L404.12 9.6318L404.226 9.88449L404.779 9.65234ZM409.819 21.6641V22.2641H410.722L410.373 21.4319L409.819 21.6641ZM405.983 21.6641L405.425 21.8832L405.574 22.2641H405.983V21.6641ZM402.819 13.6006L403.378 13.3814L402.885 12.1266L402.283 13.3323L402.819 13.6006ZM401.14 16.96L400.603 16.6916L400.54 16.8183V16.96H401.14ZM401.14 21.6641V22.2641H401.74V21.6641H401.14ZM397.611 21.6641H397.011V22.2641H397.611V21.6641ZM397.611 1.28027V0.680273H397.011V1.28027H397.611ZM401.14 1.28027H401.74V0.680273H401.14V1.28027ZM423.682 21.6641V22.2641H424.282V21.6641H423.682ZM420.153 21.6641H419.553V22.2641H420.153V21.6641ZM420.153 1.28027V0.680273H419.553V1.28027H420.153ZM423.682 1.28027H424.282V0.680273H423.682V1.28027ZM443.403 12.4238L442.847 12.6488L444.003 12.4238H443.403ZM443.403 1.28027V0.680273H442.803V1.28027H443.403ZM446.932 1.28027H447.532V0.680273H446.932V1.28027ZM446.932 21.6641V22.2641H447.532V21.6641H446.932ZM443.403 21.6641L442.847 21.8891L442.999 22.2641H443.403V21.6641ZM438.896 10.5205L439.452 10.2955L438.296 10.5205H438.896ZM438.896 21.6641V22.2641H439.496V21.6641H438.896ZM435.367 21.6641H434.767V22.2641H435.367V21.6641ZM435.367 1.28027V0.680273H434.767V1.28027H435.367ZM438.896 1.28027L439.452 1.05527L439.3 0.680273H438.896V1.28027ZM29.168 14.9521V15.5521H29.768V14.9521H29.168ZM25.6396 14.9521H25.0396V15.5521H25.6396V14.9521ZM25.6396 13.9521V13.3521H25.0396V13.9521H25.6396ZM29.168 13.9521H29.768V13.3521H29.168V13.9521ZM120.113 14.1045L119.523 13.9951L119.392 14.7045H120.113V14.1045ZM122.242 14.1045V14.7045H122.964L122.832 13.9951L122.242 14.1045ZM121.178 8.36426L121.768 8.25486H120.588L121.178 8.36426ZM380.186 14.1045L379.596 13.9951L379.464 14.7045H380.186V14.1045ZM382.313 14.1045V14.7045H383.035L382.903 13.9952L382.313 14.1045ZM381.25 8.36426L381.84 8.25496L380.66 8.25486L381.25 8.36426ZM29.168 12.9521V13.5521H29.768V12.9521H29.168ZM25.6396 12.9521H25.0396V13.5521H25.6396V12.9521ZM25.6396 11.9521V11.3521H25.0396V11.9521H25.6396ZM29.168 11.9521H29.768V11.3521H29.168V11.9521ZM224.803 12.6641V13.2641H225.403V12.6641H224.803ZM221.275 12.6641H220.675V13.2641H221.275V12.6641ZM221.275 11.6641V11.0641H220.675V11.6641H221.275ZM224.803 11.6641H225.403V11.0641H224.803V11.6641ZM29.168 10.9521V11.5521H29.768V10.9521H29.168ZM25.6396 10.9521H25.0396V11.5521H25.6396V10.9521ZM25.6396 5.67578H26.2396V4.35222L25.2442 5.22453L25.6396 5.67578ZM22.9238 8.05566H22.3238V9.37922L23.3193 8.50692L22.9238 8.05566ZM22.9238 3.66016L22.5284 3.2089L22.3238 3.38816V3.66016H22.9238ZM25.6396 1.28027V0.680273H25.414L25.2442 0.829019L25.6396 1.28027ZM29.168 1.28027H29.768V0.680273H29.168V1.28027ZM224.803 10.6641V11.2641H225.403V10.6641H224.803ZM221.275 10.6641H220.675V11.2641H221.275V10.6641ZM221.275 9.66406V9.06406H220.675V9.66406H221.275ZM224.803 9.66406H225.403V9.06406H224.803V9.66406ZM293.651 8.95215V9.55215H294.251V8.95215H293.651ZM290.123 8.95215H289.523V9.55215H290.123V8.95215ZM290.123 7.95215V7.35215H289.523V7.95215H290.123ZM293.651 7.95215H294.251V7.35215H293.651V7.95215ZM293.651 6.95215V7.55215H294.251V6.95215H293.651ZM290.123 6.95215H289.523V7.55215H290.123V6.95215ZM290.123 5.95215V5.35215H289.523V5.95215H290.123ZM293.651 5.95215H294.251V5.35215H293.651V5.95215ZM293.651 4.95215V5.55215H294.251V4.95215H293.651ZM290.123 4.95215H289.523V5.55215H290.123V4.95215ZM290.123 1.28027V0.680273H289.523V1.28027H290.123ZM293.651 1.28027H294.251V0.680273H293.651V1.28027ZM49.9805 4.80859V4.20859H44.1289V4.80859V5.40859H49.9805V4.80859ZM44.1289 4.80859H43.5289V9.31641H44.1289H44.7289V4.80859H44.1289ZM44.1289 9.31641L44.3972 9.85308C44.9348 9.58432 45.5774 9.43984 46.3408 9.43984V8.83984V8.23984C45.4244 8.23984 44.5922 8.41398 43.8606 8.77973L44.1289 9.31641ZM46.3408 8.83984L46.3408 9.43984C47.19 9.43991 47.8954 9.73232 48.4918 10.3286L48.916 9.9043L49.3403 9.48001C48.5181 8.65798 47.5072 8.23994 46.3409 8.23984L46.3408 8.83984ZM48.916 9.9043L48.4918 10.3286C49.0881 10.9249 49.3805 11.6309 49.3805 12.4805H49.9805H50.5805C50.5805 11.314 50.1626 10.3024 49.3403 9.48003L48.916 9.9043ZM49.9805 12.4805H49.3805V17.2686H49.9805H50.5805V12.4805H49.9805ZM49.9805 17.2686L49.3805 17.2685C49.3804 18.3924 48.9802 19.3401 48.1601 20.1437L48.5801 20.5723L49 21.0008C50.0464 19.9753 50.5804 18.7204 50.5805 17.2686L49.9805 17.2686ZM48.5801 20.5723L48.1558 20.148C47.3531 20.9506 46.4043 21.3443 45.2764 21.3443V21.9443V22.5443C46.7242 22.5443 47.9778 22.0229 49.0043 20.9966L48.5801 20.5723ZM45.2764 21.9443L45.2764 21.3443C44.1485 21.3443 43.1996 20.9506 42.3969 20.148L41.9727 20.5723L41.5484 20.9965C42.5749 22.023 43.8285 22.5443 45.2764 22.5443L45.2764 21.9443ZM41.9727 20.5723L42.3969 20.148C41.5943 19.3454 41.2007 18.3964 41.2006 17.2685L40.6006 17.2686L40.0006 17.2686C40.0007 18.7163 40.5219 19.97 41.5484 20.9965L41.9727 20.5723ZM40.6006 17.2686H41.2006V15.8682H40.6006H40.0006V17.2686H40.6006ZM40.6006 15.8682V16.4682H44.1289V15.8682V15.2682H40.6006V15.8682ZM44.1289 15.8682H43.5289V17.2686H44.1289H44.7289V15.8682H44.1289ZM44.1289 17.2686L43.5289 17.2687C43.529 17.7446 43.704 18.1677 44.0406 18.5043L44.4648 18.0801L44.8891 17.6558C44.7779 17.5446 44.729 17.4268 44.7289 17.2684L44.1289 17.2686ZM44.4648 18.0801L44.0406 18.5044C44.3771 18.8408 44.8001 19.016 45.2763 19.016L45.2764 18.416L45.2764 17.816C45.1182 17.816 45.0004 17.7671 44.889 17.6557L44.4648 18.0801ZM45.2764 18.416V19.016C45.7608 19.016 46.1966 18.8481 46.5404 18.5044L46.1162 18.0801L45.692 17.6558C45.5878 17.7599 45.4638 17.816 45.2764 17.816V18.416ZM46.1162 18.0801L46.5405 18.5043C46.8771 18.1677 47.052 17.7446 47.0521 17.2687L46.4521 17.2686L45.8521 17.2684C45.8521 17.4268 45.8031 17.5446 45.6919 17.6558L46.1162 18.0801ZM46.4521 17.2686H47.0521V13.3203H46.4521H45.8521V17.2686H46.4521ZM46.4521 13.3203H47.0521C47.0521 12.8359 46.8843 12.4001 46.5405 12.0562L46.1162 12.4805L45.6919 12.9047C45.7961 13.0089 45.8521 13.1328 45.8521 13.3203H46.4521ZM46.1162 12.4805L46.5405 12.0562C46.1966 11.7123 45.7608 11.5445 45.2764 11.5445V12.1445V12.7445C45.464 12.7445 45.5878 12.8006 45.6919 12.9047L46.1162 12.4805ZM45.2764 12.1445L45.2763 11.5445C44.8001 11.5446 44.3772 11.7196 44.0406 12.0562L44.4648 12.4805L44.8891 12.9047C45.0004 12.7934 45.1181 12.7445 45.2764 12.7445L45.2764 12.1445ZM44.4648 12.4805L44.0406 12.0562C43.6967 12.4001 43.5289 12.8359 43.5289 13.3203H44.1289H44.7289C44.7289 13.1327 44.785 13.0089 44.8891 12.9047L44.4648 12.4805ZM44.1289 13.3203V12.7203H40.6006V13.3203V13.9203H44.1289V13.3203ZM40.6006 13.3203H41.2006V1.28027H40.6006H40.0006V13.3203H40.6006ZM40.6006 1.28027V1.88027H49.9805V1.28027V0.680273H40.6006V1.28027ZM49.9805 1.28027H49.3805V4.80859H49.9805H50.5805V1.28027H49.9805ZM80.1133 1L80.1132 1.6C81.3929 1.60009 82.4627 2.04174 83.357 2.93598L83.7812 2.51172L84.2055 2.08745C83.084 0.965922 81.708 0.400109 80.1133 0.4L80.1133 1ZM83.7812 2.51172L83.357 2.93598C84.253 3.83196 84.693 4.89351 84.693 6.15234H85.293H85.893C85.893 4.57385 85.3255 3.20748 84.2055 2.08745L83.7812 2.51172ZM85.293 6.15234H84.693V7.07617H85.293H85.893V6.15234H85.293ZM85.293 7.07617V6.47617H81.7646V7.07617V7.67617H85.293V7.07617ZM81.7646 7.07617H82.3646V6.15234H81.7646H81.1646V7.07617H81.7646ZM81.7646 6.15234H82.3646C82.3646 5.54548 82.1434 5.00968 81.7133 4.57964L81.2891 5.00391L80.8648 5.42817C81.0694 5.6328 81.1646 5.86321 81.1646 6.15234H81.7646ZM81.2891 5.00391L81.7133 4.57964C81.2784 4.14471 80.7314 3.92845 80.1134 3.92832L80.1133 4.52832L80.1132 5.12832C80.4281 5.12838 80.6653 5.22865 80.8648 5.42818L81.2891 5.00391ZM80.1133 4.52832V3.92832C79.5064 3.92832 78.9706 4.1497 78.5406 4.57961L78.9648 5.00391L79.3891 5.42821C79.5937 5.22359 79.8242 5.12832 80.1133 5.12832V4.52832ZM78.9648 5.00391L78.5406 4.57964C78.1105 5.00968 77.8893 5.54548 77.8893 6.15234H78.4893H79.0893C79.0893 5.86321 79.1845 5.6328 79.3891 5.42817L78.9648 5.00391ZM78.4893 6.15234H77.8893V6.48828H78.4893H79.0893V6.15234H78.4893ZM78.4893 6.48828L77.8893 6.4883C77.8893 7.49629 78.2685 8.34793 79.0249 8.98973L79.4131 8.53223L79.8013 8.07472C79.3257 7.67125 79.0893 7.16015 79.0893 6.48826L78.4893 6.48828ZM79.4131 8.53223L79.0226 8.98774L82.7462 12.1801L83.1367 11.7246L83.5272 11.2691L79.8036 8.07671L79.4131 8.53223ZM83.1367 11.7246L82.7395 12.1743C84.0504 13.332 84.6929 14.7464 84.693 16.4561L85.293 16.4561L85.893 16.456C85.8929 14.3953 85.0974 12.6558 83.5339 11.2749L83.1367 11.7246ZM85.293 16.4561H84.693V16.792H85.293H85.893V16.4561H85.293ZM85.293 16.792H84.693C84.693 18.0508 84.253 19.1124 83.357 20.0084L83.7812 20.4326L84.2055 20.8569C85.3255 19.7369 85.893 18.3705 85.893 16.792H85.293ZM83.7812 20.4326L83.357 20.0083C82.4627 20.9026 81.3929 21.3442 80.1132 21.3443L80.1133 21.9443L80.1133 22.5443C81.708 22.5442 83.084 21.9784 84.2055 20.8569L83.7812 20.4326ZM80.1133 21.9443V21.3443C78.8545 21.3443 77.7929 20.9042 76.8969 20.0083L76.4727 20.4326L76.0484 20.8569C77.1684 21.9768 78.5348 22.5443 80.1133 22.5443V21.9443ZM76.4727 20.4326L76.8969 20.0084C76.0009 19.1124 75.5609 18.0508 75.5609 16.792H74.9609H74.3609C74.3609 18.3705 74.9284 19.7369 76.0484 20.8569L76.4727 20.4326ZM74.9609 16.792H75.5609V15.8682H74.9609H74.3609V16.792H74.9609ZM74.9609 15.8682V16.4682H78.4893V15.8682V15.2682H74.9609V15.8682ZM78.4893 15.8682H77.8893V16.792H78.4893H79.0893V15.8682H78.4893ZM78.4893 16.792H77.8893C77.8893 17.3989 78.1105 17.9347 78.5406 18.3647L78.9648 17.9404L79.3891 17.5162C79.1845 17.3115 79.0893 17.0811 79.0893 16.792H78.4893ZM78.9648 17.9404L78.5406 18.3647C78.9706 18.7946 79.5064 19.016 80.1133 19.016V18.416V17.816C79.8243 17.816 79.5937 17.7207 79.3891 17.5161L78.9648 17.9404ZM80.1133 18.416L80.1134 19.016C80.7314 19.0159 81.2784 18.7996 81.7133 18.3647L81.2891 17.9404L80.8648 17.5162C80.6653 17.7157 80.4281 17.816 80.1132 17.816L80.1133 18.416ZM81.2891 17.9404L81.7133 18.3647C82.1434 17.9347 82.3646 17.3989 82.3646 16.792H81.7646H81.1646C81.1646 17.0811 81.0694 17.3115 80.8648 17.5162L81.2891 17.9404ZM81.7646 16.792H82.3646V16.4561H81.7646H81.1646V16.792H81.7646ZM81.7646 16.4561L82.3646 16.456C82.3646 15.448 81.9854 14.5964 81.229 13.9546L80.8408 14.4121L80.4526 14.8696C80.9282 15.2731 81.1646 15.7842 81.1646 16.4561L81.7646 16.4561ZM80.8408 14.4121L81.2313 13.9566L77.5077 10.7642L77.1172 11.2197L76.7267 11.6752L80.4503 14.8676L80.8408 14.4121ZM77.1172 11.2197L77.5144 10.77C76.2034 9.61229 75.561 8.19803 75.5609 6.48827L74.9609 6.48828L74.3609 6.48829C74.361 8.54906 75.1564 10.2886 76.72 11.6695L77.1172 11.2197ZM74.9609 6.48828H75.5609V6.15234H74.9609H74.3609V6.48828H74.9609ZM74.9609 6.15234H75.5609C75.5609 4.89351 76.0009 3.83196 76.8969 2.93598L76.4727 2.51172L76.0484 2.08745C74.9284 3.20748 74.3609 4.57385 74.3609 6.15234H74.9609ZM76.4727 2.51172L76.8969 2.93599C77.7929 2.04008 78.8545 1.6 80.1133 1.6V1V0.4C78.5348 0.4 77.1684 0.967513 76.0484 2.08744L76.4727 2.51172ZM142.579 1V1.6C143.859 1.6 144.928 2.04181 145.823 2.93602L146.247 2.51172L146.671 2.08742C145.55 0.966087 144.174 0.4 142.579 0.4V1ZM146.247 2.51172L145.823 2.93598C146.719 3.83217 147.16 4.8938 147.16 6.15234H147.76H148.36C148.36 4.57355 147.791 3.20727 146.671 2.08745L146.247 2.51172ZM147.76 6.15234H147.16V7.07617H147.76H148.36V6.15234H147.76ZM147.76 7.07617V6.47617H144.231V7.07617V7.67617H147.76V7.07617ZM144.231 7.07617H144.831V6.15234H144.231H143.631V7.07617H144.231ZM144.231 6.15234H144.831C144.831 5.54454 144.609 5.00902 144.179 4.57964L143.755 5.00391L143.331 5.42817C143.536 5.63346 143.631 5.86415 143.631 6.15234H144.231ZM143.755 5.00391L144.179 4.57953C143.744 4.14498 143.197 3.92832 142.579 3.92832V4.52832V5.12832C142.894 5.12832 143.131 5.22863 143.331 5.42828L143.755 5.00391ZM142.579 4.52832L142.579 3.92832C141.972 3.92839 141.437 4.15014 141.007 4.57956L141.432 5.00391L141.856 5.42826C142.061 5.22348 142.291 5.12835 142.579 5.12832L142.579 4.52832ZM141.432 5.00391L141.007 4.57964C140.578 5.00902 140.355 5.54454 140.355 6.15234H140.955H141.555C141.555 5.86415 141.651 5.63346 141.856 5.42817L141.432 5.00391ZM140.955 6.15234H140.355V16.792H140.955H141.555V6.15234H140.955ZM140.955 16.792H140.355C140.355 17.3998 140.578 17.9353 141.007 18.3647L141.432 17.9404L141.856 17.5162C141.651 17.3109 141.555 17.0802 141.555 16.792H140.955ZM141.432 17.9404L141.007 18.3648C141.437 18.7942 141.972 19.0159 142.579 19.016L142.579 18.416L142.579 17.816C142.291 17.816 142.061 17.7208 141.856 17.5161L141.432 17.9404ZM142.579 18.416V19.016C143.197 19.016 143.744 18.7993 144.179 18.3648L143.755 17.9404L143.331 17.516C143.131 17.7157 142.894 17.816 142.579 17.816V18.416ZM143.755 17.9404L144.179 18.3647C144.609 17.9353 144.831 17.3998 144.831 16.792H144.231H143.631C143.631 17.0802 143.536 17.3109 143.331 17.5162L143.755 17.9404ZM144.231 16.792H144.831V12.8721H144.231H143.631V16.792H144.231ZM144.231 12.8721V12.2721H142.188V12.8721V13.4721H144.231V12.8721ZM142.188 12.8721H142.788V9.34375H142.188H141.587V12.8721H142.188ZM142.188 9.34375V9.94375H147.76V9.34375V8.74375H142.188V9.34375ZM147.76 9.34375H147.16V16.792H147.76H148.36V9.34375H147.76ZM147.76 16.792H147.16C147.16 18.0505 146.719 19.1122 145.823 20.0084L146.247 20.4326L146.671 20.8569C147.791 19.7371 148.36 18.3708 148.36 16.792H147.76ZM146.247 20.4326L145.823 20.0083C144.928 20.9025 143.859 21.3443 142.579 21.3443V21.9443V22.5443C144.174 22.5443 145.55 21.9782 146.671 20.8569L146.247 20.4326ZM142.579 21.9443L142.579 21.3443C141.321 21.3443 140.26 20.9042 139.364 20.0083L138.939 20.4326L138.515 20.8569C139.635 21.9766 141.001 22.5443 142.579 22.5443L142.579 21.9443ZM138.939 20.4326L139.364 20.0084C138.468 19.1124 138.028 18.0508 138.028 16.792H137.428H136.828C136.828 18.3705 137.395 19.7369 138.515 20.8569L138.939 20.4326ZM137.428 16.792H138.028V6.15234H137.428H136.828V16.792H137.428ZM137.428 6.15234H138.028C138.028 4.89351 138.468 3.83196 139.364 2.93598L138.939 2.51172L138.515 2.08745C137.395 3.20748 136.828 4.57385 136.828 6.15234H137.428ZM138.939 2.51172L139.364 2.93601C140.26 2.04015 141.321 1.60005 142.579 1.6L142.579 1L142.579 0.4C141.001 0.40006 139.635 0.967762 138.515 2.08743L138.939 2.51172ZM184.184 1L184.184 1.6C185.463 1.60009 186.533 2.04174 187.427 2.93598L187.852 2.51172L188.276 2.08745C187.154 0.96592 185.778 0.400111 184.184 0.4L184.184 1ZM187.852 2.51172L187.427 2.93598C188.323 3.83196 188.763 4.89351 188.763 6.15234H189.363H189.963C189.963 4.57385 189.396 3.20748 188.276 2.08745L187.852 2.51172ZM189.363 6.15234H188.763V7.07617H189.363H189.963V6.15234H189.363ZM189.363 7.07617V6.47617H185.835V7.07617V7.67617H189.363V7.07617ZM185.835 7.07617H186.435V6.15234H185.835H185.235V7.07617H185.835ZM185.835 6.15234H186.435C186.435 5.54548 186.214 5.00968 185.784 4.57964L185.359 5.00391L184.935 5.42817C185.14 5.6328 185.235 5.86321 185.235 6.15234H185.835ZM185.359 5.00391L185.784 4.57964C185.349 4.14471 184.802 3.92845 184.184 3.92832L184.184 4.52832L184.183 5.12832C184.498 5.12839 184.736 5.22865 184.935 5.42818L185.359 5.00391ZM184.184 4.52832V3.92832C183.577 3.92832 183.041 4.14971 182.611 4.57961L183.035 5.00391L183.459 5.42821C183.664 5.2236 183.895 5.12832 184.184 5.12832V4.52832ZM183.035 5.00391L182.611 4.57964C182.181 5.00968 181.96 5.54548 181.96 6.15234H182.56H183.16C183.16 5.86321 183.255 5.6328 183.459 5.42817L183.035 5.00391ZM182.56 6.15234H181.96V6.48828H182.56H183.16V6.15234H182.56ZM182.56 6.48828L181.96 6.4883C181.96 7.49629 182.339 8.34793 183.095 8.98973L183.483 8.53223L183.872 8.07472C183.396 7.67125 183.16 7.16015 183.16 6.48826L182.56 6.48828ZM183.483 8.53223L183.093 8.98774L186.817 12.1801L187.207 11.7246L187.598 11.2691L183.874 8.07671L183.483 8.53223ZM187.207 11.7246L186.81 12.1743C188.121 13.332 188.763 14.7464 188.763 16.4561L189.363 16.4561L189.963 16.456C189.963 14.3953 189.168 12.6558 187.604 11.2749L187.207 11.7246ZM189.363 16.4561H188.763V16.792H189.363H189.963V16.4561H189.363ZM189.363 16.792H188.763C188.763 18.0508 188.323 19.1124 187.427 20.0084L187.852 20.4326L188.276 20.8569C189.396 19.7369 189.963 18.3705 189.963 16.792H189.363ZM187.852 20.4326L187.427 20.0083C186.533 20.9026 185.463 21.3442 184.184 21.3443L184.184 21.9443L184.184 22.5443C185.778 22.5442 187.154 21.9784 188.276 20.8569L187.852 20.4326ZM184.184 21.9443V21.3443C182.925 21.3443 181.863 20.9042 180.967 20.0083L180.543 20.4326L180.119 20.8569C181.239 21.9768 182.605 22.5443 184.184 22.5443V21.9443ZM180.543 20.4326L180.967 20.0084C180.071 19.1124 179.631 18.0508 179.631 16.792H179.031H178.431C178.431 18.3705 178.999 19.7369 180.119 20.8569L180.543 20.4326ZM179.031 16.792H179.631V15.8682H179.031H178.431V16.792H179.031ZM179.031 15.8682V16.4682H182.56V15.8682V15.2682H179.031V15.8682ZM182.56 15.8682H181.96V16.792H182.56H183.16V15.8682H182.56ZM182.56 16.792H181.96C181.96 17.3989 182.181 17.9347 182.611 18.3647L183.035 17.9404L183.459 17.5162C183.255 17.3115 183.16 17.0811 183.16 16.792H182.56ZM183.035 17.9404L182.611 18.3647C183.041 18.7946 183.577 19.016 184.184 19.016V18.416V17.816C183.895 17.816 183.664 17.7207 183.459 17.5161L183.035 17.9404ZM184.184 18.416L184.184 19.016C184.802 19.0159 185.349 18.7996 185.784 18.3647L185.359 17.9404L184.935 17.5162C184.736 17.7157 184.498 17.8159 184.183 17.816L184.184 18.416ZM185.359 17.9404L185.784 18.3647C186.214 17.9347 186.435 17.3989 186.435 16.792H185.835H185.235C185.235 17.0811 185.14 17.3115 184.935 17.5162L185.359 17.9404ZM185.835 16.792H186.435V16.4561H185.835H185.235V16.792H185.835ZM185.835 16.4561L186.435 16.456C186.435 15.448 186.056 14.5964 185.299 13.9546L184.911 14.4121L184.523 14.8696C184.998 15.2731 185.235 15.7842 185.235 16.4561L185.835 16.4561ZM184.911 14.4121L185.302 13.9566L181.578 10.7642L181.188 11.2197L180.797 11.6752L184.521 14.8676L184.911 14.4121ZM181.188 11.2197L181.585 10.77C180.274 9.61228 179.631 8.19803 179.631 6.48827L179.031 6.48828L178.431 6.48829C178.431 8.54906 179.227 10.2886 180.79 11.6695L181.188 11.2197ZM179.031 6.48828H179.631V6.15234H179.031H178.431V6.48828H179.031ZM179.031 6.15234H179.631C179.631 4.89351 180.071 3.83196 180.967 2.93598L180.543 2.51172L180.119 2.08745C178.999 3.20748 178.431 4.57385 178.431 6.15234H179.031ZM180.543 2.51172L180.967 2.93599C181.863 2.04008 182.925 1.6 184.184 1.6V1V0.4C182.605 0.4 181.239 0.967516 180.119 2.08744L180.543 2.51172ZM219.623 1V1.6C220.903 1.6 221.972 2.04175 222.867 2.93601L223.291 2.51172L223.715 2.08743C222.594 0.966014 221.218 0.4 219.623 0.4V1ZM223.291 2.51172L222.867 2.93598C223.763 3.83196 224.203 4.89351 224.203 6.15234H224.803H225.403C225.403 4.57385 224.835 3.20748 223.715 2.08745L223.291 2.51172ZM224.803 6.15234H224.203V8.66406H224.803H225.403V6.15234H224.803ZM224.803 8.66406V8.06406H221.275V8.66406V9.26406H224.803V8.66406ZM221.275 8.66406H221.875V6.15234H221.275H220.675V8.66406H221.275ZM221.275 6.15234H221.875C221.875 5.54454 221.652 5.00902 221.223 4.57964L220.799 5.00391L220.375 5.42817C220.58 5.63346 220.675 5.86415 220.675 6.15234H221.275ZM220.799 5.00391L221.223 4.57956C220.788 4.14489 220.241 3.92832 219.623 3.92832V4.52832V5.12832C219.938 5.12832 220.175 5.22859 220.375 5.42825L220.799 5.00391ZM219.623 4.52832L219.623 3.92832C219.016 3.92833 218.48 4.1496 218.05 4.57964L218.475 5.00391L218.899 5.42817C219.103 5.22356 219.334 5.12832 219.623 5.12832L219.623 4.52832ZM218.475 5.00391L218.05 4.57968C217.62 5.00965 217.399 5.54549 217.399 6.15234H217.999H218.599C218.599 5.8633 218.694 5.63278 218.899 5.42813L218.475 5.00391ZM217.999 6.15234H217.399V8.66406H217.999H218.599V6.15234H217.999ZM217.999 8.66406V8.06406H214.535V8.66406V9.26406H217.999V8.66406ZM214.535 8.66406H213.935V9.66406H214.535H215.135V8.66406H214.535ZM214.535 9.66406V10.2641H217.999V9.66406V9.06406H214.535V9.66406ZM217.999 9.66406H217.399V10.6641H217.999H218.599V9.66406H217.999ZM217.999 10.6641V10.0641H214.535V10.6641V11.2641H217.999V10.6641ZM214.535 10.6641H213.935V11.6641H214.535H215.135V10.6641H214.535ZM214.535 11.6641V12.2641H217.999V11.6641V11.0641H214.535V11.6641ZM217.999 11.6641H217.399V12.6641H217.999H218.599V11.6641H217.999ZM217.999 12.6641V12.0641H214.535V12.6641V13.2641H217.999V12.6641ZM214.535 12.6641H213.935V13.6641H214.535H215.135V12.6641H214.535ZM214.535 13.6641V14.2641H217.999V13.6641V13.0641H214.535V13.6641ZM217.999 13.6641H217.399V16.792H217.999H218.599V13.6641H217.999ZM217.999 16.792H217.399C217.399 17.3988 217.62 17.9347 218.05 18.3647L218.475 17.9404L218.899 17.5162C218.694 17.3116 218.599 17.081 218.599 16.792H217.999ZM218.475 17.9404L218.05 18.3647C218.48 18.7947 219.016 19.016 219.623 19.016L219.623 18.416L219.623 17.816C219.334 17.816 219.103 17.7208 218.899 17.5162L218.475 17.9404ZM219.623 18.416V19.016C220.241 19.016 220.788 18.7994 221.223 18.3648L220.799 17.9404L220.375 17.5161C220.175 17.7157 219.938 17.816 219.623 17.816V18.416ZM220.799 17.9404L221.223 18.3647C221.652 17.9353 221.875 17.3998 221.875 16.792H221.275H220.675C220.675 17.0802 220.58 17.3109 220.375 17.5162L220.799 17.9404ZM221.275 16.792H221.875V13.6641H221.275H220.675V16.792H221.275ZM221.275 13.6641V14.2641H224.803V13.6641V13.0641H221.275V13.6641ZM224.803 13.6641H224.203V16.792H224.803H225.403V13.6641H224.803ZM224.803 16.792H224.203C224.203 18.0508 223.763 19.1124 222.867 20.0084L223.291 20.4326L223.715 20.8569C224.835 19.7369 225.403 18.3705 225.403 16.792H224.803ZM223.291 20.4326L222.867 20.0083C221.972 20.9026 220.903 21.3443 219.623 21.3443V21.9443V22.5443C221.218 22.5443 222.594 21.9783 223.715 20.8569L223.291 20.4326ZM219.623 21.9443L219.623 21.3443C218.365 21.3443 217.304 20.9042 216.408 20.0083L215.983 20.4326L215.559 20.8569C216.679 21.9765 218.045 22.5443 219.623 22.5443L219.623 21.9443ZM215.983 20.4326L216.408 20.0084C215.511 19.1122 215.071 18.0505 215.071 16.792H214.471H213.871C213.871 18.3708 214.439 19.7371 215.559 20.8569L215.983 20.4326ZM214.471 16.792H215.071V6.15234H214.471H213.871V16.792H214.471ZM214.471 6.15234H215.071C215.071 4.8938 215.511 3.83217 216.408 2.93598L215.983 2.51172L215.559 2.08745C214.439 3.20727 213.871 4.57355 213.871 6.15234H214.471ZM215.983 2.51172L216.408 2.93602C217.304 2.04015 218.365 1.60001 219.623 1.6L219.623 1L219.623 0.4C218.045 0.400008 216.679 0.9678 215.559 2.08742L215.983 2.51172ZM463.633 1V1.6C464.912 1.6 465.982 2.04186 466.877 2.93603L467.301 2.51172L467.725 2.08741C466.604 0.966155 465.228 0.4 463.633 0.4V1ZM467.301 2.51172L466.877 2.93598C467.773 3.83217 468.213 4.8938 468.213 6.15234H468.813H469.413C469.413 4.57355 468.845 3.20727 467.725 2.08745L467.301 2.51172ZM468.813 6.15234H468.213V7.07617H468.813H469.413V6.15234H468.813ZM468.813 7.07617V6.47617H465.285V7.07617V7.67617H468.813V7.07617ZM465.285 7.07617H465.885V6.15234H465.285H464.685V7.07617H465.285ZM465.285 6.15234H465.885C465.885 5.54548 465.664 5.00967 465.234 4.57966L464.81 5.00391L464.385 5.42815C464.59 5.63279 464.685 5.86325 464.685 6.15234H465.285ZM464.81 5.00391L465.234 4.57964C464.799 4.14441 464.251 3.92832 463.633 3.92832V4.52832V5.12832C463.948 5.12832 464.186 5.22874 464.385 5.42817L464.81 5.00391ZM463.633 4.52832L463.633 3.92832C463.026 3.92845 462.491 4.15007 462.061 4.57958L462.485 5.00391L462.91 5.42823C463.114 5.22352 463.344 5.12838 463.633 5.12832L463.633 4.52832ZM462.485 5.00391L462.061 4.57964C461.632 5.00902 461.409 5.54454 461.409 6.15234H462.009H462.609C462.609 5.86415 462.704 5.63346 462.91 5.42817L462.485 5.00391ZM462.009 6.15234H461.409V16.792H462.009H462.609V6.15234H462.009ZM462.009 16.792H461.409C461.409 17.3998 461.632 17.9353 462.061 18.3647L462.485 17.9404L462.91 17.5162C462.704 17.3109 462.609 17.0802 462.609 16.792H462.009ZM462.485 17.9404L462.061 18.3648C462.491 18.7943 463.026 19.0159 463.633 19.016L463.633 18.416L463.633 17.816C463.344 17.816 463.114 17.7208 462.91 17.5161L462.485 17.9404ZM463.633 18.416V19.016C464.251 19.016 464.799 18.7999 465.234 18.3647L464.81 17.9404L464.385 17.5162C464.186 17.7156 463.948 17.816 463.633 17.816V18.416ZM464.81 17.9404L465.234 18.3647C465.664 17.9347 465.885 17.3989 465.885 16.792H465.285H464.685C464.685 17.0811 464.59 17.3115 464.385 17.5162L464.81 17.9404ZM465.285 16.792H465.885V12.8721H465.285H464.685V16.792H465.285ZM465.285 12.8721V12.2721H463.241V12.8721V13.4721H465.285V12.8721ZM463.241 12.8721H463.841V9.34375H463.241H462.641V12.8721H463.241ZM463.241 9.34375V9.94375H468.813V9.34375V8.74375H463.241V9.34375ZM468.813 9.34375H468.213V16.792H468.813H469.413V9.34375H468.813ZM468.813 16.792H468.213C468.213 18.0505 467.773 19.1122 466.877 20.0084L467.301 20.4326L467.725 20.8569C468.845 19.7371 469.413 18.3708 469.413 16.792H468.813ZM467.301 20.4326L466.877 20.0083C465.982 20.9025 464.912 21.3443 463.633 21.3443V21.9443V22.5443C465.228 22.5443 466.604 21.9782 467.725 20.8569L467.301 20.4326ZM463.633 21.9443L463.633 21.3443C462.374 21.3442 461.313 20.9042 460.417 20.0083L459.993 20.4326L459.569 20.8569C460.689 21.9766 462.054 22.5442 463.633 22.5443L463.633 21.9443ZM459.993 20.4326L460.417 20.0084C459.521 19.1124 459.081 18.0508 459.081 16.792H458.481H457.881C457.881 18.3705 458.449 19.7369 459.569 20.8569L459.993 20.4326ZM458.481 16.792H459.081V6.15234H458.481H457.881V16.792H458.481ZM458.481 6.15234H459.081C459.081 4.89351 459.521 3.83196 460.417 2.93598L459.993 2.51172L459.569 2.08745C458.449 3.20748 457.881 4.57385 457.881 6.15234H458.481ZM459.993 2.51172L460.417 2.936C461.313 2.04015 462.374 1.60009 463.633 1.6L463.633 1L463.633 0.4C462.054 0.400108 460.689 0.967727 459.569 2.08744L459.993 2.51172ZM29.168 21.6641V21.0641H25.6396V21.6641V22.2641H29.168V21.6641ZM25.6396 21.6641H26.2396V15.9521H25.6396H25.0396V21.6641H25.6396ZM25.6396 15.9521V16.5521H29.168V15.9521V15.3521H25.6396V15.9521ZM29.168 15.9521H28.568V21.6641H29.168H29.768V15.9521H29.168ZM105.91 4.80859V4.20859H102.41V4.80859V5.40859H105.91V4.80859ZM102.41 4.80859H101.81V21.6641H102.41H103.01V4.80859H102.41ZM102.41 21.6641V21.0641H98.8818V21.6641V22.2641H102.41V21.6641ZM98.8818 21.6641H99.4818V4.80859H98.8818H98.2818V21.6641H98.8818ZM98.8818 4.80859V4.20859H95.3818V4.80859V5.40859H98.8818V4.80859ZM95.3818 4.80859H95.9818V1.28027H95.3818H94.7818V4.80859H95.3818ZM95.3818 1.28027V1.88027H105.91V1.28027V0.680273H95.3818V1.28027ZM105.91 1.28027H105.31V4.80859H105.91H106.51V1.28027H105.91ZM127.254 21.6641V21.0641H123.642V21.6641V22.2641H127.254V21.6641ZM123.642 21.6641L124.231 21.5535L123.475 17.5213L122.886 17.6318L122.296 17.7424L123.052 21.7746L123.642 21.6641ZM122.886 17.6318V17.0318H119.47V17.6318V18.2318H122.886V17.6318ZM119.47 17.6318L118.88 17.5213L118.124 21.5535L118.714 21.6641L119.304 21.7746L120.059 17.7424L119.47 17.6318ZM118.714 21.6641V21.0641H115.102V21.6641V22.2641H118.714V21.6641ZM115.102 21.6641L115.689 21.7883L120.001 1.40446L119.414 1.28027L118.827 1.15608L114.515 21.5399L115.102 21.6641ZM119.414 1.28027V1.88027H122.941V1.28027V0.680273H119.414V1.28027ZM122.941 1.28027L122.354 1.40446L126.667 21.7883L127.254 21.6641L127.841 21.5399L123.528 1.15608L122.941 1.28027ZM168.557 4.80859V4.20859H162.816V4.80859V5.40859H168.557V4.80859ZM162.816 4.80859H162.216V9.34375H162.816H163.416V4.80859H162.816ZM162.816 9.34375V9.94375H167.885V9.34375V8.74375H162.816V9.34375ZM167.885 9.34375H167.285V12.8721H167.885H168.485V9.34375H167.885ZM167.885 12.8721V12.2721H162.816V12.8721V13.4721H167.885V12.8721ZM162.816 12.8721H162.216V18.1357H162.816H163.416V12.8721H162.816ZM162.816 18.1357V18.7357H168.557V18.1357V17.5357H162.816V18.1357ZM168.557 18.1357H167.957V21.6641H168.557H169.157V18.1357H168.557ZM168.557 21.6641V21.0641H159.288V21.6641V22.2641H168.557V21.6641ZM159.288 21.6641H159.888V1.28027H159.288H158.688V21.6641H159.288ZM159.288 1.28027V1.88027H168.557V1.28027V0.680273H159.288V1.28027ZM168.557 1.28027H167.957V4.80859H168.557H169.157V1.28027H168.557ZM245.601 4.80859V4.20859H239.86V4.80859V5.40859H245.601V4.80859ZM239.86 4.80859H239.26V9.34375H239.86H240.46V4.80859H239.86ZM239.86 9.34375V9.94375H244.929V9.34375V8.74375H239.86V9.34375ZM244.929 9.34375H244.329V12.8721H244.929H245.529V9.34375H244.929ZM244.929 12.8721V12.2721H239.86V12.8721V13.4721H244.929V12.8721ZM239.86 12.8721H239.26V21.6641H239.86H240.46V12.8721H239.86ZM239.86 21.6641V21.0641H236.332V21.6641V22.2641H239.86V21.6641ZM236.332 21.6641H236.932V1.28027H236.332H235.732V21.6641H236.332ZM236.332 1.28027V1.88027H245.601V1.28027V0.680273H236.332V1.28027ZM245.601 1.28027H245.001V4.80859H245.601H246.201V1.28027H245.601ZM279.501 4.80859V4.20859H273.761V4.80859V5.40859H279.501V4.80859ZM273.761 4.80859H273.161V9.34375H273.761H274.361V4.80859H273.761ZM273.761 9.34375V9.94375H278.829V9.34375V8.74375H273.761V9.34375ZM278.829 9.34375H278.229V12.8721H278.829H279.429V9.34375H278.829ZM278.829 12.8721V12.2721H273.761V12.8721V13.4721H278.829V12.8721ZM273.761 12.8721H273.161V21.6641H273.761H274.361V12.8721H273.761ZM273.761 21.6641V21.0641H270.233V21.6641V22.2641H273.761V21.6641ZM270.233 21.6641H270.833V1.28027H270.233H269.633V21.6641H270.233ZM270.233 1.28027V1.88027H279.501V1.28027V0.680273H270.233V1.28027ZM279.501 1.28027H278.901V4.80859H279.501H280.101V1.28027H279.501ZM293.651 21.6641V21.0641H290.123V21.6641V22.2641H293.651V21.6641ZM290.123 21.6641H290.723V9.95215H290.123H289.523V21.6641H290.123ZM290.123 9.95215V10.5521H293.651V9.95215V9.35215H290.123V9.95215ZM293.651 9.95215H293.051V21.6641H293.651H294.251V9.95215H293.651ZM308.865 18.1357V18.7357H313.653V18.1357V17.5357H308.865V18.1357ZM313.653 18.1357H313.053V21.6641H313.653H314.253V18.1357H313.653ZM313.653 21.6641V21.0641H305.337V21.6641V22.2641H313.653V21.6641ZM305.337 21.6641H305.937V1.28027H305.337H304.737V21.6641H305.337ZM305.337 1.28027V1.88027H308.865V1.28027V0.680273H305.337V1.28027ZM308.865 1.28027H308.265V18.1357H308.865H309.465V1.28027H308.865ZM331.468 12.3965L332.037 12.5858L335.733 1.46959L335.164 1.28027L334.595 1.09096L330.898 12.2072L331.468 12.3965ZM335.164 1.28027V1.88027H338.72V1.28027V0.680273H335.164V1.28027ZM338.72 1.28027H338.12V21.6641H338.72H339.32V1.28027H338.72ZM338.72 21.6641V21.0641H335.191V21.6641V22.2641H338.72V21.6641ZM335.191 21.6641H335.791V10.5479H335.191H334.591V21.6641H335.191ZM335.191 10.5479L334.618 10.3703L332.154 18.3224L332.728 18.5L333.301 18.6776L335.765 10.7254L335.191 10.5479ZM332.728 18.5V17.9H330.18V18.5V19.1H332.728V18.5ZM330.18 18.5L330.753 18.3224L328.289 10.3703L327.716 10.5479L327.143 10.7254L329.607 18.6776L330.18 18.5ZM327.716 10.5479H327.116V21.6641H327.716H328.316V10.5479H327.716ZM327.716 21.6641V21.0641H324.188V21.6641V22.2641H327.716V21.6641ZM324.188 21.6641H324.788V1.28027H324.188H323.587V21.6641H324.188ZM324.188 1.28027V1.88027H327.744V1.28027V0.680273H324.188V1.28027ZM327.744 1.28027L327.175 1.47085L330.899 12.5871L331.468 12.3965L332.037 12.2059L328.313 1.0897L327.744 1.28027ZM357.646 12.3965L358.216 12.5858L361.912 1.46959L361.343 1.28027L360.773 1.09096L357.077 12.2072L357.646 12.3965ZM361.343 1.28027V1.88027H364.898V1.28027V0.680273H361.343V1.28027ZM364.898 1.28027H364.298V21.6641H364.898H365.498V1.28027H364.898ZM364.898 21.6641V21.0641H361.371V21.6641V22.2641H364.898V21.6641ZM361.371 21.6641H361.971V10.5479H361.371H360.771V21.6641H361.371ZM361.371 10.5479L360.798 10.3702L358.333 18.3224L358.906 18.5L359.479 18.6776L361.944 10.7255L361.371 10.5479ZM358.906 18.5V17.9H356.358V18.5V19.1H358.906V18.5ZM356.358 18.5L356.932 18.3224L354.468 10.3703L353.895 10.5479L353.321 10.7254L355.785 18.6776L356.358 18.5ZM353.895 10.5479H353.295V21.6641H353.895H354.495V10.5479H353.895ZM353.895 21.6641V21.0641H350.366V21.6641V22.2641H353.895V21.6641ZM350.366 21.6641H350.966V1.28027H350.366H349.766V21.6641H350.366ZM350.366 1.28027V1.88027H353.923V1.28027V0.680273H350.366V1.28027ZM353.923 1.28027L353.354 1.47085L357.078 12.5871L357.646 12.3965L358.215 12.2059L354.492 1.0897L353.923 1.28027ZM387.325 21.6641V21.0641H383.714V21.6641V22.2641H387.325V21.6641ZM383.714 21.6641L384.304 21.5535L383.548 17.5213L382.958 17.6318L382.368 17.7424L383.124 21.7746L383.714 21.6641ZM382.958 17.6318V17.0318H379.542V17.6318V18.2318H382.958V17.6318ZM379.542 17.6318L378.952 17.5212L378.195 21.5534L378.785 21.6641L379.375 21.7747L380.132 17.7425L379.542 17.6318ZM378.785 21.6641V21.0641H375.174V21.6641V22.2641H378.785V21.6641ZM375.174 21.6641L375.761 21.7882L380.072 1.40444L379.485 1.28027L378.898 1.15611L374.587 21.5399L375.174 21.6641ZM379.485 1.28027V1.88027H383.014V1.28027V0.680273H379.485V1.28027ZM383.014 1.28027L382.427 1.40444L386.738 21.7882L387.325 21.6641L387.912 21.5399L383.601 1.15611L383.014 1.28027ZM401.14 9.87598L401.687 10.1219L405.55 1.52624L405.003 1.28027L404.456 1.03431L400.592 9.63001L401.14 9.87598ZM405.003 1.28027V1.88027H408.923V1.28027V0.680273H405.003V1.28027ZM408.923 1.28027L408.385 1.01413L404.242 9.3862L404.779 9.65234L405.317 9.91849L409.461 1.54642L408.923 1.28027ZM404.779 9.65234L404.226 9.88449L409.266 21.8962L409.819 21.6641L410.373 21.4319L405.333 9.4202L404.779 9.65234ZM409.819 21.6641V21.0641H405.983V21.6641V22.2641H409.819V21.6641ZM405.983 21.6641L406.542 21.4449L403.378 13.3814L402.819 13.6006L402.261 13.8198L405.425 21.8832L405.983 21.6641ZM402.819 13.6006L402.283 13.3323L400.603 16.6916L401.14 16.96L401.676 17.2283L403.356 13.8689L402.819 13.6006ZM401.14 16.96H400.54V21.6641H401.14H401.74V16.96H401.14ZM401.14 21.6641V21.0641H397.611V21.6641V22.2641H401.14V21.6641ZM397.611 21.6641H398.211V1.28027H397.611H397.011V21.6641H397.611ZM397.611 1.28027V1.88027H401.14V1.28027V0.680273H397.611V1.28027ZM401.14 1.28027H400.54V9.87598H401.14H401.74V1.28027H401.14ZM423.682 21.6641V21.0641H420.153V21.6641V22.2641H423.682V21.6641ZM420.153 21.6641H420.753V1.28027H420.153H419.553V21.6641H420.153ZM420.153 1.28027V1.88027H423.682V1.28027V0.680273H420.153V1.28027ZM423.682 1.28027H423.082V21.6641H423.682H424.282V1.28027H423.682ZM443.403 12.4238H444.003V1.28027H443.403H442.803V12.4238H443.403ZM443.403 1.28027V1.88027H446.932V1.28027V0.680273H443.403V1.28027ZM446.932 1.28027H446.332V21.6641H446.932H447.532V1.28027H446.932ZM446.932 21.6641V21.0641H443.403V21.6641V22.2641H446.932V21.6641ZM443.403 21.6641L443.96 21.4391L439.452 10.2955L438.896 10.5205L438.339 10.7455L442.847 21.8891L443.403 21.6641ZM438.896 10.5205H438.296V21.6641H438.896H439.496V10.5205H438.896ZM438.896 21.6641V21.0641H435.367V21.6641V22.2641H438.896V21.6641ZM435.367 21.6641H435.967V1.28027H435.367H434.767V21.6641H435.367ZM435.367 1.28027V1.88027H438.896V1.28027V0.680273H435.367V1.28027ZM438.896 1.28027L438.339 1.50527L442.847 12.6488L443.403 12.4238L443.96 12.1988L439.452 1.05527L438.896 1.28027ZM29.168 14.9521V14.3521H25.6396V14.9521V15.5521H29.168V14.9521ZM25.6396 14.9521H26.2396V13.9521H25.6396H25.0396V14.9521H25.6396ZM25.6396 13.9521V14.5521H29.168V13.9521V13.3521H25.6396V13.9521ZM29.168 13.9521H28.568V14.9521H29.168H29.768V13.9521H29.168ZM120.113 14.1045V14.7045H122.242V14.1045V13.5045H120.113V14.1045ZM122.242 14.1045L122.832 13.9951L121.768 8.25486L121.178 8.36426L120.588 8.47366L121.652 14.2139L122.242 14.1045ZM121.178 8.36426L120.588 8.25486L119.523 13.9951L120.113 14.1045L120.703 14.2139L121.768 8.47366L121.178 8.36426ZM380.186 14.1045V14.7045H382.313V14.1045V13.5045H380.186V14.1045ZM382.313 14.1045L382.903 13.9952L381.84 8.25496L381.25 8.36426L380.66 8.47356L381.724 14.2138L382.313 14.1045ZM381.25 8.36426L380.66 8.25486L379.596 13.9951L380.186 14.1045L380.775 14.2139L381.84 8.47366L381.25 8.36426ZM29.168 12.9521V12.3521H25.6396V12.9521V13.5521H29.168V12.9521ZM25.6396 12.9521H26.2396V11.9521H25.6396H25.0396V12.9521H25.6396ZM25.6396 11.9521V12.5521H29.168V11.9521V11.3521H25.6396V11.9521ZM29.168 11.9521H28.568V12.9521H29.168H29.768V11.9521H29.168ZM224.803 12.6641V12.0641H221.275V12.6641V13.2641H224.803V12.6641ZM221.275 12.6641H221.875V11.6641H221.275H220.675V12.6641H221.275ZM221.275 11.6641V12.2641H224.803V11.6641V11.0641H221.275V11.6641ZM224.803 11.6641H224.203V12.6641H224.803H225.403V11.6641H224.803ZM29.168 10.9521V10.3521H25.6396V10.9521V11.5521H29.168V10.9521ZM25.6396 10.9521H26.2396V5.67578H25.6396H25.0396V10.9521H25.6396ZM25.6396 5.67578L25.2442 5.22453L22.5284 7.60441L22.9238 8.05566L23.3193 8.50692L26.0351 6.12704L25.6396 5.67578ZM22.9238 8.05566H23.5238V3.66016H22.9238H22.3238V8.05566H22.9238ZM22.9238 3.66016L23.3193 4.11141L26.0351 1.73153L25.6396 1.28027L25.2442 0.829019L22.5284 3.2089L22.9238 3.66016ZM25.6396 1.28027V1.88027H29.168V1.28027V0.680273H25.6396V1.28027ZM29.168 1.28027H28.568V10.9521H29.168H29.768V1.28027H29.168ZM224.803 10.6641V10.0641H221.275V10.6641V11.2641H224.803V10.6641ZM221.275 10.6641H221.875V9.66406H221.275H220.675V10.6641H221.275ZM221.275 9.66406V10.2641H224.803V9.66406V9.06406H221.275V9.66406ZM224.803 9.66406H224.203V10.6641H224.803H225.403V9.66406H224.803ZM293.651 8.95215V8.35215H290.123V8.95215V9.55215H293.651V8.95215ZM290.123 8.95215H290.723V7.95215H290.123H289.523V8.95215H290.123ZM290.123 7.95215V8.55215H293.651V7.95215V7.35215H290.123V7.95215ZM293.651 7.95215H293.051V8.95215H293.651H294.251V7.95215H293.651ZM293.651 6.95215V6.35215H290.123V6.95215V7.55215H293.651V6.95215ZM290.123 6.95215H290.723V5.95215H290.123H289.523V6.95215H290.123ZM290.123 5.95215V6.55215H293.651V5.95215V5.35215H290.123V5.95215ZM293.651 5.95215H293.051V6.95215H293.651H294.251V5.95215H293.651ZM293.651 4.95215V4.35215H290.123V4.95215V5.55215H293.651V4.95215ZM290.123 4.95215H290.723V1.28027H290.123H289.523V4.95215H290.123ZM290.123 1.28027V1.88027H293.651V1.28027V0.680273H290.123V1.28027ZM293.651 1.28027H293.051V4.95215H293.651H294.251V1.28027H293.651Z" fill="url(#paint1_linear_7_217)" mask="url(#path-1-inside-1_7_217)"/>
<defs>
<radialGradient id="paint0_radial_7_217" cx="0" cy="0" r="1" gradientUnits="userSpaceOnUse" gradientTransform="translate(245.101 11.7474) rotate(90) scale(54.3276 290.214)">
<stop stop-color="#ECF7FF"/>
<stop offset="1" stop-color="#ECF7FF" stop-opacity="0"/>
</radialGradient>
<linearGradient id="paint1_linear_7_217" x1="245.101" y1="-8.03681" x2="245.101" y2="63.9319" gradientUnits="userSpaceOnUse">
<stop stop-color="#253596" stop-opacity="0"/>
<stop offset="0.456017" stop-color="#4A76D4"/>
<stop offset="1" stop-color="#76EAF1"/>
</linearGradient>
</defs>
</svg>
