<svg width="540" height="22" viewBox="0 0 540 22" fill="none" xmlns="http://www.w3.org/2000/svg">
<mask id="path-1-inside-1_7_217" fill="white">
<path d="M312.593 1C314.03 1 315.253 1.50395 316.261 2.51172C317.269 3.51972 317.773 4.73368 317.773 6.15234V7.07617H314.245V6.15234C314.245 5.70434 314.086 5.32124 313.769 5.00391C313.451 4.6868 313.059 4.52832 312.593 4.52832C312.145 4.52837 311.763 4.68681 311.445 5.00391C311.128 5.32124 310.969 5.70434 310.969 6.15234V16.792C310.969 17.24 311.128 17.6231 311.445 17.9404C311.763 18.2575 312.145 18.416 312.593 18.416C313.059 18.416 313.451 18.2575 313.769 17.9404C314.086 17.6231 314.245 17.24 314.245 16.792V15.8682H317.773V16.792C317.773 18.2107 317.269 19.4246 316.261 20.4326C315.253 21.4404 314.03 21.9443 312.593 21.9443C311.174 21.9443 309.961 21.4404 308.953 20.4326C307.945 19.4246 307.441 18.2107 307.441 16.792V6.15234C307.441 4.73368 307.945 3.51972 308.953 2.51172C309.961 1.50396 311.174 1.00005 312.593 1ZM356.611 1C358.048 1.00008 359.271 1.50384 360.279 2.51172C361.287 3.51972 361.791 4.73368 361.791 6.15234V7.07617H358.263V6.15234C358.263 5.70434 358.104 5.32124 357.787 5.00391C357.47 4.68669 357.078 4.5284 356.611 4.52832C356.163 4.52832 355.78 4.68662 355.463 5.00391C355.146 5.32124 354.987 5.70434 354.987 6.15234V16.792C354.987 17.24 355.146 17.6231 355.463 17.9404C355.78 18.2577 356.163 18.416 356.611 18.416C357.078 18.4159 357.47 18.2576 357.787 17.9404C358.104 17.6231 358.263 17.24 358.263 16.792V12.8721H356.219V9.34375H361.791V16.792C361.791 18.2107 361.287 19.4246 360.279 20.4326C359.271 21.4405 358.048 21.9443 356.611 21.9443C355.193 21.9443 353.979 21.4406 352.971 20.4326C351.963 19.4246 351.459 18.2107 351.459 16.792V6.15234C351.459 4.73368 351.963 3.51972 352.971 2.51172C353.979 1.50377 355.193 1 356.611 1ZM399.453 1C400.89 1 402.113 1.50388 403.121 2.51172C404.129 3.51972 404.633 4.73368 404.633 6.15234V16.792C404.633 18.2107 404.129 19.4246 403.121 20.4326C402.113 21.4404 400.89 21.9443 399.453 21.9443C398.035 21.9443 396.821 21.4403 395.813 20.4326C394.805 19.4246 394.301 18.2107 394.301 16.792V6.15234C394.301 4.73368 394.805 3.51972 395.813 2.51172C396.821 1.50398 398.035 1 399.453 1ZM419.69 16.8203C419.69 17.2496 419.849 17.6231 420.166 17.9404C420.483 18.2578 420.866 18.416 421.314 18.416C421.781 18.416 422.173 18.2664 422.49 17.9678C422.807 17.6505 422.967 17.2682 422.967 16.8203V11.9521H426.494V16.8203C426.494 18.2389 425.99 19.452 424.982 20.46C423.974 21.4493 422.752 21.9443 421.314 21.9443C419.896 21.9443 418.683 21.4492 417.675 20.46C416.667 19.452 416.162 18.2389 416.162 16.8203V11.9521H419.69V16.8203ZM75.4893 12.4238V1.28027H79.0166V21.6641H75.4893L70.9814 10.5205V21.6641H67.4531V1.28027H70.9814L75.4893 12.4238ZM101.459 21.6641H97.8467L97.0908 17.6318H93.6748L92.9189 21.6641H89.3066L93.6191 1.28027H97.1465L101.459 21.6641ZM116.336 1.28027C117.773 1.28027 118.997 1.78399 120.005 2.79199C121.013 3.79996 121.517 5.01403 121.517 6.43262V7.71973C121.517 8.61571 121.301 9.44659 120.872 10.2119C120.461 10.9586 119.892 11.5656 119.164 12.0322L122.664 21.6641H118.912L115.776 12.8721H115.272V21.6641H111.744V1.28027H116.336ZM137.43 1.28027C138.867 1.28035 140.09 1.78407 141.098 2.79199C142.106 3.79998 142.609 5.01398 142.609 6.43262V7.71973C142.609 8.61558 142.395 9.44668 141.966 10.2119C141.555 10.9585 140.986 11.5656 140.258 12.0322L143.758 21.6641H140.006L136.869 12.8721H136.365V21.6641H132.837V1.28027H137.43ZM164.71 21.6641H161.099L160.343 17.6318H156.927L156.17 21.6641H152.559L156.87 1.28027H160.398L164.71 21.6641ZM184.404 4.80859H180.904V21.6641H177.376V4.80859H173.876V1.28027H184.404V4.80859ZM198.496 21.6641H194.968V9.95215H198.496V21.6641ZM214.55 14.1885L216.706 1.28027H220.318L216.313 21.6641H212.786L208.782 1.28027H212.394L214.55 14.1885ZM239.859 4.80859H234.119V9.34375H239.188V12.8721H234.119V18.1357H239.859V21.6641H230.591V1.28027H239.859V4.80859ZM274.047 19.6641C273.914 19.8314 273.771 19.995 273.613 20.1523C272.605 21.1602 271.382 21.664 269.945 21.6641H264.793V19.6641H274.047ZM297.268 21.6641H293.655L292.899 17.6318H289.483L288.728 21.6641H285.115L289.428 1.28027H292.955L297.268 21.6641ZM332.557 9.87598L336.421 1.28027H340.341L336.196 9.65234L341.236 21.6641H337.4L334.236 13.6006L332.557 16.96V21.6641H329.028V1.28027H332.557V9.87598ZM377.912 1.28027C379.349 1.28027 380.572 1.78408 381.58 2.79199C382.588 3.79999 383.092 5.01395 383.092 6.43262V7.71973C383.092 8.61565 382.878 9.44664 382.448 10.2119C382.038 10.9586 381.468 11.5656 380.74 12.0322L384.24 21.6641H380.488L377.353 12.8721H376.849V21.6641H373.32V1.28027H377.912ZM446.193 12.4238V1.28027H449.722V21.6641H446.193L441.686 10.5205V21.6641H438.157V1.28027H441.686L446.193 12.4238ZM466.535 1.28027C467.954 1.28027 469.168 1.78399 470.176 2.79199C471.202 3.79998 471.716 5.01399 471.716 6.43262V16.5117C471.716 17.9304 471.202 19.1444 470.176 20.1523C469.168 21.1603 467.954 21.6641 466.535 21.6641H461.384V1.28027H466.535ZM268.321 18.1357H269.945C270.41 18.1356 270.801 17.9788 271.117 17.6641H275.003C274.927 18.0122 274.815 18.3453 274.667 18.6641H264.793V17.6641H268.321V18.1357ZM399.453 4.52832C399.005 4.52832 398.622 4.68658 398.305 5.00391C397.987 5.32122 397.829 5.70439 397.829 6.15234V16.792C397.829 17.24 397.987 17.6231 398.305 17.9404C398.622 18.2578 399.005 18.416 399.453 18.416C399.92 18.416 400.312 18.2576 400.629 17.9404C400.946 17.6231 401.105 17.24 401.105 16.792V6.15234C401.105 5.70434 400.946 5.32124 400.629 5.00391C400.312 4.68673 399.92 4.52832 399.453 4.52832ZM464.911 18.1357H466.535C467.002 18.1357 467.395 17.9775 467.712 17.6602C468.029 17.3429 468.188 16.9596 468.188 16.5117V6.43262C468.188 5.98473 468.029 5.60147 467.712 5.28418C467.395 4.96685 467.002 4.80859 466.535 4.80859H464.911V18.1357ZM268.321 16.6641H264.793V15.6641H268.321V16.6641ZM275.125 16.5117C275.125 16.5626 275.123 16.6137 275.122 16.6641H271.591C271.595 16.6143 271.597 16.5632 271.597 16.5117V15.6641H275.125V16.5117ZM269.385 1.28027C270.822 1.28027 272.045 1.78408 273.053 2.79199C274.061 3.79999 274.564 5.01395 274.564 6.43262V7.71973C274.564 8.87705 274.22 9.89513 273.529 10.7725C274.593 11.799 275.125 13.0403 275.125 14.4961V14.6641H271.597V14.4961C271.597 14.0483 271.438 13.6659 271.121 13.3486C270.804 13.0314 270.412 12.8722 269.945 12.8721H268.321V14.6641H264.793V1.28027H269.385ZM94.3184 14.1045H96.4463L95.3828 8.36426L94.3184 14.1045ZM157.57 14.1045H159.698L158.635 8.36426L157.57 14.1045ZM290.127 14.1045H292.256L291.191 8.36426L290.127 14.1045ZM419.69 10.9521H416.162V9.95215H419.69V10.9521ZM426.494 10.9521H422.967V9.95215H426.494V10.9521ZM115.272 9.34375H116.336C116.803 9.34375 117.195 9.1855 117.513 8.86816C117.83 8.55086 117.988 8.16766 117.988 7.71973V6.43262C117.988 5.98469 117.83 5.60148 117.513 5.28418C117.195 4.96685 116.803 4.80859 116.336 4.80859H115.272V9.34375ZM136.365 9.34375H137.43C137.896 9.34368 138.288 9.18543 138.605 8.86816C138.923 8.55084 139.081 8.16771 139.081 7.71973V6.43262C139.081 5.98465 138.923 5.6015 138.605 5.28418C138.288 4.96692 137.896 4.80867 137.43 4.80859H136.365V9.34375ZM268.321 9.34375H269.385C269.851 9.34375 270.243 9.1854 270.561 8.86816C270.878 8.55083 271.037 8.16773 271.037 7.71973V6.43262C271.037 5.98462 270.878 5.60151 270.561 5.28418C270.243 4.96693 269.851 4.80859 269.385 4.80859H268.321V9.34375ZM376.849 9.34375H377.912C378.379 9.34375 378.771 9.1854 379.088 8.86816C379.405 8.55083 379.564 8.16773 379.564 7.71973V6.43262C379.564 5.98462 379.405 5.60151 379.088 5.28418C378.771 4.96693 378.379 4.80859 377.912 4.80859H376.849V9.34375ZM198.496 8.95215H194.968V7.95215H198.496V8.95215ZM419.69 8.95215H416.162V7.95215H419.69V8.95215ZM426.494 8.95215H422.967V7.95215H426.494V8.95215ZM198.496 6.95215H194.968V5.95215H198.496V6.95215ZM419.69 6.95215H416.162V1.28027H419.69V6.95215ZM426.494 6.95215H422.967V1.28027H426.494V6.95215ZM198.496 4.95215H194.968V1.28027H198.496V4.95215Z"/>
</mask>
<path d="M312.593 1C314.03 1 315.253 1.50395 316.261 2.51172C317.269 3.51972 317.773 4.73368 317.773 6.15234V7.07617H314.245V6.15234C314.245 5.70434 314.086 5.32124 313.769 5.00391C313.451 4.6868 313.059 4.52832 312.593 4.52832C312.145 4.52837 311.763 4.68681 311.445 5.00391C311.128 5.32124 310.969 5.70434 310.969 6.15234V16.792C310.969 17.24 311.128 17.6231 311.445 17.9404C311.763 18.2575 312.145 18.416 312.593 18.416C313.059 18.416 313.451 18.2575 313.769 17.9404C314.086 17.6231 314.245 17.24 314.245 16.792V15.8682H317.773V16.792C317.773 18.2107 317.269 19.4246 316.261 20.4326C315.253 21.4404 314.03 21.9443 312.593 21.9443C311.174 21.9443 309.961 21.4404 308.953 20.4326C307.945 19.4246 307.441 18.2107 307.441 16.792V6.15234C307.441 4.73368 307.945 3.51972 308.953 2.51172C309.961 1.50396 311.174 1.00005 312.593 1ZM356.611 1C358.048 1.00008 359.271 1.50384 360.279 2.51172C361.287 3.51972 361.791 4.73368 361.791 6.15234V7.07617H358.263V6.15234C358.263 5.70434 358.104 5.32124 357.787 5.00391C357.47 4.68669 357.078 4.5284 356.611 4.52832C356.163 4.52832 355.78 4.68662 355.463 5.00391C355.146 5.32124 354.987 5.70434 354.987 6.15234V16.792C354.987 17.24 355.146 17.6231 355.463 17.9404C355.78 18.2577 356.163 18.416 356.611 18.416C357.078 18.4159 357.47 18.2576 357.787 17.9404C358.104 17.6231 358.263 17.24 358.263 16.792V12.8721H356.219V9.34375H361.791V16.792C361.791 18.2107 361.287 19.4246 360.279 20.4326C359.271 21.4405 358.048 21.9443 356.611 21.9443C355.193 21.9443 353.979 21.4406 352.971 20.4326C351.963 19.4246 351.459 18.2107 351.459 16.792V6.15234C351.459 4.73368 351.963 3.51972 352.971 2.51172C353.979 1.50377 355.193 1 356.611 1ZM399.453 1C400.89 1 402.113 1.50388 403.121 2.51172C404.129 3.51972 404.633 4.73368 404.633 6.15234V16.792C404.633 18.2107 404.129 19.4246 403.121 20.4326C402.113 21.4404 400.89 21.9443 399.453 21.9443C398.035 21.9443 396.821 21.4403 395.813 20.4326C394.805 19.4246 394.301 18.2107 394.301 16.792V6.15234C394.301 4.73368 394.805 3.51972 395.813 2.51172C396.821 1.50398 398.035 1 399.453 1ZM419.69 16.8203C419.69 17.2496 419.849 17.6231 420.166 17.9404C420.483 18.2578 420.866 18.416 421.314 18.416C421.781 18.416 422.173 18.2664 422.49 17.9678C422.807 17.6505 422.967 17.2682 422.967 16.8203V11.9521H426.494V16.8203C426.494 18.2389 425.99 19.452 424.982 20.46C423.974 21.4493 422.752 21.9443 421.314 21.9443C419.896 21.9443 418.683 21.4492 417.675 20.46C416.667 19.452 416.162 18.2389 416.162 16.8203V11.9521H419.69V16.8203ZM75.4893 12.4238V1.28027H79.0166V21.6641H75.4893L70.9814 10.5205V21.6641H67.4531V1.28027H70.9814L75.4893 12.4238ZM101.459 21.6641H97.8467L97.0908 17.6318H93.6748L92.9189 21.6641H89.3066L93.6191 1.28027H97.1465L101.459 21.6641ZM116.336 1.28027C117.773 1.28027 118.997 1.78399 120.005 2.79199C121.013 3.79996 121.517 5.01403 121.517 6.43262V7.71973C121.517 8.61571 121.301 9.44659 120.872 10.2119C120.461 10.9586 119.892 11.5656 119.164 12.0322L122.664 21.6641H118.912L115.776 12.8721H115.272V21.6641H111.744V1.28027H116.336ZM137.43 1.28027C138.867 1.28035 140.09 1.78407 141.098 2.79199C142.106 3.79998 142.609 5.01398 142.609 6.43262V7.71973C142.609 8.61558 142.395 9.44668 141.966 10.2119C141.555 10.9585 140.986 11.5656 140.258 12.0322L143.758 21.6641H140.006L136.869 12.8721H136.365V21.6641H132.837V1.28027H137.43ZM164.71 21.6641H161.099L160.343 17.6318H156.927L156.17 21.6641H152.559L156.87 1.28027H160.398L164.71 21.6641ZM184.404 4.80859H180.904V21.6641H177.376V4.80859H173.876V1.28027H184.404V4.80859ZM198.496 21.6641H194.968V9.95215H198.496V21.6641ZM214.55 14.1885L216.706 1.28027H220.318L216.313 21.6641H212.786L208.782 1.28027H212.394L214.55 14.1885ZM239.859 4.80859H234.119V9.34375H239.188V12.8721H234.119V18.1357H239.859V21.6641H230.591V1.28027H239.859V4.80859ZM274.047 19.6641C273.914 19.8314 273.771 19.995 273.613 20.1523C272.605 21.1602 271.382 21.664 269.945 21.6641H264.793V19.6641H274.047ZM297.268 21.6641H293.655L292.899 17.6318H289.483L288.728 21.6641H285.115L289.428 1.28027H292.955L297.268 21.6641ZM332.557 9.87598L336.421 1.28027H340.341L336.196 9.65234L341.236 21.6641H337.4L334.236 13.6006L332.557 16.96V21.6641H329.028V1.28027H332.557V9.87598ZM377.912 1.28027C379.349 1.28027 380.572 1.78408 381.58 2.79199C382.588 3.79999 383.092 5.01395 383.092 6.43262V7.71973C383.092 8.61565 382.878 9.44664 382.448 10.2119C382.038 10.9586 381.468 11.5656 380.74 12.0322L384.24 21.6641H380.488L377.353 12.8721H376.849V21.6641H373.32V1.28027H377.912ZM446.193 12.4238V1.28027H449.722V21.6641H446.193L441.686 10.5205V21.6641H438.157V1.28027H441.686L446.193 12.4238ZM466.535 1.28027C467.954 1.28027 469.168 1.78399 470.176 2.79199C471.202 3.79998 471.716 5.01399 471.716 6.43262V16.5117C471.716 17.9304 471.202 19.1444 470.176 20.1523C469.168 21.1603 467.954 21.6641 466.535 21.6641H461.384V1.28027H466.535ZM268.321 18.1357H269.945C270.41 18.1356 270.801 17.9788 271.117 17.6641H275.003C274.927 18.0122 274.815 18.3453 274.667 18.6641H264.793V17.6641H268.321V18.1357ZM399.453 4.52832C399.005 4.52832 398.622 4.68658 398.305 5.00391C397.987 5.32122 397.829 5.70439 397.829 6.15234V16.792C397.829 17.24 397.987 17.6231 398.305 17.9404C398.622 18.2578 399.005 18.416 399.453 18.416C399.92 18.416 400.312 18.2576 400.629 17.9404C400.946 17.6231 401.105 17.24 401.105 16.792V6.15234C401.105 5.70434 400.946 5.32124 400.629 5.00391C400.312 4.68673 399.92 4.52832 399.453 4.52832ZM464.911 18.1357H466.535C467.002 18.1357 467.395 17.9775 467.712 17.6602C468.029 17.3429 468.188 16.9596 468.188 16.5117V6.43262C468.188 5.98473 468.029 5.60147 467.712 5.28418C467.395 4.96685 467.002 4.80859 466.535 4.80859H464.911V18.1357ZM268.321 16.6641H264.793V15.6641H268.321V16.6641ZM275.125 16.5117C275.125 16.5626 275.123 16.6137 275.122 16.6641H271.591C271.595 16.6143 271.597 16.5632 271.597 16.5117V15.6641H275.125V16.5117ZM269.385 1.28027C270.822 1.28027 272.045 1.78408 273.053 2.79199C274.061 3.79999 274.564 5.01395 274.564 6.43262V7.71973C274.564 8.87705 274.22 9.89513 273.529 10.7725C274.593 11.799 275.125 13.0403 275.125 14.4961V14.6641H271.597V14.4961C271.597 14.0483 271.438 13.6659 271.121 13.3486C270.804 13.0314 270.412 12.8722 269.945 12.8721H268.321V14.6641H264.793V1.28027H269.385ZM94.3184 14.1045H96.4463L95.3828 8.36426L94.3184 14.1045ZM157.57 14.1045H159.698L158.635 8.36426L157.57 14.1045ZM290.127 14.1045H292.256L291.191 8.36426L290.127 14.1045ZM419.69 10.9521H416.162V9.95215H419.69V10.9521ZM426.494 10.9521H422.967V9.95215H426.494V10.9521ZM115.272 9.34375H116.336C116.803 9.34375 117.195 9.1855 117.513 8.86816C117.83 8.55086 117.988 8.16766 117.988 7.71973V6.43262C117.988 5.98469 117.83 5.60148 117.513 5.28418C117.195 4.96685 116.803 4.80859 116.336 4.80859H115.272V9.34375ZM136.365 9.34375H137.43C137.896 9.34368 138.288 9.18543 138.605 8.86816C138.923 8.55084 139.081 8.16771 139.081 7.71973V6.43262C139.081 5.98465 138.923 5.6015 138.605 5.28418C138.288 4.96692 137.896 4.80867 137.43 4.80859H136.365V9.34375ZM268.321 9.34375H269.385C269.851 9.34375 270.243 9.1854 270.561 8.86816C270.878 8.55083 271.037 8.16773 271.037 7.71973V6.43262C271.037 5.98462 270.878 5.60151 270.561 5.28418C270.243 4.96693 269.851 4.80859 269.385 4.80859H268.321V9.34375ZM376.849 9.34375H377.912C378.379 9.34375 378.771 9.1854 379.088 8.86816C379.405 8.55083 379.564 8.16773 379.564 7.71973V6.43262C379.564 5.98462 379.405 5.60151 379.088 5.28418C378.771 4.96693 378.379 4.80859 377.912 4.80859H376.849V9.34375ZM198.496 8.95215H194.968V7.95215H198.496V8.95215ZM419.69 8.95215H416.162V7.95215H419.69V8.95215ZM426.494 8.95215H422.967V7.95215H426.494V8.95215ZM198.496 6.95215H194.968V5.95215H198.496V6.95215ZM419.69 6.95215H416.162V1.28027H419.69V6.95215ZM426.494 6.95215H422.967V1.28027H426.494V6.95215ZM198.496 4.95215H194.968V1.28027H198.496V4.95215Z" fill="url(#paint0_radial_7_217)"/>
<path d="M312.593 1V0.4H312.593L312.593 1ZM316.261 2.51172L316.685 2.08745L316.685 2.08742L316.261 2.51172ZM317.773 7.07617V7.67617H318.373V7.07617H317.773ZM314.245 7.07617H313.645V7.67617H314.245V7.07617ZM313.769 5.00391L314.193 4.57964L314.193 4.57953L313.769 5.00391ZM312.593 4.52832V3.92832L312.593 3.92832L312.593 4.52832ZM311.445 5.00391L311.021 4.57956L311.021 4.57964L311.445 5.00391ZM311.445 17.9404L311.021 18.3647L311.021 18.3648L311.445 17.9404ZM312.593 18.416L312.593 19.016H312.593V18.416ZM313.769 17.9404L314.193 18.3648L314.193 18.3647L313.769 17.9404ZM314.245 15.8682V15.2682H313.645V15.8682H314.245ZM317.773 15.8682H318.373V15.2682H317.773V15.8682ZM316.261 20.4326L316.685 20.8569L316.685 20.8569L316.261 20.4326ZM312.593 21.9443L312.593 22.5443H312.593V21.9443ZM308.953 20.4326L308.529 20.8569L308.529 20.8569L308.953 20.4326ZM308.953 2.51172L308.529 2.08743L308.529 2.08745L308.953 2.51172ZM356.611 1L356.611 0.4H356.611V1ZM360.279 2.51172L360.704 2.08745V2.08745L360.279 2.51172ZM361.791 7.07617V7.67617H362.391V7.07617H361.791ZM358.263 7.07617H357.663V7.67617H358.263V7.07617ZM357.787 5.00391L358.211 4.57964V4.57962L357.787 5.00391ZM356.611 4.52832L356.611 3.92832H356.611V4.52832ZM355.463 5.00391L355.039 4.57962L355.039 4.57964L355.463 5.00391ZM355.463 17.9404L355.039 18.3647L355.039 18.3647L355.463 17.9404ZM356.611 18.416V19.016H356.611L356.611 18.416ZM357.787 17.9404L358.211 18.3647V18.3647L357.787 17.9404ZM358.263 12.8721H358.863V12.2721H358.263V12.8721ZM356.219 12.8721H355.619V13.4721H356.219V12.8721ZM356.219 9.34375V8.74375H355.619V9.34375H356.219ZM361.791 9.34375H362.391V8.74375H361.791V9.34375ZM360.279 20.4326L360.704 20.8569V20.8569L360.279 20.4326ZM356.611 21.9443V22.5443H356.611L356.611 21.9443ZM352.971 20.4326L352.546 20.8569V20.8569L352.971 20.4326ZM352.971 2.51172L352.546 2.08745V2.08745L352.971 2.51172ZM399.453 1V0.4V1ZM403.121 2.51172L403.545 2.08745V2.08743L403.121 2.51172ZM403.121 20.4326L403.545 20.8569L403.545 20.8569L403.121 20.4326ZM399.453 21.9443V22.5443V21.9443ZM395.813 20.4326L395.389 20.8569L395.389 20.8569L395.813 20.4326ZM395.813 2.51172L395.389 2.08742L395.389 2.08745L395.813 2.51172ZM419.69 16.8203H419.09V16.8204L419.69 16.8203ZM420.166 17.9404L419.742 18.3647L419.742 18.3647L420.166 17.9404ZM421.314 18.416V19.016H421.314L421.314 18.416ZM422.49 17.9678L422.901 18.4047L422.908 18.3984L422.915 18.392L422.49 17.9678ZM422.967 16.8203L423.567 16.8204V16.8203H422.967ZM422.967 11.9521V11.3521H422.367V11.9521H422.967ZM426.494 11.9521H427.094V11.3521H426.494V11.9521ZM426.494 16.8203L427.094 16.8203V16.8203H426.494ZM424.982 20.46L425.403 20.8882L425.407 20.8842L424.982 20.46ZM421.314 21.9443V22.5443V21.9443ZM417.675 20.46L417.251 20.8842L417.255 20.8882L417.675 20.46ZM416.162 16.8203H415.562V16.8203L416.162 16.8203ZM416.162 11.9521V11.3521H415.562V11.9521H416.162ZM419.69 11.9521H420.29V11.3521H419.69V11.9521ZM75.4893 12.4238L74.933 12.6488L76.0893 12.4238H75.4893ZM75.4893 1.28027V0.680273H74.8893V1.28027H75.4893ZM79.0166 1.28027H79.6166V0.680273H79.0166V1.28027ZM79.0166 21.6641V22.2641H79.6166V21.6641H79.0166ZM75.4893 21.6641L74.933 21.8891L75.0847 22.2641H75.4893V21.6641ZM70.9814 10.5205L71.5377 10.2955L70.3814 10.5205H70.9814ZM70.9814 21.6641V22.2641H71.5814V21.6641H70.9814ZM67.4531 21.6641H66.8531V22.2641H67.4531V21.6641ZM67.4531 1.28027V0.680273H66.8531V1.28027H67.4531ZM70.9814 1.28027L71.5377 1.05527L71.386 0.680273H70.9814V1.28027ZM101.459 21.6641V22.2641H102.199L102.046 21.5399L101.459 21.6641ZM97.8467 21.6641L97.257 21.7746L97.3487 22.2641H97.8467V21.6641ZM97.0908 17.6318L97.6805 17.5213L97.5888 17.0318H97.0908V17.6318ZM93.6748 17.6318V17.0318H93.1768L93.0851 17.5213L93.6748 17.6318ZM92.9189 21.6641V22.2641H93.4169L93.5087 21.7746L92.9189 21.6641ZM89.3066 21.6641L88.7196 21.5399L88.5664 22.2641H89.3066V21.6641ZM93.6191 1.28027V0.680273H93.1328L93.0321 1.15608L93.6191 1.28027ZM97.1465 1.28027L97.7335 1.15608L97.6328 0.680273H97.1465V1.28027ZM120.005 2.79199L120.429 2.36774L120.429 2.36773L120.005 2.79199ZM120.872 10.2119L120.349 9.91836L120.346 9.92276L120.872 10.2119ZM119.164 12.0322L118.84 11.5271L118.436 11.7861L118.6 12.2371L119.164 12.0322ZM122.664 21.6641V22.2641H123.52L123.228 21.4591L122.664 21.6641ZM118.912 21.6641L118.347 21.8656L118.489 22.2641H118.912V21.6641ZM115.776 12.8721L116.341 12.6705L116.199 12.2721H115.776V12.8721ZM115.272 12.8721V12.2721H114.672V12.8721H115.272ZM115.272 21.6641V22.2641H115.872V21.6641H115.272ZM111.744 21.6641H111.144V22.2641H111.744V21.6641ZM111.744 1.28027V0.680273H111.144V1.28027H111.744ZM137.43 1.28027L137.43 0.680273H137.43V1.28027ZM141.098 2.79199L141.522 2.36773L141.522 2.36773L141.098 2.79199ZM141.966 10.2119L141.442 9.9184L141.44 9.92276L141.966 10.2119ZM140.258 12.0322L139.934 11.5271L139.53 11.7861L139.694 12.2371L140.258 12.0322ZM143.758 21.6641V22.2641H144.614L144.322 21.4591L143.758 21.6641ZM140.006 21.6641L139.441 21.8657L139.583 22.2641H140.006V21.6641ZM136.869 12.8721L137.434 12.6705L137.292 12.2721H136.869V12.8721ZM136.365 12.8721V12.2721H135.765V12.8721H136.365ZM136.365 21.6641V22.2641H136.965V21.6641H136.365ZM132.837 21.6641H132.237V22.2641H132.837V21.6641ZM132.837 1.28027V0.680273H132.237V1.28027H132.837ZM164.71 21.6641V22.2641H165.45L165.297 21.5399L164.71 21.6641ZM161.099 21.6641L160.509 21.7746L160.601 22.2641H161.099V21.6641ZM160.343 17.6318L160.933 17.5213L160.841 17.0318H160.343V17.6318ZM156.927 17.6318V17.0318H156.429L156.337 17.5212L156.927 17.6318ZM156.17 21.6641V22.2641H156.668L156.76 21.7747L156.17 21.6641ZM152.559 21.6641L151.972 21.5399L151.818 22.2641H152.559V21.6641ZM156.87 1.28027V0.680273H156.384L156.283 1.15611L156.87 1.28027ZM160.398 1.28027L160.985 1.15611L160.885 0.680273H160.398V1.28027ZM184.404 4.80859V5.40859H185.004V4.80859H184.404ZM180.904 4.80859V4.20859H180.304V4.80859H180.904ZM180.904 21.6641V22.2641H181.504V21.6641H180.904ZM177.376 21.6641H176.776V22.2641H177.376V21.6641ZM177.376 4.80859H177.976V4.20859H177.376V4.80859ZM173.876 4.80859H173.276V5.40859H173.876V4.80859ZM173.876 1.28027V0.680273H173.276V1.28027H173.876ZM184.404 1.28027H185.004V0.680273H184.404V1.28027ZM198.496 21.6641V22.2641H199.096V21.6641H198.496ZM194.968 21.6641H194.368V22.2641H194.968V21.6641ZM194.968 9.95215V9.35215H194.368V9.95215H194.968ZM198.496 9.95215H199.096V9.35215H198.496V9.95215ZM214.55 14.1885L213.958 14.2873H215.142L214.55 14.1885ZM216.706 1.28027V0.680273H216.198L216.114 1.18142L216.706 1.28027ZM220.318 1.28027L220.907 1.39595L221.048 0.680273H220.318V1.28027ZM216.313 21.6641V22.2641H216.807L216.902 21.7797L216.313 21.6641ZM212.786 21.6641L212.197 21.7797L212.293 22.2641H212.786V21.6641ZM208.782 1.28027V0.680273H208.053L208.193 1.39592L208.782 1.28027ZM212.394 1.28027L212.985 1.18142L212.902 0.680273H212.394V1.28027ZM239.859 4.80859V5.40859H240.459V4.80859H239.859ZM234.119 4.80859V4.20859H233.519V4.80859H234.119ZM234.119 9.34375H233.519V9.94375H234.119V9.34375ZM239.188 9.34375H239.788V8.74375H239.188V9.34375ZM239.188 12.8721V13.4721H239.788V12.8721H239.188ZM234.119 12.8721V12.2721H233.519V12.8721H234.119ZM234.119 18.1357H233.519V18.7357H234.119V18.1357ZM239.859 18.1357H240.459V17.5357H239.859V18.1357ZM239.859 21.6641V22.2641H240.459V21.6641H239.859ZM230.591 21.6641H229.991V22.2641H230.591V21.6641ZM230.591 1.28027V0.680273H229.991V1.28027H230.591ZM239.859 1.28027H240.459V0.680273H239.859V1.28027ZM274.047 19.6641L274.517 20.037L275.289 19.0641H274.047V19.6641ZM273.613 20.1523L274.038 20.5766V20.5766L273.613 20.1523ZM269.945 21.6641V22.2641H269.945L269.945 21.6641ZM264.793 21.6641H264.193V22.2641H264.793V21.6641ZM264.793 19.6641V19.0641H264.193V19.6641H264.793ZM297.268 21.6641V22.2641H298.008L297.855 21.5399L297.268 21.6641ZM293.655 21.6641L293.066 21.7746L293.157 22.2641H293.655V21.6641ZM292.899 17.6318L293.489 17.5213L293.397 17.0318H292.899V17.6318ZM289.483 17.6318V17.0318H288.985L288.894 17.5213L289.483 17.6318ZM288.728 21.6641V22.2641H289.226L289.317 21.7746L288.728 21.6641ZM285.115 21.6641L284.528 21.5399L284.375 22.2641H285.115V21.6641ZM289.428 1.28027V0.680273H288.941L288.841 1.15608L289.428 1.28027ZM292.955 1.28027L293.542 1.15608L293.441 0.680273H292.955V1.28027ZM332.557 9.87598H331.957L333.104 10.122L332.557 9.87598ZM336.421 1.28027V0.680273H336.033L335.874 1.03426L336.421 1.28027ZM340.341 1.28027L340.879 1.54647L341.307 0.680273H340.341V1.28027ZM336.196 9.65234L335.659 9.38615L335.537 9.63177L335.643 9.88449L336.196 9.65234ZM341.236 21.6641V22.2641H342.139L341.79 21.4319L341.236 21.6641ZM337.4 21.6641L336.842 21.8832L336.991 22.2641H337.4V21.6641ZM334.236 13.6006L334.795 13.3814L334.302 12.1266L333.7 13.3323L334.236 13.6006ZM332.557 16.96L332.02 16.6916L331.957 16.8183V16.96H332.557ZM332.557 21.6641V22.2641H333.157V21.6641H332.557ZM329.028 21.6641H328.428V22.2641H329.028V21.6641ZM329.028 1.28027V0.680273H328.428V1.28027H329.028ZM332.557 1.28027H333.157V0.680273H332.557V1.28027ZM381.58 2.79199L382.004 2.36773V2.36772L381.58 2.79199ZM382.448 10.2119L381.925 9.91838L381.923 9.92276L382.448 10.2119ZM380.74 12.0322L380.416 11.5271L380.012 11.7861L380.176 12.2371L380.74 12.0322ZM384.24 21.6641V22.2641H385.097L384.804 21.4591L384.24 21.6641ZM380.488 21.6641L379.923 21.8656L380.065 22.2641H380.488V21.6641ZM377.353 12.8721L377.918 12.6705L377.776 12.2721H377.353V12.8721ZM376.849 12.8721V12.2721H376.249V12.8721H376.849ZM376.849 21.6641V22.2641H377.449V21.6641H376.849ZM373.32 21.6641H372.72V22.2641H373.32V21.6641ZM373.32 1.28027V0.680273H372.72V1.28027H373.32ZM446.193 12.4238L445.637 12.6488L446.793 12.4238H446.193ZM446.193 1.28027V0.680273H445.593V1.28027H446.193ZM449.722 1.28027H450.322V0.680273H449.722V1.28027ZM449.722 21.6641V22.2641H450.322V21.6641H449.722ZM446.193 21.6641L445.637 21.8891L445.789 22.2641H446.193V21.6641ZM441.686 10.5205L442.242 10.2955L441.086 10.5205H441.686ZM441.686 21.6641V22.2641H442.286V21.6641H441.686ZM438.157 21.6641H437.557V22.2641H438.157V21.6641ZM438.157 1.28027V0.680273H437.557V1.28027H438.157ZM441.686 1.28027L442.242 1.05527L442.09 0.680273H441.686V1.28027ZM470.176 2.79199L469.751 3.21627L469.755 3.22012L470.176 2.79199ZM470.176 20.1523L469.755 19.7242L469.752 19.7281L470.176 20.1523ZM461.384 21.6641H460.784V22.2641H461.384V21.6641ZM461.384 1.28027V0.680273H460.784V1.28027H461.384ZM268.321 18.1357H267.721V18.7357H268.321V18.1357ZM269.945 18.1357V18.7357H269.945L269.945 18.1357ZM271.117 17.6641V17.0641H270.87L270.694 17.2386L271.117 17.6641ZM275.003 17.6641L275.589 17.7921L275.748 17.0641H275.003V17.6641ZM274.667 18.6641V19.2641H275.05L275.211 18.9167L274.667 18.6641ZM264.793 18.6641H264.193V19.2641H264.793V18.6641ZM264.793 17.6641V17.0641H264.193V17.6641H264.793ZM268.321 17.6641H268.921V17.0641H268.321V17.6641ZM399.453 4.52832V3.92832V3.92832V4.52832ZM398.305 5.00391L397.88 4.57964L397.88 4.57968L398.305 5.00391ZM398.305 17.9404L397.88 18.3647L397.88 18.3647L398.305 17.9404ZM399.453 18.416V19.016V18.416ZM400.629 17.9404L401.053 18.3648L401.053 18.3647L400.629 17.9404ZM400.629 5.00391L401.053 4.57964L401.053 4.57956L400.629 5.00391ZM464.911 18.1357H464.311V18.7357H464.911V18.1357ZM467.712 17.6602L468.136 18.0844L468.136 18.0844L467.712 17.6602ZM467.712 5.28418L468.136 4.85999L468.136 4.85992L467.712 5.28418ZM464.911 4.80859V4.20859H464.311V4.80859H464.911ZM268.321 16.6641V17.2641H268.921V16.6641H268.321ZM264.793 16.6641H264.193V17.2641H264.793V16.6641ZM264.793 15.6641V15.0641H264.193V15.6641H264.793ZM268.321 15.6641H268.921V15.0641H268.321V15.6641ZM275.122 16.6641V17.2641H275.707L275.722 16.6795L275.122 16.6641ZM271.591 16.6641L270.993 16.6137L270.938 17.2641H271.591V16.6641ZM271.597 15.6641V15.0641H270.997V15.6641H271.597ZM275.125 15.6641H275.725V15.0641H275.125V15.6641ZM273.053 2.79199L273.477 2.36773L273.477 2.36772L273.053 2.79199ZM273.529 10.7725L273.058 10.4013L272.722 10.8275L273.113 11.2042L273.529 10.7725ZM275.125 14.4961H275.725V14.4961L275.125 14.4961ZM275.125 14.6641V15.2641H275.725V14.6641H275.125ZM271.597 14.6641H270.997V15.2641H271.597V14.6641ZM271.597 14.4961H272.197V14.4961L271.597 14.4961ZM271.121 13.3486L271.545 12.9245L271.545 12.9244L271.121 13.3486ZM269.945 12.8721L269.945 12.2721H269.945V12.8721ZM268.321 12.8721V12.2721H267.721V12.8721H268.321ZM268.321 14.6641V15.2641H268.921V14.6641H268.321ZM264.793 14.6641H264.193V15.2641H264.793V14.6641ZM264.793 1.28027V0.680273H264.193V1.28027H264.793ZM94.3184 14.1045L93.7284 13.9951L93.5969 14.7045H94.3184V14.1045ZM96.4463 14.1045V14.7045H97.1677L97.0362 13.9952L96.4463 14.1045ZM95.3828 8.36426L95.9728 8.25496L94.7929 8.25486L95.3828 8.36426ZM157.57 14.1045L156.98 13.9951L156.849 14.7045H157.57V14.1045ZM159.698 14.1045V14.7045H160.42L160.288 13.9952L159.698 14.1045ZM158.635 8.36426L159.225 8.25496L158.045 8.25486L158.635 8.36426ZM290.127 14.1045L289.537 13.9951L289.405 14.7045H290.127V14.1045ZM292.256 14.1045V14.7045H292.977L292.846 13.9951L292.256 14.1045ZM291.191 8.36426L291.781 8.25486H290.601L291.191 8.36426ZM419.69 10.9521V11.5521H420.29V10.9521H419.69ZM416.162 10.9521H415.562V11.5521H416.162V10.9521ZM416.162 9.95215V9.35215H415.562V9.95215H416.162ZM419.69 9.95215H420.29V9.35215H419.69V9.95215ZM426.494 10.9521V11.5521H427.094V10.9521H426.494ZM422.967 10.9521H422.367V11.5521H422.967V10.9521ZM422.967 9.95215V9.35215H422.367V9.95215H422.967ZM426.494 9.95215H427.094V9.35215H426.494V9.95215ZM115.272 9.34375H114.672V9.94375H115.272V9.34375ZM117.513 8.86816L117.937 9.29243L117.937 9.29238L117.513 8.86816ZM117.513 5.28418L117.937 4.85997L117.937 4.85992L117.513 5.28418ZM115.272 4.80859V4.20859H114.672V4.80859H115.272ZM136.365 9.34375H135.765V9.94375H136.365V9.34375ZM137.43 9.34375V9.94375H137.43L137.43 9.34375ZM138.605 8.86816L139.03 9.29243L139.03 9.29242L138.605 8.86816ZM138.605 5.28418L139.03 4.85994L139.03 4.85992L138.605 5.28418ZM137.43 4.80859L137.43 4.20859H137.43V4.80859ZM136.365 4.80859V4.20859H135.765V4.80859H136.365ZM268.321 9.34375H267.721V9.94375H268.321V9.34375ZM270.561 8.86816L270.985 9.29248L270.985 9.29243L270.561 8.86816ZM270.561 5.28418L270.985 4.85992L270.985 4.85987L270.561 5.28418ZM268.321 4.80859V4.20859H267.721V4.80859H268.321ZM376.849 9.34375H376.249V9.94375H376.849V9.34375ZM379.088 8.86816L379.512 9.29248L379.512 9.29243L379.088 8.86816ZM379.088 5.28418L379.512 4.85992L379.512 4.85987L379.088 5.28418ZM376.849 4.80859V4.20859H376.249V4.80859H376.849ZM198.496 8.95215V9.55215H199.096V8.95215H198.496ZM194.968 8.95215H194.368V9.55215H194.968V8.95215ZM194.968 7.95215V7.35215H194.368V7.95215H194.968ZM198.496 7.95215H199.096V7.35215H198.496V7.95215ZM419.69 8.95215V9.55215H420.29V8.95215H419.69ZM416.162 8.95215H415.562V9.55215H416.162V8.95215ZM416.162 7.95215V7.35215H415.562V7.95215H416.162ZM419.69 7.95215H420.29V7.35215H419.69V7.95215ZM426.494 8.95215V9.55215H427.094V8.95215H426.494ZM422.967 8.95215H422.367V9.55215H422.967V8.95215ZM422.967 7.95215V7.35215H422.367V7.95215H422.967ZM426.494 7.95215H427.094V7.35215H426.494V7.95215ZM198.496 6.95215V7.55215H199.096V6.95215H198.496ZM194.968 6.95215H194.368V7.55215H194.968V6.95215ZM194.968 5.95215V5.35215H194.368V5.95215H194.968ZM198.496 5.95215H199.096V5.35215H198.496V5.95215ZM419.69 6.95215V7.55215H420.29V6.95215H419.69ZM416.162 6.95215H415.562V7.55215H416.162V6.95215ZM416.162 1.28027V0.680273H415.562V1.28027H416.162ZM419.69 1.28027H420.29V0.680273H419.69V1.28027ZM426.494 6.95215V7.55215H427.094V6.95215H426.494ZM422.967 6.95215H422.367V7.55215H422.967V6.95215ZM422.967 1.28027V0.680273H422.367V1.28027H422.967ZM426.494 1.28027H427.094V0.680273H426.494V1.28027ZM198.496 4.95215V5.55215H199.096V4.95215H198.496ZM194.968 4.95215H194.368V5.55215H194.968V4.95215ZM194.968 1.28027V0.680273H194.368V1.28027H194.968ZM198.496 1.28027H199.096V0.680273H198.496V1.28027ZM312.593 1V1.6C313.872 1.6 314.942 2.04181 315.837 2.93602L316.261 2.51172L316.685 2.08742C315.563 0.966087 314.188 0.4 312.593 0.4V1ZM316.261 2.51172L315.836 2.93598C316.733 3.83217 317.173 4.8938 317.173 6.15234H317.773H318.373C318.373 4.57355 317.805 3.20727 316.685 2.08745L316.261 2.51172ZM317.773 6.15234H317.173V7.07617H317.773H318.373V6.15234H317.773ZM317.773 7.07617V6.47617H314.245V7.07617V7.67617H317.773V7.07617ZM314.245 7.07617H314.845V6.15234H314.245H313.645V7.07617H314.245ZM314.245 6.15234H314.845C314.845 5.54454 314.622 5.00902 314.193 4.57964L313.769 5.00391L313.344 5.42817C313.55 5.63346 313.645 5.86415 313.645 6.15234H314.245ZM313.769 5.00391L314.193 4.57953C313.758 4.14498 313.211 3.92832 312.593 3.92832V4.52832V5.12832C312.907 5.12832 313.145 5.22863 313.344 5.42828L313.769 5.00391ZM312.593 4.52832L312.593 3.92832C311.986 3.92839 311.451 4.15014 311.021 4.57956L311.445 5.00391L311.869 5.42826C312.074 5.22348 312.304 5.12836 312.593 5.12832L312.593 4.52832ZM311.445 5.00391L311.021 4.57964C310.592 5.00902 310.369 5.54454 310.369 6.15234H310.969H311.569C311.569 5.86415 311.664 5.63346 311.87 5.42817L311.445 5.00391ZM310.969 6.15234H310.369V16.792H310.969H311.569V6.15234H310.969ZM310.969 16.792H310.369C310.369 17.3998 310.592 17.9353 311.021 18.3647L311.445 17.9404L311.87 17.5162C311.664 17.3109 311.569 17.0802 311.569 16.792H310.969ZM311.445 17.9404L311.021 18.3648C311.451 18.7942 311.986 19.0159 312.593 19.016L312.593 18.416L312.593 17.816C312.304 17.816 312.074 17.7208 311.869 17.5161L311.445 17.9404ZM312.593 18.416V19.016C313.211 19.016 313.758 18.7993 314.193 18.3648L313.769 17.9404L313.344 17.516C313.145 17.7157 312.907 17.816 312.593 17.816V18.416ZM313.769 17.9404L314.193 18.3647C314.622 17.9353 314.845 17.3998 314.845 16.792H314.245H313.645C313.645 17.0802 313.55 17.3109 313.344 17.5162L313.769 17.9404ZM314.245 16.792H314.845V15.8682H314.245H313.645V16.792H314.245ZM314.245 15.8682V16.4682H317.773V15.8682V15.2682H314.245V15.8682ZM317.773 15.8682H317.173V16.792H317.773H318.373V15.8682H317.773ZM317.773 16.792H317.173C317.173 18.0505 316.733 19.1122 315.836 20.0084L316.261 20.4326L316.685 20.8569C317.805 19.7371 318.373 18.3708 318.373 16.792H317.773ZM316.261 20.4326L315.837 20.0083C314.942 20.9025 313.872 21.3443 312.593 21.3443V21.9443V22.5443C314.188 22.5443 315.563 21.9782 316.685 20.8569L316.261 20.4326ZM312.593 21.9443L312.593 21.3443C311.334 21.3443 310.273 20.9042 309.377 20.0083L308.953 20.4326L308.529 20.8569C309.649 21.9766 311.014 22.5443 312.593 22.5443L312.593 21.9443ZM308.953 20.4326L309.377 20.0084C308.481 19.1124 308.041 18.0508 308.041 16.792H307.441H306.841C306.841 18.3705 307.409 19.7369 308.529 20.8569L308.953 20.4326ZM307.441 16.792H308.041V6.15234H307.441H306.841V16.792H307.441ZM307.441 6.15234H308.041C308.041 4.89351 308.481 3.83196 309.377 2.93598L308.953 2.51172L308.529 2.08745C307.409 3.20748 306.841 4.57385 306.841 6.15234H307.441ZM308.953 2.51172L309.377 2.93601C310.273 2.04015 311.334 1.60005 312.593 1.6L312.593 1L312.593 0.4C311.014 0.40006 309.649 0.967762 308.529 2.08743L308.953 2.51172ZM356.611 1L356.611 1.6C357.891 1.60007 358.961 2.04174 359.855 2.93599L360.279 2.51172L360.704 2.08745C359.582 0.965935 358.206 0.400091 356.611 0.4L356.611 1ZM360.279 2.51172L359.855 2.93598C360.751 3.83196 361.191 4.89351 361.191 6.15234H361.791H362.391C362.391 4.57385 361.824 3.20748 360.704 2.08745L360.279 2.51172ZM361.791 6.15234H361.191V7.07617H361.791H362.391V6.15234H361.791ZM361.791 7.07617V6.47617H358.263V7.07617V7.67617H361.791V7.07617ZM358.263 7.07617H358.863V6.15234H358.263H357.663V7.07617H358.263ZM358.263 6.15234H358.863C358.863 5.54548 358.641 5.00968 358.211 4.57964L357.787 5.00391L357.363 5.42817C357.567 5.6328 357.663 5.86321 357.663 6.15234H358.263ZM357.787 5.00391L358.211 4.57962C357.776 4.14474 357.23 3.92843 356.611 3.92832L356.611 4.52832L356.611 5.12832C356.926 5.12837 357.163 5.22864 357.363 5.42819L357.787 5.00391ZM356.611 4.52832V3.92832C356.004 3.92832 355.469 4.14967 355.039 4.57962L355.463 5.00391L355.887 5.42819C356.092 5.22358 356.322 5.12832 356.611 5.12832V4.52832ZM355.463 5.00391L355.039 4.57964C354.609 5.00968 354.387 5.54548 354.387 6.15234H354.987H355.587C355.587 5.86321 355.683 5.6328 355.887 5.42817L355.463 5.00391ZM354.987 6.15234H354.387V16.792H354.987H355.587V6.15234H354.987ZM354.987 16.792H354.387C354.387 17.3989 354.609 17.9347 355.039 18.3647L355.463 17.9404L355.887 17.5162C355.683 17.3115 355.587 17.0811 355.587 16.792H354.987ZM355.463 17.9404L355.039 18.3647C355.469 18.7946 356.004 19.016 356.611 19.016V18.416V17.816C356.322 17.816 356.092 17.7207 355.887 17.5161L355.463 17.9404ZM356.611 18.416L356.611 19.016C357.23 19.0159 357.776 18.7996 358.211 18.3647L357.787 17.9404L357.363 17.5161C357.163 17.7157 356.926 17.816 356.611 17.816L356.611 18.416ZM357.787 17.9404L358.211 18.3647C358.641 17.9347 358.863 17.3989 358.863 16.792H358.263H357.663C357.663 17.0811 357.567 17.3115 357.363 17.5162L357.787 17.9404ZM358.263 16.792H358.863V12.8721H358.263H357.663V16.792H358.263ZM358.263 12.8721V12.2721H356.219V12.8721V13.4721H358.263V12.8721ZM356.219 12.8721H356.819V9.34375H356.219H355.619V12.8721H356.219ZM356.219 9.34375V9.94375H361.791V9.34375V8.74375H356.219V9.34375ZM361.791 9.34375H361.191V16.792H361.791H362.391V9.34375H361.791ZM361.791 16.792H361.191C361.191 18.0508 360.751 19.1124 359.855 20.0084L360.279 20.4326L360.704 20.8569C361.824 19.7369 362.391 18.3705 362.391 16.792H361.791ZM360.279 20.4326L359.855 20.0083C358.961 20.9026 357.891 21.3443 356.611 21.3443L356.611 21.9443L356.611 22.5443C358.206 22.5442 359.582 21.9784 360.704 20.8569L360.279 20.4326ZM356.611 21.9443V21.3443C355.353 21.3443 354.291 20.9043 353.395 20.0083L352.971 20.4326L352.546 20.8569C353.666 21.9768 355.033 22.5443 356.611 22.5443V21.9443ZM352.971 20.4326L353.395 20.0084C352.499 19.1124 352.059 18.0508 352.059 16.792H351.459H350.859C350.859 18.3705 351.426 19.7369 352.546 20.8569L352.971 20.4326ZM351.459 16.792H352.059V6.15234H351.459H350.859V16.792H351.459ZM351.459 6.15234H352.059C352.059 4.89351 352.499 3.83196 353.395 2.93598L352.971 2.51172L352.546 2.08745C351.426 3.20748 350.859 4.57385 350.859 6.15234H351.459ZM352.971 2.51172L353.395 2.93599C354.291 2.04006 355.353 1.6 356.611 1.6V1V0.4C355.033 0.4 353.666 0.967487 352.546 2.08745L352.971 2.51172ZM399.453 1V1.6C400.733 1.6 401.802 2.04175 402.697 2.93601L403.121 2.51172L403.545 2.08743C402.424 0.966008 401.048 0.4 399.453 0.4V1ZM403.121 2.51172L402.697 2.93598C403.593 3.83196 404.033 4.89351 404.033 6.15234H404.633H405.233C405.233 4.57385 404.665 3.20748 403.545 2.08745L403.121 2.51172ZM404.633 6.15234H404.033V16.792H404.633H405.233V6.15234H404.633ZM404.633 16.792H404.033C404.033 18.0508 403.593 19.1124 402.697 20.0084L403.121 20.4326L403.545 20.8569C404.665 19.7369 405.233 18.3705 405.233 16.792H404.633ZM403.121 20.4326L402.697 20.0083C401.802 20.9026 400.733 21.3443 399.453 21.3443V21.9443V22.5443C401.048 22.5443 402.424 21.9783 403.545 20.8569L403.121 20.4326ZM399.453 21.9443V21.3443C398.195 21.3443 397.134 20.9042 396.238 20.0083L395.813 20.4326L395.389 20.8569C396.509 21.9765 397.875 22.5443 399.453 22.5443V21.9443ZM395.813 20.4326L396.238 20.0084C395.342 19.1122 394.901 18.0505 394.901 16.792H394.301H393.701C393.701 18.3708 394.269 19.7371 395.389 20.8569L395.813 20.4326ZM394.301 16.792H394.901V6.15234H394.301H393.701V16.792H394.301ZM394.301 6.15234H394.901C394.901 4.8938 395.342 3.83217 396.238 2.93598L395.813 2.51172L395.389 2.08745C394.269 3.20727 393.701 4.57355 393.701 6.15234H394.301ZM395.813 2.51172L396.238 2.93602C397.134 2.04015 398.195 1.6 399.453 1.6V1V0.4C397.875 0.400004 396.509 0.967803 395.389 2.08742L395.813 2.51172ZM419.69 16.8203L419.09 16.8204C419.09 17.4161 419.317 17.9402 419.742 18.3647L420.166 17.9404L420.59 17.5162C420.38 17.3061 420.29 17.083 420.29 16.8203L419.69 16.8203ZM420.166 17.9404L419.742 18.3647C420.172 18.7947 420.708 19.016 421.314 19.016V18.416V17.816C421.025 17.816 420.795 17.7208 420.59 17.5162L420.166 17.9404ZM421.314 18.416L421.314 19.016C421.922 19.016 422.465 18.8158 422.901 18.4047L422.49 17.9678L422.079 17.5309C421.881 17.7171 421.64 17.816 421.314 17.816L421.314 18.416ZM422.49 17.9678L422.915 18.392C423.343 17.963 423.567 17.4284 423.567 16.8204L422.967 16.8203L422.367 16.8203C422.367 17.108 422.271 17.338 422.066 17.5435L422.49 17.9678ZM422.967 16.8203H423.567V11.9521H422.967H422.367V16.8203H422.967ZM422.967 11.9521V12.5521H426.494V11.9521V11.3521H422.967V11.9521ZM426.494 11.9521H425.894V16.8203H426.494H427.094V11.9521H426.494ZM426.494 16.8203L425.894 16.8203C425.894 18.0789 425.454 19.1397 424.558 20.0357L424.982 20.46L425.407 20.8842C426.527 19.7643 427.094 18.3988 427.094 16.8203L426.494 16.8203ZM424.982 20.46L424.562 20.0317C423.668 20.9089 422.598 21.3443 421.314 21.3443V21.9443V22.5443C422.906 22.5443 424.28 21.9897 425.403 20.8882L424.982 20.46ZM421.314 21.9443V21.3443C420.052 21.3443 418.99 20.9105 418.095 20.0317L417.675 20.46L417.255 20.8882C418.375 21.988 419.739 22.5443 421.314 22.5443V21.9443ZM417.675 20.46L418.099 20.0357C417.203 19.1395 416.762 18.0787 416.762 16.8203L416.162 16.8203L415.562 16.8203C415.562 18.3992 416.131 19.7645 417.251 20.8842L417.675 20.46ZM416.162 16.8203H416.762V11.9521H416.162H415.562V16.8203H416.162ZM416.162 11.9521V12.5521H419.69V11.9521V11.3521H416.162V11.9521ZM419.69 11.9521H419.09V16.8203H419.69H420.29V11.9521H419.69ZM75.4893 12.4238H76.0893V1.28027H75.4893H74.8893V12.4238H75.4893ZM75.4893 1.28027V1.88027H79.0166V1.28027V0.680273H75.4893V1.28027ZM79.0166 1.28027H78.4166V21.6641H79.0166H79.6166V1.28027H79.0166ZM79.0166 21.6641V21.0641H75.4893V21.6641V22.2641H79.0166V21.6641ZM75.4893 21.6641L76.0455 21.4391L71.5377 10.2955L70.9814 10.5205L70.4252 10.7455L74.933 21.8891L75.4893 21.6641ZM70.9814 10.5205H70.3814V21.6641H70.9814H71.5814V10.5205H70.9814ZM70.9814 21.6641V21.0641H67.4531V21.6641V22.2641H70.9814V21.6641ZM67.4531 21.6641H68.0531V1.28027H67.4531H66.8531V21.6641H67.4531ZM67.4531 1.28027V1.88027H70.9814V1.28027V0.680273H67.4531V1.28027ZM70.9814 1.28027L70.4252 1.50527L74.933 12.6488L75.4893 12.4238L76.0455 12.1988L71.5377 1.05527L70.9814 1.28027ZM101.459 21.6641V21.0641H97.8467V21.6641V22.2641H101.459V21.6641ZM97.8467 21.6641L98.4364 21.5535L97.6805 17.5213L97.0908 17.6318L96.5011 17.7424L97.257 21.7746L97.8467 21.6641ZM97.0908 17.6318V17.0318H93.6748V17.6318V18.2318H97.0908V17.6318ZM93.6748 17.6318L93.0851 17.5213L92.3292 21.5535L92.9189 21.6641L93.5087 21.7746L94.2645 17.7424L93.6748 17.6318ZM92.9189 21.6641V21.0641H89.3066V21.6641V22.2641H92.9189V21.6641ZM89.3066 21.6641L89.8936 21.7883L94.2061 1.40446L93.6191 1.28027L93.0321 1.15608L88.7196 21.5399L89.3066 21.6641ZM93.6191 1.28027V1.88027H97.1465V1.28027V0.680273H93.6191V1.28027ZM97.1465 1.28027L96.5595 1.40446L100.872 21.7883L101.459 21.6641L102.046 21.5399L97.7335 1.15608L97.1465 1.28027ZM116.336 1.28027V1.88027C117.616 1.88027 118.686 2.32196 119.581 3.21626L120.005 2.79199L120.429 2.36773C119.307 1.24602 117.931 0.680273 116.336 0.680273V1.28027ZM120.005 2.79199L119.581 3.21624C120.476 4.1122 120.917 5.17388 120.917 6.43262H121.517H122.117C122.117 4.85418 121.549 3.48772 120.429 2.36774L120.005 2.79199ZM121.517 6.43262H120.917V7.71973H121.517H122.117V6.43262H121.517ZM121.517 7.71973H120.917C120.917 8.51494 120.727 9.24446 120.349 9.91837L120.872 10.2119L121.395 10.5055C121.876 9.64872 122.117 8.71649 122.117 7.71973H121.517ZM120.872 10.2119L120.346 9.92276C119.985 10.5805 119.485 11.1137 118.84 11.5271L119.164 12.0322L119.488 12.5374C120.299 12.0174 120.938 11.3367 121.398 10.5011L120.872 10.2119ZM119.164 12.0322L118.6 12.2371L122.1 21.869L122.664 21.6641L123.228 21.4591L119.728 11.8273L119.164 12.0322ZM122.664 21.6641V21.0641H118.912V21.6641V22.2641H122.664V21.6641ZM118.912 21.6641L119.477 21.4625L116.341 12.6705L115.776 12.8721L115.211 13.0736L118.347 21.8656L118.912 21.6641ZM115.776 12.8721V12.2721H115.272V12.8721V13.4721H115.776V12.8721ZM115.272 12.8721H114.672V21.6641H115.272H115.872V12.8721H115.272ZM115.272 21.6641V21.0641H111.744V21.6641V22.2641H115.272V21.6641ZM111.744 21.6641H112.344V1.28027H111.744H111.144V21.6641H111.744ZM111.744 1.28027V1.88027H116.336V1.28027V0.680273H111.744V1.28027ZM137.43 1.28027L137.43 1.88027C138.709 1.88034 139.779 2.32197 140.673 3.21626L141.098 2.79199L141.522 2.36773C140.4 1.24616 139.024 0.680355 137.43 0.680273L137.43 1.28027ZM141.098 2.79199L140.673 3.21625C141.569 4.11222 142.009 5.17382 142.009 6.43262H142.609H143.209C143.209 4.85414 142.642 3.48774 141.522 2.36773L141.098 2.79199ZM142.609 6.43262H142.009V7.71973H142.609H143.209V6.43262H142.609ZM142.609 7.71973H142.009C142.009 8.51524 141.82 9.24493 141.443 9.91841L141.966 10.2119L142.489 10.5054C142.97 9.64843 143.209 8.71593 143.209 7.71973H142.609ZM141.966 10.2119L141.44 9.92276C141.078 10.5803 140.579 11.1137 139.934 11.5271L140.258 12.0322L140.582 12.5373C141.393 12.0175 142.032 11.3366 142.492 10.5011L141.966 10.2119ZM140.258 12.0322L139.694 12.2371L143.194 21.869L143.758 21.6641L144.322 21.4591L140.822 11.8273L140.258 12.0322ZM143.758 21.6641V21.0641H140.006V21.6641V22.2641H143.758V21.6641ZM140.006 21.6641L140.571 21.4624L137.434 12.6705L136.869 12.8721L136.304 13.0737L139.441 21.8657L140.006 21.6641ZM136.869 12.8721V12.2721H136.365V12.8721V13.4721H136.869V12.8721ZM136.365 12.8721H135.765V21.6641H136.365H136.965V12.8721H136.365ZM136.365 21.6641V21.0641H132.837V21.6641V22.2641H136.365V21.6641ZM132.837 21.6641H133.437V1.28027H132.837H132.237V21.6641H132.837ZM132.837 1.28027V1.88027H137.43V1.28027V0.680273H132.837V1.28027ZM164.71 21.6641V21.0641H161.099V21.6641V22.2641H164.71V21.6641ZM161.099 21.6641L161.688 21.5535L160.933 17.5213L160.343 17.6318L159.753 17.7424L160.509 21.7746L161.099 21.6641ZM160.343 17.6318V17.0318H156.927V17.6318V18.2318H160.343V17.6318ZM156.927 17.6318L156.337 17.5212L155.58 21.5534L156.17 21.6641L156.76 21.7747L157.516 17.7425L156.927 17.6318ZM156.17 21.6641V21.0641H152.559V21.6641V22.2641H156.17V21.6641ZM152.559 21.6641L153.146 21.7882L157.457 1.40444L156.87 1.28027L156.283 1.15611L151.972 21.5399L152.559 21.6641ZM156.87 1.28027V1.88027H160.398V1.28027V0.680273H156.87V1.28027ZM160.398 1.28027L159.811 1.40444L164.123 21.7882L164.71 21.6641L165.297 21.5399L160.985 1.15611L160.398 1.28027ZM184.404 4.80859V4.20859H180.904V4.80859V5.40859H184.404V4.80859ZM180.904 4.80859H180.304V21.6641H180.904H181.504V4.80859H180.904ZM180.904 21.6641V21.0641H177.376V21.6641V22.2641H180.904V21.6641ZM177.376 21.6641H177.976V4.80859H177.376H176.776V21.6641H177.376ZM177.376 4.80859V4.20859H173.876V4.80859V5.40859H177.376V4.80859ZM173.876 4.80859H174.476V1.28027H173.876H173.276V4.80859H173.876ZM173.876 1.28027V1.88027H184.404V1.28027V0.680273H173.876V1.28027ZM184.404 1.28027H183.804V4.80859H184.404H185.004V1.28027H184.404ZM198.496 21.6641V21.0641H194.968V21.6641V22.2641H198.496V21.6641ZM194.968 21.6641H195.568V9.95215H194.968H194.368V21.6641H194.968ZM194.968 9.95215V10.5521H198.496V9.95215V9.35215H194.968V9.95215ZM198.496 9.95215H197.896V21.6641H198.496H199.096V9.95215H198.496ZM214.55 14.1885L215.142 14.2873L217.298 1.37913L216.706 1.28027L216.114 1.18142L213.958 14.0896L214.55 14.1885ZM216.706 1.28027V1.88027H220.318V1.28027V0.680273H216.706V1.28027ZM220.318 1.28027L219.73 1.1646L215.725 21.5484L216.313 21.6641L216.902 21.7797L220.907 1.39595L220.318 1.28027ZM216.313 21.6641V21.0641H212.786V21.6641V22.2641H216.313V21.6641ZM212.786 21.6641L213.375 21.5484L209.371 1.16463L208.782 1.28027L208.193 1.39592L212.197 21.7797L212.786 21.6641ZM208.782 1.28027V1.88027H212.394V1.28027V0.680273H208.782V1.28027ZM212.394 1.28027L211.802 1.37913L213.958 14.2873L214.55 14.1885L215.142 14.0896L212.985 1.18142L212.394 1.28027ZM239.859 4.80859V4.20859H234.119V4.80859V5.40859H239.859V4.80859ZM234.119 4.80859H233.519V9.34375H234.119H234.719V4.80859H234.119ZM234.119 9.34375V9.94375H239.188V9.34375V8.74375H234.119V9.34375ZM239.188 9.34375H238.587V12.8721H239.188H239.788V9.34375H239.188ZM239.188 12.8721V12.2721H234.119V12.8721V13.4721H239.188V12.8721ZM234.119 12.8721H233.519V18.1357H234.119H234.719V12.8721H234.119ZM234.119 18.1357V18.7357H239.859V18.1357V17.5357H234.119V18.1357ZM239.859 18.1357H239.259V21.6641H239.859H240.459V18.1357H239.859ZM239.859 21.6641V21.0641H230.591V21.6641V22.2641H239.859V21.6641ZM230.591 21.6641H231.191V1.28027H230.591H229.991V21.6641H230.591ZM230.591 1.28027V1.88027H239.859V1.28027V0.680273H230.591V1.28027ZM239.859 1.28027H239.259V4.80859H239.859H240.459V1.28027H239.859ZM274.047 19.6641L273.577 19.2911C273.457 19.4427 273.328 19.5889 273.189 19.7281L273.613 20.1523L274.038 20.5766C274.213 20.4012 274.372 20.2201 274.517 20.037L274.047 19.6641ZM273.613 20.1523L273.189 19.7281C272.295 20.6223 271.225 21.064 269.945 21.0641L269.945 21.6641L269.945 22.2641C271.54 22.2639 272.916 21.6981 274.038 20.5766L273.613 20.1523ZM269.945 21.6641V21.0641H264.793V21.6641V22.2641H269.945V21.6641ZM264.793 21.6641H265.393V19.6641H264.793H264.193V21.6641H264.793ZM264.793 19.6641V20.2641H274.047V19.6641V19.0641H264.793V19.6641ZM297.268 21.6641V21.0641H293.655V21.6641V22.2641H297.268V21.6641ZM293.655 21.6641L294.245 21.5535L293.489 17.5213L292.899 17.6318L292.31 17.7424L293.066 21.7746L293.655 21.6641ZM292.899 17.6318V17.0318H289.483V17.6318V18.2318H292.899V17.6318ZM289.483 17.6318L288.894 17.5213L288.138 21.5535L288.728 21.6641L289.317 21.7746L290.073 17.7424L289.483 17.6318ZM288.728 21.6641V21.0641H285.115V21.6641V22.2641H288.728V21.6641ZM285.115 21.6641L285.702 21.7883L290.015 1.40446L289.428 1.28027L288.841 1.15608L284.528 21.5399L285.115 21.6641ZM289.428 1.28027V1.88027H292.955V1.28027V0.680273H289.428V1.28027ZM292.955 1.28027L292.368 1.40446L296.681 21.7883L297.268 21.6641L297.855 21.5399L293.542 1.15608L292.955 1.28027ZM332.557 9.87598L333.104 10.122L336.968 1.52629L336.421 1.28027L335.874 1.03426L332.009 9.62996L332.557 9.87598ZM336.421 1.28027V1.88027H340.341V1.28027V0.680273H336.421V1.28027ZM340.341 1.28027L339.803 1.01408L335.659 9.38615L336.196 9.65234L336.734 9.91854L340.879 1.54647L340.341 1.28027ZM336.196 9.65234L335.643 9.88449L340.683 21.8962L341.236 21.6641L341.79 21.4319L336.75 9.4202L336.196 9.65234ZM341.236 21.6641V21.0641H337.4V21.6641V22.2641H341.236V21.6641ZM337.4 21.6641L337.959 21.4449L334.795 13.3814L334.236 13.6006L333.678 13.8198L336.842 21.8832L337.4 21.6641ZM334.236 13.6006L333.7 13.3323L332.02 16.6916L332.557 16.96L333.093 17.2283L334.773 13.8689L334.236 13.6006ZM332.557 16.96H331.957V21.6641H332.557H333.157V16.96H332.557ZM332.557 21.6641V21.0641H329.028V21.6641V22.2641H332.557V21.6641ZM329.028 21.6641H329.628V1.28027H329.028H328.428V21.6641H329.028ZM329.028 1.28027V1.88027H332.557V1.28027V0.680273H329.028V1.28027ZM332.557 1.28027H331.957V9.87598H332.557H333.157V1.28027H332.557ZM377.912 1.28027V1.88027C379.192 1.88027 380.261 2.32196 381.156 3.21627L381.58 2.79199L382.004 2.36772C380.883 1.2462 379.507 0.680273 377.912 0.680273V1.28027ZM381.58 2.79199L381.156 3.21626C382.052 4.11223 382.492 5.17378 382.492 6.43262H383.092H383.692C383.692 4.85412 383.124 3.48775 382.004 2.36773L381.58 2.79199ZM383.092 6.43262H382.492V7.71973H383.092H383.692V6.43262H383.092ZM383.092 7.71973H382.492C382.492 8.51532 382.303 9.24489 381.925 9.91839L382.448 10.2119L382.972 10.5054C383.452 9.64838 383.692 8.71598 383.692 7.71973H383.092ZM382.448 10.2119L381.923 9.92276C381.561 10.5805 381.061 11.1137 380.416 11.5271L380.74 12.0322L381.064 12.5374C381.875 12.0174 382.514 11.3367 382.974 10.5011L382.448 10.2119ZM380.74 12.0322L380.176 12.2371L383.676 21.869L384.24 21.6641L384.804 21.4591L381.304 11.8273L380.74 12.0322ZM384.24 21.6641V21.0641H380.488V21.6641V22.2641H384.24V21.6641ZM380.488 21.6641L381.053 21.4625L377.918 12.6705L377.353 12.8721L376.787 13.0736L379.923 21.8656L380.488 21.6641ZM377.353 12.8721V12.2721H376.849V12.8721V13.4721H377.353V12.8721ZM376.849 12.8721H376.249V21.6641H376.849H377.449V12.8721H376.849ZM376.849 21.6641V21.0641H373.32V21.6641V22.2641H376.849V21.6641ZM373.32 21.6641H373.92V1.28027H373.32H372.72V21.6641H373.32ZM373.32 1.28027V1.88027H377.912V1.28027V0.680273H373.32V1.28027ZM446.193 12.4238H446.793V1.28027H446.193H445.593V12.4238H446.193ZM446.193 1.28027V1.88027H449.722V1.28027V0.680273H446.193V1.28027ZM449.722 1.28027H449.122V21.6641H449.722H450.322V1.28027H449.722ZM449.722 21.6641V21.0641H446.193V21.6641V22.2641H449.722V21.6641ZM446.193 21.6641L446.75 21.4391L442.242 10.2955L441.686 10.5205L441.129 10.7455L445.637 21.8891L446.193 21.6641ZM441.686 10.5205H441.086V21.6641H441.686H442.286V10.5205H441.686ZM441.686 21.6641V21.0641H438.157V21.6641V22.2641H441.686V21.6641ZM438.157 21.6641H438.757V1.28027H438.157H437.557V21.6641H438.157ZM438.157 1.28027V1.88027H441.686V1.28027V0.680273H438.157V1.28027ZM441.686 1.28027L441.129 1.50527L445.637 12.6488L446.193 12.4238L446.75 12.1988L442.242 1.05527L441.686 1.28027ZM466.535 1.28027V1.88027C467.794 1.88027 468.856 2.32028 469.752 3.21626L470.176 2.79199L470.6 2.36773C469.48 1.2477 468.114 0.680273 466.535 0.680273V1.28027ZM470.176 2.79199L469.755 3.22012C470.669 4.11705 471.116 5.17752 471.116 6.43262H471.716H472.316C472.316 4.85045 471.736 3.48291 470.596 2.36386L470.176 2.79199ZM471.716 6.43262H471.116V16.5117H471.716H472.316V6.43262H471.716ZM471.716 16.5117H471.116C471.116 17.7668 470.669 18.8273 469.755 19.7242L470.176 20.1523L470.596 20.5805C471.736 19.4614 472.316 18.0939 472.316 16.5117H471.716ZM470.176 20.1523L469.752 19.7281C468.856 20.6241 467.794 21.0641 466.535 21.0641V21.6641V22.2641C468.114 22.2641 469.48 21.6966 470.6 20.5766L470.176 20.1523ZM466.535 21.6641V21.0641H461.384V21.6641V22.2641H466.535V21.6641ZM461.384 21.6641H461.984V1.28027H461.384H460.784V21.6641H461.384ZM461.384 1.28027V1.88027H466.535V1.28027V0.680273H461.384V1.28027ZM268.321 18.1357V18.7357H269.945V18.1357V17.5357H268.321V18.1357ZM269.945 18.1357L269.945 18.7357C270.561 18.7356 271.106 18.5214 271.54 18.0896L271.117 17.6641L270.694 17.2386C270.495 17.4362 270.259 17.5357 269.945 17.5357L269.945 18.1357ZM271.117 17.6641V18.2641H275.003V17.6641V17.0641H271.117V17.6641ZM275.003 17.6641L274.417 17.536C274.35 17.8418 274.252 18.133 274.123 18.4114L274.667 18.6641L275.211 18.9167C275.378 18.5575 275.504 18.1826 275.589 17.7921L275.003 17.6641ZM274.667 18.6641V18.0641H264.793V18.6641V19.2641H274.667V18.6641ZM264.793 18.6641H265.393V17.6641H264.793H264.193V18.6641H264.793ZM264.793 17.6641V18.2641H268.321V17.6641V17.0641H264.793V17.6641ZM268.321 17.6641H267.721V18.1357H268.321H268.921V17.6641H268.321ZM399.453 4.52832V3.92832C398.846 3.92832 398.31 4.1496 397.88 4.57964L398.305 5.00391L398.729 5.42817C398.934 5.22355 399.164 5.12832 399.453 5.12832V4.52832ZM398.305 5.00391L397.88 4.57968C397.45 5.00966 397.229 5.54549 397.229 6.15234H397.829H398.429C398.429 5.8633 398.524 5.63278 398.729 5.42814L398.305 5.00391ZM397.829 6.15234H397.229V16.792H397.829H398.429V6.15234H397.829ZM397.829 16.792H397.229C397.229 17.3988 397.45 17.9347 397.88 18.3647L398.305 17.9404L398.729 17.5162C398.524 17.3116 398.429 17.0811 398.429 16.792H397.829ZM398.305 17.9404L397.88 18.3647C398.31 18.7947 398.846 19.016 399.453 19.016V18.416V17.816C399.164 17.816 398.934 17.7208 398.729 17.5162L398.305 17.9404ZM399.453 18.416V19.016C400.072 19.016 400.618 18.7994 401.053 18.3648L400.629 17.9404L400.205 17.5161C400.005 17.7157 399.768 17.816 399.453 17.816V18.416ZM400.629 17.9404L401.053 18.3647C401.483 17.9353 401.705 17.3998 401.705 16.792H401.105H400.505C400.505 17.0802 400.41 17.3109 400.205 17.5162L400.629 17.9404ZM401.105 16.792H401.705V6.15234H401.105H400.505V16.792H401.105ZM401.105 6.15234H401.705C401.705 5.54454 401.483 5.00902 401.053 4.57964L400.629 5.00391L400.205 5.42817C400.41 5.63346 400.505 5.86415 400.505 6.15234H401.105ZM400.629 5.00391L401.053 4.57956C400.618 4.14488 400.072 3.92832 399.453 3.92832V4.52832V5.12832C399.768 5.12832 400.005 5.22858 400.205 5.42825L400.629 5.00391ZM464.911 18.1357V18.7357H466.535V18.1357V17.5357H464.911V18.1357ZM466.535 18.1357V18.7357C467.153 18.7357 467.701 18.5197 468.136 18.0844L467.712 17.6602L467.288 17.2359C467.088 17.4353 466.85 17.5357 466.535 17.5357V18.1357ZM467.712 17.6602L468.136 18.0844C468.566 17.6544 468.788 17.1186 468.788 16.5117H468.188H467.587C467.587 16.8007 467.492 17.0313 467.288 17.236L467.712 17.6602ZM468.188 16.5117H468.788V6.43262H468.188H467.587V16.5117H468.188ZM468.188 6.43262H468.788C468.788 5.82578 468.566 5.2899 468.136 4.85999L467.712 5.28418L467.288 5.70837C467.492 5.91304 467.587 6.14368 467.587 6.43262H468.188ZM467.712 5.28418L468.136 4.85992C467.701 4.42468 467.153 4.20859 466.535 4.20859V4.80859V5.40859C466.85 5.40859 467.088 5.50901 467.288 5.70844L467.712 5.28418ZM466.535 4.80859V4.20859H464.911V4.80859V5.40859H466.535V4.80859ZM464.911 4.80859H464.311V18.1357H464.911H465.511V4.80859H464.911ZM268.321 16.6641V16.0641H264.793V16.6641V17.2641H268.321V16.6641ZM264.793 16.6641H265.393V15.6641H264.793H264.193V16.6641H264.793ZM264.793 15.6641V16.2641H268.321V15.6641V15.0641H264.793V15.6641ZM268.321 15.6641H267.721V16.6641H268.321H268.921V15.6641H268.321ZM275.125 16.5117H274.525C274.525 16.5527 274.524 16.5929 274.522 16.6486L275.122 16.6641L275.722 16.6795C275.723 16.6344 275.725 16.5726 275.725 16.5117H275.125ZM275.122 16.6641V16.0641H271.591V16.6641V17.2641H275.122V16.6641ZM271.591 16.6641L272.189 16.7144C272.195 16.6441 272.197 16.5757 272.197 16.5117H271.597H270.997C270.997 16.5507 270.995 16.5845 270.993 16.6137L271.591 16.6641ZM271.597 16.5117H272.197V15.6641H271.597H270.997V16.5117H271.597ZM271.597 15.6641V16.2641H275.125V15.6641V15.0641H271.597V15.6641ZM275.125 15.6641H274.525V16.5117H275.125H275.725V15.6641H275.125ZM269.385 1.28027V1.88027C270.664 1.88027 271.734 2.32196 272.628 3.21627L273.053 2.79199L273.477 2.36772C272.355 1.2462 270.98 0.680273 269.385 0.680273V1.28027ZM273.053 2.79199L272.628 3.21626C273.524 4.11223 273.964 5.17378 273.964 6.43262H274.564H275.164C275.164 4.85412 274.597 3.48775 273.477 2.36773L273.053 2.79199ZM274.564 6.43262H273.964V7.71973H274.564H275.164V6.43262H274.564ZM274.564 7.71973H273.964C273.964 8.74813 273.662 9.63419 273.058 10.4013L273.529 10.7725L274.001 11.1436C274.778 10.1561 275.164 9.00596 275.164 7.71973H274.564ZM273.529 10.7725L273.113 11.2042C274.061 12.1197 274.525 13.206 274.525 14.4961L275.125 14.4961L275.725 14.4961C275.725 12.8746 275.125 11.4784 273.946 10.3407L273.529 10.7725ZM275.125 14.4961H274.525V14.6641H275.125H275.725V14.4961H275.125ZM275.125 14.6641V14.0641H271.597V14.6641V15.2641H275.125V14.6641ZM271.597 14.6641H272.197V14.4961H271.597H270.997V14.6641H271.597ZM271.597 14.4961L272.197 14.4961C272.197 13.8889 271.975 13.354 271.545 12.9245L271.121 13.3486L270.697 13.7728C270.902 13.9777 270.997 14.2077 270.997 14.4961L271.597 14.4961ZM271.121 13.3486L271.545 12.9244C271.111 12.4901 270.564 12.2722 269.945 12.2721L269.945 12.8721L269.945 13.4721C270.259 13.4721 270.497 13.5727 270.697 13.7729L271.121 13.3486ZM269.945 12.8721V12.2721H268.321V12.8721V13.4721H269.945V12.8721ZM268.321 12.8721H267.721V14.6641H268.321H268.921V12.8721H268.321ZM268.321 14.6641V14.0641H264.793V14.6641V15.2641H268.321V14.6641ZM264.793 14.6641H265.393V1.28027H264.793H264.193V14.6641H264.793ZM264.793 1.28027V1.88027H269.385V1.28027V0.680273H264.793V1.28027ZM94.3184 14.1045V14.7045H96.4463V14.1045V13.5045H94.3184V14.1045ZM96.4463 14.1045L97.0362 13.9952L95.9728 8.25496L95.3828 8.36426L94.7929 8.47356L95.8563 14.2138L96.4463 14.1045ZM95.3828 8.36426L94.7929 8.25486L93.7284 13.9951L94.3184 14.1045L94.9083 14.2139L95.9728 8.47366L95.3828 8.36426ZM157.57 14.1045V14.7045H159.698V14.1045V13.5045H157.57V14.1045ZM159.698 14.1045L160.288 13.9952L159.225 8.25496L158.635 8.36426L158.045 8.47356L159.108 14.2138L159.698 14.1045ZM158.635 8.36426L158.045 8.25486L156.98 13.9951L157.57 14.1045L158.16 14.2139L159.225 8.47366L158.635 8.36426ZM290.127 14.1045V14.7045H292.256V14.1045V13.5045H290.127V14.1045ZM292.256 14.1045L292.846 13.9951L291.781 8.25486L291.191 8.36426L290.601 8.47366L291.666 14.2139L292.256 14.1045ZM291.191 8.36426L290.601 8.25486L289.537 13.9951L290.127 14.1045L290.717 14.2139L291.781 8.47366L291.191 8.36426ZM419.69 10.9521V10.3521H416.162V10.9521V11.5521H419.69V10.9521ZM416.162 10.9521H416.762V9.95215H416.162H415.562V10.9521H416.162ZM416.162 9.95215V10.5521H419.69V9.95215V9.35215H416.162V9.95215ZM419.69 9.95215H419.09V10.9521H419.69H420.29V9.95215H419.69ZM426.494 10.9521V10.3521H422.967V10.9521V11.5521H426.494V10.9521ZM422.967 10.9521H423.567V9.95215H422.967H422.367V10.9521H422.967ZM422.967 9.95215V10.5521H426.494V9.95215V9.35215H422.967V9.95215ZM426.494 9.95215H425.894V10.9521H426.494H427.094V9.95215H426.494ZM115.272 9.34375V9.94375H116.336V9.34375V8.74375H115.272V9.34375ZM116.336 9.34375V9.94375C116.954 9.94375 117.502 9.72766 117.937 9.29243L117.513 8.86816L117.088 8.4439C116.889 8.64333 116.651 8.74375 116.336 8.74375V9.34375ZM117.513 8.86816L117.937 9.29238C118.367 8.86242 118.588 8.32658 118.588 7.71973H117.988H117.388C117.388 8.00874 117.293 8.23929 117.088 8.44394L117.513 8.86816ZM117.988 7.71973H118.588V6.43262H117.988H117.388V7.71973H117.988ZM117.988 6.43262H118.588C118.588 5.82577 118.367 5.28991 117.937 4.85997L117.513 5.28418L117.088 5.70839C117.293 5.91305 117.388 6.14362 117.388 6.43262H117.988ZM117.513 5.28418L117.937 4.85992C117.502 4.42468 116.954 4.20859 116.336 4.20859V4.80859V5.40859C116.651 5.40859 116.889 5.50901 117.088 5.70844L117.513 5.28418ZM116.336 4.80859V4.20859H115.272V4.80859V5.40859H116.336V4.80859ZM115.272 4.80859H114.672V9.34375H115.272H115.872V4.80859H115.272ZM136.365 9.34375V9.94375H137.43V9.34375V8.74375H136.365V9.34375ZM137.43 9.34375L137.43 9.94375C138.048 9.94366 138.595 9.72738 139.03 9.29243L138.605 8.86816L138.181 8.4439C137.982 8.64347 137.745 8.7437 137.43 8.74375L137.43 9.34375ZM138.605 8.86816L139.03 9.29242C139.46 8.8624 139.681 8.32659 139.681 7.71973H139.081H138.481C138.481 8.00883 138.386 8.23928 138.181 8.44391L138.605 8.86816ZM139.081 7.71973H139.681V6.43262H139.081H138.481V7.71973H139.081ZM139.081 6.43262H139.681C139.681 5.82576 139.46 5.28994 139.03 4.85994L138.605 5.28418L138.181 5.70842C138.386 5.91306 138.481 6.14354 138.481 6.43262H139.081ZM138.605 5.28418L139.03 4.85992C138.595 4.42496 138.048 4.20869 137.43 4.20859L137.43 4.80859L137.43 5.40859C137.745 5.40864 137.982 5.50888 138.181 5.70844L138.605 5.28418ZM137.43 4.80859V4.20859H136.365V4.80859V5.40859H137.43V4.80859ZM136.365 4.80859H135.765V9.34375H136.365H136.965V4.80859H136.365ZM268.321 9.34375V9.94375H269.385V9.34375V8.74375H268.321V9.34375ZM269.385 9.34375V9.94375C270.003 9.94375 270.55 9.72727 270.985 9.29248L270.561 8.86816L270.136 8.44385C269.937 8.64352 269.7 8.74375 269.385 8.74375V9.34375ZM270.561 8.86816L270.985 9.29243C271.414 8.86305 271.637 8.32753 271.637 7.71973H271.037H270.437C270.437 8.00792 270.342 8.23861 270.136 8.4439L270.561 8.86816ZM271.037 7.71973H271.637V6.43262H271.037H270.437V7.71973H271.037ZM271.037 6.43262H271.637C271.637 5.82481 271.414 5.28929 270.985 4.85992L270.561 5.28418L270.136 5.70844C270.342 5.91374 270.437 6.14442 270.437 6.43262H271.037ZM270.561 5.28418L270.985 4.85987C270.55 4.42506 270.003 4.20859 269.385 4.20859V4.80859V5.40859C269.7 5.40859 269.937 5.50881 270.136 5.70849L270.561 5.28418ZM269.385 4.80859V4.20859H268.321V4.80859V5.40859H269.385V4.80859ZM268.321 4.80859H267.721V9.34375H268.321H268.921V4.80859H268.321ZM376.849 9.34375V9.94375H377.912V9.34375V8.74375H376.849V9.34375ZM377.912 9.34375V9.94375C378.53 9.94375 379.077 9.72727 379.512 9.29248L379.088 8.86816L378.664 8.44385C378.464 8.64352 378.227 8.74375 377.912 8.74375V9.34375ZM379.088 8.86816L379.512 9.29243C379.942 8.86305 380.164 8.32753 380.164 7.71973H379.564H378.964C378.964 8.00792 378.869 8.23861 378.664 8.4439L379.088 8.86816ZM379.564 7.71973H380.164V6.43262H379.564H378.964V7.71973H379.564ZM379.564 6.43262H380.164C380.164 5.82481 379.942 5.28929 379.512 4.85992L379.088 5.28418L378.664 5.70844C378.869 5.91374 378.964 6.14442 378.964 6.43262H379.564ZM379.088 5.28418L379.512 4.85987C379.077 4.42506 378.53 4.20859 377.912 4.20859V4.80859V5.40859C378.227 5.40859 378.464 5.50881 378.664 5.70849L379.088 5.28418ZM377.912 4.80859V4.20859H376.849V4.80859V5.40859H377.912V4.80859ZM376.849 4.80859H376.249V9.34375H376.849H377.449V4.80859H376.849ZM198.496 8.95215V8.35215H194.968V8.95215V9.55215H198.496V8.95215ZM194.968 8.95215H195.568V7.95215H194.968H194.368V8.95215H194.968ZM194.968 7.95215V8.55215H198.496V7.95215V7.35215H194.968V7.95215ZM198.496 7.95215H197.896V8.95215H198.496H199.096V7.95215H198.496ZM419.69 8.95215V8.35215H416.162V8.95215V9.55215H419.69V8.95215ZM416.162 8.95215H416.762V7.95215H416.162H415.562V8.95215H416.162ZM416.162 7.95215V8.55215H419.69V7.95215V7.35215H416.162V7.95215ZM419.69 7.95215H419.09V8.95215H419.69H420.29V7.95215H419.69ZM426.494 8.95215V8.35215H422.967V8.95215V9.55215H426.494V8.95215ZM422.967 8.95215H423.567V7.95215H422.967H422.367V8.95215H422.967ZM422.967 7.95215V8.55215H426.494V7.95215V7.35215H422.967V7.95215ZM426.494 7.95215H425.894V8.95215H426.494H427.094V7.95215H426.494ZM198.496 6.95215V6.35215H194.968V6.95215V7.55215H198.496V6.95215ZM194.968 6.95215H195.568V5.95215H194.968H194.368V6.95215H194.968ZM194.968 5.95215V6.55215H198.496V5.95215V5.35215H194.968V5.95215ZM198.496 5.95215H197.896V6.95215H198.496H199.096V5.95215H198.496ZM419.69 6.95215V6.35215H416.162V6.95215V7.55215H419.69V6.95215ZM416.162 6.95215H416.762V1.28027H416.162H415.562V6.95215H416.162ZM416.162 1.28027V1.88027H419.69V1.28027V0.680273H416.162V1.28027ZM419.69 1.28027H419.09V6.95215H419.69H420.29V1.28027H419.69ZM426.494 6.95215V6.35215H422.967V6.95215V7.55215H426.494V6.95215ZM422.967 6.95215H423.567V1.28027H422.967H422.367V6.95215H422.967ZM422.967 1.28027V1.88027H426.494V1.28027V0.680273H422.967V1.28027ZM426.494 1.28027H425.894V6.95215H426.494H427.094V1.28027H426.494ZM198.496 4.95215V4.35215H194.968V4.95215V5.55215H198.496V4.95215ZM194.968 4.95215H195.568V1.28027H194.968H194.368V4.95215H194.968ZM194.968 1.28027V1.88027H198.496V1.28027V0.680273H194.968V1.28027ZM198.496 1.28027H197.896V4.95215H198.496H199.096V1.28027H198.496Z" fill="url(#paint1_linear_7_217)" mask="url(#path-1-inside-1_7_217)"/>
<defs>
<radialGradient id="paint0_radial_7_217" cx="0" cy="0" r="1" gradientUnits="userSpaceOnUse" gradientTransform="translate(268.888 11.7474) rotate(90) scale(54.3276 263.121)">
<stop stop-color="#ECF7FF"/>
<stop offset="1" stop-color="#ECF7FF" stop-opacity="0"/>
</radialGradient>
<linearGradient id="paint1_linear_7_217" x1="268.888" y1="-8.03681" x2="268.888" y2="63.9319" gradientUnits="userSpaceOnUse">
<stop stop-color="#253596" stop-opacity="0"/>
<stop offset="0.456017" stop-color="#4A76D4"/>
<stop offset="1" stop-color="#76EAF1"/>
</linearGradient>
</defs>
</svg>
