<svg width="370" height="22" viewBox="0 0 370 22" fill="none" xmlns="http://www.w3.org/2000/svg">
<mask id="path-1-inside-1_7_501" fill="white">
<path d="M88.9072 0C89.9337 0.000105686 90.8065 0.360244 91.5264 1.08008C92.2463 1.80004 92.6064 2.66642 92.6064 3.67969V4.33984H90.0869V3.67969C90.0869 3.35976 89.9737 3.086 89.7471 2.85938C89.5205 2.63287 89.2403 2.51963 88.9072 2.51953C88.5874 2.51953 88.3135 2.63291 88.0869 2.85938C87.8603 3.086 87.7471 3.35976 87.7471 3.67969V11.2803C87.7472 11.6001 87.8604 11.8731 88.0869 12.0996C88.3136 12.3263 88.5872 12.4395 88.9072 12.4395C89.2404 12.4394 89.5205 12.3262 89.7471 12.0996C89.9735 11.8731 90.0868 11.6 90.0869 11.2803V10.6201H92.6064V11.2803C92.6063 12.2934 92.2463 13.16 91.5264 13.8799C90.8065 14.5996 89.9336 14.9599 88.9072 14.96C87.8939 14.96 87.0266 14.5999 86.3066 13.8799C85.5868 13.16 85.2267 12.2934 85.2266 11.2803V3.67969C85.2266 2.66651 85.5868 1.8 86.3066 1.08008C87.0266 0.360078 87.8939 0 88.9072 0ZM235.806 0C236.832 0.000105686 237.705 0.360244 238.425 1.08008C239.145 1.80004 239.505 2.66642 239.505 3.67969V4.33984H236.985V3.67969C236.985 3.35976 236.872 3.086 236.646 2.85938C236.419 2.63287 236.139 2.51963 235.806 2.51953C235.486 2.51953 235.212 2.63291 234.985 2.85938C234.759 3.086 234.646 3.35976 234.646 3.67969V11.2803C234.646 11.6001 234.759 11.8731 234.985 12.0996C235.212 12.3263 235.486 12.4395 235.806 12.4395C236.139 12.4394 236.419 12.3262 236.646 12.0996C236.872 11.8731 236.985 11.6 236.985 11.2803V8.47949H235.525V5.95996H239.505V11.2803C239.505 12.2934 239.145 13.16 238.425 13.8799C237.705 14.5996 236.832 14.9599 235.806 14.96C234.792 14.96 233.925 14.5999 233.205 13.8799C232.485 13.16 232.125 12.2934 232.125 11.2803V3.67969C232.125 2.66651 232.485 1.8 233.205 1.08008C233.925 0.360078 234.792 0 235.806 0ZM266.388 0C267.414 0.000105686 268.287 0.360244 269.007 1.08008C269.727 1.80004 270.087 2.66642 270.087 3.67969V4.33984H267.567V3.67969C267.567 3.35976 267.454 3.086 267.228 2.85938C267.001 2.63287 266.721 2.51963 266.388 2.51953C266.068 2.51953 265.794 2.63291 265.567 2.85938C265.341 3.086 265.228 3.35976 265.228 3.67969V11.2803C265.228 11.6001 265.341 11.8731 265.567 12.0996C265.794 12.3263 266.068 12.4395 266.388 12.4395C266.721 12.4394 267.001 12.3262 267.228 12.0996C267.454 11.8731 267.567 11.6 267.567 11.2803V10.6201H270.087V11.2803C270.087 12.2934 269.727 13.16 269.007 13.8799C268.287 14.5996 267.414 14.9599 266.388 14.96C265.374 14.96 264.507 14.5999 263.787 13.8799C263.067 13.16 262.707 12.2934 262.707 11.2803V3.67969C262.707 2.66651 263.067 1.8 263.787 1.08008C264.507 0.360078 265.374 0 266.388 0ZM103.927 0.200195C104.953 0.200228 105.827 0.560306 106.547 1.28027C107.267 2.00021 107.627 2.86671 107.627 3.87988V4.7998C107.627 5.43981 107.474 6.03341 107.167 6.58008C106.874 7.1134 106.466 7.54655 105.946 7.87988L108.446 14.7598H105.767L103.526 8.47949H103.167V14.7598H100.646V0.200195H103.927ZM122.333 2.71973H118.233V5.95996H121.853V8.47949H118.233V12.2402H122.333V14.7598H115.713V0.200195H122.333V2.71973ZM137.835 14.7598H135.255L134.715 11.8799H132.274L131.735 14.7598H129.155L132.235 0.200195H134.755L137.835 14.7598ZM149.401 14.7598H146.882V7.0957H149.401V14.7598ZM161.968 14.7598H159.447V0.200195H161.968V14.7598ZM173.435 9.41992L174.975 0.200195H177.555L174.694 14.7598H172.175L169.314 0.200195H171.895L173.435 9.41992ZM191.513 2.71973H187.413V5.95996H191.032V8.47949H187.413V12.2402H191.513V14.7598H184.893V0.200195H191.513V2.71973ZM206.839 12.2402H210.259V14.7598H204.318V9.0957H206.839V12.2402ZM224.403 2.71973H220.304V5.95996H223.923V8.47949H220.304V12.2402H224.403V14.7598H217.783V0.200195H224.403V2.71973ZM255.44 14.7598H252.86L252.32 11.8799H249.88L249.341 14.7598H246.761L249.841 0.200195H252.36L255.44 14.7598ZM281.922 14.7598H279.401V12.0479H281.922V14.7598ZM281.922 11.0479H279.401V10.0479H281.922V11.0479ZM132.735 9.35938H134.255L133.495 5.25977L132.735 9.35938ZM250.341 9.35938H251.86L251.101 5.25977L250.341 9.35938ZM281.922 8.5V9.04785H279.401V8.5L279.244 8.04785H282.079L281.922 8.5ZM206.839 8.0957H204.318V7.0957H206.839V8.0957ZM280.661 5.71973L282.082 0.200195H284.802L282.426 7.04785H278.897L276.521 0.200195H279.241L280.661 5.71973ZM149.401 6.0957H146.882V5.0957H149.401V6.0957ZM206.839 6.0957H204.318V5.0957H206.839V6.0957ZM103.167 5.95996H103.927C104.26 5.95993 104.54 5.84666 104.767 5.62012C104.993 5.39345 105.106 5.1198 105.106 4.7998V3.87988C105.106 3.55988 104.993 3.28624 104.767 3.05957C104.54 2.83303 104.26 2.71976 103.927 2.71973H103.167V5.95996ZM149.401 4.0957H146.882V3.0957H149.401V4.0957ZM206.839 4.0957H204.318V0.200195H206.839V4.0957ZM151.901 2.0957H144.382V0.200195H151.901V2.0957Z"/>
</mask>
<path d="M88.9072 0C89.9337 0.000105686 90.8065 0.360244 91.5264 1.08008C92.2463 1.80004 92.6064 2.66642 92.6064 3.67969V4.33984H90.0869V3.67969C90.0869 3.35976 89.9737 3.086 89.7471 2.85938C89.5205 2.63287 89.2403 2.51963 88.9072 2.51953C88.5874 2.51953 88.3135 2.63291 88.0869 2.85938C87.8603 3.086 87.7471 3.35976 87.7471 3.67969V11.2803C87.7472 11.6001 87.8604 11.8731 88.0869 12.0996C88.3136 12.3263 88.5872 12.4395 88.9072 12.4395C89.2404 12.4394 89.5205 12.3262 89.7471 12.0996C89.9735 11.8731 90.0868 11.6 90.0869 11.2803V10.6201H92.6064V11.2803C92.6063 12.2934 92.2463 13.16 91.5264 13.8799C90.8065 14.5996 89.9336 14.9599 88.9072 14.96C87.8939 14.96 87.0266 14.5999 86.3066 13.8799C85.5868 13.16 85.2267 12.2934 85.2266 11.2803V3.67969C85.2266 2.66651 85.5868 1.8 86.3066 1.08008C87.0266 0.360078 87.8939 0 88.9072 0ZM235.806 0C236.832 0.000105686 237.705 0.360244 238.425 1.08008C239.145 1.80004 239.505 2.66642 239.505 3.67969V4.33984H236.985V3.67969C236.985 3.35976 236.872 3.086 236.646 2.85938C236.419 2.63287 236.139 2.51963 235.806 2.51953C235.486 2.51953 235.212 2.63291 234.985 2.85938C234.759 3.086 234.646 3.35976 234.646 3.67969V11.2803C234.646 11.6001 234.759 11.8731 234.985 12.0996C235.212 12.3263 235.486 12.4395 235.806 12.4395C236.139 12.4394 236.419 12.3262 236.646 12.0996C236.872 11.8731 236.985 11.6 236.985 11.2803V8.47949H235.525V5.95996H239.505V11.2803C239.505 12.2934 239.145 13.16 238.425 13.8799C237.705 14.5996 236.832 14.9599 235.806 14.96C234.792 14.96 233.925 14.5999 233.205 13.8799C232.485 13.16 232.125 12.2934 232.125 11.2803V3.67969C232.125 2.66651 232.485 1.8 233.205 1.08008C233.925 0.360078 234.792 0 235.806 0ZM266.388 0C267.414 0.000105686 268.287 0.360244 269.007 1.08008C269.727 1.80004 270.087 2.66642 270.087 3.67969V4.33984H267.567V3.67969C267.567 3.35976 267.454 3.086 267.228 2.85938C267.001 2.63287 266.721 2.51963 266.388 2.51953C266.068 2.51953 265.794 2.63291 265.567 2.85938C265.341 3.086 265.228 3.35976 265.228 3.67969V11.2803C265.228 11.6001 265.341 11.8731 265.567 12.0996C265.794 12.3263 266.068 12.4395 266.388 12.4395C266.721 12.4394 267.001 12.3262 267.228 12.0996C267.454 11.8731 267.567 11.6 267.567 11.2803V10.6201H270.087V11.2803C270.087 12.2934 269.727 13.16 269.007 13.8799C268.287 14.5996 267.414 14.9599 266.388 14.96C265.374 14.96 264.507 14.5999 263.787 13.8799C263.067 13.16 262.707 12.2934 262.707 11.2803V3.67969C262.707 2.66651 263.067 1.8 263.787 1.08008C264.507 0.360078 265.374 0 266.388 0ZM103.927 0.200195C104.953 0.200228 105.827 0.560306 106.547 1.28027C107.267 2.00021 107.627 2.86671 107.627 3.87988V4.7998C107.627 5.43981 107.474 6.03341 107.167 6.58008C106.874 7.1134 106.466 7.54655 105.946 7.87988L108.446 14.7598H105.767L103.526 8.47949H103.167V14.7598H100.646V0.200195H103.927ZM122.333 2.71973H118.233V5.95996H121.853V8.47949H118.233V12.2402H122.333V14.7598H115.713V0.200195H122.333V2.71973ZM137.835 14.7598H135.255L134.715 11.8799H132.274L131.735 14.7598H129.155L132.235 0.200195H134.755L137.835 14.7598ZM149.401 14.7598H146.882V7.0957H149.401V14.7598ZM161.968 14.7598H159.447V0.200195H161.968V14.7598ZM173.435 9.41992L174.975 0.200195H177.555L174.694 14.7598H172.175L169.314 0.200195H171.895L173.435 9.41992ZM191.513 2.71973H187.413V5.95996H191.032V8.47949H187.413V12.2402H191.513V14.7598H184.893V0.200195H191.513V2.71973ZM206.839 12.2402H210.259V14.7598H204.318V9.0957H206.839V12.2402ZM224.403 2.71973H220.304V5.95996H223.923V8.47949H220.304V12.2402H224.403V14.7598H217.783V0.200195H224.403V2.71973ZM255.44 14.7598H252.86L252.32 11.8799H249.88L249.341 14.7598H246.761L249.841 0.200195H252.36L255.44 14.7598ZM281.922 14.7598H279.401V12.0479H281.922V14.7598ZM281.922 11.0479H279.401V10.0479H281.922V11.0479ZM132.735 9.35938H134.255L133.495 5.25977L132.735 9.35938ZM250.341 9.35938H251.86L251.101 5.25977L250.341 9.35938ZM281.922 8.5V9.04785H279.401V8.5L279.244 8.04785H282.079L281.922 8.5ZM206.839 8.0957H204.318V7.0957H206.839V8.0957ZM280.661 5.71973L282.082 0.200195H284.802L282.426 7.04785H278.897L276.521 0.200195H279.241L280.661 5.71973ZM149.401 6.0957H146.882V5.0957H149.401V6.0957ZM206.839 6.0957H204.318V5.0957H206.839V6.0957ZM103.167 5.95996H103.927C104.26 5.95993 104.54 5.84666 104.767 5.62012C104.993 5.39345 105.106 5.1198 105.106 4.7998V3.87988C105.106 3.55988 104.993 3.28624 104.767 3.05957C104.54 2.83303 104.26 2.71976 103.927 2.71973H103.167V5.95996ZM149.401 4.0957H146.882V3.0957H149.401V4.0957ZM206.839 4.0957H204.318V0.200195H206.839V4.0957ZM151.901 2.0957H144.382V0.200195H151.901V2.0957Z" fill="url(#paint0_radial_7_501)"/>
<path d="M88.9072 0L88.9073 -0.6H88.9072V0ZM91.5264 1.08008L91.9506 0.655814L91.9506 0.655801L91.5264 1.08008ZM92.6064 3.67969H93.2064V3.67966L92.6064 3.67969ZM92.6064 4.33984V4.93984H93.2064V4.33984H92.6064ZM90.0869 4.33984H89.4869V4.93984H90.0869V4.33984ZM90.0869 3.67969H90.6869V3.67961L90.0869 3.67969ZM89.7471 2.85938L90.1713 2.43511L90.1713 2.43507L89.7471 2.85938ZM88.9072 2.51953L88.9074 1.91953H88.9072V2.51953ZM88.0869 2.85938L87.6628 2.43498L87.6626 2.43511L88.0869 2.85938ZM87.7471 3.67969L87.1471 3.67961V3.67969H87.7471ZM87.7471 11.2803H87.1471V11.2805L87.7471 11.2803ZM88.0869 12.0996L87.6626 12.5239L87.6627 12.5239L88.0869 12.0996ZM88.9072 12.4395V13.0395H88.9074L88.9072 12.4395ZM89.7471 12.0996L90.1713 12.5239L90.1715 12.5238L89.7471 12.0996ZM90.0869 11.2803L90.6869 11.2805V11.2803H90.0869ZM90.0869 10.6201V10.0201H89.4869V10.6201H90.0869ZM92.6064 10.6201H93.2064V10.0201H92.6064V10.6201ZM92.6064 11.2803L93.2064 11.2803V11.2803H92.6064ZM91.5264 13.8799L91.9506 14.3042L91.9506 14.3041L91.5264 13.8799ZM88.9072 14.96V15.56H88.9073L88.9072 14.96ZM86.3066 13.8799L85.8824 14.3041L85.8824 14.3041L86.3066 13.8799ZM85.2266 11.2803H84.6266V11.2803L85.2266 11.2803ZM85.2266 3.67969L84.6266 3.67966V3.67969H85.2266ZM86.3066 1.08008L85.8824 0.655814L85.8824 0.655839L86.3066 1.08008ZM235.806 0L235.806 -0.6H235.806V0ZM238.425 1.08008L238.849 0.655814L238.849 0.655801L238.425 1.08008ZM239.505 3.67969H240.105V3.67966L239.505 3.67969ZM239.505 4.33984V4.93984H240.105V4.33984H239.505ZM236.985 4.33984H236.385V4.93984H236.985V4.33984ZM236.985 3.67969H237.585V3.67961L236.985 3.67969ZM236.646 2.85938L237.07 2.43511L237.07 2.43507L236.646 2.85938ZM235.806 2.51953L235.806 1.91953H235.806V2.51953ZM234.985 2.85938L234.561 2.43498L234.561 2.43511L234.985 2.85938ZM234.646 3.67969L234.046 3.67961V3.67969H234.646ZM234.646 11.2803H234.046V11.2805L234.646 11.2803ZM234.985 12.0996L234.561 12.5239L234.561 12.5239L234.985 12.0996ZM235.806 12.4395V13.0395H235.806L235.806 12.4395ZM236.646 12.0996L237.07 12.5239L237.07 12.5238L236.646 12.0996ZM236.985 11.2803L237.585 11.2805V11.2803H236.985ZM236.985 8.47949H237.585V7.87949H236.985V8.47949ZM235.525 8.47949H234.925V9.07949H235.525V8.47949ZM235.525 5.95996V5.35996H234.925V5.95996H235.525ZM239.505 5.95996H240.105V5.35996H239.505V5.95996ZM239.505 11.2803L240.105 11.2803V11.2803H239.505ZM238.425 13.8799L238.849 14.3042L238.849 14.3041L238.425 13.8799ZM235.806 14.96V15.56H235.806L235.806 14.96ZM233.205 13.8799L232.781 14.3041V14.3041L233.205 13.8799ZM232.125 11.2803H231.525V11.2803L232.125 11.2803ZM232.125 3.67969L231.525 3.67966V3.67969H232.125ZM233.205 1.08008L232.781 0.655814L232.781 0.655839L233.205 1.08008ZM266.388 0L266.388 -0.6H266.388V0ZM269.007 1.08008L269.431 0.655814L269.431 0.655801L269.007 1.08008ZM270.087 3.67969H270.687V3.67966L270.087 3.67969ZM270.087 4.33984V4.93984H270.687V4.33984H270.087ZM267.567 4.33984H266.967V4.93984H267.567V4.33984ZM267.567 3.67969H268.167V3.67961L267.567 3.67969ZM267.228 2.85938L267.652 2.43511L267.652 2.43507L267.228 2.85938ZM266.388 2.51953L266.388 1.91953H266.388V2.51953ZM265.567 2.85938L265.143 2.43498L265.143 2.43511L265.567 2.85938ZM265.228 3.67969L264.628 3.67961V3.67969H265.228ZM265.228 11.2803H264.628V11.2805L265.228 11.2803ZM265.567 12.0996L265.143 12.5239L265.143 12.5239L265.567 12.0996ZM266.388 12.4395V13.0395H266.388L266.388 12.4395ZM267.228 12.0996L267.652 12.5239L267.652 12.5238L267.228 12.0996ZM267.567 11.2803L268.167 11.2805V11.2803H267.567ZM267.567 10.6201V10.0201H266.967V10.6201H267.567ZM270.087 10.6201H270.687V10.0201H270.087V10.6201ZM270.087 11.2803L270.687 11.2803V11.2803H270.087ZM269.007 13.8799L269.431 14.3042L269.431 14.3041L269.007 13.8799ZM266.388 14.96V15.56H266.388L266.388 14.96ZM263.787 13.8799L263.363 14.3041V14.3041L263.787 13.8799ZM262.707 11.2803H262.107V11.2803L262.707 11.2803ZM262.707 3.67969L262.107 3.67966V3.67969H262.707ZM263.787 1.08008L263.363 0.655814L263.363 0.655839L263.787 1.08008ZM103.927 0.200195L103.927 -0.399805H103.927V0.200195ZM106.547 1.28027L106.971 0.856056L106.971 0.856009L106.547 1.28027ZM107.167 6.58008L106.644 6.28652L106.641 6.29092L107.167 6.58008ZM105.946 7.87988L105.622 7.37476L105.218 7.63375L105.382 8.0848L105.946 7.87988ZM108.446 14.7598V15.3598H109.303L109.01 14.5548L108.446 14.7598ZM105.767 14.7598L105.201 14.9614L105.344 15.3598H105.767V14.7598ZM103.526 8.47949L104.091 8.27791L103.949 7.87949H103.526V8.47949ZM103.167 8.47949V7.87949H102.567V8.47949H103.167ZM103.167 14.7598V15.3598H103.767V14.7598H103.167ZM100.646 14.7598H100.046V15.3598H100.646V14.7598ZM100.646 0.200195V-0.399805H100.046V0.200195H100.646ZM122.333 2.71973V3.31973H122.933V2.71973H122.333ZM118.233 2.71973V2.11973H117.633V2.71973H118.233ZM118.233 5.95996H117.633V6.55996H118.233V5.95996ZM121.853 5.95996H122.453V5.35996H121.853V5.95996ZM121.853 8.47949V9.07949H122.453V8.47949H121.853ZM118.233 8.47949V7.87949H117.633V8.47949H118.233ZM118.233 12.2402H117.633V12.8402H118.233V12.2402ZM122.333 12.2402H122.933V11.6402H122.333V12.2402ZM122.333 14.7598V15.3598H122.933V14.7598H122.333ZM115.713 14.7598H115.113V15.3598H115.713V14.7598ZM115.713 0.200195V-0.399805H115.113V0.200195H115.713ZM122.333 0.200195H122.933V-0.399805H122.333V0.200195ZM137.835 14.7598V15.3598H138.575L138.422 14.6356L137.835 14.7598ZM135.255 14.7598L134.665 14.8704L134.757 15.3598H135.255V14.7598ZM134.715 11.8799L135.305 11.7693L135.213 11.2799H134.715V11.8799ZM132.274 11.8799V11.2799H131.776L131.685 11.7695L132.274 11.8799ZM131.735 14.7598V15.3598H132.233L132.325 14.8702L131.735 14.7598ZM129.155 14.7598L128.568 14.6356L128.415 15.3598H129.155V14.7598ZM132.235 0.200195V-0.399805H131.749L131.648 0.0760136L132.235 0.200195ZM134.755 0.200195L135.342 0.0760136L135.241 -0.399805H134.755V0.200195ZM149.401 14.7598V15.3598H150.001V14.7598H149.401ZM146.882 14.7598H146.282V15.3598H146.882V14.7598ZM146.882 7.0957V6.4957H146.282V7.0957H146.882ZM149.401 7.0957H150.001V6.4957H149.401V7.0957ZM161.968 14.7598V15.3598H162.568V14.7598H161.968ZM159.447 14.7598H158.847V15.3598H159.447V14.7598ZM159.447 0.200195V-0.399805H158.847V0.200195H159.447ZM161.968 0.200195H162.568V-0.399805H161.968V0.200195ZM173.435 9.41992L172.843 9.51877H174.026L173.435 9.41992ZM174.975 0.200195V-0.399805H174.467L174.383 0.101342L174.975 0.200195ZM177.555 0.200195L178.143 0.315859L178.284 -0.399805H177.555V0.200195ZM174.694 14.7598V15.3598H175.188L175.283 14.8754L174.694 14.7598ZM172.175 14.7598L171.586 14.8754L171.681 15.3598H172.175V14.7598ZM169.314 0.200195V-0.399805H168.585L168.726 0.315859L169.314 0.200195ZM171.895 0.200195L172.486 0.101342L172.403 -0.399805H171.895V0.200195ZM191.513 2.71973V3.31973H192.113V2.71973H191.513ZM187.413 2.71973V2.11973H186.813V2.71973H187.413ZM187.413 5.95996H186.813V6.55996H187.413V5.95996ZM191.032 5.95996H191.632V5.35996H191.032V5.95996ZM191.032 8.47949V9.07949H191.632V8.47949H191.032ZM187.413 8.47949V7.87949H186.813V8.47949H187.413ZM187.413 12.2402H186.813V12.8402H187.413V12.2402ZM191.513 12.2402H192.113V11.6402H191.513V12.2402ZM191.513 14.7598V15.3598H192.113V14.7598H191.513ZM184.893 14.7598H184.293V15.3598H184.893V14.7598ZM184.893 0.200195V-0.399805H184.293V0.200195H184.893ZM191.513 0.200195H192.113V-0.399805H191.513V0.200195ZM206.839 12.2402H206.239V12.8402H206.839V12.2402ZM210.259 12.2402H210.859V11.6402H210.259V12.2402ZM210.259 14.7598V15.3598H210.859V14.7598H210.259ZM204.318 14.7598H203.718V15.3598H204.318V14.7598ZM204.318 9.0957V8.4957H203.718V9.0957H204.318ZM206.839 9.0957H207.439V8.4957H206.839V9.0957ZM224.403 2.71973V3.31973H225.003V2.71973H224.403ZM220.304 2.71973V2.11973H219.704V2.71973H220.304ZM220.304 5.95996H219.704V6.55996H220.304V5.95996ZM223.923 5.95996H224.523V5.35996H223.923V5.95996ZM223.923 8.47949V9.07949H224.523V8.47949H223.923ZM220.304 8.47949V7.87949H219.704V8.47949H220.304ZM220.304 12.2402H219.704V12.8402H220.304V12.2402ZM224.403 12.2402H225.003V11.6402H224.403V12.2402ZM224.403 14.7598V15.3598H225.003V14.7598H224.403ZM217.783 14.7598H217.183V15.3598H217.783V14.7598ZM217.783 0.200195V-0.399805H217.183V0.200195H217.783ZM224.403 0.200195H225.003V-0.399805H224.403V0.200195ZM255.44 14.7598V15.3598H256.181L256.027 14.6356L255.44 14.7598ZM252.86 14.7598L252.271 14.8704L252.362 15.3598H252.86V14.7598ZM252.32 11.8799L252.91 11.7693L252.818 11.2799H252.32V11.8799ZM249.88 11.8799V11.2799H249.382L249.29 11.7695L249.88 11.8799ZM249.341 14.7598V15.3598H249.839L249.931 14.8702L249.341 14.7598ZM246.761 14.7598L246.174 14.6356L246.021 15.3598H246.761V14.7598ZM249.841 0.200195V-0.399805H249.354L249.254 0.0760136L249.841 0.200195ZM252.36 0.200195L252.947 0.0760136L252.847 -0.399805H252.36V0.200195ZM281.922 14.7598V15.3598H282.522V14.7598H281.922ZM279.401 14.7598H278.801V15.3598H279.401V14.7598ZM279.401 12.0479V11.4479H278.801V12.0479H279.401ZM281.922 12.0479H282.522V11.4479H281.922V12.0479ZM281.922 11.0479V11.6479H282.522V11.0479H281.922ZM279.401 11.0479H278.801V11.6479H279.401V11.0479ZM279.401 10.0479V9.44785H278.801V10.0479H279.401ZM281.922 10.0479H282.522V9.44785H281.922V10.0479ZM132.735 9.35938L132.145 9.25004L132.014 9.95938H132.735V9.35938ZM134.255 9.35938V9.95938H134.976L134.845 9.25004L134.255 9.35938ZM133.495 5.25977L134.085 5.15043H132.905L133.495 5.25977ZM250.341 9.35938L249.751 9.25004L249.619 9.95938H250.341V9.35938ZM251.86 9.35938V9.95938H252.582L252.45 9.25004L251.86 9.35938ZM251.101 5.25977L251.691 5.15043H250.511L251.101 5.25977ZM281.922 8.5L281.355 8.30293L281.322 8.39866V8.5H281.922ZM281.922 9.04785V9.64785H282.522V9.04785H281.922ZM279.401 9.04785H278.801V9.64785H279.401V9.04785ZM279.401 8.5H280.001V8.39866L279.968 8.30293L279.401 8.5ZM279.244 8.04785V7.44785H278.4L278.677 8.24492L279.244 8.04785ZM282.079 8.04785L282.646 8.24492L282.923 7.44785H282.079V8.04785ZM206.839 8.0957V8.6957H207.439V8.0957H206.839ZM204.318 8.0957H203.718V8.6957H204.318V8.0957ZM204.318 7.0957V6.4957H203.718V7.0957H204.318ZM206.839 7.0957H207.439V6.4957H206.839V7.0957ZM280.661 5.71973L280.08 5.86921L281.242 5.86931L280.661 5.71973ZM282.082 0.200195V-0.399805H281.617L281.501 0.0506136L282.082 0.200195ZM284.802 0.200195L285.369 0.396878L285.645 -0.399805H284.802V0.200195ZM282.426 7.04785V7.64785H282.853L282.993 7.24453L282.426 7.04785ZM278.897 7.04785L278.331 7.24453L278.471 7.64785H278.897V7.04785ZM276.521 0.200195V-0.399805H275.678L275.955 0.396878L276.521 0.200195ZM279.241 0.200195L279.822 0.0507101L279.706 -0.399805H279.241V0.200195ZM149.401 6.0957V6.6957H150.001V6.0957H149.401ZM146.882 6.0957H146.282V6.6957H146.882V6.0957ZM146.882 5.0957V4.4957H146.282V5.0957H146.882ZM149.401 5.0957H150.001V4.4957H149.401V5.0957ZM206.839 6.0957V6.6957H207.439V6.0957H206.839ZM204.318 6.0957H203.718V6.6957H204.318V6.0957ZM204.318 5.0957V4.4957H203.718V5.0957H204.318ZM206.839 5.0957H207.439V4.4957H206.839V5.0957ZM103.167 5.95996H102.567V6.55996H103.167V5.95996ZM103.927 5.95996V6.55996H103.927L103.927 5.95996ZM104.767 5.62012L105.191 6.04445L105.191 6.04438L104.767 5.62012ZM104.767 3.05957L105.191 2.63531L105.191 2.63524L104.767 3.05957ZM103.927 2.71973L103.927 2.11973H103.927V2.71973ZM103.167 2.71973V2.11973H102.567V2.71973H103.167ZM149.401 4.0957V4.6957H150.001V4.0957H149.401ZM146.882 4.0957H146.282V4.6957H146.882V4.0957ZM146.882 3.0957V2.4957H146.282V3.0957H146.882ZM149.401 3.0957H150.001V2.4957H149.401V3.0957ZM206.839 4.0957V4.6957H207.439V4.0957H206.839ZM204.318 4.0957H203.718V4.6957H204.318V4.0957ZM204.318 0.200195V-0.399805H203.718V0.200195H204.318ZM206.839 0.200195H207.439V-0.399805H206.839V0.200195ZM151.901 2.0957V2.6957H152.501V2.0957H151.901ZM144.382 2.0957H143.782V2.6957H144.382V2.0957ZM144.382 0.200195V-0.399805H143.782V0.200195H144.382ZM151.901 0.200195H152.501V-0.399805H151.901V0.200195ZM88.9072 0L88.9072 0.6C89.7758 0.600089 90.4957 0.89797 91.1021 1.50435L91.5264 1.08008L91.9506 0.655801C91.1173 -0.177482 90.0915 -0.599878 88.9073 -0.6L88.9072 0ZM91.5264 1.08008L91.1021 1.50434C91.7102 2.11245 92.0064 2.82651 92.0064 3.67971L92.6064 3.67969L93.2064 3.67966C93.2064 2.50634 92.7824 1.48762 91.9506 0.655814L91.5264 1.08008ZM92.6064 3.67969H92.0064V4.33984H92.6064H93.2064V3.67969H92.6064ZM92.6064 4.33984V3.73984H90.0869V4.33984V4.93984H92.6064V4.33984ZM90.0869 4.33984H90.6869V3.67969H90.0869H89.4869V4.33984H90.0869ZM90.0869 3.67969L90.6869 3.67961C90.6869 3.20074 90.5106 2.77436 90.1713 2.43511L89.7471 2.85938L89.3228 3.28364C89.4368 3.39765 89.4869 3.51878 89.4869 3.67976L90.0869 3.67969ZM89.7471 2.85938L90.1713 2.43507C89.8272 2.09102 89.3922 1.91968 88.9074 1.91953L88.9072 2.51953L88.907 3.11953C89.0884 3.11959 89.2139 3.17472 89.3228 3.28368L89.7471 2.85938ZM88.9072 2.51953V1.91953C88.4282 1.91953 88.0018 2.09618 87.6628 2.43498L88.0869 2.85938L88.511 3.28377C88.6252 3.16965 88.7466 3.11953 88.9072 3.11953V2.51953ZM88.0869 2.85938L87.6626 2.43511C87.3234 2.77436 87.1471 3.20074 87.1471 3.67961L87.7471 3.67969L88.3471 3.67976C88.3471 3.51878 88.3972 3.39765 88.5112 3.28364L88.0869 2.85938ZM87.7471 3.67969H87.1471V11.2803H87.7471H88.3471V3.67969H87.7471ZM87.7471 11.2803L87.1471 11.2805C87.1472 11.7596 87.3238 12.185 87.6626 12.5239L88.0869 12.0996L88.5112 11.6754C88.3969 11.5611 88.3471 11.4405 88.3471 11.2801L87.7471 11.2803ZM88.0869 12.0996L87.6627 12.5239C88.0019 12.8631 88.4282 13.0395 88.9072 13.0395V12.4395V11.8395C88.7463 11.8395 88.6253 11.7894 88.5112 11.6753L88.0869 12.0996ZM88.9072 12.4395L88.9074 13.0395C89.3922 13.0393 89.8272 12.8681 90.1713 12.5239L89.7471 12.0996L89.3228 11.6753C89.2139 11.7843 89.0885 11.8394 88.907 11.8395L88.9072 12.4395ZM89.7471 12.0996L90.1715 12.5238C90.5099 12.1851 90.6868 11.7596 90.6869 11.2805L90.0869 11.2803L89.4869 11.2801C89.4869 11.4403 89.437 11.5611 89.3227 11.6755L89.7471 12.0996ZM90.0869 11.2803H90.6869V10.6201H90.0869H89.4869V11.2803H90.0869ZM90.0869 10.6201V11.2201H92.6064V10.6201V10.0201H90.0869V10.6201ZM92.6064 10.6201H92.0064V11.2803H92.6064H93.2064V10.6201H92.6064ZM92.6064 11.2803L92.0064 11.2802C92.0064 12.1334 91.7101 12.8476 91.1021 13.4556L91.5264 13.8799L91.9506 14.3041C92.7824 13.4724 93.2063 12.4535 93.2064 11.2803L92.6064 11.2803ZM91.5264 13.8799L91.1021 13.4556C90.4957 14.0619 89.7758 14.3599 88.9072 14.36L88.9072 14.96L88.9073 15.56C90.0914 15.5598 91.1173 15.1373 91.9506 14.3042L91.5264 13.8799ZM88.9072 14.96V14.36C88.0538 14.36 87.3389 14.0637 86.7309 13.4556L86.3066 13.8799L85.8824 14.3041C86.7143 15.1361 87.734 15.56 88.9072 15.56V14.96ZM86.3066 13.8799L86.7309 13.4556C86.1229 12.8476 85.8266 12.1333 85.8266 11.2802L85.2266 11.2803L84.6266 11.2803C84.6267 12.4535 85.0506 13.4724 85.8824 14.3041L86.3066 13.8799ZM85.2266 11.2803H85.8266V3.67969H85.2266H84.6266V11.2803H85.2266ZM85.2266 3.67969L85.8266 3.67971C85.8266 2.82662 86.1229 2.11242 86.7309 1.50432L86.3066 1.08008L85.8824 0.655839C85.0507 1.48758 84.6266 2.5064 84.6266 3.67966L85.2266 3.67969ZM86.3066 1.08008L86.7309 1.50434C87.3389 0.896301 88.0538 0.6 88.9072 0.6V0V-0.6C87.734 -0.6 86.7143 -0.176146 85.8824 0.655814L86.3066 1.08008ZM235.806 0L235.806 0.6C236.674 0.600089 237.394 0.89797 238.001 1.50435L238.425 1.08008L238.849 0.655801C238.016 -0.177482 236.99 -0.599878 235.806 -0.6L235.806 0ZM238.425 1.08008L238.001 1.50434C238.609 2.11245 238.905 2.82651 238.905 3.67971L239.505 3.67969L240.105 3.67966C240.105 2.50634 239.681 1.48762 238.849 0.655814L238.425 1.08008ZM239.505 3.67969H238.905V4.33984H239.505H240.105V3.67969H239.505ZM239.505 4.33984V3.73984H236.985V4.33984V4.93984H239.505V4.33984ZM236.985 4.33984H237.585V3.67969H236.985H236.385V4.33984H236.985ZM236.985 3.67969L237.585 3.67961C237.585 3.20074 237.409 2.77436 237.07 2.43511L236.646 2.85938L236.221 3.28364C236.335 3.39765 236.385 3.51878 236.385 3.67976L236.985 3.67969ZM236.646 2.85938L237.07 2.43507C236.726 2.09102 236.291 1.91968 235.806 1.91953L235.806 2.51953L235.805 3.11953C235.987 3.11959 236.112 3.17472 236.221 3.28368L236.646 2.85938ZM235.806 2.51953V1.91953C235.327 1.91953 234.9 2.09618 234.561 2.43498L234.985 2.85938L235.409 3.28377C235.524 3.16965 235.645 3.11953 235.806 3.11953V2.51953ZM234.985 2.85938L234.561 2.43511C234.222 2.77436 234.046 3.20074 234.046 3.67961L234.646 3.67969L235.246 3.67976C235.246 3.51878 235.296 3.39765 235.41 3.28364L234.985 2.85938ZM234.646 3.67969H234.046V11.2803H234.646H235.246V3.67969H234.646ZM234.646 11.2803L234.046 11.2805C234.046 11.7596 234.222 12.185 234.561 12.5239L234.985 12.0996L235.41 11.6754C235.295 11.5611 235.246 11.4405 235.246 11.2801L234.646 11.2803ZM234.985 12.0996L234.561 12.5239C234.9 12.8631 235.327 13.0395 235.806 13.0395V12.4395V11.8395C235.645 11.8395 235.524 11.7894 235.41 11.6753L234.985 12.0996ZM235.806 12.4395L235.806 13.0395C236.291 13.0393 236.726 12.8681 237.07 12.5239L236.646 12.0996L236.221 11.6753C236.112 11.7843 235.987 11.8394 235.805 11.8395L235.806 12.4395ZM236.646 12.0996L237.07 12.5238C237.408 12.1851 237.585 11.7596 237.585 11.2805L236.985 11.2803L236.385 11.2801C236.385 11.4403 236.335 11.5611 236.221 11.6755L236.646 12.0996ZM236.985 11.2803H237.585V8.47949H236.985H236.385V11.2803H236.985ZM236.985 8.47949V7.87949H235.525V8.47949V9.07949H236.985V8.47949ZM235.525 8.47949H236.125V5.95996H235.525H234.925V8.47949H235.525ZM235.525 5.95996V6.55996H239.505V5.95996V5.35996H235.525V5.95996ZM239.505 5.95996H238.905V11.2803H239.505H240.105V5.95996H239.505ZM239.505 11.2803L238.905 11.2802C238.905 12.1334 238.609 12.8476 238.001 13.4556L238.425 13.8799L238.849 14.3041C239.681 13.4724 240.105 12.4535 240.105 11.2803L239.505 11.2803ZM238.425 13.8799L238.001 13.4556C237.394 14.0619 236.674 14.3599 235.806 14.36L235.806 14.96L235.806 15.56C236.99 15.5598 238.016 15.1373 238.849 14.3042L238.425 13.8799ZM235.806 14.96V14.36C234.952 14.36 234.237 14.0637 233.629 13.4556L233.205 13.8799L232.781 14.3041C233.613 15.1361 234.632 15.56 235.806 15.56V14.96ZM233.205 13.8799L233.629 13.4556C233.021 12.8476 232.725 12.1333 232.725 11.2802L232.125 11.2803L231.525 11.2803C231.525 12.4535 231.949 13.4724 232.781 14.3041L233.205 13.8799ZM232.125 11.2803H232.725V3.67969H232.125H231.525V11.2803H232.125ZM232.125 3.67969L232.725 3.67971C232.725 2.82662 233.021 2.11242 233.629 1.50432L233.205 1.08008L232.781 0.655839C231.949 1.48758 231.525 2.5064 231.525 3.67966L232.125 3.67969ZM233.205 1.08008L233.629 1.50434C234.237 0.896301 234.952 0.6 235.806 0.6V0V-0.6C234.632 -0.6 233.613 -0.176146 232.781 0.655814L233.205 1.08008ZM266.388 0L266.388 0.6C267.256 0.600089 267.976 0.89797 268.583 1.50435L269.007 1.08008L269.431 0.655801C268.598 -0.177482 267.572 -0.599878 266.388 -0.6L266.388 0ZM269.007 1.08008L268.583 1.50434C269.191 2.11245 269.487 2.82651 269.487 3.67971L270.087 3.67969L270.687 3.67966C270.687 2.50634 270.263 1.48762 269.431 0.655814L269.007 1.08008ZM270.087 3.67969H269.487V4.33984H270.087H270.687V3.67969H270.087ZM270.087 4.33984V3.73984H267.567V4.33984V4.93984H270.087V4.33984ZM267.567 4.33984H268.167V3.67969H267.567H266.967V4.33984H267.567ZM267.567 3.67969L268.167 3.67961C268.167 3.20074 267.991 2.77436 267.652 2.43511L267.228 2.85938L266.803 3.28364C266.917 3.39765 266.967 3.51878 266.967 3.67976L267.567 3.67969ZM267.228 2.85938L267.652 2.43507C267.308 2.09102 266.873 1.91968 266.388 1.91953L266.388 2.51953L266.388 3.11953C266.569 3.11959 266.694 3.17472 266.803 3.28368L267.228 2.85938ZM266.388 2.51953V1.91953C265.909 1.91953 265.482 2.09618 265.143 2.43498L265.567 2.85938L265.992 3.28377C266.106 3.16965 266.227 3.11953 266.388 3.11953V2.51953ZM265.567 2.85938L265.143 2.43511C264.804 2.77436 264.628 3.20074 264.628 3.67961L265.228 3.67969L265.828 3.67976C265.828 3.51878 265.878 3.39765 265.992 3.28364L265.567 2.85938ZM265.228 3.67969H264.628V11.2803H265.228H265.828V3.67969H265.228ZM265.228 11.2803L264.628 11.2805C264.628 11.7596 264.804 12.185 265.143 12.5239L265.567 12.0996L265.992 11.6754C265.877 11.5611 265.828 11.4405 265.828 11.2801L265.228 11.2803ZM265.567 12.0996L265.143 12.5239C265.482 12.8631 265.909 13.0395 266.388 13.0395V12.4395V11.8395C266.227 11.8395 266.106 11.7894 265.992 11.6753L265.567 12.0996ZM266.388 12.4395L266.388 13.0395C266.873 13.0393 267.308 12.8681 267.652 12.5239L267.228 12.0996L266.803 11.6753C266.694 11.7843 266.569 11.8394 266.388 11.8395L266.388 12.4395ZM267.228 12.0996L267.652 12.5238C267.99 12.1851 268.167 11.7596 268.167 11.2805L267.567 11.2803L266.967 11.2801C266.967 11.4403 266.917 11.5611 266.803 11.6755L267.228 12.0996ZM267.567 11.2803H268.167V10.6201H267.567H266.967V11.2803H267.567ZM267.567 10.6201V11.2201H270.087V10.6201V10.0201H267.567V10.6201ZM270.087 10.6201H269.487V11.2803H270.087H270.687V10.6201H270.087ZM270.087 11.2803L269.487 11.2802C269.487 12.1334 269.191 12.8476 268.583 13.4556L269.007 13.8799L269.431 14.3041C270.263 13.4724 270.687 12.4535 270.687 11.2803L270.087 11.2803ZM269.007 13.8799L268.583 13.4556C267.976 14.0619 267.256 14.3599 266.388 14.36L266.388 14.96L266.388 15.56C267.572 15.5598 268.598 15.1373 269.431 14.3042L269.007 13.8799ZM266.388 14.96V14.36C265.534 14.36 264.819 14.0637 264.211 13.4556L263.787 13.8799L263.363 14.3041C264.195 15.1361 265.214 15.56 266.388 15.56V14.96ZM263.787 13.8799L264.211 13.4556C263.603 12.8476 263.307 12.1333 263.307 11.2802L262.707 11.2803L262.107 11.2803C262.107 12.4535 262.531 13.4724 263.363 14.3041L263.787 13.8799ZM262.707 11.2803H263.307V3.67969H262.707H262.107V11.2803H262.707ZM262.707 3.67969L263.307 3.67971C263.307 2.82662 263.603 2.11242 264.211 1.50432L263.787 1.08008L263.363 0.655839C262.531 1.48758 262.107 2.5064 262.107 3.67966L262.707 3.67969ZM263.787 1.08008L264.211 1.50434C264.819 0.896301 265.534 0.6 266.388 0.6V0V-0.6C265.214 -0.6 264.195 -0.176146 263.363 0.655814L263.787 1.08008ZM103.927 0.200195L103.927 0.800195C104.796 0.800223 105.516 1.09814 106.123 1.70454L106.547 1.28027L106.971 0.856009C106.138 0.0224742 105.111 -0.399767 103.927 -0.399805L103.927 0.200195ZM106.547 1.28027L106.123 1.70449C106.731 2.31264 107.027 3.02686 107.027 3.87988H107.627H108.227C108.227 2.70656 107.803 1.68777 106.971 0.856056L106.547 1.28027ZM107.627 3.87988H107.027V4.7998H107.627H108.227V3.87988H107.627ZM107.627 4.7998H107.027C107.027 5.33933 106.899 5.83154 106.644 6.28653L107.167 6.58008L107.69 6.87363C108.048 6.23529 108.227 5.54028 108.227 4.7998H107.627ZM107.167 6.58008L106.641 6.29092C106.397 6.73481 106.06 7.09437 105.622 7.37476L105.946 7.87988L106.27 8.38501C106.873 7.99874 107.35 7.492 107.693 6.86923L107.167 6.58008ZM105.946 7.87988L105.382 8.0848L107.882 14.9647L108.446 14.7598L109.01 14.5548L106.51 7.67497L105.946 7.87988ZM108.446 14.7598V14.1598H105.767V14.7598V15.3598H108.446V14.7598ZM105.767 14.7598L106.332 14.5582L104.091 8.27791L103.526 8.47949L102.961 8.68108L105.201 14.9614L105.767 14.7598ZM103.526 8.47949V7.87949H103.167V8.47949V9.07949H103.526V8.47949ZM103.167 8.47949H102.567V14.7598H103.167H103.767V8.47949H103.167ZM103.167 14.7598V14.1598H100.646V14.7598V15.3598H103.167V14.7598ZM100.646 14.7598H101.246V0.200195H100.646H100.046V14.7598H100.646ZM100.646 0.200195V0.800195H103.927V0.200195V-0.399805H100.646V0.200195ZM122.333 2.71973V2.11973H118.233V2.71973V3.31973H122.333V2.71973ZM118.233 2.71973H117.633V5.95996H118.233H118.833V2.71973H118.233ZM118.233 5.95996V6.55996H121.853V5.95996V5.35996H118.233V5.95996ZM121.853 5.95996H121.253V8.47949H121.853H122.453V5.95996H121.853ZM121.853 8.47949V7.87949H118.233V8.47949V9.07949H121.853V8.47949ZM118.233 8.47949H117.633V12.2402H118.233H118.833V8.47949H118.233ZM118.233 12.2402V12.8402H122.333V12.2402V11.6402H118.233V12.2402ZM122.333 12.2402H121.733V14.7598H122.333H122.933V12.2402H122.333ZM122.333 14.7598V14.1598H115.713V14.7598V15.3598H122.333V14.7598ZM115.713 14.7598H116.313V0.200195H115.713H115.113V14.7598H115.713ZM115.713 0.200195V0.800195H122.333V0.200195V-0.399805H115.713V0.200195ZM122.333 0.200195H121.733V2.71973H122.333H122.933V0.200195H122.333ZM137.835 14.7598V14.1598H135.255V14.7598V15.3598H137.835V14.7598ZM135.255 14.7598L135.845 14.6492L135.305 11.7693L134.715 11.8799L134.125 11.9905L134.665 14.8704L135.255 14.7598ZM134.715 11.8799V11.2799H132.274V11.8799V12.4799H134.715V11.8799ZM132.274 11.8799L131.685 11.7695L131.146 14.6494L131.735 14.7598L132.325 14.8702L132.864 11.9903L132.274 11.8799ZM131.735 14.7598V14.1598H129.155V14.7598V15.3598H131.735V14.7598ZM129.155 14.7598L129.742 14.8839L132.822 0.324377L132.235 0.200195L131.648 0.0760136L128.568 14.6356L129.155 14.7598ZM132.235 0.200195V0.800195H134.755V0.200195V-0.399805H132.235V0.200195ZM134.755 0.200195L134.168 0.324377L137.248 14.8839L137.835 14.7598L138.422 14.6356L135.342 0.0760136L134.755 0.200195ZM149.401 14.7598V14.1598H146.882V14.7598V15.3598H149.401V14.7598ZM146.882 14.7598H147.482V7.0957H146.882H146.282V14.7598H146.882ZM146.882 7.0957V7.6957H149.401V7.0957V6.4957H146.882V7.0957ZM149.401 7.0957H148.801V14.7598H149.401H150.001V7.0957H149.401ZM161.968 14.7598V14.1598H159.447V14.7598V15.3598H161.968V14.7598ZM159.447 14.7598H160.047V0.200195H159.447H158.847V14.7598H159.447ZM159.447 0.200195V0.800195H161.968V0.200195V-0.399805H159.447V0.200195ZM161.968 0.200195H161.368V14.7598H161.968H162.568V0.200195H161.968ZM173.435 9.41992L174.026 9.51877L175.566 0.299048L174.975 0.200195L174.383 0.101342L172.843 9.32107L173.435 9.41992ZM174.975 0.200195V0.800195H177.555V0.200195V-0.399805H174.975V0.200195ZM177.555 0.200195L176.966 0.0845312L174.106 14.6441L174.694 14.7598L175.283 14.8754L178.143 0.315859L177.555 0.200195ZM174.694 14.7598V14.1598H172.175V14.7598V15.3598H174.694V14.7598ZM172.175 14.7598L172.764 14.6441L169.903 0.0845312L169.314 0.200195L168.726 0.315859L171.586 14.8754L172.175 14.7598ZM169.314 0.200195V0.800195H171.895V0.200195V-0.399805H169.314V0.200195ZM171.895 0.200195L171.303 0.299048L172.843 9.51877L173.435 9.41992L174.026 9.32107L172.486 0.101342L171.895 0.200195ZM191.513 2.71973V2.11973H187.413V2.71973V3.31973H191.513V2.71973ZM187.413 2.71973H186.813V5.95996H187.413H188.013V2.71973H187.413ZM187.413 5.95996V6.55996H191.032V5.95996V5.35996H187.413V5.95996ZM191.032 5.95996H190.432V8.47949H191.032H191.632V5.95996H191.032ZM191.032 8.47949V7.87949H187.413V8.47949V9.07949H191.032V8.47949ZM187.413 8.47949H186.813V12.2402H187.413H188.013V8.47949H187.413ZM187.413 12.2402V12.8402H191.513V12.2402V11.6402H187.413V12.2402ZM191.513 12.2402H190.913V14.7598H191.513H192.113V12.2402H191.513ZM191.513 14.7598V14.1598H184.893V14.7598V15.3598H191.513V14.7598ZM184.893 14.7598H185.493V0.200195H184.893H184.293V14.7598H184.893ZM184.893 0.200195V0.800195H191.513V0.200195V-0.399805H184.893V0.200195ZM191.513 0.200195H190.913V2.71973H191.513H192.113V0.200195H191.513ZM206.839 12.2402V12.8402H210.259V12.2402V11.6402H206.839V12.2402ZM210.259 12.2402H209.659V14.7598H210.259H210.859V12.2402H210.259ZM210.259 14.7598V14.1598H204.318V14.7598V15.3598H210.259V14.7598ZM204.318 14.7598H204.918V9.0957H204.318H203.718V14.7598H204.318ZM204.318 9.0957V9.6957H206.839V9.0957V8.4957H204.318V9.0957ZM206.839 9.0957H206.239V12.2402H206.839H207.439V9.0957H206.839ZM224.403 2.71973V2.11973H220.304V2.71973V3.31973H224.403V2.71973ZM220.304 2.71973H219.704V5.95996H220.304H220.904V2.71973H220.304ZM220.304 5.95996V6.55996H223.923V5.95996V5.35996H220.304V5.95996ZM223.923 5.95996H223.323V8.47949H223.923H224.523V5.95996H223.923ZM223.923 8.47949V7.87949H220.304V8.47949V9.07949H223.923V8.47949ZM220.304 8.47949H219.704V12.2402H220.304H220.904V8.47949H220.304ZM220.304 12.2402V12.8402H224.403V12.2402V11.6402H220.304V12.2402ZM224.403 12.2402H223.803V14.7598H224.403H225.003V12.2402H224.403ZM224.403 14.7598V14.1598H217.783V14.7598V15.3598H224.403V14.7598ZM217.783 14.7598H218.383V0.200195H217.783H217.183V14.7598H217.783ZM217.783 0.200195V0.800195H224.403V0.200195V-0.399805H217.783V0.200195ZM224.403 0.200195H223.803V2.71973H224.403H225.003V0.200195H224.403ZM255.44 14.7598V14.1598H252.86V14.7598V15.3598H255.44V14.7598ZM252.86 14.7598L253.45 14.6492L252.91 11.7693L252.32 11.8799L251.731 11.9905L252.271 14.8704L252.86 14.7598ZM252.32 11.8799V11.2799H249.88V11.8799V12.4799H252.32V11.8799ZM249.88 11.8799L249.29 11.7695L248.751 14.6494L249.341 14.7598L249.931 14.8702L250.47 11.9903L249.88 11.8799ZM249.341 14.7598V14.1598H246.761V14.7598V15.3598H249.341V14.7598ZM246.761 14.7598L247.348 14.8839L250.428 0.324377L249.841 0.200195L249.254 0.0760136L246.174 14.6356L246.761 14.7598ZM249.841 0.200195V0.800195H252.36V0.200195V-0.399805H249.841V0.200195ZM252.36 0.200195L251.773 0.324377L254.853 14.8839L255.44 14.7598L256.027 14.6356L252.947 0.0760136L252.36 0.200195ZM281.922 14.7598V14.1598H279.401V14.7598V15.3598H281.922V14.7598ZM279.401 14.7598H280.001V12.0479H279.401H278.801V14.7598H279.401ZM279.401 12.0479V12.6479H281.922V12.0479V11.4479H279.401V12.0479ZM281.922 12.0479H281.322V14.7598H281.922H282.522V12.0479H281.922ZM281.922 11.0479V10.4479H279.401V11.0479V11.6479H281.922V11.0479ZM279.401 11.0479H280.001V10.0479H279.401H278.801V11.0479H279.401ZM279.401 10.0479V10.6479H281.922V10.0479V9.44785H279.401V10.0479ZM281.922 10.0479H281.322V11.0479H281.922H282.522V10.0479H281.922ZM132.735 9.35938V9.95938H134.255V9.35938V8.75937H132.735V9.35938ZM134.255 9.35938L134.845 9.25004L134.085 5.15043L133.495 5.25977L132.905 5.3691L133.665 9.46871L134.255 9.35938ZM133.495 5.25977L132.905 5.15043L132.145 9.25004L132.735 9.35938L133.325 9.46871L134.085 5.3691L133.495 5.25977ZM250.341 9.35938V9.95938H251.86V9.35938V8.75937H250.341V9.35938ZM251.86 9.35938L252.45 9.25004L251.691 5.15043L251.101 5.25977L250.511 5.3691L251.27 9.46871L251.86 9.35938ZM251.101 5.25977L250.511 5.15043L249.751 9.25004L250.341 9.35938L250.931 9.46871L251.691 5.3691L251.101 5.25977ZM281.922 8.5H281.322V9.04785H281.922H282.522V8.5H281.922ZM281.922 9.04785V8.44785H279.401V9.04785V9.64785H281.922V9.04785ZM279.401 9.04785H280.001V8.5H279.401H278.801V9.04785H279.401ZM279.401 8.5L279.968 8.30293L279.811 7.85079L279.244 8.04785L278.677 8.24492L278.835 8.69707L279.401 8.5ZM279.244 8.04785V8.64785H282.079V8.04785V7.44785H279.244V8.04785ZM282.079 8.04785L281.512 7.85079L281.355 8.30293L281.922 8.5L282.489 8.69707L282.646 8.24492L282.079 8.04785ZM206.839 8.0957V7.4957H204.318V8.0957V8.6957H206.839V8.0957ZM204.318 8.0957H204.918V7.0957H204.318H203.718V8.0957H204.318ZM204.318 7.0957V7.6957H206.839V7.0957V6.4957H204.318V7.0957ZM206.839 7.0957H206.239V8.0957H206.839H207.439V7.0957H206.839ZM280.661 5.71973L281.242 5.86931L282.663 0.349777L282.082 0.200195L281.501 0.0506136L280.08 5.57015L280.661 5.71973ZM282.082 0.200195V0.800195H284.802V0.200195V-0.399805H282.082V0.200195ZM284.802 0.200195L284.235 0.00351254L281.859 6.85117L282.426 7.04785L282.993 7.24453L285.369 0.396878L284.802 0.200195ZM282.426 7.04785V6.44785H278.897V7.04785V7.64785H282.426V7.04785ZM278.897 7.04785L279.464 6.85117L277.088 0.00351254L276.521 0.200195L275.955 0.396878L278.331 7.24453L278.897 7.04785ZM276.521 0.200195V0.800195H279.241V0.200195V-0.399805H276.521V0.200195ZM279.241 0.200195L278.66 0.349681L280.08 5.86921L280.661 5.71973L281.242 5.57024L279.822 0.0507101L279.241 0.200195ZM149.401 6.0957V5.4957H146.882V6.0957V6.6957H149.401V6.0957ZM146.882 6.0957H147.482V5.0957H146.882H146.282V6.0957H146.882ZM146.882 5.0957V5.6957H149.401V5.0957V4.4957H146.882V5.0957ZM149.401 5.0957H148.801V6.0957H149.401H150.001V5.0957H149.401ZM206.839 6.0957V5.4957H204.318V6.0957V6.6957H206.839V6.0957ZM204.318 6.0957H204.918V5.0957H204.318H203.718V6.0957H204.318ZM204.318 5.0957V5.6957H206.839V5.0957V4.4957H204.318V5.0957ZM206.839 5.0957H206.239V6.0957H206.839H207.439V5.0957H206.839ZM103.167 5.95996V6.55996H103.927V5.95996V5.35996H103.167V5.95996ZM103.927 5.95996L103.927 6.55996C104.412 6.55992 104.847 6.38842 105.191 6.04445L104.767 5.62012L104.342 5.19579C104.233 5.30489 104.108 5.35994 103.927 5.35996L103.927 5.95996ZM104.767 5.62012L105.191 6.04438C105.53 5.70514 105.706 5.27886 105.706 4.7998H105.106H104.506C104.506 4.96075 104.456 5.08176 104.342 5.19585L104.767 5.62012ZM105.106 4.7998H105.706V3.87988H105.106H104.506V4.7998H105.106ZM105.106 3.87988H105.706C105.706 3.40083 105.53 2.97455 105.191 2.63531L104.767 3.05957L104.342 3.48383C104.456 3.59793 104.506 3.71894 104.506 3.87988H105.106ZM104.767 3.05957L105.191 2.63524C104.847 2.29127 104.412 2.11977 103.927 2.11973L103.927 2.71973L103.927 3.31973C104.108 3.31974 104.233 3.3748 104.342 3.4839L104.767 3.05957ZM103.927 2.71973V2.11973H103.167V2.71973V3.31973H103.927V2.71973ZM103.167 2.71973H102.567V5.95996H103.167H103.767V2.71973H103.167ZM149.401 4.0957V3.4957H146.882V4.0957V4.6957H149.401V4.0957ZM146.882 4.0957H147.482V3.0957H146.882H146.282V4.0957H146.882ZM146.882 3.0957V3.6957H149.401V3.0957V2.4957H146.882V3.0957ZM149.401 3.0957H148.801V4.0957H149.401H150.001V3.0957H149.401ZM206.839 4.0957V3.4957H204.318V4.0957V4.6957H206.839V4.0957ZM204.318 4.0957H204.918V0.200195H204.318H203.718V4.0957H204.318ZM204.318 0.200195V0.800195H206.839V0.200195V-0.399805H204.318V0.200195ZM206.839 0.200195H206.239V4.0957H206.839H207.439V0.200195H206.839ZM151.901 2.0957V1.4957H144.382V2.0957V2.6957H151.901V2.0957ZM144.382 2.0957H144.982V0.200195H144.382H143.782V2.0957H144.382ZM144.382 0.200195V0.800195H151.901V0.200195V-0.399805H144.382V0.200195ZM151.901 0.200195H151.301V2.0957H151.901H152.501V0.200195H151.901Z" fill="url(#paint1_linear_7_501)" mask="url(#path-1-inside-1_7_501)"/>
<defs>
<radialGradient id="paint0_radial_7_501" cx="0" cy="0" r="1" gradientUnits="userSpaceOnUse" gradientTransform="translate(184.671 7.67658) rotate(90) scale(38.8047 129.897)">
<stop stop-color="#ECF7FF"/>
<stop offset="1" stop-color="#ECF7FF" stop-opacity="0"/>
</radialGradient>
<linearGradient id="paint1_linear_7_501" x1="184.671" y1="-6.45475" x2="184.671" y2="44.9505" gradientUnits="userSpaceOnUse">
<stop stop-color="#253596" stop-opacity="0"/>
<stop offset="0.456017" stop-color="#4A76D4"/>
<stop offset="1" stop-color="#76EAF1"/>
</linearGradient>
</defs>
</svg>
