<svg width="370" height="22" viewBox="0 0 370 22" fill="none" xmlns="http://www.w3.org/2000/svg">
<mask id="path-1-inside-1_7_421" fill="white">
<path d="M214.561 11.2803C214.561 11.6001 214.674 11.8731 214.901 12.0996C215.128 12.3263 215.401 12.4395 215.721 12.4395C216.054 12.4394 216.334 12.3262 216.561 12.0996C216.787 11.8731 216.901 11.6 216.901 11.2803V10.6201H219.42V11.2803C219.42 12.2934 219.06 13.16 218.34 13.8799C217.62 14.5996 216.748 14.9599 215.721 14.96C214.708 14.96 213.841 14.5999 213.121 13.8799C212.401 13.16 212.041 12.2934 212.041 11.2803V9.75977H214.561V11.2803ZM247.163 0C248.189 0.000105686 249.062 0.360244 249.782 1.08008C250.502 1.80004 250.862 2.66642 250.862 3.67969V4.33984H248.342V3.67969C248.342 3.35976 248.229 3.086 248.002 2.85938C247.776 2.63287 247.496 2.51963 247.163 2.51953C246.843 2.51953 246.569 2.63291 246.342 2.85938C246.116 3.086 246.002 3.35976 246.002 3.67969V11.2803C246.003 11.6001 246.116 11.8731 246.342 12.0996C246.569 12.3263 246.843 12.4395 247.163 12.4395C247.496 12.4394 247.776 12.3262 248.002 12.0996C248.229 11.8731 248.342 11.6 248.342 11.2803V8.47949H246.882V5.95996H250.862V11.2803C250.862 12.2934 250.502 13.16 249.782 13.8799C249.062 14.5996 248.189 14.9599 247.163 14.96C246.149 14.96 245.282 14.5999 244.562 13.8799C243.842 13.16 243.482 12.2934 243.482 11.2803V3.67969C243.482 2.66651 243.842 1.8 244.562 1.08008C245.282 0.360078 246.149 0 247.163 0ZM277.764 0C278.791 0.000105686 279.663 0.360244 280.383 1.08008C281.103 1.80004 281.463 2.66642 281.463 3.67969V11.2803C281.463 12.2934 281.103 13.16 280.383 13.8799C279.663 14.5996 278.791 14.9599 277.764 14.96C276.751 14.96 275.884 14.5999 275.164 13.8799C274.444 13.16 274.084 12.2934 274.083 11.2803V3.67969C274.084 2.66651 274.444 1.8 275.164 1.08008C275.884 0.360078 276.751 0 277.764 0ZM292.219 11.2998C292.219 11.6065 292.332 11.8729 292.559 12.0996C292.786 12.3262 293.059 12.4393 293.378 12.4395C293.712 12.4395 293.993 12.3335 294.219 12.1201C294.446 11.8935 294.559 11.6198 294.559 11.2998V8.04785H297.079V11.2998C297.079 12.3131 296.718 13.1794 295.999 13.8994C295.279 14.6061 294.405 14.96 293.378 14.96C292.365 14.9599 291.499 14.606 290.779 13.8994C290.059 13.1795 289.699 12.313 289.699 11.2998V8.04785H292.219V11.2998ZM46.3608 8.16016V0.200195H48.8804V14.7598H46.3608L43.1411 6.7998V14.7598H40.6206V0.200195H43.1411L46.3608 8.16016ZM64.9106 14.7598H62.3306L61.7905 11.8799H59.3501L58.811 14.7598H56.231L59.311 0.200195H61.8306L64.9106 14.7598ZM75.5376 0.200195C76.5642 0.200228 77.4377 0.560306 78.1577 1.28027C78.8775 2.00021 79.2378 2.86671 79.2378 3.87988V4.7998C79.2378 5.4398 79.0845 6.03341 78.7778 6.58008C78.4845 7.1134 78.0771 7.54655 77.5571 7.87988L80.0571 14.7598H77.3774L75.1372 8.47949H74.7778V14.7598H72.2573V0.200195H75.5376ZM90.604 0.200195C91.6306 0.200228 92.5042 0.560306 93.2241 1.28027C93.9439 2.00021 94.3042 2.86671 94.3042 3.87988V4.7998C94.3042 5.4398 94.1509 6.03341 93.8442 6.58008C93.5509 7.1134 93.1435 7.54655 92.6235 7.87988L95.1235 14.7598H92.4438L90.2036 8.47949H89.8442V14.7598H87.3237V0.200195H90.604ZM110.09 14.7598H107.51L106.97 11.8799H104.53L103.991 14.7598H101.411L104.491 0.200195H107.01L110.09 14.7598ZM124.157 2.71973H121.657V14.7598H119.137V2.71973H116.637V0.200195H124.157V2.71973ZM134.223 14.7598H131.703V8.04785H134.223V14.7598ZM145.69 9.41992L147.23 0.200195H149.81L146.95 14.7598H144.43L141.57 0.200195H144.15L145.69 9.41992ZM163.768 2.71973H159.668V5.95996H163.288V8.47949H159.668V12.2402H163.768V14.7598H157.148V0.200195H163.768V2.71973ZM184.858 0.200195C185.885 0.200228 186.758 0.560306 187.478 1.28027C188.198 2.00021 188.558 2.86671 188.558 3.87988V4.7998C188.558 5.62635 188.311 6.35289 187.818 6.97949C188.578 7.71278 188.957 8.59974 188.958 9.63965V11.0801C188.957 12.0933 188.597 12.9597 187.877 13.6797C187.157 14.3996 186.284 14.7598 185.257 14.7598H181.578V0.200195H184.858ZM204.774 14.7598H202.194L201.654 11.8799H199.213L198.674 14.7598H196.094L199.174 0.200195H201.694L204.774 14.7598ZM229.981 6.33984L232.741 0.200195H235.541L232.581 6.17969L236.18 14.7598H233.441L231.18 9L229.981 11.3994V14.7598H227.46V0.200195H229.981V6.33984ZM262.377 0.200195C263.404 0.200228 264.278 0.560306 264.998 1.28027C265.717 2.00021 266.078 2.86671 266.078 3.87988V4.7998C266.078 5.4398 265.924 6.03341 265.618 6.58008C265.324 7.1134 264.917 7.54655 264.397 7.87988L266.897 14.7598H264.217L261.977 8.47949H261.618V14.7598H259.097V0.200195H262.377ZM311.15 8.16016V0.200195H313.669V14.7598H311.15L307.93 6.7998V14.7598H305.41V0.200195H307.93L311.15 8.16016ZM325.679 0.200195C326.693 0.200195 327.56 0.560273 328.28 1.28027C329.013 2.00022 329.379 2.86668 329.379 3.87988V11.0801C329.379 12.0932 329.013 12.9598 328.28 13.6797C327.56 14.3997 326.693 14.7598 325.679 14.7598H322V0.200195H325.679ZM277.764 2.51953C277.444 2.51953 277.17 2.63291 276.944 2.85938C276.717 3.086 276.604 3.35976 276.604 3.67969V11.2803C276.604 11.6001 276.717 11.8731 276.944 12.0996C277.171 12.3263 277.444 12.4395 277.764 12.4395C278.097 12.4394 278.377 12.3262 278.604 12.0996C278.83 11.8731 278.944 11.6 278.944 11.2803V3.67969C278.944 3.35976 278.831 3.086 278.604 2.85938C278.377 2.63287 278.097 2.51963 277.764 2.51953ZM184.098 12.2402H185.257C185.591 12.2402 185.871 12.1261 186.098 11.8994C186.324 11.6729 186.438 11.3998 186.438 11.0801V9.63965C186.438 9.31993 186.324 9.04685 186.098 8.82031C185.871 8.59365 185.591 8.47949 185.257 8.47949H184.098V12.2402ZM324.52 12.2402H325.679C326.013 12.2402 326.293 12.1261 326.52 11.8994C326.746 11.6729 326.86 11.3998 326.86 11.0801V3.87988C326.86 3.5599 326.747 3.28623 326.52 3.05957C326.293 2.8329 326.013 2.71973 325.679 2.71973H324.52V12.2402ZM59.811 9.35938H61.3306L60.5708 5.25977L59.811 9.35938ZM104.991 9.35938H106.51L105.75 5.25977L104.991 9.35938ZM199.674 9.35938H201.194L200.434 5.25977L199.674 9.35938ZM214.561 8.75977H212.041V7.75977H214.561V8.75977ZM134.223 7.04785H131.703V6.04785H134.223V7.04785ZM292.219 7.04785H289.699V6.04785H292.219V7.04785ZM297.079 7.04785H294.559V6.04785H297.079V7.04785ZM214.561 6.75977H212.041V5.75977H214.561V6.75977ZM74.7778 5.95996H75.5376C75.8708 5.95993 76.1508 5.84666 76.3774 5.62012C76.6041 5.39345 76.7173 5.1198 76.7173 4.7998V3.87988C76.7173 3.55988 76.6041 3.28624 76.3774 3.05957C76.1508 2.83303 75.8708 2.71976 75.5376 2.71973H74.7778V5.95996ZM89.8442 5.95996H90.604C90.9372 5.95993 91.2172 5.84666 91.4438 5.62012C91.6705 5.39345 91.7837 5.1198 91.7837 4.7998V3.87988C91.7837 3.55988 91.6705 3.28624 91.4438 3.05957C91.2172 2.83303 90.9372 2.71976 90.604 2.71973H89.8442V5.95996ZM184.098 5.95996H184.858C185.191 5.95993 185.471 5.84666 185.698 5.62012C185.924 5.39345 186.038 5.1198 186.038 4.7998V3.87988C186.038 3.55988 185.924 3.28624 185.698 3.05957C185.471 2.83303 185.191 2.71976 184.858 2.71973H184.098V5.95996ZM261.618 5.95996H262.377C262.711 5.95993 262.991 5.84666 263.217 5.62012C263.444 5.39345 263.557 5.1198 263.557 4.7998V3.87988C263.557 3.55988 263.444 3.28624 263.217 3.05957C262.991 2.83303 262.711 2.71976 262.377 2.71973H261.618V5.95996ZM134.223 5.04785H131.703V4.04785H134.223V5.04785ZM292.219 5.04785H289.699V4.04785H292.219V5.04785ZM297.079 5.04785H294.559V4.04785H297.079V5.04785ZM215.721 0C216.748 0.000105686 217.62 0.360244 218.34 1.08008C219.06 1.80004 219.42 2.66642 219.42 3.67969V4.33984H216.901V3.67969C216.901 3.35976 216.788 3.086 216.561 2.85938C216.334 2.63287 216.054 2.51963 215.721 2.51953C215.401 2.51953 215.127 2.63291 214.901 2.85938C214.674 3.086 214.561 3.35976 214.561 3.67969V4.75977H212.041V3.67969C212.041 2.66651 212.401 1.8 213.121 1.08008C213.841 0.360078 214.708 0 215.721 0ZM134.223 3.04785H131.703V0.200195H134.223V3.04785ZM292.219 3.04785H289.699V0.200195H292.219V3.04785ZM297.079 3.04785H294.559V0.200195H297.079V3.04785Z"/>
</mask>
<path d="M214.561 11.2803C214.561 11.6001 214.674 11.8731 214.901 12.0996C215.128 12.3263 215.401 12.4395 215.721 12.4395C216.054 12.4394 216.334 12.3262 216.561 12.0996C216.787 11.8731 216.901 11.6 216.901 11.2803V10.6201H219.42V11.2803C219.42 12.2934 219.06 13.16 218.34 13.8799C217.62 14.5996 216.748 14.9599 215.721 14.96C214.708 14.96 213.841 14.5999 213.121 13.8799C212.401 13.16 212.041 12.2934 212.041 11.2803V9.75977H214.561V11.2803ZM247.163 0C248.189 0.000105686 249.062 0.360244 249.782 1.08008C250.502 1.80004 250.862 2.66642 250.862 3.67969V4.33984H248.342V3.67969C248.342 3.35976 248.229 3.086 248.002 2.85938C247.776 2.63287 247.496 2.51963 247.163 2.51953C246.843 2.51953 246.569 2.63291 246.342 2.85938C246.116 3.086 246.002 3.35976 246.002 3.67969V11.2803C246.003 11.6001 246.116 11.8731 246.342 12.0996C246.569 12.3263 246.843 12.4395 247.163 12.4395C247.496 12.4394 247.776 12.3262 248.002 12.0996C248.229 11.8731 248.342 11.6 248.342 11.2803V8.47949H246.882V5.95996H250.862V11.2803C250.862 12.2934 250.502 13.16 249.782 13.8799C249.062 14.5996 248.189 14.9599 247.163 14.96C246.149 14.96 245.282 14.5999 244.562 13.8799C243.842 13.16 243.482 12.2934 243.482 11.2803V3.67969C243.482 2.66651 243.842 1.8 244.562 1.08008C245.282 0.360078 246.149 0 247.163 0ZM277.764 0C278.791 0.000105686 279.663 0.360244 280.383 1.08008C281.103 1.80004 281.463 2.66642 281.463 3.67969V11.2803C281.463 12.2934 281.103 13.16 280.383 13.8799C279.663 14.5996 278.791 14.9599 277.764 14.96C276.751 14.96 275.884 14.5999 275.164 13.8799C274.444 13.16 274.084 12.2934 274.083 11.2803V3.67969C274.084 2.66651 274.444 1.8 275.164 1.08008C275.884 0.360078 276.751 0 277.764 0ZM292.219 11.2998C292.219 11.6065 292.332 11.8729 292.559 12.0996C292.786 12.3262 293.059 12.4393 293.378 12.4395C293.712 12.4395 293.993 12.3335 294.219 12.1201C294.446 11.8935 294.559 11.6198 294.559 11.2998V8.04785H297.079V11.2998C297.079 12.3131 296.718 13.1794 295.999 13.8994C295.279 14.6061 294.405 14.96 293.378 14.96C292.365 14.9599 291.499 14.606 290.779 13.8994C290.059 13.1795 289.699 12.313 289.699 11.2998V8.04785H292.219V11.2998ZM46.3608 8.16016V0.200195H48.8804V14.7598H46.3608L43.1411 6.7998V14.7598H40.6206V0.200195H43.1411L46.3608 8.16016ZM64.9106 14.7598H62.3306L61.7905 11.8799H59.3501L58.811 14.7598H56.231L59.311 0.200195H61.8306L64.9106 14.7598ZM75.5376 0.200195C76.5642 0.200228 77.4377 0.560306 78.1577 1.28027C78.8775 2.00021 79.2378 2.86671 79.2378 3.87988V4.7998C79.2378 5.4398 79.0845 6.03341 78.7778 6.58008C78.4845 7.1134 78.0771 7.54655 77.5571 7.87988L80.0571 14.7598H77.3774L75.1372 8.47949H74.7778V14.7598H72.2573V0.200195H75.5376ZM90.604 0.200195C91.6306 0.200228 92.5042 0.560306 93.2241 1.28027C93.9439 2.00021 94.3042 2.86671 94.3042 3.87988V4.7998C94.3042 5.4398 94.1509 6.03341 93.8442 6.58008C93.5509 7.1134 93.1435 7.54655 92.6235 7.87988L95.1235 14.7598H92.4438L90.2036 8.47949H89.8442V14.7598H87.3237V0.200195H90.604ZM110.09 14.7598H107.51L106.97 11.8799H104.53L103.991 14.7598H101.411L104.491 0.200195H107.01L110.09 14.7598ZM124.157 2.71973H121.657V14.7598H119.137V2.71973H116.637V0.200195H124.157V2.71973ZM134.223 14.7598H131.703V8.04785H134.223V14.7598ZM145.69 9.41992L147.23 0.200195H149.81L146.95 14.7598H144.43L141.57 0.200195H144.15L145.69 9.41992ZM163.768 2.71973H159.668V5.95996H163.288V8.47949H159.668V12.2402H163.768V14.7598H157.148V0.200195H163.768V2.71973ZM184.858 0.200195C185.885 0.200228 186.758 0.560306 187.478 1.28027C188.198 2.00021 188.558 2.86671 188.558 3.87988V4.7998C188.558 5.62635 188.311 6.35289 187.818 6.97949C188.578 7.71278 188.957 8.59974 188.958 9.63965V11.0801C188.957 12.0933 188.597 12.9597 187.877 13.6797C187.157 14.3996 186.284 14.7598 185.257 14.7598H181.578V0.200195H184.858ZM204.774 14.7598H202.194L201.654 11.8799H199.213L198.674 14.7598H196.094L199.174 0.200195H201.694L204.774 14.7598ZM229.981 6.33984L232.741 0.200195H235.541L232.581 6.17969L236.18 14.7598H233.441L231.18 9L229.981 11.3994V14.7598H227.46V0.200195H229.981V6.33984ZM262.377 0.200195C263.404 0.200228 264.278 0.560306 264.998 1.28027C265.717 2.00021 266.078 2.86671 266.078 3.87988V4.7998C266.078 5.4398 265.924 6.03341 265.618 6.58008C265.324 7.1134 264.917 7.54655 264.397 7.87988L266.897 14.7598H264.217L261.977 8.47949H261.618V14.7598H259.097V0.200195H262.377ZM311.15 8.16016V0.200195H313.669V14.7598H311.15L307.93 6.7998V14.7598H305.41V0.200195H307.93L311.15 8.16016ZM325.679 0.200195C326.693 0.200195 327.56 0.560273 328.28 1.28027C329.013 2.00022 329.379 2.86668 329.379 3.87988V11.0801C329.379 12.0932 329.013 12.9598 328.28 13.6797C327.56 14.3997 326.693 14.7598 325.679 14.7598H322V0.200195H325.679ZM277.764 2.51953C277.444 2.51953 277.17 2.63291 276.944 2.85938C276.717 3.086 276.604 3.35976 276.604 3.67969V11.2803C276.604 11.6001 276.717 11.8731 276.944 12.0996C277.171 12.3263 277.444 12.4395 277.764 12.4395C278.097 12.4394 278.377 12.3262 278.604 12.0996C278.83 11.8731 278.944 11.6 278.944 11.2803V3.67969C278.944 3.35976 278.831 3.086 278.604 2.85938C278.377 2.63287 278.097 2.51963 277.764 2.51953ZM184.098 12.2402H185.257C185.591 12.2402 185.871 12.1261 186.098 11.8994C186.324 11.6729 186.438 11.3998 186.438 11.0801V9.63965C186.438 9.31993 186.324 9.04685 186.098 8.82031C185.871 8.59365 185.591 8.47949 185.257 8.47949H184.098V12.2402ZM324.52 12.2402H325.679C326.013 12.2402 326.293 12.1261 326.52 11.8994C326.746 11.6729 326.86 11.3998 326.86 11.0801V3.87988C326.86 3.5599 326.747 3.28623 326.52 3.05957C326.293 2.8329 326.013 2.71973 325.679 2.71973H324.52V12.2402ZM59.811 9.35938H61.3306L60.5708 5.25977L59.811 9.35938ZM104.991 9.35938H106.51L105.75 5.25977L104.991 9.35938ZM199.674 9.35938H201.194L200.434 5.25977L199.674 9.35938ZM214.561 8.75977H212.041V7.75977H214.561V8.75977ZM134.223 7.04785H131.703V6.04785H134.223V7.04785ZM292.219 7.04785H289.699V6.04785H292.219V7.04785ZM297.079 7.04785H294.559V6.04785H297.079V7.04785ZM214.561 6.75977H212.041V5.75977H214.561V6.75977ZM74.7778 5.95996H75.5376C75.8708 5.95993 76.1508 5.84666 76.3774 5.62012C76.6041 5.39345 76.7173 5.1198 76.7173 4.7998V3.87988C76.7173 3.55988 76.6041 3.28624 76.3774 3.05957C76.1508 2.83303 75.8708 2.71976 75.5376 2.71973H74.7778V5.95996ZM89.8442 5.95996H90.604C90.9372 5.95993 91.2172 5.84666 91.4438 5.62012C91.6705 5.39345 91.7837 5.1198 91.7837 4.7998V3.87988C91.7837 3.55988 91.6705 3.28624 91.4438 3.05957C91.2172 2.83303 90.9372 2.71976 90.604 2.71973H89.8442V5.95996ZM184.098 5.95996H184.858C185.191 5.95993 185.471 5.84666 185.698 5.62012C185.924 5.39345 186.038 5.1198 186.038 4.7998V3.87988C186.038 3.55988 185.924 3.28624 185.698 3.05957C185.471 2.83303 185.191 2.71976 184.858 2.71973H184.098V5.95996ZM261.618 5.95996H262.377C262.711 5.95993 262.991 5.84666 263.217 5.62012C263.444 5.39345 263.557 5.1198 263.557 4.7998V3.87988C263.557 3.55988 263.444 3.28624 263.217 3.05957C262.991 2.83303 262.711 2.71976 262.377 2.71973H261.618V5.95996ZM134.223 5.04785H131.703V4.04785H134.223V5.04785ZM292.219 5.04785H289.699V4.04785H292.219V5.04785ZM297.079 5.04785H294.559V4.04785H297.079V5.04785ZM215.721 0C216.748 0.000105686 217.62 0.360244 218.34 1.08008C219.06 1.80004 219.42 2.66642 219.42 3.67969V4.33984H216.901V3.67969C216.901 3.35976 216.788 3.086 216.561 2.85938C216.334 2.63287 216.054 2.51963 215.721 2.51953C215.401 2.51953 215.127 2.63291 214.901 2.85938C214.674 3.086 214.561 3.35976 214.561 3.67969V4.75977H212.041V3.67969C212.041 2.66651 212.401 1.8 213.121 1.08008C213.841 0.360078 214.708 0 215.721 0ZM134.223 3.04785H131.703V0.200195H134.223V3.04785ZM292.219 3.04785H289.699V0.200195H292.219V3.04785ZM297.079 3.04785H294.559V0.200195H297.079V3.04785Z" fill="url(#paint0_radial_7_421)"/>
<path d="M214.561 11.2803H213.961V11.2805L214.561 11.2803ZM214.901 12.0996L214.477 12.5239L214.477 12.5239L214.901 12.0996ZM215.721 12.4395V13.0395H215.721L215.721 12.4395ZM216.561 12.0996L216.985 12.5239L216.985 12.5238L216.561 12.0996ZM216.901 11.2803L217.501 11.2805V11.2803H216.901ZM216.901 10.6201V10.0201H216.301V10.6201H216.901ZM219.42 10.6201H220.02V10.0201H219.42V10.6201ZM219.42 11.2803L220.02 11.2803V11.2803H219.42ZM218.34 13.8799L218.765 14.3042L218.765 14.3041L218.34 13.8799ZM215.721 14.96V15.56H215.721L215.721 14.96ZM213.121 13.8799L212.696 14.3041V14.3041L213.121 13.8799ZM212.041 11.2803H211.441V11.2803L212.041 11.2803ZM212.041 9.75977V9.15977H211.441V9.75977H212.041ZM214.561 9.75977H215.161V9.15977H214.561V9.75977ZM247.163 0L247.163 -0.6H247.163V0ZM249.782 1.08008L250.206 0.655814L250.206 0.655801L249.782 1.08008ZM250.862 3.67969H251.462V3.67966L250.862 3.67969ZM250.862 4.33984V4.93984H251.462V4.33984H250.862ZM248.342 4.33984H247.742V4.93984H248.342V4.33984ZM248.342 3.67969H248.942V3.67961L248.342 3.67969ZM248.002 2.85938L248.427 2.43511L248.427 2.43507L248.002 2.85938ZM247.163 2.51953L247.163 1.91953H247.163V2.51953ZM246.342 2.85938L245.918 2.43498L245.918 2.43511L246.342 2.85938ZM246.002 3.67969L245.402 3.67961V3.67969H246.002ZM246.002 11.2803H245.402V11.2805L246.002 11.2803ZM246.342 12.0996L245.918 12.5239L245.918 12.5239L246.342 12.0996ZM247.163 12.4395V13.0395H247.163L247.163 12.4395ZM248.002 12.0996L248.427 12.5239L248.427 12.5238L248.002 12.0996ZM248.342 11.2803L248.942 11.2805V11.2803H248.342ZM248.342 8.47949H248.942V7.87949H248.342V8.47949ZM246.882 8.47949H246.282V9.07949H246.882V8.47949ZM246.882 5.95996V5.35996H246.282V5.95996H246.882ZM250.862 5.95996H251.462V5.35996H250.862V5.95996ZM250.862 11.2803L251.462 11.2803V11.2803H250.862ZM249.782 13.8799L250.206 14.3042L250.206 14.3041L249.782 13.8799ZM247.163 14.96V15.56H247.163L247.163 14.96ZM244.562 13.8799L244.138 14.3041V14.3041L244.562 13.8799ZM243.482 11.2803H242.882V11.2803L243.482 11.2803ZM243.482 3.67969L242.882 3.67966V3.67969H243.482ZM244.562 1.08008L244.138 0.655814L244.138 0.655839L244.562 1.08008ZM277.764 0L277.764 -0.6H277.764V0ZM280.383 1.08008L280.808 0.655814L280.808 0.655801L280.383 1.08008ZM281.463 3.67969H282.063V3.67966L281.463 3.67969ZM281.463 11.2803L282.063 11.2803V11.2803H281.463ZM280.383 13.8799L280.808 14.3042L280.808 14.3041L280.383 13.8799ZM277.764 14.96V15.56H277.764L277.764 14.96ZM275.164 13.8799L274.739 14.3041V14.3041L275.164 13.8799ZM274.083 11.2803H273.483V11.2803L274.083 11.2803ZM274.083 3.67969L273.483 3.67966V3.67969H274.083ZM275.164 1.08008L274.739 0.655814L274.739 0.655839L275.164 1.08008ZM292.559 12.0996L292.135 12.5239V12.5239L292.559 12.0996ZM293.378 12.4395L293.378 13.0395H293.378V12.4395ZM294.219 12.1201L294.63 12.557L294.637 12.5508L294.644 12.5444L294.219 12.1201ZM294.559 8.04785V7.44785H293.959V8.04785H294.559ZM297.079 8.04785H297.679V7.44785H297.079V8.04785ZM295.999 13.8994L296.419 14.3276L296.423 14.3237L295.999 13.8994ZM293.378 14.96L293.378 15.56H293.378V14.96ZM290.779 13.8994L290.354 14.3237L290.359 14.3276L290.779 13.8994ZM289.699 8.04785V7.44785H289.099V8.04785H289.699ZM292.219 8.04785H292.819V7.44785H292.219V8.04785ZM46.3608 8.16016L45.8046 8.38514L46.9608 8.16016H46.3608ZM46.3608 0.200195V-0.399805H45.7608V0.200195H46.3608ZM48.8804 0.200195H49.4804V-0.399805H48.8804V0.200195ZM48.8804 14.7598V15.3598H49.4804V14.7598H48.8804ZM46.3608 14.7598L45.8046 14.9848L45.9563 15.3598H46.3608V14.7598ZM43.1411 6.7998L43.6973 6.57482L42.5411 6.7998H43.1411ZM43.1411 14.7598V15.3598H43.7411V14.7598H43.1411ZM40.6206 14.7598H40.0206V15.3598H40.6206V14.7598ZM40.6206 0.200195V-0.399805H40.0206V0.200195H40.6206ZM43.1411 0.200195L43.6973 -0.0247905L43.5456 -0.399805H43.1411V0.200195ZM64.9106 14.7598V15.3598H65.6509L65.4977 14.6356L64.9106 14.7598ZM62.3306 14.7598L61.7408 14.8704L61.8326 15.3598H62.3306V14.7598ZM61.7905 11.8799L62.3802 11.7693L62.2885 11.2799H61.7905V11.8799ZM59.3501 11.8799V11.2799H58.852L58.7603 11.7695L59.3501 11.8799ZM58.811 14.7598V15.3598H59.3091L59.4008 14.8702L58.811 14.7598ZM56.231 14.7598L55.6439 14.6356L55.4907 15.3598H56.231V14.7598ZM59.311 0.200195V-0.399805H58.8247L58.724 0.0760136L59.311 0.200195ZM61.8306 0.200195L62.4176 0.0760136L62.3169 -0.399805H61.8306V0.200195ZM75.5376 0.200195L75.5376 -0.399805H75.5376V0.200195ZM78.1577 1.28027L78.582 0.856056L78.582 0.856009L78.1577 1.28027ZM78.7778 6.58008L78.2545 6.28652L78.2521 6.29092L78.7778 6.58008ZM77.5571 7.87988L77.2333 7.37476L76.8293 7.63375L76.9932 8.0848L77.5571 7.87988ZM80.0571 14.7598V15.3598H80.9135L80.6211 14.5548L80.0571 14.7598ZM77.3774 14.7598L76.8123 14.9614L76.9544 15.3598H77.3774V14.7598ZM75.1372 8.47949L75.7023 8.27791L75.5602 7.87949H75.1372V8.47949ZM74.7778 8.47949V7.87949H74.1778V8.47949H74.7778ZM74.7778 14.7598V15.3598H75.3778V14.7598H74.7778ZM72.2573 14.7598H71.6573V15.3598H72.2573V14.7598ZM72.2573 0.200195V-0.399805H71.6573V0.200195H72.2573ZM90.604 0.200195L90.604 -0.399805H90.604V0.200195ZM93.2241 1.28027L93.6484 0.856056L93.6484 0.856009L93.2241 1.28027ZM93.8442 6.58008L93.3209 6.28652L93.3185 6.29092L93.8442 6.58008ZM92.6235 7.87988L92.2997 7.37476L91.8957 7.63375L92.0596 8.0848L92.6235 7.87988ZM95.1235 14.7598V15.3598H95.9799L95.6875 14.5548L95.1235 14.7598ZM92.4438 14.7598L91.8787 14.9614L92.0208 15.3598H92.4438V14.7598ZM90.2036 8.47949L90.7687 8.27791L90.6266 7.87949H90.2036V8.47949ZM89.8442 8.47949V7.87949H89.2442V8.47949H89.8442ZM89.8442 14.7598V15.3598H90.4442V14.7598H89.8442ZM87.3237 14.7598H86.7237V15.3598H87.3237V14.7598ZM87.3237 0.200195V-0.399805H86.7237V0.200195H87.3237ZM110.09 14.7598V15.3598H110.831L110.677 14.6356L110.09 14.7598ZM107.51 14.7598L106.921 14.8704L107.012 15.3598H107.51V14.7598ZM106.97 11.8799L107.56 11.7693L107.468 11.2799H106.97V11.8799ZM104.53 11.8799V11.2799H104.032L103.94 11.7695L104.53 11.8799ZM103.991 14.7598V15.3598H104.489L104.58 14.8702L103.991 14.7598ZM101.411 14.7598L100.824 14.6356L100.67 15.3598H101.411V14.7598ZM104.491 0.200195V-0.399805H104.004L103.904 0.0760136L104.491 0.200195ZM107.01 0.200195L107.597 0.0760136L107.497 -0.399805H107.01V0.200195ZM124.157 2.71973V3.31973H124.757V2.71973H124.157ZM121.657 2.71973V2.11973H121.057V2.71973H121.657ZM121.657 14.7598V15.3598H122.257V14.7598H121.657ZM119.137 14.7598H118.537V15.3598H119.137V14.7598ZM119.137 2.71973H119.737V2.11973H119.137V2.71973ZM116.637 2.71973H116.037V3.31973H116.637V2.71973ZM116.637 0.200195V-0.399805H116.037V0.200195H116.637ZM124.157 0.200195H124.757V-0.399805H124.157V0.200195ZM134.223 14.7598V15.3598H134.823V14.7598H134.223ZM131.703 14.7598H131.103V15.3598H131.703V14.7598ZM131.703 8.04785V7.44785H131.103V8.04785H131.703ZM134.223 8.04785H134.823V7.44785H134.223V8.04785ZM145.69 9.41992L145.098 9.51877H146.282L145.69 9.41992ZM147.23 0.200195V-0.399805H146.722L146.638 0.101342L147.23 0.200195ZM149.81 0.200195L150.399 0.315859L150.539 -0.399805H149.81V0.200195ZM146.95 14.7598V15.3598H147.443L147.538 14.8754L146.95 14.7598ZM144.43 14.7598L143.841 14.8754L143.937 15.3598H144.43V14.7598ZM141.57 0.200195V-0.399805H140.84L140.981 0.315859L141.57 0.200195ZM144.15 0.200195L144.742 0.101342L144.658 -0.399805H144.15V0.200195ZM163.768 2.71973V3.31973H164.368V2.71973H163.768ZM159.668 2.71973V2.11973H159.068V2.71973H159.668ZM159.668 5.95996H159.068V6.55996H159.668V5.95996ZM163.288 5.95996H163.888V5.35996H163.288V5.95996ZM163.288 8.47949V9.07949H163.888V8.47949H163.288ZM159.668 8.47949V7.87949H159.068V8.47949H159.668ZM159.668 12.2402H159.068V12.8402H159.668V12.2402ZM163.768 12.2402H164.368V11.6402H163.768V12.2402ZM163.768 14.7598V15.3598H164.368V14.7598H163.768ZM157.148 14.7598H156.548V15.3598H157.148V14.7598ZM157.148 0.200195V-0.399805H156.548V0.200195H157.148ZM163.768 0.200195H164.368V-0.399805H163.768V0.200195ZM184.858 0.200195L184.858 -0.399805H184.858V0.200195ZM187.478 1.28027L187.902 0.856056L187.902 0.856009L187.478 1.28027ZM187.818 6.97949L187.346 6.6084L187.011 7.03463L187.401 7.41126L187.818 6.97949ZM188.958 9.63965H189.558V9.63962L188.958 9.63965ZM188.958 11.0801L189.558 11.0801V11.0801H188.958ZM187.877 13.6797L188.302 14.104L188.302 14.104L187.877 13.6797ZM181.578 14.7598H180.978V15.3598H181.578V14.7598ZM181.578 0.200195V-0.399805H180.978V0.200195H181.578ZM204.774 14.7598V15.3598H205.514L205.361 14.6356L204.774 14.7598ZM202.194 14.7598L201.604 14.8704L201.696 15.3598H202.194V14.7598ZM201.654 11.8799L202.244 11.7693L202.152 11.2799H201.654V11.8799ZM199.213 11.8799V11.2799H198.715L198.624 11.7695L199.213 11.8799ZM198.674 14.7598V15.3598H199.172L199.264 14.8702L198.674 14.7598ZM196.094 14.7598L195.507 14.6356L195.354 15.3598H196.094V14.7598ZM199.174 0.200195V-0.399805H198.688L198.587 0.0760136L199.174 0.200195ZM201.694 0.200195L202.281 0.0760136L202.18 -0.399805H201.694V0.200195ZM229.981 6.33984H229.381L230.528 6.58583L229.981 6.33984ZM232.741 0.200195V-0.399805H232.353L232.193 -0.0457955L232.741 0.200195ZM235.541 0.200195L236.078 0.466379L236.507 -0.399805H235.541V0.200195ZM232.581 6.17969L232.043 5.9135L231.921 6.1591L232.027 6.41181L232.581 6.17969ZM236.18 14.7598V15.3598H237.083L236.733 14.5276L236.18 14.7598ZM233.441 14.7598L232.882 14.979L233.032 15.3598H233.441V14.7598ZM231.18 9L231.739 8.78078L231.246 7.52592L230.643 8.73176L231.18 9ZM229.981 11.3994L229.444 11.1312L229.381 11.2578V11.3994H229.981ZM229.981 14.7598V15.3598H230.581V14.7598H229.981ZM227.46 14.7598H226.86V15.3598H227.46V14.7598ZM227.46 0.200195V-0.399805H226.86V0.200195H227.46ZM229.981 0.200195H230.581V-0.399805H229.981V0.200195ZM262.377 0.200195L262.377 -0.399805H262.377V0.200195ZM264.998 1.28027L265.422 0.856056L265.422 0.856009L264.998 1.28027ZM265.618 6.58008L265.094 6.28652L265.092 6.29092L265.618 6.58008ZM264.397 7.87988L264.073 7.37476L263.669 7.63375L263.833 8.0848L264.397 7.87988ZM266.897 14.7598V15.3598H267.753L267.461 14.5548L266.897 14.7598ZM264.217 14.7598L263.652 14.9614L263.794 15.3598H264.217V14.7598ZM261.977 8.47949L262.542 8.27791L262.4 7.87949H261.977V8.47949ZM261.618 8.47949V7.87949H261.018V8.47949H261.618ZM261.618 14.7598V15.3598H262.218V14.7598H261.618ZM259.097 14.7598H258.497V15.3598H259.097V14.7598ZM259.097 0.200195V-0.399805H258.497V0.200195H259.097ZM311.15 8.16016L310.594 8.38514L311.75 8.16016H311.15ZM311.15 0.200195V-0.399805H310.55V0.200195H311.15ZM313.669 0.200195H314.269V-0.399805H313.669V0.200195ZM313.669 14.7598V15.3598H314.269V14.7598H313.669ZM311.15 14.7598L310.594 14.9848L310.745 15.3598H311.15V14.7598ZM307.93 6.7998L308.486 6.57482L307.33 6.7998H307.93ZM307.93 14.7598V15.3598H308.53V14.7598H307.93ZM305.41 14.7598H304.81V15.3598H305.41V14.7598ZM305.41 0.200195V-0.399805H304.81V0.200195H305.41ZM307.93 0.200195L308.486 -0.0247905L308.335 -0.399805H307.93V0.200195ZM328.28 1.28027L327.855 1.70455L327.859 1.70837L328.28 1.28027ZM329.379 11.0801L329.979 11.0801V11.0801H329.379ZM328.28 13.6797L327.859 13.2516L327.856 13.2554L328.28 13.6797ZM322 14.7598H321.4V15.3598H322V14.7598ZM322 0.200195V-0.399805H321.4V0.200195H322ZM277.764 2.51953L277.764 1.91953H277.764V2.51953ZM276.944 2.85938L276.52 2.43498L276.52 2.43511L276.944 2.85938ZM276.604 3.67969L276.004 3.67961V3.67969H276.604ZM276.604 11.2803H276.004V11.2805L276.604 11.2803ZM276.944 12.0996L276.52 12.5239L276.52 12.5239L276.944 12.0996ZM277.764 12.4395V13.0395H277.764L277.764 12.4395ZM278.604 12.0996L279.028 12.5239L279.028 12.5238L278.604 12.0996ZM278.944 11.2803L279.544 11.2805V11.2803H278.944ZM278.944 3.67969H279.544V3.67961L278.944 3.67969ZM278.604 2.85938L279.028 2.43511L279.028 2.43507L278.604 2.85938ZM184.098 12.2402H183.498V12.8402H184.098V12.2402ZM186.098 11.8994L186.522 12.3237L186.523 12.3235L186.098 11.8994ZM186.438 11.0801L187.038 11.0802V11.0801H186.438ZM186.438 9.63965H187.038V9.63956L186.438 9.63965ZM186.098 8.82031L186.523 8.39623L186.522 8.39605L186.098 8.82031ZM184.098 8.47949V7.87949H183.498V8.47949H184.098ZM324.52 12.2402H323.92V12.8402H324.52V12.2402ZM326.52 11.8994L326.944 12.3237L326.944 12.3235L326.52 11.8994ZM326.86 11.0801L327.46 11.0802V11.0801H326.86ZM326.52 3.05957L326.944 2.63533L326.944 2.63531L326.52 3.05957ZM324.52 2.71973V2.11973H323.92V2.71973H324.52ZM59.811 9.35938L59.2211 9.25004L59.0896 9.95938H59.811V9.35938ZM61.3306 9.35938V9.95938H62.052L61.9205 9.25004L61.3306 9.35938ZM60.5708 5.25977L61.1608 5.15043H59.9808L60.5708 5.25977ZM104.991 9.35938L104.401 9.25004L104.269 9.95938H104.991V9.35938ZM106.51 9.35938V9.95938H107.232L107.1 9.25004L106.51 9.35938ZM105.75 5.25977L106.34 5.15043H105.161L105.75 5.25977ZM199.674 9.35938L199.084 9.25004L198.953 9.95938H199.674V9.35938ZM201.194 9.35938V9.95938H201.915L201.784 9.25004L201.194 9.35938ZM200.434 5.25977L201.024 5.15043H199.844L200.434 5.25977ZM214.561 8.75977V9.35977H215.161V8.75977H214.561ZM212.041 8.75977H211.441V9.35977H212.041V8.75977ZM212.041 7.75977V7.15977H211.441V7.75977H212.041ZM214.561 7.75977H215.161V7.15977H214.561V7.75977ZM134.223 7.04785V7.64785H134.823V7.04785H134.223ZM131.703 7.04785H131.103V7.64785H131.703V7.04785ZM131.703 6.04785V5.44785H131.103V6.04785H131.703ZM134.223 6.04785H134.823V5.44785H134.223V6.04785ZM292.219 7.04785V7.64785H292.819V7.04785H292.219ZM289.699 7.04785H289.099V7.64785H289.699V7.04785ZM289.699 6.04785V5.44785H289.099V6.04785H289.699ZM292.219 6.04785H292.819V5.44785H292.219V6.04785ZM297.079 7.04785V7.64785H297.679V7.04785H297.079ZM294.559 7.04785H293.959V7.64785H294.559V7.04785ZM294.559 6.04785V5.44785H293.959V6.04785H294.559ZM297.079 6.04785H297.679V5.44785H297.079V6.04785ZM214.561 6.75977V7.35977H215.161V6.75977H214.561ZM212.041 6.75977H211.441V7.35977H212.041V6.75977ZM212.041 5.75977V5.15977H211.441V5.75977H212.041ZM214.561 5.75977H215.161V5.15977H214.561V5.75977ZM74.7778 5.95996H74.1778V6.55996H74.7778V5.95996ZM75.5376 5.95996V6.55996H75.5377L75.5376 5.95996ZM76.3774 5.62012L76.8016 6.04445L76.8017 6.04438L76.3774 5.62012ZM76.3774 3.05957L76.8017 2.63531L76.8016 2.63524L76.3774 3.05957ZM75.5376 2.71973L75.5377 2.11973H75.5376V2.71973ZM74.7778 2.71973V2.11973H74.1778V2.71973H74.7778ZM89.8442 5.95996H89.2442V6.55996H89.8442V5.95996ZM90.604 5.95996V6.55996H90.6041L90.604 5.95996ZM91.4438 5.62012L91.868 6.04445L91.8681 6.04438L91.4438 5.62012ZM91.4438 3.05957L91.8681 2.63531L91.868 2.63524L91.4438 3.05957ZM90.604 2.71973L90.6041 2.11973H90.604V2.71973ZM89.8442 2.71973V2.11973H89.2442V2.71973H89.8442ZM184.098 5.95996H183.498V6.55996H184.098V5.95996ZM184.858 5.95996V6.55996H184.858L184.858 5.95996ZM185.698 5.62012L186.122 6.04445L186.122 6.04438L185.698 5.62012ZM185.698 3.05957L186.122 2.63531L186.122 2.63524L185.698 3.05957ZM184.858 2.71973L184.858 2.11973H184.858V2.71973ZM184.098 2.71973V2.11973H183.498V2.71973H184.098ZM261.618 5.95996H261.018V6.55996H261.618V5.95996ZM262.377 5.95996V6.55996H262.378L262.377 5.95996ZM263.217 5.62012L263.641 6.04445L263.642 6.04438L263.217 5.62012ZM263.217 3.05957L263.642 2.63531L263.641 2.63524L263.217 3.05957ZM262.377 2.71973L262.378 2.11973H262.377V2.71973ZM261.618 2.71973V2.11973H261.018V2.71973H261.618ZM134.223 5.04785V5.64785H134.823V5.04785H134.223ZM131.703 5.04785H131.103V5.64785H131.703V5.04785ZM131.703 4.04785V3.44785H131.103V4.04785H131.703ZM134.223 4.04785H134.823V3.44785H134.223V4.04785ZM292.219 5.04785V5.64785H292.819V5.04785H292.219ZM289.699 5.04785H289.099V5.64785H289.699V5.04785ZM289.699 4.04785V3.44785H289.099V4.04785H289.699ZM292.219 4.04785H292.819V3.44785H292.219V4.04785ZM297.079 5.04785V5.64785H297.679V5.04785H297.079ZM294.559 5.04785H293.959V5.64785H294.559V5.04785ZM294.559 4.04785V3.44785H293.959V4.04785H294.559ZM297.079 4.04785H297.679V3.44785H297.079V4.04785ZM215.721 0L215.721 -0.6H215.721V0ZM218.34 1.08008L218.765 0.655814L218.765 0.655801L218.34 1.08008ZM219.42 3.67969H220.02V3.67966L219.42 3.67969ZM219.42 4.33984V4.93984H220.02V4.33984H219.42ZM216.901 4.33984H216.301V4.93984H216.901V4.33984ZM216.901 3.67969H217.501V3.67961L216.901 3.67969ZM216.561 2.85938L216.985 2.43511L216.985 2.43507L216.561 2.85938ZM215.721 2.51953L215.721 1.91953H215.721V2.51953ZM214.901 2.85938L214.477 2.43498L214.477 2.43511L214.901 2.85938ZM214.561 3.67969L213.961 3.67961V3.67969H214.561ZM214.561 4.75977V5.35977H215.161V4.75977H214.561ZM212.041 4.75977H211.441V5.35977H212.041V4.75977ZM212.041 3.67969L211.441 3.67966V3.67969H212.041ZM213.121 1.08008L212.696 0.655814L212.696 0.655839L213.121 1.08008ZM134.223 3.04785V3.64785H134.823V3.04785H134.223ZM131.703 3.04785H131.103V3.64785H131.703V3.04785ZM131.703 0.200195V-0.399805H131.103V0.200195H131.703ZM134.223 0.200195H134.823V-0.399805H134.223V0.200195ZM292.219 3.04785V3.64785H292.819V3.04785H292.219ZM289.699 3.04785H289.099V3.64785H289.699V3.04785ZM289.699 0.200195V-0.399805H289.099V0.200195H289.699ZM292.219 0.200195H292.819V-0.399805H292.219V0.200195ZM297.079 3.04785V3.64785H297.679V3.04785H297.079ZM294.559 3.04785H293.959V3.64785H294.559V3.04785ZM294.559 0.200195V-0.399805H293.959V0.200195H294.559ZM297.079 0.200195H297.679V-0.399805H297.079V0.200195ZM214.561 11.2803L213.961 11.2805C213.961 11.7596 214.138 12.185 214.477 12.5239L214.901 12.0996L215.325 11.6754C215.211 11.5611 215.161 11.4405 215.161 11.2801L214.561 11.2803ZM214.901 12.0996L214.477 12.5239C214.816 12.8631 215.242 13.0395 215.721 13.0395V12.4395V11.8395C215.56 11.8395 215.439 11.7894 215.325 11.6753L214.901 12.0996ZM215.721 12.4395L215.721 13.0395C216.206 13.0393 216.641 12.8681 216.985 12.5239L216.561 12.0996L216.137 11.6753C216.028 11.7843 215.902 11.8394 215.721 11.8395L215.721 12.4395ZM216.561 12.0996L216.985 12.5238C217.324 12.1851 217.501 11.7596 217.501 11.2805L216.901 11.2803L216.301 11.2801C216.301 11.4403 216.251 11.5611 216.137 11.6755L216.561 12.0996ZM216.901 11.2803H217.501V10.6201H216.901H216.301V11.2803H216.901ZM216.901 10.6201V11.2201H219.42V10.6201V10.0201H216.901V10.6201ZM219.42 10.6201H218.82V11.2803H219.42H220.02V10.6201H219.42ZM219.42 11.2803L218.82 11.2802C218.82 12.1334 218.524 12.8476 217.916 13.4556L218.34 13.8799L218.765 14.3041C219.596 13.4724 220.02 12.4535 220.02 11.2803L219.42 11.2803ZM218.34 13.8799L217.916 13.4556C217.31 14.0619 216.59 14.3599 215.721 14.36L215.721 14.96L215.721 15.56C216.905 15.5598 217.931 15.1373 218.765 14.3042L218.34 13.8799ZM215.721 14.96V14.36C214.868 14.36 214.153 14.0637 213.545 13.4556L213.121 13.8799L212.696 14.3041C213.528 15.1361 214.548 15.56 215.721 15.56V14.96ZM213.121 13.8799L213.545 13.4556C212.937 12.8476 212.641 12.1333 212.641 11.2802L212.041 11.2803L211.441 11.2803C211.441 12.4535 211.865 13.4724 212.696 14.3041L213.121 13.8799ZM212.041 11.2803H212.641V9.75977H212.041H211.441V11.2803H212.041ZM212.041 9.75977V10.3598H214.561V9.75977V9.15977H212.041V9.75977ZM214.561 9.75977H213.961V11.2803H214.561H215.161V9.75977H214.561ZM247.163 0L247.163 0.6C248.031 0.600089 248.751 0.89797 249.357 1.50435L249.782 1.08008L250.206 0.655801C249.373 -0.177482 248.347 -0.599878 247.163 -0.6L247.163 0ZM249.782 1.08008L249.357 1.50434C249.966 2.11245 250.262 2.82651 250.262 3.67971L250.862 3.67969L251.462 3.67966C251.462 2.50634 251.038 1.48762 250.206 0.655814L249.782 1.08008ZM250.862 3.67969H250.262V4.33984H250.862H251.462V3.67969H250.862ZM250.862 4.33984V3.73984H248.342V4.33984V4.93984H250.862V4.33984ZM248.342 4.33984H248.942V3.67969H248.342H247.742V4.33984H248.342ZM248.342 3.67969L248.942 3.67961C248.942 3.20074 248.766 2.77436 248.427 2.43511L248.002 2.85938L247.578 3.28364C247.692 3.39765 247.742 3.51878 247.742 3.67976L248.342 3.67969ZM248.002 2.85938L248.427 2.43507C248.083 2.09102 247.648 1.91968 247.163 1.91953L247.163 2.51953L247.162 3.11953C247.344 3.11959 247.469 3.17472 247.578 3.28368L248.002 2.85938ZM247.163 2.51953V1.91953C246.684 1.91953 246.257 2.09618 245.918 2.43498L246.342 2.85938L246.766 3.28377C246.881 3.16965 247.002 3.11953 247.163 3.11953V2.51953ZM246.342 2.85938L245.918 2.43511C245.579 2.77436 245.402 3.20074 245.402 3.67961L246.002 3.67969L246.602 3.67976C246.602 3.51878 246.653 3.39765 246.767 3.28364L246.342 2.85938ZM246.002 3.67969H245.402V11.2803H246.002H246.602V3.67969H246.002ZM246.002 11.2803L245.402 11.2805C245.403 11.7596 245.579 12.185 245.918 12.5239L246.342 12.0996L246.767 11.6754C246.652 11.5611 246.602 11.4405 246.602 11.2801L246.002 11.2803ZM246.342 12.0996L245.918 12.5239C246.257 12.8631 246.684 13.0395 247.163 13.0395V12.4395V11.8395C247.002 11.8395 246.881 11.7894 246.767 11.6753L246.342 12.0996ZM247.163 12.4395L247.163 13.0395C247.648 13.0393 248.083 12.8681 248.427 12.5239L248.002 12.0996L247.578 11.6753C247.469 11.7843 247.344 11.8394 247.162 11.8395L247.163 12.4395ZM248.002 12.0996L248.427 12.5238C248.765 12.1851 248.942 11.7596 248.942 11.2805L248.342 11.2803L247.742 11.2801C247.742 11.4403 247.692 11.5611 247.578 11.6755L248.002 12.0996ZM248.342 11.2803H248.942V8.47949H248.342H247.742V11.2803H248.342ZM248.342 8.47949V7.87949H246.882V8.47949V9.07949H248.342V8.47949ZM246.882 8.47949H247.482V5.95996H246.882H246.282V8.47949H246.882ZM246.882 5.95996V6.55996H250.862V5.95996V5.35996H246.882V5.95996ZM250.862 5.95996H250.262V11.2803H250.862H251.462V5.95996H250.862ZM250.862 11.2803L250.262 11.2802C250.262 12.1334 249.965 12.8476 249.357 13.4556L249.782 13.8799L250.206 14.3041C251.038 13.4724 251.462 12.4535 251.462 11.2803L250.862 11.2803ZM249.782 13.8799L249.357 13.4556C248.751 14.0619 248.031 14.3599 247.163 14.36L247.163 14.96L247.163 15.56C248.347 15.5598 249.373 15.1373 250.206 14.3042L249.782 13.8799ZM247.163 14.96V14.36C246.309 14.36 245.594 14.0637 244.986 13.4556L244.562 13.8799L244.138 14.3041C244.97 15.1361 245.989 15.56 247.163 15.56V14.96ZM244.562 13.8799L244.986 13.4556C244.378 12.8476 244.082 12.1333 244.082 11.2802L243.482 11.2803L242.882 11.2803C242.882 12.4535 243.306 13.4724 244.138 14.3041L244.562 13.8799ZM243.482 11.2803H244.082V3.67969H243.482H242.882V11.2803H243.482ZM243.482 3.67969L244.082 3.67971C244.082 2.82662 244.378 2.11242 244.986 1.50432L244.562 1.08008L244.138 0.655839C243.306 1.48758 242.882 2.5064 242.882 3.67966L243.482 3.67969ZM244.562 1.08008L244.986 1.50434C245.594 0.896301 246.309 0.6 247.163 0.6V0V-0.6C245.989 -0.6 244.97 -0.176146 244.138 0.655814L244.562 1.08008ZM277.764 0L277.764 0.6C278.633 0.600089 279.353 0.89797 279.959 1.50435L280.383 1.08008L280.808 0.655801C279.974 -0.177482 278.948 -0.599878 277.764 -0.6L277.764 0ZM280.383 1.08008L279.959 1.50434C280.567 2.11245 280.863 2.82651 280.863 3.67971L281.463 3.67969L282.063 3.67966C282.063 2.50634 281.639 1.48762 280.808 0.655814L280.383 1.08008ZM281.463 3.67969H280.863V11.2803H281.463H282.063V3.67969H281.463ZM281.463 11.2803L280.863 11.2802C280.863 12.1334 280.567 12.8476 279.959 13.4556L280.383 13.8799L280.808 14.3041C281.639 13.4724 282.063 12.4535 282.063 11.2803L281.463 11.2803ZM280.383 13.8799L279.959 13.4556C279.353 14.0619 278.633 14.3599 277.764 14.36L277.764 14.96L277.764 15.56C278.948 15.5598 279.974 15.1373 280.808 14.3042L280.383 13.8799ZM277.764 14.96V14.36C276.911 14.36 276.196 14.0637 275.588 13.4556L275.164 13.8799L274.739 14.3041C275.571 15.1361 276.591 15.56 277.764 15.56V14.96ZM275.164 13.8799L275.588 13.4556C274.98 12.8476 274.684 12.1333 274.684 11.2802L274.083 11.2803L273.483 11.2803C273.484 12.4535 273.908 13.4724 274.739 14.3041L275.164 13.8799ZM274.083 11.2803H274.684V3.67969H274.083H273.483V11.2803H274.083ZM274.083 3.67969L274.684 3.67971C274.684 2.82662 274.98 2.11242 275.588 1.50432L275.164 1.08008L274.739 0.655839C273.908 1.48758 273.484 2.5064 273.483 3.67966L274.083 3.67969ZM275.164 1.08008L275.588 1.50434C276.196 0.896301 276.911 0.6 277.764 0.6V0V-0.6C276.591 -0.6 275.571 -0.176146 274.739 0.655814L275.164 1.08008ZM292.219 11.2998H291.619C291.619 11.7734 291.801 12.1903 292.135 12.5239L292.559 12.0996L292.983 11.6754C292.864 11.5556 292.819 11.4396 292.819 11.2998H292.219ZM292.559 12.0996L292.135 12.5239C292.474 12.8627 292.899 13.0393 293.378 13.0395L293.378 12.4395L293.379 11.8395C293.218 11.8394 293.098 11.7896 292.983 11.6753L292.559 12.0996ZM293.378 12.4395V13.0395C293.851 13.0395 294.283 12.8839 294.63 12.557L294.219 12.1201L293.808 11.6832C293.702 11.783 293.572 11.8395 293.378 11.8395V12.4395ZM294.219 12.1201L294.644 12.5444C294.983 12.2052 295.159 11.7789 295.159 11.2998H294.559H293.959C293.959 11.4607 293.909 11.5818 293.795 11.6959L294.219 12.1201ZM294.559 11.2998H295.159V8.04785H294.559H293.959V11.2998H294.559ZM294.559 8.04785V8.64785H297.079V8.04785V7.44785H294.559V8.04785ZM297.079 8.04785H296.479V11.2998H297.079H297.679V8.04785H297.079ZM297.079 11.2998H296.479C296.479 12.153 296.182 12.867 295.574 13.4752L295.999 13.8994L296.423 14.3237C297.255 13.4919 297.679 12.4732 297.679 11.2998H297.079ZM295.999 13.8994L295.578 13.4712C294.972 14.0658 294.251 14.36 293.378 14.36V14.96V15.56C294.559 15.56 295.585 15.1464 296.419 14.3276L295.999 13.8994ZM293.378 14.96L293.378 14.36C292.522 14.3599 291.806 14.0673 291.199 13.4712L290.779 13.8994L290.359 14.3276C291.191 15.1447 292.209 15.5598 293.378 15.56L293.378 14.96ZM290.779 13.8994L291.203 13.4752C290.595 12.867 290.299 12.1529 290.299 11.2998H289.699H289.099C289.099 12.4732 289.523 13.4919 290.355 14.3236L290.779 13.8994ZM289.699 11.2998H290.299V8.04785H289.699H289.099V11.2998H289.699ZM289.699 8.04785V8.64785H292.219V8.04785V7.44785H289.699V8.04785ZM292.219 8.04785H291.619V11.2998H292.219H292.819V8.04785H292.219ZM46.3608 8.16016H46.9608V0.200195H46.3608H45.7608V8.16016H46.3608ZM46.3608 0.200195V0.800195H48.8804V0.200195V-0.399805H46.3608V0.200195ZM48.8804 0.200195H48.2804V14.7598H48.8804H49.4804V0.200195H48.8804ZM48.8804 14.7598V14.1598H46.3608V14.7598V15.3598H48.8804V14.7598ZM46.3608 14.7598L46.9171 14.5348L43.6973 6.57482L43.1411 6.7998L42.5849 7.02479L45.8046 14.9848L46.3608 14.7598ZM43.1411 6.7998H42.5411V14.7598H43.1411H43.7411V6.7998H43.1411ZM43.1411 14.7598V14.1598H40.6206V14.7598V15.3598H43.1411V14.7598ZM40.6206 14.7598H41.2206V0.200195H40.6206H40.0206V14.7598H40.6206ZM40.6206 0.200195V0.800195H43.1411V0.200195V-0.399805H40.6206V0.200195ZM43.1411 0.200195L42.5849 0.425181L45.8046 8.38514L46.3608 8.16016L46.9171 7.93517L43.6973 -0.0247905L43.1411 0.200195ZM64.9106 14.7598V14.1598H62.3306V14.7598V15.3598H64.9106V14.7598ZM62.3306 14.7598L62.9203 14.6492L62.3802 11.7693L61.7905 11.8799L61.2008 11.9905L61.7408 14.8704L62.3306 14.7598ZM61.7905 11.8799V11.2799H59.3501V11.8799V12.4799H61.7905V11.8799ZM59.3501 11.8799L58.7603 11.7695L58.2213 14.6494L58.811 14.7598L59.4008 14.8702L59.9399 11.9903L59.3501 11.8799ZM58.811 14.7598V14.1598H56.231V14.7598V15.3598H58.811V14.7598ZM56.231 14.7598L56.818 14.8839L59.898 0.324377L59.311 0.200195L58.724 0.0760136L55.6439 14.6356L56.231 14.7598ZM59.311 0.200195V0.800195H61.8306V0.200195V-0.399805H59.311V0.200195ZM61.8306 0.200195L61.2436 0.324377L64.3236 14.8839L64.9106 14.7598L65.4977 14.6356L62.4176 0.0760136L61.8306 0.200195ZM75.5376 0.200195L75.5376 0.800195C76.4066 0.800223 77.1271 1.09814 77.7335 1.70454L78.1577 1.28027L78.582 0.856009C77.7484 0.0224742 76.7219 -0.399767 75.5376 -0.399805L75.5376 0.200195ZM78.1577 1.28027L77.7334 1.70449C78.3414 2.31264 78.6378 3.02686 78.6378 3.87988H79.2378H79.8378C79.8378 2.70656 79.4136 1.68777 78.582 0.856056L78.1577 1.28027ZM79.2378 3.87988H78.6378V4.7998H79.2378H79.8378V3.87988H79.2378ZM79.2378 4.7998H78.6378C78.6378 5.33933 78.5098 5.83154 78.2545 6.28653L78.7778 6.58008L79.3011 6.87363C79.6592 6.23529 79.8378 5.54028 79.8378 4.7998H79.2378ZM78.7778 6.58008L78.2521 6.29092C78.008 6.73481 77.6707 7.09437 77.2333 7.37476L77.5571 7.87988L77.8809 8.38501C78.4835 7.99874 78.961 7.492 79.3036 6.86923L78.7778 6.58008ZM77.5571 7.87988L76.9932 8.0848L79.4932 14.9647L80.0571 14.7598L80.6211 14.5548L78.1211 7.67497L77.5571 7.87988ZM80.0571 14.7598V14.1598H77.3774V14.7598V15.3598H80.0571V14.7598ZM77.3774 14.7598L77.9426 14.5582L75.7023 8.27791L75.1372 8.47949L74.5721 8.68108L76.8123 14.9614L77.3774 14.7598ZM75.1372 8.47949V7.87949H74.7778V8.47949V9.07949H75.1372V8.47949ZM74.7778 8.47949H74.1778V14.7598H74.7778H75.3778V8.47949H74.7778ZM74.7778 14.7598V14.1598H72.2573V14.7598V15.3598H74.7778V14.7598ZM72.2573 14.7598H72.8573V0.200195H72.2573H71.6573V14.7598H72.2573ZM72.2573 0.200195V0.800195H75.5376V0.200195V-0.399805H72.2573V0.200195ZM90.604 0.200195L90.604 0.800195C91.473 0.800223 92.1935 1.09814 92.7999 1.70454L93.2241 1.28027L93.6484 0.856009C92.8148 0.0224742 91.7883 -0.399767 90.604 -0.399805L90.604 0.200195ZM93.2241 1.28027L92.7998 1.70449C93.4078 2.31264 93.7042 3.02686 93.7042 3.87988H94.3042H94.9042C94.9042 2.70656 94.48 1.68777 93.6484 0.856056L93.2241 1.28027ZM94.3042 3.87988H93.7042V4.7998H94.3042H94.9042V3.87988H94.3042ZM94.3042 4.7998H93.7042C93.7042 5.33933 93.5762 5.83154 93.321 6.28653L93.8442 6.58008L94.3675 6.87363C94.7256 6.23529 94.9042 5.54028 94.9042 4.7998H94.3042ZM93.8442 6.58008L93.3185 6.29092C93.0744 6.73481 92.7371 7.09437 92.2997 7.37476L92.6235 7.87988L92.9473 8.38501C93.5499 7.99874 94.0274 7.492 94.37 6.86923L93.8442 6.58008ZM92.6235 7.87988L92.0596 8.0848L94.5596 14.9647L95.1235 14.7598L95.6875 14.5548L93.1875 7.67497L92.6235 7.87988ZM95.1235 14.7598V14.1598H92.4438V14.7598V15.3598H95.1235V14.7598ZM92.4438 14.7598L93.009 14.5582L90.7687 8.27791L90.2036 8.47949L89.6385 8.68108L91.8787 14.9614L92.4438 14.7598ZM90.2036 8.47949V7.87949H89.8442V8.47949V9.07949H90.2036V8.47949ZM89.8442 8.47949H89.2442V14.7598H89.8442H90.4442V8.47949H89.8442ZM89.8442 14.7598V14.1598H87.3237V14.7598V15.3598H89.8442V14.7598ZM87.3237 14.7598H87.9237V0.200195H87.3237H86.7237V14.7598H87.3237ZM87.3237 0.200195V0.800195H90.604V0.200195V-0.399805H87.3237V0.200195ZM110.09 14.7598V14.1598H107.51V14.7598V15.3598H110.09V14.7598ZM107.51 14.7598L108.1 14.6492L107.56 11.7693L106.97 11.8799L106.38 11.9905L106.921 14.8704L107.51 14.7598ZM106.97 11.8799V11.2799H104.53V11.8799V12.4799H106.97V11.8799ZM104.53 11.8799L103.94 11.7695L103.401 14.6494L103.991 14.7598L104.58 14.8702L105.12 11.9903L104.53 11.8799ZM103.991 14.7598V14.1598H101.411V14.7598V15.3598H103.991V14.7598ZM101.411 14.7598L101.998 14.8839L105.078 0.324377L104.491 0.200195L103.904 0.0760136L100.824 14.6356L101.411 14.7598ZM104.491 0.200195V0.800195H107.01V0.200195V-0.399805H104.491V0.200195ZM107.01 0.200195L106.423 0.324377L109.503 14.8839L110.09 14.7598L110.677 14.6356L107.597 0.0760136L107.01 0.200195ZM124.157 2.71973V2.11973H121.657V2.71973V3.31973H124.157V2.71973ZM121.657 2.71973H121.057V14.7598H121.657H122.257V2.71973H121.657ZM121.657 14.7598V14.1598H119.137V14.7598V15.3598H121.657V14.7598ZM119.137 14.7598H119.737V2.71973H119.137H118.537V14.7598H119.137ZM119.137 2.71973V2.11973H116.637V2.71973V3.31973H119.137V2.71973ZM116.637 2.71973H117.237V0.200195H116.637H116.037V2.71973H116.637ZM116.637 0.200195V0.800195H124.157V0.200195V-0.399805H116.637V0.200195ZM124.157 0.200195H123.557V2.71973H124.157H124.757V0.200195H124.157ZM134.223 14.7598V14.1598H131.703V14.7598V15.3598H134.223V14.7598ZM131.703 14.7598H132.303V8.04785H131.703H131.103V14.7598H131.703ZM131.703 8.04785V8.64785H134.223V8.04785V7.44785H131.703V8.04785ZM134.223 8.04785H133.623V14.7598H134.223H134.823V8.04785H134.223ZM145.69 9.41992L146.282 9.51877L147.822 0.299048L147.23 0.200195L146.638 0.101342L145.098 9.32107L145.69 9.41992ZM147.23 0.200195V0.800195H149.81V0.200195V-0.399805H147.23V0.200195ZM149.81 0.200195L149.221 0.0845312L146.361 14.6441L146.95 14.7598L147.538 14.8754L150.399 0.315859L149.81 0.200195ZM146.95 14.7598V14.1598H144.43V14.7598V15.3598H146.95V14.7598ZM144.43 14.7598L145.019 14.6441L142.159 0.0845312L141.57 0.200195L140.981 0.315859L143.841 14.8754L144.43 14.7598ZM141.57 0.200195V0.800195H144.15V0.200195V-0.399805H141.57V0.200195ZM144.15 0.200195L143.558 0.299048L145.098 9.51877L145.69 9.41992L146.282 9.32107L144.742 0.101342L144.15 0.200195ZM163.768 2.71973V2.11973H159.668V2.71973V3.31973H163.768V2.71973ZM159.668 2.71973H159.068V5.95996H159.668H160.268V2.71973H159.668ZM159.668 5.95996V6.55996H163.288V5.95996V5.35996H159.668V5.95996ZM163.288 5.95996H162.688V8.47949H163.288H163.888V5.95996H163.288ZM163.288 8.47949V7.87949H159.668V8.47949V9.07949H163.288V8.47949ZM159.668 8.47949H159.068V12.2402H159.668H160.268V8.47949H159.668ZM159.668 12.2402V12.8402H163.768V12.2402V11.6402H159.668V12.2402ZM163.768 12.2402H163.168V14.7598H163.768H164.368V12.2402H163.768ZM163.768 14.7598V14.1598H157.148V14.7598V15.3598H163.768V14.7598ZM157.148 14.7598H157.748V0.200195H157.148H156.548V14.7598H157.148ZM157.148 0.200195V0.800195H163.768V0.200195V-0.399805H157.148V0.200195ZM163.768 0.200195H163.168V2.71973H163.768H164.368V0.200195H163.768ZM184.858 0.200195L184.858 0.800195C185.727 0.800223 186.447 1.09814 187.054 1.70454L187.478 1.28027L187.902 0.856009C187.069 0.0224742 186.042 -0.399767 184.858 -0.399805L184.858 0.200195ZM187.478 1.28027L187.054 1.70449C187.662 2.31264 187.958 3.02686 187.958 3.87988H188.558H189.158C189.158 2.70656 188.734 1.68777 187.902 0.856056L187.478 1.28027ZM188.558 3.87988H187.958V4.7998H188.558H189.158V3.87988H188.558ZM188.558 4.7998H187.958C187.958 5.4968 187.753 6.09148 187.346 6.6084L187.818 6.97949L188.289 7.35058C188.869 6.61429 189.158 5.7559 189.158 4.7998H188.558ZM187.818 6.97949L187.401 7.41126C188.046 8.03331 188.357 8.76522 188.358 9.63968L188.958 9.63965L189.558 9.63962C189.557 8.43425 189.11 7.39224 188.234 6.54772L187.818 6.97949ZM188.958 9.63965H188.358V11.0801H188.958H189.558V9.63965H188.958ZM188.958 11.0801L188.358 11.08C188.357 11.9332 188.061 12.6473 187.453 13.2554L187.877 13.6797L188.302 14.104C189.133 13.2722 189.557 12.2534 189.558 11.0801L188.958 11.0801ZM187.877 13.6797L187.453 13.2554C186.847 13.8618 186.126 14.1598 185.257 14.1598V14.7598V15.3598C186.442 15.3598 187.468 14.9374 188.302 14.104L187.877 13.6797ZM185.257 14.7598V14.1598H181.578V14.7598V15.3598H185.257V14.7598ZM181.578 14.7598H182.178V0.200195H181.578H180.978V14.7598H181.578ZM181.578 0.200195V0.800195H184.858V0.200195V-0.399805H181.578V0.200195ZM204.774 14.7598V14.1598H202.194V14.7598V15.3598H204.774V14.7598ZM202.194 14.7598L202.784 14.6492L202.244 11.7693L201.654 11.8799L201.064 11.9905L201.604 14.8704L202.194 14.7598ZM201.654 11.8799V11.2799H199.213V11.8799V12.4799H201.654V11.8799ZM199.213 11.8799L198.624 11.7695L198.085 14.6494L198.674 14.7598L199.264 14.8702L199.803 11.9903L199.213 11.8799ZM198.674 14.7598V14.1598H196.094V14.7598V15.3598H198.674V14.7598ZM196.094 14.7598L196.681 14.8839L199.761 0.324377L199.174 0.200195L198.587 0.0760136L195.507 14.6356L196.094 14.7598ZM199.174 0.200195V0.800195H201.694V0.200195V-0.399805H199.174V0.200195ZM201.694 0.200195L201.107 0.324377L204.187 14.8839L204.774 14.7598L205.361 14.6356L202.281 0.0760136L201.694 0.200195ZM229.981 6.33984L230.528 6.58583L233.288 0.446186L232.741 0.200195L232.193 -0.0457955L229.434 6.09385L229.981 6.33984ZM232.741 0.200195V0.800195H235.541V0.200195V-0.399805H232.741V0.200195ZM235.541 0.200195L235.003 -0.0659879L232.043 5.9135L232.581 6.17969L233.118 6.44587L236.078 0.466379L235.541 0.200195ZM232.581 6.17969L232.027 6.41181L235.627 14.9919L236.18 14.7598L236.733 14.5276L233.134 5.94757L232.581 6.17969ZM236.18 14.7598V14.1598H233.441V14.7598V15.3598H236.18V14.7598ZM233.441 14.7598L233.999 14.5405L231.739 8.78078L231.18 9L230.622 9.21922L232.882 14.979L233.441 14.7598ZM231.18 9L230.643 8.73176L229.444 11.1312L229.981 11.3994L230.518 11.6677L231.717 9.26824L231.18 9ZM229.981 11.3994H229.381V14.7598H229.981H230.581V11.3994H229.981ZM229.981 14.7598V14.1598H227.46V14.7598V15.3598H229.981V14.7598ZM227.46 14.7598H228.06V0.200195H227.46H226.86V14.7598H227.46ZM227.46 0.200195V0.800195H229.981V0.200195V-0.399805H227.46V0.200195ZM229.981 0.200195H229.381V6.33984H229.981H230.581V0.200195H229.981ZM262.377 0.200195L262.377 0.800195C263.246 0.800223 263.967 1.09814 264.573 1.70454L264.998 1.28027L265.422 0.856009C264.588 0.0224742 263.562 -0.399767 262.377 -0.399805L262.377 0.200195ZM264.998 1.28027L264.573 1.70449C265.181 2.31264 265.478 3.02686 265.478 3.87988H266.078H266.678C266.678 2.70656 266.253 1.68777 265.422 0.856056L264.998 1.28027ZM266.078 3.87988H265.478V4.7998H266.078H266.678V3.87988H266.078ZM266.078 4.7998H265.478C265.478 5.33933 265.35 5.83154 265.094 6.28653L265.618 6.58008L266.141 6.87363C266.499 6.23529 266.678 5.54028 266.678 4.7998H266.078ZM265.618 6.58008L265.092 6.29092C264.848 6.73481 264.511 7.09437 264.073 7.37476L264.397 7.87988L264.721 8.38501C265.323 7.99874 265.801 7.492 266.143 6.86923L265.618 6.58008ZM264.397 7.87988L263.833 8.0848L266.333 14.9647L266.897 14.7598L267.461 14.5548L264.961 7.67497L264.397 7.87988ZM266.897 14.7598V14.1598H264.217V14.7598V15.3598H266.897V14.7598ZM264.217 14.7598L264.782 14.5582L262.542 8.27791L261.977 8.47949L261.412 8.68108L263.652 14.9614L264.217 14.7598ZM261.977 8.47949V7.87949H261.618V8.47949V9.07949H261.977V8.47949ZM261.618 8.47949H261.018V14.7598H261.618H262.218V8.47949H261.618ZM261.618 14.7598V14.1598H259.097V14.7598V15.3598H261.618V14.7598ZM259.097 14.7598H259.697V0.200195H259.097H258.497V14.7598H259.097ZM259.097 0.200195V0.800195H262.377V0.200195V-0.399805H259.097V0.200195ZM311.15 8.16016H311.75V0.200195H311.15H310.55V8.16016H311.15ZM311.15 0.200195V0.800195H313.669V0.200195V-0.399805H311.15V0.200195ZM313.669 0.200195H313.069V14.7598H313.669H314.269V0.200195H313.669ZM313.669 14.7598V14.1598H311.15V14.7598V15.3598H313.669V14.7598ZM311.15 14.7598L311.706 14.5348L308.486 6.57482L307.93 6.7998L307.374 7.02479L310.594 14.9848L311.15 14.7598ZM307.93 6.7998H307.33V14.7598H307.93H308.53V6.7998H307.93ZM307.93 14.7598V14.1598H305.41V14.7598V15.3598H307.93V14.7598ZM305.41 14.7598H306.01V0.200195H305.41H304.81V14.7598H305.41ZM305.41 0.200195V0.800195H307.93V0.200195V-0.399805H305.41V0.200195ZM307.93 0.200195L307.374 0.425181L310.594 8.38514L311.15 8.16016L311.706 7.93517L308.486 -0.0247905L307.93 0.200195ZM325.679 0.200195V0.800195C326.533 0.800195 327.247 1.0965 327.856 1.70454L328.28 1.28027L328.704 0.856009C327.872 0.0240498 326.852 -0.399805 325.679 -0.399805V0.200195ZM328.28 1.28027L327.859 1.70837C328.479 2.31728 328.779 3.03022 328.779 3.87988H329.379H329.979C329.979 2.70314 329.546 1.68316 328.7 0.852173L328.28 1.28027ZM329.379 3.87988H328.779V11.0801H329.379H329.979V3.87988H329.379ZM329.379 11.0801L328.779 11.08C328.779 11.9297 328.479 12.6427 327.859 13.2516L328.28 13.6797L328.7 14.1078C329.546 13.2768 329.979 12.2567 329.979 11.0801L329.379 11.0801ZM328.28 13.6797L327.856 13.2554C327.247 13.8635 326.533 14.1598 325.679 14.1598V14.7598V15.3598C326.852 15.3598 327.872 14.9359 328.704 14.104L328.28 13.6797ZM325.679 14.7598V14.1598H322V14.7598V15.3598H325.679V14.7598ZM322 14.7598H322.6V0.200195H322H321.4V14.7598H322ZM322 0.200195V0.800195H325.679V0.200195V-0.399805H322V0.200195ZM277.764 2.51953V1.91953C277.285 1.91953 276.859 2.09618 276.52 2.43498L276.944 2.85938L277.368 3.28377C277.482 3.16965 277.604 3.11953 277.764 3.11953V2.51953ZM276.944 2.85938L276.52 2.43511C276.18 2.77436 276.004 3.20074 276.004 3.67961L276.604 3.67969L277.204 3.67976C277.204 3.51878 277.254 3.39765 277.368 3.28364L276.944 2.85938ZM276.604 3.67969H276.004V11.2803H276.604H277.204V3.67969H276.604ZM276.604 11.2803L276.004 11.2805C276.004 11.7596 276.181 12.185 276.52 12.5239L276.944 12.0996L277.368 11.6754C277.254 11.5611 277.204 11.4405 277.204 11.2801L276.604 11.2803ZM276.944 12.0996L276.52 12.5239C276.859 12.8631 277.285 13.0395 277.764 13.0395V12.4395V11.8395C277.603 11.8395 277.482 11.7894 277.368 11.6753L276.944 12.0996ZM277.764 12.4395L277.764 13.0395C278.249 13.0393 278.684 12.8681 279.028 12.5239L278.604 12.0996L278.18 11.6753C278.071 11.7843 277.945 11.8394 277.764 11.8395L277.764 12.4395ZM278.604 12.0996L279.028 12.5238C279.367 12.1851 279.544 11.7596 279.544 11.2805L278.944 11.2803L278.344 11.2801C278.344 11.4403 278.294 11.5611 278.18 11.6755L278.604 12.0996ZM278.944 11.2803H279.544V3.67969H278.944H278.344V11.2803H278.944ZM278.944 3.67969L279.544 3.67961C279.544 3.20074 279.368 2.77436 279.028 2.43511L278.604 2.85938L278.18 3.28364C278.294 3.39765 278.344 3.51878 278.344 3.67976L278.944 3.67969ZM278.604 2.85938L279.028 2.43507C278.684 2.09102 278.249 1.91968 277.764 1.91953L277.764 2.51953L277.764 3.11953C277.945 3.11959 278.071 3.17472 278.18 3.28368L278.604 2.85938ZM184.098 12.2402V12.8402H185.257V12.2402V11.6402H184.098V12.2402ZM185.257 12.2402V12.8402C185.743 12.8402 186.179 12.6673 186.522 12.3237L186.098 11.8994L185.674 11.4752C185.564 11.5848 185.438 11.6402 185.257 11.6402V12.2402ZM186.098 11.8994L186.523 12.3235C186.861 11.9849 187.038 11.5595 187.038 11.0802L186.438 11.0801L185.838 11.08C185.838 11.24 185.788 11.3608 185.674 11.4753L186.098 11.8994ZM186.438 11.0801H187.038V9.63965H186.438H185.838V11.0801H186.438ZM186.438 9.63965L187.038 9.63956C187.038 9.16017 186.861 8.73478 186.523 8.39623L186.098 8.82031L185.674 9.24439C185.788 9.35892 185.838 9.4797 185.838 9.63974L186.438 9.63965ZM186.098 8.82031L186.522 8.39605C186.179 8.0524 185.743 7.87949 185.257 7.87949V8.47949V9.07949C185.438 9.07949 185.564 9.13489 185.674 9.24458L186.098 8.82031ZM185.257 8.47949V7.87949H184.098V8.47949V9.07949H185.257V8.47949ZM184.098 8.47949H183.498V12.2402H184.098H184.698V8.47949H184.098ZM324.52 12.2402V12.8402H325.679V12.2402V11.6402H324.52V12.2402ZM325.679 12.2402V12.8402C326.165 12.8402 326.601 12.6673 326.944 12.3237L326.52 11.8994L326.096 11.4752C325.986 11.5848 325.86 11.6402 325.679 11.6402V12.2402ZM326.52 11.8994L326.944 12.3235C327.283 11.9849 327.46 11.5595 327.46 11.0802L326.86 11.0801L326.26 11.08C326.26 11.24 326.21 11.3608 326.096 11.4753L326.52 11.8994ZM326.86 11.0801H327.46V3.87988H326.86H326.26V11.0801H326.86ZM326.86 3.87988H327.46C327.46 3.40083 327.283 2.97453 326.944 2.63533L326.52 3.05957L326.096 3.48381C326.21 3.59792 326.26 3.71898 326.26 3.87988H326.86ZM326.52 3.05957L326.944 2.63531C326.6 2.29076 326.164 2.11973 325.679 2.11973V2.71973V3.31973C325.861 3.31973 325.987 3.37505 326.096 3.48383L326.52 3.05957ZM325.679 2.71973V2.11973H324.52V2.71973V3.31973H325.679V2.71973ZM324.52 2.71973H323.92V12.2402H324.52H325.12V2.71973H324.52ZM59.811 9.35938V9.95938H61.3306V9.35938V8.75937H59.811V9.35938ZM61.3306 9.35938L61.9205 9.25004L61.1608 5.15043L60.5708 5.25977L59.9808 5.3691L60.7406 9.46871L61.3306 9.35938ZM60.5708 5.25977L59.9808 5.15043L59.2211 9.25004L59.811 9.35938L60.401 9.46871L61.1608 5.3691L60.5708 5.25977ZM104.991 9.35938V9.95938H106.51V9.35938V8.75937H104.991V9.35938ZM106.51 9.35938L107.1 9.25004L106.34 5.15043L105.75 5.25977L105.161 5.3691L105.92 9.46871L106.51 9.35938ZM105.75 5.25977L105.161 5.15043L104.401 9.25004L104.991 9.35938L105.581 9.46871L106.34 5.3691L105.75 5.25977ZM199.674 9.35938V9.95938H201.194V9.35938V8.75937H199.674V9.35938ZM201.194 9.35938L201.784 9.25004L201.024 5.15043L200.434 5.25977L199.844 5.3691L200.604 9.46871L201.194 9.35938ZM200.434 5.25977L199.844 5.15043L199.084 9.25004L199.674 9.35938L200.264 9.46871L201.024 5.3691L200.434 5.25977ZM214.561 8.75977V8.15977H212.041V8.75977V9.35977H214.561V8.75977ZM212.041 8.75977H212.641V7.75977H212.041H211.441V8.75977H212.041ZM212.041 7.75977V8.35977H214.561V7.75977V7.15977H212.041V7.75977ZM214.561 7.75977H213.961V8.75977H214.561H215.161V7.75977H214.561ZM134.223 7.04785V6.44785H131.703V7.04785V7.64785H134.223V7.04785ZM131.703 7.04785H132.303V6.04785H131.703H131.103V7.04785H131.703ZM131.703 6.04785V6.64785H134.223V6.04785V5.44785H131.703V6.04785ZM134.223 6.04785H133.623V7.04785H134.223H134.823V6.04785H134.223ZM292.219 7.04785V6.44785H289.699V7.04785V7.64785H292.219V7.04785ZM289.699 7.04785H290.299V6.04785H289.699H289.099V7.04785H289.699ZM289.699 6.04785V6.64785H292.219V6.04785V5.44785H289.699V6.04785ZM292.219 6.04785H291.619V7.04785H292.219H292.819V6.04785H292.219ZM297.079 7.04785V6.44785H294.559V7.04785V7.64785H297.079V7.04785ZM294.559 7.04785H295.159V6.04785H294.559H293.959V7.04785H294.559ZM294.559 6.04785V6.64785H297.079V6.04785V5.44785H294.559V6.04785ZM297.079 6.04785H296.479V7.04785H297.079H297.679V6.04785H297.079ZM214.561 6.75977V6.15977H212.041V6.75977V7.35977H214.561V6.75977ZM212.041 6.75977H212.641V5.75977H212.041H211.441V6.75977H212.041ZM212.041 5.75977V6.35977H214.561V5.75977V5.15977H212.041V5.75977ZM214.561 5.75977H213.961V6.75977H214.561H215.161V5.75977H214.561ZM74.7778 5.95996V6.55996H75.5376V5.95996V5.35996H74.7778V5.95996ZM75.5376 5.95996L75.5377 6.55996C76.0228 6.55992 76.4576 6.38842 76.8016 6.04445L76.3774 5.62012L75.9532 5.19579C75.8441 5.30489 75.7188 5.35994 75.5375 5.35996L75.5376 5.95996ZM76.3774 5.62012L76.8017 6.04438C77.1409 5.70514 77.3173 5.27886 77.3173 4.7998H76.7173H76.1173C76.1173 4.96075 76.0673 5.08176 75.9532 5.19585L76.3774 5.62012ZM76.7173 4.7998H77.3173V3.87988H76.7173H76.1173V4.7998H76.7173ZM76.7173 3.87988H77.3173C77.3173 3.40083 77.1409 2.97455 76.8017 2.63531L76.3774 3.05957L75.9532 3.48383C76.0673 3.59793 76.1173 3.71894 76.1173 3.87988H76.7173ZM76.3774 3.05957L76.8016 2.63524C76.4576 2.29127 76.0228 2.11977 75.5377 2.11973L75.5376 2.71973L75.5375 3.31973C75.7188 3.31974 75.8441 3.3748 75.9532 3.4839L76.3774 3.05957ZM75.5376 2.71973V2.11973H74.7778V2.71973V3.31973H75.5376V2.71973ZM74.7778 2.71973H74.1778V5.95996H74.7778H75.3778V2.71973H74.7778ZM89.8442 5.95996V6.55996H90.604V5.95996V5.35996H89.8442V5.95996ZM90.604 5.95996L90.6041 6.55996C91.0892 6.55992 91.524 6.38842 91.868 6.04445L91.4438 5.62012L91.0196 5.19579C90.9105 5.30489 90.7852 5.35994 90.6039 5.35996L90.604 5.95996ZM91.4438 5.62012L91.8681 6.04438C92.2074 5.70514 92.3837 5.27886 92.3837 4.7998H91.7837H91.1837C91.1837 4.96075 91.1337 5.08176 91.0196 5.19585L91.4438 5.62012ZM91.7837 4.7998H92.3837V3.87988H91.7837H91.1837V4.7998H91.7837ZM91.7837 3.87988H92.3837C92.3837 3.40083 92.2074 2.97455 91.8681 2.63531L91.4438 3.05957L91.0196 3.48383C91.1337 3.59793 91.1837 3.71894 91.1837 3.87988H91.7837ZM91.4438 3.05957L91.868 2.63524C91.524 2.29127 91.0892 2.11977 90.6041 2.11973L90.604 2.71973L90.6039 3.31973C90.7852 3.31974 90.9105 3.3748 91.0197 3.4839L91.4438 3.05957ZM90.604 2.71973V2.11973H89.8442V2.71973V3.31973H90.604V2.71973ZM89.8442 2.71973H89.2442V5.95996H89.8442H90.4442V2.71973H89.8442ZM184.098 5.95996V6.55996H184.858V5.95996V5.35996H184.098V5.95996ZM184.858 5.95996L184.858 6.55996C185.343 6.55992 185.778 6.38842 186.122 6.04445L185.698 5.62012L185.274 5.19579C185.164 5.30489 185.039 5.35994 184.858 5.35996L184.858 5.95996ZM185.698 5.62012L186.122 6.04438C186.461 5.70514 186.638 5.27886 186.638 4.7998H186.038H185.438C185.438 4.96075 185.388 5.08176 185.273 5.19585L185.698 5.62012ZM186.038 4.7998H186.638V3.87988H186.038H185.438V4.7998H186.038ZM186.038 3.87988H186.638C186.638 3.40083 186.461 2.97455 186.122 2.63531L185.698 3.05957L185.273 3.48383C185.388 3.59793 185.438 3.71894 185.438 3.87988H186.038ZM185.698 3.05957L186.122 2.63524C185.778 2.29127 185.343 2.11977 184.858 2.11973L184.858 2.71973L184.858 3.31973C185.039 3.31974 185.164 3.3748 185.274 3.4839L185.698 3.05957ZM184.858 2.71973V2.11973H184.098V2.71973V3.31973H184.858V2.71973ZM184.098 2.71973H183.498V5.95996H184.098H184.698V2.71973H184.098ZM261.618 5.95996V6.55996H262.377V5.95996V5.35996H261.618V5.95996ZM262.377 5.95996L262.378 6.55996C262.863 6.55992 263.297 6.38842 263.641 6.04445L263.217 5.62012L262.793 5.19579C262.684 5.30489 262.559 5.35994 262.377 5.35996L262.377 5.95996ZM263.217 5.62012L263.642 6.04438C263.981 5.70514 264.157 5.27886 264.157 4.7998H263.557H262.957C262.957 4.96075 262.907 5.08176 262.793 5.19585L263.217 5.62012ZM263.557 4.7998H264.157V3.87988H263.557H262.957V4.7998H263.557ZM263.557 3.87988H264.157C264.157 3.40083 263.981 2.97455 263.642 2.63531L263.217 3.05957L262.793 3.48383C262.907 3.59793 262.957 3.71894 262.957 3.87988H263.557ZM263.217 3.05957L263.641 2.63524C263.297 2.29127 262.863 2.11977 262.378 2.11973L262.377 2.71973L262.377 3.31973C262.559 3.31974 262.684 3.3748 262.793 3.4839L263.217 3.05957ZM262.377 2.71973V2.11973H261.618V2.71973V3.31973H262.377V2.71973ZM261.618 2.71973H261.018V5.95996H261.618H262.218V2.71973H261.618ZM134.223 5.04785V4.44785H131.703V5.04785V5.64785H134.223V5.04785ZM131.703 5.04785H132.303V4.04785H131.703H131.103V5.04785H131.703ZM131.703 4.04785V4.64785H134.223V4.04785V3.44785H131.703V4.04785ZM134.223 4.04785H133.623V5.04785H134.223H134.823V4.04785H134.223ZM292.219 5.04785V4.44785H289.699V5.04785V5.64785H292.219V5.04785ZM289.699 5.04785H290.299V4.04785H289.699H289.099V5.04785H289.699ZM289.699 4.04785V4.64785H292.219V4.04785V3.44785H289.699V4.04785ZM292.219 4.04785H291.619V5.04785H292.219H292.819V4.04785H292.219ZM297.079 5.04785V4.44785H294.559V5.04785V5.64785H297.079V5.04785ZM294.559 5.04785H295.159V4.04785H294.559H293.959V5.04785H294.559ZM294.559 4.04785V4.64785H297.079V4.04785V3.44785H294.559V4.04785ZM297.079 4.04785H296.479V5.04785H297.079H297.679V4.04785H297.079ZM215.721 0L215.721 0.6C216.59 0.600089 217.31 0.89797 217.916 1.50435L218.34 1.08008L218.765 0.655801C217.931 -0.177482 216.905 -0.599878 215.721 -0.6L215.721 0ZM218.34 1.08008L217.916 1.50434C218.524 2.11245 218.82 2.82651 218.82 3.67971L219.42 3.67969L220.02 3.67966C220.02 2.50634 219.596 1.48762 218.765 0.655814L218.34 1.08008ZM219.42 3.67969H218.82V4.33984H219.42H220.02V3.67969H219.42ZM219.42 4.33984V3.73984H216.901V4.33984V4.93984H219.42V4.33984ZM216.901 4.33984H217.501V3.67969H216.901H216.301V4.33984H216.901ZM216.901 3.67969L217.501 3.67961C217.501 3.20074 217.325 2.77436 216.985 2.43511L216.561 2.85938L216.137 3.28364C216.251 3.39765 216.301 3.51878 216.301 3.67976L216.901 3.67969ZM216.561 2.85938L216.985 2.43507C216.641 2.09102 216.206 1.91968 215.721 1.91953L215.721 2.51953L215.721 3.11953C215.902 3.11959 216.028 3.17472 216.137 3.28368L216.561 2.85938ZM215.721 2.51953V1.91953C215.242 1.91953 214.816 2.09618 214.477 2.43498L214.901 2.85938L215.325 3.28377C215.439 3.16965 215.561 3.11953 215.721 3.11953V2.51953ZM214.901 2.85938L214.477 2.43511C214.137 2.77436 213.961 3.20074 213.961 3.67961L214.561 3.67969L215.161 3.67976C215.161 3.51878 215.211 3.39765 215.325 3.28364L214.901 2.85938ZM214.561 3.67969H213.961V4.75977H214.561H215.161V3.67969H214.561ZM214.561 4.75977V4.15977H212.041V4.75977V5.35977H214.561V4.75977ZM212.041 4.75977H212.641V3.67969H212.041H211.441V4.75977H212.041ZM212.041 3.67969L212.641 3.67971C212.641 2.82662 212.937 2.11242 213.545 1.50432L213.121 1.08008L212.696 0.655839C211.865 1.48758 211.441 2.5064 211.441 3.67966L212.041 3.67969ZM213.121 1.08008L213.545 1.50434C214.153 0.896301 214.868 0.6 215.721 0.6V0V-0.6C214.548 -0.6 213.528 -0.176146 212.696 0.655814L213.121 1.08008ZM134.223 3.04785V2.44785H131.703V3.04785V3.64785H134.223V3.04785ZM131.703 3.04785H132.303V0.200195H131.703H131.103V3.04785H131.703ZM131.703 0.200195V0.800195H134.223V0.200195V-0.399805H131.703V0.200195ZM134.223 0.200195H133.623V3.04785H134.223H134.823V0.200195H134.223ZM292.219 3.04785V2.44785H289.699V3.04785V3.64785H292.219V3.04785ZM289.699 3.04785H290.299V0.200195H289.699H289.099V3.04785H289.699ZM289.699 0.200195V0.800195H292.219V0.200195V-0.399805H289.699V0.200195ZM292.219 0.200195H291.619V3.04785H292.219H292.819V0.200195H292.219ZM297.079 3.04785V2.44785H294.559V3.04785V3.64785H297.079V3.04785ZM294.559 3.04785H295.159V0.200195H294.559H293.959V3.04785H294.559ZM294.559 0.200195V0.800195H297.079V0.200195V-0.399805H294.559V0.200195ZM297.079 0.200195H296.479V3.04785H297.079H297.679V0.200195H297.079Z" fill="url(#paint1_linear_7_421)" mask="url(#path-1-inside-1_7_421)"/>
<defs>
<radialGradient id="paint0_radial_7_421" cx="0" cy="0" r="1" gradientUnits="userSpaceOnUse" gradientTransform="translate(184.503 7.67658) rotate(90) scale(38.8047 187.943)">
<stop stop-color="#ECF7FF"/>
<stop offset="1" stop-color="#ECF7FF" stop-opacity="0"/>
</radialGradient>
<linearGradient id="paint1_linear_7_421" x1="184.503" y1="-6.45475" x2="184.503" y2="44.9505" gradientUnits="userSpaceOnUse">
<stop stop-color="#253596" stop-opacity="0"/>
<stop offset="0.456017" stop-color="#4A76D4"/>
<stop offset="1" stop-color="#76EAF1"/>
</linearGradient>
</defs>
</svg>
