<svg width="540" height="22" viewBox="0 0 540 22" fill="none" xmlns="http://www.w3.org/2000/svg">
<mask id="path-1-inside-1_7_233" fill="white">
<path d="M72.9805 4.80859H67.1289V9.31641C67.7635 8.99915 68.5009 8.83984 69.3408 8.83984C70.3486 8.83992 71.2068 9.19515 71.916 9.9043C72.6253 10.6136 72.9805 11.4725 72.9805 12.4805V17.2686C72.9804 18.5564 72.5133 19.6577 71.5801 20.5723C70.6655 21.4868 69.5642 21.9443 68.2764 21.9443C66.9885 21.9443 65.8873 21.4868 64.9727 20.5723C64.0581 19.6577 63.6007 18.5564 63.6006 17.2686V15.8682H67.1289V17.2686C67.129 17.5857 67.2409 17.8562 67.4648 18.0801C67.6888 18.304 67.9592 18.416 68.2764 18.416C68.6123 18.416 68.8922 18.304 69.1162 18.0801C69.3401 17.8562 69.4521 17.5857 69.4521 17.2686V13.3203C69.4521 12.9843 69.3402 12.7045 69.1162 12.4805C68.8922 12.2565 68.6124 12.1445 68.2764 12.1445C67.9591 12.1446 67.6888 12.2565 67.4648 12.4805C67.2408 12.7045 67.1289 12.9843 67.1289 13.3203H63.6006V1.28027H72.9805V4.80859ZM103.113 1C104.55 1.0001 105.773 1.50383 106.781 2.51172C107.789 3.51972 108.293 4.73368 108.293 6.15234V7.07617H104.765V6.15234C104.765 5.70434 104.606 5.32124 104.289 5.00391C103.972 4.68668 103.58 4.52842 103.113 4.52832C102.665 4.52832 102.282 4.68665 101.965 5.00391C101.648 5.32124 101.489 5.70434 101.489 6.15234V6.48828C101.489 7.32822 101.797 8.00959 102.413 8.53223L106.137 11.7246C107.574 12.9939 108.293 14.5708 108.293 16.4561V16.792C108.293 18.2107 107.789 19.4246 106.781 20.4326C105.773 21.4405 104.55 21.9442 103.113 21.9443C101.695 21.9443 100.481 21.4405 99.4727 20.4326C98.4647 19.4246 97.9609 18.2107 97.9609 16.792V15.8682H101.489V16.792C101.489 17.24 101.648 17.6231 101.965 17.9404C102.282 18.2577 102.665 18.416 103.113 18.416C103.58 18.4159 103.972 18.2576 104.289 17.9404C104.606 17.6231 104.765 17.24 104.765 16.792V16.4561C104.765 15.6161 104.457 14.9348 103.841 14.4121L100.117 11.2197C98.6799 9.95043 97.961 8.37355 97.9609 6.48828V6.15234C97.9609 4.73368 98.4647 3.51972 99.4727 2.51172C100.481 1.50379 101.695 1 103.113 1ZM165.579 1C167.016 1 168.239 1.50395 169.247 2.51172C170.255 3.51972 170.76 4.73368 170.76 6.15234V7.07617H167.231V6.15234C167.231 5.70434 167.072 5.32124 166.755 5.00391C166.438 4.6868 166.046 4.52832 165.579 4.52832C165.131 4.52837 164.749 4.68681 164.432 5.00391C164.114 5.32124 163.955 5.70434 163.955 6.15234V16.792C163.955 17.24 164.114 17.6231 164.432 17.9404C164.749 18.2575 165.131 18.416 165.579 18.416C166.046 18.416 166.438 18.2575 166.755 17.9404C167.072 17.6231 167.231 17.24 167.231 16.792V12.8721H165.188V9.34375H170.76V16.792C170.76 18.2107 170.255 19.4246 169.247 20.4326C168.239 21.4404 167.016 21.9443 165.579 21.9443C164.161 21.9443 162.947 21.4404 161.939 20.4326C160.931 19.4246 160.428 18.2107 160.428 16.792V6.15234C160.428 4.73368 160.931 3.51972 161.939 2.51172C162.947 1.50396 164.161 1.00005 165.579 1ZM207.184 1C208.621 1.0001 209.844 1.50383 210.852 2.51172C211.86 3.51972 212.363 4.73368 212.363 6.15234V7.07617H208.835V6.15234C208.835 5.70434 208.677 5.32124 208.359 5.00391C208.042 4.68668 207.65 4.52842 207.184 4.52832C206.736 4.52832 206.352 4.68665 206.035 5.00391C205.718 5.32124 205.56 5.70434 205.56 6.15234V6.48828C205.56 7.32822 205.867 8.00959 206.483 8.53223L210.207 11.7246C211.644 12.9939 212.363 14.5708 212.363 16.4561V16.792C212.363 18.2107 211.86 19.4246 210.852 20.4326C209.844 21.4405 208.621 21.9442 207.184 21.9443C205.765 21.9443 204.551 21.4405 203.543 20.4326C202.535 19.4246 202.031 18.2107 202.031 16.792V15.8682H205.56V16.792C205.56 17.24 205.718 17.6231 206.035 17.9404C206.352 18.2577 206.736 18.416 207.184 18.416C207.65 18.4159 208.042 18.2576 208.359 17.9404C208.677 17.6231 208.835 17.24 208.835 16.792V16.4561C208.835 15.6161 208.527 14.9348 207.911 14.4121L204.188 11.2197C202.75 9.95043 202.031 8.37355 202.031 6.48828V6.15234C202.031 4.73368 202.535 3.51972 203.543 2.51172C204.551 1.5038 205.765 1 207.184 1ZM242.623 1C244.06 1 245.283 1.50388 246.291 2.51172C247.299 3.51972 247.803 4.73368 247.803 6.15234V8.66406H244.275V6.15234C244.275 5.70434 244.116 5.32124 243.799 5.00391C243.482 4.68674 243.09 4.52832 242.623 4.52832C242.175 4.52833 241.792 4.68658 241.475 5.00391C241.157 5.32122 240.999 5.7044 240.999 6.15234V8.66406H237.535V9.66406H240.999V10.6641H237.535V11.6641H240.999V12.6641H237.535V13.6641H240.999V16.792C240.999 17.2399 241.157 17.6231 241.475 17.9404C241.792 18.2578 242.175 18.416 242.623 18.416C243.09 18.416 243.482 18.2576 243.799 17.9404C244.116 17.6231 244.275 17.24 244.275 16.792V13.6641H247.803V16.792C247.803 18.2107 247.299 19.4246 246.291 20.4326C245.283 21.4404 244.06 21.9443 242.623 21.9443C241.205 21.9443 239.991 21.4403 238.983 20.4326C237.975 19.4246 237.471 18.2107 237.471 16.792V6.15234C237.471 4.73368 237.975 3.51972 238.983 2.51172C239.991 1.50398 241.205 1.00001 242.623 1ZM486.633 1C488.07 1 489.293 1.50401 490.301 2.51172C491.309 3.51972 491.813 4.73368 491.813 6.15234V7.07617H488.285V6.15234C488.285 5.70437 488.127 5.32123 487.81 5.00391C487.492 4.68657 487.099 4.52832 486.633 4.52832C486.185 4.52842 485.803 4.68679 485.485 5.00391C485.168 5.32124 485.009 5.70434 485.009 6.15234V16.792C485.009 17.24 485.168 17.6231 485.485 17.9404C485.803 18.2575 486.185 18.4159 486.633 18.416C487.099 18.416 487.492 18.2578 487.81 17.9404C488.127 17.6231 488.285 17.24 488.285 16.792V12.8721H486.241V9.34375H491.813V16.792C491.813 18.2107 491.309 19.4246 490.301 20.4326C489.293 21.4403 488.07 21.9443 486.633 21.9443C485.214 21.9442 484.001 21.4404 482.993 20.4326C481.985 19.4246 481.481 18.2107 481.481 16.792V6.15234C481.481 4.73368 481.985 3.51972 482.993 2.51172C484.001 1.50394 485.214 1.0001 486.633 1ZM52.168 21.6641H48.6396V15.9521H52.168V21.6641ZM128.91 4.80859H125.41V21.6641H121.882V4.80859H118.382V1.28027H128.91V4.80859ZM150.254 21.6641H146.642L145.886 17.6318H142.47L141.714 21.6641H138.102L142.414 1.28027H145.941L150.254 21.6641ZM191.557 4.80859H185.816V9.34375H190.885V12.8721H185.816V18.1357H191.557V21.6641H182.288V1.28027H191.557V4.80859ZM268.601 4.80859H262.86V9.34375H267.929V12.8721H262.86V21.6641H259.332V1.28027H268.601V4.80859ZM302.501 4.80859H296.761V9.34375H301.829V12.8721H296.761V21.6641H293.233V1.28027H302.501V4.80859ZM316.651 21.6641H313.123V9.95215H316.651V21.6641ZM331.865 18.1357H336.653V21.6641H328.337V1.28027H331.865V18.1357ZM354.468 12.3965L358.164 1.28027H361.72V21.6641H358.191V10.5479L355.728 18.5H353.18L350.716 10.5479V21.6641H347.188V1.28027H350.744L354.468 12.3965ZM380.646 12.3965L384.343 1.28027H387.898V21.6641H384.371V10.5479L381.906 18.5H379.358L376.895 10.5479V21.6641H373.366V1.28027H376.923L380.646 12.3965ZM410.325 21.6641H406.714L405.958 17.6318H402.542L401.785 21.6641H398.174L402.485 1.28027H406.014L410.325 21.6641ZM424.14 9.87598L428.003 1.28027H431.923L427.779 9.65234L432.819 21.6641H428.983L425.819 13.6006L424.14 16.96V21.6641H420.611V1.28027H424.14V9.87598ZM446.682 21.6641H443.153V1.28027H446.682V21.6641ZM466.403 12.4238V1.28027H469.932V21.6641H466.403L461.896 10.5205V21.6641H458.367V1.28027H461.896L466.403 12.4238ZM52.168 14.9521H48.6396V13.9521H52.168V14.9521ZM143.113 14.1045H145.242L144.178 8.36426L143.113 14.1045ZM403.186 14.1045H405.313L404.25 8.36426L403.186 14.1045ZM52.168 12.9521H48.6396V11.9521H52.168V12.9521ZM247.803 12.6641H244.275V11.6641H247.803V12.6641ZM52.168 10.9521H48.6396V5.67578L45.9238 8.05566V3.66016L48.6396 1.28027H52.168V10.9521ZM247.803 10.6641H244.275V9.66406H247.803V10.6641ZM316.651 8.95215H313.123V7.95215H316.651V8.95215ZM316.651 6.95215H313.123V5.95215H316.651V6.95215ZM316.651 4.95215H313.123V1.28027H316.651V4.95215Z"/>
</mask>
<path d="M72.9805 4.80859H67.1289V9.31641C67.7635 8.99915 68.5009 8.83984 69.3408 8.83984C70.3486 8.83992 71.2068 9.19515 71.916 9.9043C72.6253 10.6136 72.9805 11.4725 72.9805 12.4805V17.2686C72.9804 18.5564 72.5133 19.6577 71.5801 20.5723C70.6655 21.4868 69.5642 21.9443 68.2764 21.9443C66.9885 21.9443 65.8873 21.4868 64.9727 20.5723C64.0581 19.6577 63.6007 18.5564 63.6006 17.2686V15.8682H67.1289V17.2686C67.129 17.5857 67.2409 17.8562 67.4648 18.0801C67.6888 18.304 67.9592 18.416 68.2764 18.416C68.6123 18.416 68.8922 18.304 69.1162 18.0801C69.3401 17.8562 69.4521 17.5857 69.4521 17.2686V13.3203C69.4521 12.9843 69.3402 12.7045 69.1162 12.4805C68.8922 12.2565 68.6124 12.1445 68.2764 12.1445C67.9591 12.1446 67.6888 12.2565 67.4648 12.4805C67.2408 12.7045 67.1289 12.9843 67.1289 13.3203H63.6006V1.28027H72.9805V4.80859ZM103.113 1C104.55 1.0001 105.773 1.50383 106.781 2.51172C107.789 3.51972 108.293 4.73368 108.293 6.15234V7.07617H104.765V6.15234C104.765 5.70434 104.606 5.32124 104.289 5.00391C103.972 4.68668 103.58 4.52842 103.113 4.52832C102.665 4.52832 102.282 4.68665 101.965 5.00391C101.648 5.32124 101.489 5.70434 101.489 6.15234V6.48828C101.489 7.32822 101.797 8.00959 102.413 8.53223L106.137 11.7246C107.574 12.9939 108.293 14.5708 108.293 16.4561V16.792C108.293 18.2107 107.789 19.4246 106.781 20.4326C105.773 21.4405 104.55 21.9442 103.113 21.9443C101.695 21.9443 100.481 21.4405 99.4727 20.4326C98.4647 19.4246 97.9609 18.2107 97.9609 16.792V15.8682H101.489V16.792C101.489 17.24 101.648 17.6231 101.965 17.9404C102.282 18.2577 102.665 18.416 103.113 18.416C103.58 18.4159 103.972 18.2576 104.289 17.9404C104.606 17.6231 104.765 17.24 104.765 16.792V16.4561C104.765 15.6161 104.457 14.9348 103.841 14.4121L100.117 11.2197C98.6799 9.95043 97.961 8.37355 97.9609 6.48828V6.15234C97.9609 4.73368 98.4647 3.51972 99.4727 2.51172C100.481 1.50379 101.695 1 103.113 1ZM165.579 1C167.016 1 168.239 1.50395 169.247 2.51172C170.255 3.51972 170.76 4.73368 170.76 6.15234V7.07617H167.231V6.15234C167.231 5.70434 167.072 5.32124 166.755 5.00391C166.438 4.6868 166.046 4.52832 165.579 4.52832C165.131 4.52837 164.749 4.68681 164.432 5.00391C164.114 5.32124 163.955 5.70434 163.955 6.15234V16.792C163.955 17.24 164.114 17.6231 164.432 17.9404C164.749 18.2575 165.131 18.416 165.579 18.416C166.046 18.416 166.438 18.2575 166.755 17.9404C167.072 17.6231 167.231 17.24 167.231 16.792V12.8721H165.188V9.34375H170.76V16.792C170.76 18.2107 170.255 19.4246 169.247 20.4326C168.239 21.4404 167.016 21.9443 165.579 21.9443C164.161 21.9443 162.947 21.4404 161.939 20.4326C160.931 19.4246 160.428 18.2107 160.428 16.792V6.15234C160.428 4.73368 160.931 3.51972 161.939 2.51172C162.947 1.50396 164.161 1.00005 165.579 1ZM207.184 1C208.621 1.0001 209.844 1.50383 210.852 2.51172C211.86 3.51972 212.363 4.73368 212.363 6.15234V7.07617H208.835V6.15234C208.835 5.70434 208.677 5.32124 208.359 5.00391C208.042 4.68668 207.65 4.52842 207.184 4.52832C206.736 4.52832 206.352 4.68665 206.035 5.00391C205.718 5.32124 205.56 5.70434 205.56 6.15234V6.48828C205.56 7.32822 205.867 8.00959 206.483 8.53223L210.207 11.7246C211.644 12.9939 212.363 14.5708 212.363 16.4561V16.792C212.363 18.2107 211.86 19.4246 210.852 20.4326C209.844 21.4405 208.621 21.9442 207.184 21.9443C205.765 21.9443 204.551 21.4405 203.543 20.4326C202.535 19.4246 202.031 18.2107 202.031 16.792V15.8682H205.56V16.792C205.56 17.24 205.718 17.6231 206.035 17.9404C206.352 18.2577 206.736 18.416 207.184 18.416C207.65 18.4159 208.042 18.2576 208.359 17.9404C208.677 17.6231 208.835 17.24 208.835 16.792V16.4561C208.835 15.6161 208.527 14.9348 207.911 14.4121L204.188 11.2197C202.75 9.95043 202.031 8.37355 202.031 6.48828V6.15234C202.031 4.73368 202.535 3.51972 203.543 2.51172C204.551 1.5038 205.765 1 207.184 1ZM242.623 1C244.06 1 245.283 1.50388 246.291 2.51172C247.299 3.51972 247.803 4.73368 247.803 6.15234V8.66406H244.275V6.15234C244.275 5.70434 244.116 5.32124 243.799 5.00391C243.482 4.68674 243.09 4.52832 242.623 4.52832C242.175 4.52833 241.792 4.68658 241.475 5.00391C241.157 5.32122 240.999 5.7044 240.999 6.15234V8.66406H237.535V9.66406H240.999V10.6641H237.535V11.6641H240.999V12.6641H237.535V13.6641H240.999V16.792C240.999 17.2399 241.157 17.6231 241.475 17.9404C241.792 18.2578 242.175 18.416 242.623 18.416C243.09 18.416 243.482 18.2576 243.799 17.9404C244.116 17.6231 244.275 17.24 244.275 16.792V13.6641H247.803V16.792C247.803 18.2107 247.299 19.4246 246.291 20.4326C245.283 21.4404 244.06 21.9443 242.623 21.9443C241.205 21.9443 239.991 21.4403 238.983 20.4326C237.975 19.4246 237.471 18.2107 237.471 16.792V6.15234C237.471 4.73368 237.975 3.51972 238.983 2.51172C239.991 1.50398 241.205 1.00001 242.623 1ZM486.633 1C488.07 1 489.293 1.50401 490.301 2.51172C491.309 3.51972 491.813 4.73368 491.813 6.15234V7.07617H488.285V6.15234C488.285 5.70437 488.127 5.32123 487.81 5.00391C487.492 4.68657 487.099 4.52832 486.633 4.52832C486.185 4.52842 485.803 4.68679 485.485 5.00391C485.168 5.32124 485.009 5.70434 485.009 6.15234V16.792C485.009 17.24 485.168 17.6231 485.485 17.9404C485.803 18.2575 486.185 18.4159 486.633 18.416C487.099 18.416 487.492 18.2578 487.81 17.9404C488.127 17.6231 488.285 17.24 488.285 16.792V12.8721H486.241V9.34375H491.813V16.792C491.813 18.2107 491.309 19.4246 490.301 20.4326C489.293 21.4403 488.07 21.9443 486.633 21.9443C485.214 21.9442 484.001 21.4404 482.993 20.4326C481.985 19.4246 481.481 18.2107 481.481 16.792V6.15234C481.481 4.73368 481.985 3.51972 482.993 2.51172C484.001 1.50394 485.214 1.0001 486.633 1ZM52.168 21.6641H48.6396V15.9521H52.168V21.6641ZM128.91 4.80859H125.41V21.6641H121.882V4.80859H118.382V1.28027H128.91V4.80859ZM150.254 21.6641H146.642L145.886 17.6318H142.47L141.714 21.6641H138.102L142.414 1.28027H145.941L150.254 21.6641ZM191.557 4.80859H185.816V9.34375H190.885V12.8721H185.816V18.1357H191.557V21.6641H182.288V1.28027H191.557V4.80859ZM268.601 4.80859H262.86V9.34375H267.929V12.8721H262.86V21.6641H259.332V1.28027H268.601V4.80859ZM302.501 4.80859H296.761V9.34375H301.829V12.8721H296.761V21.6641H293.233V1.28027H302.501V4.80859ZM316.651 21.6641H313.123V9.95215H316.651V21.6641ZM331.865 18.1357H336.653V21.6641H328.337V1.28027H331.865V18.1357ZM354.468 12.3965L358.164 1.28027H361.72V21.6641H358.191V10.5479L355.728 18.5H353.18L350.716 10.5479V21.6641H347.188V1.28027H350.744L354.468 12.3965ZM380.646 12.3965L384.343 1.28027H387.898V21.6641H384.371V10.5479L381.906 18.5H379.358L376.895 10.5479V21.6641H373.366V1.28027H376.923L380.646 12.3965ZM410.325 21.6641H406.714L405.958 17.6318H402.542L401.785 21.6641H398.174L402.485 1.28027H406.014L410.325 21.6641ZM424.14 9.87598L428.003 1.28027H431.923L427.779 9.65234L432.819 21.6641H428.983L425.819 13.6006L424.14 16.96V21.6641H420.611V1.28027H424.14V9.87598ZM446.682 21.6641H443.153V1.28027H446.682V21.6641ZM466.403 12.4238V1.28027H469.932V21.6641H466.403L461.896 10.5205V21.6641H458.367V1.28027H461.896L466.403 12.4238ZM52.168 14.9521H48.6396V13.9521H52.168V14.9521ZM143.113 14.1045H145.242L144.178 8.36426L143.113 14.1045ZM403.186 14.1045H405.313L404.25 8.36426L403.186 14.1045ZM52.168 12.9521H48.6396V11.9521H52.168V12.9521ZM247.803 12.6641H244.275V11.6641H247.803V12.6641ZM52.168 10.9521H48.6396V5.67578L45.9238 8.05566V3.66016L48.6396 1.28027H52.168V10.9521ZM247.803 10.6641H244.275V9.66406H247.803V10.6641ZM316.651 8.95215H313.123V7.95215H316.651V8.95215ZM316.651 6.95215H313.123V5.95215H316.651V6.95215ZM316.651 4.95215H313.123V1.28027H316.651V4.95215Z" fill="url(#paint0_radial_7_233)"/>
<path d="M72.9805 4.80859V5.40859H73.5805V4.80859H72.9805ZM67.1289 4.80859V4.20859H66.5289V4.80859H67.1289ZM67.1289 9.31641H66.5289V10.2872L67.3972 9.85308L67.1289 9.31641ZM69.3408 8.83984L69.3409 8.23984H69.3408V8.83984ZM71.916 9.9043L72.3403 9.48003L72.3403 9.48001L71.916 9.9043ZM72.9805 17.2686L73.5805 17.2686V17.2686H72.9805ZM71.5801 20.5723L71.1601 20.1437L71.1558 20.148L71.5801 20.5723ZM68.2764 21.9443L68.2764 22.5443H68.2764V21.9443ZM64.9727 20.5723L64.5484 20.9965L64.5484 20.9965L64.9727 20.5723ZM63.6006 17.2686H63.0006V17.2686L63.6006 17.2686ZM63.6006 15.8682V15.2682H63.0006V15.8682H63.6006ZM67.1289 15.8682H67.7289V15.2682H67.1289V15.8682ZM67.1289 17.2686H66.5289V17.2687L67.1289 17.2686ZM67.4648 18.0801L67.0406 18.5043L67.0406 18.5044L67.4648 18.0801ZM68.2764 18.416L68.2763 19.016H68.2764V18.416ZM69.1162 18.0801L69.5404 18.5044L69.5405 18.5043L69.1162 18.0801ZM69.4521 17.2686L70.0521 17.2687V17.2686H69.4521ZM69.1162 12.4805L69.5405 12.0562L69.5405 12.0562L69.1162 12.4805ZM68.2764 12.1445V11.5445H68.2763L68.2764 12.1445ZM67.4648 12.4805L67.0406 12.0562L67.0406 12.0562L67.4648 12.4805ZM67.1289 13.3203V13.9203H67.7289V13.3203H67.1289ZM63.6006 13.3203H63.0006V13.9203H63.6006V13.3203ZM63.6006 1.28027V0.680273H63.0006V1.28027H63.6006ZM72.9805 1.28027H73.5805V0.680273H72.9805V1.28027ZM103.113 1L103.113 0.4H103.113V1ZM106.781 2.51172L107.206 2.08745V2.08745L106.781 2.51172ZM108.293 7.07617V7.67617H108.893V7.07617H108.293ZM104.765 7.07617H104.165V7.67617H104.765V7.07617ZM104.289 5.00391L104.713 4.57964L104.713 4.57964L104.289 5.00391ZM103.113 4.52832L103.113 3.92832H103.113V4.52832ZM101.965 5.00391L101.541 4.57961L101.541 4.57964L101.965 5.00391ZM101.489 6.48828H100.889V6.4883L101.489 6.48828ZM102.413 8.53223L102.804 8.07671L102.801 8.07472L102.413 8.53223ZM106.137 11.7246L106.534 11.2748L106.527 11.2691L106.137 11.7246ZM108.293 16.4561H108.893V16.456L108.293 16.4561ZM106.781 20.4326L107.206 20.8569L107.206 20.8569L106.781 20.4326ZM103.113 21.9443V22.5443H103.113L103.113 21.9443ZM99.4727 20.4326L99.0484 20.8569L99.0484 20.8569L99.4727 20.4326ZM97.9609 15.8682V15.2682H97.3609V15.8682H97.9609ZM101.489 15.8682H102.089V15.2682H101.489V15.8682ZM101.965 17.9404L101.541 18.3647L101.541 18.3647L101.965 17.9404ZM103.113 18.416V19.016H103.113L103.113 18.416ZM104.289 17.9404L104.713 18.3647L104.713 18.3647L104.289 17.9404ZM104.765 16.4561H105.365V16.456L104.765 16.4561ZM103.841 14.4121L103.45 14.8676L103.453 14.8696L103.841 14.4121ZM100.117 11.2197L99.72 11.6695L99.7267 11.6752L100.117 11.2197ZM97.9609 6.48828H97.3609V6.48829L97.9609 6.48828ZM99.4727 2.51172L99.0484 2.08744L99.0484 2.08745L99.4727 2.51172ZM165.579 1V0.4H165.579L165.579 1ZM169.247 2.51172L169.671 2.08745L169.671 2.08742L169.247 2.51172ZM170.76 7.07617V7.67617H171.36V7.07617H170.76ZM167.231 7.07617H166.631V7.67617H167.231V7.07617ZM166.755 5.00391L167.179 4.57964L167.179 4.57953L166.755 5.00391ZM165.579 4.52832V3.92832L165.579 3.92832L165.579 4.52832ZM164.432 5.00391L164.007 4.57956L164.007 4.57964L164.432 5.00391ZM164.432 17.9404L164.007 18.3647L164.007 18.3648L164.432 17.9404ZM165.579 18.416L165.579 19.016H165.579V18.416ZM166.755 17.9404L167.179 18.3648L167.179 18.3647L166.755 17.9404ZM167.231 12.8721H167.831V12.2721H167.231V12.8721ZM165.188 12.8721H164.588V13.4721H165.188V12.8721ZM165.188 9.34375V8.74375H164.588V9.34375H165.188ZM170.76 9.34375H171.36V8.74375H170.76V9.34375ZM169.247 20.4326L169.671 20.8569L169.671 20.8569L169.247 20.4326ZM165.579 21.9443L165.579 22.5443H165.579V21.9443ZM161.939 20.4326L161.515 20.8569L161.515 20.8569L161.939 20.4326ZM161.939 2.51172L161.515 2.08743L161.515 2.08745L161.939 2.51172ZM207.184 1L207.184 0.4H207.184V1ZM210.852 2.51172L211.276 2.08745L211.276 2.08745L210.852 2.51172ZM212.363 7.07617V7.67617H212.963V7.07617H212.363ZM208.835 7.07617H208.235V7.67617H208.835V7.07617ZM208.359 5.00391L208.784 4.57964L208.784 4.57964L208.359 5.00391ZM207.184 4.52832L207.184 3.92832H207.184V4.52832ZM206.035 5.00391L205.611 4.57961L205.611 4.57964L206.035 5.00391ZM205.56 6.48828H204.96V6.4883L205.56 6.48828ZM206.483 8.53223L206.874 8.07671L206.872 8.07472L206.483 8.53223ZM210.207 11.7246L210.604 11.2748L210.598 11.2691L210.207 11.7246ZM212.363 16.4561H212.963V16.456L212.363 16.4561ZM210.852 20.4326L211.276 20.8569L211.276 20.8569L210.852 20.4326ZM207.184 21.9443V22.5443H207.184L207.184 21.9443ZM203.543 20.4326L203.119 20.8569L203.119 20.8569L203.543 20.4326ZM202.031 15.8682V15.2682H201.431V15.8682H202.031ZM205.56 15.8682H206.16V15.2682H205.56V15.8682ZM206.035 17.9404L205.611 18.3647L205.611 18.3647L206.035 17.9404ZM207.184 18.416V19.016H207.184L207.184 18.416ZM208.359 17.9404L208.784 18.3647L208.784 18.3647L208.359 17.9404ZM208.835 16.4561H209.435V16.456L208.835 16.4561ZM207.911 14.4121L207.521 14.8676L207.523 14.8696L207.911 14.4121ZM204.188 11.2197L203.79 11.6695L203.797 11.6752L204.188 11.2197ZM202.031 6.48828H201.431V6.48829L202.031 6.48828ZM203.543 2.51172L203.119 2.08744L203.119 2.08745L203.543 2.51172ZM242.623 1V0.4V1ZM246.291 2.51172L246.715 2.08745L246.715 2.08743L246.291 2.51172ZM247.803 8.66406V9.26406H248.403V8.66406H247.803ZM244.275 8.66406H243.675V9.26406H244.275V8.66406ZM243.799 5.00391L244.223 4.57964L244.223 4.57956L243.799 5.00391ZM242.623 4.52832V3.92832L242.623 3.92832L242.623 4.52832ZM241.475 5.00391L241.05 4.57964L241.05 4.57968L241.475 5.00391ZM240.999 8.66406V9.26406H241.599V8.66406H240.999ZM237.535 8.66406V8.06406H236.935V8.66406H237.535ZM237.535 9.66406H236.935V10.2641H237.535V9.66406ZM240.999 9.66406H241.599V9.06406H240.999V9.66406ZM240.999 10.6641V11.2641H241.599V10.6641H240.999ZM237.535 10.6641V10.0641H236.935V10.6641H237.535ZM237.535 11.6641H236.935V12.2641H237.535V11.6641ZM240.999 11.6641H241.599V11.0641H240.999V11.6641ZM240.999 12.6641V13.2641H241.599V12.6641H240.999ZM237.535 12.6641V12.0641H236.935V12.6641H237.535ZM237.535 13.6641H236.935V14.2641H237.535V13.6641ZM240.999 13.6641H241.599V13.0641H240.999V13.6641ZM241.475 17.9404L241.05 18.3647L241.05 18.3647L241.475 17.9404ZM242.623 18.416L242.623 19.016H242.623V18.416ZM243.799 17.9404L244.223 18.3648L244.223 18.3647L243.799 17.9404ZM244.275 13.6641V13.0641H243.675V13.6641H244.275ZM247.803 13.6641H248.403V13.0641H247.803V13.6641ZM246.291 20.4326L246.715 20.8569L246.715 20.8569L246.291 20.4326ZM242.623 21.9443V22.5443V21.9443ZM238.983 20.4326L238.559 20.8569L238.559 20.8569L238.983 20.4326ZM238.983 2.51172L238.559 2.08742L238.559 2.08745L238.983 2.51172ZM486.633 1V0.4H486.633L486.633 1ZM490.301 2.51172L490.725 2.08745L490.725 2.08741L490.301 2.51172ZM491.813 7.07617V7.67617H492.413V7.07617H491.813ZM488.285 7.07617H487.685V7.67617H488.285V7.07617ZM487.81 5.00391L488.234 4.57966L488.234 4.57964L487.81 5.00391ZM486.633 4.52832V3.92832L486.633 3.92832L486.633 4.52832ZM485.485 5.00391L485.061 4.57958L485.061 4.57964L485.485 5.00391ZM485.485 17.9404L485.061 18.3647L485.061 18.3648L485.485 17.9404ZM486.633 18.416L486.633 19.016H486.633V18.416ZM487.81 17.9404L488.234 18.3647L488.234 18.3647L487.81 17.9404ZM488.285 12.8721H488.885V12.2721H488.285V12.8721ZM486.241 12.8721H485.641V13.4721H486.241V12.8721ZM486.241 9.34375V8.74375H485.641V9.34375H486.241ZM491.813 9.34375H492.413V8.74375H491.813V9.34375ZM490.301 20.4326L490.725 20.8569L490.725 20.8569L490.301 20.4326ZM486.633 21.9443L486.633 22.5443H486.633V21.9443ZM482.993 20.4326L482.569 20.8569V20.8569L482.993 20.4326ZM482.993 2.51172L482.569 2.08744V2.08745L482.993 2.51172ZM52.168 21.6641V22.2641H52.768V21.6641H52.168ZM48.6396 21.6641H48.0396V22.2641H48.6396V21.6641ZM48.6396 15.9521V15.3521H48.0396V15.9521H48.6396ZM52.168 15.9521H52.768V15.3521H52.168V15.9521ZM128.91 4.80859V5.40859H129.51V4.80859H128.91ZM125.41 4.80859V4.20859H124.81V4.80859H125.41ZM125.41 21.6641V22.2641H126.01V21.6641H125.41ZM121.882 21.6641H121.282V22.2641H121.882V21.6641ZM121.882 4.80859H122.482V4.20859H121.882V4.80859ZM118.382 4.80859H117.782V5.40859H118.382V4.80859ZM118.382 1.28027V0.680273H117.782V1.28027H118.382ZM128.91 1.28027H129.51V0.680273H128.91V1.28027ZM150.254 21.6641V22.2641H150.994L150.841 21.5399L150.254 21.6641ZM146.642 21.6641L146.052 21.7746L146.144 22.2641H146.642V21.6641ZM145.886 17.6318L146.475 17.5213L146.384 17.0318H145.886V17.6318ZM142.47 17.6318V17.0318H141.972L141.88 17.5213L142.47 17.6318ZM141.714 21.6641V22.2641H142.212L142.304 21.7746L141.714 21.6641ZM138.102 21.6641L137.515 21.5399L137.361 22.2641H138.102V21.6641ZM142.414 1.28027V0.680273H141.928L141.827 1.15608L142.414 1.28027ZM145.941 1.28027L146.528 1.15608L146.428 0.680273H145.941V1.28027ZM191.557 4.80859V5.40859H192.157V4.80859H191.557ZM185.816 4.80859V4.20859H185.216V4.80859H185.816ZM185.816 9.34375H185.216V9.94375H185.816V9.34375ZM190.885 9.34375H191.485V8.74375H190.885V9.34375ZM190.885 12.8721V13.4721H191.485V12.8721H190.885ZM185.816 12.8721V12.2721H185.216V12.8721H185.816ZM185.816 18.1357H185.216V18.7357H185.816V18.1357ZM191.557 18.1357H192.157V17.5357H191.557V18.1357ZM191.557 21.6641V22.2641H192.157V21.6641H191.557ZM182.288 21.6641H181.688V22.2641H182.288V21.6641ZM182.288 1.28027V0.680273H181.688V1.28027H182.288ZM191.557 1.28027H192.157V0.680273H191.557V1.28027ZM268.601 4.80859V5.40859H269.201V4.80859H268.601ZM262.86 4.80859V4.20859H262.26V4.80859H262.86ZM262.86 9.34375H262.26V9.94375H262.86V9.34375ZM267.929 9.34375H268.529V8.74375H267.929V9.34375ZM267.929 12.8721V13.4721H268.529V12.8721H267.929ZM262.86 12.8721V12.2721H262.26V12.8721H262.86ZM262.86 21.6641V22.2641H263.46V21.6641H262.86ZM259.332 21.6641H258.732V22.2641H259.332V21.6641ZM259.332 1.28027V0.680273H258.732V1.28027H259.332ZM268.601 1.28027H269.201V0.680273H268.601V1.28027ZM302.501 4.80859V5.40859H303.101V4.80859H302.501ZM296.761 4.80859V4.20859H296.161V4.80859H296.761ZM296.761 9.34375H296.161V9.94375H296.761V9.34375ZM301.829 9.34375H302.429V8.74375H301.829V9.34375ZM301.829 12.8721V13.4721H302.429V12.8721H301.829ZM296.761 12.8721V12.2721H296.161V12.8721H296.761ZM296.761 21.6641V22.2641H297.361V21.6641H296.761ZM293.233 21.6641H292.633V22.2641H293.233V21.6641ZM293.233 1.28027V0.680273H292.633V1.28027H293.233ZM302.501 1.28027H303.101V0.680273H302.501V1.28027ZM316.651 21.6641V22.2641H317.251V21.6641H316.651ZM313.123 21.6641H312.523V22.2641H313.123V21.6641ZM313.123 9.95215V9.35215H312.523V9.95215H313.123ZM316.651 9.95215H317.251V9.35215H316.651V9.95215ZM331.865 18.1357H331.265V18.7357H331.865V18.1357ZM336.653 18.1357H337.253V17.5357H336.653V18.1357ZM336.653 21.6641V22.2641H337.253V21.6641H336.653ZM328.337 21.6641H327.737V22.2641H328.337V21.6641ZM328.337 1.28027V0.680273H327.737V1.28027H328.337ZM331.865 1.28027H332.465V0.680273H331.865V1.28027ZM354.468 12.3965L353.899 12.5871L354.47 14.2918L355.037 12.5858L354.468 12.3965ZM358.164 1.28027V0.680273H357.731L357.595 1.09096L358.164 1.28027ZM361.72 1.28027H362.32V0.680273H361.72V1.28027ZM361.72 21.6641V22.2641H362.32V21.6641H361.72ZM358.191 21.6641H357.591V22.2641H358.191V21.6641ZM358.191 10.5479H358.791L357.618 10.3703L358.191 10.5479ZM355.728 18.5V19.1H356.17L356.301 18.6776L355.728 18.5ZM353.18 18.5L352.607 18.6776L352.737 19.1H353.18V18.5ZM350.716 10.5479L351.289 10.3703L350.116 10.5479H350.716ZM350.716 21.6641V22.2641H351.316V21.6641H350.716ZM347.188 21.6641H346.587V22.2641H347.188V21.6641ZM347.188 1.28027V0.680273H346.587V1.28027H347.188ZM350.744 1.28027L351.313 1.0897L351.176 0.680273H350.744V1.28027ZM380.646 12.3965L380.078 12.5871L380.649 14.2918L381.216 12.5858L380.646 12.3965ZM384.343 1.28027V0.680273H383.91L383.773 1.09096L384.343 1.28027ZM387.898 1.28027H388.498V0.680273H387.898V1.28027ZM387.898 21.6641V22.2641H388.498V21.6641H387.898ZM384.371 21.6641H383.771V22.2641H384.371V21.6641ZM384.371 10.5479H384.971L383.798 10.3702L384.371 10.5479ZM381.906 18.5V19.1H382.348L382.479 18.6776L381.906 18.5ZM379.358 18.5L378.785 18.6776L378.916 19.1H379.358V18.5ZM376.895 10.5479L377.468 10.3703L376.295 10.5479H376.895ZM376.895 21.6641V22.2641H377.495V21.6641H376.895ZM373.366 21.6641H372.766V22.2641H373.366V21.6641ZM373.366 1.28027V0.680273H372.766V1.28027H373.366ZM376.923 1.28027L377.492 1.0897L377.355 0.680273H376.923V1.28027ZM410.325 21.6641V22.2641H411.065L410.912 21.5399L410.325 21.6641ZM406.714 21.6641L406.124 21.7746L406.216 22.2641H406.714V21.6641ZM405.958 17.6318L406.548 17.5213L406.456 17.0318H405.958V17.6318ZM402.542 17.6318V17.0318H402.044L401.952 17.5212L402.542 17.6318ZM401.785 21.6641V22.2641H402.283L402.375 21.7747L401.785 21.6641ZM398.174 21.6641L397.587 21.5399L397.434 22.2641H398.174V21.6641ZM402.485 1.28027V0.680273H401.999L401.898 1.15611L402.485 1.28027ZM406.014 1.28027L406.601 1.15611L406.5 0.680273H406.014V1.28027ZM424.14 9.87598H423.54L424.687 10.1219L424.14 9.87598ZM428.003 1.28027V0.680273H427.615L427.456 1.03431L428.003 1.28027ZM431.923 1.28027L432.461 1.54642L432.889 0.680273H431.923V1.28027ZM427.779 9.65234L427.242 9.3862L427.12 9.6318L427.226 9.88449L427.779 9.65234ZM432.819 21.6641V22.2641H433.722L433.373 21.4319L432.819 21.6641ZM428.983 21.6641L428.425 21.8832L428.574 22.2641H428.983V21.6641ZM425.819 13.6006L426.378 13.3814L425.885 12.1266L425.283 13.3323L425.819 13.6006ZM424.14 16.96L423.603 16.6916L423.54 16.8183V16.96H424.14ZM424.14 21.6641V22.2641H424.74V21.6641H424.14ZM420.611 21.6641H420.011V22.2641H420.611V21.6641ZM420.611 1.28027V0.680273H420.011V1.28027H420.611ZM424.14 1.28027H424.74V0.680273H424.14V1.28027ZM446.682 21.6641V22.2641H447.282V21.6641H446.682ZM443.153 21.6641H442.553V22.2641H443.153V21.6641ZM443.153 1.28027V0.680273H442.553V1.28027H443.153ZM446.682 1.28027H447.282V0.680273H446.682V1.28027ZM466.403 12.4238L465.847 12.6488L467.003 12.4238H466.403ZM466.403 1.28027V0.680273H465.803V1.28027H466.403ZM469.932 1.28027H470.532V0.680273H469.932V1.28027ZM469.932 21.6641V22.2641H470.532V21.6641H469.932ZM466.403 21.6641L465.847 21.8891L465.999 22.2641H466.403V21.6641ZM461.896 10.5205L462.452 10.2955L461.296 10.5205H461.896ZM461.896 21.6641V22.2641H462.496V21.6641H461.896ZM458.367 21.6641H457.767V22.2641H458.367V21.6641ZM458.367 1.28027V0.680273H457.767V1.28027H458.367ZM461.896 1.28027L462.452 1.05527L462.3 0.680273H461.896V1.28027ZM52.168 14.9521V15.5521H52.768V14.9521H52.168ZM48.6396 14.9521H48.0396V15.5521H48.6396V14.9521ZM48.6396 13.9521V13.3521H48.0396V13.9521H48.6396ZM52.168 13.9521H52.768V13.3521H52.168V13.9521ZM143.113 14.1045L142.523 13.9951L142.392 14.7045H143.113V14.1045ZM145.242 14.1045V14.7045H145.964L145.832 13.9951L145.242 14.1045ZM144.178 8.36426L144.768 8.25486H143.588L144.178 8.36426ZM403.186 14.1045L402.596 13.9951L402.464 14.7045H403.186V14.1045ZM405.313 14.1045V14.7045H406.035L405.903 13.9952L405.313 14.1045ZM404.25 8.36426L404.84 8.25496L403.66 8.25486L404.25 8.36426ZM52.168 12.9521V13.5521H52.768V12.9521H52.168ZM48.6396 12.9521H48.0396V13.5521H48.6396V12.9521ZM48.6396 11.9521V11.3521H48.0396V11.9521H48.6396ZM52.168 11.9521H52.768V11.3521H52.168V11.9521ZM247.803 12.6641V13.2641H248.403V12.6641H247.803ZM244.275 12.6641H243.675V13.2641H244.275V12.6641ZM244.275 11.6641V11.0641H243.675V11.6641H244.275ZM247.803 11.6641H248.403V11.0641H247.803V11.6641ZM52.168 10.9521V11.5521H52.768V10.9521H52.168ZM48.6396 10.9521H48.0396V11.5521H48.6396V10.9521ZM48.6396 5.67578H49.2396V4.35222L48.2442 5.22453L48.6396 5.67578ZM45.9238 8.05566H45.3238V9.37922L46.3193 8.50692L45.9238 8.05566ZM45.9238 3.66016L45.5284 3.2089L45.3238 3.38816V3.66016H45.9238ZM48.6396 1.28027V0.680273H48.414L48.2442 0.829019L48.6396 1.28027ZM52.168 1.28027H52.768V0.680273H52.168V1.28027ZM247.803 10.6641V11.2641H248.403V10.6641H247.803ZM244.275 10.6641H243.675V11.2641H244.275V10.6641ZM244.275 9.66406V9.06406H243.675V9.66406H244.275ZM247.803 9.66406H248.403V9.06406H247.803V9.66406ZM316.651 8.95215V9.55215H317.251V8.95215H316.651ZM313.123 8.95215H312.523V9.55215H313.123V8.95215ZM313.123 7.95215V7.35215H312.523V7.95215H313.123ZM316.651 7.95215H317.251V7.35215H316.651V7.95215ZM316.651 6.95215V7.55215H317.251V6.95215H316.651ZM313.123 6.95215H312.523V7.55215H313.123V6.95215ZM313.123 5.95215V5.35215H312.523V5.95215H313.123ZM316.651 5.95215H317.251V5.35215H316.651V5.95215ZM316.651 4.95215V5.55215H317.251V4.95215H316.651ZM313.123 4.95215H312.523V5.55215H313.123V4.95215ZM313.123 1.28027V0.680273H312.523V1.28027H313.123ZM316.651 1.28027H317.251V0.680273H316.651V1.28027ZM72.9805 4.80859V4.20859H67.1289V4.80859V5.40859H72.9805V4.80859ZM67.1289 4.80859H66.5289V9.31641H67.1289H67.7289V4.80859H67.1289ZM67.1289 9.31641L67.3972 9.85308C67.9348 9.58432 68.5774 9.43984 69.3408 9.43984V8.83984V8.23984C68.4244 8.23984 67.5922 8.41398 66.8606 8.77973L67.1289 9.31641ZM69.3408 8.83984L69.3408 9.43984C70.19 9.43991 70.8954 9.73232 71.4918 10.3286L71.916 9.9043L72.3403 9.48001C71.5181 8.65798 70.5072 8.23994 69.3409 8.23984L69.3408 8.83984ZM71.916 9.9043L71.4918 10.3286C72.0881 10.9249 72.3805 11.6309 72.3805 12.4805H72.9805H73.5805C73.5805 11.314 73.1626 10.3024 72.3403 9.48003L71.916 9.9043ZM72.9805 12.4805H72.3805V17.2686H72.9805H73.5805V12.4805H72.9805ZM72.9805 17.2686L72.3805 17.2685C72.3804 18.3924 71.9802 19.3401 71.1601 20.1437L71.5801 20.5723L72 21.0008C73.0464 19.9753 73.5804 18.7204 73.5805 17.2686L72.9805 17.2686ZM71.5801 20.5723L71.1558 20.148C70.3531 20.9506 69.4043 21.3443 68.2764 21.3443V21.9443V22.5443C69.7242 22.5443 70.9778 22.0229 72.0043 20.9966L71.5801 20.5723ZM68.2764 21.9443L68.2764 21.3443C67.1485 21.3443 66.1996 20.9506 65.3969 20.148L64.9727 20.5723L64.5484 20.9965C65.5749 22.023 66.8285 22.5443 68.2764 22.5443L68.2764 21.9443ZM64.9727 20.5723L65.3969 20.148C64.5943 19.3454 64.2007 18.3964 64.2006 17.2685L63.6006 17.2686L63.0006 17.2686C63.0007 18.7163 63.5219 19.97 64.5484 20.9965L64.9727 20.5723ZM63.6006 17.2686H64.2006V15.8682H63.6006H63.0006V17.2686H63.6006ZM63.6006 15.8682V16.4682H67.1289V15.8682V15.2682H63.6006V15.8682ZM67.1289 15.8682H66.5289V17.2686H67.1289H67.7289V15.8682H67.1289ZM67.1289 17.2686L66.5289 17.2687C66.529 17.7446 66.704 18.1677 67.0406 18.5043L67.4648 18.0801L67.8891 17.6558C67.7779 17.5446 67.729 17.4268 67.7289 17.2684L67.1289 17.2686ZM67.4648 18.0801L67.0406 18.5044C67.3771 18.8408 67.8001 19.016 68.2763 19.016L68.2764 18.416L68.2764 17.816C68.1182 17.816 68.0004 17.7671 67.889 17.6557L67.4648 18.0801ZM68.2764 18.416V19.016C68.7608 19.016 69.1966 18.8481 69.5404 18.5044L69.1162 18.0801L68.692 17.6558C68.5878 17.7599 68.4638 17.816 68.2764 17.816V18.416ZM69.1162 18.0801L69.5405 18.5043C69.8771 18.1677 70.052 17.7446 70.0521 17.2687L69.4521 17.2686L68.8521 17.2684C68.8521 17.4268 68.8031 17.5446 68.6919 17.6558L69.1162 18.0801ZM69.4521 17.2686H70.0521V13.3203H69.4521H68.8521V17.2686H69.4521ZM69.4521 13.3203H70.0521C70.0521 12.8359 69.8843 12.4001 69.5405 12.0562L69.1162 12.4805L68.6919 12.9047C68.7961 13.0089 68.8521 13.1328 68.8521 13.3203H69.4521ZM69.1162 12.4805L69.5405 12.0562C69.1966 11.7123 68.7608 11.5445 68.2764 11.5445V12.1445V12.7445C68.464 12.7445 68.5878 12.8006 68.6919 12.9047L69.1162 12.4805ZM68.2764 12.1445L68.2763 11.5445C67.8001 11.5446 67.3772 11.7196 67.0406 12.0562L67.4648 12.4805L67.8891 12.9047C68.0004 12.7934 68.1181 12.7445 68.2764 12.7445L68.2764 12.1445ZM67.4648 12.4805L67.0406 12.0562C66.6967 12.4001 66.5289 12.8359 66.5289 13.3203H67.1289H67.7289C67.7289 13.1327 67.785 13.0089 67.8891 12.9047L67.4648 12.4805ZM67.1289 13.3203V12.7203H63.6006V13.3203V13.9203H67.1289V13.3203ZM63.6006 13.3203H64.2006V1.28027H63.6006H63.0006V13.3203H63.6006ZM63.6006 1.28027V1.88027H72.9805V1.28027V0.680273H63.6006V1.28027ZM72.9805 1.28027H72.3805V4.80859H72.9805H73.5805V1.28027H72.9805ZM103.113 1L103.113 1.6C104.393 1.60009 105.463 2.04174 106.357 2.93598L106.781 2.51172L107.206 2.08745C106.084 0.965922 104.708 0.400109 103.113 0.4L103.113 1ZM106.781 2.51172L106.357 2.93598C107.253 3.83196 107.693 4.89351 107.693 6.15234H108.293H108.893C108.893 4.57385 108.326 3.20748 107.206 2.08745L106.781 2.51172ZM108.293 6.15234H107.693V7.07617H108.293H108.893V6.15234H108.293ZM108.293 7.07617V6.47617H104.765V7.07617V7.67617H108.293V7.07617ZM104.765 7.07617H105.365V6.15234H104.765H104.165V7.07617H104.765ZM104.765 6.15234H105.365C105.365 5.54548 105.143 5.00968 104.713 4.57964L104.289 5.00391L103.865 5.42817C104.069 5.6328 104.165 5.86321 104.165 6.15234H104.765ZM104.289 5.00391L104.713 4.57964C104.278 4.14471 103.731 3.92845 103.113 3.92832L103.113 4.52832L103.113 5.12832C103.428 5.12839 103.665 5.22865 103.865 5.42818L104.289 5.00391ZM103.113 4.52832V3.92832C102.506 3.92832 101.971 4.1497 101.541 4.57961L101.965 5.00391L102.389 5.42821C102.594 5.22359 102.824 5.12832 103.113 5.12832V4.52832ZM101.965 5.00391L101.541 4.57964C101.111 5.00968 100.889 5.54548 100.889 6.15234H101.489H102.089C102.089 5.86321 102.184 5.6328 102.389 5.42817L101.965 5.00391ZM101.489 6.15234H100.889V6.48828H101.489H102.089V6.15234H101.489ZM101.489 6.48828L100.889 6.4883C100.889 7.49629 101.268 8.34793 102.025 8.98973L102.413 8.53223L102.801 8.07472C102.326 7.67125 102.089 7.16015 102.089 6.48826L101.489 6.48828ZM102.413 8.53223L102.023 8.98774L105.746 12.1801L106.137 11.7246L106.527 11.2691L102.804 8.07671L102.413 8.53223ZM106.137 11.7246L105.74 12.1743C107.05 13.332 107.693 14.7464 107.693 16.4561L108.293 16.4561L108.893 16.456C108.893 14.3953 108.097 12.6558 106.534 11.2749L106.137 11.7246ZM108.293 16.4561H107.693V16.792H108.293H108.893V16.4561H108.293ZM108.293 16.792H107.693C107.693 18.0508 107.253 19.1124 106.357 20.0084L106.781 20.4326L107.206 20.8569C108.326 19.7369 108.893 18.3705 108.893 16.792H108.293ZM106.781 20.4326L106.357 20.0083C105.463 20.9026 104.393 21.3442 103.113 21.3443L103.113 21.9443L103.113 22.5443C104.708 22.5442 106.084 21.9784 107.206 20.8569L106.781 20.4326ZM103.113 21.9443V21.3443C101.855 21.3443 100.793 20.9042 99.8969 20.0083L99.4727 20.4326L99.0484 20.8569C100.168 21.9768 101.535 22.5443 103.113 22.5443V21.9443ZM99.4727 20.4326L99.8969 20.0084C99.0009 19.1124 98.5609 18.0508 98.5609 16.792H97.9609H97.3609C97.3609 18.3705 97.9284 19.7369 99.0484 20.8569L99.4727 20.4326ZM97.9609 16.792H98.5609V15.8682H97.9609H97.3609V16.792H97.9609ZM97.9609 15.8682V16.4682H101.489V15.8682V15.2682H97.9609V15.8682ZM101.489 15.8682H100.889V16.792H101.489H102.089V15.8682H101.489ZM101.489 16.792H100.889C100.889 17.3989 101.111 17.9347 101.541 18.3647L101.965 17.9404L102.389 17.5162C102.184 17.3115 102.089 17.0811 102.089 16.792H101.489ZM101.965 17.9404L101.541 18.3647C101.971 18.7946 102.506 19.016 103.113 19.016V18.416V17.816C102.824 17.816 102.594 17.7207 102.389 17.5161L101.965 17.9404ZM103.113 18.416L103.113 19.016C103.731 19.0159 104.278 18.7996 104.713 18.3647L104.289 17.9404L103.865 17.5162C103.665 17.7157 103.428 17.816 103.113 17.816L103.113 18.416ZM104.289 17.9404L104.713 18.3647C105.143 17.9347 105.365 17.3989 105.365 16.792H104.765H104.165C104.165 17.0811 104.069 17.3115 103.865 17.5162L104.289 17.9404ZM104.765 16.792H105.365V16.4561H104.765H104.165V16.792H104.765ZM104.765 16.4561L105.365 16.456C105.365 15.448 104.985 14.5964 104.229 13.9546L103.841 14.4121L103.453 14.8696C103.928 15.2731 104.165 15.7842 104.165 16.4561L104.765 16.4561ZM103.841 14.4121L104.231 13.9566L100.508 10.7642L100.117 11.2197L99.7267 11.6752L103.45 14.8676L103.841 14.4121ZM100.117 11.2197L100.514 10.77C99.2034 9.61229 98.561 8.19803 98.5609 6.48827L97.9609 6.48828L97.3609 6.48829C97.361 8.54906 98.1564 10.2886 99.72 11.6695L100.117 11.2197ZM97.9609 6.48828H98.5609V6.15234H97.9609H97.3609V6.48828H97.9609ZM97.9609 6.15234H98.5609C98.5609 4.89351 99.0009 3.83196 99.8969 2.93598L99.4727 2.51172L99.0484 2.08745C97.9284 3.20748 97.3609 4.57385 97.3609 6.15234H97.9609ZM99.4727 2.51172L99.8969 2.93599C100.793 2.04008 101.855 1.6 103.113 1.6V1V0.4C101.535 0.4 100.168 0.967513 99.0484 2.08744L99.4727 2.51172ZM165.579 1V1.6C166.859 1.6 167.928 2.04181 168.823 2.93602L169.247 2.51172L169.671 2.08742C168.55 0.966087 167.174 0.4 165.579 0.4V1ZM169.247 2.51172L168.823 2.93598C169.719 3.83217 170.16 4.8938 170.16 6.15234H170.76H171.36C171.36 4.57355 170.791 3.20727 169.671 2.08745L169.247 2.51172ZM170.76 6.15234H170.16V7.07617H170.76H171.36V6.15234H170.76ZM170.76 7.07617V6.47617H167.231V7.07617V7.67617H170.76V7.07617ZM167.231 7.07617H167.831V6.15234H167.231H166.631V7.07617H167.231ZM167.231 6.15234H167.831C167.831 5.54454 167.609 5.00902 167.179 4.57964L166.755 5.00391L166.331 5.42817C166.536 5.63346 166.631 5.86415 166.631 6.15234H167.231ZM166.755 5.00391L167.179 4.57953C166.744 4.14498 166.197 3.92832 165.579 3.92832V4.52832V5.12832C165.894 5.12832 166.131 5.22863 166.331 5.42828L166.755 5.00391ZM165.579 4.52832L165.579 3.92832C164.972 3.92839 164.437 4.15014 164.007 4.57956L164.432 5.00391L164.856 5.42826C165.061 5.22348 165.291 5.12836 165.579 5.12832L165.579 4.52832ZM164.432 5.00391L164.007 4.57964C163.578 5.00902 163.355 5.54454 163.355 6.15234H163.955H164.555C164.555 5.86415 164.651 5.63346 164.856 5.42817L164.432 5.00391ZM163.955 6.15234H163.355V16.792H163.955H164.555V6.15234H163.955ZM163.955 16.792H163.355C163.355 17.3998 163.578 17.9353 164.007 18.3647L164.432 17.9404L164.856 17.5162C164.651 17.3109 164.555 17.0802 164.555 16.792H163.955ZM164.432 17.9404L164.007 18.3648C164.437 18.7942 164.972 19.0159 165.579 19.016L165.579 18.416L165.579 17.816C165.291 17.816 165.061 17.7208 164.856 17.5161L164.432 17.9404ZM165.579 18.416V19.016C166.197 19.016 166.744 18.7993 167.179 18.3648L166.755 17.9404L166.331 17.516C166.131 17.7157 165.894 17.816 165.579 17.816V18.416ZM166.755 17.9404L167.179 18.3647C167.609 17.9353 167.831 17.3998 167.831 16.792H167.231H166.631C166.631 17.0802 166.536 17.3109 166.331 17.5162L166.755 17.9404ZM167.231 16.792H167.831V12.8721H167.231H166.631V16.792H167.231ZM167.231 12.8721V12.2721H165.188V12.8721V13.4721H167.231V12.8721ZM165.188 12.8721H165.787V9.34375H165.188H164.588V12.8721H165.188ZM165.188 9.34375V9.94375H170.76V9.34375V8.74375H165.188V9.34375ZM170.76 9.34375H170.16V16.792H170.76H171.36V9.34375H170.76ZM170.76 16.792H170.16C170.16 18.0505 169.719 19.1122 168.823 20.0084L169.247 20.4326L169.671 20.8569C170.791 19.7371 171.36 18.3708 171.36 16.792H170.76ZM169.247 20.4326L168.823 20.0083C167.928 20.9025 166.859 21.3443 165.579 21.3443V21.9443V22.5443C167.174 22.5443 168.55 21.9782 169.671 20.8569L169.247 20.4326ZM165.579 21.9443L165.579 21.3443C164.321 21.3443 163.26 20.9042 162.364 20.0083L161.939 20.4326L161.515 20.8569C162.635 21.9766 164.001 22.5443 165.579 22.5443L165.579 21.9443ZM161.939 20.4326L162.364 20.0084C161.468 19.1124 161.028 18.0508 161.028 16.792H160.428H159.828C159.828 18.3705 160.395 19.7369 161.515 20.8569L161.939 20.4326ZM160.428 16.792H161.028V6.15234H160.428H159.828V16.792H160.428ZM160.428 6.15234H161.028C161.028 4.89351 161.468 3.83196 162.364 2.93598L161.939 2.51172L161.515 2.08745C160.395 3.20748 159.828 4.57385 159.828 6.15234H160.428ZM161.939 2.51172L162.364 2.93601C163.26 2.04015 164.321 1.60005 165.579 1.6L165.579 1L165.579 0.4C164.001 0.40006 162.635 0.967762 161.515 2.08743L161.939 2.51172ZM207.184 1L207.184 1.6C208.463 1.60009 209.533 2.04174 210.427 2.93598L210.852 2.51172L211.276 2.08745C210.154 0.96592 208.778 0.400111 207.184 0.4L207.184 1ZM210.852 2.51172L210.427 2.93598C211.323 3.83196 211.763 4.89351 211.763 6.15234H212.363H212.963C212.963 4.57385 212.396 3.20748 211.276 2.08745L210.852 2.51172ZM212.363 6.15234H211.763V7.07617H212.363H212.963V6.15234H212.363ZM212.363 7.07617V6.47617H208.835V7.07617V7.67617H212.363V7.07617ZM208.835 7.07617H209.435V6.15234H208.835H208.235V7.07617H208.835ZM208.835 6.15234H209.435C209.435 5.54548 209.214 5.00968 208.784 4.57964L208.359 5.00391L207.935 5.42817C208.14 5.6328 208.235 5.86321 208.235 6.15234H208.835ZM208.359 5.00391L208.784 4.57964C208.349 4.14471 207.802 3.92845 207.184 3.92832L207.184 4.52832L207.183 5.12832C207.498 5.12839 207.736 5.22865 207.935 5.42817L208.359 5.00391ZM207.184 4.52832V3.92832C206.577 3.92832 206.041 4.14971 205.611 4.57961L206.035 5.00391L206.459 5.42821C206.664 5.2236 206.895 5.12832 207.184 5.12832V4.52832ZM206.035 5.00391L205.611 4.57964C205.181 5.00968 204.96 5.54548 204.96 6.15234H205.56H206.16C206.16 5.86321 206.255 5.6328 206.459 5.42817L206.035 5.00391ZM205.56 6.15234H204.96V6.48828H205.56H206.16V6.15234H205.56ZM205.56 6.48828L204.96 6.4883C204.96 7.49629 205.339 8.34793 206.095 8.98973L206.483 8.53223L206.872 8.07472C206.396 7.67125 206.16 7.16015 206.16 6.48826L205.56 6.48828ZM206.483 8.53223L206.093 8.98774L209.817 12.1801L210.207 11.7246L210.598 11.2691L206.874 8.07671L206.483 8.53223ZM210.207 11.7246L209.81 12.1743C211.121 13.332 211.763 14.7464 211.763 16.4561L212.363 16.4561L212.963 16.456C212.963 14.3953 212.168 12.6558 210.604 11.2749L210.207 11.7246ZM212.363 16.4561H211.763V16.792H212.363H212.963V16.4561H212.363ZM212.363 16.792H211.763C211.763 18.0508 211.323 19.1124 210.427 20.0084L210.852 20.4326L211.276 20.8569C212.396 19.7369 212.963 18.3705 212.963 16.792H212.363ZM210.852 20.4326L210.427 20.0084C209.533 20.9026 208.463 21.3442 207.184 21.3443L207.184 21.9443L207.184 22.5443C208.778 22.5442 210.154 21.9784 211.276 20.8569L210.852 20.4326ZM207.184 21.9443V21.3443C205.925 21.3443 204.863 20.9042 203.967 20.0083L203.543 20.4326L203.119 20.8569C204.239 21.9768 205.605 22.5443 207.184 22.5443V21.9443ZM203.543 20.4326L203.967 20.0084C203.071 19.1124 202.631 18.0508 202.631 16.792H202.031H201.431C201.431 18.3705 201.999 19.7369 203.119 20.8569L203.543 20.4326ZM202.031 16.792H202.631V15.8682H202.031H201.431V16.792H202.031ZM202.031 15.8682V16.4682H205.56V15.8682V15.2682H202.031V15.8682ZM205.56 15.8682H204.96V16.792H205.56H206.16V15.8682H205.56ZM205.56 16.792H204.96C204.96 17.3989 205.181 17.9347 205.611 18.3647L206.035 17.9404L206.459 17.5162C206.255 17.3115 206.16 17.0811 206.16 16.792H205.56ZM206.035 17.9404L205.611 18.3647C206.041 18.7946 206.577 19.016 207.184 19.016V18.416V17.816C206.895 17.816 206.664 17.7207 206.459 17.5161L206.035 17.9404ZM207.184 18.416L207.184 19.016C207.802 19.0159 208.349 18.7996 208.784 18.3647L208.359 17.9404L207.935 17.5162C207.736 17.7157 207.498 17.816 207.183 17.816L207.184 18.416ZM208.359 17.9404L208.784 18.3647C209.214 17.9347 209.435 17.3989 209.435 16.792H208.835H208.235C208.235 17.0811 208.14 17.3115 207.935 17.5162L208.359 17.9404ZM208.835 16.792H209.435V16.4561H208.835H208.235V16.792H208.835ZM208.835 16.4561L209.435 16.456C209.435 15.448 209.056 14.5964 208.299 13.9546L207.911 14.4121L207.523 14.8696C207.998 15.2731 208.235 15.7842 208.235 16.4561L208.835 16.4561ZM207.911 14.4121L208.302 13.9566L204.578 10.7642L204.188 11.2197L203.797 11.6752L207.521 14.8676L207.911 14.4121ZM204.188 11.2197L204.585 10.77C203.274 9.61228 202.631 8.19803 202.631 6.48827L202.031 6.48828L201.431 6.48829C201.431 8.54906 202.227 10.2886 203.79 11.6695L204.188 11.2197ZM202.031 6.48828H202.631V6.15234H202.031H201.431V6.48828H202.031ZM202.031 6.15234H202.631C202.631 4.89351 203.071 3.83196 203.967 2.93598L203.543 2.51172L203.119 2.08745C201.999 3.20748 201.431 4.57385 201.431 6.15234H202.031ZM203.543 2.51172L203.967 2.93599C204.863 2.04008 205.925 1.6 207.184 1.6V1V0.4C205.605 0.4 204.239 0.967516 203.119 2.08744L203.543 2.51172ZM242.623 1V1.6C243.903 1.6 244.972 2.04175 245.867 2.93601L246.291 2.51172L246.715 2.08743C245.594 0.966014 244.218 0.4 242.623 0.4V1ZM246.291 2.51172L245.867 2.93598C246.763 3.83196 247.203 4.89351 247.203 6.15234H247.803H248.403C248.403 4.57385 247.835 3.20748 246.715 2.08745L246.291 2.51172ZM247.803 6.15234H247.203V8.66406H247.803H248.403V6.15234H247.803ZM247.803 8.66406V8.06406H244.275V8.66406V9.26406H247.803V8.66406ZM244.275 8.66406H244.875V6.15234H244.275H243.675V8.66406H244.275ZM244.275 6.15234H244.875C244.875 5.54454 244.652 5.00902 244.223 4.57964L243.799 5.00391L243.375 5.42817C243.58 5.63346 243.675 5.86415 243.675 6.15234H244.275ZM243.799 5.00391L244.223 4.57956C243.788 4.14489 243.241 3.92832 242.623 3.92832V4.52832V5.12832C242.938 5.12832 243.175 5.22859 243.375 5.42825L243.799 5.00391ZM242.623 4.52832L242.623 3.92832C242.016 3.92833 241.48 4.1496 241.05 4.57964L241.475 5.00391L241.899 5.42817C242.103 5.22356 242.334 5.12832 242.623 5.12832L242.623 4.52832ZM241.475 5.00391L241.05 4.57968C240.62 5.00965 240.399 5.54549 240.399 6.15234H240.999H241.599C241.599 5.8633 241.694 5.63278 241.899 5.42813L241.475 5.00391ZM240.999 6.15234H240.399V8.66406H240.999H241.599V6.15234H240.999ZM240.999 8.66406V8.06406H237.535V8.66406V9.26406H240.999V8.66406ZM237.535 8.66406H236.935V9.66406H237.535H238.135V8.66406H237.535ZM237.535 9.66406V10.2641H240.999V9.66406V9.06406H237.535V9.66406ZM240.999 9.66406H240.399V10.6641H240.999H241.599V9.66406H240.999ZM240.999 10.6641V10.0641H237.535V10.6641V11.2641H240.999V10.6641ZM237.535 10.6641H236.935V11.6641H237.535H238.135V10.6641H237.535ZM237.535 11.6641V12.2641H240.999V11.6641V11.0641H237.535V11.6641ZM240.999 11.6641H240.399V12.6641H240.999H241.599V11.6641H240.999ZM240.999 12.6641V12.0641H237.535V12.6641V13.2641H240.999V12.6641ZM237.535 12.6641H236.935V13.6641H237.535H238.135V12.6641H237.535ZM237.535 13.6641V14.2641H240.999V13.6641V13.0641H237.535V13.6641ZM240.999 13.6641H240.399V16.792H240.999H241.599V13.6641H240.999ZM240.999 16.792H240.399C240.399 17.3988 240.62 17.9347 241.05 18.3647L241.475 17.9404L241.899 17.5162C241.694 17.3116 241.599 17.081 241.599 16.792H240.999ZM241.475 17.9404L241.05 18.3647C241.48 18.7947 242.016 19.016 242.623 19.016L242.623 18.416L242.623 17.816C242.334 17.816 242.103 17.7208 241.899 17.5162L241.475 17.9404ZM242.623 18.416V19.016C243.241 19.016 243.788 18.7994 244.223 18.3648L243.799 17.9404L243.375 17.5161C243.175 17.7157 242.938 17.816 242.623 17.816V18.416ZM243.799 17.9404L244.223 18.3647C244.652 17.9353 244.875 17.3998 244.875 16.792H244.275H243.675C243.675 17.0802 243.58 17.3109 243.375 17.5162L243.799 17.9404ZM244.275 16.792H244.875V13.6641H244.275H243.675V16.792H244.275ZM244.275 13.6641V14.2641H247.803V13.6641V13.0641H244.275V13.6641ZM247.803 13.6641H247.203V16.792H247.803H248.403V13.6641H247.803ZM247.803 16.792H247.203C247.203 18.0508 246.763 19.1124 245.867 20.0084L246.291 20.4326L246.715 20.8569C247.835 19.7369 248.403 18.3705 248.403 16.792H247.803ZM246.291 20.4326L245.867 20.0083C244.972 20.9026 243.903 21.3443 242.623 21.3443V21.9443V22.5443C244.218 22.5443 245.594 21.9783 246.715 20.8569L246.291 20.4326ZM242.623 21.9443V21.3443C241.365 21.3443 240.304 20.9042 239.408 20.0083L238.983 20.4326L238.559 20.8569C239.679 21.9765 241.045 22.5443 242.623 22.5443V21.9443ZM238.983 20.4326L239.408 20.0084C238.511 19.1122 238.071 18.0505 238.071 16.792H237.471H236.871C236.871 18.3708 237.439 19.7371 238.559 20.8569L238.983 20.4326ZM237.471 16.792H238.071V6.15234H237.471H236.871V16.792H237.471ZM237.471 6.15234H238.071C238.071 4.8938 238.511 3.83217 239.408 2.93598L238.983 2.51172L238.559 2.08745C237.439 3.20727 236.871 4.57355 236.871 6.15234H237.471ZM238.983 2.51172L239.408 2.93602C240.304 2.04015 241.365 1.60001 242.623 1.6V1V0.4C241.045 0.400008 239.679 0.9678 238.559 2.08742L238.983 2.51172ZM486.633 1V1.6C487.912 1.6 488.982 2.04186 489.877 2.93603L490.301 2.51172L490.725 2.08741C489.604 0.966155 488.228 0.4 486.633 0.4V1ZM490.301 2.51172L489.877 2.93598C490.773 3.83217 491.213 4.8938 491.213 6.15234H491.813H492.413C492.413 4.57355 491.845 3.20727 490.725 2.08745L490.301 2.51172ZM491.813 6.15234H491.213V7.07617H491.813H492.413V6.15234H491.813ZM491.813 7.07617V6.47617H488.285V7.07617V7.67617H491.813V7.07617ZM488.285 7.07617H488.885V6.15234H488.285H487.685V7.07617H488.285ZM488.285 6.15234H488.885C488.885 5.54548 488.664 5.00967 488.234 4.57966L487.81 5.00391L487.385 5.42815C487.59 5.63279 487.685 5.86325 487.685 6.15234H488.285ZM487.81 5.00391L488.234 4.57964C487.799 4.14441 487.251 3.92832 486.633 3.92832V4.52832V5.12832C486.948 5.12832 487.186 5.22874 487.385 5.42817L487.81 5.00391ZM486.633 4.52832L486.633 3.92832C486.026 3.92845 485.491 4.15007 485.061 4.57958L485.485 5.00391L485.91 5.42823C486.114 5.22352 486.344 5.12838 486.633 5.12832L486.633 4.52832ZM485.485 5.00391L485.061 4.57964C484.632 5.00902 484.409 5.54454 484.409 6.15234H485.009H485.609C485.609 5.86415 485.704 5.63346 485.91 5.42817L485.485 5.00391ZM485.009 6.15234H484.409V16.792H485.009H485.609V6.15234H485.009ZM485.009 16.792H484.409C484.409 17.3998 484.632 17.9353 485.061 18.3647L485.485 17.9404L485.91 17.5162C485.704 17.3109 485.609 17.0802 485.609 16.792H485.009ZM485.485 17.9404L485.061 18.3648C485.491 18.7943 486.026 19.0159 486.633 19.016L486.633 18.416L486.633 17.816C486.344 17.816 486.114 17.7208 485.91 17.5161L485.485 17.9404ZM486.633 18.416V19.016C487.251 19.016 487.799 18.7999 488.234 18.3647L487.81 17.9404L487.385 17.5162C487.186 17.7156 486.948 17.816 486.633 17.816V18.416ZM487.81 17.9404L488.234 18.3647C488.664 17.9347 488.885 17.3989 488.885 16.792H488.285H487.685C487.685 17.0811 487.59 17.3115 487.385 17.5162L487.81 17.9404ZM488.285 16.792H488.885V12.8721H488.285H487.685V16.792H488.285ZM488.285 12.8721V12.2721H486.241V12.8721V13.4721H488.285V12.8721ZM486.241 12.8721H486.841V9.34375H486.241H485.641V12.8721H486.241ZM486.241 9.34375V9.94375H491.813V9.34375V8.74375H486.241V9.34375ZM491.813 9.34375H491.213V16.792H491.813H492.413V9.34375H491.813ZM491.813 16.792H491.213C491.213 18.0505 490.773 19.1122 489.877 20.0084L490.301 20.4326L490.725 20.8569C491.845 19.7371 492.413 18.3708 492.413 16.792H491.813ZM490.301 20.4326L489.877 20.0083C488.982 20.9025 487.912 21.3443 486.633 21.3443V21.9443V22.5443C488.228 22.5443 489.604 21.9782 490.725 20.8569L490.301 20.4326ZM486.633 21.9443L486.633 21.3443C485.374 21.3442 484.313 20.9042 483.417 20.0083L482.993 20.4326L482.569 20.8569C483.689 21.9766 485.054 22.5442 486.633 22.5443L486.633 21.9443ZM482.993 20.4326L483.417 20.0084C482.521 19.1124 482.081 18.0508 482.081 16.792H481.481H480.881C480.881 18.3705 481.449 19.7369 482.569 20.8569L482.993 20.4326ZM481.481 16.792H482.081V6.15234H481.481H480.881V16.792H481.481ZM481.481 6.15234H482.081C482.081 4.89351 482.521 3.83196 483.417 2.93598L482.993 2.51172L482.569 2.08745C481.449 3.20748 480.881 4.57385 480.881 6.15234H481.481ZM482.993 2.51172L483.417 2.936C484.313 2.04015 485.374 1.60009 486.633 1.6L486.633 1L486.633 0.4C485.054 0.400108 483.689 0.967727 482.569 2.08744L482.993 2.51172ZM52.168 21.6641V21.0641H48.6396V21.6641V22.2641H52.168V21.6641ZM48.6396 21.6641H49.2396V15.9521H48.6396H48.0396V21.6641H48.6396ZM48.6396 15.9521V16.5521H52.168V15.9521V15.3521H48.6396V15.9521ZM52.168 15.9521H51.568V21.6641H52.168H52.768V15.9521H52.168ZM128.91 4.80859V4.20859H125.41V4.80859V5.40859H128.91V4.80859ZM125.41 4.80859H124.81V21.6641H125.41H126.01V4.80859H125.41ZM125.41 21.6641V21.0641H121.882V21.6641V22.2641H125.41V21.6641ZM121.882 21.6641H122.482V4.80859H121.882H121.282V21.6641H121.882ZM121.882 4.80859V4.20859H118.382V4.80859V5.40859H121.882V4.80859ZM118.382 4.80859H118.982V1.28027H118.382H117.782V4.80859H118.382ZM118.382 1.28027V1.88027H128.91V1.28027V0.680273H118.382V1.28027ZM128.91 1.28027H128.31V4.80859H128.91H129.51V1.28027H128.91ZM150.254 21.6641V21.0641H146.642V21.6641V22.2641H150.254V21.6641ZM146.642 21.6641L147.231 21.5535L146.475 17.5213L145.886 17.6318L145.296 17.7424L146.052 21.7746L146.642 21.6641ZM145.886 17.6318V17.0318H142.47V17.6318V18.2318H145.886V17.6318ZM142.47 17.6318L141.88 17.5213L141.124 21.5535L141.714 21.6641L142.304 21.7746L143.059 17.7424L142.47 17.6318ZM141.714 21.6641V21.0641H138.102V21.6641V22.2641H141.714V21.6641ZM138.102 21.6641L138.689 21.7883L143.001 1.40446L142.414 1.28027L141.827 1.15608L137.515 21.5399L138.102 21.6641ZM142.414 1.28027V1.88027H145.941V1.28027V0.680273H142.414V1.28027ZM145.941 1.28027L145.354 1.40446L149.667 21.7883L150.254 21.6641L150.841 21.5399L146.528 1.15608L145.941 1.28027ZM191.557 4.80859V4.20859H185.816V4.80859V5.40859H191.557V4.80859ZM185.816 4.80859H185.216V9.34375H185.816H186.416V4.80859H185.816ZM185.816 9.34375V9.94375H190.885V9.34375V8.74375H185.816V9.34375ZM190.885 9.34375H190.285V12.8721H190.885H191.485V9.34375H190.885ZM190.885 12.8721V12.2721H185.816V12.8721V13.4721H190.885V12.8721ZM185.816 12.8721H185.216V18.1357H185.816H186.416V12.8721H185.816ZM185.816 18.1357V18.7357H191.557V18.1357V17.5357H185.816V18.1357ZM191.557 18.1357H190.957V21.6641H191.557H192.157V18.1357H191.557ZM191.557 21.6641V21.0641H182.288V21.6641V22.2641H191.557V21.6641ZM182.288 21.6641H182.888V1.28027H182.288H181.688V21.6641H182.288ZM182.288 1.28027V1.88027H191.557V1.28027V0.680273H182.288V1.28027ZM191.557 1.28027H190.957V4.80859H191.557H192.157V1.28027H191.557ZM268.601 4.80859V4.20859H262.86V4.80859V5.40859H268.601V4.80859ZM262.86 4.80859H262.26V9.34375H262.86H263.46V4.80859H262.86ZM262.86 9.34375V9.94375H267.929V9.34375V8.74375H262.86V9.34375ZM267.929 9.34375H267.329V12.8721H267.929H268.529V9.34375H267.929ZM267.929 12.8721V12.2721H262.86V12.8721V13.4721H267.929V12.8721ZM262.86 12.8721H262.26V21.6641H262.86H263.46V12.8721H262.86ZM262.86 21.6641V21.0641H259.332V21.6641V22.2641H262.86V21.6641ZM259.332 21.6641H259.932V1.28027H259.332H258.732V21.6641H259.332ZM259.332 1.28027V1.88027H268.601V1.28027V0.680273H259.332V1.28027ZM268.601 1.28027H268.001V4.80859H268.601H269.201V1.28027H268.601ZM302.501 4.80859V4.20859H296.761V4.80859V5.40859H302.501V4.80859ZM296.761 4.80859H296.161V9.34375H296.761H297.361V4.80859H296.761ZM296.761 9.34375V9.94375H301.829V9.34375V8.74375H296.761V9.34375ZM301.829 9.34375H301.229V12.8721H301.829H302.429V9.34375H301.829ZM301.829 12.8721V12.2721H296.761V12.8721V13.4721H301.829V12.8721ZM296.761 12.8721H296.161V21.6641H296.761H297.361V12.8721H296.761ZM296.761 21.6641V21.0641H293.233V21.6641V22.2641H296.761V21.6641ZM293.233 21.6641H293.833V1.28027H293.233H292.633V21.6641H293.233ZM293.233 1.28027V1.88027H302.501V1.28027V0.680273H293.233V1.28027ZM302.501 1.28027H301.901V4.80859H302.501H303.101V1.28027H302.501ZM316.651 21.6641V21.0641H313.123V21.6641V22.2641H316.651V21.6641ZM313.123 21.6641H313.723V9.95215H313.123H312.523V21.6641H313.123ZM313.123 9.95215V10.5521H316.651V9.95215V9.35215H313.123V9.95215ZM316.651 9.95215H316.051V21.6641H316.651H317.251V9.95215H316.651ZM331.865 18.1357V18.7357H336.653V18.1357V17.5357H331.865V18.1357ZM336.653 18.1357H336.053V21.6641H336.653H337.253V18.1357H336.653ZM336.653 21.6641V21.0641H328.337V21.6641V22.2641H336.653V21.6641ZM328.337 21.6641H328.937V1.28027H328.337H327.737V21.6641H328.337ZM328.337 1.28027V1.88027H331.865V1.28027V0.680273H328.337V1.28027ZM331.865 1.28027H331.265V18.1357H331.865H332.465V1.28027H331.865ZM354.468 12.3965L355.037 12.5858L358.733 1.46959L358.164 1.28027L357.595 1.09096L353.898 12.2072L354.468 12.3965ZM358.164 1.28027V1.88027H361.72V1.28027V0.680273H358.164V1.28027ZM361.72 1.28027H361.12V21.6641H361.72H362.32V1.28027H361.72ZM361.72 21.6641V21.0641H358.191V21.6641V22.2641H361.72V21.6641ZM358.191 21.6641H358.791V10.5479H358.191H357.591V21.6641H358.191ZM358.191 10.5479L357.618 10.3703L355.154 18.3224L355.728 18.5L356.301 18.6776L358.765 10.7254L358.191 10.5479ZM355.728 18.5V17.9H353.18V18.5V19.1H355.728V18.5ZM353.18 18.5L353.753 18.3224L351.289 10.3703L350.716 10.5479L350.143 10.7254L352.607 18.6776L353.18 18.5ZM350.716 10.5479H350.116V21.6641H350.716H351.316V10.5479H350.716ZM350.716 21.6641V21.0641H347.188V21.6641V22.2641H350.716V21.6641ZM347.188 21.6641H347.788V1.28027H347.188H346.587V21.6641H347.188ZM347.188 1.28027V1.88027H350.744V1.28027V0.680273H347.188V1.28027ZM350.744 1.28027L350.175 1.47085L353.899 12.5871L354.468 12.3965L355.037 12.2059L351.313 1.0897L350.744 1.28027ZM380.646 12.3965L381.216 12.5858L384.912 1.46959L384.343 1.28027L383.773 1.09096L380.077 12.2072L380.646 12.3965ZM384.343 1.28027V1.88027H387.898V1.28027V0.680273H384.343V1.28027ZM387.898 1.28027H387.298V21.6641H387.898H388.498V1.28027H387.898ZM387.898 21.6641V21.0641H384.371V21.6641V22.2641H387.898V21.6641ZM384.371 21.6641H384.971V10.5479H384.371H383.771V21.6641H384.371ZM384.371 10.5479L383.798 10.3702L381.333 18.3224L381.906 18.5L382.479 18.6776L384.944 10.7255L384.371 10.5479ZM381.906 18.5V17.9H379.358V18.5V19.1H381.906V18.5ZM379.358 18.5L379.932 18.3224L377.468 10.3703L376.895 10.5479L376.321 10.7254L378.785 18.6776L379.358 18.5ZM376.895 10.5479H376.295V21.6641H376.895H377.495V10.5479H376.895ZM376.895 21.6641V21.0641H373.366V21.6641V22.2641H376.895V21.6641ZM373.366 21.6641H373.966V1.28027H373.366H372.766V21.6641H373.366ZM373.366 1.28027V1.88027H376.923V1.28027V0.680273H373.366V1.28027ZM376.923 1.28027L376.354 1.47085L380.078 12.5871L380.646 12.3965L381.215 12.2059L377.492 1.0897L376.923 1.28027ZM410.325 21.6641V21.0641H406.714V21.6641V22.2641H410.325V21.6641ZM406.714 21.6641L407.304 21.5535L406.548 17.5213L405.958 17.6318L405.368 17.7424L406.124 21.7746L406.714 21.6641ZM405.958 17.6318V17.0318H402.542V17.6318V18.2318H405.958V17.6318ZM402.542 17.6318L401.952 17.5212L401.195 21.5534L401.785 21.6641L402.375 21.7747L403.132 17.7425L402.542 17.6318ZM401.785 21.6641V21.0641H398.174V21.6641V22.2641H401.785V21.6641ZM398.174 21.6641L398.761 21.7882L403.072 1.40444L402.485 1.28027L401.898 1.15611L397.587 21.5399L398.174 21.6641ZM402.485 1.28027V1.88027H406.014V1.28027V0.680273H402.485V1.28027ZM406.014 1.28027L405.427 1.40444L409.738 21.7882L410.325 21.6641L410.912 21.5399L406.601 1.15611L406.014 1.28027ZM424.14 9.87598L424.687 10.1219L428.55 1.52624L428.003 1.28027L427.456 1.03431L423.592 9.63001L424.14 9.87598ZM428.003 1.28027V1.88027H431.923V1.28027V0.680273H428.003V1.28027ZM431.923 1.28027L431.385 1.01413L427.242 9.3862L427.779 9.65234L428.317 9.91849L432.461 1.54642L431.923 1.28027ZM427.779 9.65234L427.226 9.88449L432.266 21.8962L432.819 21.6641L433.373 21.4319L428.333 9.4202L427.779 9.65234ZM432.819 21.6641V21.0641H428.983V21.6641V22.2641H432.819V21.6641ZM428.983 21.6641L429.542 21.4449L426.378 13.3814L425.819 13.6006L425.261 13.8198L428.425 21.8832L428.983 21.6641ZM425.819 13.6006L425.283 13.3323L423.603 16.6916L424.14 16.96L424.676 17.2283L426.356 13.8689L425.819 13.6006ZM424.14 16.96H423.54V21.6641H424.14H424.74V16.96H424.14ZM424.14 21.6641V21.0641H420.611V21.6641V22.2641H424.14V21.6641ZM420.611 21.6641H421.211V1.28027H420.611H420.011V21.6641H420.611ZM420.611 1.28027V1.88027H424.14V1.28027V0.680273H420.611V1.28027ZM424.14 1.28027H423.54V9.87598H424.14H424.74V1.28027H424.14ZM446.682 21.6641V21.0641H443.153V21.6641V22.2641H446.682V21.6641ZM443.153 21.6641H443.753V1.28027H443.153H442.553V21.6641H443.153ZM443.153 1.28027V1.88027H446.682V1.28027V0.680273H443.153V1.28027ZM446.682 1.28027H446.082V21.6641H446.682H447.282V1.28027H446.682ZM466.403 12.4238H467.003V1.28027H466.403H465.803V12.4238H466.403ZM466.403 1.28027V1.88027H469.932V1.28027V0.680273H466.403V1.28027ZM469.932 1.28027H469.332V21.6641H469.932H470.532V1.28027H469.932ZM469.932 21.6641V21.0641H466.403V21.6641V22.2641H469.932V21.6641ZM466.403 21.6641L466.96 21.4391L462.452 10.2955L461.896 10.5205L461.339 10.7455L465.847 21.8891L466.403 21.6641ZM461.896 10.5205H461.296V21.6641H461.896H462.496V10.5205H461.896ZM461.896 21.6641V21.0641H458.367V21.6641V22.2641H461.896V21.6641ZM458.367 21.6641H458.967V1.28027H458.367H457.767V21.6641H458.367ZM458.367 1.28027V1.88027H461.896V1.28027V0.680273H458.367V1.28027ZM461.896 1.28027L461.339 1.50527L465.847 12.6488L466.403 12.4238L466.96 12.1988L462.452 1.05527L461.896 1.28027ZM52.168 14.9521V14.3521H48.6396V14.9521V15.5521H52.168V14.9521ZM48.6396 14.9521H49.2396V13.9521H48.6396H48.0396V14.9521H48.6396ZM48.6396 13.9521V14.5521H52.168V13.9521V13.3521H48.6396V13.9521ZM52.168 13.9521H51.568V14.9521H52.168H52.768V13.9521H52.168ZM143.113 14.1045V14.7045H145.242V14.1045V13.5045H143.113V14.1045ZM145.242 14.1045L145.832 13.9951L144.768 8.25486L144.178 8.36426L143.588 8.47366L144.652 14.2139L145.242 14.1045ZM144.178 8.36426L143.588 8.25486L142.523 13.9951L143.113 14.1045L143.703 14.2139L144.768 8.47366L144.178 8.36426ZM403.186 14.1045V14.7045H405.313V14.1045V13.5045H403.186V14.1045ZM405.313 14.1045L405.903 13.9952L404.84 8.25496L404.25 8.36426L403.66 8.47356L404.724 14.2138L405.313 14.1045ZM404.25 8.36426L403.66 8.25486L402.596 13.9951L403.186 14.1045L403.775 14.2139L404.84 8.47366L404.25 8.36426ZM52.168 12.9521V12.3521H48.6396V12.9521V13.5521H52.168V12.9521ZM48.6396 12.9521H49.2396V11.9521H48.6396H48.0396V12.9521H48.6396ZM48.6396 11.9521V12.5521H52.168V11.9521V11.3521H48.6396V11.9521ZM52.168 11.9521H51.568V12.9521H52.168H52.768V11.9521H52.168ZM247.803 12.6641V12.0641H244.275V12.6641V13.2641H247.803V12.6641ZM244.275 12.6641H244.875V11.6641H244.275H243.675V12.6641H244.275ZM244.275 11.6641V12.2641H247.803V11.6641V11.0641H244.275V11.6641ZM247.803 11.6641H247.203V12.6641H247.803H248.403V11.6641H247.803ZM52.168 10.9521V10.3521H48.6396V10.9521V11.5521H52.168V10.9521ZM48.6396 10.9521H49.2396V5.67578H48.6396H48.0396V10.9521H48.6396ZM48.6396 5.67578L48.2442 5.22453L45.5284 7.60441L45.9238 8.05566L46.3193 8.50692L49.0351 6.12704L48.6396 5.67578ZM45.9238 8.05566H46.5238V3.66016H45.9238H45.3238V8.05566H45.9238ZM45.9238 3.66016L46.3193 4.11141L49.0351 1.73153L48.6396 1.28027L48.2442 0.829019L45.5284 3.2089L45.9238 3.66016ZM48.6396 1.28027V1.88027H52.168V1.28027V0.680273H48.6396V1.28027ZM52.168 1.28027H51.568V10.9521H52.168H52.768V1.28027H52.168ZM247.803 10.6641V10.0641H244.275V10.6641V11.2641H247.803V10.6641ZM244.275 10.6641H244.875V9.66406H244.275H243.675V10.6641H244.275ZM244.275 9.66406V10.2641H247.803V9.66406V9.06406H244.275V9.66406ZM247.803 9.66406H247.203V10.6641H247.803H248.403V9.66406H247.803ZM316.651 8.95215V8.35215H313.123V8.95215V9.55215H316.651V8.95215ZM313.123 8.95215H313.723V7.95215H313.123H312.523V8.95215H313.123ZM313.123 7.95215V8.55215H316.651V7.95215V7.35215H313.123V7.95215ZM316.651 7.95215H316.051V8.95215H316.651H317.251V7.95215H316.651ZM316.651 6.95215V6.35215H313.123V6.95215V7.55215H316.651V6.95215ZM313.123 6.95215H313.723V5.95215H313.123H312.523V6.95215H313.123ZM313.123 5.95215V6.55215H316.651V5.95215V5.35215H313.123V5.95215ZM316.651 5.95215H316.051V6.95215H316.651H317.251V5.95215H316.651ZM316.651 4.95215V4.35215H313.123V4.95215V5.55215H316.651V4.95215ZM313.123 4.95215H313.723V1.28027H313.123H312.523V4.95215H313.123ZM313.123 1.28027V1.88027H316.651V1.28027V0.680273H313.123V1.28027ZM316.651 1.28027H316.051V4.95215H316.651H317.251V1.28027H316.651Z" fill="url(#paint1_linear_7_233)" mask="url(#path-1-inside-1_7_233)"/>
<defs>
<radialGradient id="paint0_radial_7_233" cx="0" cy="0" r="1" gradientUnits="userSpaceOnUse" gradientTransform="translate(268.101 11.7474) rotate(90) scale(54.3276 290.214)">
<stop stop-color="#ECF7FF"/>
<stop offset="1" stop-color="#ECF7FF" stop-opacity="0"/>
</radialGradient>
<linearGradient id="paint1_linear_7_233" x1="268.101" y1="-8.03681" x2="268.101" y2="63.9319" gradientUnits="userSpaceOnUse">
<stop stop-color="#253596" stop-opacity="0"/>
<stop offset="0.456017" stop-color="#4A76D4"/>
<stop offset="1" stop-color="#76EAF1"/>
</linearGradient>
</defs>
</svg>
